<svg xmlns="http://www.w3.org/2000/svg" version="1.1" width="32" height="32" data-icon="aperture" viewBox="0 0 32 32">
  <path d="M16 0c-4.743 0-8.976 2.065-11.906 5.344l5.563 9.656 8.563-14.844c-.725-.1-1.467-.156-2.219-.156zm3.281.344l-5.594 9.656h17.125c-1.978-4.883-6.264-8.562-11.531-9.656zm-15.875 5.813c-2.12 2.714-3.406 6.133-3.406 9.844 0 1.748.294 3.426.813 5h11.156l-8.563-14.844zm16.625 4.844l8.563 14.844c2.12-2.714 3.406-6.133 3.406-9.844 0-1.748-.294-3.426-.813-5h-11.156zm2.313 6l-8.563 14.844c.725.1 1.467.156 2.219.156 4.743 0 8.976-2.065 11.906-5.344l-5.563-9.656zm-21.156 5c1.978 4.883 6.264 8.562 11.531 9.656l5.594-9.656h-17.125z"
  />
</svg>