<svg xmlns="http://www.w3.org/2000/svg" version="1.1" width="16" height="16" data-icon="audio" data-container-transform="translate(0 2)" viewBox="0 0 16 16">
  <path d="M2.344 0c-1.447 1.447-2.344 3.45-2.344 5.656 0 2.206.897 4.209 2.344 5.656l.719-.719c-1.267-1.267-2.063-3.002-2.063-4.938s.795-3.67 2.063-4.938l-.719-.719zm11.313 0l-.719.719c1.267 1.267 2.063 3.002 2.063 4.938s-.795 3.67-2.063 4.938l.719.719c1.447-1.447 2.344-3.45 2.344-5.656 0-2.206-.897-4.209-2.344-5.656zm-9.188 2.125c-.904.904-1.469 2.153-1.469 3.531 0 1.378.565 2.627 1.469 3.531l.688-.688c-.724-.724-1.156-1.736-1.156-2.844 0-1.108.432-2.088 1.156-2.813l-.688-.719zm7.063 0l-.688.719c.724.724 1.156 1.705 1.156 2.813s-.432 2.12-1.156 2.844l.688.688c.904-.904 1.469-2.153 1.469-3.531 0-1.378-.565-2.627-1.469-3.531zm-3.531 1.531c-1.105 0-2 .895-2 2s.895 2 2 2 2-.895 2-2-.895-2-2-2z"
  transform="translate(0 2)" />
</svg>