<svg xmlns="http://www.w3.org/2000/svg" version="1.1" width="32" height="32" data-icon="audio" data-container-transform="translate(0 5)" viewBox="0 0 32 32">
  <path d="M4.688 0c-2.894 2.895-4.688 6.9-4.688 11.313 0 4.412 1.794 8.418 4.688 11.313l1.406-1.406c-2.534-2.535-4.094-6.034-4.094-9.906 0-3.872 1.559-7.371 4.094-9.906l-1.406-1.406zm22.625 0l-1.406 1.406c2.535 2.535 4.094 6.034 4.094 9.906 0 3.872-1.559 7.371-4.094 9.906l1.406 1.406c2.894-2.895 4.688-6.9 4.688-11.313 0-4.412-1.793-8.418-4.688-11.313zm-18.375 4.25c-1.809 1.809-2.938 4.307-2.938 7.063 0 2.755 1.129 5.254 2.938 7.063l1.406-1.406c-1.449-1.449-2.344-3.441-2.344-5.656s.895-4.207 2.344-5.656l-1.406-1.406zm14.125 0l-1.406 1.406c1.449 1.449 2.344 3.441 2.344 5.656s-.895 4.207-2.344 5.656l1.406 1.406c1.809-1.809 2.938-4.307 2.938-7.063 0-2.755-1.129-5.254-2.938-7.063zm-7.063 4.063c-1.657 0-3 1.343-3 3s1.343 3 3 3 3-1.343 3-3-1.343-3-3-3z"
  transform="translate(0 5)" />
</svg>