<svg xmlns="http://www.w3.org/2000/svg" version="1.1" width="128" height="128" data-icon="audio" data-container-transform="translate(0 19)" viewBox="0 0 128 128">
  <path d="M18.75 0c-11.578 11.576-18.75 27.601-18.75 45.25s7.173 33.673 18.75 45.25l5.656-5.656c-10.139-10.139-16.406-24.107-16.406-39.594 0-15.487 6.268-29.456 16.406-39.594l-5.656-5.656zm90.5 0l-5.656 5.656c10.139 10.139 16.406 24.107 16.406 39.594 0 15.487-6.268 29.456-16.406 39.594l5.656 5.656c11.578-11.576 18.75-27.601 18.75-45.25s-7.173-33.673-18.75-45.25zm-71.063 19.438c-6.6 6.6-10.688 15.757-10.688 25.813s4.087 19.212 10.688 25.813l5.656-5.656c-5.162-5.162-8.344-12.262-8.344-20.156 0-7.894 3.182-14.995 8.344-20.156l-5.656-5.656zm51.625 0l-5.656 5.656c5.162 5.162 8.344 12.262 8.344 20.156 0 7.894-3.182 14.995-8.344 20.156l5.656 5.656c6.6-6.6 10.688-15.757 10.688-25.813s-4.087-19.212-10.688-25.813zm-25.813 15.813c-5.523 0-10 4.477-10 10s4.477 10 10 10 10-4.477 10-10-4.477-10-10-10z"
  transform="translate(0 19)" />
</svg>