<svg xmlns="http://www.w3.org/2000/svg" version="1.1" width="32" height="32" data-icon="basket" data-container-transform="translate(0 1)" viewBox="0 0 32 32">
  <path d="M15.844-.031a1.5 1.5 0 0 0-1.094.688l-7.5 11a1.508 1.508 0 1 0 2.5 1.688l7.5-11a1.5 1.5 0 0 0-1.25-2.375 1.5 1.5 0 0 0-.156 0zm2.531 2.313c-.071.218-.176.425-.313.625l-1.469 2.156 5.656 8.281a1.508 1.508 0 1 0 2.5-1.688l-6.375-9.375zm-17.875 9.719c-.276 0-.5.224-.5.5v2c0 .276.224.5.5.5h1.75l3.625 14.5c.067.268.349.5.625.5h19c.276 0 .558-.232.625-.5l3.625-14.5h1.75c.276 0 .5-.224.5-.5v-2c0-.276-.224-.5-.5-.5h-5.563c.191.938-.171 1.939-1 2.531-.441.315-.934.469-1.438.469-.78 0-1.543-.38-2.031-1.063l-1.406-1.938h-8.125l-1.406 1.938c-.488.683-1.251 1.063-2.031 1.063-.503 0-.997-.154-1.438-.469-.829-.592-1.191-1.594-1-2.531h-5.563zm5.875 6c.266-.07.558.106.625.375l2 8c.067.268-.107.558-.375.625-.04.01-.084 0-.125 0-.224 0-.444-.147-.5-.375l-2-8c-.067-.268.107-.558.375-.625zm6.063 0c.278-.034.527.163.563.438l1 8c.034.274-.164.529-.438.563-.021.002-.041 0-.063 0-.248 0-.468-.184-.5-.438l-1-8c-.034-.274.164-.529.438-.563zm6.938 0c.063-.018.119-.009.188 0 .274.034.471.288.438.563l-1 8c-.032.253-.251.438-.5.438-.021 0-.041.002-.063 0-.274-.034-.471-.288-.438-.563l1-8c.026-.206.186-.383.375-.438zm6.031 0c.064-.01.151-.017.219 0 .268.067.442.357.375.625l-2 8c-.057.228-.276.375-.5.375-.04 0-.084.01-.125 0-.268-.067-.442-.357-.375-.625l2-8c.049-.202.213-.346.406-.375z"
  transform="translate(0 1)" />
</svg>