<svg xmlns="http://www.w3.org/2000/svg" version="1.1" width="128" height="128" data-icon="basket" data-container-transform="translate(0 9)" viewBox="0 0 128 128">
  <path d="M63.438 0a4 4 0 0 0-2.531 1.469 4 4 0 0 0-.156.219l-30 42c-1.284 1.798-.86 4.279.938 5.563.703.502 1.511.749 2.313.75 1.091-.001 2.163-.438 2.938-1.281.028-.031.066-.062.094-.094a4 4 0 0 0 .219-.313l30-42a4 4 0 0 0-2.625-6.313h-1.188zm6.688 5.719l-4.906 6.875 25.531 35.719a4 4 0 0 0 2.063 1.688h2.719a4 4 0 0 0 1.719-6.313l-27.125-37.969zm-68.625 36.281c-.828 0-1.5.672-1.5 1.5v5c0 .828.672 1.5 1.5 1.5h5.625l16.063 57.125c.448 1.595 2.155 2.875 3.813 2.875h74c1.657 0 3.364-1.28 3.813-2.875l16.063-57.125h5.625c.828 0 1.5-.672 1.5-1.5v-5c0-.828-.672-1.5-1.5-1.5h-27.969l.344.5c1.926 2.696 1.322 6.449-1.375 8.375-1.057.755-2.293 1.125-3.5 1.125-1.872 0-3.704-.861-4.875-2.5l-5.344-7.5h-39.563l-5.344 7.5c-1.171 1.64-3.004 2.5-4.875 2.5-1.207 0-2.443-.37-3.5-1.125-2.697-1.926-3.301-5.678-1.375-8.375l.375-.5h-28zm32.5 2c1.105 0 2 .895 2 2s-.895 2-2 2-2-.895-2-2 .895-2 2-2zm60 0c1.105 0 2 .895 2 2s-.895 2-2 2-2-.895-2-2 .895-2 2-2zm-64.125 16c.927-.063 1.804.538 2.063 1.469l10 36c.295 1.064-.342 2.173-1.406 2.469-.179.049-.354.063-.531.063-.876 0-1.691-.584-1.938-1.469l-10-36c-.295-1.064.342-2.174 1.406-2.469.133-.037.274-.054.406-.063zm21.906 0c1.094-.12 2.097.683 2.219 1.781l4 36c.122 1.098-.683 2.096-1.781 2.219-.075.008-.145 0-.219 0-1.006 0-1.887-.758-2-1.781l-4-36c-.122-1.098.683-2.097 1.781-2.219zm24.031 0c.132-.012.269-.015.406 0 1.098.122 1.903 1.121 1.781 2.219l-4 36c-.114 1.023-.994 1.781-2 1.781-.074 0-.144.008-.219 0-1.098-.122-1.903-1.122-1.781-2.219l4-36c.107-.961.887-1.696 1.813-1.781zm21.969 0c.113-.012.228-.008.344 0 .133.009.273.026.406.063 1.064.296 1.702 1.405 1.406 2.469l-10 36c-.246.885-1.061 1.469-1.938 1.469-.177 0-.352-.013-.531-.063-1.065-.296-1.702-1.405-1.406-2.469l10-36c.227-.815.926-1.383 1.719-1.469z"
  transform="translate(0 9)" />
</svg>