<svg xmlns="http://www.w3.org/2000/svg" version="1.1" width="32" height="32" data-icon="beaker" viewBox="0 0 32 32">
  <path d="M9.313 0a1.001 1.001 0 0 0 .188 2h.5v10.156l-9.063 13.969-.031.063c-.442.586-.906 1.342-.906 2.313 0 .926.374 1.812 1.031 2.469.656.654 1.541 1.031 2.469 1.031h25c.926 0 1.812-.374 2.469-1.031.654-.656 1.031-1.541 1.031-2.469 0-.97-.465-1.726-.906-2.313l-.031-.063-9.063-13.969v-10.156h.5a1 1 0 1 0 0-2h-13a1 1 0 0 0-.094 0 1.001 1.001 0 0 0-.094 0zm2.688 2h8v2h-1.5a.5.5 0 0 0-.094 0 .502.502 0 1 0 .094 1h1.5v3h-1.5a.5.5 0 0 0-.094 0 .502.502 0 1 0 .094 1h1.5v3h-1.5a.5.5 0 0 0-.094 0 .502.502 0 1 0 .094 1h1.656l1.938 3h-1.594a.5.5 0 0 0-.094 0 .502.502 0 1 0 .094 1h2.25l1.969 3h-6c.172-.295.281-.634.281-1 0-1.105-.895-2-2-2s-2 .895-2 2c0 .366.109.705.281 1h-8l4.563-7 .156-.25v-10.75zm1 21c.552 0 1 .448 1 1s-.448 1-1 1-1-.448-1-1 .448-1 1-1zm2.5 4c.276 0 .5.224.5.5s-.224.5-.5.5-.5-.224-.5-.5.224-.5.5-.5z"
  />
</svg>