<svg xmlns="http://www.w3.org/2000/svg" version="1.1" width="16" height="16" data-icon="bell" data-container-transform="translate(1)" viewBox="0 0 16 16">
  <path d="M7 0c-.552 0-1 .448-1 1 0 .046.025.081.031.125-1.744.431-3.031 1.998-3.031 3.875 0 2.08-.008 3.981-1.656 5.344-.824.681-1.344 1.616-1.344 2.656h14c0-1.039-.52-1.975-1.344-2.656-1.648-1.363-1.656-3.265-1.656-5.344 0-1.877-1.288-3.444-3.031-3.875.006-.044.031-.079.031-.125 0-.552-.448-1-1-1zm-2 14c0 1.105.895 2 2 2s2-.895 2-2h-4z"
  transform="translate(1)" />
</svg>