<svg xmlns="http://www.w3.org/2000/svg" version="1.1" width="128" height="128" data-icon="bitcoin-transaction" data-container-transform="translate(6)" viewBox="0 0 128 128">
  <path d="M28 0v16h-28v6h8c3.314 0 6 2.686 6 6v72c0 3.314-2.686 6-6 6h-8v6h28v16h8v-16h8v16h8v-16h1v-.031c15-.528 27-12.84 27-27.969 0-11.41-6.835-21.231-16.625-25.594 5.266-4.402 8.625-11.005 8.625-18.406 0-11.89-8.651-21.751-20-23.656v-16.344h-8v16h-8v-16h-8zm0 22h15c9.389 0 17 7.611 17 17s-7.611 17-17 17h-15v-34zm68 14l-16 12 16 12v-8h14v-8h-14v-8zm4 20v8h-14v8h14v8l16-12-16-12zm-72 6h16.531c12.15 0 22 9.85 22 22s-9.85 22-22 22h-16.531v-44z"
  transform="translate(6)" />
</svg>