<svg xmlns="http://www.w3.org/2000/svg" version="1.1" width="32" height="32" data-icon="bitcoin-transaction" data-container-transform="translate(1)" viewBox="0 0 32 32">
  <path d="M7 0v5h-7v2h2c1.105 0 2 .895 2 2v14c0 1.105-.895 2-2 2h-2v2h7v5h2v-5h2v5h2v-5h.5c3.59 0 6.5-2.91 6.5-6.5 0-2.507-1.421-4.916-3.5-6 .928-.985 1.5-2.541 1.5-4 0-2.869-2.197-5.216-5-5.469v-5.031h-2v5h-2v-5h-2zm1 7h2.5c1.933 0 3.5 1.567 3.5 3.5s-1.567 3.5-3.5 3.5h-2.5v-7zm16 2l-4 3 4 3v-2h3v-2h-3v-2zm1 5v2h-3v2h3v2l4-3-4-3zm-17 2h3.5c2.485 0 4.5 2.015 4.5 4.5s-2.015 4.5-4.5 4.5h-3.5v-9z"
  transform="translate(1)" />
</svg>