<svg xmlns="http://www.w3.org/2000/svg" version="1.1" width="16" height="16" data-icon="bitcoin-address" viewBox="0 0 16 16">
  <path d="M0 0v6h6v-6h-6zm8 0v1h1v-1h-1zm0 1h-1v1h1v-1zm0 1v1h-1v2h1v-1h1v-2h-1zm0 3v1h-1v1h1v1h1v-3h-1zm0 3h-1v-1h-1v1h-1v-1h-2v1h1v1h3v1h1v-2zm0 2v1h-1v4h1v-1h1v-1h-1v-1h2v-1h-1v-1h-1zm0 5v1h1v-1h-1zm-5-7h-1v1h1v-1zm-1 0v-1h-2v2h1v-1h1zm8-8v6h6v-6h-6zm-9 1h4v4h-4v-4zm10 0h4v4h-4v-4zm-9 1v2h2v-2h-2zm10 0v2h2v-2h-2zm0 5v1h-2v1h1v5h-1v1h2v1h1v-1h1v1h1v-2h-3v-2h3v-1h-3v-2h3v-2h-1v1h-1v-1h-1zm3 2v2h1v-2h-1zm0 3v2h1v-2h-1zm-15-2v6h6v-6h-6zm1 1h4v4h-4v-4zm1 1v2h2v-2h-2z"
  />
</svg>