<svg xmlns="http://www.w3.org/2000/svg" version="1.1" width="32" height="32" data-icon="bitcoin-address" viewBox="0 0 32 32">
  <path d="M0 0v10h10v-10h-10zm11 0v3h1v-1h1v-1h1v-1h-3zm1 3v2h1v-1h1v-1h-2zm2 0h1v2h1v1h-1v-1h-2v1h1v1h-1v2h1v1h-1v-1h-2v1h1v1h1v1h1v-1h1v-1h1v2h1v1h1v-2h1v1h1v1h1v-1h1v-1h-2v-1h-1v-1h1v-1h-1v-2h1v-2h-2v1h-1v-1h-1v-1h1v-1h-1v-1h-1v1h-1v1zm2-2h1v-1h-1v1zm1 2v1h1v-1h-1zm3 1h1v-1h-1v1zm0-1v-2h1v-1h-3v1h1v2h1zm0 5h1v-1h-1v1zm0 1v1h1v-1h-1zm2 3v1h1v-1h-1zm1 0h1v-1h-1v1zm-5 1v2h1v-2h-1zm0 2h-1v1h1v-1zm-1 0v-2h-1v-1h-1v3h2zm-2 0h-1v3h-3v1h3v1h2v1h1v-1h1v-1h-1v-2h-1v-1h-1v-1zm3 5v2h-2v2h-1v1h1v1h-1v-1h-1v2h1v1h-1v2h1v-1h1v-1h2v-2h1v-2h-1v1h-1v-1h1v-1h1v-3h-1zm-4 10h-1v1h1v-1zm0 1v1h2v-1h-2zm2 0h1v-1h-1v1zm1-1h1v-1h-1v1zm1 0v2h1v-2h-1zm-5 1h-1v-1h1v-1h-2v3h2v-1zm1-3v-1h-1v1h1zm-1-1v-2h1v-2h-1v1h-1v1h-1v1h1v1h1zm-1 0h-1v1h1v-1zm1-4v-1h-2v1h2zm0-1h1v-1h-1v1zm1 0v1h1v-1h-1zm1 0h1v-1h-1v1zm-4-3h-2v-1h-1v1h-1v1h3v1h1v-2zm-4 0v-1h-1v1h1zm-1-1v-1h1v1h1v-2h1v1h1v-1h1v1h2v-1h-1v-3h1v-1h-2v3h-1v-1h-1v-1h1v-2h-1v1h-3v1h2v1h-2v1h-1v1h-1v1h1v1h1zm-2-2v-1h1v-1h1v-1h-2v1h-1v1h-1v-1h-2v2h1v1h1v1h1v-2h1zm-1 2v2h-2v-1h-1v2h4v-1h1v-1h-1v-1h-1zm-2 1h1v-1h-1v1zm0-1v-1h-1v1h1zm1-4h1v-1h-1v1zm0-1v-1h-1v-1h-1v2h2zm0-1h1v1h1v-2h-2v1zm4 0v-1h-1v1h1zm7 1v2h1v-2h-1zm0-6v-1h-2v1h2zm9-7v10h10v-10h-10zm-21 1h8v8h-8v-8zm22 0h8v8h-8v-8zm-20 2v4h4v-4h-4zm22 0v4h4v-4h-4zm-8 3h1v1h-1v-1zm0 2h1v2h-1v-2zm7 6v2h-4v2h2v10h-2v2h4v2h2v-2h2v2h2v-4h-6v-4h6v-2h-6v-4h6v-4h-2v2h-2v-2h-2zm6 4v4h2v-4h-2zm0 6v4h2v-4h-2zm-30-2v10h10v-10h-10zm1 1h8v8h-8v-8zm2 2v4h4v-4h-4z"
  />
</svg>