<svg xmlns="http://www.w3.org/2000/svg" version="1.1" width="128" height="128" data-icon="bold" data-container-transform="translate(10)" viewBox="0 0 128 128">
  <path d="M0 0v6h12c3.314 0 6 2.686 6 6v104c0 3.314-2.686 6-6 6h-10v6h70c19.882 0 36-16.118 36-36 0-15.048-9.234-27.933-22.344-33.313 8.644-5.729 14.344-15.541 14.344-26.688 0-17.673-14.327-32-32-32h-68zm40 6h11c13.807 0 25 11.193 25 25s-11.193 25-25 25h-11v-50zm0 56h16c16.569 0 30 13.431 30 30 0 16.569-13.431 30-30 30h-16v-60z"
  transform="translate(10)" />
</svg>