<svg xmlns="http://www.w3.org/2000/svg" version="1.1" width="128" height="128" data-icon="brain" data-container-transform="translate(3)" viewBox="0 0 128 128">
  <path d="M52 0c-.274 0-.544.004-.813.031-24.066.668-41.418 19.539-48.125 42.594.306 1.904 1.949 3.375 3.938 3.375.552 0 1 .448 1 1s-.448 1-1 1c-2.444 0-4.631 1.245-5.906 3.281-.707 4.189-1.094 8.453-1.094 12.719 0 6.159.461 12.321 1.438 18.25.911 2.255 3.107 3.75 5.563 3.75.552 0 1 .448 1 1s-.448 1-1 1c-1.743 0-3.204 1.129-3.75 2.688 1.656 6.298 3.972 12.171 7.031 17.313h.719c1.654 0 3-1.346 3-3v-4c0-2.757 2.243-5 5-5s5 2.243 5 5c0 .552-.448 1-1 1s-1-.448-1-1c0-1.654-1.346-3-3-3s-3 1.346-3 3v4c0 2.588-1.977 4.686-4.5 4.938 3.574 5.441 8.034 9.951 13.5 13.094 1.898.628 3.912.966 5.969.969.012-.001.019 0 .031 0 1.654 0 3-1.346 3-3v-10c0-.552.448-1 1-1s1 .448 1 1v10c0 2.579-1.958 4.674-4.469 4.938 3.548 1.186 7.392 1.91 11.625 2.031.277.014.564.031.844.031.065 0 .123.001.188 0 .104.001.208 0 .313 0v-.031c8.602-.267 15.5-7.302 15.5-15.969v-9c0-2.757-2.243-5-5-5-.552 0-1-.448-1-1s.448-1 1-1c2.757 0 5-2.243 5-5v-18c0-3.86-3.14-7-7-7h-6c-.552 0-1-.448-1-1s.448-1 1-1h6c3.86 0 7-3.14 7-7v-24c0-2.757-2.243-5-5-5-.552 0-1-.448-1-1s.448-1 1-1c2.757 0 5-2.243 5-5v-13c0-4.25-3.315-7.71-7.5-7.969v-.031c-.104 0-.209-.001-.313 0-.064-.001-.123 0-.188 0zm17.5 0v.031c-4.185.259-7.5 3.719-7.5 7.969v13c0 2.757 2.243 5 5 5 .552 0 1 .448 1 1s-.448 1-1 1c-2.757 0-5 2.243-5 5v24c0 3.86 3.14 7 7 7h6c.552 0 1 .448 1 1s-.448 1-1 1h-6c-3.86 0-7 3.14-7 7v18c0 2.757 2.243 5 5 5 .552 0 1 .448 1 1s-.448 1-1 1c-2.757 0-5 2.243-5 5v9c0 8.667 6.898 15.701 15.5 15.969v.031c.105 0 .209.001.313 0 .065.001.123 0 .188 0 .281 0 .567-.017.844-.031 4.234-.121 8.077-.845 11.625-2.031-2.511-.263-4.469-2.359-4.469-4.938v-10c0-.552.448-1 1-1s1 .448 1 1v10c0 1.654 1.346 3 3 3 .012 0 .019-.001.031 0 2.057-.004 4.07-.341 5.969-.969 5.467-3.143 9.926-7.653 13.5-13.094-2.523-.251-4.5-2.35-4.5-4.938v-4c0-1.654-1.346-3-3-3s-3 1.346-3 3c0 .552-.448 1-1 1s-1-.448-1-1c0-2.757 2.243-5 5-5s5 2.243 5 5v4c0 1.654 1.346 3 3 3h.719c3.059-5.141 5.375-11.014 7.031-17.313-.547-1.559-2.007-2.688-3.75-2.688-.552 0-1-.448-1-1s.448-1 1-1c2.455 0 4.651-1.494 5.563-3.75.977-5.929 1.438-12.091 1.438-18.25 0-4.265-.386-8.53-1.094-12.719-1.275-2.036-3.462-3.281-5.906-3.281-.552 0-1-.448-1-1s.448-1 1-1c1.988 0 3.632-1.472 3.938-3.375-6.707-23.055-24.059-41.926-48.125-42.594-.267-.027-.537-.031-.813-.031-.065 0-.124-.002-.188 0-.104-.001-.209 0-.313 0zm-20.5 6c2.757 0 5 2.243 5 5 0 .552-.448 1-1 1s-1-.448-1-1c0-1.654-1.346-3-3-3s-3 1.346-3 3c0 .552-.448 1-1 1s-1-.448-1-1c0-2.757 2.243-5 5-5zm24 0c2.757 0 5 2.243 5 5 0 .552-.448 1-1 1s-1-.448-1-1c0-1.654-1.346-3-3-3s-3 1.346-3 3c0 .552-.448 1-1 1s-1-.448-1-1c0-2.757 2.243-5 5-5zm-20 10c.552 0 1 .448 1 1 0 2.757-2.243 5-5 5s-5 2.243-5 5 2.243 5 5 5 5 2.243 5 5c0 .552-.448 1-1 1s-1-.448-1-1c0-1.654-1.346-3-3-3-3.86 0-7-3.14-7-7s3.14-7 7-7c1.654 0 3-1.346 3-3 0-.552.448-1 1-1zm16 0c.552 0 1 .448 1 1 0 1.654 1.346 3 3 3 3.86 0 7 3.14 7 7s-3.14 7-7 7c-1.654 0-3 1.346-3 3 0 .552-.448 1-1 1s-1-.448-1-1c0-2.757 2.243-5 5-5s5-2.243 5-5-2.243-5-5-5-5-2.243-5-5c0-.552.448-1 1-1zm-42 8c2.757 0 5 2.243 5 5 0 .552-.448 1-1 1s-1-.448-1-1c0-1.654-1.346-3-3-3s-3 1.346-3 3c0 .552-.448 1-1 1s-1-.448-1-1c0-2.757 2.243-5 5-5zm68 0c2.757 0 5 2.243 5 5 0 .552-.448 1-1 1s-1-.448-1-1c0-1.654-1.346-3-3-3s-3 1.346-3 3c0 .552-.448 1-1 1s-1-.448-1-1c0-2.757 2.243-5 5-5zm-84 18c2.757 0 5 2.243 5 5s-2.243 5-5 5c-.552 0-1-.448-1-1s.448-1 1-1c1.654 0 3-1.346 3-3s-1.346-3-3-3c-.552 0-1-.448-1-1s.448-1 1-1zm38 0c2.757 0 5 2.243 5 5 0 .552-.448 1-1 1s-1-.448-1-1c0-1.654-1.346-3-3-3-.552 0-1-.448-1-1s.448-1 1-1zm24 0c.552 0 1 .448 1 1s-.448 1-1 1c-1.654 0-3 1.346-3 3 0 .552-.448 1-1 1s-1-.448-1-1c0-2.757 2.243-5 5-5zm38 0c.552 0 1 .448 1 1s-.448 1-1 1c-1.654 0-3 1.346-3 3s1.346 3 3 3c.552 0 1 .448 1 1s-.448 1-1 1c-2.757 0-5-2.243-5-5s2.243-5 5-5zm-88 4c.552 0 1 .448 1 1 0 7.169-5.831 13-13 13-.552 0-1-.448-1-1s.448-1 1-1c6.065 0 11-4.935 11-11 0-.552.448-1 1-1zm76 0c.552 0 1 .448 1 1 0 6.065 4.935 11 11 11 .552 0 1 .448 1 1s-.448 1-1 1c-7.168 0-13-5.832-13-13 0-.552.448-1 1-1zm-46 6c.552 0 1 .448 1 1 0 2.757-2.243 5-5 5h-8c-3.86 0-7 3.14-7 7s3.14 7 7 7c.552 0 1 .448 1 1s-.448 1-1 1c-4.962 0-9-4.038-9-9s4.038-9 9-9h8c1.654 0 3-1.346 3-3 0-.552.448-1 1-1zm16 0c.552 0 1 .448 1 1 0 1.654 1.346 3 3 3h8c4.962 0 9 4.038 9 9s-4.038 9-9 9c-.552 0-1-.448-1-1s.448-1 1-1c3.86 0 7-3.14 7-7s-3.14-7-7-7h-8c-2.757 0-5-2.243-5-5 0-.552.448-1 1-1zm-56 18c2.757 0 5 2.243 5 5 0 .552-.448 1-1 1s-1-.448-1-1c0-1.654-1.346-3-3-3-.552 0-1-.448-1-1s.448-1 1-1zm96 0c.552 0 1 .448 1 1s-.448 1-1 1c-1.654 0-3 1.346-3 3 0 .552-.448 1-1 1s-1-.448-1-1c0-2.757 2.243-5 5-5zm-60 2c2.757 0 5 2.243 5 5s-2.243 5-5 5h-3c-.552 0-1-.448-1-1s.448-1 1-1h3c1.654 0 3-1.346 3-3s-1.346-3-3-3c-.552 0-1-.448-1-1s.448-1 1-1zm24 0c.552 0 1 .448 1 1s-.448 1-1 1c-1.654 0-3 1.346-3 3s1.346 3 3 3h3c.552 0 1 .448 1 1s-.448 1-1 1h-3c-2.757 0-5-2.243-5-5s2.243-5 5-5zm-62 2c.552 0 1 .448 1 1s-.448 1-1 1c-1.654 0-3 1.346-3 3s1.346 3 3 3c2.757 0 5 2.243 5 5s-2.243 5-5 5c-.552 0-1-.448-1-1s.448-1 1-1c1.654 0 3-1.346 3-3s-1.346-3-3-3c-2.757 0-5-2.243-5-5s2.243-5 5-5zm100 0c2.757 0 5 2.243 5 5s-2.243 5-5 5c-1.654 0-3 1.346-3 3s1.346 3 3 3c.552 0 1 .448 1 1s-.448 1-1 1c-2.757 0-5-2.243-5-5s2.243-5 5-5c1.654 0 3-1.346 3-3s-1.346-3-3-3c-.552 0-1-.448-1-1s.448-1 1-1zm-73 6h3c.552 0 1 .448 1 1s-.448 1-1 1h-3c-1.654 0-3 1.346-3 3s1.346 3 3 3c.552 0 1 .448 1 1s-.448 1-1 1c-2.757 0-5-2.243-5-5s2.243-5 5-5zm43 0h3c2.757 0 5 2.243 5 5s-2.243 5-5 5c-.552 0-1-.448-1-1s.448-1 1-1c1.654 0 3-1.346 3-3s-1.346-3-3-3h-3c-.552 0-1-.448-1-1s.448-1 1-1zm-28 10c.552 0 1 .448 1 1s-.448 1-1 1c-2.757 0-5 2.243-5 5v10c0 2.757-2.243 5-5 5s-5-2.243-5-5c0-1.654-1.346-3-3-3-.552 0-1-.448-1-1s.448-1 1-1c2.757 0 5 2.243 5 5 0 1.654 1.346 3 3 3s3-1.346 3-3v-10c0-3.86 3.14-7 7-7zm16 0c3.86 0 7 3.14 7 7v10c0 1.654 1.346 3 3 3s3-1.346 3-3c0-2.757 2.243-5 5-5 .552 0 1 .448 1 1s-.448 1-1 1c-1.654 0-3 1.346-3 3 0 2.757-2.243 5-5 5s-5-2.243-5-5v-10c0-2.757-2.243-5-5-5-.552 0-1-.448-1-1s.448-1 1-1z"
  transform="translate(3)" />
</svg>