<svg xmlns="http://www.w3.org/2000/svg" version="1.1" width="32" height="32" data-icon="briefcase" data-container-transform="translate(0 2)" viewBox="0 0 32 32">
  <path d="M13 0c-.547 0-1 .453-1 1v2h-11.5c-.276 0-.5.224-.5.5v7.5c0 .542.687 1 1.5 1h10.5v-.75c0-.689.561-1.25 1.25-1.25h5.5c.689 0 1.25.561 1.25 1.25v.75h10.5c.813 0 1.5-.458 1.5-1v-7.5c0-.276-.224-.5-.5-.5h-11.5v-2c0-.547-.453-1-1-1h-6zm0 1h6v2h-6v-2zm.25 10c-.137 0-.25.113-.25.25v2.5c0 .138.113.25.25.25h5.5c.138 0 .25-.113.25-.25v-2.5c0-.138-.113-.25-.25-.25h-5.5zm-13.25 1.594v13.906c0 .276.224.5.5.5h31c.276 0 .5-.224.5-.5v-13.906c-.419.254-.935.406-1.5.406h-10.5v.75c0 .689-.561 1.25-1.25 1.25h-5.5c-.689 0-1.25-.561-1.25-1.25v-.75h-10.5c-.565 0-1.081-.152-1.5-.406z"
  transform="translate(0 2)" />
</svg>