<svg xmlns="http://www.w3.org/2000/svg" version="1.1" width="16" height="16" data-icon="briefcase" viewBox="0 0 16 16">
  <path d="M5.75 0c-.409 0-.75.341-.75.75v2.25h-5v4.5c0 .276.224.5.5.5h5.531c.065-.559.518-1 1.094-1h1.75c.576 0 1.028.441 1.094 1h5.531c.276 0 .5-.224.5-.5v-4.5h-5v-2.25c0-.409-.341-.75-.75-.75h-4.5zm.25 1h4v2h-4v-2zm1.125 7c-.069 0-.125.056-.125.125v.75c0 .069.056.125.125.125h1.75c.069 0 .125-.056.125-.125v-.75c0-.069-.056-.125-.125-.125h-1.75zm-7.125.906v6.094h16v-6.094c-.157.056-.324.094-.5.094h-5.531c-.065.559-.518 1-1.094 1h-1.75c-.576 0-1.028-.441-1.094-1h-5.531c-.176 0-.343-.038-.5-.094z"
  />
</svg>