<svg xmlns="http://www.w3.org/2000/svg" version="1.1" width="32" height="32" data-icon="british-pound" data-container-transform="translate(5)" viewBox="0 0 32 32">
  <path d="M10.031 0c-4.947 0-9 4.053-9 9 0 2.316.782 4.247 1.563 6h-2.594v2h3.469c.16.405.299.796.406 1.188.705 2.584.754 4.871-3.281 8.906l-.594.563v4.343999999999999h21v-4h-16.063c3.131-4.017 3.611-7.837 2.781-10.875-.011-.042-.02-.083-.031-.125h4.313v-2h-4.969c-.924-2.464-2-4.399-2-6 0-2.785 2.215-5 5-5 2.958 0 5 1.715 5 4.5h4c0-4.947-4.226-8.5-9-8.5z"
  transform="translate(5)" />
</svg>