<svg xmlns="http://www.w3.org/2000/svg" version="1.1" width="128" height="128" data-icon="british-pound" data-container-transform="translate(20)" viewBox="0 0 128 128">
  <path d="M46 0c-19.761 0-35.906 16.145-35.906 35.906 0 11.521 4.434 21.067 7.25 30.094h-11.344v6h12.906c.086.425.178.857.25 1.281 1.9 11.247.397 22.666-17.406 40.469l-1.75 1.75v12.5h88v-12h-72.063c14.225-16.684 17.049-31.463 15.125-44h16.938v-6h-18.125c-2.852-11.705-7.781-21.131-7.781-30.094 0-13.275 10.631-23.906 23.906-23.906 7.111 0 13.254 2.081 17.406 5.469 4.152 3.388 6.594 7.905 6.594 14.531h12c0-9.891-4.281-18.361-11-23.844-6.719-5.483-15.593-8.156-25-8.156z"
  transform="translate(20)" />
</svg>