<svg xmlns="http://www.w3.org/2000/svg" version="1.1" data-icon="browser-type-chrome" width="16" height="16" data-container-transform="scale(1 1 ) translate(0 )" viewBox="0 0 16 16">
  <path d="M8 0c-2.545 0-4.816 1.178-6.281 3.031l2.281 4.031c.426-1.819 2.064-3.156 4-3.156h6.875c-1.397-2.335-3.955-3.906-6.875-3.906zm-6.969 4.063c-.66 1.163-1.031 2.505-1.031 3.938 0 4.001 2.945 7.316 6.781 7.906l2.344-3.969c-.37.107-.74.156-1.125.156-1.483 0-2.869-.799-3.594-2.094l-3.375-5.938zm6.969.938c-1.654 0-3 1.346-3 3 0 .513.126 1.025.375 1.469.531.949 1.54 1.531 2.625 1.531 1.01 0 1.942-.501 2.5-1.344.324-.49.5-1.065.5-1.656 0-1.654-1.346-3-3-3zm2.781 0c.829.769 1.313 1.846 1.313 3 0 .802-.218 1.582-.656 2.25l-3.438 5.75c4.418 0 8-3.582 8-8 0-1.061-.219-2.074-.594-3h-4.625z"
  />
</svg>