<svg xmlns="http://www.w3.org/2000/svg" version="1.1" data-icon="browser-type-safari" width="32" height="32" data-container-transform="scale(1 1 ) translate(0 )" viewBox="0 0 32 32">
  <path d="M16 0c-8.837 0-16 7.163-16 16s7.163 16 16 16 16-7.163 16-16-7.163-16-16-16zm0 1c8.271 0 15 6.729 15 15s-6.729 15-15 15-15-6.729-15-15 6.729-15 15-15zm-.188.875v2.875h.375v-2.875h-.375zm-1.031.031l-.344.063.156 1.469.344-.063-.156-1.469zm2.438 0l-.156 1.469.344.063.156-1.469-.344-.063zm-3.813.188l-.344.094.563 2.813.344-.063-.563-2.844zm5.188 0l-.563 2.844.344.063.563-2.813-.344-.094zm-6.531.344l-.344.094.438 1.406.344-.094-.438-1.406zm7.875 0l-.438 1.406.344.094.438-1.406-.344-.094zm-9.188.438l-.313.125 1.094 2.688.344-.156-1.125-2.656zm10.5 0l-1.125 2.656.344.156 1.094-2.688-.313-.125zm-11.75.594l-.313.156.688 1.313.313-.188-.688-1.281zm13 0l-.688 1.281.313.188.688-1.313-.313-.156zm-14.188.688l-.313.188 1.594 2.406.313-.188-1.594-2.406zm15.375 0l-1.594 2.406.313.188 1.594-2.406-.313-.188zm-16.5.813l-.281.219.938 1.156.25-.25-.906-1.125zm17.625 0l-.906 1.125.25.25.938-1.156-.281-.219zm-18.688.906l-.25.25 2.063 2.063.25-.25-2.063-2.063zm19.813.125l-11.656 8.313-8.219 11.688 11.844-8.219 8.031-11.781zm-20.75.906l-.219.281 1.125.906.25-.25-1.156-.938zm21.625 0l-1.156.938.25.25 1.125-.906-.219-.281zm-22.469 1.094l-.188.313 2.406 1.594.188-.313-2.406-1.594zm23.313 0l-2.406 1.594.188.313 2.406-1.594-.188-.313zm-24.031 1.188l-.156.313 1.281.688.188-.313-1.313-.688zm24.75 0l-1.313.688.188.313 1.281-.688-.156-.313zm-25.375 1.25l-.125.313 2.656 1.125.156-.344-2.688-1.094zm26 0l-2.688 1.094.156.344 2.656-1.125-.125-.313zm-26.469 1.281l-.094.344 1.406.438.094-.344-1.406-.438zm26.938 0l-1.406.438.094.344 1.406-.438-.094-.344zm-27.281 1.344l-.094.344 2.844.563.063-.344-2.813-.563zm27.625 0l-2.813.563.063.344 2.844-.563-.094-.344zm-27.844 1.375l-.063.344 1.469.156.063-.344-1.469-.156zm28.063 0l-1.469.156.063.344 1.469-.156-.063-.344zm-28.156 1.375v.375h2.875v-.375h-2.875zm25.375 0v.375h2.875v-.375h-2.875zm-23.875 1.25l-1.469.156.063.344 1.469-.156-.063-.344zm25.25 0l-.063.344 1.469.156.063-.344-1.469-.156zm-23.688.969l-2.844.563.094.344 2.813-.563-.063-.344zm22.125 0l-.063.344 2.813.563.094-.344-2.844-.563zm-23.219 1.469l-1.406.438.094.344 1.406-.438-.094-.344zm24.313 0l-.094.344 1.406.438.094-.344-1.406-.438zm-22.625.625l-2.656 1.125.125.313 2.688-1.094-.156-.344zm20.938 0l-.156.344 2.688 1.094.125-.313-2.656-1.125zm-21.719 1.688l-1.281.688.156.313 1.313-.688-.188-.313zm22.5 0l-.188.313 1.313.688.156-.313-1.281-.688zm-20.688.281l-2.406 1.594.188.313 2.406-1.594-.188-.313zm18.875 0l-.188.313 2.406 1.594.188-.313-2.406-1.594zm-1.375 1.719l-.25.25 2.063 2.063.25-.25-2.063-2.063zm-17.969.094l-1.125.906.219.281 1.156-.938-.25-.25zm19.813 0l-.25.25 1.156.938.219-.281-1.125-.906zm-16.313 1.344l-1.594 2.406.313.188 1.594-2.406-.313-.188zm12.813 0l-.313.188 1.594 2.406.313-.188-1.594-2.406zm-14.563.406l-.938 1.156.281.219.906-1.125-.25-.25zm16.313 0l-.25.25.906 1.125.281-.219-.938-1.156zm-12.625.656l-1.094 2.688.313.125 1.125-2.656-.344-.156zm8.938 0l-.344.156 1.125 2.656.313-.125-1.094-2.688zm-6.844.688l-.563 2.813.344.094.563-2.844-.344-.063zm4.75 0l-.344.063.563 2.844.344-.094-.563-2.813zm-8.5.063l-.688 1.313.313.156.688-1.281-.313-.188zm12.25 0l-.313.188.688 1.281.313-.156-.688-1.313zm-6.313.188v2.875h.375v-2.875h-.375zm-3.656.813l-.438 1.406.344.094.438-1.406-.344-.094zm7.688 0l-.344.094.438 1.406.344-.094-.438-1.406zm-5.25.5l-.156 1.469.344.063.156-1.469-.344-.063zm2.813 0l-.344.063.156 1.469.344-.063-.156-1.469z"
  />
</svg>