<svg xmlns="http://www.w3.org/2000/svg" version="1.1" data-icon="browser-type-firefox" width="16" height="16" data-container-transform="scale(1 1 ) translate(0 )" viewBox="0 0 16 16">
  <path d="M7.969 0c-2.211 0-4.168.994-5.531 2.531-.11-.118-.215-.248-.313-.406-.005.015-.024.036-.031.031-.121-.218-.241-.609-.25-.875 0 0-.183.123-.313.531-.023.072-.046.117-.063.156-.002-.009.005-.13 0-.125-.025.051-.102.126-.125.219-.017.069-.02.133-.031.219-.001.002-.03-.002-.031 0-.002-.021.004-.094 0-.094-.046.121-.087.257-.125.406-.008.031-.024.061-.031.094-.001.006.001.025 0 .031-.03.139-.046.306-.063.469-.025.23-.053.479-.031.781 0 .044.032.086.031.125-.124.171-.247.35-.313.469-.264.45-.53 1.165-.75 2.406.002-.016.028-.015.031-.031.017-.053.113-.392.344-.813-.188.592-.338 1.518-.25 2.875.001-.005.03-.019.031-.031-.001-.017.001-.015 0-.031.006-.064.026-.36.125-.813.05.916.286 2.03 1 3.25.543.931 1.969 3.097 5.563 3.906-.395-.114-.625-.344-.625-.344s1.332.442 2.313.406c-.307-.053-.375-.219-.375-.219s3.482.206 4.688-1.438c-.412.482-1.449.621-1.844.625.075-.069.153-.132.25-.188.089-.051.176-.111.281-.156.008-.005.023.005.031 0 .694-.296 1.734-.564 2.813-1.625.788-.776.851-1.354.938-1.906-.125.682-.733 1.123-1.406 1.5.259-.342.459-.71.656-1.094.215-.259.45-.494.594-.75.04-.071.08-.156.125-.25.428-.835.867-2.276.656-3.656-.034-.236-.079-.461-.156-.688 0 0-.137.378-.313.969.091-.857.018-1.737-.281-2.563-.132-.363-.277-.687-.438-.938-.213-.361-.459-.626-.656-.781-.011-.011-.02-.021-.031-.031-.011-.013-.02-.018-.031-.031 0 0 .003.092.031.25-.434-.682-1.094-1-1.094-1s.044.167.094.563c-.117-.093-.249-.163-.375-.25-.041-.034-.083-.06-.125-.094-.008-.005-.024.005-.031 0-1.264-.992-2.836-1.594-4.563-1.594zm0 .5c1.555 0 2.998.507 4.156 1.375.512.52.822.996 1.031 1.438-.394-.403-1.075-.809-1.531-.844.683.508 1.809 1.997 1.688 4.281-.175-.368-.491-.924-.719-1.125.245 2.243.023 2.716-.125 3.313-.033-.274-.13-.468-.188-.594 0 0-.013.688-.469 1.688-.345.757-.717.995-.875.969-.043-.003-.063-.029-.063-.031.011-.098.026-.185 0-.25 0 0-.125.056-.219.188-.038.053-.092.076-.156.125-.011.009.103-.132.094-.125-.057.046-.127.093-.188.156-.224.232-.426.479-.531.406.098-.03.166-.128.188-.25-.088.061-.313.207-.813.281-.204.03-1.063.203-2.219-.375.169-.019.433-.083.625.031-.192-.21-.667-.175-1-.281-.29-.092-.657-.482-.875-.688.89.218 1.829.062 2.375-.313.552-.378.862-.659 1.156-.594.293.066.509-.239.281-.5-.227-.262-.78-.594-1.531-.406-.575.144-1.068.601-1.875.281-.049-.019-.104-.037-.156-.063-.051-.026.18.002.125-.031-.155-.057-.461-.17-.531-.219-.011-.009.138.008.125 0-.766-.453-.719-.807-.719-1.031 0-.179.107-.417.313-.531.111.039.188.063.188.063s-.062-.056-.094-.094c.007-.003.023-.029.031-.031.09.031.272.104.375.156.139.07.188.156.188.156s.035-.023 0-.094c-.014-.03-.05-.104-.188-.188.072.029.165.046.25.094.026-.123.066-.246.031-.469-.025-.157-.024-.193-.063-.25-.034-.049.011-.075.063-.031-.011-.033-.014-.061-.031-.094.239-.289 1.192-.744 1.406-.969.025-.027.045-.043.063-.063.125-.094.165-.179.219-.313.056-.136.12-.464-.063-.531-.15-.036-.289-.067-.531-.063-.187-.011-.416-.003-.75 0-.336.003-.556-.189-.688-.375-.027-.041-.042-.09-.063-.125-.029-.052-.079-.088-.094-.125.147-.533.447-1 .906-1.375.028-.023-.088.025-.063 0 .031-.029.213-.136.25-.156.047-.027-.218-.077-.438-.031-.222.046-.26.066-.375.125.046-.048.193-.133.156-.125-.241.054-.508.204-.75.375-.002-.022-.005-.029 0-.063-.114.059-.399.275-.469.438 0-.035.004-.055 0-.094-.079.072-.151.156-.219.25-.676-.167-1.26-.14-1.75 0 1.27-1.398 3.093-2.281 5.125-2.281z"
  />
</svg>