<svg xmlns="http://www.w3.org/2000/svg" version="1.1" data-icon="browser-type-internetexplorer" width="16" height="16" data-container-transform="scale(1 1 ) translate(0 )" viewBox="0 0 16 16">
  <path d="M13.125 0c-.476-.003-.867.049-.938.063-1.073.21-2.053.542-2.969.969-1.43-.08-2.865.295-4.094 1.031-1.158.694-2.107 1.703-2.719 2.906-.264.52-.464 1.087-.594 1.656 1.801-2.02 3.058-2.861 3.813-3.188-1.384 1.237-2.574 2.713-3.563 4.281-.439.696-.829 1.416-1.188 2.156-.118.244-.269.43-.469 1.031-2.047 7.31 4.328 4.241 5.219 3.781 1.476.729 3.209.899 4.813.531 1.355-.311 2.598-.997 3.563-2 .705-.733 1.253-1.636 1.594-2.594h-3.781c-.756 1.277-2.368 1.844-3.781 1.469-1.284-.341-2.309-1.459-2.375-2.813-.002-.047 0-.078 0-.125h10.281c.039-.303.063-.623.063-.938 0-1.265-.333-2.436-.906-3.469 1.833-4.149-.54-4.742-1.969-4.75zm.281.906c.462-.044.899.013 1.25.25.619.418 1.103 1.071.25 3.281-.818-1.315-2.038-2.339-3.5-2.906.416-.201 1.23-.552 2-.625zm-4.406 3.313c1.017.038 1.998.521 2.594 1.375.323.464.511 1.029.531 1.594h-6.469c.048-1.359 1.053-2.495 2.344-2.844.332-.09.661-.138 1-.125zm-6.969 6.375c.562 1.615 1.676 2.954 3.125 3.813-.72.396-2.639 1.293-3.656.25-.504-.517-.581-1.768.531-4.063z"
  />
</svg>