<svg xmlns="http://www.w3.org/2000/svg" version="1.1" data-icon="browser-type-firefox" width="128" height="128" data-container-transform="translate(0 2 ) scale(1 1 )" viewBox="0 0 128 128">
  <path d="M63.813 0c-17.65 0-33.532 7.745-44.438 20-.822-.901-1.647-1.95-2.375-3.125-.014-.023-.019-.028-.031-.031-.111-.099-.154.434-.25.375-.008-.009-.022-.047-.031-.063-.97-1.745-1.796-4.715-1.875-6.844 0 0-1.586.925-2.625 4.188-.183.578-.305.935-.438 1.25-.017-.068.069-1.01.031-.969-.198.407-.755 1.075-.938 1.813-.138.551-.381.872-.469 1.563-.012-.187-.028-.658-.063-.656-.005-.007-.025.014-.031.031-.367.971-.7 2.051-1 3.25-.063.25-.129.52-.188.781-.01.046-.021.079-.031.125-.008.042-.023.082-.031.125-.241 1.116-.431 2.322-.563 3.625-.199 1.839-.296 3.959-.125 6.375-.003.348.073.688.063 1-.992 1.367-1.784 2.608-2.313 3.563-2.109 3.602-4.334 9.546-6.094 19.469 0 0 .034-.144.125-.406-.022.124-.039.249-.063.375 0 0 1.003-3.173 3-6.813-1.507 4.739-2.667 12.052-1.969 22.906.005-.068.034-.242.063-.469.008.13-.008.275 0 .406.029-.363.365-3.153 1.188-6.906.4 7.326 2.138 16.328 7.844 26.094 4.348 7.448 15.808 24.744 44.563 31.219-3.156-.91-5.125-2.719-5.125-2.719s10.755 3.451 18.594 3.156c-2.454-.423-2.969-1.625-2.969-1.625s27.896 1.582 37.531-11.563c-3.293 3.854-11.657 4.935-14.813 4.969 4.802-4.413 15.436-4.306 26.938-15.625 6.308-6.212 6.969-10.928 7.656-15.344-.988 5.431-5.893 8.805-11.25 11.813 1.962-2.602 3.698-5.373 5.219-8.281 1.764-2.126 3.445-4.128 4.625-6.219.32-.568.67-1.252 1.031-2 3.423-6.682 7.06-18.246 5.375-29.281-.263-1.851-.68-3.661-1.281-5.438-.045-.135-.094-.219-.094-.219s-1.037 3.177-2.438 7.906c.731-6.857.204-14.018-2.188-20.625-1.053-2.908-2.35-5.364-3.625-7.375-1.87-3.176-3.966-5.615-5.625-6.75.091.1.16.212.25.313-.226-.209-.344-.313-.344-.313s.114.71.344 1.969c-3.47-5.455-8.75-8.031-8.75-8.031s.259 1.467.656 4.625c-1.218-.973-2.503-1.871-3.844-2.75-.044-.029-.081-.065-.125-.094-10.118-7.964-22.845-12.75-36.688-12.75zm0 4c12.588 0 24.179 4.217 33.5 11.313 3.96 4.068 6.198 7.78 7.844 11.25-3.152-3.224-8.574-6.595-12.219-6.875 5.467 4.066 14.629 16.134 13.656 34.406-1.402-2.943-3.959-7.544-5.781-9.156 1.962 17.947.223 21.796-.969 26.563-.262-2.19-1.044-3.843-1.5-4.844 0 0-.2 5.603-3.844 13.594-2.76 6.052-5.615 7.931-6.875 7.719-.342-.024-.534-.174-.531-.188.09-.783.177-1.602-.031-2.125 0 0-1.155.413-1.906 1.469-.303.425-.704.829-1.219 1.219-.088.068.851-1.183.781-1.125-.453.368-.95.808-1.438 1.313-1.788 1.857-3.411 3.925-4.25 3.344.781-.239 1.425-1.244 1.594-2.219-.703.491-2.502 1.811-6.5 2.406-1.635.244-8.594 1.533-17.844-3.094 1.349-.154 3.368-.629 4.906.281-1.538-1.68-5.241-1.347-7.906-2.188-2.322-.735-5.353-3.979-7.094-5.625 7.119 1.744 14.66.488 19.031-2.5 4.418-3.022 7.059-5.241 9.406-4.719 2.343.524 3.888-1.815 2.063-3.906-1.819-2.092-6.213-4.914-12.219-3.406-4.598 1.151-8.542 4.845-15 2.281-.391-.155-.775-.358-1.188-.563-.412-.205 1.34.257.906 0-1.241-.457-3.502-1.483-4.063-1.875-.092-.068.951.191.844.125-6.13-3.626-5.75-6.548-5.75-8.344 0-1.436.893-3.37 2.531-4.281.884.315 1.438.594 1.438.594s-.428-.633-.688-.938c.06-.022.124-.013.188-.031.722.244 2.364.836 3.188 1.25 1.115.56 1.469 1.125 1.469 1.125s.272-.148 0-.719c-.112-.239-.521-.955-1.625-1.625.02-.002.05.003.063 0 .579.23 1.197.522 1.875.906.211-.983.63-1.999.344-3.781-.201-1.254-.186-1.576-.5-2.031-.269-.39.084-.57.5-.219-.086-.267-.208-.515-.344-.781.012-.004.024-.026.031-.063 1.909-2.314 9.542-5.853 11.25-7.656.185-.196.334-.348.469-.5.998-.754 1.437-1.462 1.875-2.531.445-1.087.957-3.653-.5-4.188-1.2-.287-2.225-.506-4.156-.469-1.494-.09-3.484-.117-6.156-.094-2.687.02-4.443-1.54-5.5-3.031-.213-.324-.392-.628-.563-.906-.232-.415-.411-.796-.531-1.094 1.174-4.262 3.547-7.972 7.219-10.969.222-.186-.895.136-.688-.063.248-.233 1.803-.961 2.094-1.125.377-.212-1.669-.773-3.438-.406-1.774.367-2.117.558-3.031 1.031.37-.384 1.546-.971 1.25-.906-1.926.432-4.19 1.695-6.125 3.063-.015-.174-.009-.314.031-.594-.913.474-3.094 2.171-3.656 3.469 0-.282.004-.436-.031-.75-.628.577-1.235 1.244-1.781 2-.006.011-.025.021-.031.031-5.427-1.349-10.065-1.101-14 .031 10.161-11.22 24.837-18.281 41.125-18.281z"
  transform="translate(0 2)" />
</svg>