<svg xmlns="http://www.w3.org/2000/svg" version="1.1" width="128" height="128" data-icon="bug" data-container-transform="translate(6)" viewBox="0 0 128 128">
  <path d="M33.406 0a1.001 1.001 0 0 0 .188 2c3.772 0 6.781 1.624 9.313 4.156 2.532 2.532 4.539 5.987 6.031 9.469.368.858.691 1.717 1 2.563-8.551 4.88-12.613 16.959-8.031 26.063l-11.906-3.969v-11.281a1 1 0 0 0-.438-.844l-12-8a1 1 0 0 0-.781-.156 1 1 0 0 0-.344 1.844l11.563 7.719v11.438a1 1 0 0 0 .688.938l13.313 4.438c-3.195 2.06-5.958 4.883-8.188 8.531l-8.5-2.844a1 1 0 0 0-.406-.063 1 1 0 0 0-.75.5l-11.813 19.688-11.656 3.875a1 1 0 1 0 .625 1.875l12-4a1 1 0 0 0 .531-.438l11.594-19.313 7.375 2.469c-3.041 5.779-4.813 13.392-4.813 23.063 0 .506.022.998.031 1.5l-15.438 6.875a1 1 0 0 0-.531 1.25l11.781 33.375-3.563 3.563a1.016 1.016 0 1 0 1.438 1.438l4-4a1 1 0 0 0 .219-1.063l-11.688-33.125 13.844-6.156c.9 19.307 8.849 35.43 19.719 41.75 4.452-3.681 8.188-10 8.188-17.125v-50c0-1.105.895-2 2-2s2 .895 2 2v50c0 7.125 3.736 13.445 8.188 17.125 10.871-6.32 18.819-22.443 19.719-41.75l13.844 6.156-11.688 33.125a1 1 0 0 0 .219 1.063l4 4a1.016 1.016 0 1 0 1.438-1.438l-3.563-3.563 11.781-33.375a1 1 0 0 0-.531-1.25l-15.438-6.875c.01-.502.031-.994.031-1.5 0-9.671-1.771-17.284-4.813-23.063l7.375-2.469 11.594 19.313a1 1 0 0 0 .531.438l12 4a1 1 0 1 0 .625-1.875l-11.656-3.875-11.813-19.688a1 1 0 0 0-1-.5 1 1 0 0 0-.156.063l-8.5 2.844c-2.234-3.656-5.014-6.47-8.219-8.531l13.344-4.438a1 1 0 0 0 .688-.938v-11.438l11.563-7.719a1 1 0 0 0-.688-1.844 1 1 0 0 0-.438.156l-12 8a1 1 0 0 0-.438.844v11.281l-12 4c4.641-9.32.753-21.488-7.875-26.25.293-.795.592-1.601.938-2.406 1.492-3.482 3.499-6.937 6.031-9.469 2.532-2.532 5.541-4.156 9.313-4.156a1 1 0 1 0 0-2c-4.355 0-7.917 1.949-10.719 4.75-2.801 2.801-4.882 6.433-6.438 10.063-.34.794-.645 1.591-.938 2.375-1.88-.756-3.941-1.188-6.156-1.188-2.314 0-4.473.482-6.438 1.313-.304-.822-.612-1.667-.969-2.5-1.556-3.629-3.636-7.261-6.438-10.063-2.801-2.801-6.364-4.75-10.719-4.75a1 1 0 0 0-.094 0 1.001 1.001 0 0 0-.094 0zm1.594 78c.552 0 1 .448 1 1 0 11.081 2.715 21.804 7.438 29.406.291.469.157 1.084-.313 1.375-.165.102-.351.156-.531.156-.327 0-.684-.176-.875-.469-4.914-7.911-7.719-19.026-7.719-30.469 0-.552.448-1 1-1zm46 0c.552 0 1 .448 1 1 0 11.443-2.805 22.558-7.719 30.469-.19.305-.54.469-.875.469-.18 0-.366-.054-.531-.156-.469-.291-.603-.906-.313-1.375 4.723-7.602 7.438-18.326 7.438-29.406 0-.552.448-1 1-1z"
  transform="translate(6)" />
</svg>