<svg xmlns="http://www.w3.org/2000/svg" version="1.1" width="32" height="32" data-icon="bug" data-container-transform="translate(1)" viewBox="0 0 32 32">
  <path d="M7.344 0a.502.502 0 0 0 .156 1c.854 0 1.536.349 2.125.938s1.047 1.412 1.406 2.25c.134.313.241.634.344.938-1.309 1.595-1.79 4.027-.938 5.844l-2.438-.813v-2.9370000000000003l-.219-.125-3-2a.5.5 0 0 0-.375-.094.5.5 0 0 0-.188.906l2.781 1.844v3.125l.344.094 2.906.969c-.51.516-.967 1.132-1.375 1.813l-2.219-.719a.5.5 0 0 0-.25-.031.5.5 0 0 0-.344.25l-2.906 4.844-2.813.938a.5.5 0 1 0 .313.938l3-1a.5.5 0 0 0 .281-.219l2.781-4.656 1.656.563c-.81 1.68-1.316 3.713-1.375 5.906l-3.688 1.469a.5.5 0 0 0-.281.656l2.875 7.719-.75.75a.5.5 0 1 0 .688.688l1-1a.5.5 0 0 0 .125-.531l-2.813-7.531 2.875-1.156c.172 4.412 2.092 8.114 4.781 9.625 1.164-.876 2.188-2.435 2.188-4.25v-12.5c0-.276.224-.5.5-.5s.5.224.5.5v12.5c0 1.815 1.023 3.374 2.188 4.25 2.689-1.511 4.61-5.213 4.781-9.625l2.875 1.156-2.813 7.531a.5.5 0 0 0 .125.531l1 1a.5.5 0 1 0 .688-.688l-.75-.75 2.875-7.719a.5.5 0 0 0-.281-.656l-3.688-1.469c-.059-2.193-.565-4.226-1.375-5.906l1.656-.563 2.781 4.656a.5.5 0 0 0 .281.219l3 1a.5.5 0 1 0 .313-.938l-2.813-.938-2.906-4.844a.5.5 0 0 0-.531-.25.5.5 0 0 0-.063.031l-2.219.719c-.408-.681-.865-1.296-1.375-1.813l2.906-.969.344-.094v-3.125l2.781-1.844a.5.5 0 0 0-.375-.906.5.5 0 0 0-.188.094l-3 2-.219.125v2.9370000000000003l-2.438.813c.996-2.169.192-5.179-1.656-6.625.022-.053.04-.103.063-.156.359-.838.817-1.661 1.406-2.25s1.271-.938 2.125-.938a.5.5 0 1 0 0-1c-1.146 0-2.089.526-2.813 1.25-.724.724-1.265 1.651-1.656 2.563-.461-.202-.96-.313-1.5-.313-.903 0-1.699.319-2.375.844-.067-.177-.111-.352-.188-.531-.391-.912-.933-1.839-1.656-2.563-.724-.724-1.667-1.25-2.813-1.25a.5.5 0 0 0-.094 0 .502.502 0 0 0-.063 0z"
  transform="translate(1)" />
</svg>