<svg xmlns="http://www.w3.org/2000/svg" version="1.1" width="128" height="128" data-icon="building" data-container-transform="translate(19)" viewBox="0 0 128 128">
  <path d="M0 0v2h90v-2h-90zm2 4v2c2.209 0 4 1.791 4 4v106h34v-14h10v14h34v-106c0-2.209 1.791-4 4-4v-2h-86zm8 12h18v2h-18v-2zm26 0h18v2h-18v-2zm26 0h18v2h-18v-2zm-50 4h14v14h-14v-14zm26 0h14v14h-14v-14zm26 0h14v14h-14v-14zm-54 22h18v2h-18v-2zm26 0h18v2h-18v-2zm26 0h18v2h-18v-2zm-50 4h14v14h-14v-14zm26 0h14v14h-14v-14zm26 0h14v14h-14v-14zm-54 22h18v2h-18v-2zm26 0h18v2h-18v-2zm26 0h18v2h-18v-2zm-50 4h14v14h-14v-14zm26 0h14v14h-14v-14zm26 0h14v14h-14v-14zm-60 46v2h82v-2h-82zm-2 4v2h86v-2h-86zm-2 4v2h90v-2h-90z"
  transform="translate(19)" />
</svg>