<svg xmlns="http://www.w3.org/2000/svg" version="1.1" width="128" height="128" data-icon="bullhorn" data-container-transform="translate(0 3)" viewBox="0 0 128 128">
  <path d="M120 0v92h6.5c.828 0 1.5-.672 1.5-1.5v-89c0-.828-.672-1.5-1.5-1.5h-6.5zm-2 .125c-.61.091-1.235.215-1.688.375l-70.906 25c-.782.276-2.078.5-2.906.5h-37c-.828 0-1.5.672-1.5 1.5v2.5h-2.5c-.828 0-1.5.672-1.5 1.5v29c0 .828.672 1.5 1.5 1.5h2.5v2.5c0 .828.672 1.5 1.5 1.5h16.094l22.031 55.063c.204.511.825.938 1.375.938h14c.55 0 .829-.427.625-.938l-16.406-41.063h3.281c.829 0 1.174-.584.781-1.313l-5.125-9.594c1.412-1.383 3.508-2.296 5.625-1.75l68.531 24.156c.453.16 1.078.284 1.688.375v-91.75z"
  transform="translate(0 3)" />
</svg>