<svg xmlns="http://www.w3.org/2000/svg" version="1.1" width="128" height="128" data-icon="camera-rangefinder" data-container-transform="translate(0 24)" viewBox="0 0 128 128">
  <path d="M18 0v2h-2v4h-14.5c-.828 0-1.5.672-1.5 1.5v16.5h62c3.082-1.287 6.452-2 10-2s6.918.713 10 2h46v-20.5c0-.828-.672-1.5-1.5-1.5h-77c-.828 0-1.5.672-1.5 1.5v2.5h-2v-4h-16v4h-2v-4h-2v-2h-8zm78.25 6h19.5c.138 0 .25.113.25.25v13.5c0 .138-.113.25-.25.25h-19.5c-.138 0-.25-.113-.25-.25v-13.5c0-.138.112-.25.25-.25zm-20 2h13.5c.138 0 .25.113.25.25v9.5c0 .138-.113.25-.25.25h-13.5c-.138 0-.25-.113-.25-.25v-9.5c0-.137.112-.25.25-.25zm-42 4h7.5c.138 0 .25.113.25.25v3.5c0 .138-.113.25-.25.25h-7.5c-.138 0-.25-.113-.25-.25v-3.5c0-.138.113-.25.25-.25zm37.75 12c-13.255 0-24 10.745-24 24s10.745 24 24 24 24-10.745 24-24-10.745-24-24-24zm-72 2v50h128v-50h-42.156c7.298 4.604 12.156 12.733 12.156 22 0 14.359-11.641 26-26 26-12.95 0-23.673-9.484-25.656-21.875-1.093 1.143-2.641 1.875-4.344 1.875-3.309 0-6-2.691-6-6s2.691-6 6-6c1.707 0 3.251.726 4.344 1.875 1.203-7.519 5.623-13.97 11.813-17.875h-58.156zm72 0c12.131 0 22 9.869 22 22s-9.869 22-22 22-22-9.869-22-22 9.869-22 22-22zm0 2c-11.046 0-20 8.954-20 20s8.954 20 20 20 20-8.954 20-20-8.954-20-20-20zm0 2c.552 0 1 .448 1 1s-.448 1-1 1c-8.822 0-16 7.178-16 16 0 .552-.448 1-1 1s-1-.448-1-1c0-9.925 8.075-18 18-18zm-30 14c-2.206 0-4 1.794-4 4s1.794 4 4 4 4-1.794 4-4-1.794-4-4-4zm-41.813 34c.415 1.158 1.511 2 2.813 2h122c1.301 0 2.397-.842 2.813-2h-127.625z"
  transform="translate(0 24)" />
</svg>