<svg xmlns="http://www.w3.org/2000/svg" version="1.1" width="32" height="32" data-icon="camera-rangefinder" data-container-transform="translate(0 6)" viewBox="0 0 32 32">
  <path d="M3 0v1h-2c-.552 0-1 .448-1 1v17c0 .552.448 1 1 1h30c.552 0 1-.448 1-1v-18c0-.552-.448-1-1-1h-18c-.552 0-1 .224-1 .5v.5h-1v-1h-4v1h-1v-1h-3zm21.125 1h4.75c.069 0 .125.056.125.125v3.75c0 .069-.056.125-.125.125h-4.75c-.069 0-.125-.056-.125-.125v-3.75c0-.069.056-.125.125-.125zm-6 1h3.75c.069 0 .125.056.125.125v1.75c0 .069-.056.125-.125.125h-3.75c-.069 0-.125-.056-.125-.125v-1.75c0-.069.056-.125.125-.125zm-.125 4c3.314 0 6 2.686 6 6s-2.686 6-6 6c-2.978 0-5.436-2.185-5.906-5.031-.03.003-.063.031-.094.031h-1c-.552 0-1-.448-1-1s.448-1 1-1h1c.031 0 .064.028.094.031.47-2.845 2.927-5.031 5.906-5.031zm0 1c-2.761 0-5 2.239-5 5s2.239 5 5 5 5-2.239 5-5-2.239-5-5-5zm0 1c.276 0 .5.224.5.5s-.224.5-.5.5c-1.654 0-3 1.346-3 3 0 .276-.224.5-.5.5s-.5-.224-.5-.5c0-2.206 1.794-4 4-4z"
  transform="translate(0 6)" />
</svg>