<svg xmlns="http://www.w3.org/2000/svg" version="1.1" width="128" height="128" data-icon="camera-slr" data-container-transform="translate(0 5)" viewBox="0 0 128 128">
  <path d="M72 0v2h-7c-1.657 0-3.84 1.05-4.875 2.344l-12.25 15.313c-1.035 1.294-3.218 2.344-4.875 2.344h-19c-13.255 0-24 10.745-24 24v64h128v-85c0-1.657-1.343-3-3-3h-12c-1.657 0-3.84-1.05-4.875-2.344l-12.25-15.313c-1.035-1.294-3.218-2.344-4.875-2.344h-5v-2h-14zm-52 34c2.209 0 4 1.791 4 4s-1.791 4-4 4-4-1.791-4-4 1.791-4 4-4zm19 2c.552 0 1 .448 1 1v3c0 1.915-1.052 4.459-2.406 5.813l-1.781 1.781c-.973.974-1.813 3.029-1.813 4.406v9c0 .552-.448 1-1 1s-1-.448-1-1v-9c0-.756.154-1.594.438-2.438-.843.283-1.683.438-2.438.438h-24c-.552 0-1-.448-1-1s.448-1 1-1h24c1.377 0 3.432-.839 4.406-1.813l1.781-1.781c.973-.974 1.813-3.029 1.813-4.406v-3c0-.552.448-1 1-1zm39 4c15.122 0 27.645 11.243 29.688 25.813 1.09-1.12 2.626-1.813 4.313-1.813 3.314 0 6 2.686 6 6s-2.686 6-6 6c-1.687 0-3.222-.692-4.313-1.813-2.042 14.569-14.566 25.813-29.688 25.813-16.542 0-30-13.458-30-30s13.458-30 30-30zm0 4c-14.359 0-26 11.641-26 26s11.641 26 26 26 26-11.641 26-26-11.641-26-26-26zm0 2.344c13.04 0 23.656 10.616 23.656 23.656s-10.616 23.656-23.656 23.656-23.656-10.616-23.656-23.656 10.616-23.656 23.656-23.656zm0 1.625c-12.141 0-22.031 9.89-22.031 22.031 0 12.141 9.89 22.031 22.031 22.031 12.141 0 22.031-9.89 22.031-22.031 0-12.141-9.89-22.031-22.031-22.031zm0 3.031c.552 0 1 .448 1 1s-.448 1-1 1c-9.374 0-17 7.626-17 17 0 .552-.448 1-1 1s-1-.448-1-1c0-10.477 8.523-19 19-19zm34 15c-2.209 0-4 1.791-4 4s1.791 4 4 4 4-1.791 4-4-1.791-4-4-4zm-112 46v3c0 1.657 1.343 3 3 3h122c1.657 0 3-1.343 3-3v-3h-128z"
  transform="translate(0 5)" />
</svg>