<svg xmlns="http://www.w3.org/2000/svg" version="1.1" width="128" height="128" data-icon="cart" data-container-transform="translate(0 11)" viewBox="0 0 128 128">
  <path d="M3 0c-1.657 0-3 1.343-3 3s1.343 3 3 3c1.301 0 2.397-.842 2.813-2h7.688l18.344 63.781c-.025.035-.027.211 0 .219l-8.063 19.344c1.457-.788 3.119-1.258 4.875-1.313l6.906-16.563c.228-.548.335-.997.344-1.469h77.094c1.657 0 3.278-1.317 3.625-2.938l10.75-50.125c.348-1.62-.718-2.938-2.375-2.938h-105.031l-2.844-9.844c-.402-1.392-1.421-2.156-2.875-2.156h-11.25zm26 88c-4.971 0-9 4.029-9 9s4.029 9 9 9 9-4.029 9-9-4.029-9-9-9zm74 0c-4.971 0-9 4.029-9 9s4.029 9 9 9 9-4.029 9-9-4.029-9-9-9zm-65.5 2c.956 1.158 1.642 2.517 2.063 4h52.875c.42-1.483 1.138-2.842 2.094-4h-57.031z"
  transform="translate(0 11)" />
</svg>