<svg xmlns="http://www.w3.org/2000/svg" version="1.1" width="32" height="32" data-icon="cart" data-container-transform="translate(0 2)" viewBox="0 0 32 32">
  <path d="M1 0c-.552 0-1 .448-1 1s.448 1 1 1 1-.448 1-1h2c.016 0 .121.079.125.094l4.281 16.531c.03.116-.019.543-.063.656l-1.438 3.781c.191-.032.394-.063.594-.063.167 0 .339.008.5.031l1.281-3.375c.103-.269.11-.553.094-.844.195.115.407.188.625.188h18c.552 0 1.079-.427 1.188-.969l2.625-13.063c.108-.542-.261-.969-.813-.969h-25c-.127 0-.243.021-.344.063l-.563-2.188v-.031c-.134-.52-.556-.844-1.094-.844h-3zm6.5 23c-1.381 0-2.5 1.119-2.5 2.5s1.119 2.5 2.5 2.5 2.5-1.119 2.5-2.5-1.119-2.5-2.5-2.5zm19 0c-1.381 0-2.5 1.119-2.5 2.5s1.119 2.5 2.5 2.5 2.5-1.119 2.5-2.5-1.119-2.5-2.5-2.5zm-15.844 1c.147.31.263.648.313 1h12.063c.05-.352.166-.69.313-1h-12.688z"
  transform="translate(0 2)" />
</svg>