<svg xmlns="http://www.w3.org/2000/svg" version="1.1" width="16" height="16" data-icon="cart" data-container-transform="translate(0 1)" viewBox="0 0 16 16">
  <path d="M0 0v1h2.594l.781 3.594.5 3.5-.594 2.938c-.727.104-1.281.713-1.281 1.469 0 .828.672 1.5 1.5 1.5.656 0 1.202-.414 1.406-1h7.188c.204.586.75 1 1.406 1 .828 0 1.5-.672 1.5-1.5s-.672-1.5-1.5-1.5c-.656 0-1.202.414-1.406 1h-7.188c-.119-.341-.349-.602-.656-.781l.438-2.219h9.813c.276 0 .524-.227.563-.5l.875-6c.039-.274-.162-.5-.438-.5h-11.688l-.281-1.344v-.031h-.031c-.097-.368-.366-.625-.75-.625h-2.75z"
  transform="translate(0 1)" />
</svg>