<svg xmlns="http://www.w3.org/2000/svg" version="1.1" data-icon="cloud-transfer-download" width="32" height="32" data-container-transform="scale(1 1 ) translate(0 )" viewBox="0 0 32 32">
  <path d="M14 0c-4.7 0-8.6 3.4-9 8-2.9.9-5 3.8-5 7 0 3.5 2.6 6.5 6 7h6v-2.094c-.6-.6-1-1.506-1-2.406 0-1.9 1.6-3.5 3.5-3.5s3.5 1.6 3.5 3.5c0 1-.4 1.806-1 2.406v2.094h10c2.8 0 5-2.2 5-5s-2.2-5-5-5c-.4-2-2.1-3.506-4-3.906-.5-4.5-4.3-8.094-9-8.094zm.5 15c-1.381 0-2.5 1.119-2.5 2.5 0 .822.388 1.544 1 2v6.5h-2.5c-.3 0-.387.206-.188.406l3.875 5.188c.2.2.425.2.625 0l3.875-5.188c.2-.2.113-.406-.188-.406h-2.5v-6.5c.612-.456 1-1.178 1-2 0-1.381-1.119-2.5-2.5-2.5z"
  />
</svg>