<svg xmlns="http://www.w3.org/2000/svg" version="1.1" width="32" height="32" data-icon="cloudy" viewBox="0 0 32 32">
  <path d="M10 0c-5.523 0-10 4.477-10 10 0 .345.028.695.063 1.031.024.231.055.462.094.688.017.096.043.186.063.281.056.273.11.548.188.813.046.157.103.315.156.469.006.018-.007.044 0 .063.066.186.142.382.219.563.027.063.066.126.094.188.104.232.223.465.344.688.007.012.024.019.031.031.093.17.179.336.281.5.049.077.106.143.156.219.013.02.018.043.031.063.132.193.293.379.438.563.334-.225.669-.418 1.031-.594 1.01-4.964 5.45-8.563 10.813-8.563 2.17 0 4.194.625 5.906 1.688-.041-.311-.088-.605-.156-.906-.024-.106-.066-.207-.094-.313-.049-.188-.096-.379-.156-.563-.26-.798-.622-1.554-1.063-2.25-.033-.052-.06-.105-.094-.156-.162-.246-.348-.488-.531-.719-.159-.2-.326-.375-.5-.563-.025-.027-.037-.067-.063-.094-.061-.064-.125-.125-.188-.188-.147-.147-.281-.3-.438-.438-.127-.112-.274-.207-.406-.313-.192-.153-.391-.299-.594-.438-.591-.404-1.233-.76-1.906-1.031-.042-.017-.083-.046-.125-.063-.239-.092-.472-.176-.719-.25-.041-.012-.084-.02-.125-.031-.24-.068-.503-.106-.75-.156-.053-.011-.103-.021-.156-.031-.269-.05-.537-.097-.813-.125-.336-.034-.686-.063-1.031-.063zm4 9c-4.721 0-8.634 3.371-9 8-2.906.852-5 3.822-5 7 0 3.527 2.603 6.521 6 7h21c2.76 0 5-2.24 5-5s-2.24-5-5-5c-.401-1.976-2.05-3.521-4.031-3.906-.457-4.537-4.313-8.094-8.969-8.094z"
  />
</svg>