<svg xmlns="http://www.w3.org/2000/svg" version="1.1" width="128" height="128" data-icon="cog" viewBox="0 0 128 128">
  <path d="M54 0l-3.594 14.313c-4.239 1.156-8.24 2.863-11.969 5l-12.719-7.563-14.031 14.063 7.594 12.656c-2.133 3.731-3.817 7.759-4.969 12l-14.313 3.656v19.875l14.313 3.594c1.156 4.239 2.862 8.24 5 11.969l-7.563 12.719 14.063 14.031 12.656-7.594c3.731 2.133 7.759 3.817 12 4.969l3.656 14.313h19.875l3.594-14.313c4.239-1.156 8.24-2.862 11.969-5l12.719 7.563 14.031-14.063-7.594-12.656c2.133-3.731 3.817-7.759 4.969-12l14.313-3.656v-19.875l-14.313-3.594c-1.156-4.239-2.862-8.24-5-11.969l7.563-12.719-14.063-14.031-12.656 7.594c-3.731-2.133-7.759-3.817-12-4.969l-3.656-14.313h-19.875zm10 30c18.778 0 34 15.222 34 34s-15.222 34-34 34-34-15.222-34-34 15.222-34 34-34z"
  />
</svg>