<svg xmlns="http://www.w3.org/2000/svg" version="1.1" width="16" height="16" data-icon="cog" viewBox="0 0 16 16">
  <path d="M7 0l-1 1.969c-.3.099-.565.234-.844.375l-2.156-.844-1.5 1.5.844 2.156c-.141.279-.276.543-.375.844l-1.969 1v2l1.969 1c.099.3.234.566.375.844l-.844 2.156 1.5 1.5 2.156-.844c.279.141.543.276.844.375l1 1.969h2l1-1.969c.3-.099.565-.234.844-.375l2.156.844 1.5-1.5-.844-2.156c.141-.279.276-.574.375-.875l1.969-1v-1.969l-1.969-1c-.099-.3-.234-.565-.375-.844l.844-2.156-1.5-1.5-2.156.844c-.279-.141-.543-.276-.844-.375l-1.031-1.969h-1.969zm1 5c1.657 0 3 1.343 3 3s-1.343 3-3 3-3-1.343-3-3 1.343-3 3-3z"
  />
</svg>