<svg xmlns="http://www.w3.org/2000/svg" version="1.1" width="128" height="128" data-icon="cogs" viewBox="0 0 128 128">
  <path d="M53.406 0l-6 8.094c-2.912-.371-5.867-.382-8.844 0l-6.063-8.063-12.531 5.188 1.469 9.969c-2.373 1.838-4.456 3.958-6.25 6.281l-10-1.438-5.188 12.563 8.094 6c-.371 2.912-.382 5.867 0 8.844l-8.063 6.063 5.188 12.531 9.969-1.469c1.838 2.373 3.958 4.456 6.281 6.25l-1.438 10 12.563 5.188 6-8.094c2.912.371 5.867.382 8.844 0l6.063 8.063 12.531-5.188-1.469-9.969c2.373-1.838 4.456-3.958 6.25-6.281l10 1.438 5.188-12.563-8.094-6c.371-2.912.382-5.867 0-8.844l8.063-6.063-5.188-12.531-9.969 1.469c-1.838-2.373-3.958-4.456-6.281-6.25l1.438-10-12.563-5.188zm-11.375 19.781c9.461-.395 18.603 5.087 22.438 14.344 4.908 11.849-.745 25.436-12.594 30.344-11.849 4.908-25.436-.745-30.344-12.594-4.908-11.849.745-25.436 12.594-30.344 2.592-1.074 5.257-1.639 7.906-1.75zm48.969 44.219l-1.781 7.156c-2.119.578-4.136 1.432-6 2.5l-6.344-3.781-7.031 7.031 3.781 6.344c-1.067 1.865-1.893 3.879-2.469 6l-7.156 1.813v9.938l7.156 1.781c.578 2.119 1.432 4.136 2.5 6l-3.781 6.344 7.031 7.031 6.344-3.781c1.865 1.067 3.879 1.893 6 2.469l1.813 7.156h9.938l1.781-7.156c2.119-.578 4.136-1.432 6-2.5l6.344 3.781 7.031-7.031-3.781-6.344c1.067-1.865 1.893-3.879 2.469-6l7.156-1.813v-9.938l-7.156-1.781c-.578-2.12-1.432-4.136-2.5-6l3.781-6.344-7.031-7.031-6.344 3.781c-1.865-1.067-3.879-1.893-6-2.469l-1.813-7.156h-9.938zm5 15c9.389 0 17 7.611 17 17s-7.611 17-17 17-17-7.611-17-17 7.611-17 17-17z"
  />
</svg>