<svg xmlns="http://www.w3.org/2000/svg" version="1.1" width="16" height="16" data-icon="cogs" viewBox="0 0 16 16">
  <path d="M6.344 0l-1.063 1c-.19-.014-.37.017-.563.031v-.031l-1.063-.906-1.188.469-.094 1.406c-.146.126-.281.263-.406.406l-1.469.031-.5 1.25 1 1.063c-.014.19.017.37.031.563h-.031l-.906 1.063.469 1.156 1.406.125c.126.146.263.281.406.406l.031 1.469 1.25.5 1.063-1.031c.19.014.37.014.563 0l1.063.938 1.156-.469.125-1.406c.14-.122.255-.269.375-.406l1.5-.031.5-1.25-1.031-1.063c.014-.19.013-.37 0-.563l.938-1.063-.469-1.188-1.406-.094c-.126-.146-.263-.281-.406-.406l-.031-1.469-1.25-.5zm-1.344 3.094c.738.006 1.45.463 1.75 1.188.401.967-.065 2.069-1.031 2.469-.967.4-2.069-.065-2.469-1.031-.4-.967.065-2.069 1.031-2.469.242-.1.473-.158.719-.156zm6.5 4.906l-.5 1c-.145.048-.271.089-.406.156l-1.094-.406-.75.75.406 1.094c-.068.135-.108.261-.156.406l-1 .5v1l1 .5c.048.145.089.271.156.406l-.406 1.094.75.75 1.094-.406c.135.068.261.108.406.156l.5 1h1l.5-1c.145-.048.271-.089.406-.156l1.094.406.75-.75-.406-1.094c.068-.135.108-.261.156-.406l1-.5v-1l-1-.5c-.048-.145-.089-.271-.156-.406l.406-1.094-.75-.75-1.094.406c-.135-.068-.261-.108-.406-.156l-.5-1h-1zm.5 2.5c.828 0 1.5.672 1.5 1.5s-.672 1.5-1.5 1.5-1.5-.672-1.5-1.5.672-1.5 1.5-1.5z"
  />
</svg>