<svg xmlns="http://www.w3.org/2000/svg" version="1.1" width="128" height="128" data-icon="command" viewBox="0 0 128 128">
  <path d="M26 0c-14.288 0-26 11.712-26 26s11.712 26 26 26h14v24h-14c-14.288 0-26 11.712-26 26s11.712 26 26 26 26-11.712 26-26v-14h24v14c0 14.288 11.712 26 26 26s26-11.712 26-26-11.712-26-26-26h-14v-24h14c14.288 0 26-11.712 26-26s-11.712-26-26-26-26 11.712-26 26v14h-24v-14c0-14.288-11.712-26-26-26zm0 12c7.804 0 14 6.196 14 14v14h-14c-7.804 0-14-6.196-14-14s6.196-14 14-14zm76 0c7.804 0 14 6.196 14 14s-6.196 14-14 14h-14v-14c0-7.804 6.196-14 14-14zm-50 40h24v24h-24v-24zm-26 36h14v14c0 7.804-6.196 14-14 14s-14-6.196-14-14 6.196-14 14-14zm62 0h14c7.804 0 14 6.196 14 14s-6.196 14-14 14-14-6.196-14-14v-14z"
  />
</svg>