<svg xmlns="http://www.w3.org/2000/svg" version="1.1" width="16" height="16" data-icon="command" viewBox="0 0 16 16">
  <path d="M3.5 0c-1.921 0-3.5 1.579-3.5 3.5s1.579 3.5 3.5 3.5h1.5v2h-1.5c-1.921 0-3.5 1.579-3.5 3.5s1.579 3.5 3.5 3.5 3.5-1.579 3.5-3.5v-1.5h2v1.5c0 1.921 1.579 3.5 3.5 3.5s3.5-1.579 3.5-3.5-1.579-3.5-3.5-3.5h-1.5v-2h1.5c1.921 0 3.5-1.579 3.5-3.5s-1.579-3.5-3.5-3.5-3.5 1.579-3.5 3.5v1.5h-2v-1.5c0-1.921-1.579-3.5-3.5-3.5zm0 2c.841 0 1.5.659 1.5 1.5v1.5h-1.5c-.841 0-1.5-.659-1.5-1.5s.659-1.5 1.5-1.5zm9 0c.841 0 1.5.659 1.5 1.5s-.659 1.5-1.5 1.5h-1.5v-1.5c0-.841.659-1.5 1.5-1.5zm-5.5 5h2v2h-2v-2zm-3.5 4h1.5v1.5c0 .841-.659 1.5-1.5 1.5s-1.5-.659-1.5-1.5.659-1.5 1.5-1.5zm7.5 0h1.5c.841 0 1.5.659 1.5 1.5s-.659 1.5-1.5 1.5-1.5-.659-1.5-1.5v-1.5z"
  />
</svg>