<svg xmlns="http://www.w3.org/2000/svg" version="1.1" width="32" height="32" data-icon="command" viewBox="0 0 32 32">
  <path d="M6.5 0c-3.572 0-6.5 2.928-6.5 6.5s2.928 6.5 6.5 6.5h3.5v6h-3.5c-3.572 0-6.5 2.928-6.5 6.5s2.928 6.5 6.5 6.5 6.5-2.928 6.5-6.5v-3.5h6v3.5c0 3.572 2.928 6.5 6.5 6.5s6.5-2.928 6.5-6.5-2.928-6.5-6.5-6.5h-3.5v-6h3.5c3.572 0 6.5-2.928 6.5-6.5s-2.928-6.5-6.5-6.5-6.5 2.928-6.5 6.5v3.5h-6v-3.5c0-3.572-2.928-6.5-6.5-6.5zm0 3c1.95 0 3.5 1.55 3.5 3.5v3.5h-3.5c-1.95 0-3.5-1.55-3.5-3.5s1.55-3.5 3.5-3.5zm19 0c1.95 0 3.5 1.55 3.5 3.5s-1.55 3.5-3.5 3.5h-3.5v-3.5c0-1.95 1.55-3.5 3.5-3.5zm-12.5 10h6v6h-6v-6zm-6.5 9h3.5v3.5c0 1.95-1.55 3.5-3.5 3.5s-3.5-1.55-3.5-3.5 1.55-3.5 3.5-3.5zm15.5 0h3.5c1.95 0 3.5 1.55 3.5 3.5s-1.55 3.5-3.5 3.5-3.5-1.55-3.5-3.5v-3.5z"
  />
</svg>