<svg xmlns="http://www.w3.org/2000/svg" version="1.1" width="128" height="128" data-icon="compass" viewBox="0 0 128 128">
  <path d="M64 0c-35.299 0-64 28.701-64 64s28.701 64 64 64 64-28.701 64-64-28.701-64-64-64zm0 8c30.975 0 56 25.025 56 56s-25.025 56-56 56-56-25.025-56-56 25.025-56 56-56zm0 4c-1.105 0-2 .895-2 2s.895 2 2 2 2-.895 2-2-.895-2-2-2zm30 22l-40 20-20 40 40-20 20-40zm-30 22c4.418 0 8 3.582 8 8s-3.582 8-8 8-8-3.582-8-8 3.582-8 8-8zm0 4c-2.209 0-4 1.791-4 4s1.791 4 4 4 4-1.791 4-4-1.791-4-4-4zm-50 2c-1.105 0-2 .895-2 2s.895 2 2 2 2-.895 2-2-.895-2-2-2zm100 0c-1.105 0-2 .895-2 2s.895 2 2 2 2-.895 2-2-.895-2-2-2zm-50 50c-1.105 0-2 .895-2 2s.895 2 2 2 2-.895 2-2-.895-2-2-2z"
  />
</svg>