<svg xmlns="http://www.w3.org/2000/svg" version="1.1" width="128" height="128" data-icon="copyleft" viewBox="0 0 128 128">
  <path d="M64 0c-35.275 0-64 28.725-64 64s28.725 64 64 64 64-28.725 64-64-28.725-64-64-64zm0 12c28.79 0 52 23.21 52 52s-23.21 52-52 52-52-23.21-52-52 23.21-52 52-52zm0 14c-10.458 0-20.005 4.255-26.875 11.125l8.5 8.5c4.712-4.712 11.161-7.625 18.375-7.625s13.664 2.914 18.375 7.625c4.712 4.712 7.625 11.161 7.625 18.375s-2.914 13.664-7.625 18.375c-4.712 4.712-11.161 7.625-18.375 7.625s-13.664-2.914-18.375-7.625l-8.5 8.5c6.869 6.871 16.417 11.125 26.875 11.125 10.458 0 20.005-4.257 26.875-11.125 6.871-6.869 11.125-16.417 11.125-26.875 0-10.458-4.257-20.005-11.125-26.875-6.869-6.871-16.417-11.125-26.875-11.125z"
  />
</svg>