<svg xmlns="http://www.w3.org/2000/svg" version="1.1" width="32" height="32" data-icon="cpu" viewBox="0 0 32 32">
  <path d="M5 0v4h1v-4h-1zm2 0v4h1v-4h-1zm2 0v4h1v-4h-1zm2 0v4h1v-4h-1zm2 0v4h1v-4h-1zm2 0v4h1v-4h-1zm2 0v4h1v-4h-1zm2 0v4h1v-4h-1zm2 0v4h1v-4h-1zm2 0v4h1v-4h-1zm2 0v4h1v-4h-1zm-25 5v1h4v-1h-4zm5 0v21h21v-21h-21zm22 0v1h4v-1h-4zm-27 2v1h4v-1h-4zm27 0v1h4v-1h-4zm-27 2v1h4v-1h-4zm27 0v1h4v-1h-4zm-27 2v1h4v-1h-4zm27 0v1h4v-1h-4zm-27 2v1h4v-1h-4zm27 0v1h4v-1h-4zm-27 2v1h4v-1h-4zm27 0v1h4v-1h-4zm-27 2v1h4v-1h-4zm27 0v1h4v-1h-4zm-27 2v1h4v-1h-4zm27 0v1h4v-1h-4zm-27 2v1h4v-1h-4zm27 0v1h4v-1h-4zm-27 2v1h4v-1h-4zm27 0v1h4v-1h-4zm-27 2v1h4v-1h-4zm27 0v1h4v-1h-4zm-22 2v4h1v-4h-1zm2 0v4h1v-4h-1zm2 0v4h1v-4h-1zm2 0v4h1v-4h-1zm2 0v4h1v-4h-1zm2 0v4h1v-4h-1zm2 0v4h1v-4h-1zm2 0v4h1v-4h-1zm2 0v4h1v-4h-1zm2 0v4h1v-4h-1zm2 0v4h1v-4h-1z"
  />
</svg>