<svg xmlns="http://www.w3.org/2000/svg" version="1.1" width="128" height="128" data-icon="dashboard" data-container-transform="translate(0 3)" viewBox="0 0 128 128">
  <path d="M64 0c-4.412 0-8.739.46-12.906 1.313-4.168.853-8.17 2.099-12 3.719-3.83 1.62-7.471 3.607-10.875 5.906-3.405 2.3-6.574 4.918-9.469 7.813-2.895 2.895-5.512 6.065-7.813 9.469-2.301 3.405-4.287 7.046-5.906 10.875-1.62 3.83-2.866 7.832-3.719 12-.852 4.167-1.313 8.494-1.313 12.906 0 4.412.46 8.739 1.313 12.906.853 4.168 2.099 8.17 3.719 12 1.62 3.832 3.607 7.471 5.906 10.875 2.3 3.405 4.918 6.574 7.813 9.469 2.895 2.895 6.065 5.512 9.469 7.813 2.612 1.764 5.295 3.213 8.031 4.531l.844.406h53.812l.844-.406c2.667-1.295 5.454-2.791 8.031-4.531 3.405-2.3 6.574-4.918 9.469-7.813 2.895-2.895 5.512-6.065 7.813-9.469 2.299-3.404 4.286-7.045 5.906-10.875s2.866-7.832 3.719-12c.852-4.167 1.313-8.494 1.313-12.906 0-4.412-.46-8.739-1.313-12.906v-.031c-.853-4.158-2.103-8.148-3.719-11.969-1.62-3.83-3.607-7.471-5.906-10.875l-.063-.094c-2.285-3.37-4.882-6.507-7.75-9.375-2.895-2.895-6.065-5.512-9.469-7.813-3.404-2.299-7.045-4.286-10.875-5.906s-7.832-2.866-12-3.719c-4.167-.852-8.494-1.313-12.906-1.313zm0 8c3.872 0 7.637.379 11.281 1.125 3.644.745 7.152 1.865 10.5 3.281 3.348 1.416 6.551 3.143 9.531 5.156 2.98 2.014 5.746 4.309 8.281 6.844s4.832 5.302 6.844 8.281c2.013 2.98 3.74 6.152 5.156 9.5 1.416 3.35 2.536 6.887 3.281 10.531.746 3.645 1.125 7.41 1.125 11.281 0 3.872-.379 7.637-1.125 11.281-.745 3.644-1.865 7.152-3.281 10.5l-.031.094c-1.409 3.315-3.13 6.484-5.125 9.438-2.014 2.98-4.309 5.746-6.844 8.281s-5.302 4.832-8.281 6.844c-1.894 1.279-4.135 2.464-6.344 3.563h-49.969c-2.227-1.1-4.354-2.239-6.313-3.563-2.882-1.948-5.564-4.157-8.031-6.594l-.25-.25c-2.535-2.535-4.832-5.302-6.844-8.281-2.013-2.98-3.74-6.183-5.156-9.531-1.416-3.35-2.536-6.856-3.281-10.5-.746-3.645-1.125-7.41-1.125-11.281 0-3.872.379-7.637 1.125-11.281.711-3.476 1.771-6.854 3.094-10.063l.188-.469c1.416-3.349 3.143-6.521 5.156-9.5v-.031c2.01-2.972 4.315-5.721 6.844-8.25 2.535-2.535 5.302-4.832 8.281-6.844 2.972-2.008 6.162-3.742 9.5-5.156.009-.004.022.004.031 0 3.342-1.411 6.866-2.538 10.5-3.281 3.645-.746 7.41-1.125 11.281-1.125zm0 9.656c-6.345 0-12.401 1.296-17.906 3.625-3.968 1.679-7.631 3.9-10.938 6.563 1.264.812 1.988 1.264 3.563 2.281 2.737-2.068 5.736-3.802 8.938-5.156 5.023-2.125 10.539-3.313 16.344-3.313 5.805 0 11.321 1.187 16.344 3.313 5.024 2.125 9.543 5.198 13.344 9 3.801 3.801 6.875 8.32 9 13.344 2.124 5.023 3.313 10.539 3.313 16.344 0 5.805-1.187 11.321-3.313 16.344-2.125 5.024-5.198 9.574-9 13.375a2 2 0 1 0 2.844 2.813c4.162-4.161 7.515-9.121 9.844-14.625 2.329-5.505 3.625-11.561 3.625-17.906 0-6.345-1.297-12.402-3.625-17.906-2.329-5.505-5.683-10.464-9.844-14.625-4.161-4.162-9.121-7.515-14.625-9.844-5.505-2.329-11.561-3.625-17.906-3.625zm-36 10.344s25.032 39.157 28.938 43.063c3.905 3.905 10.22 3.905 14.125 0 3.905-3.905 3.905-10.22 0-14.125-3.905-3.905-43.063-28.938-43.063-28.938zm-.125 7.219c-2.52 3.202-4.639 6.723-6.25 10.531-2.329 5.505-3.625 11.561-3.625 17.906 0 6.321 1.282 12.356 3.594 17.844l.031.063c2.329 5.505 5.683 10.464 9.844 14.625a2 2 0 1 0 2.844-2.813c-3.801-3.801-6.875-8.352-9-13.375s-3.313-10.539-3.313-16.344c0-5.805 1.187-11.321 3.313-16.344 1.287-3.043 2.91-5.906 4.844-8.531-1.02-1.579-1.465-2.293-2.281-3.563zm36.125 26.781c1.105 0 2 .895 2 2s-.895 2-2 2-2-.895-2-2 .895-2 2-2z"
  transform="translate(0 3)" />
</svg>