<svg xmlns="http://www.w3.org/2000/svg" version="1.1" width="32" height="32" data-icon="dashboard" data-container-transform="translate(0 1)" viewBox="0 0 32 32">
  <path d="M16 0c-8.819 0-16 7.181-16 16 0 6.024 3.368 11.123 8.281 13.813l.344.188h14.75l.344-.188c4.912-2.69 8.281-7.79 8.281-13.813 0-8.819-7.181-16-16-16zm0 3c7.197 0 13 5.803 13 13 0 4.802-2.593 8.762-6.469 11h-13.063c-3.877-2.239-6.469-6.197-6.469-11 0-7.197 5.803-13 13-13zm0 3c-1.763 0-3.406.476-4.844 1.281.324.206.6.378.938.594 1.183-.566 2.507-.875 3.906-.875 2.488 0 4.745.995 6.375 2.625s2.625 3.887 2.625 6.375-.995 4.745-2.625 6.375a.5.5 0 1 0 .688.688c1.81-1.81 2.938-4.304 2.938-7.063 0-2.758-1.128-5.253-2.938-7.063-1.81-1.81-4.304-2.938-7.063-2.938zm-9 1s6.358 10.171 7.406 11.219 2.764 1.048 3.813 0c1.049-1.048 1.007-2.806 0-3.813-1.007-1.007-11.219-7.406-11.219-7.406zm.281 4.156c-.805 1.438-1.281 3.08-1.281 4.844 0 2.759 1.129 5.254 2.938 7.063a.5.5 0 1 0 .688-.688c-1.629-1.629-2.625-3.886-2.625-6.375 0-1.4.309-2.724.875-3.906-.217-.339-.387-.612-.594-.938z"
  transform="translate(0 1)" />
</svg>