<svg xmlns="http://www.w3.org/2000/svg" version="1.1" width="16" height="16" data-icon="dashboard" viewBox="0 0 16 16">
  <path d="M8 0c-4.406 0-8 3.594-8 8 0 2.948 1.634 5.496 4 6.875l.219.125h7.561999999999999l.219-.125c2.377-1.376 4-3.923 4-6.875 0-4.406-3.594-8-8-8zm0 2c3.326 0 6 2.674 6 6 0 2.163-1.158 3.94-2.875 5h-6.25c-1.71-1.063-2.875-2.849-2.875-5 0-3.326 2.674-6 6-6zm-4 2s2.194 4.07 2.719 4.594c.524.524 1.35.524 1.875 0 .525-.524.503-1.371 0-1.875-.503-.503-4.594-2.719-4.594-2.719zm4 0l.531 1.063c.612.111 1.171.391 1.594.813l.031.031c.527.54.844 1.276.844 2.094 0 .832-.331 1.581-.875 2.125a.508.508 0 0 0 .719.719c.722-.724 1.156-1.742 1.156-2.844 0-1.102-.432-2.121-1.156-2.844-.724-.722-1.742-1.156-2.844-1.156zm-4 4c0 1.102.433 2.121 1.156 2.844a.508.508 0 0 0 .719-.719c-.421-.421-.702-.982-.813-1.594l-1.063-.531z"
  />
</svg>