<svg xmlns="http://www.w3.org/2000/svg" version="1.1" width="128" height="128" data-icon="database" data-container-transform="translate(28)" viewBox="0 0 128 128">
  <path d="M36 0c-19.882 0-36 16.118-36 36 0 19.851 16.149 36 36 36s36-16.149 36-36c0-19.882-16.118-36-36-36zm-36 53.438v10.563c0 19.851 16.149 36 36 36s36-16.149 36-36v-10.563c-6.488 13.351-20.186 22.563-36 22.563s-29.512-9.212-36-22.563zm0 28v10.563c0 19.882 16.118 36 36 36s36-16.118 36-36v-10.563c-6.488 13.351-20.186 22.563-36 22.563s-29.512-9.212-36-22.563z"
  transform="translate(28)" />
</svg>