<svg xmlns="http://www.w3.org/2000/svg" version="1.1" width="32" height="32" data-icon="dial" data-container-transform="translate(0 2)" viewBox="0 0 32 32">
  <path d="M16 0c-.552 0-1 .448-1 1s.448 1 1 1 1-.448 1-1-.448-1-1-1zm-5.75 1.156c-.552 0-1 .448-1 1s.448 1 1 1 1-.448 1-1-.448-1-1-1zm11.5 0c-.552 0-1 .448-1 1s.448 1 1 1 1-.448 1-1-.448-1-1-1zm-16.344 3.25c-.552 0-1 .448-1 1s.448 1 1 1 1-.448 1-1-.448-1-1-1zm21.188 0c-.552 0-1 .448-1 1s.448 1 1 1 1-.448 1-1-.448-1-1-1zm-11.719.656c-5.547.563-9.875 5.242-9.875 10.938 0 6.075 4.925 11 11 11s11-4.925 11-11c0-5.737-4.394-10.432-10-10.938v9.938c0 .552-.448 1-1 1s-1-.448-1-1v-9.938c-.041.004-.084-.004-.125 0zm-12.719 4.188c-.552 0-1 .448-1 1s.448 1 1 1 1-.448 1-1-.448-1-1-1zm27.688 0c-.552 0-1 .448-1 1s.448 1 1 1 1-.448 1-1-.448-1-1-1zm-28.844 5.75c-.552 0-1 .448-1 1s.448 1 1 1 1-.448 1-1-.448-1-1-1zm30 0c-.552 0-1 .448-1 1s.448 1 1 1 1-.448 1-1-.448-1-1-1z"
  transform="translate(0 2)" />
</svg>