<svg xmlns="http://www.w3.org/2000/svg" version="1.1" width="128" height="128" data-icon="dna" data-container-transform="translate(26)" viewBox="0 0 128 128">
  <path d="M71.938-.063a4 4 0 0 0-3.938 4.063v18.281c0 9.888-5.217 19.046-13.719 24.094l-.156.094-.188.125-38.313 28.656-.344.25c-10.855 6.654-15.281 18.629-15.281 30.719v17.781a4 4 0 1 0 8 0v-17.781c0-10.36 3.424-19.168 11.719-24.094l.156-.094.188-.125 38.313-28.656c.045-.027.08-.067.125-.094l.219-.156c10.704-6.527 17.281-18.163 17.281-30.719v-18.281a4 4 0 0 0-4.063-4.063zm-68.594.063a4 4 0 0 0-3.344 3.719 4 4 0 0 0 0 .281v18.281c0 12.118 4.432 24.137 15.344 30.781.098.06.182.129.281.188l12.5 8.875 6.719-5-10-7.125h19.531l2.656-2h-25l-2.063-1.469-.125-.094-.125-.063c-2.074-1.231-3.856-2.695-5.344-4.375h41c.795-.622 1.541-1.292 2.25-2h-44.781c-1.274-1.822-2.277-3.832-3.031-6h52.25c.344-.647.651-1.325.938-2h-53.781c-.512-1.908-.882-3.907-1.063-6h56.563c.102-.668.172-1.321.219-2h-56.906c-.021-.564-.031-1.144-.031-1.719v-4.281h57v-2h-57v-6h57v-2h-57v-4a4 4 0 0 0-3.25-4h-1.406zm43.188 65.875l-6.625 4.969 9.094 7.156h-18.688l-2.688 2h23.906l2.344 1.844.188.156.219.125c1.863 1.106 3.566 2.41 5.094 3.875h-40c-.823.628-1.574 1.286-2.25 2h44.125c1.568 1.83 2.89 3.839 3.938 6h-51.938c-.281.658-.531 1.329-.75 2h53.563c.755 1.923 1.278 3.93 1.594 6h-56.438c-.076.688-.12 1.335-.156 2h56.844c.058.736.094 1.473.094 2.219v3.781h-57v2h57v6h-57v2h57v4a4 4 0 0 0 3.25 4h1.406a4 4 0 0 0 3.344-3.719 4 4 0 0 0 0-.281v-17.781c0-12.519-6.542-24.118-17.188-30.656l-.125-.094-12.156-9.594z"
  transform="translate(26)" />
</svg>