<svg xmlns="http://www.w3.org/2000/svg" version="1.1" width="16" height="16" data-icon="dna" data-container-transform="translate(2)" viewBox="0 0 16 16">
  <path d="M10.906-.031a1 1 0 0 0-.125.031 1 1 0 0 0-.781 1v1.781c0 1.061-.557 2.053-1.469 2.594l-6.094 3.594c-1.516.9-2.438 2.55-2.438 4.313v1.719a1 1 0 1 0 2 0v-1.719c0-1.059.557-2.052 1.469-2.594l6.094-3.594c1.517-.899 2.438-2.549 2.438-4.313v-1.781a1 1 0 0 0-1.094-1.031zm-10.125.031a1 1 0 0 0-.781.813 1 1 0 0 0 0 .188v1.781c0 1.763.921 3.413 2.438 4.313l.625.375 1.969-1.188-1.563-.906c-.183-.109-.347-.233-.5-.375h4.219l.844-.5c.223-.132.409-.299.563-.5h-6.313c-.139-.315-.225-.649-.25-1h6.938c.008-.071.031-.146.031-.219v-.781h-7v-1a1 1 0 0 0-.688-1h-.531zm8.156 8.594l-1.969 1.188 1.563.906c.15.089.276.201.406.313h-4.031l-.938.563c-.197.117-.357.265-.5.438h6.219c.147.315.249.648.281 1h-6.938c-.013.091-.031.188-.031.281v.719h7v1a1 1 0 0 0 .813 1h.406a1 1 0 0 0 .781-.844 1 1 0 0 0 0-.156v-1.719c0-1.763-.922-3.412-2.438-4.313l-.625-.375z"
  transform="translate(2)" />
</svg>