<svg xmlns="http://www.w3.org/2000/svg" version="1.1" width="32" height="32" data-icon="dna" data-container-transform="translate(6)" viewBox="0 0 32 32">
  <path d="M18.313-.031a1.5 1.5 0 0 0-1.313 1.531v3.563c0 2.296-1.213 4.422-3.188 5.594l-.063.031-.063.063-9.531 7.125-.125.094c-2.858 1.774-4.031 4.971-4.031 8.094v3.438a1.5 1.5 0 1 0 3 0v-3.438c0-2.473.791-4.468 2.688-5.594l.063-.031.063-.063 9.531-7.125c.046-.027.08-.066.125-.094 2.801-1.726 4.531-4.797 4.531-8.094v-3.563a1.5 1.5 0 0 0-1.531-1.531 1.5 1.5 0 0 0-.156 0zm-17.156.031a1.5 1.5 0 0 0-1.156 1.25 1.5 1.5 0 0 0 0 .25v3.563c0 3.137 1.176 6.356 4.063 8.125.033.02.06.043.094.063l2.313 1.656 2.531-1.875-3.219-2.313-.031-.031-.063-.031c-.318-.189-.586-.42-.844-.656h8.219l.25-.188c.378-.224.724-.511 1.031-.813h-10.375c-.373-.588-.623-1.261-.781-2h12.469c.121-.321.191-.659.25-1h-12.875c-.027-.303-.031-.617-.031-.938v-1.063h13v-1h-13v-1.5a1.5 1.5 0 0 0-1.219-1.5h-.625zm11.969 16.125l-2.469 1.844 3 2.375.063.063.094.063c.273.162.539.335.781.531h-8l-.406.313c-.319.189-.577.444-.813.688h10.188c.481.6.85 1.27 1.094 2h-12.406c-.092.333-.147.671-.188 1h12.844c.058.349.094.702.094 1.063v.938h-13v1h13v1.5a1.5 1.5 0 0 0 1.219 1.5h.594a1.5 1.5 0 0 0 1.188-1.406 1.5 1.5 0 0 0 0-.094v-3.438c0-3.282-1.721-6.332-4.5-8.063l-.156-.125-2.219-1.75z"
  transform="translate(6)" />
</svg>