<svg xmlns="http://www.w3.org/2000/svg" version="1.1" width="32" height="32" data-icon="euro" data-container-transform="translate(1)" viewBox="0 0 32 32">
  <path d="M21 0c-7.787 0-14.307 5.614-15.719 13h-4.531l-.75 3h5c0 .681.073 1.341.156 2h-4.406l-.75 3h5.813c2.109 6.374 8.121 11 15.188 11 2.909 0 5.645-.79 8-2.156v-4.875c-2.119 1.89-4.922 3.031-8 3.031-4.862 0-9.017-2.865-10.906-7h13.906l1-3h-15.813c-.108-.651-.188-1.318-.188-2h16.656l1-3h-17.281c1.326-5.187 6.012-9 11.625-9 2.95 0 5.665 1.03 7.75 2.781l1.313-3.938c-2.58-1.783-5.701-2.844-9.063-2.844z"
  transform="translate(1)" />
</svg>