<svg xmlns="http://www.w3.org/2000/svg" version="1.1" width="128" height="128" data-icon="external-link" viewBox="0 0 128 128">
  <path d="M126.688.281c-.091.001-.18.009-.281.031l-24.938 5.375c-.81.174-.992.79-.406 1.375l7.094 7.094-47.5 47.5-2.813 2.844 5.656 5.656 2.844-2.813 47.5-47.5 7.094 7.094c.586.586 1.205.404 1.375-.406l5.25-25.063c.149-.71-.235-1.195-.875-1.188zm-119.688 15.719c-3.818 0-7 3.182-7 7v98c0 3.818 3.182 7 7 7h98c3.818 0 7-3.182 7-7v-73h-8v72h-96v-96h71.906v-8h-72.906z"
  />
</svg>