<svg xmlns="http://www.w3.org/2000/svg" version="1.1" data-icon="eye-closed" width="16" height="16" data-container-transform="scale(1 1 ) translate(0 )" viewBox="0 0 16 16">
  <path d="M14 .594l-.719.688-12 12-.688.719 1.406 1.406.719-.688 12-12 .688-.719-1.406-1.406zm-5.938 1.406c-5.063 0-8.063 6-8.063 6s.761 1.524 2.156 3.031l2-2c-.088-.328-.156-.675-.156-1.031 0-2.209 1.791-4 4-4 .356 0 .702.069 1.031.156l1.594-1.594c-.78-.341-1.639-.563-2.563-.563zm5.781 2.969l-2 2c.087.329.156.675.156 1.031 0 2.209-1.791 4-4 4-.356 0-.703-.068-1.031-.156l-1.563 1.594c.808.353 1.691.563 2.656.563 4.938 0 7.938-6 7.938-6s-.773-1.521-2.156-3.031z"
  />
</svg>