<svg xmlns="http://www.w3.org/2000/svg" version="1.1" data-icon="eye-open" width="32" height="32" data-state="false" data-container-transform="scale(1 1 ) translate(0 6 )" viewBox="0 0 32 32">
  <path d="M16.125 0c-10.125 0-16.125 10-16.125 10s6 10 16.125 10c9.875 0 15.875-10 15.875-10s-6-10-15.875-10zm-.125 3c3.866 0 7 3.134 7 7s-3.134 7-7 7-7-3.134-7-7 3.134-7 7-7zm0 3c-2.209 0-4 1.791-4 4s1.791 4 4 4 4-1.791 4-4c0-.561-.105-1.079-.313-1.563-.275.349-.709.563-1.188.563-.828 0-1.5-.672-1.5-1.5 0-.479.213-.912.563-1.188-.484-.208-1.003-.313-1.563-.313z"
  transform="translate(0 6)" />
</svg>