<svg xmlns="http://www.w3.org/2000/svg" version="1.1" data-icon="eye-open" width="128" height="128" data-state="false" data-container-transform="translate(0 26 ) scale(1 1 )" viewBox="0 0 128 128">
  <path d="M64.5 0c-40.5 0-64.5 38-64.5 38s24 38 64.5 38c39.5 0 63.5-38 63.5-38s-24-38-63.5-38zm-.5 14c13.255 0 24 10.745 24 24s-10.745 24-24 24-24-10.745-24-24 10.745-24 24-24zm0 12c-6.627 0-12 5.373-12 12s5.373 12 12 12 12-5.373 12-12c0-1.852-.439-3.59-1.188-5.156-.723.719-1.713 1.156-2.813 1.156-2.209 0-4-1.791-4-4 0-1.1.437-2.09 1.156-2.813-1.566-.749-3.305-1.188-5.156-1.188z"
  transform="translate(0 26)" />
</svg>