<svg xmlns="http://www.w3.org/2000/svg" version="1.1" data-icon="eye-closed" width="128" height="128" data-container-transform="translate(0 14 ) scale(1 1 )" viewBox="0 0 128 128">
  <path d="M107 1.344l-2.844 2.813-86 86-2.813 2.844 5.656 5.656 2.844-2.813 86-86 2.813-2.844-5.656-5.656zm-42.5 10.656c-40.5 0-64.5 38-64.5 38s9.486 14.975 26.563 26.125l15.781-15.781c-1.499-3.133-2.344-6.639-2.344-10.344 0-13.255 10.745-24 24-24 3.705 0 7.211.845 10.344 2.344l12.25-12.25c-6.68-2.505-14.06-4.094-22.094-4.094zm37.063 11.75v.031l-15.906 15.875c1.499 3.133 2.344 6.639 2.344 10.344 0 13.255-10.745 24-24 24-3.705 0-7.211-.845-10.344-2.344l-12.125 12.125c6.905 2.584 14.582 4.219 22.969 4.219 39.5 0 63.5-38 63.5-38s-9.516-15.089-26.438-26.25z"
  transform="translate(0 14)" />
</svg>