<svg xmlns="http://www.w3.org/2000/svg" version="1.1" data-icon="file-zip" width="128" height="128" data-container-transform="translate(15 0 ) scale(1 1 )" viewBox="0 0 128 128">
  <path d="M1 0c-.55 0-1 .45-1 1v126c0 .55.45 1 1 1h96c.275 0 .537-.1.719-.281.181-.181.281-.444.281-.719v-29h-61c-.55 0-1-.45-1-1v-28c0-.55.45-1 1-1h61v-42h-25c-.55 0-1-.45-1-1v-25h-71zm73 0v23c0 .55.45 1 1 1h23l-24-24zm-27.063 79.094v2.125h5.156l-5.438 6.75v2.031h9.156v-2.125h-5.719l5.438-6.688v-2.094h-8.594zm10.344 0v1.938h1.781v7.031h-1.781v1.938h6.375v-1.938h-1.781v-7.031h1.781v-1.938h-6.375zm8.688 0v10.906h2.813v-3.563h1.75c.796 0 1.468-.093 2-.313.537-.22 1.003-.539 1.438-.969.317-.317.579-.724.75-1.188.171-.469.25-.949.25-1.438 0-.63-.109-1.176-.344-1.625-.23-.449-.561-.806-1-1.094-.366-.239-.803-.414-1.281-.531-.474-.122-1.057-.187-1.75-.188h-4.625zm2.813 2.031h.469c.464 0 .847.017 1.125.031.278.01.551.07.844.188.22.088.428.244.594.469.166.22.25.474.25.781 0 .313-.042.593-.125.813-.078.215-.226.406-.406.563-.21.176-.469.285-.781.344-.308.059-.678.094-1.156.094h-.813v-3.281z"
  transform="translate(15)" />
</svg>