<svg xmlns="http://www.w3.org/2000/svg" version="1.1" data-icon="file-gif" width="128" height="128" data-container-transform="translate(15 0 ) scale(1 1 )" viewBox="0 0 128 128">
  <path d="M1 0c-.55 0-1 .45-1 1v126c0 .55.45 1 1 1h96c.275 0 .537-.1.719-.281.181-.181.281-.444.281-.719v-29h-61c-.55 0-1-.45-1-1v-28c0-.55.45-1 1-1h61v-42h-25c-.55 0-1-.45-1-1v-25h-71zm73 0v23c0 .55.45 1 1 1h23l-24-24zm-21.219 78.875c-1.895 0-3.378.522-4.438 1.563-1.06 1.035-1.594 2.399-1.594 4.094 0 1.777.544 3.177 1.594 4.188 1.05 1.006 2.488 1.5 4.344 1.5.801 0 1.601-.096 2.406-.281.806-.19 1.449-.372 1.938-.563v-5.375h-5.031v2.063h2.188v2.125c-.107.01-.243.026-.375.031-.127.005-.236 0-.344 0-1.25 0-2.204-.329-2.844-.969-.64-.64-.938-1.544-.938-2.75 0-.591.074-1.113.25-1.563.181-.454.442-.832.75-1.125.322-.303.657-.541 1.063-.688.405-.146.877-.219 1.375-.219.425 0 .812.075 1.188.188.381.112.717.25 1 .406.244.132.486.278.75.469.264.186.488.335.625.438h.313v-2.563c-.796-.386-1.538-.623-2.188-.75-.649-.132-1.313-.219-2.031-.219zm6.281.219v1.938h1.781v7.031h-1.781v1.938h6.375v-1.938h-1.781v-7.031h1.781v-1.938h-6.375zm8.688 0v10.906h2.813v-4.656h4.625v-2.125h-4.625v-2h5v-2.125h-7.813z"
  transform="translate(15)" />
</svg>