<svg xmlns="http://www.w3.org/2000/svg" version="1.1" data-icon="file-txt" width="32" height="32" data-container-transform="scale(1 1 ) translate(3 0 )" viewBox="0 0 32 32">
  <path d="M.25 0c-.138 0-.25.113-.25.25v15.75h26v-8h-7.75c-.138 0-.25-.113-.25-.25v-7.75h-17.75zm18.75 0v7h7l-7-7zm-16.844 19.188v1.125h1.813v4.688h1.5v-4.688h1.813v-1.125h-5.125zm5.438 0l2.031 2.875-2.063 2.938h1.625l1.281-1.906 1.281 1.906h1.719l-2.063-3 2.031-2.813h-1.656l-1.25 1.813-1.219-1.813h-1.719zm6.125 0v1.125h1.813v4.688h1.5v-4.688h1.813v-1.125h-5.125zm-13.719 8.813v3.7510000000000003c0 .138.112.25.25.25h25.5c.138 0 .25-.112.25-.25v-3.7510000000000003h-26z"
  transform="translate(3)" />
</svg>