<svg xmlns="http://www.w3.org/2000/svg" version="1.1" data-icon="file-json" width="32" height="32" data-container-transform="scale(1 1 ) translate(3 0 )" viewBox="0 0 32 32">
  <path d="M.25 0c-.138 0-.25.113-.25.25v15.75h26v-8h-7.75c-.138 0-.25-.113-.25-.25v-7.75h-17.75zm18.75 0v7h7l-7-7zm-9.5 19.063c-.763 0-1.388.188-1.875.531-.484.341-.719.771-.719 1.313 0 .404.099.758.313 1.031.216.271.573.466 1.063.625.214.07.445.141.688.188.245.044.469.104.688.156.208.049.362.125.469.219.109.091.156.185.156.313 0 .138-.018.242-.094.313-.073.07-.167.141-.281.188-.094.036-.227.047-.375.063s-.253.031-.344.031c-.354 0-.74-.055-1.125-.188-.383-.133-.721-.346-1.031-.594h-.156v1.406c.312.13.643.227 1 .313.359.083.768.125 1.25.125.833 0 1.484-.174 1.969-.531.487-.359.75-.802.75-1.375 0-.401-.13-.75-.344-1-.211-.253-.523-.448-.969-.594-.227-.073-.427-.115-.625-.156-.195-.042-.411-.081-.625-.125-.326-.068-.539-.169-.656-.25-.117-.083-.188-.19-.188-.344 0-.102.052-.203.125-.281.073-.081.148-.117.25-.156.115-.047.221-.078.344-.094.125-.018.25-.031.375-.031.354 0 .724.06 1.063.188.341.125.609.281.844.469h.156v-1.344c-.273-.112-.594-.208-.969-.281-.372-.076-.742-.125-1.125-.125zm6.031 0c-.935 0-1.688.268-2.219.813-.531.542-.781 1.284-.781 2.219 0 .927.25 1.672.781 2.219.531.544 1.284.813 2.219.813.937 0 1.656-.268 2.188-.813.531-.547.812-1.292.813-2.219 0-.935-.279-1.677-.813-2.219-.534-.544-1.255-.812-2.188-.813zm-12.594.125v1.063h1.344v2.313c0 .237-.023.44-.031.594-.008.151-.034.279-.094.406-.063.13-.164.24-.313.313-.146.073-.352.125-.625.125-.211 0-.396-.023-.531-.063-.135-.042-.25-.078-.375-.125h-.156v1.156c.18.036.388.076.625.094.237.021.513.031.781.031.396 0 .701-.036.969-.125.268-.091.497-.242.688-.406.18-.154.315-.341.406-.563.091-.224.156-.464.156-.719v-4.094h-2.844zm16.719 0v5.813h1.375v-4l2.469 4h1.438v-5.813h-1.375v3.313l-2.094-3.313h-1.813zm-4.125.969c.187 0 .359.023.531.094.174.07.336.188.469.344.13.151.232.349.313.594.081.245.125.557.125.906 0 .326-.023.602-.094.844-.07.24-.198.448-.344.625-.13.156-.294.268-.469.344-.174.073-.339.125-.531.125-.193 0-.388-.052-.563-.125-.174-.073-.307-.19-.438-.344-.13-.154-.263-.352-.344-.594-.078-.245-.094-.529-.094-.875 0-.339.044-.651.125-.906.083-.258.182-.448.313-.594.141-.156.302-.276.469-.344.169-.068.341-.094.531-.094zm-15.531 7.844v3.7510000000000003c0 .138.112.25.25.25h25.5c.138 0 .25-.112.25-.25v-3.7510000000000003h-26z"
  transform="translate(3)" />
</svg>