<svg xmlns="http://www.w3.org/2000/svg" version="1.1" data-icon="file-mov" width="128" height="128" data-container-transform="translate(15 0 ) scale(1 1 )" viewBox="0 0 128 128">
  <path d="M1 0c-.55 0-1 .45-1 1v126c0 .55.45 1 1 1h96c.275 0 .537-.1.719-.281.181-.181.281-.444.281-.719v-29h-61c-.55 0-1-.45-1-1v-28c0-.55.45-1 1-1h61v-42h-25c-.55 0-1-.45-1-1v-25h-71zm73 0v23c0 .55.45 1 1 1h23l-24-24zm-7.406 78.875c-1.753 0-3.129.511-4.125 1.531-.996 1.016-1.5 2.403-1.5 4.156 0 1.738.504 3.1 1.5 4.125.996 1.021 2.372 1.531 4.125 1.531 1.758 0 3.129-.511 4.125-1.531.996-1.025 1.5-2.387 1.5-4.125 0-1.753-.499-3.141-1.5-4.156-1.001-1.02-2.377-1.531-4.125-1.531zm-19.188.219v10.906h2.625v-7.313l2.031 4.75h1.938l2.031-4.75v7.313h2.781v-10.906h-3.25l-2.438 5.469-2.469-5.469h-3.25zm25.719 0l3.969 10.906h3.156l3.969-10.906h-2.875l-2.625 7.656-2.625-7.656h-2.969zm-6.531 1.844c.352 0 .678.056 1 .188.327.132.626.332.875.625.244.283.442.666.594 1.125.151.459.219 1.002.219 1.656 0 .61-.056 1.14-.188 1.594-.132.449-.352.855-.625 1.188-.244.293-.517.515-.844.656-.327.137-.67.188-1.031.188-.361 0-.704-.051-1.031-.188-.327-.137-.631-.368-.875-.656-.244-.288-.442-.64-.594-1.094-.146-.459-.219-1.007-.219-1.656 0-.635.099-1.209.25-1.688.156-.483.35-.852.594-1.125.264-.293.531-.498.844-.625.317-.127.675-.187 1.031-.188z"
  transform="translate(15)" />
</svg>