<svg xmlns="http://www.w3.org/2000/svg" version="1.1" data-icon="file-pdf" width="128" height="128" data-container-transform="translate(15 0 ) scale(1 1 )" viewBox="0 0 128 128">
  <path d="M1 0c-.55 0-1 .45-1 1v126c0 .55.45 1 1 1h96c.275 0 .537-.1.719-.281.181-.181.281-.444.281-.719v-29h-61c-.55 0-1-.45-1-1v-28c0-.55.45-1 1-1h61v-42h-25c-.55 0-1-.45-1-1v-25h-71zm73 0v23c0 .55.45 1 1 1h23l-24-24zm-26.594 79.094v10.906h2.813v-3.563h1.75c.796 0 1.437-.093 1.969-.313.537-.22 1.034-.539 1.469-.969.317-.317.548-.724.719-1.188.171-.469.281-.949.281-1.438 0-.63-.141-1.176-.375-1.625-.23-.449-.561-.806-1-1.094-.366-.239-.771-.414-1.25-.531-.474-.122-1.057-.187-1.75-.188h-4.625zm10.969 0v10.906h3.844c.869 0 1.615-.061 2.25-.188s1.218-.365 1.75-.688c.708-.43 1.317-1.043 1.781-1.844.464-.806.687-1.703.688-2.719 0-1.055-.222-1.974-.656-2.75-.43-.781-1.029-1.416-1.781-1.875-.439-.273-.98-.479-1.625-.625-.645-.151-1.393-.219-2.281-.219h-3.969zm12.469 0v10.906h2.781v-4.656h4.656v-2.125h-4.656v-2h5.031v-2.125h-7.813zm-20.625 2.031h.469c.464 0 .847.017 1.125.031.278.01.551.07.844.188.22.088.428.244.594.469.166.22.25.474.25.781 0 .313-.042.593-.125.813-.078.215-.226.406-.406.563-.21.176-.469.285-.781.344-.308.059-.709.094-1.188.094h-.781v-3.281zm10.969 0h.719c.605 0 1.046.04 1.344.094.303.049.618.14.906.281.566.288.96.675 1.219 1.188.264.508.406 1.126.406 1.844 0 .723-.136 1.351-.375 1.844-.239.488-.612.863-1.125 1.156-.298.161-.594.28-.906.344-.313.059-.8.094-1.469.094h-.719v-6.844z"
  transform="translate(15)" />
</svg>