<svg xmlns="http://www.w3.org/2000/svg" version="1.1" data-icon="file-json" width="128" height="128" data-container-transform="translate(15 0 ) scale(1 1 )" viewBox="0 0 128 128">
  <path d="M1 0c-.55 0-1 .45-1 1v126c0 .55.45 1 1 1h96c.275 0 .537-.1.719-.281.181-.181.281-.444.281-.719v-29h-61c-.55 0-1-.45-1-1v-28c0-.55.45-1 1-1h61v-42h-25c-.55 0-1-.45-1-1v-25h-71zm73 0v23c0 .55.45 1 1 1h23l-24-24zm-2.656 78.875c-1.753 0-3.129.511-4.125 1.531-.996 1.016-1.469 2.403-1.469 4.156 0 1.738.473 3.1 1.469 4.125.996 1.021 2.372 1.531 4.125 1.531 1.758 0 3.16-.511 4.156-1.531.996-1.025 1.469-2.387 1.469-4.125 0-1.753-.499-3.141-1.5-4.156-1.001-1.02-2.377-1.531-4.125-1.531zm-11.281.031c-1.431 0-2.618.324-3.531.969-.908.64-1.344 1.453-1.344 2.469 0 .757.193 1.394.594 1.906.405.508 1.082.921 2 1.219.4.132.827.225 1.281.313.459.083.871.184 1.281.281.391.093.706.23.906.406.205.171.312.354.313.594 0 .259-.077.462-.219.594-.137.132-.316.256-.531.344-.176.068-.409.096-.688.125-.278.029-.485.063-.656.063-.664 0-1.371-.126-2.094-.375-.718-.249-1.356-.599-1.938-1.063h-.313v2.594c.586.244 1.206.464 1.875.625.674.156 1.472.219 2.375.219 1.562 0 2.779-.331 3.688-1 .913-.674 1.375-1.551 1.375-2.625 0-.752-.193-1.344-.594-1.813-.396-.474-1.009-.852-1.844-1.125-.425-.137-.816-.234-1.188-.313-.366-.078-.756-.167-1.156-.25-.61-.127-1.03-.286-1.25-.438-.22-.156-.344-.368-.344-.656 0-.19.082-.354.219-.5.137-.151.31-.27.5-.344.215-.088.427-.127.656-.156.234-.034.484-.062.719-.063.664 0 1.303.105 1.938.344.64.234 1.186.555 1.625.906h.281v-2.531c-.513-.21-1.109-.395-1.813-.531-.698-.142-1.407-.187-2.125-.188zm-12.313.188v2h2.5v4.344c0 .444.015.806 0 1.094-.015.283-.075.542-.188.781-.117.244-.315.457-.594.594-.273.137-.675.188-1.188.188-.396 0-.715-.021-.969-.094-.254-.078-.516-.162-.75-.25h-.25v2.219c.337.068.712.122 1.156.156.444.039.935.031 1.438.031.742 0 1.372-.084 1.875-.25.503-.171.925-.411 1.281-.719.337-.288.579-.616.75-1.031.171-.42.25-.865.25-1.344v-7.719h-5.313zm31.375 0v10.906h2.563v-7.5l4.625 7.5h2.719v-10.906h-2.563v6.25l-4-6.25h-3.344zm-7.75 1.844c.352 0 .678.056 1 .188.327.132.626.332.875.625.244.283.442.666.594 1.125.151.459.219 1.002.219 1.656 0 .61-.056 1.14-.188 1.594-.132.449-.352.855-.625 1.188-.244.293-.517.515-.844.656-.327.137-.67.188-1.031.188-.361 0-.704-.051-1.031-.188-.327-.137-.631-.368-.875-.656-.244-.288-.442-.64-.594-1.094-.146-.459-.219-1.007-.219-1.656 0-.635.067-1.209.219-1.688.156-.483.381-.852.625-1.125.264-.293.531-.498.844-.625.317-.127.675-.187 1.031-.188z"
  transform="translate(15)" />
</svg>