<svg xmlns="http://www.w3.org/2000/svg" version="1.1" data-icon="file-psd" width="128" height="128" data-container-transform="translate(15 0 ) scale(1 1 )" viewBox="0 0 128 128">
  <path d="M1 0c-.55 0-1 .45-1 1v126c0 .55.45 1 1 1h96c.275 0 .537-.1.719-.281.181-.181.281-.444.281-.719v-29h-61c-.55 0-1-.45-1-1v-28c0-.55.45-1 1-1h61v-42h-25c-.55 0-1-.45-1-1v-25h-71zm73 0v23c0 .55.45 1 1 1h23l-24-24zm-11.281 78.906c-1.431 0-2.587.324-3.5.969-.908.64-1.375 1.453-1.375 2.469 0 .757.193 1.394.594 1.906.405.508 1.082.921 2 1.219.4.132.827.225 1.281.313.459.083.902.184 1.313.281.391.093.675.23.875.406.205.171.312.354.313.594 0 .259-.077.462-.219.594-.137.132-.316.256-.531.344-.176.068-.409.096-.688.125-.278.029-.485.063-.656.063-.664 0-1.371-.126-2.094-.375-.718-.249-1.356-.599-1.938-1.063h-.313v2.594c.586.244 1.206.464 1.875.625.674.156 1.472.219 2.375.219 1.562 0 2.811-.331 3.719-1 .913-.674 1.344-1.551 1.344-2.625 0-.752-.193-1.344-.594-1.813-.396-.474-1.009-.852-1.844-1.125-.425-.137-.816-.234-1.188-.313-.366-.078-.756-.167-1.156-.25-.61-.127-1.03-.286-1.25-.438-.22-.156-.313-.368-.313-.656 0-.19.051-.354.188-.5.137-.151.31-.27.5-.344.215-.088.427-.127.656-.156.234-.034.484-.062.719-.063.664 0 1.303.105 1.938.344.64.234 1.186.555 1.625.906h.313v-2.531c-.513-.21-1.141-.395-1.844-.531-.698-.142-1.407-.187-2.125-.188zm-15.313.188v10.906h2.813v-3.563h1.75c.796 0 1.437-.093 1.969-.313.537-.22 1.034-.539 1.469-.969.317-.317.548-.724.719-1.188.171-.469.281-.949.281-1.438 0-.63-.141-1.176-.375-1.625-.23-.449-.561-.806-1-1.094-.366-.239-.771-.414-1.25-.531-.474-.122-1.057-.187-1.75-.188h-4.625zm21.625 0v10.906h3.844c.869 0 1.646-.061 2.281-.188.635-.127 1.218-.365 1.75-.688.708-.43 1.286-1.043 1.75-1.844.464-.806.687-1.703.688-2.719 0-1.055-.222-1.974-.656-2.75-.43-.781-.998-1.416-1.75-1.875-.439-.273-1.012-.479-1.656-.625-.645-.151-1.393-.219-2.281-.219h-3.969zm-18.813 2.031h.469c.464 0 .847.017 1.125.031.278.01.551.07.844.188.22.088.428.244.594.469.166.22.25.474.25.781 0 .313-.042.593-.125.813-.078.215-.226.406-.406.563-.21.176-.469.285-.781.344-.308.059-.709.094-1.188.094h-.781v-3.281zm21.625 0h.719c.605 0 1.046.04 1.344.094.303.049.618.14.906.281.566.288.96.675 1.219 1.188.264.508.406 1.126.406 1.844 0 .723-.105 1.351-.344 1.844-.239.488-.644.863-1.156 1.156-.298.161-.594.28-.906.344-.313.059-.8.094-1.469.094h-.719v-6.844z"
  transform="translate(15)" />
</svg>