<svg xmlns="http://www.w3.org/2000/svg" version="1.1" data-icon="file-css" width="128" height="128" data-container-transform="translate(15 0 ) scale(1 1 )" viewBox="0 0 128 128">
  <path d="M1 0c-.55 0-1 .45-1 1v126c0 .55.45 1 1 1h96c.275 0 .537-.1.719-.281.181-.181.281-.444.281-.719v-29h-61c-.55 0-1-.45-1-1v-28c0-.55.45-1 1-1h61v-42h-25c-.55 0-1-.45-1-1v-25h-71zm73 0v23c0 .55.45 1 1 1h23l-24-24zm-21.688 78.875c-.83 0-1.578.143-2.281.406-.698.264-1.276.642-1.75 1.125-.493.503-.866 1.109-1.125 1.813-.259.703-.406 1.479-.406 2.344 0 .928.138 1.729.406 2.438.273.708.663 1.308 1.156 1.781.493.474 1.066.823 1.75 1.063.688.239 1.439.375 2.25.375.547 0 1-.04 1.313-.094.312-.054.644-.116 1-.219.273-.078.532-.174.781-.281.249-.107.508-.222.781-.344v-2.625h-.313c-.132.117-.295.276-.5.438-.205.161-.417.296-.656.438-.283.176-.601.335-.938.438-.332.103-.658.156-1 .156-.356 0-.728-.075-1.094-.188-.366-.117-.702-.294-1-.563-.293-.264-.523-.635-.719-1.094-.19-.459-.281-1.035-.281-1.719 0-.654.074-1.197.25-1.656.181-.459.431-.847.719-1.125.303-.288.612-.472.969-.594.356-.127.729-.219 1.125-.219.356 0 .687.08 1 .188.312.107.606.219.875.375.264.156.514.339.719.5.21.161.363.289.5.406h.344v-2.656c-.2-.098-.45-.2-.719-.313-.264-.117-.548-.22-.875-.313-.313-.083-.66-.139-1.031-.188-.366-.054-.791-.094-1.25-.094zm10.313.031c-1.431 0-2.618.324-3.531.969-.908.64-1.375 1.453-1.375 2.469 0 .757.225 1.394.625 1.906.405.508 1.051.921 1.969 1.219.4.132.827.225 1.281.313.459.083.902.184 1.313.281.391.093.675.23.875.406.205.171.312.354.313.594 0 .259-.077.462-.219.594-.137.132-.316.256-.531.344-.176.068-.378.096-.656.125-.278.029-.517.063-.688.063-.664 0-1.34-.126-2.063-.375-.718-.249-1.388-.599-1.969-1.063h-.313v2.594c.586.244 1.237.464 1.906.625.674.156 1.44.219 2.344.219 1.562 0 2.811-.331 3.719-1 .913-.674 1.375-1.551 1.375-2.625 0-.752-.225-1.344-.625-1.813-.396-.474-1.009-.852-1.844-1.125-.425-.137-.816-.234-1.188-.313-.366-.078-.756-.167-1.156-.25-.61-.127-.999-.286-1.219-.438-.22-.156-.344-.368-.344-.656 0-.19.082-.354.219-.5.137-.151.278-.27.469-.344.215-.088.458-.127.688-.156.234-.034.453-.062.688-.063.664 0 1.303.105 1.938.344.64.234 1.186.555 1.625.906h.313v-2.531c-.513-.21-1.109-.395-1.813-.531-.698-.142-1.407-.187-2.125-.188zm10.656 0c-1.431 0-2.618.324-3.531.969-.908.64-1.344 1.453-1.344 2.469 0 .757.193 1.394.594 1.906.405.508 1.051.921 1.969 1.219.4.132.827.225 1.281.313.459.083.902.184 1.313.281.391.093.706.23.906.406.205.171.281.354.281.594 0 .259-.046.462-.188.594-.137.132-.316.256-.531.344-.176.068-.409.096-.688.125-.278.029-.517.063-.688.063-.664 0-1.34-.126-2.063-.375-.718-.249-1.388-.599-1.969-1.063h-.281v2.594c.586.244 1.206.464 1.875.625.674.156 1.472.219 2.375.219 1.562 0 2.779-.331 3.688-1 .913-.674 1.375-1.551 1.375-2.625 0-.752-.193-1.344-.594-1.813-.396-.474-1.009-.852-1.844-1.125-.425-.137-.848-.234-1.219-.313-.366-.078-.725-.167-1.125-.25-.61-.127-1.03-.286-1.25-.438-.22-.156-.344-.368-.344-.656 0-.19.082-.354.219-.5.137-.151.31-.27.5-.344.215-.088.427-.127.656-.156.234-.034.453-.062.688-.063.664 0 1.334.105 1.969.344.64.234 1.186.555 1.625.906h.281v-2.531c-.513-.21-1.109-.395-1.813-.531-.698-.142-1.407-.187-2.125-.188z"
  transform="translate(15)" />
</svg>