<svg xmlns="http://www.w3.org/2000/svg" version="1.1" data-icon="file-css" width="32" height="32" data-container-transform="scale(1 1 ) translate(3 0 )" viewBox="0 0 32 32">
  <path d="M.25 0c-.138 0-.25.113-.25.25v15.75h26v-8h-7.75c-.138 0-.25-.113-.25-.25v-7.75h-17.75zm18.75 0v7h7l-7-7zm-13.625 19.063c-.443 0-.844.078-1.219.219-.372.141-.685.336-.938.594-.263.268-.456.594-.594.969-.138.375-.219.789-.219 1.25 0 .495.076.935.219 1.313.146.378.331.685.594.938.263.253.604.466.969.594.367.128.755.188 1.188.188.292 0 .521-.034.688-.063.167-.029.341-.07.531-.125.146-.042.273-.068.406-.125.133-.057.292-.122.438-.188v-1.406h-.156c-.07.063-.172.133-.281.219-.109.086-.216.174-.344.25-.151.094-.32.164-.5.219-.177.055-.349.094-.531.094-.19 0-.398-.034-.594-.094-.195-.062-.372-.169-.531-.313-.156-.141-.271-.349-.375-.594-.102-.245-.156-.542-.156-.906 0-.349.031-.63.125-.875.096-.245.221-.445.375-.594.161-.154.341-.279.531-.344.19-.068.383-.094.594-.094.19 0 .365.036.531.094.167.057.326.135.469.219.141.083.266.164.375.25.112.086.208.156.281.219h.188v-1.406c-.107-.052-.232-.128-.375-.188-.141-.062-.294-.107-.469-.156-.167-.044-.365-.068-.563-.094-.195-.029-.411-.062-.656-.063zm5.5 0c-.763 0-1.388.188-1.875.531-.484.341-.75.771-.75 1.313 0 .404.099.758.313 1.031.216.271.573.466 1.063.625.214.07.445.141.688.188.245.044.469.104.688.156.208.049.393.125.5.219.109.091.156.185.156.313 0 .138-.049.242-.125.313-.073.07-.167.141-.281.188-.094.036-.195.047-.344.063-.148.016-.284.031-.375.031-.354 0-.708-.055-1.094-.188-.383-.133-.753-.346-1.063-.594h-.156v1.406c.312.13.643.227 1 .313.359.083.799.125 1.281.125.833 0 1.484-.174 1.969-.531.487-.359.719-.802.719-1.375 0-.401-.099-.75-.313-1-.211-.253-.555-.448-1-.594-.227-.073-.427-.115-.625-.156-.195-.042-.411-.081-.625-.125-.326-.068-.539-.169-.656-.25-.117-.083-.156-.19-.156-.344 0-.102.021-.203.094-.281.073-.081.18-.117.281-.156.115-.047.221-.078.344-.094.125-.018.25-.031.375-.031.354 0 .693.06 1.031.188.341.125.641.281.875.469h.156v-1.344c-.273-.112-.594-.208-.969-.281-.372-.076-.742-.125-1.125-.125zm5.688 0c-.763 0-1.388.188-1.875.531-.484.341-.75.771-.75 1.313 0 .404.099.758.313 1.031.216.271.573.466 1.063.625.214.07.445.141.688.188.245.044.469.104.688.156.208.049.393.125.5.219.109.091.156.185.156.313 0 .138-.049.242-.125.313-.073.07-.167.141-.281.188-.094.036-.195.047-.344.063-.148.016-.284.031-.375.031-.354 0-.708-.055-1.094-.188-.383-.133-.753-.346-1.063-.594h-.156v1.406c.312.13.643.227 1 .313.359.083.799.125 1.281.125.833 0 1.484-.174 1.969-.531.487-.359.719-.802.719-1.375 0-.401-.099-.75-.313-1-.211-.253-.555-.448-1-.594-.227-.073-.427-.115-.625-.156-.195-.042-.411-.081-.625-.125-.326-.068-.539-.169-.656-.25-.117-.083-.156-.19-.156-.344 0-.102.021-.203.094-.281.073-.081.18-.117.281-.156.115-.047.221-.078.344-.094.125-.018.25-.031.375-.031.354 0 .693.06 1.031.188.341.125.641.281.875.469h.156v-1.344c-.273-.112-.594-.208-.969-.281-.372-.076-.742-.125-1.125-.125zm-16.563 8.938v3.7510000000000003c0 .138.112.25.25.25h25.5c.138 0 .25-.112.25-.25v-3.7510000000000003h-26z"
  transform="translate(3)" />
</svg>