<svg xmlns="http://www.w3.org/2000/svg" version="1.1" data-icon="file-doc" width="32" height="32" data-container-transform="scale(1 1 ) translate(3 0 )" viewBox="0 0 32 32">
  <path d="M.25 0c-.138 0-.25.113-.25.25v15.75h26v-8h-7.75c-.138 0-.25-.113-.25-.25v-7.75h-17.75zm18.75 0v7h7l-7-7zm-6.969 19.063c-.935 0-1.656.268-2.188.813-.531.542-.813 1.284-.813 2.219 0 .927.281 1.672.813 2.219.531.544 1.253.813 2.188.813.937 0 1.687-.268 2.219-.813.531-.547.781-1.292.781-2.219 0-.935-.247-1.677-.781-2.219-.534-.544-1.286-.812-2.219-.813zm6.781 0c-.443 0-.844.078-1.219.219-.372.141-.685.336-.938.594-.263.268-.456.594-.594.969-.138.375-.219.789-.219 1.25 0 .495.076.935.219 1.313.146.378.331.685.594.938.263.253.604.466.969.594.367.128.755.188 1.188.188.292 0 .521-.034.688-.063.167-.029.341-.07.531-.125.146-.042.273-.068.406-.125.133-.057.292-.122.438-.188v-1.406h-.156c-.07.063-.172.133-.281.219-.109.086-.216.174-.344.25-.151.094-.32.164-.5.219-.177.055-.349.094-.531.094-.19 0-.398-.034-.594-.094-.195-.062-.372-.169-.531-.313-.156-.141-.271-.349-.375-.594-.102-.245-.156-.542-.156-.906 0-.349.031-.63.125-.875.096-.245.221-.445.375-.594.161-.154.341-.279.531-.344.19-.068.383-.094.594-.094.19 0 .365.036.531.094.167.057.326.135.469.219.141.083.266.164.375.25.112.086.208.156.281.219h.188v-1.406c-.107-.052-.232-.128-.375-.188-.141-.062-.294-.107-.469-.156-.167-.044-.365-.068-.563-.094-.195-.029-.411-.062-.656-.063zm-16.063.125v5.813h2.031c.464 0 .88-.026 1.219-.094.339-.068.654-.203.938-.375.378-.229.69-.542.938-.969.247-.43.375-.927.375-1.469 0-.562-.143-1.055-.375-1.469-.229-.417-.536-.755-.938-1-.234-.146-.531-.234-.875-.313-.344-.081-.745-.125-1.219-.125h-2.094zm9.281.969c.187 0 .391.023.563.094.174.07.305.188.438.344.13.151.263.349.344.594.081.245.094.557.094.906 0 .326-.023.602-.094.844-.07.24-.167.448-.313.625-.13.156-.294.268-.469.344-.174.073-.37.125-.563.125-.193 0-.357-.052-.531-.125-.174-.073-.339-.19-.469-.344-.13-.154-.232-.352-.313-.594-.078-.245-.125-.529-.125-.875 0-.339.044-.651.125-.906.083-.258.182-.448.313-.594.141-.156.302-.276.469-.344.169-.068.341-.094.531-.094zm-7.781.125h.375c.323 0 .56.003.719.031.161.026.315.081.469.156.302.154.518.352.656.625.141.271.219.617.219 1 0 .385-.06.706-.188.969-.128.26-.32.469-.594.625-.159.086-.333.154-.5.188-.167.031-.424.031-.781.031h-.375v-3.625zm-4.25 7.719v3.7510000000000003c0 .138.112.25.25.25h25.5c.138 0 .25-.112.25-.25v-3.7510000000000003h-26z"
  transform="translate(3)" />
</svg>