<svg xmlns="http://www.w3.org/2000/svg" version="1.1" data-icon="file-psd" width="32" height="32" data-container-transform="scale(1 1 ) translate(3 0 )" viewBox="0 0 32 32">
  <path d="M.25 0c-.138 0-.25.113-.25.25v15.75h26v-8h-7.75c-.138 0-.25-.113-.25-.25v-7.75h-17.75zm18.75 0v7h7l-7-7zm-8.063 19.063c-.763 0-1.388.188-1.875.531-.484.341-.75.771-.75 1.313 0 .404.099.758.313 1.031.216.271.573.466 1.063.625.214.07.445.141.688.188.245.044.469.104.688.156.208.049.393.125.5.219.109.091.156.185.156.313 0 .138-.049.242-.125.313-.073.07-.167.141-.281.188-.094.036-.195.047-.344.063-.148.016-.284.031-.375.031-.354 0-.708-.055-1.094-.188-.383-.133-.753-.346-1.063-.594h-.156v1.406c.312.13.643.227 1 .313.359.083.799.125 1.281.125.833 0 1.484-.174 1.969-.531.487-.359.719-.802.719-1.375 0-.401-.099-.75-.313-1-.211-.253-.555-.448-1-.594-.227-.073-.427-.115-.625-.156-.195-.042-.411-.081-.625-.125-.326-.068-.539-.169-.656-.25-.117-.083-.156-.19-.156-.344 0-.102.021-.203.094-.281.073-.081.18-.117.281-.156.115-.047.221-.078.344-.094.125-.018.25-.031.375-.031.354 0 .693.06 1.031.188.341.125.641.281.875.469h.156v-1.344c-.273-.112-.594-.208-.969-.281-.372-.076-.742-.125-1.125-.125zm-8.188.125v5.813h1.5v-1.906h.938c.424 0 .779-.039 1.063-.156.286-.117.518-.302.75-.531.169-.169.315-.378.406-.625.091-.25.125-.49.125-.75 0-.336-.063-.635-.188-.875-.122-.24-.297-.44-.531-.594-.195-.128-.401-.219-.656-.281-.253-.065-.568-.094-.938-.094h-2.469zm11.531 0v5.813h2.063c.464 0 .849-.026 1.188-.094.339-.068.654-.203.938-.375.378-.229.69-.542.938-.969.247-.43.375-.927.375-1.469 0-.562-.112-1.055-.344-1.469-.229-.417-.536-.755-.938-1-.234-.146-.531-.234-.875-.313-.344-.081-.745-.125-1.219-.125h-2.125zm-10.031 1.094h.25c.247 0 .445-.008.594 0 .148.005.312.031.469.094.117.047.224.13.313.25.089.117.125.273.125.438 0 .167-.018.289-.063.406-.042.115-.122.229-.219.313-.112.094-.24.156-.406.188-.164.031-.37.031-.625.031h-.438v-1.719zm11.531 0h.375c.323 0 .56.003.719.031.161.026.346.081.5.156.302.154.518.352.656.625.141.271.219.617.219 1 0 .385-.091.706-.219.969-.128.26-.32.469-.594.625-.159.086-.333.154-.5.188-.167.031-.424.031-.781.031h-.375v-3.625zm-15.781 7.719v3.7510000000000003c0 .138.112.25.25.25h25.5c.138 0 .25-.112.25-.25v-3.7510000000000003h-26z"
  transform="translate(3)" />
</svg>