<svg xmlns="http://www.w3.org/2000/svg" version="1.1" data-icon="file-mp3" width="128" height="128" data-container-transform="translate(15 0 ) scale(1 1 )" viewBox="0 0 128 128">
  <path d="M1 0c-.55 0-1 .45-1 1v126c0 .55.45 1 1 1h96c.275 0 .537-.1.719-.281.181-.181.281-.444.281-.719v-29h-61c-.55 0-1-.45-1-1v-28c0-.55.45-1 1-1h61v-42h-25c-.55 0-1-.45-1-1v-25h-71zm73 0v23c0 .55.45 1 1 1h23l-24-24zm2.25 78.875c-.708 0-1.405.067-2.094.219-.688.146-1.225.308-1.625.469v2.344h.281c.503-.298 1.025-.5 1.563-.656.537-.161 1.041-.25 1.5-.25.186 0 .397.002.656.031.259.029.466.1.656.188.171.078.325.176.438.313.112.132.156.312.156.531 0 .298-.049.531-.156.688-.107.151-.254.282-.469.375-.205.088-.457.132-.75.156-.293.024-.619.031-1 .031h-.625v1.969h.594c.288 0 .601-.01.938 0 .337.005.604.047.844.125.239.073.447.199.594.375.146.171.219.401.219.719 0 .327-.049.605-.156.781-.107.171-.257.315-.438.438-.229.156-.512.232-.844.281-.332.044-.623.094-.906.094-.483 0-1.039-.096-1.625-.281-.581-.186-1.08-.402-1.5-.656h-.281v2.375c.405.176.918.327 1.563.469.649.142 1.44.219 2.344.219.791 0 1.448-.058 2-.219.557-.166 1.059-.411 1.469-.719.42-.317.737-.712.938-1.156.205-.444.281-.925.281-1.438 0-.454-.046-.82-.188-1.094-.142-.273-.355-.514-.594-.719-.23-.195-.472-.335-.75-.438-.278-.103-.532-.153-.781-.188v-.125c.615-.132 1.093-.433 1.469-.906.376-.479.562-1.02.563-1.625 0-.459-.086-.846-.281-1.188-.195-.342-.506-.636-.906-.875-.337-.2-.764-.352-1.281-.469-.518-.122-1.124-.187-1.813-.188zm-28.844.219v10.906h2.625v-7.313l2.031 4.75h1.938l2.031-4.75v7.313h2.781v-10.906h-3.25l-2.438 5.469-2.469-5.469h-3.25zm14.188 0v10.906h2.813v-3.563h1.75c.796 0 1.468-.093 2-.313.537-.22 1.034-.539 1.469-.969.317-.317.548-.724.719-1.188.171-.469.25-.949.25-1.438 0-.63-.109-1.176-.344-1.625-.23-.449-.561-.806-1-1.094-.366-.239-.803-.414-1.281-.531-.474-.122-1.057-.187-1.75-.188h-4.625zm2.813 2.031h.5c.464 0 .815.017 1.094.031.278.01.582.07.875.188.22.088.396.244.563.469.166.22.25.474.25.781 0 .313-.042.593-.125.813-.078.215-.194.406-.375.563-.21.176-.469.285-.781.344-.308.059-.709.094-1.188.094h-.813v-3.281z"
  transform="translate(15)" />
</svg>