<svg xmlns="http://www.w3.org/2000/svg" version="1.1" data-icon="file-png" width="128" height="128" data-container-transform="translate(15 0 ) scale(1 1 )" viewBox="0 0 128 128">
  <path d="M1 0c-.55 0-1 .45-1 1v126c0 .55.45 1 1 1h96c.275 0 .537-.1.719-.281.181-.181.281-.444.281-.719v-29h-61c-.55 0-1-.45-1-1v-28c0-.55.45-1 1-1h61v-42h-25c-.55 0-1-.45-1-1v-25h-71zm73 0v23c0 .55.45 1 1 1h23l-24-24zm2.469 78.875c-1.895 0-3.378.522-4.438 1.563-1.06 1.035-1.563 2.399-1.563 4.094 0 1.777.513 3.177 1.563 4.188 1.05 1.006 2.488 1.5 4.344 1.5.801 0 1.632-.096 2.438-.281.806-.19 1.449-.372 1.938-.563v-5.375h-5.031v2.063h2.156v2.125c-.107.01-.212.026-.344.031-.127.005-.268 0-.375 0-1.25 0-2.173-.329-2.813-.969-.64-.64-.969-1.544-.969-2.75 0-.591.105-1.113.281-1.563.181-.454.411-.832.719-1.125.322-.303.688-.541 1.094-.688.405-.146.846-.219 1.344-.219.425 0 .843.075 1.219.188.381.112.717.25 1 .406.244.132.486.278.75.469.264.186.457.335.594.438h.313v-2.563c-.796-.386-1.507-.623-2.156-.75-.649-.132-1.345-.219-2.063-.219zm-29.063.219v10.906h2.813v-3.563h1.75c.796 0 1.437-.093 1.969-.313.537-.22 1.034-.539 1.469-.969.317-.317.548-.724.719-1.188.171-.469.281-.949.281-1.438 0-.63-.141-1.176-.375-1.625-.23-.449-.561-.806-1-1.094-.366-.239-.771-.414-1.25-.531-.474-.122-1.057-.187-1.75-.188h-4.625zm10.969 0v10.906h2.594v-7.5l4.625 7.5h2.688v-10.906h-2.563v6.25l-3.969-6.25h-3.375zm-8.156 2.031h.469c.464 0 .847.017 1.125.031.278.01.551.07.844.188.22.088.428.244.594.469.166.22.25.474.25.781 0 .313-.042.593-.125.813-.078.215-.226.406-.406.563-.21.176-.469.285-.781.344-.308.059-.709.094-1.188.094h-.781v-3.281z"
  transform="translate(15)" />
</svg>