<svg xmlns="http://www.w3.org/2000/svg" version="1.1" data-icon="file-html" width="128" height="128" data-container-transform="translate(15 0 ) scale(1 1 )" viewBox="0 0 128 128">
  <path d="M1 0c-.55 0-1 .45-1 1v126c0 .55.45 1 1 1h96c.275 0 .537-.1.719-.281.181-.181.281-.444.281-.719v-29h-61c-.55 0-1-.45-1-1v-28c0-.55.45-1 1-1h61v-42h-25c-.55 0-1-.45-1-1v-25h-71zm73 0v23c0 .55.45 1 1 1h23l-24-24zm-26.594 79.094v10.906h2.813v-4.813h4.125v4.813h2.813v-10.906h-2.813v4h-4.125v-4h-2.813zm11.469 0v2.125h3.406v8.781h2.813v-8.781h3.406v-2.125h-9.625zm11.313 0v10.906h2.656v-7.313l2 4.75h1.969l2-4.75v7.313h2.813v-10.906h-3.281l-2.438 5.469-2.469-5.469h-3.25zm14.219 0v10.906h7.844v-2.125h-5.031v-8.781h-2.813z"
  transform="translate(15)" />
</svg>