<svg xmlns="http://www.w3.org/2000/svg" version="1.1" data-icon="file-xls" width="128" height="128" data-container-transform="translate(15 0 ) scale(1 1 )" viewBox="0 0 128 128">
  <path d="M1 0c-.55 0-1 .45-1 1v126c0 .55.45 1 1 1h96c.275 0 .537-.1.719-.281.181-.181.281-.444.281-.719v-29h-61c-.55 0-1-.45-1-1v-28c0-.55.45-1 1-1h61v-42h-25c-.55 0-1-.45-1-1v-25h-71zm73 0v23c0 .55.45 1 1 1h23l-24-24zm-1.25 78.906c-1.431 0-2.618.324-3.531.969-.908.64-1.344 1.453-1.344 2.469 0 .757.193 1.394.594 1.906.405.508 1.082.921 2 1.219.4.132.827.225 1.281.313.459.083.871.184 1.281.281.391.093.706.23.906.406.205.171.312.354.313.594 0 .259-.077.462-.219.594-.137.132-.316.256-.531.344-.176.068-.409.096-.688.125-.278.029-.517.063-.688.063-.664 0-1.34-.126-2.063-.375-.718-.249-1.356-.599-1.938-1.063h-.313v2.594c.586.244 1.206.464 1.875.625.674.156 1.472.219 2.375.219 1.562 0 2.779-.331 3.688-1 .913-.674 1.375-1.551 1.375-2.625 0-.752-.193-1.344-.594-1.813-.396-.474-1.009-.852-1.844-1.125-.425-.137-.816-.234-1.188-.313-.366-.078-.756-.167-1.156-.25-.61-.127-1.03-.286-1.25-.438-.22-.156-.344-.368-.344-.656 0-.19.082-.354.219-.5.137-.151.31-.27.5-.344.215-.088.427-.127.656-.156.234-.034.484-.062.719-.063.664 0 1.303.105 1.938.344.64.234 1.186.555 1.625.906h.281v-2.531c-.513-.21-1.109-.395-1.813-.531-.698-.142-1.407-.187-2.125-.188zm-26.5.188l3.781 5.406-3.844 5.5h3.094l2.406-3.594 2.344 3.594h3.25l-3.875-5.594 3.813-5.313h-3.125l-2.313 3.406-2.281-3.406h-3.25zm12.594 0v10.906h7.875v-2.125h-5.063v-8.781h-2.813z"
  transform="translate(15)" />
</svg>