<svg xmlns="http://www.w3.org/2000/svg" version="1.1" data-icon="file-doc" width="128" height="128" data-container-transform="translate(15 0 ) scale(1 1 )" viewBox="0 0 128 128">
  <path d="M1 0c-.55 0-1 .45-1 1v126c0 .55.45 1 1 1h96c.275 0 .537-.1.719-.281.181-.181.281-.444.281-.719v-29h-61c-.55 0-1-.45-1-1v-28c0-.55.45-1 1-1h61v-42h-25c-.55 0-1-.45-1-1v-25h-71zm73 0v23c0 .55.45 1 1 1h23l-24-24zm-9.188 78.875c-1.753 0-3.129.511-4.125 1.531-.996 1.016-1.469 2.403-1.469 4.156 0 1.738.473 3.1 1.469 4.125.996 1.021 2.372 1.531 4.125 1.531 1.758 0 3.16-.511 4.156-1.531.996-1.025 1.469-2.387 1.469-4.125 0-1.753-.499-3.141-1.5-4.156-1.001-1.02-2.377-1.531-4.125-1.531zm12.719 0c-.83 0-1.609.143-2.313.406-.698.264-1.276.642-1.75 1.125-.493.503-.866 1.109-1.125 1.813-.259.703-.406 1.479-.406 2.344 0 .928.138 1.729.406 2.438.273.708.663 1.308 1.156 1.781.493.474 1.098.823 1.781 1.063.688.239 1.439.375 2.25.375.547 0 .969-.04 1.281-.094.312-.054.644-.116 1-.219.273-.078.532-.174.781-.281.249-.107.508-.222.781-.344v-2.625h-.281c-.132.117-.326.276-.531.438-.205.161-.417.296-.656.438-.283.176-.601.335-.938.438-.332.103-.658.156-1 .156-.356 0-.728-.075-1.094-.188-.366-.117-.702-.294-1-.563-.293-.264-.523-.635-.719-1.094-.19-.459-.281-1.035-.281-1.719 0-.654.074-1.197.25-1.656.181-.459.431-.847.719-1.125.303-.288.612-.472.969-.594.356-.127.761-.219 1.156-.219.356 0 .687.08 1 .188.312.107.606.219.875.375.264.156.482.339.688.5.21.161.395.289.531.406h.313v-2.656c-.2-.098-.419-.2-.688-.313-.264-.117-.579-.22-.906-.313-.313-.083-.66-.139-1.031-.188-.366-.054-.76-.094-1.219-.094zm-30.125.219v10.906h3.844c.869 0 1.615-.061 2.25-.188s1.218-.365 1.75-.688c.708-.43 1.286-1.043 1.75-1.844.464-.806.687-1.703.688-2.719 0-1.055-.222-1.974-.656-2.75-.43-.781-.998-1.416-1.75-1.875-.439-.273-.98-.479-1.625-.625-.645-.151-1.424-.219-2.313-.219h-3.938zm17.438 1.844c.352 0 .678.056 1 .188.327.132.626.332.875.625.244.283.442.666.594 1.125.151.459.219 1.002.219 1.656 0 .61-.087 1.14-.219 1.594-.132.449-.32.855-.594 1.188-.244.293-.517.515-.844.656-.327.137-.67.188-1.031.188-.361 0-.704-.051-1.031-.188-.327-.137-.631-.368-.875-.656-.244-.288-.442-.64-.594-1.094-.146-.459-.219-1.007-.219-1.656 0-.635.067-1.209.219-1.688.156-.483.381-.852.625-1.125.264-.293.531-.498.844-.625.317-.127.675-.187 1.031-.188zm-14.625.188h.688c.605 0 1.077.04 1.375.094.303.049.587.14.875.281.566.288.991.675 1.25 1.188.264.508.375 1.126.375 1.844 0 .723-.105 1.351-.344 1.844-.239.488-.612.863-1.125 1.156-.298.161-.625.28-.938.344-.313.059-.8.094-1.469.094h-.688v-6.844z"
  transform="translate(15)" />
</svg>