<svg xmlns="http://www.w3.org/2000/svg" version="1.1" width="128" height="128" data-icon="firefly" data-container-transform="translate(1)" viewBox="0 0 128 128">
  <path d="M39.813 0a1.001 1.001 0 0 0 .188 2c4.99 0 8.54 1.914 11.219 4.844 2.679 2.93 4.436 6.93 5.563 10.969.73 2.617 1.18 5.211 1.469 7.563-2.545 1.59-4.25 4.403-4.25 7.625 0 .621.014 2.313.031 4.813l-.031-.125s-19.971-8.98-38.344-16.219c-13.21-5.205-15.579-.974-15.656 3.438-.504 29.104 32.25 29.111 54.281 29.094.017.646.043 1.339.063 2h-1.563c-7.232 0-16.333-.003-25-1.406-6.869 2.909-11.781 6.662-11.781 11.469 0 12.816 18.028 13.689 38.688-.156.938 21.719 3.147 46.094 8.313 46.094 5.165 0 7.375-24.374 8.313-46.094 20.658 13.843 38.688 12.971 38.688.156 0-4.805-4.917-8.56-11.781-11.469-8.664 1.398-17.739 1.406-24.969 1.406h-1.594c.019-.661.046-1.354.063-2 22.142.017 54.785.013 54.281-29.094-.077-4.411-2.446-8.642-15.656-3.438-18.373 7.239-38.344 17.031-38.344 17.031l-.031.313c.024-2.94.031-5.127.031-5.813 0-3.222-1.705-6.035-4.25-7.625.293-2.351.738-4.947 1.469-7.563 1.128-4.039 2.883-8.039 5.563-10.969 2.68-2.93 6.229-4.844 11.219-4.844a1 1 0 1 0 0-2c-5.515 0-9.697 2.23-12.688 5.5-2.991 3.27-4.851 7.522-6.031 11.75-.697 2.497-1.132 4.948-1.438 7.219-.893-.296-1.852-.469-2.844-.469-.992 0-1.951.172-2.844.469-.302-2.271-.741-4.722-1.438-7.219-1.18-4.228-3.041-8.48-6.031-11.75-2.99-3.27-7.173-5.5-12.688-5.5a1 1 0 0 0-.094 0 1.001 1.001 0 0 0-.094 0zm5 108a1.001 1.001 0 0 0 .188 2h6a1 1 0 1 0 0-2h-6a1 1 0 0 0-.094 0 1.001 1.001 0 0 0-.094 0zm30 0a1.001 1.001 0 0 0 .188 2h6a1 1 0 1 0 0-2h-6a1 1 0 0 0-.094 0 1.001 1.001 0 0 0-.094 0zm-3.906 7.969a1 1 0 0 0-.125.031 1 1 0 0 0-.5 1.719l4 4a1.016 1.016 0 1 0 1.438-1.438l-4-4a1 1 0 0 0-.813-.313zm-16.031.031a1 1 0 0 0-.594.281l-4 4a1.016 1.016 0 1 0 1.438 1.438l4-4a1 1 0 0 0-.844-1.719zm8.031 3.969a1 1 0 0 0-.125.031 1 1 0 0 0-.781 1v6a1 1 0 1 0 2 0v-6a1 1 0 0 0-1.094-1.031z"
  transform="translate(1)" />
</svg>