<svg xmlns="http://www.w3.org/2000/svg" version="1.1" width="16" height="16" data-icon="firefly" viewBox="0 0 16 16">
  <path d="M3.344 0a.502.502 0 0 0 .156 1c.504 0 .859.193 1.188.5.328.307.614.728.813 1.188.397.918.5 1.875.5 1.875a.504.504 0 0 0 0 .063c0 .06 0 .277 0 .375 0 0-1.872-1.093-4.094-1.969-1.598-.63-1.897-.127-1.906.406-.055 3.131 3.713 3.534 6.063 3.563.014.328.04.649.063 1-1.183-.01-2.594-.091-3.875-.5-.732.34-1.25.775-1.25 1.313 0 1.648 2.465 1.616 5.156-.406.165 2.243.512 4.594 1.344 4.594.88 0 1.224-2.329 1.375-4.563 2.678 1.996 5.125 2.017 5.125.375 0-.537-.518-.973-1.25-1.313-1.27.405-2.667.489-3.844.5.02-.351.051-.672.063-1 2.351-.031 6.086-.444 6.031-3.563-.009-.533-.308-1.036-1.906-.406-2.222.876-4.094 1.969-4.094 1.969 0-.114 0-.376 0-.438 0 0 .103-.957.5-1.875.198-.459.484-.88.813-1.188.328-.307.683-.5 1.188-.5a.5.5 0 1 0 0-1c-.767 0-1.402.307-1.875.75-.473.443-.797 1.022-1.031 1.563-.138.319-.228.619-.313.906-.227-.138-.497-.219-.781-.219-.285 0-.554.081-.781.219-.084-.287-.174-.587-.313-.906-.234-.541-.559-1.12-1.031-1.563-.473-.443-1.108-.75-1.875-.75a.5.5 0 0 0-.094 0 .502.502 0 0 0-.063 0zm1.156 12c-.276 0-.5.224-.5.5s.224.5.5.5.5-.224.5-.5-.224-.5-.5-.5zm6 0c-.276 0-.5.224-.5.5s.224.5.5.5.5-.224.5-.5-.224-.5-.5-.5zm-5 2c-.276 0-.5.224-.5.5s.224.5.5.5.5-.224.5-.5-.224-.5-.5-.5zm4 0c-.276 0-.5.224-.5.5s.224.5.5.5.5-.224.5-.5-.224-.5-.5-.5zm-2 1c-.276 0-.5.224-.5.5s.224.5.5.5.5-.224.5-.5-.224-.5-.5-.5z"
  />
</svg>