<svg xmlns="http://www.w3.org/2000/svg" version="1.1" width="32" height="32" data-icon="firefly" viewBox="0 0 32 32">
  <path d="M8.063 0a.502.502 0 0 0 .156 1c1.182 0 2.089.449 2.844 1.156.755.707 1.352 1.695 1.781 2.688.322.746.552 1.453.719 2.094-.343.428-.563.971-.563 1.563 0 .125-.002.939 0 1.313 0 0-4.501-2.253-9.094-4.063-3.302-1.301-3.887-.258-3.906.844-.124 7.168 5.518 7.4 13.094 7.406.01.339.018.646.031 1-2.617-.001-5.035-.036-7.125-.375-1.734.729-3 1.697-3 2.906 0 3.314 4.835 3.404 10.219-.438.271 5.245.881 10.906 2.281 10.906 1.401 0 2.01-5.661 2.281-10.906 5.386 3.846 10.219 3.753 10.219.438 0-1.24-1.322-2.201-3.125-2.938-2.159.387-4.583.404-7 .406.013-.354.021-.661.031-1 6.695-.008 13.217-.269 13.094-7.406-.019-1.102-.604-2.145-3.906-.844-4.593 1.809-9.094 4.25-9.094 4.25.003-.462 0-1.357 0-1.5 0-.592-.219-1.134-.563-1.563.167-.64.396-1.348.719-2.094.429-.992 1.026-1.98 1.781-2.688.755-.707 1.662-1.156 2.844-1.156a.5.5 0 1 0 0-1c-1.444 0-2.632.595-3.531 1.438-.9.843-1.536 1.926-2 3-.279.646-.456 1.258-.625 1.844-.34-.173-.717-.281-1.125-.281-.408 0-.785.108-1.125.281-.169-.585-.346-1.198-.625-1.844-.464-1.074-1.1-2.157-2-3-.9-.843-2.087-1.438-3.531-1.438a.5.5 0 0 0-.094 0 .502.502 0 0 0-.063 0zm2.281 26a.502.502 0 0 0 .156 1h1a.5.5 0 1 0 0-1h-1a.5.5 0 0 0-.094 0 .502.502 0 0 0-.063 0zm9 0a.502.502 0 0 0 .156 1h1a.5.5 0 1 0 0-1h-1a.5.5 0 0 0-.094 0 .502.502 0 0 0-.063 0zm-7 3a.5.5 0 0 0-.188.156l-1 1a.5.5 0 1 0 .688.688l1-1a.5.5 0 0 0-.438-.844.5.5 0 0 0-.063 0zm6 0a.5.5 0 0 0-.188.844l1 1a.5.5 0 1 0 .688-.688l-1-1a.5.5 0 0 0-.438-.156.5.5 0 0 0-.063 0zm-3 1a.5.5 0 0 0-.344.5v1a.5.5 0 1 0 1 0v-1a.5.5 0 0 0-.594-.5.5.5 0 0 0-.063 0z"
  />
</svg>