<svg xmlns="http://www.w3.org/2000/svg" version="1.1" width="128" height="128" data-icon="flag" data-container-transform="translate(15)" viewBox="0 0 128 128">
  <path d="M4 0c-2.209 0-4 1.791-4 4v2h8v-2c0-2.209-1.791-4-4-4zm-4 8v120h8v-120h-8zm10 0v52h32v-47c0-.03.029-.064.031-.094-.002-.03-.031-.063-.031-.094 0-.324.176-.601.344-.813l1.313-2c.208-.287.344-.489.344-.813 0-.324-.132-.633-.344-.844-.212-.212-.489-.344-.813-.344h-32.844zm34 6v51c0 .552.448 1 1 1h53l-14-26.125 14-25.875h-54z"
  transform="translate(15)" />
</svg>