<svg xmlns="http://www.w3.org/2000/svg" version="1.1" data-icon="flow-two-up" width="32" height="32" data-container-transform="scale(1 1 ) translate(0 )" viewBox="0 0 32 32">
  <path d="M.5 0c-.276 0-.5.224-.5.5v6c0 .276.224.5.5.5h13c.276 0 .5-.224.5-.5v-6c0-.276-.224-.5-.5-.5h-13zm18 0c-.276 0-.5.224-.5.5v18c0 .276.224.5.5.5h13c.276 0 .5-.224.5-.5v-18c0-.276-.224-.5-.5-.5h-13zm-18 11c-.276 0-.5.224-.5.5v20c0 .276.224.5.5.5h13c.276 0 .5-.224.5-.5v-20c0-.276-.224-.5-.5-.5h-13zm18 12c-.276 0-.5.224-.5.5v8c0 .276.224.5.5.5h13c.276 0 .5-.224.5-.5v-8c0-.276-.224-.5-.5-.5h-13z"
  />
</svg>