<svg xmlns="http://www.w3.org/2000/svg" version="1.1" data-icon="flow-four-up" width="32" height="32" data-container-transform="scale(1 1 ) translate(0 )" viewBox="0 0 32 32">
  <path d="M.5 0c-.276 0-.5.224-.5.5v11c0 .276.224.5.5.5h4c.276 0 .5-.224.5-.5v-11c0-.276-.224-.5-.5-.5h-4zm9 0c-.276 0-.5.224-.5.5v4c0 .276.224.5.5.5h4c.276 0 .5-.224.5-.5v-4c0-.276-.224-.5-.5-.5h-4zm9 0c-.276 0-.5.224-.5.5v16c0 .276.224.5.5.5h4c.276 0 .5-.224.5-.5v-16c0-.276-.224-.5-.5-.5h-4zm9 0c-.276 0-.5.224-.5.5v6c0 .276.224.5.5.5h4c.276 0 .5-.224.5-.5v-6c0-.276-.224-.5-.5-.5h-4zm-18 9c-.276 0-.5.224-.5.5v4c0 .276.224.5.5.5h4c.276 0 .5-.224.5-.5v-4c0-.276-.224-.5-.5-.5h-4zm18 2c-.276 0-.5.224-.5.5v11c0 .276.224.5.5.5h4c.276 0 .5-.224.5-.5v-11c0-.276-.224-.5-.5-.5h-4zm-27 5c-.276 0-.5.224-.5.5v4c0 .276.224.5.5.5h4c.276 0 .5-.224.5-.5v-4c0-.276-.224-.5-.5-.5h-4zm9 2c-.276 0-.5.224-.5.5v13c0 .276.224.5.5.5h4c.276 0 .5-.224.5-.5v-13c0-.276-.224-.5-.5-.5h-4zm9 3c-.276 0-.5.224-.5.5v10c0 .276.224.5.5.5h4c.276 0 .5-.224.5-.5v-10c0-.276-.224-.5-.5-.5h-4zm-18 4c-.276 0-.5.224-.5.5v6c0 .276.224.5.5.5h4c.276 0 .5-.224.5-.5v-6c0-.276-.224-.5-.5-.5h-4zm27 2c-.276 0-.5.224-.5.5v4c0 .276.224.5.5.5h4c.276 0 .5-.224.5-.5v-4c0-.276-.224-.5-.5-.5h-4z"
  />
</svg>