<svg xmlns="http://www.w3.org/2000/svg" version="1.1" data-icon="flow-three-up" width="32" height="32" data-container-transform="scale(1 1 ) translate(0 )" viewBox="0 0 32 32">
  <path d="M.5 0c-.276 0-.5.224-.5.5v16c0 .276.224.5.5.5h7c.276 0 .5-.224.5-.5v-16c0-.276-.224-.5-.5-.5h-7zm12 0c-.276 0-.5.224-.5.5v4c0 .276.224.5.5.5h7c.276 0 .5-.224.5-.5v-4c0-.276-.224-.5-.5-.5h-7zm12 0c-.276 0-.5.224-.5.5v7c0 .276.224.5.5.5h7c.276 0 .5-.224.5-.5v-7c0-.276-.224-.5-.5-.5h-7zm-12 9c-.276 0-.5.224-.5.5v13c0 .276.224.5.5.5h7c.276 0 .5-.224.5-.5v-13c0-.276-.224-.5-.5-.5h-7zm12 3c-.276 0-.5.224-.5.5v19c0 .276.224.5.5.5h7c.276 0 .5-.224.5-.5v-19c0-.276-.224-.5-.5-.5h-7zm-24 9c-.276 0-.5.224-.5.5v10c0 .276.224.5.5.5h7c.276 0 .5-.224.5-.5v-10c0-.276-.224-.5-.5-.5h-7zm12 6c-.276 0-.5.224-.5.5v4c0 .276.224.5.5.5h7c.276 0 .5-.224.5-.5v-4c0-.276-.224-.5-.5-.5h-7z"
  />
</svg>