<svg xmlns="http://www.w3.org/2000/svg" version="1.1" width="128" height="128" data-icon="fork" data-container-transform="translate(33)" viewBox="0 0 128 128">
  <path d="M12 0c-6.627 0-12 5.373-12 12s5.373 12 12 12 12-5.373 12-12-5.373-12-12-12zm-4 25.406v77.18799999999999c1.265-.379 2.612-.594 4-.594 1.392 0 2.73.214 4 .594v-4.594c0-2.389 2.736-6.48 4.938-7.406l23.25-9.813c5.909-2.487 9.813-8.37 9.813-14.781v-12.594c-1.265.379-2.612.594-4 .594-1.392 0-2.73-.214-4-.594v12.594c0 2.389-2.736 6.48-4.938 7.406l-23.25 9.813c-.626.263-1.234.57-1.813.906v-58.719c-1.27.38-2.608.594-4 .594-1.388 0-2.735-.215-4-.594zm42 2.594c-6.627 0-12 5.373-12 12s5.373 12 12 12 12-5.373 12-12-5.373-12-12-12zm-38 76c-6.627 0-12 5.373-12 12s5.373 12 12 12 12-5.373 12-12-5.373-12-12-12z"
  transform="translate(33)" />
</svg>