<svg xmlns="http://www.w3.org/2000/svg" version="1.1" width="16" height="16" data-icon="fork" data-container-transform="translate(3)" viewBox="0 0 16 16">
  <path d="M2 0c-1.105 0-2 .895-2 2s.895 2 2 2 2-.895 2-2-.895-2-2-2zm6 2c-1.105 0-2 .895-2 2s.895 2 2 2 2-.895 2-2-.895-2-2-2zm-7 2.813v6.375c.312-.113.649-.188 1-.188.453 0 .865.132 1.25.313.218-.325.545-.601.875-.656l2.063-.344c1.616-.27 2.813-1.674 2.813-3.313v-.188c-.312.113-.649.188-1 .188-.355 0-.684-.074-1-.188v.188c0 .562-.571 1.251-1.125 1.344l-2.063.344c-.284.047-.559.138-.813.25v-4.125c-.316.114-.645.188-1 .188-.351 0-.688-.074-1-.188zm1 7.188c-1.105 0-2 .895-2 2s.895 2 2 2 2-.895 2-2-.895-2-2-2z"
  transform="translate(3)" />
</svg>