<svg xmlns="http://www.w3.org/2000/svg" version="1.1" width="128" height="128" data-icon="game-controller" data-container-transform="translate(0 20)" viewBox="0 0 128 128">
  <path d="M17.781 0c-2.2 0-4.904 1.561-6 3.469 0 0-11.781 20.531-11.781 44.531 0 8.75.281 40 15.781 40 16.5 0 16.25-28 16.25-28-.003-.328.022-.633.094-.938-2.531-2.2-4.125-5.444-4.125-9.063 0-6.627 5.373-12 12-12s12 5.373 12 12c0 2.188-.601 4.234-1.625 6h27.25c-1.023-1.767-1.625-3.812-1.625-6 0-6.627 5.373-12 12-12s12 5.373 12 12c0 3.644-1.623 6.893-4.188 9.094.061.289.101.597.094.906 0 0-.625 28 15.875 28 15.5 0 16.219-31.25 16.219-40 0-24-12.188-44.563-12.188-44.563-1.121-1.893-3.831-3.437-6.031-3.438h-92zm8.219 8h8v4l-4 4-4-4v-4zm72 0c2.209 0 4 1.791 4 4s-1.791 4-4 4-4-1.791-4-4 1.791-4 4-4zm-80 8h4l4 4-4 4h-4v-8zm20 0h4v8h-4l-4-4 4-4zm52 0c2.209 0 4 1.791 4 4s-1.791 4-4 4-4-1.791-4-4 1.791-4 4-4zm16 0c2.209 0 4 1.791 4 4s-1.791 4-4 4-4-1.791-4-4 1.791-4 4-4zm-76 8l4 4v4h-8v-4l4-4zm68 0c2.209 0 4 1.791 4 4s-1.791 4-4 4-4-1.791-4-4 1.791-4 4-4zm-58 18c-4.418 0-8 3.582-8 8s3.582 8 8 8 8-3.582 8-8-3.582-8-8-8zm48 0c-4.418 0-8 3.582-8 8s3.582 8 8 8 8-3.582 8-8-3.582-8-8-8z"
  transform="translate(0 20)" />
</svg>