<svg xmlns="http://www.w3.org/2000/svg" version="1.1" width="32" height="32" data-icon="game-controller" data-container-transform="translate(0 5)" viewBox="0 0 32 32">
  <path d="M4 0c-.55 0-1.192.415-1.438.906 0 0-2.563 5.094-2.563 11.094 0 2.188 0 10 3.875 10 3.245 0 3.947-4.308 4.094-6.156-.879-.636-1.469-1.675-1.469-2.844 0-1.933 1.567-3.5 3.5-3.5s3.5 1.567 3.5 3.5c0 .35-.06.681-.156 1h5.313c-.096-.319-.156-.65-.156-1 0-1.933 1.567-3.5 3.5-3.5s3.5 1.567 3.5 3.5c0 1.168-.59 2.209-1.469 2.844.148 1.848.849 6.156 4.094 6.156 3.875 0 3.875-7.813 3.875-10 0-6-2.563-11.094-2.563-11.094-.246-.492-.887-.906-1.438-.906h-24zm2 2h2v1l-1 1-1-1v-1zm19 0c.552 0 1 .448 1 1s-.448 1-1 1-1-.448-1-1 .448-1 1-1zm-21 2h1l1 1-1 1h-1v-2zm5 0h1v2h-1l-1-.969 1-1.031zm14 0c.552 0 1 .448 1 1s-.448 1-1 1-1-.448-1-1 .448-1 1-1zm4 0c.552 0 1 .448 1 1s-.448 1-1 1-1-.448-1-1 .448-1 1-1zm-20 2l1 1v1h-2v-1l1-1zm18 0c.552 0 1 .448 1 1s-.448 1-1 1-1-.448-1-1 .448-1 1-1zm-15 5c-1.105 0-2 .895-2 2s.895 2 2 2 2-.895 2-2-.895-2-2-2zm12 0c-1.105 0-2 .895-2 2s.895 2 2 2 2-.895 2-2-.895-2-2-2z"
  transform="translate(0 5)" />
</svg>