<svg xmlns="http://www.w3.org/2000/svg" version="1.1" width="32" height="32" data-icon="globe" viewBox="0 0 32 32">
  <path d="M16 0c-8.825 0-16 7.175-16 16s7.175 16 16 16 16-7.175 16-16-7.175-16-16-16zm-.031 2c.01 0 .021 0 .031 0 1.682 0 3.289.302 4.781.844h-.563c-.258 0-.258.216 0 .469s.488.683.5.938c.012.254.223.461.469.469.246.008.438.337.438.75v.375c0 .412-.211.566-.469.313-.258-.253-.672-.703-.938-.969-.266-.266-.707-.469-.969-.469s-.481.211-.469.469c.012.258.027.679.031.938.004.258.22.465.469.469.249.004.656.023.906.031s.469.227.469.469c0 .242.199.636.469.906.27.27.27.719 0 .969s-.692.438-.938.438-.442.207-.438.469c.004.262.215.711.469.969s.704.225 1-.063l.813-.781c.296-.287.535-.73.531-1-.004-.27.207-.5.469-.5s.76.152 1.125.344l.5.281c.365.193.68.532.688.781.008.249.23.258.5 0s.18-.627-.188-.813l-.563-.281c-.368-.187-.445-.325-.188-.313.258.012.672.216.938.469.266.253.692.254.938 0s.465-.258.469 0c.004.258.208.474.469.469.246-.005.618.221.875.469.081.168.175.328.25.5-.005.172-.084.342-.219.469-.27.254-.683.445-.938.438-.254-.008-.683.211-.938.469-.255.258-.683.469-.938.469-.255 0-.469-.211-.469-.469s-.319-.383-.719-.281l-2.25.563c-.4.102-.962.406-1.219.656-.257.25-.68.648-.938.906-.258.258-.661.707-.906.969s-.449.656-.469.906c-.02.25-.274.675-.531.938-.257.262-.235.68.031.938.266.258.476.806.469 1.219v.344c-.006.412.211 1.017.5 1.313l1.781 1.813c.289.295.747.305 1 .031s.652-.504.906-.5c.254.004.675-.183.938-.438.262-.254.784-.334 1.156-.156l.531.281c.372.179.695.519.688.781-.008.262-.034.807-.031 1.219v.406c.003.412-.155 1.07-.344 1.438l-.25.5c-.095.183-.19.431-.25.688-.003.011.002.02 0 .031-2.488 2.272-5.796 3.656-9.438 3.656-2.16 0-4.206-.505-6.031-1.375.267-.234.663-.43.906-.438.258-.008.445-.238.438-.5-.008-.262.211-.683.469-.938.258-.254.45-.675.438-.938-.012-.262-.219-.683-.469-.938-.25-.254-.675-.45-.938-.438-.262.012-.754-.171-1.094-.406l-1.531-1.063c-.339-.235-.602-.626-.594-.875.008-.249-.218-.68-.5-.938-.282-.258-.724-.68-.969-.938-.245-.257-.656-.675-.906-.938-.25-.262-.672-.713-.969-1l-.844-.813c-.296-.287-.743-.527-1-.531-.152-.002-.289-.129-.375-.313-.009-.208-.031-.415-.031-.625 0-.158.026-.312.031-.469.12-.156.321-.209.563-.094l.563.281c.372.178.879.325 1.125.313.246-.012.198-.271-.094-.563l-1.75-1.75c-.073-.073-.124-.149-.188-.25-.005-.008.005-.023 0-.031.141-.76.336-1.507.594-2.219v.313c-.009.412.226.516.5.25s.473-.68.469-.938c-.004-.258.215-.469.469-.469s.469-.211.469-.469.237-.711.531-1l.813-.813c.294-.289.723-.321.969-.063s.695.469.969.469.473-.203.469-.469c-.004-.266-.23-.688-.5-.938s-.131-.469.281-.469h.406c.412 0 .876-.288 1.063-.656l.281-.531c.187-.368.129-.894-.125-1.156-.254-.262-.687-.239-.969.031-.282.27-.719.454-.969.438-.11-.007-.155-.044-.156-.125.667-.481 1.376-.891 2.125-1.25.259.248.634.441.875.438.25-.004.703-.208.969-.469.227-.223.39-.559.438-.813.238-.067.476-.133.719-.188-.015.089-.039.177-.094.281l-.25.531c-.191.365-.375.864-.375 1.125s.23.492.5.5c.27.008.688-.226.938-.5s.758-.623 1.125-.813l.531-.281c.367-.189.652-.55.656-.813.002-.105.002-.242 0-.375z"
  />
</svg>