<svg xmlns="http://www.w3.org/2000/svg" version="1.1" data-icon="grid-four-up" width="32" height="32" data-container-transform="scale(1 1 ) translate(0 )" viewBox="0 0 32 32">
  <path d="M.5 0c-.3 0-.5.2-.5.5v4c0 .3.2.5.5.5h4c.3 0 .5-.2.5-.5v-4c0-.3-.2-.5-.5-.5h-4zm9 0c-.3 0-.5.2-.5.5v4c0 .3.2.5.5.5h4c.3 0 .5-.2.5-.5v-4c0-.3-.2-.5-.5-.5h-4zm9 0c-.3 0-.5.2-.5.5v4c0 .3.2.5.5.5h4c.3 0 .5-.2.5-.5v-4c0-.3-.2-.5-.5-.5h-4zm9 0c-.3 0-.5.2-.5.5v4c0 .3.2.5.5.5h4c.3 0 .5-.2.5-.5v-4c0-.3-.2-.5-.5-.5h-4zm-27 9c-.3 0-.5.2-.5.5v4c0 .3.2.5.5.5h4c.3 0 .5-.2.5-.5v-4c0-.3-.2-.5-.5-.5h-4zm9 0c-.3 0-.5.2-.5.5v4c0 .3.2.5.5.5h4c.3 0 .5-.2.5-.5v-4c0-.3-.2-.5-.5-.5h-4zm9 0c-.3 0-.5.2-.5.5v4c0 .3.2.5.5.5h4c.3 0 .5-.2.5-.5v-4c0-.3-.2-.5-.5-.5h-4zm9 0c-.3 0-.5.2-.5.5v4c0 .3.2.5.5.5h4c.3 0 .5-.2.5-.5v-4c0-.3-.2-.5-.5-.5h-4zm-27 9c-.3 0-.5.2-.5.5v4c0 .3.2.5.5.5h4c.3 0 .5-.2.5-.5v-4c0-.3-.2-.5-.5-.5h-4zm9 0c-.3 0-.5.2-.5.5v4c0 .3.2.5.5.5h4c.3 0 .5-.2.5-.5v-4c0-.3-.2-.5-.5-.5h-4zm9 0c-.3 0-.5.2-.5.5v4c0 .3.2.5.5.5h4c.3 0 .5-.2.5-.5v-4c0-.3-.2-.5-.5-.5h-4zm9 0c-.3 0-.5.2-.5.5v4c0 .3.2.5.5.5h4c.3 0 .5-.2.5-.5v-4c0-.3-.2-.5-.5-.5h-4zm-27 9c-.3 0-.5.2-.5.5v4c0 .3.2.5.5.5h4c.3 0 .5-.2.5-.5v-4c0-.3-.2-.5-.5-.5h-4zm9 0c-.3 0-.5.2-.5.5v4c0 .3.2.5.5.5h4c.3 0 .5-.2.5-.5v-4c0-.3-.2-.5-.5-.5h-4zm9 0c-.3 0-.5.2-.5.5v4c0 .3.2.5.5.5h4c.3 0 .5-.2.5-.5v-4c0-.3-.2-.5-.5-.5h-4zm9 0c-.3 0-.5.2-.5.5v4c0 .3.2.5.5.5h4c.3 0 .5-.2.5-.5v-4c0-.3-.2-.5-.5-.5h-4z"
  />
</svg>