<svg xmlns="http://www.w3.org/2000/svg" version="1.1" data-icon="grid-two-up" width="32" height="32" data-container-transform="scale(1 1 ) translate(0 )" viewBox="0 0 32 32">
  <path d="M.5 0c-.3 0-.5.2-.5.5v13c0 .3.2.5.5.5h13c.3 0 .5-.2.5-.5v-13c0-.3-.2-.5-.5-.5h-13zm18 0c-.3 0-.5.2-.5.5v13c0 .3.2.5.5.5h13c.3 0 .5-.2.5-.5v-13c0-.3-.2-.5-.5-.5h-13zm-18 18c-.3 0-.5.2-.5.5v13c0 .3.2.5.5.5h13c.3 0 .5-.2.5-.5v-13c0-.3-.2-.5-.5-.5h-13zm18 0c-.3 0-.5.2-.5.5v13c0 .3.2.5.5.5h13c.3 0 .5-.2.5-.5v-13c0-.3-.2-.5-.5-.5h-13z"
  />
</svg>