<svg xmlns="http://www.w3.org/2000/svg" version="1.1" data-icon="grid-three-up" width="32" height="32" data-container-transform="scale(1 1 ) translate(0 )" viewBox="0 0 32 32">
  <path d="M.5 0c-.3 0-.5.2-.5.5v7c0 .3.2.5.5.5h7c.3 0 .5-.2.5-.5v-7c0-.3-.2-.5-.5-.5h-7zm12 0c-.3 0-.5.2-.5.5v7c0 .3.2.5.5.5h7c.3 0 .5-.2.5-.5v-7c0-.3-.2-.5-.5-.5h-7zm12 0c-.3 0-.5.2-.5.5v7c0 .3.2.5.5.5h7c.3 0 .5-.2.5-.5v-7c0-.3-.2-.5-.5-.5h-7zm-24 12c-.3 0-.5.2-.5.5v7c0 .3.2.5.5.5h7c.3 0 .5-.2.5-.5v-7c0-.3-.2-.5-.5-.5h-7zm12 0c-.3 0-.5.2-.5.5v7c0 .3.2.5.5.5h7c.3 0 .5-.2.5-.5v-7c0-.3-.2-.5-.5-.5h-7zm12 0c-.3 0-.5.2-.5.5v7c0 .3.2.5.5.5h7c.3 0 .5-.2.5-.5v-7c0-.3-.2-.5-.5-.5h-7zm-24 12c-.3 0-.5.2-.5.5v7c0 .3.2.5.5.5h7c.3 0 .5-.2.5-.5v-7c0-.3-.2-.5-.5-.5h-7zm12 0c-.3 0-.5.2-.5.5v7c0 .3.2.5.5.5h7c.3 0 .5-.2.5-.5v-7c0-.3-.2-.5-.5-.5h-7zm12 0c-.3 0-.5.2-.5.5v7c0 .3.2.5.5.5h7c.3 0 .5-.2.5-.5v-7c0-.3-.2-.5-.5-.5h-7z"
  />
</svg>