<svg xmlns="http://www.w3.org/2000/svg" version="1.1" width="16" height="16" data-icon="hammer" viewBox="0 0 16 16">
  <path d="M8 0c2.96 1.002 2.991 2.957 2.031 3.969l-2.531 2.531-.313.313c-.098.098-.3.188-.438.188h-.5c-.138 0-.34.09-.438.188l-5.625 5.625c-.098.098-.14.291-.063.406l1.75 2.563c.077.115.188.123.25 0l.781-1.563c.062-.123.183-.309.281-.406l4.625-4.625c.098-.098.19-.3.188-.438v-.469c-.002-.138.058-.34.156-.438l.344-.344 2.5-2.5c1-1 .999-1.001 2 0l.5.5.5.5 2-2s-1-1-2-2c-2-2-3-2-6-2z"
  />
</svg>