<svg xmlns="http://www.w3.org/2000/svg" version="1.1" width="128" height="128" data-icon="hammer" viewBox="0 0 128 128">
  <path d="M68 0c28 12.125 19.938 24.063 16 28l-18 18 8 8 18-18c5.875-5.875 7.875-6.125 12-2 4.083 4.083 0 6 4 10l3 3 .656.656c.195.195.493.195.688 0l15.313-15.313c.195-.194.195-.494 0-.688l-1.313-1.313-2.344-2.344c-4-4-6 0-10-4s-2-8-6-12c-12-12-16-12-40-12zm-4 48c-.045.04-.082.082-.125.125l-1.75 1.75c-1.172 1.172-3.398 2.538-4.969 3.063l-6.313 2.125c-1.572.524-3.798 1.891-4.969 3.063l-43.75 43.75c-1.172 1.172-1.522 3.331-.781 4.813l9.313 18.625c.741 1.482 2.079 1.566 3 .188l4.75-7.063c.921-1.377 2.61-3.454 3.781-4.625l39.688-39.688c1.172-1.172 2.549-3.394 3.063-4.969l2-6.188c.514-1.575 1.891-3.798 3.063-4.969l1.875-1.875c.043-.043.085-.08.125-.125l-8-8z"
  />
</svg>