<svg xmlns="http://www.w3.org/2000/svg" version="1.1" width="16" height="16" data-icon="hand" viewBox="0 0 16 16">
  <path d="M7 0c-.552 0-1 .448-1 1v5.5c0 .276-.224.5-.5.5s-.5-.224-.5-.5v-4.5c0-.552-.448-1-1-1s-1 .448-1 1v5.5c0 .276-.224.5-.5.5s-.5-.224-.5-.5v-4.5c0-.552-.448-1-1-1s-1 .448-1 1v7.5c0 3.037 2.462 5.5 5.5 5.5 1.343 0 2.576-.481 3.531-1.281 0 0 4.307-3.704 5.688-5 .403-.378.391-1.047 0-1.438s-1.047-.391-1.438 0c0 0-1.049.871-1.281 1.063-.396.325-1 .109-1-.344v-7c0-.552-.448-1-1-1s-1 .448-1 1v4.5c0 .276-.224.5-.5.5s-.5-.224-.5-.5v-5.5c0-.552-.448-1-1-1z"
  />
</svg>