<svg xmlns="http://www.w3.org/2000/svg" version="1.1" width="32" height="32" data-icon="hard-drive" data-container-transform="translate(4)" viewBox="0 0 32 32">
  <path d="M1 0c-.552 0-1 .448-1 1v22c0 .551.449 1 1 1h22c.551 0 1-.449 1-1v-22c0-.552-.448-1-1-1h-22zm11 4c4.418 0 8 3.582 8 8s-3.582 8-8 8c-1.452 0-2.795-.387-3.969-1.063-.845 1.165-1.551 2.114-1.781 2.344-.472.472-1.113.719-1.781.719-.668 0-1.309-.247-1.781-.719s-.719-1.113-.719-1.781c0-.668.247-1.309.719-1.781.231-.231 1.202-.908 2.375-1.75-.667-1.168-1.063-2.528-1.063-3.969 0-4.418 3.582-8 8-8zm0 5c-1.651 0-3 1.349-3 3 0 .325.075.611.156.875l.938-.281c-.063-.206-.094-.4-.094-.594 0-1.111.889-2 2-2s2 .889 2 2-.889 2-2 2c-.196 0-.39-.03-.594-.094l-.313.938c.268.084.58.156.906.156 1.651 0 3-1.349 3-3s-1.349-3-3-3zm-1 4s-7.008 4.852-7.594 5.438c-.586.585-.586 1.539 0 2.125.585.586 1.539.586 2.125 0 .586-.586 5.469-7.563 5.469-7.563zm-11 12.813v5.188c0 .552.448 1 1 1h22c.552 0 1-.448 1-1v-5.188c-.314.112-.648.188-1 .188h-22c-.352 0-.686-.076-1-.188zm3 1.188h1v4h-1v-4zm2 0h1v4h-1v-4zm2 0h1v4h-1v-4zm2 0h1v4h-1v-4zm11 1c.552 0 1 .448 1 1s-.448 1-1 1-1-.448-1-1 .448-1 1-1z"
  transform="translate(4)" />
</svg>