<svg xmlns="http://www.w3.org/2000/svg" version="1.1" width="16" height="16" data-icon="hard-drive" data-container-transform="translate(1)" viewBox="0 0 16 16">
  <path d="M.5 0c-.276 0-.5.224-.5.5v10c0 .276.224.5.5.5h12c.276 0 .5-.224.5-.5v-10c0-.276-.224-.5-.5-.5h-12zm6 2c1.933 0 3.5 1.567 3.5 3.5s-1.567 3.5-3.5 3.5c-.251 0-.483-.044-.719-.094-.126.212-.266.391-.375.5-.378.378-.872.594-1.406.594-.534 0-1.028-.216-1.406-.594-.378-.378-.594-.872-.594-1.406 0-.534.216-1.028.594-1.406.109-.109.288-.25.5-.375-.05-.236-.094-.469-.094-.719 0-1.933 1.567-3.5 3.5-3.5zm0 3c-.276 0-.5.224-.5.5s.224.5.5.5.5-.224.5-.5-.224-.5-.5-.5zm-.5 1s-2.328.891-2.719 1.281c-.391.39-.39 1.046 0 1.438.39.391 1.046.391 1.438 0 .391-.39 1.281-2.719 1.281-2.719zm-6 5.906v3.594c0 .276.224.5.5.5h12c.276 0 .5-.224.5-.5v-3.594c-.157.056-.324.094-.5.094h-12c-.176 0-.343-.038-.5-.094zm2 1.094h1v2h-1v-2zm2 0h1v2h-1v-2zm6 0c.552 0 1 .448 1 1s-.448 1-1 1-1-.448-1-1 .448-1 1-1z"
  transform="translate(1)" />
</svg>