<svg xmlns="http://www.w3.org/2000/svg" version="1.1" width="32" height="32" data-icon="headphones" data-container-transform="translate(1)" viewBox="0 0 32 32">
  <path d="M14.5 0c-7.991 0-14.5 6.509-14.5 14.5a1.5 1.5 0 0 0 1 1.438v.563c0 1.168.222 2.728.531 3.656.258.773.469 1.93.469 2.344v1.063c-1.194.692-2 1.958-2 3.438 0 1.863 1.276 3.399 3 3.844v.656c0 .276.224.5.5.5h2c.276 0 .5-.224.5-.5v-9c0-.276-.224-.5-.5-.5h-2c-.276 0-.5.224-.5.5 0-.686-.239-1.78-.531-2.656-.241-.722-.469-2.312-.469-3.344v-.563a1.5 1.5 0 0 0 1-1.438c0-6.369 5.131-11.5 11.5-11.5s11.5 5.131 11.5 11.5a1.5 1.5 0 0 0 1 1.438v.563c0 1.032-.228 2.622-.469 3.344-.292.877-.531 1.97-.531 2.656 0-.276-.224-.5-.5-.5h-2c-.276 0-.5.224-.5.5v9c0 .276.224.5.5.5h2c.276 0 .5-.224.5-.5v-.656c1.724-.445 3-1.981 3-3.844 0-1.479-.806-2.745-2-3.438v-1.063c0-.408.215-1.54.469-2.313v-.031c.309-.928.531-2.488.531-3.656v-.563a1.5 1.5 0 0 0 1-1.438c0-7.991-6.509-14.5-14.5-14.5z"
  transform="translate(1)" />
</svg>