<svg xmlns="http://www.w3.org/2000/svg" version="1.1" width="16" height="16" data-icon="headphones" data-container-transform="translate(1)" viewBox="0 0 16 16">
  <path d="M7 0c-3.854 0-7 3.146-7 7a1 1 0 0 0 1 1v4.094c-.586.204-1 .751-1 1.406 0 .828.672 1.5 1.5 1.5h.5v.75c0 .138.112.25.25.25h1.5c.138 0 .25-.112.25-.25v-4.5c0-.138-.112-.25-.25-.25h-1.5c-.138 0-.25.112-.25.25v-4.094a1 1 0 0 0 0-.156c0-2.774 2.226-5 5-5s5 2.226 5 5a1 1 0 0 0 0 .094v4.156c0-.138-.112-.25-.25-.25h-1.5c-.138 0-.25.112-.25.25v4.5c0 .138.112.25.25.25h1.5c.138 0 .25-.112.25-.25v-.75h.5c.828 0 1.5-.672 1.5-1.5 0-.655-.414-1.202-1-1.406v-4.094a1 1 0 0 0 1-1c0-3.854-3.146-7-7-7z"
  transform="translate(1)" />
</svg>