<svg xmlns="http://www.w3.org/2000/svg" version="1.1" width="16" height="16" data-icon="heart" data-container-transform="translate(0 1)" viewBox="0 0 16 16">
  <path d="M4 0c-1.104 0-2.09.433-2.813 1.156-.724.724-1.187 1.739-1.188 2.844 0 1.105.464 2.088 1.188 2.813l6.813 6.844 6.844-6.844c.724-.724 1.156-1.708 1.156-2.813 0-1.105-.432-2.12-1.156-2.844h-.031c-.724-.724-1.709-1.156-2.813-1.156s-2.089.433-2.813 1.156c-.724.724-1.072 1.567-1.188 1.844-.12-.277-.463-1.12-1.188-1.844-.724-.724-1.708-1.156-2.813-1.156z"
  transform="translate(0 1)" />
</svg>