<svg xmlns="http://www.w3.org/2000/svg" version="1.1" width="32" height="32" data-icon="history" data-container-transform="translate(0 2)" viewBox="0 0 32 32">
  <path d="M17 0c-3.857 0-7.374 1.562-9.906 4.094-2.532 2.532-4.094 6.049-4.094 9.906h-2.5c-.276 0-.354.185-.188.406l3.875 5.188c.166.221.459.221.625 0l3.875-5.188c.166-.221.088-.406-.188-.406h-2.5c0-3.047 1.227-5.789 3.219-7.781 1.992-1.992 4.735-3.219 7.781-3.219 3.047 0 5.789 1.227 7.781 3.219 1.992 1.992 3.219 4.735 3.219 7.781 0 3.047-1.227 5.789-3.219 7.781-1.992 1.992-4.735 3.219-7.781 3.219-3.047 0-5.789-1.227-7.781-3.219l-2.125 2.125c2.532 2.532 6.049 4.094 9.906 4.094s7.374-1.562 9.906-4.094c2.532-2.532 4.094-6.049 4.094-9.906s-1.562-7.374-4.094-9.906c-2.532-2.532-6.049-4.094-9.906-4.094zm-1 6v8.5l.406.313 4 3 .781.594 1.219-1.594-.813-.625-3.594-2.688v-7.5h-2z"
  transform="translate(0 2)" />
</svg>