<svg xmlns="http://www.w3.org/2000/svg" version="1.1" width="16" height="16" data-icon="history" data-container-transform="translate(0 1)" viewBox="0 0 16 16">
  <path d="M9 0c-1.927 0-3.672.798-4.938 2.063-1.267 1.265-2.063 3.011-2.063 4.938h-2l3 3 3-3h-2c0-1.387.563-2.627 1.469-3.531.906-.906 2.145-1.469 3.531-1.469 1.387 0 2.627.563 3.531 1.469.906.906 1.469 2.145 1.469 3.531 0 1.387-.563 2.627-1.469 3.531-.906.906-2.145 1.469-3.531 1.469-1.387 0-2.625-.563-3.531-1.469l-1.406 1.406c1.266 1.266 3.011 2.063 4.938 2.063 1.927 0 3.672-.798 4.938-2.063 1.267-1.265 2.063-3.011 2.063-4.938 0-1.927-.798-3.672-2.063-4.938-1.265-1.267-3.011-2.063-4.938-2.063zm-1 4v3.406l.281.313 1.5 1.469.719.719 1.406-1.406-.719-.719-1.188-1.219v-2.5629999999999997h-2z"
  transform="translate(0 1)" />
</svg>