<svg xmlns="http://www.w3.org/2000/svg" version="1.1" width="32" height="32" data-icon="home" viewBox="0 0 32 32">
  <path d="M16 .188c-.132 0-.274.062-.375.156l-15.25 14.313c-.202.189-.151.344.125.344h2c.276 0 .672-.157.875-.344l12.25-11.313c.203-.187.547-.187.75 0l12.25 11.313c.203.187.599.344.875.344h2c.276 0 .326-.155.125-.344l-15.25-14.313c-.101-.095-.243-.156-.375-.156zm0 5c-.134 0-.273.063-.375.156l-5.125 4.656-5.125 4.656c-.204.186-.375.568-.375.844v13.5h9v-6h4v6h9v-13.5c0-.276-.171-.659-.375-.844l-5.125-4.656-5.125-4.656c-.102-.093-.241-.156-.375-.156z"
  />
</svg>