<svg xmlns="http://www.w3.org/2000/svg" version="1.1" width="16" height="16" data-icon="infinity" data-container-transform="translate(0 4)" viewBox="0 0 16 16">
  <path d="M3.219 0c-4.31 0-4.31 8 0 8 1.078 0 2.001-.506 2.875-1.125.639-.452 1.239-1.014 1.844-1.563.612.555 1.225 1.105 1.875 1.563.88.619 1.823 1.125 2.906 1.125 4.333 0 4.333-8 0-8-1.083 0-2.026.506-2.906 1.125-.65.457-1.263 1.008-1.875 1.563-.605-.548-1.204-1.11-1.844-1.563-.874-.619-1.797-1.125-2.875-1.125zm0 2c.401 0 1.003.244 1.719.75.448.317.974.809 1.469 1.25-.495.441-1.021.933-1.469 1.25-.715.506-1.317.75-1.719.75-1.606 0-1.606-4 0-4zm9.5 0c1.667 0 1.667 4 0 4-.417 0-1.03-.244-1.75-.75-.451-.317-.973-.809-1.469-1.25.496-.441 1.018-.933 1.469-1.25.72-.506 1.333-.75 1.75-.75z"
  transform="translate(0 4)" />
</svg>