<svg xmlns="http://www.w3.org/2000/svg" version="1.1" width="128" height="128" data-icon="inkwell" viewBox="0 0 128 128">
  <path d="M128 0c-18.866 8.82-88.647 71.114-101.75 94h8.438c2.028-3.628 6.211-9.081 11.656-15.5l28.969-7.313c.451-.114.881-.294 1.281-.531 4.373-2.591 9.513-7.489 14.75-14.656h-7.344l12.875-8c3.403-5.159 6.751-10.644 9.875-16l-2.75.125 7.313-8.125c7.408-13.255 16.688-24 16.688-24zm-7.563 2.125c-12.716 5.98-48.879 23.652-68.438 40.344l-8 11.531v-6c-3.008 2.38-5.273 4.687-7.063 6.844-.598.721-.938 1.626-.938 2.563v20.375c21.923-25.162 64.275-62.37 84.438-75.656zm-105.625 93.875a1.001 1.001 0 0 0 .188 2h1v2.5c0 .825-.504 1.956-1.125 2.5l-13.75 12c-.621.543-1.125 1.675-1.125 2.5v10.5h60v-10.5c0-.825-.504-1.957-1.125-2.5l-13.75-12c-.621-.543-1.125-1.675-1.125-2.5v-2.5h1a1 1 0 1 0 0-2h-30a1 1 0 0 0-.094 0 1.001 1.001 0 0 0-.094 0zm5.188 6h2v2.094c0 .24-.093.474-.25.656l-11.5 13.344c-.157.182-.25.416-.25.656v3.25h-4v-4.031c0-.265.093-.531.281-.719l13.438-13.406c.188-.188.281-.454.281-.719v-1.125z"
  />
</svg>