<svg xmlns="http://www.w3.org/2000/svg" version="1.1" width="32" height="32" data-icon="inkwell" viewBox="0 0 32 32">
  <path d="M30 0s-12 5.129-18 9.625l-2 3.375v-2c-.888.703-1.522 1.38-2 2v6.875l.063-.063c5.216-6.499 16.73-16.447 21.938-19.813zm2 0c-4.596 2.149-21.431 16.798-24.969 23h-3.531a.5.5 0 0 0-.094 0 .502.502 0 1 0 .094 1h.5v.656c0 .181-.105.422-.25.531l-3.5 2.625c-.145.109-.25.35-.25.531v3.656h17v-3.656c0-.181-.105-.422-.25-.531l-3.5-2.625c-.145-.109-.25-.349-.25-.531v-.656h.594a.5.5 0 1 0 0-1h-3.531c.368-.735 1.064-1.751 2.031-3l6.906-2c1.125-.622 2.474-2.126 3.844-4h-2.844l4.219-2c.851-1.29 1.688-2.661 2.469-4l-1.688.031 2.844-2.031c1.852-3.314 4.156-6 4.156-6z"
  />
</svg>