<svg xmlns="http://www.w3.org/2000/svg" version="1.1" width="128" height="128" data-icon="iphone" data-container-transform="translate(33)" viewBox="0 0 128 128">
  <path d="M9 0c-4.962 0-9 4.038-9 9v110c0 4.962 4.038 9 9 9h44c4.962 0 9-4.038 9-9v-110c0-4.962-4.038-9-9-9h-44zm22 4.094c.506 0 .906.399.906.906 0 .506-.399.906-.906.906s-.906-.399-.906-.906c0-.506.399-.906.906-.906zm-4 5.906h8c.552 0 1 .448 1 1s-.448 1-1 1h-8c-.552 0-1-.448-1-1s.448-1 1-1zm-4.094.156c.506 0 .938.431.938.938 0 .507-.43.906-.938.906-.506 0-.906-.399-.906-.906s.399-.938.906-.938zm-18.906 5.844h54v94h-54v-94zm27 98c2.76 0 5 2.24 5 5s-2.24 5-5 5-5-2.24-5-5 2.24-5 5-5z"
  transform="translate(33)" />
</svg>