<svg xmlns="http://www.w3.org/2000/svg" version="1.1" width="16" height="16" data-icon="keyboard" data-container-transform="translate(0 3)" viewBox="0 0 16 16">
  <path d="M.25 0c-.138 0-.25.112-.25.25v8.5c0 .138.112.25.25.25h14.5c.138 0 .25-.112.25-.25v-8.5c0-.138-.112-.25-.25-.25h-14.5zm1.75 2h1v1h-1v-1zm2 0h1v1h-1v-1zm2 0h1v1h-1v-1zm2 0h1v1h-1v-1zm2 0h1v1h-1v-1zm2 0h1v1h-1v-1zm-10 2h2v1h-2v-1zm3 0h1v1h-1v-1zm2 0h1v1h-1v-1zm2 0h1v1h-1v-1zm2 0h2v1h-2v-1zm-9 2h1v1h-1v-1zm2 0h7v1h-7v-1zm8 0h1v1h-1v-1z"
  transform="translate(0 3)" />
</svg>