<svg xmlns="http://www.w3.org/2000/svg" version="1.1" width="128" height="128" data-icon="keyboard" data-container-transform="translate(1 39)" viewBox="0 0 128 128">
  <path d="M1.5 0c-.828 0-1.5.672-1.5 1.5v47c0 .828.672 1.5 1.5 1.5h123c.828 0 1.5-.672 1.5-1.5v-47c0-.828-.672-1.5-1.5-1.5h-123zm5 6h5c.275 0 .5.225.5.5v5c0 .275-.225.5-.5.5h-5c-.275 0-.5-.225-.5-.5v-5c0-.275.225-.5.5-.5zm8 0h5c.275 0 .5.225.5.5v5c0 .275-.225.5-.5.5h-5c-.275 0-.5-.225-.5-.5v-5c0-.275.225-.5.5-.5zm8 0h5c.275 0 .5.225.5.5v5c0 .275-.225.5-.5.5h-5c-.275 0-.5-.225-.5-.5v-5c0-.275.225-.5.5-.5zm8 0h5c.275 0 .5.225.5.5v5c0 .275-.225.5-.5.5h-5c-.275 0-.5-.225-.5-.5v-5c0-.275.225-.5.5-.5zm8 0h5c.275 0 .5.225.5.5v5c0 .275-.225.5-.5.5h-5c-.275 0-.5-.225-.5-.5v-5c0-.275.225-.5.5-.5zm8 0h5c.275 0 .5.225.5.5v5c0 .275-.225.5-.5.5h-5c-.275 0-.5-.225-.5-.5v-5c0-.275.225-.5.5-.5zm8 0h5c.275 0 .5.225.5.5v5c0 .275-.225.5-.5.5h-5c-.275 0-.5-.225-.5-.5v-5c0-.275.225-.5.5-.5zm8 0h5c.275 0 .5.225.5.5v5c0 .275-.225.5-.5.5h-5c-.275 0-.5-.225-.5-.5v-5c0-.275.225-.5.5-.5zm8 0h5c.275 0 .5.225.5.5v5c0 .275-.225.5-.5.5h-5c-.275 0-.5-.225-.5-.5v-5c0-.275.225-.5.5-.5zm8 0h5c.275 0 .5.225.5.5v5c0 .275-.225.5-.5.5h-5c-.275 0-.5-.225-.5-.5v-5c0-.275.225-.5.5-.5zm8 0h5c.275 0 .5.225.5.5v5c0 .275-.225.5-.5.5h-5c-.275 0-.5-.225-.5-.5v-5c0-.275.225-.5.5-.5zm8 0h5c.275 0 .5.225.5.5v5c0 .275-.225.5-.5.5h-5c-.275 0-.5-.225-.5-.5v-5c0-.275.225-.5.5-.5zm8 0h5c.275 0 .5.225.5.5v5c0 .275-.225.5-.5.5h-5c-.275 0-.5-.225-.5-.5v-5c0-.275.225-.5.5-.5zm8 0h9c.275 0 .5.225.5.5v5c0 .275-.225.5-.5.5h-9c-.275 0-.5-.225-.5-.5v-5c0-.275.225-.5.5-.5zm-104 8h9c.275 0 .5.225.5.5v5c0 .275-.225.5-.5.5h-9c-.275 0-.5-.225-.5-.5v-5c0-.275.225-.5.5-.5zm12 0h5c.275 0 .5.225.5.5v5c0 .275-.225.5-.5.5h-5c-.275 0-.5-.225-.5-.5v-5c0-.275.225-.5.5-.5zm8 0h5c.275 0 .5.225.5.5v5c0 .275-.225.5-.5.5h-5c-.275 0-.5-.225-.5-.5v-5c0-.275.225-.5.5-.5zm8 0h5c.275 0 .5.225.5.5v5c0 .275-.225.5-.5.5h-5c-.275 0-.5-.225-.5-.5v-5c0-.275.225-.5.5-.5zm8 0h5c.275 0 .5.225.5.5v5c0 .275-.225.5-.5.5h-5c-.275 0-.5-.225-.5-.5v-5c0-.275.225-.5.5-.5zm8 0h5c.275 0 .5.225.5.5v5c0 .275-.225.5-.5.5h-5c-.275 0-.5-.225-.5-.5v-5c0-.275.225-.5.5-.5zm8 0h5c.275 0 .5.225.5.5v5c0 .275-.225.5-.5.5h-5c-.275 0-.5-.225-.5-.5v-5c0-.275.225-.5.5-.5zm8 0h5c.275 0 .5.225.5.5v5c0 .275-.225.5-.5.5h-5c-.275 0-.5-.225-.5-.5v-5c0-.275.225-.5.5-.5zm8 0h5c.275 0 .5.225.5.5v5c0 .275-.225.5-.5.5h-5c-.275 0-.5-.225-.5-.5v-5c0-.275.225-.5.5-.5zm8 0h5c.275 0 .5.225.5.5v5c0 .275-.225.5-.5.5h-5c-.275 0-.5-.225-.5-.5v-5c0-.275.225-.5.5-.5zm8 0h5c.275 0 .5.225.5.5v5c0 .275-.225.5-.5.5h-5c-.275 0-.5-.225-.5-.5v-5c0-.275.225-.5.5-.5zm8 0h5c.275 0 .5.225.5.5v5c0 .275-.225.5-.5.5h-5c-.275 0-.5-.225-.5-.5v-5c0-.275.225-.5.5-.5zm8 0h5c.275 0 .5.225.5.5v5c0 .275-.225.5-.5.5h-5c-.275 0-.5-.225-.5-.5v-5c0-.275.225-.5.5-.5zm8 0h5c.275 0 .5.225.5.5v5c0 .275-.225.5-.5.5h-5c-.275 0-.5-.225-.5-.5v-5c0-.275.225-.5.5-.5zm-108 8h11c.275 0 .5.225.5.5v5c0 .275-.225.5-.5.5h-11c-.275 0-.5-.225-.5-.5v-5c0-.275.225-.5.5-.5zm14 0h5c.275 0 .5.225.5.5v5c0 .275-.225.5-.5.5h-5c-.275 0-.5-.225-.5-.5v-5c0-.275.225-.5.5-.5zm8 0h5c.275 0 .5.225.5.5v5c0 .275-.225.5-.5.5h-5c-.275 0-.5-.225-.5-.5v-5c0-.275.225-.5.5-.5zm8 0h5c.275 0 .5.225.5.5v5c0 .275-.225.5-.5.5h-5c-.275 0-.5-.225-.5-.5v-5c0-.275.225-.5.5-.5zm8 0h5c.275 0 .5.225.5.5v5c0 .275-.225.5-.5.5h-5c-.275 0-.5-.225-.5-.5v-5c0-.275.225-.5.5-.5zm8 0h5c.275 0 .5.225.5.5v5c0 .275-.225.5-.5.5h-5c-.275 0-.5-.225-.5-.5v-5c0-.275.225-.5.5-.5zm8 0h5c.275 0 .5.225.5.5v5c0 .275-.225.5-.5.5h-5c-.275 0-.5-.225-.5-.5v-5c0-.275.225-.5.5-.5zm8 0h5c.275 0 .5.225.5.5v5c0 .275-.225.5-.5.5h-5c-.275 0-.5-.225-.5-.5v-5c0-.275.225-.5.5-.5zm8 0h5c.275 0 .5.225.5.5v5c0 .275-.225.5-.5.5h-5c-.275 0-.5-.225-.5-.5v-5c0-.275.225-.5.5-.5zm8 0h5c.275 0 .5.225.5.5v5c0 .275-.225.5-.5.5h-5c-.275 0-.5-.225-.5-.5v-5c0-.275.225-.5.5-.5zm8 0h5c.275 0 .5.225.5.5v5c0 .275-.225.5-.5.5h-5c-.275 0-.5-.225-.5-.5v-5c0-.275.225-.5.5-.5zm8 0h5c.275 0 .5.225.5.5v5c0 .275-.225.5-.5.5h-5c-.275 0-.5-.225-.5-.5v-5c0-.275.225-.5.5-.5zm8 0h11c.275 0 .5.225.5.5v5c0 .275-.225.5-.5.5h-11c-.275 0-.5-.225-.5-.5v-5c0-.275.225-.5.5-.5zm-102 8h15c.275 0 .5.225.5.5v5c0 .275-.225.5-.5.5h-15c-.275 0-.5-.225-.5-.5v-5c0-.275.225-.5.5-.5zm18 0h5c.275 0 .5.225.5.5v5c0 .275-.225.5-.5.5h-5c-.275 0-.5-.225-.5-.5v-5c0-.275.225-.5.5-.5zm8 0h5c.275 0 .5.225.5.5v5c0 .275-.225.5-.5.5h-5c-.275 0-.5-.225-.5-.5v-5c0-.275.225-.5.5-.5zm8 0h5c.275 0 .5.225.5.5v5c0 .275-.225.5-.5.5h-5c-.275 0-.5-.225-.5-.5v-5c0-.275.225-.5.5-.5zm8 0h5c.275 0 .5.225.5.5v5c0 .275-.225.5-.5.5h-5c-.275 0-.5-.225-.5-.5v-5c0-.275.225-.5.5-.5zm8 0h5c.275 0 .5.225.5.5v5c0 .275-.225.5-.5.5h-5c-.275 0-.5-.225-.5-.5v-5c0-.275.225-.5.5-.5zm8 0h5c.275 0 .5.225.5.5v5c0 .275-.225.5-.5.5h-5c-.275 0-.5-.225-.5-.5v-5c0-.275.225-.5.5-.5zm8 0h5c.275 0 .5.225.5.5v5c0 .275-.225.5-.5.5h-5c-.275 0-.5-.225-.5-.5v-5c0-.275.225-.5.5-.5zm8 0h5c.275 0 .5.225.5.5v5c0 .275-.225.5-.5.5h-5c-.275 0-.5-.225-.5-.5v-5c0-.275.225-.5.5-.5zm8 0h5c.275 0 .5.225.5.5v5c0 .275-.225.5-.5.5h-5c-.275 0-.5-.225-.5-.5v-5c0-.275.225-.5.5-.5zm8 0h5c.275 0 .5.225.5.5v5c0 .275-.225.5-.5.5h-5c-.275 0-.5-.225-.5-.5v-5c0-.275.225-.5.5-.5zm8 0h15c.275 0 .5.225.5.5v5c0 .275-.225.5-.5.5h-15c-.275 0-.5-.225-.5-.5v-5c0-.275.225-.5.5-.5zm-98 8h5c.275 0 .5.225.5.5v5c0 .275-.225.5-.5.5h-5c-.275 0-.5-.225-.5-.5v-5c0-.275.225-.5.5-.5zm8 0h5c.275 0 .5.225.5.5v5c0 .275-.225.5-.5.5h-5c-.275 0-.5-.225-.5-.5v-5c0-.275.225-.5.5-.5zm8 0h5c.275 0 .5.225.5.5v5c0 .275-.225.5-.5.5h-5c-.275 0-.5-.225-.5-.5v-5c0-.275.225-.5.5-.5zm8 0h5c.275 0 .5.225.5.5v5c0 .275-.225.5-.5.5h-5c-.275 0-.5-.225-.5-.5v-5c0-.275.225-.5.5-.5zm8 0h41c.275 0 .5.225.5.5v5c0 .275-.225.5-.5.5h-41c-.275 0-.5-.225-.5-.5v-5c0-.275.225-.5.5-.5zm44 0h5c.275 0 .5.225.5.5v5c0 .275-.225.5-.5.5h-5c-.275 0-.5-.225-.5-.5v-5c0-.275.225-.5.5-.5zm8 0h5c.275 0 .5.225.5.5v5c0 .275-.225.5-.5.5h-5c-.275 0-.5-.225-.5-.5v-5c0-.275.225-.5.5-.5zm15.75 0h5.5c.138 0 .25.113.25.25v1.5c0 .138-.113.25-.25.25h-5.5c-.138 0-.25-.113-.25-.25v-1.5c0-.138.113-.25.25-.25zm-8 4h5.5c.138 0 .25.113.25.25v1.5c0 .138-.113.25-.25.25h-5.5c-.138 0-.25-.112-.25-.25v-1.5c0-.138.113-.25.25-.25zm8 0h5.5c.138 0 .25.113.25.25v1.5c0 .138-.113.25-.25.25h-5.5c-.138 0-.25-.113-.25-.25v-1.5c0-.138.113-.25.25-.25zm8 0h5.5c.138 0 .25.113.25.25v1.5c0 .138-.113.25-.25.25h-5.5c-.138 0-.25-.113-.25-.25v-1.5c0-.138.113-.25.25-.25z"
  transform="translate(1 39)" />
</svg>