<svg xmlns="http://www.w3.org/2000/svg" version="1.1" width="32" height="32" data-icon="keypad-mobile" data-container-transform="translate(5 1)" viewBox="0 0 32 32">
  <path d="M.5 0c-.276 0-.5.224-.5.5v5c0 .276.224.5.5.5h5c.276 0 .5-.224.5-.5v-5c0-.276-.224-.5-.5-.5h-5zm8 0c-.276 0-.5.224-.5.5v5c0 .276.224.5.5.5h5c.276 0 .5-.224.5-.5v-5c0-.276-.224-.5-.5-.5h-5zm8 0c-.276 0-.5.224-.5.5v5c0 .276.224.5.5.5h5c.276 0 .5-.224.5-.5v-5c0-.276-.224-.5-.5-.5h-5zm-16 8c-.276 0-.5.224-.5.5v5c0 .276.224.5.5.5h5c.276 0 .5-.224.5-.5v-5c0-.276-.224-.5-.5-.5h-5zm8 0c-.276 0-.5.224-.5.5v5c0 .276.224.5.5.5h5c.276 0 .5-.224.5-.5v-5c0-.276-.224-.5-.5-.5h-5zm8 0c-.276 0-.5.224-.5.5v5c0 .276.224.5.5.5h5c.276 0 .5-.224.5-.5v-5c0-.276-.224-.5-.5-.5h-5zm-16 8c-.276 0-.5.224-.5.5v5c0 .276.224.5.5.5h5c.276 0 .5-.224.5-.5v-5c0-.276-.224-.5-.5-.5h-5zm8 0c-.276 0-.5.224-.5.5v5c0 .276.224.5.5.5h5c.276 0 .5-.224.5-.5v-5c0-.276-.224-.5-.5-.5h-5zm8 0c-.276 0-.5.224-.5.5v5c0 .276.224.5.5.5h5c.276 0 .5-.224.5-.5v-5c0-.276-.224-.5-.5-.5h-5zm-8 8c-.276 0-.5.224-.5.5v5c0 .276.224.5.5.5h5c.276 0 .5-.224.5-.5v-5c0-.276-.224-.5-.5-.5h-5z"
  transform="translate(5 1)" />
</svg>