<svg xmlns="http://www.w3.org/2000/svg" version="1.1" width="128" height="128" data-icon="lightbulb" data-container-transform="translate(32)" viewBox="0 0 128 128">
  <path d="M29.75.094a4 4 0 0 0-1.406.375l-26 11.906a4 4 0 1 0 3.313 7.25l26-11.875a4 4 0 0 0-1.906-7.656zm29.969 1.875a4 4 0 0 0-1.406.406l-56 26a4 4 0 1 0 3.375 7.25l56-26a4 4 0 0 0-1.563-7.656 4 4 0 0 0-.406 0zm0 16a4 4 0 0 0-1.406.406l-56 26a4 4 0 1 0 3.375 7.25l56-26a4 4 0 0 0-1.563-7.656 4 4 0 0 0-.406 0zm0 16a4 4 0 0 0-1.406.406l-56 26a4 4 0 1 0 3.375 7.25l56-26a4 4 0 0 0-1.563-7.656 4 4 0 0 0-.406 0zm.063 16a4 4 0 0 0-1.438.375l-20 9a4 4 0 0 0-2.344 3.656v18.75a4 4 0 0 0 0 .25h-8a4 4 0 0 0 0-.25v-13.75a4 4 0 0 0-4.063-4.063 4 4 0 0 0-3.938 4.063v13.75a4 4 0 0 0 0 .25h-5c-1.657 0-2.772 1.335-2.5 2.969l1 6.063c.272 1.634 1.843 2.969 3.5 2.969h12.125l-13.5 2.531a2.004 2.004 0 1 0 .75 3.938l32-6a2.006 2.006 0 0 0 1.031-.469h-2.406c1.657 0 3.228-1.335 3.5-2.969l1-6.063c.272-1.634-.843-2.969-2.5-2.969h-5a4 4 0 0 0 0-.25v-16.156l17.656-7.938a4 4 0 0 0 2.344-2.75v-1.844a4 4 0 0 0-3.813-3.094 4 4 0 0 0-.406 0zm-11.688 50a2.006 2.006 0 0 0-.313.031 2 2 0 0 0-.156.031l-32 6a2.004 2.004 0 1 0 .75 3.938l32-6a2.006 2.006 0 0 0-.281-4zm0 10a2.006 2.006 0 0 0-.313.031 2 2 0 0 0-.156.031l-32 6a2.004 2.004 0 1 0 .75 3.938l32-6a2.006 2.006 0 0 0-.281-4zm-3.969 10a2.002 2.002 0 0 0-.313.031 2 2 0 0 0-.156.031l-23.813 4a2 2 0 1 0 .656 3.938l23.844-4a2.002 2.002 0 0 0-.219-4z"
  transform="translate(32)" />
</svg>