<svg xmlns="http://www.w3.org/2000/svg" version="1.1" width="32" height="32" data-icon="lightbulb-alt-on" data-container-transform="translate(5)" viewBox="0 0 32 32">
  <path d="M10.5 0c-6.667 0-10.5 6-10.5 10 0 7.166 4.822 7.974 5.813 12h9.375c.983-4.074 5.813-4.825 5.813-12 0-4-3.833-10-10.5-10zm0 3c.552 0 1 .448 1 1s-.448 1-1 1c-3.629 0-5.5 3.505-5.5 5 0 .552-.448 1-1 1s-1-.448-1-1c0-2.443 2.576-7 7.5-7zm-4.531 20c.013.179.031.339.031.531-.001.179 0 1.304 0 1.969 0 .276.224.5.5.5h8c.276 0 .5-.224.5-.5 0-.665.001-1.79 0-1.969-.001-.192.018-.352.031-.531h-9.063zm1.375 4a.502.502 0 0 0 .156 1h6a.5.5 0 1 0 0-1h-6a.5.5 0 0 0-.094 0 .502.502 0 0 0-.063 0zm0 2a.502.502 0 0 0 .156 1h6a.5.5 0 1 0 0-1h-6a.5.5 0 0 0-.094 0 .502.502 0 0 0-.063 0zm1 2a.502.502 0 0 0 .156 1h4a.5.5 0 1 0 0-1h-4a.5.5 0 0 0-.094 0 .502.502 0 0 0-.063 0z"
  transform="translate(5)" />
</svg>