<svg xmlns="http://www.w3.org/2000/svg" version="1.1" width="16" height="16" data-icon="lightbulb" data-container-transform="translate(3)" viewBox="0 0 16 16">
  <path d="M7.063-.063a1.003 1.003 0 0 0-.25.063 1 1 0 0 0-.25.094l-6 3a1.006 1.006 0 0 0 .875 1.813l6-3a1.003 1.003 0 0 0-.375-1.969zm2 3a1.003 1.003 0 0 0-.25.063 1 1 0 0 0-.25.094l-8 4a1.006 1.006 0 0 0 .875 1.813l8-4a1.003 1.003 0 0 0-.375-1.969zm-1 4a1.003 1.003 0 0 0-.25.063 1 1 0 0 0-.25.094l-2 1a1 1 0 0 0-.563.906v1.313a1 1 0 0 0-1.219-.813 1 1 0 0 0-.781 1v.5h-1.5c-.276 0-.404.191-.281.438l.563 1.125c.124.247.443.438.719.438h5c.276 0 .595-.191.719-.438l.563-1.125c.124-.247-.005-.438-.281-.438h-1.5v-1.375l1.438-.719a1.003 1.003 0 0 0-.375-1.969zm-5.063 7.063c0 1.105.895 2 2 2s2-.895 2-2h-4z"
  transform="translate(3)" />
</svg>