<svg xmlns="http://www.w3.org/2000/svg" version="1.1" data-icon="link-broken" width="128" height="128" data-container-transform="translate(0 ) scale(1 1 )" viewBox="0 0 128 128">
  <path d="M104.063.063c-6.155 0-12.332 2.332-17 7l-32.688 32.594 5.656 5.688 32.688-32.625c6.265-6.265 16.391-6.265 22.656 0 6.265 6.265 6.265 16.391 0 22.656l-32.688 32.594 5.625 5.656 32.719-32.594c9.335-9.335 9.335-24.634 0-33.969-4.668-4.668-10.813-7-16.969-7zm-55.156 27.906a1 1 0 0 0-.125.031 1 1 0 0 0-.781 1v14a1 1 0 1 0 2 0v-14a1 1 0 0 0-1.094-1.031zm-18 2a1 1 0 0 0-.125.031 1 1 0 0 0-.5 1.719l12 12a1.016 1.016 0 1 0 1.438-1.438l-12-12a1 1 0 0 0-.813-.313zm-2.094 18.031a1.001 1.001 0 0 0 .188 2h14a1 1 0 1 0 0-2h-14a1 1 0 0 0-.094 0 1.001 1.001 0 0 0-.094 0zm10.844 6.469l-32.563 32.594v.031c-9.427 9.327-9.336 24.539-.031 33.844 9.335 9.335 24.634 9.335 33.969 0l32.594-32.594-5.656-5.688-32.594 32.625c-6.265 6.265-16.391 6.265-22.656 0-6.289-6.289-6.355-16.256 0-22.531a4 4 0 0 0 0-.031l32.625-32.594-5.688-5.656zm45.156 23.531a1.001 1.001 0 0 0 .188 2h14a1 1 0 1 0 0-2h-14a1 1 0 0 0-.094 0 1.001 1.001 0 0 0-.094 0zm-5.906 5.969a1 1 0 0 0-.125.031 1 1 0 0 0-.781 1v14a1 1 0 1 0 2 0v-14a1 1 0 0 0-1.094-1.031zm6 0a1 1 0 0 0-.125.031 1 1 0 0 0-.5 1.719l12 12a1.016 1.016 0 1 0 1.438-1.438l-12-12a1 1 0 0 0-.813-.313z"
  />
</svg>