<svg xmlns="http://www.w3.org/2000/svg" version="1.1" data-icon="link-broken" width="32" height="32" data-container-transform="scale(1 1 ) translate(0 )" viewBox="0 0 32 32">
  <path d="M24.5-.031c-1.918.001-3.808.714-5.25 2.156l-6.906 6.906 2.125 2.125 6.906-6.906c1.716-1.716 4.546-1.721 6.375.031 1.779 1.704 1.737 4.499 0 6.344-.01.011-.021.02-.031.031l-6.969 6.969 2.125 2.125 7-7c2.832-2.955 2.98-7.74-.031-10.625-1.486-1.424-3.426-2.157-5.344-2.156zm-20.156 4.031a.5.5 0 0 0-.188.844l4 4a.5.5 0 1 0 .688-.688l-4-4a.5.5 0 0 0-.438-.156.5.5 0 0 0-.063 0zm6 0a.5.5 0 0 0-.344.5v4a.5.5 0 1 0 1 0v-4a.5.5 0 0 0-.594-.5.5.5 0 0 0-.063 0zm-6 6a.502.502 0 0 0 .156 1h4a.5.5 0 1 0 0-1h-4a.5.5 0 0 0-.094 0 .502.502 0 0 0-.063 0zm4.781 2.125l-7 7a1.5 1.5 0 0 0 0 .031c-2.832 2.955-2.98 7.74.031 10.625 2.971 2.847 7.71 2.853 10.594-.031l7-7-2.125-2.125-7 7c-1.716 1.716-4.546 1.753-6.375 0-1.789-1.715-1.737-4.53.031-6.375l6.969-7-2.125-2.125zm14.219 8.875a.502.502 0 0 0 .156 1h4a.5.5 0 1 0 0-1h-4a.5.5 0 0 0-.094 0 .502.502 0 0 0-.063 0zm-2 2a.5.5 0 0 0-.344.5v4a.5.5 0 1 0 1 0v-4a.5.5 0 0 0-.594-.5.5.5 0 0 0-.063 0zm2 0a.5.5 0 0 0-.188.844l4 4a.5.5 0 1 0 .688-.688l-4-4a.5.5 0 0 0-.438-.156.5.5 0 0 0-.063 0z"
  />
</svg>