<svg xmlns="http://www.w3.org/2000/svg" version="1.1" width="32" height="32" data-icon="list-nested" data-container-transform="translate(0 4)" viewBox="0 0 32 32">
  <path d="M.5 0c-.276 0-.5.224-.5.5v2c0 .276.224.5.5.5h2c.276 0 .5-.224.5-.5v-2c0-.276-.224-.5-.5-.5h-2zm5.5 0v3h26v-3h-26zm.5 7c-.276 0-.5.224-.5.5v2c0 .276.224.5.5.5h2c.276 0 .5-.224.5-.5v-2c0-.276-.224-.5-.5-.5h-2zm5.5 0v3h14v-3h-14zm.5 7c-.276 0-.5.224-.5.5v2c0 .276.224.5.5.5h2c.276 0 .5-.224.5-.5v-2c0-.276-.224-.5-.5-.5h-2zm5.5 0v3h13v-3h-13zm-11.5 7c-.276 0-.5.224-.5.5v2c0 .276.224.5.5.5h2c.276 0 .5-.224.5-.5v-2c0-.276-.224-.5-.5-.5h-2zm5.5 0v3h16v-3h-16z"
  transform="translate(0 4)" />
</svg>