<svg xmlns="http://www.w3.org/2000/svg" version="1.1" width="32" height="32" data-icon="list-rich" data-container-transform="translate(0 3)" viewBox="0 0 32 32">
  <path d="M.5 0c-.276 0-.5.224-.5.5v5c0 .276.224.5.5.5h8c.276 0 .5-.224.5-.5v-5c0-.276-.224-.5-.5-.5h-8zm11.5 1v1h20v-1h-20zm0 3v1h16v-1h-16zm-11.5 6c-.276 0-.5.224-.5.5v5c0 .276.224.5.5.5h8c.276 0 .5-.224.5-.5v-5c0-.276-.224-.5-.5-.5h-8zm11.5 1v1h20v-1h-20zm0 3v1h16v-1h-16zm-11.5 6c-.276 0-.5.224-.5.5v5c0 .276.224.5.5.5h8c.276 0 .5-.224.5-.5v-5c0-.276-.224-.5-.5-.5h-8zm11.5 1v1h20v-1h-20zm0 3v1h16v-1h-16z"
  transform="translate(0 3)" />
</svg>