<svg xmlns="http://www.w3.org/2000/svg" version="1.1" width="16" height="16" data-icon="magic-wand" viewBox="0 0 16 16">
  <path d="M7.344 0a.5.5 0 0 0-.188.844l2 2a.5.5 0 1 0 .688-.688l-2-2a.5.5 0 0 0-.438-.156.5.5 0 0 0-.063 0zm4 0a.5.5 0 0 0-.344.5v1a.5.5 0 1 0 1 0v-1a.5.5 0 0 0-.594-.5.5.5 0 0 0-.063 0zm4 0a.5.5 0 0 0-.188.156l-2 2a.5.5 0 1 0 .688.688l2-2a.5.5 0 0 0-.438-.844.5.5 0 0 0-.063 0zm-4.344 3l-2 2 2 2 2-2-2-2zm-4.656 1a.502.502 0 0 0 .156 1h1a.5.5 0 1 0 0-1h-1a.5.5 0 0 0-.094 0 .502.502 0 0 0-.063 0zm8 0a.502.502 0 0 0 .156 1h1a.5.5 0 1 0 0-1h-1a.5.5 0 0 0-.094 0 .502.502 0 0 0-.063 0zm-6.344 2l-8 8 2 2 8-8-2-2zm5.344 0a.5.5 0 0 0-.188.844l2 2a.5.5 0 1 0 .688-.688l-2-2a.5.5 0 0 0-.438-.156.5.5 0 0 0-.063 0zm-2 2a.5.5 0 0 0-.344.5v1a.5.5 0 1 0 1 0v-1a.5.5 0 0 0-.594-.5.5.5 0 0 0-.063 0z"
  />
</svg>