<svg xmlns="http://www.w3.org/2000/svg" version="1.1" width="32" height="32" data-icon="magic-wand" viewBox="0 0 32 32">
  <path d="M16.844 0a.5.5 0 0 0-.188.844l4 4a.5.5 0 1 0 .688-.688l-4-4a.5.5 0 0 0-.438-.156.5.5 0 0 0-.063 0zm7.5 0a.5.5 0 0 0-.344.5v2a.5.5 0 1 0 1 0v-2a.5.5 0 0 0-.594-.5.5.5 0 0 0-.063 0zm7 0a.5.5 0 0 0-.188.156l-4 4a.5.5 0 1 0 .688.688l4-4a.5.5 0 0 0-.438-.844.5.5 0 0 0-.063 0zm-7.344 5.219c-.128 0-.246.027-.344.125l-2.344 2.344c-.195.195-.198.527 0 .719l2.344 2.25c.198.193.492.195.688 0l2.313-2.313c.195-.195.195-.492 0-.688l-2.313-2.313c-.098-.098-.216-.125-.344-.125zm-7.656 1.781a.502.502 0 0 0 .156 1h2a.5.5 0 1 0 0-1h-2a.5.5 0 0 0-.094 0 .502.502 0 0 0-.063 0zm13 0a.502.502 0 0 0 .156 1h2a.5.5 0 1 0 0-1h-2a.5.5 0 0 0-.094 0 .502.502 0 0 0-.063 0zm-9.344 2.219c-.128 0-.246.027-.344.125l-19.313 19.313c-.195.195-.195.492 0 .688l2.313 2.313c.195.195.493.195.688 0l19.313-19.313c.195-.195.195-.492 0-.688l-2.313-2.313c-.098-.098-.216-.125-.344-.125zm7.344 1.781a.5.5 0 0 0-.188.844l4 4a.5.5 0 1 0 .688-.688l-4-4a.5.5 0 0 0-.438-.156.5.5 0 0 0-.063 0zm-3 2a.5.5 0 0 0-.344.5v2a.5.5 0 1 0 1 0v-2a.5.5 0 0 0-.594-.5.5.5 0 0 0-.063 0z"
  />
</svg>