<svg xmlns="http://www.w3.org/2000/svg" version="1.1" width="128" height="128" data-icon="marquee" data-container-transform="translate(2 23)" viewBox="0 0 128 128">
  <path d="M0 0v10h2v-8h8v-2h-10zm16 0v2h8v-2h-8zm14 0v2h8v-2h-8zm14 0v2h8v-2h-8zm14 0v2h8v-2h-8zm14 0v2h8v-2h-8zm14 0v2h8v-2h-8zm14 0v2h8v-2h-8zm14 0v2h8v8h2v-10h-10zm-114 16v8h2v-8h-2zm122 0v8h2v-8h-2zm-122 14v8h2v-8h-2zm122 0v8h2v-8h-2zm-122 14v8h2v-8h-2zm122 0v8h2v-8h-2zm-122 14v8h2v-8h-2zm122 0v8h2v-8h-2zm-122 14v10h10v-2h-8v-8h-2zm122 0v8h-8v2h10v-10h-2zm-106 8v2h8v-2h-8zm14 0v2h8v-2h-8zm14 0v2h8v-2h-8zm14 0v2h8v-2h-8zm14 0v2h8v-2h-8zm14 0v2h8v-2h-8zm14 0v2h8v-2h-8z"
  transform="translate(2 23)" />
</svg>