<svg xmlns="http://www.w3.org/2000/svg" version="1.1" width="128" height="128" data-icon="medal" data-container-transform="translate(2)" viewBox="0 0 128 128">
  <path d="M16 0l3.438 6h85.125l3.438-6h-92zm-1.906.25c-.492.158-.975.384-1.313.625l-4.25 3.031 42.5 74.344c2.09-.895 4.28-1.542 6.594-1.906l-19.625-34.344-14.125-24.688c-.012-.021-.021-.042-.031-.063l-9.719-17c-.01.003-.021-.003-.031 0zm95.781 0l-9.719 17c-.011.021-.019.042-.031.063l-14.125 24.688-19.625 34.344c2.314.364 4.504 1.011 6.594 1.906l42.5-74.344-4.25-3.031c-.344-.245-.841-.466-1.344-.625zm-104.625 6l-4.031 2.875c-.674.481-.88 1.469-.469 2.188l41.531 72.688h.156c1.518-1.484 3.21-2.795 5.031-3.906l-42.219-73.844zm113.5 0l-42.219 73.844c1.821 1.111 3.513 2.422 5.031 3.906h.156l41.531-72.688c.411-.719.205-1.707-.469-2.188l-4.031-2.875zm-97.031 3.75l3.438 6h73.688l3.438-6h-80.563zm40.281 70c-13.255 0-24 10.745-24 24s10.745 24 24 24 24-10.745 24-24-10.745-24-24-24z"
  transform="translate(2)" />
</svg>