<svg xmlns="http://www.w3.org/2000/svg" version="1.1" data-icon="media-skip-forward" width="32" height="32" data-container-transform="scale(1 1 ) translate(0 8 )" viewBox="0 0 32 32">
  <path d="M.25.156c-.141 0-.25.119-.25.344v15c0 .3.206.412.406.313l15.188-7.625c.2-.1.206-.275-.094-.375l-15.094-7.625c-.05-.025-.109-.031-.156-.031zm16.094 0c-.141 0-.25.119-.25.344v15c0 .3.206.412.406.313l15.094-7.625c.2-.1.2-.275 0-.375l-15.094-7.625c-.05-.025-.109-.031-.156-.031z"
  transform="translate(0 8)" />
</svg>