<svg xmlns="http://www.w3.org/2000/svg" version="1.1" data-icon="media-skip-backward" width="32" height="32" data-container-transform="scale(1 1 ) translate(0 8 )" viewBox="0 0 32 32">
  <path d="M15.656.156c-.047 0-.106.006-.156.031l-15.094 7.625c-.2.1-.2.275 0 .375l15.094 7.625c.2.1.406-.012.406-.313v-15c0-.225-.109-.344-.25-.344zm16 0c-.047 0-.106.006-.156.031l-15.094 7.625c-.2.1-.2.275 0 .375l15.094 7.625c.2.1.406-.012.406-.313v-15c0-.225-.109-.344-.25-.344z"
  transform="translate(0 8)" />
</svg>