<svg xmlns="http://www.w3.org/2000/svg" version="1.1" width="16" height="16" data-icon="microphone" data-container-transform="translate(3)" viewBox="0 0 16 16">
  <path d="M4.5 0c-1.381 0-2.5 1.119-2.5 2.5v5c0 1.381 1.119 2.5 2.5 2.5s2.5-1.119 2.5-2.5v-5c0-1.381-1.119-2.5-2.5-2.5zm-4.125 6.188a.5.5 0 0 0-.375.5v.813c0 2.308 1.758 4.184 4 4.438v3.063h-2c-.552 0-1 .448-1 1h7c0-.552-.448-1-1-1h-2v-3.063c2.242-.253 4-2.13 4-4.438v-.813a.5.5 0 1 0-1 0v.813c0 1.939-1.561 3.5-3.5 3.5s-3.5-1.561-3.5-3.5v-.813a.5.5 0 0 0-.563-.5.5.5 0 0 0-.063 0z"
  transform="translate(3)" />
</svg>