<svg xmlns="http://www.w3.org/2000/svg" version="1.1" width="128" height="128" data-icon="monitor" data-container-transform="translate(0 11)" viewBox="0 0 128 128">
  <path d="M1.813 0a2 2 0 0 0-1.813 2v76a2 2 0 0 0 2 2h124a2 2 0 0 0 2-2v-76a2 2 0 0 0-2-2h-124a2 2 0 0 0-.188 0zm2.188 4h120v72h-120v-72zm50 78l-1.469 16c-.25 2.188-2.353 4-4.563 4h-7.969c-2.209 0-4 1.791-4 4h56c0-2.209-1.791-4-4-4h-7.938c-2.209 0-4.301-1.813-4.594-4l-1.469-16h-4c0 3.314-2.686 6-6 6s-6-2.686-6-6h-4z"
  transform="translate(0 11)" />
</svg>