<svg xmlns="http://www.w3.org/2000/svg" version="1.1" width="32" height="32" data-icon="network" viewBox="0 0 32 32">
  <path d="M16 0c-2.747 0-5.335.686-7.594 1.906 3.292 1.592 6.852 3.904 10.188 6.688.362-.364.851-.594 1.406-.594.602 0 1.134.268 1.5.688 2.484-1.211 4.902-2.12 7-2.656-2.932-3.667-7.44-6.031-12.5-6.031zm-8.75 2.625c-3.57 2.336-6.147 6.028-6.969 10.375 5.749-3.112 11.368-4.317 17.281-3.781-3.451-2.799-7.079-5.071-10.313-6.594zm21.906 4.25c-2.098.48-4.608 1.415-7.219 2.688.033.145.063.283.063.438 0 .477-.159.906-.438 1.25 1.865 1.801 3.603 3.744 5.125 5.781.107-.018.201-.031.313-.031.329 0 .632.078.906.219 1.665-1.764 2.884-3.694 3.438-5.719-.488-1.673-1.216-3.227-2.188-4.625zm-13.406 3.219c-5.305-.153-10.422 1.226-15.656 4.188-.061.569-.094 1.134-.094 1.719 0 3.426 1.072 6.584 2.906 9.188 2.517-5.237 7.46-9.419 10.781-11.813 1.416-1.02 2.874-1.972 4.375-2.844-.023-.087-.02-.19-.031-.281-.767-.084-1.523-.134-2.281-.156zm2.813 1.281c-6.181 3.62-12.355 8.927-14.969 14.75.296.362.612.696.938 1.031.369.038.774.063 1.188.063 2.594 0 5.908-.707 9.313-1.969-.009-.079-.031-.168-.031-.25 0-1.105.895-2 2-2 .627 0 1.195.298 1.563.75 2.342-1.124 4.622-2.493 6.594-4.031-.088-.226-.156-.462-.156-.719 0-.618.279-1.164.719-1.531-1.517-1.974-3.249-3.859-5.094-5.594-.2.067-.402.125-.625.125-.572 0-1.073-.24-1.438-.625zm13.188 1.969c-.699 1.613-1.733 3.145-3.063 4.563.203.313.313.693.313 1.094 0 .379-.098.729-.281 1.031.607.998 1.146 2.006 1.625 3.031 1.054-2.134 1.656-4.521 1.656-7.063 0-.903-.106-1.793-.25-2.656zm-6 7.219c-2.04 1.588-4.377 2.981-6.781 4.125.017.106.063.201.063.313 0 .362-.113.707-.281 1 1.214 1.289 2.473 2.909 3.594 4.688 3.095-1.343 5.694-3.656 7.406-6.531-.505-1.159-1.101-2.285-1.781-3.406-.288.16-.616.25-.969.25-.471 0-.908-.165-1.25-.438zm-10.344 5.625c-3.554 1.308-7.012 2.031-9.688 2.031 2.783 2.346 6.356 3.781 10.281 3.781 1.904 0 3.712-.359 5.406-.969-1.051-1.637-2.213-3.111-3.344-4.313-.302.183-.652.281-1.031.281-.661 0-1.261-.317-1.625-.813z"
  />
</svg>