<svg xmlns="http://www.w3.org/2000/svg" version="1.1" width="16" height="16" data-icon="network" viewBox="0 0 16 16">
  <path d="M8 0c-1.271 0-2.464.317-3.531.844 1.575.785 3.254 1.874 4.844 3.188.063-.008.123-.031.188-.031.376 0 .706.147.969.375 1.261-.703 2.523-1.247 3.625-1.563-1.467-1.721-3.655-2.812-6.094-2.813zm-4.594 1.469c-1.584 1.12-2.743 2.797-3.188 4.75 2.616-1.331 5.262-1.866 8.125-1.656-1.671-1.318-3.396-2.387-4.938-3.094zm11.313 2.219c-1.08.264-2.387.796-3.75 1.563.013.08.031.166.031.25 0 .011 0 .02 0 .031.807.784 1.567 1.626 2.25 2.5.082-.014.164-.031.25-.031.204 0 .384.052.563.125.757-.888 1.271-1.868 1.438-2.875-.203-.556-.465-1.072-.781-1.563zm-7.75 1.844c-2.41.036-4.684.645-6.938 1.906-.012.182-.031.378-.031.563 0 2.02.765 3.873 2 5.281 1.049-3.002 3.561-5.4 5.219-6.719.276-.219.559-.45.844-.656-.035-.12-.059-.244-.063-.375-.35-.019-.687-.005-1.031 0zm3.625 1c-.273.29-.664.469-1.094.469-.311 0-.605-.089-.844-.25-2.416 1.761-4.641 4.077-5.625 6.594 1.135-.028 2.525-.319 3.969-.813 0-.014 0-.017 0-.031 0-.828.672-1.5 1.5-1.5.423 0 .79.187 1.063.469.881-.445 1.73-.966 2.5-1.531-.043-.139-.063-.284-.063-.438 0-.382.141-.735.375-1-.553-.689-1.144-1.34-1.781-1.969zm5.344.563c-.297.585-.665 1.152-1.125 1.688.123.217.188.452.188.719 0 .287-.079.553-.219.781.188.327.339.668.5 1 .449-.999.719-2.114.719-3.281 0-.31-.028-.605-.063-.906zm-3.281 3.625c-.826.606-1.722 1.154-2.656 1.625.005.05 0 .104 0 .156 0 .234-.06.458-.156.656.524.591 1.072 1.287 1.563 2.063 1.353-.638 2.504-1.63 3.313-2.875-.202-.487-.421-.963-.688-1.438h-.031c-.161.059-.318.094-.5.094-.317 0-.602-.114-.844-.281zm-5.313 2.75c-1.537.532-3.012.832-4.219.875 1.348 1.035 3.044 1.656 4.875 1.656.856 0 1.664-.126 2.438-.375-.417-.641-.86-1.268-1.313-1.781-.192.089-.4.156-.625.156-.461 0-.881-.204-1.156-.531z"
  />
</svg>