<svg xmlns="http://www.w3.org/2000/svg" version="1.1" width="32" height="32" data-icon="nexus" data-container-transform="translate(8)" viewBox="0 0 32 32">
  <path d="M8 0c-4.156 0-7.245.779-7.375.813-.353.089-.625.417-.625.781v28.844c0 .366.269.694.625.781.13.032 3.221.781 7.375.781s7.245-.75 7.375-.781c.356-.087.625-.415.625-.781v-28.844c0-.364-.272-.692-.625-.781-.129-.033-3.219-.812-7.375-.813zm-.5 1h1c.276 0 .5.224.5.5s-.224.5-.5.5h-1c-.276 0-.5-.224-.5-.5s.224-.5.5-.5zm-6.5 2h14v25h-14v-25zm2.5 23l-.5.5.5.5h1.5v-1h-1.5zm7.5 0v1h2v-1h-2zm-3 .031l-1 .469v.5h2v-.5l-1-.469z"
  transform="translate(8)" />
</svg>