<svg xmlns="http://www.w3.org/2000/svg" version="1.1" width="128" height="128" data-icon="nexus" data-container-transform="translate(32)" viewBox="0 0 128 128">
  <path d="M32 0c-17.048 0-28.233 2.784-28.344 2.813-2.055.518-3.656 2.569-3.656 4.688v112.5c0 2.119 1.604 4.16 3.656 4.688 1.743.448 11.297 3.313 28.344 3.313s25.159-2.516 28.344-3.313c2.056-.514 3.656-2.569 3.656-4.688v-112.5c0-2.119-1.601-4.17-3.656-4.688-.111-.028-11.296-2.813-28.344-2.813zm0 4c1.105 0 2 .895 2 2s-.895 2-2 2-2-.895-2-2 .895-2 2-2zm-20.906 2c.552 0 1 .448 1 1s-.448 1-1 1-1-.448-1-1 .448-1 1-1zm-7.094 6h56v100h-56v-100zm9.656 92.656l-1.875 1.844 1.875 1.844.688-.688-.625-.656h2.781c.276 0 .5.224.5.5s-.224.5-.5.5h-1.5v1h1.5c.827 0 1.5-.673 1.5-1.5s-.673-1.5-1.5-1.5h-2.781l.625-.656-.688-.688zm18.313.156l-.219.094-2.469 1.125-.281.156v2.813h6v-2.813l-.313-.156-2.531-1.125-.188-.094zm14.531.188v1h-1.5v3h6v-1.5h1v-2.5h-5.5zm-14.531.938l2.031.906v1.156h-4v-1.156l1.969-.906zm14.031 1.063h4v1h-4v-1z"
  transform="translate(32)" />
</svg>