<svg xmlns="http://www.w3.org/2000/svg" version="1.1" width="16" height="16" data-icon="nexus" data-container-transform="translate(3)" viewBox="0 0 16 16">
  <path d="M4.375 0c-2.184 0-3.808.45-3.875.469-.282.081-.5.363-.5.656v13.75c0 .293.22.545.5.625.068.02 1.691.5 3.875.5 2.174 0 4.047-.45 4.125-.469.292-.073.5-.354.5-.656v-13.75c0-.301-.209-.584-.5-.656-.079-.02-1.95-.469-4.125-.469zm-3.375 2h7v12h-7v-12zm1.25 10l-.25.5.25.5h.75v-1h-.75zm2.25 0l-.5.5v.5h1v-.5l-.5-.5zm1.5 0v1h1v-1h-1z"
  transform="translate(3)" />
</svg>