<svg xmlns="http://www.w3.org/2000/svg" version="1.1" width="128" height="128" data-icon="open-hardware" data-container-transform="translate(0 6)" viewBox="0 0 128 128">
  <path d="M55.906 0c-.389 0-.773.304-.844.688l-3 16.25c-.073.383-.441.814-.813.938l-10.906 4.469c-.35.172-.899.127-1.219-.094l-13.563-9.313c-.322-.221-.819-.182-1.094.094l-11.438 11.438c-.275.276-.315.773-.094 1.094l9.156 13.344c.22.323.241.84.063 1.188l-4.813 11.25c-.128.369-.553.742-.938.813l-15.719 2.906c-.384.073-.688.454-.688.844v16.188c0 .39.304.775.688.844l15.344 2.844c.383.07.789.441.906.813l4.781 11.938c.171.351.128.898-.094 1.219l-8.688 12.688c-.22.321-.181.818.094 1.094l11.438 11.438c.275.274.772.313 1.094.094l12.469-8.531c.321-.22.852-.258 1.188-.063l5.5 2.938c.348.178.757.017.906-.344l11.313-27.375c.15-.36.02-.827-.313-1.031l-1.375-.844c-.254-.155-.604-.412-.875-.656-4.963-3.178-8.25-8.731-8.25-15.063 0-9.88 7.997-17.906 17.875-17.906s17.875 8.027 17.875 17.906c0 6.331-3.287 11.885-8.25 15.063-.269.245-.622.501-.875.656l-1.375.844c-.331.204-.462.67-.313 1.031l11.313 27.406c.149.36.557.49.906.313l5.5-2.938c.337-.196.898-.159 1.219.063l12.438 8.531c.321.219.82.18 1.094-.094l11.438-11.438c.276-.276.315-.773.094-1.094l-8.688-12.688c-.22-.321-.265-.868-.094-1.219l4.781-11.938c.118-.372.522-.743.906-.813l15.344-2.844c.382-.07.688-.454.688-.844v-16.188c.001-.391-.305-.772-.688-.844l-15.719-2.906c-.382-.072-.808-.444-.938-.813l-4.813-11.25c-.18-.347-.159-.864.063-1.188l9.156-13.344c.219-.321.182-.818-.094-1.094l-11.438-11.438c-.276-.276-.773-.315-1.094-.094l-13.563 9.313c-.321.221-.87.266-1.219.094l-10.906-4.469c-.37-.122-.708-.553-.781-.938l-3.031-16.25c-.071-.383-.454-.688-.844-.688h-16.188z"
  transform="translate(0 6)" />
</svg>