<svg xmlns="http://www.w3.org/2000/svg" version="1.1" width="32" height="32" data-icon="open-hardware" data-container-transform="translate(0 2)" viewBox="0 0 32 32">
  <path d="M13.969 0c-.097 0-.171.091-.188.188l-.781 4.063c-.018.096-.095.188-.188.219l-2.719 1.125c-.087.043-.232.024-.313-.031l-3.406-2.344c-.081-.055-.181-.038-.25.031l-2.875 2.875c-.069.069-.086.169-.031.25l2.313 3.344c.055.081.045.226 0 .313l-1.188 2.813c-.032.092-.154.169-.25.188l-3.906.75c-.096.018-.187.089-.188.188v4.063c0 .098.091.169.188.188l3.813.719c.096.017.189.125.219.219l1.219 2.969c.043.088.025.233-.031.313l-2.188 3.188c-.055.08-.038.181.031.25l2.875 2.875c.069.069.169.086.25.031l3.125-2.156c.08-.055.229-.049.313 0l1.375.719c.087.044.182.027.219-.063l2.844-6.844c.037-.09-.011-.23-.094-.281l-.344-.188c-.064-.039-.152-.125-.219-.188-1.241-.794-2.063-2.167-2.063-3.75 0-2.47 1.999-4.469 4.469-4.469s4.469 1.999 4.469 4.469c0 1.583-.822 2.956-2.063 3.75-.067.061-.156.148-.219.188l-.344.188c-.083.051-.131.191-.094.281l2.844 6.844c.037.09.132.107.219.063l1.375-.719c.084-.049.232-.055.313 0l3.125 2.156c.08.055.182.037.25-.031l2.875-2.875c.069-.069.086-.169.031-.25l-2.188-3.188c-.055-.08-.074-.224-.031-.313l1.188-2.969c.029-.093.154-.201.25-.219l3.813-.719c.096-.017.188-.09.188-.188v-4.063c0-.098-.091-.169-.188-.188l-3.906-.75c-.096-.018-.217-.095-.25-.188l-1.188-2.813c-.045-.087-.055-.232 0-.313l2.313-3.344c.055-.08.038-.18-.031-.25l-2.875-2.875c-.069-.069-.17-.086-.25-.031l-3.406 2.344c-.08.055-.226.074-.313.031l-2.719-1.125c-.092-.031-.169-.123-.188-.219l-.781-4.063c-.018-.096-.09-.188-.188-.188h-4.063z"
  transform="translate(0 2)" />
</svg>