<svg xmlns="http://www.w3.org/2000/svg" version="1.1" width="32" height="32" data-icon="palette" data-container-transform="translate(1)" viewBox="0 0 32 32">
  <path d="M16.031 0c-8.851 0-16.031 7.163-16.031 16 0 8.836 7.18 16 16.031 16 4.007 0 8.652-.562 9.75-3.469.582-1.542.219-3.515-2.781-5.219-3.093-1.756-3.038-5.201.969-6.688 7.04-2.611 6.808-8.692 4.813-11.313-2.747-3.606-6.74-5.313-12.75-5.313zm-.531 2c.828 0 1.5.672 1.5 1.5s-.672 1.5-1.5 1.5-1.5-.672-1.5-1.5.672-1.5 1.5-1.5zm-6 2c.828 0 1.5.672 1.5 1.5s-.672 1.5-1.5 1.5-1.5-.672-1.5-1.5.672-1.5 1.5-1.5zm12 0c.828 0 1.5.672 1.5 1.5s-.672 1.5-1.5 1.5-1.5-.672-1.5-1.5.672-1.5 1.5-1.5zm-16 6c.828 0 1.5.672 1.5 1.5s-.672 1.5-1.5 1.5-1.5-.672-1.5-1.5.672-1.5 1.5-1.5zm12 2c1.381 0 2.5 1.119 2.5 2.5s-1.119 2.5-2.5 2.5-2.5-1.119-2.5-2.5 1.119-2.5 2.5-2.5zm-12 6c.828 0 1.5.672 1.5 1.5s-.672 1.5-1.5 1.5-1.5-.672-1.5-1.5.672-1.5 1.5-1.5zm5 6c.828 0 1.5.672 1.5 1.5s-.672 1.5-1.5 1.5-1.5-.672-1.5-1.5.672-1.5 1.5-1.5zm7 2c.828 0 1.5.672 1.5 1.5s-.672 1.5-1.5 1.5-1.5-.672-1.5-1.5.672-1.5 1.5-1.5z"
  transform="translate(1)" />
</svg>