<svg xmlns="http://www.w3.org/2000/svg" version="1.1" width="32" height="32" data-icon="paperclip" data-container-transform="translate(1)" viewBox="0 0 32 32">
  <path d="M24 0c-1.282 0-2.559.497-3.531 1.469l-18.438 18.594.031.031c-2.706 2.727-2.719 7.125 0 9.844 2.725 2.725 7.15 2.725 9.875 0l10.5-10.469.719-.719-1.438-1.406-.688.719-10.5 10.469c-1.961 1.961-5.102 1.961-7.063 0-1.961-1.961-1.961-5.102 0-7.063l18.406-18.594c1.18-1.18 3.07-1.18 4.25 0 1.18 1.18 1.18 3.07 0 4.25l-18.406 18.594c-.399.399-1.039.399-1.438 0s-.399-1.039 0-1.438l10.5-10.469.719-.719-1.438-1.406-.688.719-10.5 10.469c-1.163 1.163-1.163 3.087 0 4.25 1.163 1.163 3.087 1.163 4.25 0l18.406-18.594c1.944-1.944 1.944-5.118 0-7.063-.972-.972-2.25-1.469-3.531-1.469z"
  transform="translate(1)" />
</svg>