<svg xmlns="http://www.w3.org/2000/svg" version="1.1" width="128" height="128" data-icon="paperclip" data-container-transform="translate(5)" viewBox="0 0 128 128">
  <path d="M97.656.031c-4.869 0-9.709 1.865-13.406 5.563l-76.344 76.313c-10.519 10.519-10.52 27.669 0 38.188 10.519 10.518 27.669 10.52 38.188 0l40.531-40.531 2.125-2.125-4.25-4.25-2.125 2.125-40.531 40.531c-8.225 8.226-21.461 8.226-29.688 0-8.226-8.226-8.227-21.461 0-29.688l76.188-76.219.125-.125c5.101-5.101 13.305-5.101 18.406 0 5.101 5.101 5.101 13.305 0 18.406l-.719.688-73.5 73.5-2.125 2.125c-1.977 1.977-5.085 1.977-7.063 0-1.977-1.977-1.977-5.085 0-7.063l.219-.219 40.313-40.313 2.125-2.125-4.25-4.25-2.125 2.125-40.531 40.531c-4.249 4.249-4.27 11.224-.063 15.5l.063.063c4.271 4.271 11.292 4.271 15.563 0l76.313-76.344c7.395-7.395 7.395-19.449 0-26.844-3.697-3.697-8.569-5.563-13.438-5.563z"
  transform="translate(5)" />
</svg>