<svg xmlns="http://www.w3.org/2000/svg" version="1.1" width="32" height="32" data-icon="peace" viewBox="0 0 32 32">
  <path d="M15.5 0c-8.543 0-15.5 6.957-15.5 15.5 0 8.04 6.153 14.653 14 15.406v.094h3v-.094c7.847-.753 14-7.366 14-15.406 0-8.543-6.957-15.5-15.5-15.5zm-1.5 3.094v11.313l-8.344 8.781c-1.654-2.119-2.656-4.78-2.656-7.688 0-6.413 4.791-11.668 11-12.406zm3 0c6.209.738 11 5.993 11 12.406 0 2.907-1.002 5.568-2.656 7.688l-8.344-8.781v-11.313zm-3 15.656v9.156c-2.346-.279-4.491-1.205-6.25-2.594l6.25-6.563zm3 0l6.25 6.563c-1.759 1.389-3.904 2.315-6.25 2.594v-9.156z"
  />
</svg>