<svg xmlns="http://www.w3.org/2000/svg" version="1.1" width="128" height="128" data-icon="pencil" viewBox="0 0 128 128">
  <path d="M112 1.25c-.718 0-1.431.269-2 .781-.04.036-.087.056-.125.094l-5.75 5.75-.125.125 16 16c.045-.04.082-.082.125-.125l5.75-5.75c1.161-1.161 1.171-3.044.031-4.219l-.031-.031-11.75-11.75-.125-.125c-.567-.503-1.288-.75-2-.75zm-10 8.75l-1.969 2 15.969 16 2-2-16-16zm-4 4l-82.313 82.313c.107.107.199.222.25.375l1.844 5.531 5.531 1.844c.298.1.526.327.625.625l1.844 5.531 5.531 1.844c.153.051.268.143.375.25l82.313-82.313-7.281-7.281-77 77c-.195.195-.463.281-.719.281-.256 0-.524-.086-.719-.281-.391-.391-.391-1.046 0-1.438l77-77-7.281-7.281zm-83.625 84.281l-8.5 17.594 6.25 6.25 17.594-8.5-5.031-1.688c-.298-.1-.526-.327-.625-.625l-1.844-5.531-5.531-1.844c-.298-.1-.526-.327-.625-.625l-1.688-5.031zm-9.813 20.281l-4.563 9.438 9.438-4.563-4.875-4.875z"
  />
</svg>