<svg xmlns="http://www.w3.org/2000/svg" version="1.1" width="128" height="128" data-icon="people" data-container-transform="translate(0 35)" viewBox="0 0 128 128">
  <path d="M64 0c-8.837 0-16 7.954-16 19s7.163 21 16 21 16-9.954 16-21-7.163-19-16-19zm-36 10c-6.627 0-12 5.716-12 14 0 8.284 5.373 16 12 16s12-7.716 12-16c0-8.284-5.373-14-12-14zm72 0c-6.627 0-12 5.591-12 13.875 0 8.284 5.373 16.125 12 16.125s12-7.841 12-16.125c0-8.284-5.373-13.875-12-13.875zm-52 26c-8.836 0-16 7.163-16 16v4.5c0 .828.672 1.5 1.5 1.5h61c.828 0 1.5-.672 1.5-1.5v-4.5c0-8.836-7.163-16-16-16h-2.531c-.828 0-1.914.508-2.5 1.094-3.059 3.058-6.887 4.906-10.969 4.906s-7.91-1.849-10.969-4.906c-.586-.586-1.671-1.094-2.5-1.094h-2.531zm-34 2c-7.732 0-14 6.268-14 14v2.5c0 .828.672 1.5 1.5 1.5h27c.828 0 1.5-.672 1.5-1.5v-2.5c0-4.523 1.672-8.648 4.438-11.813.545-.624.532-.648-.156-.188-1.901 1.274-4.036 2-6.281 2-2.769 0-5.363-1.099-7.563-2.969-.631-.536-1.766-1.031-2.594-1.031h-3.844zm96.156 0c-.828 0-1.963.494-2.594 1.031-2.194 1.869-4.805 2.969-7.563 2.969-2.329 0-4.546-.785-6.5-2.156-.678-.476-.679-.46-.125.156 2.871 3.188 4.625 7.383 4.625 12v2.5c0 .828.672 1.5 1.5 1.5h27c.828 0 1.5-.672 1.5-1.5v-2.5c0-7.732-6.268-14-14-14h-3.844z"
  transform="translate(0 35)" />
</svg>