<svg xmlns="http://www.w3.org/2000/svg" version="1.1" width="16" height="16" data-icon="people" data-container-transform="translate(0 3)" viewBox="0 0 16 16">
  <path d="M4 0c-1.105 0-2 1.119-2 2.5s.895 2.5 2 2.5c.429 0 .83-.181 1.156-.469-.089-.331-.156-.666-.156-1.031 0-.861.275-1.64.719-2.25-.347-.743-.981-1.25-1.719-1.25zm8 0c-.738 0-1.372.506-1.719 1.25.444.61.719 1.389.719 2.25 0 .364-.067.7-.156 1.031.326.288.727.469 1.156.469 1.105 0 2-1.119 2-2.5s-.895-2.5-2-2.5zm-4 1c-1.105 0-2 1.119-2 2.5s.895 2.5 2 2.5 2-1.119 2-2.5-.895-2.5-2-2.5zm-6.094 4c-1.065.045-1.906.924-1.906 2v2h3v-1c0-.782.321-1.497.813-2.031-.729-.058-1.411-.41-1.906-.969zm12.188 0c-.495.559-1.177.911-1.906.969.492.535.813 1.249.813 2.031v1h3v-2c0-1.076-.841-1.954-1.906-2zm-8.188 1c-1.065.045-1.906.924-1.906 2v2h8v-2c0-1.076-.841-1.954-1.906-2-.54.611-1.284 1-2.094 1-.81 0-1.554-.388-2.094-1z"
  transform="translate(0 3)" />
</svg>