<svg xmlns="http://www.w3.org/2000/svg" version="1.1" data-icon="person-male" width="32" height="32" data-container-transform="scale(1 1 ) translate(0 )" viewBox="0 0 32 32">
  <path d="M16 0c-7.9 0-9.6 6.5-8 10 0 5.5 1.9 11 8 11 5.9 0 8-5.5 8-11 1.9-5.9-2.1-8-4-8-.1-1.9-2.3-2-4-2zm-8.688 20c-4.1.4-7.313 3.8-7.313 8v3.5c0 .3.2.5.5.5h31c.3 0 .5-.2.5-.5v-3.5c0-4.2-3.212-7.6-7.313-8-.3 0-.581.206-.781.406-1.9 2.3-4.606 3.594-7.906 3.594s-6.006-1.294-7.906-3.594c-.2-.2-.481-.406-.781-.406z"
  />
</svg>