<svg xmlns="http://www.w3.org/2000/svg" version="1.1" data-icon="person-female" width="128" height="128" data-container-transform="translate(8 ) scale(1 1 )" viewBox="0 0 128 128">
  <path d="M56 0c-17.7 0-30 17.9-30 40 0 18.7-10 24-18 24 0 0 11.506 4.3 24.906 1 5.9 10.1 14.794 17 23.094 17s17.287-6.987 23.188-17.188c13.2 3.5 24.813-.813 24.813-.813-8 0-18-5.3-18-24 0-22.1-12.3-40-30-40zm-24 80c-8 0-32 16-32 40v6.5c0 .8.7 1.5 1.5 1.5h109c.8 0 1.5-.7 1.5-1.5v-6.5c0-24-24-40-32-40h-1.313c-.7 0-1.681.5-2.281 1-6.3 5.8-13.406 9-20.406 9-7.3 0-14.4-3.4-20.5-9-.6-.6-1.612-1-2.313-1h-1.188z"
  transform="translate(8)" />
</svg>