<svg xmlns="http://www.w3.org/2000/svg" version="1.1" data-icon="person-genderless" width="128" height="128" data-container-transform="translate(0 ) scale(1 1 )" viewBox="0 0 128 128">
  <path d="M64 0c-17.7 0-32 12.9-32 35s11.9 45 32 45c21.9 0 32-22.9 32-45s-14.3-35-32-35zm-32 80c-17.7 0-32 14.3-32 32v14.5c0 .8.7 1.5 1.5 1.5h125c.8 0 1.5-.7 1.5-1.5v-14.5c0-17.7-14.3-32-32-32h-8.094c-.8 0-2.019.406-2.719.906-6.1 4.6-13.287 7.094-21.188 7.094-7.5 0-14.5-2.494-20.5-7.094-.7-.5-1.788-.906-2.688-.906h-8.813z"
  />
</svg>