<svg xmlns="http://www.w3.org/2000/svg" version="1.1" data-icon="person-female" width="32" height="32" data-container-transform="scale(1 1 ) translate(2 )" viewBox="0 0 32 32">
  <path d="M14 0c-4.4 0-8 4.5-8 10 0 4.7-2 7-4 7 0 0 2.912.712 6.313-.188 1.7 2.5 3.988 4.188 5.688 4.188 1.7 0 4.113-1.813 5.813-4.313 3.3 1 6.188.313 6.188.313-2 0-4-2.3-4-7 0-5.5-3.6-10-8-10zm-7.188 20.25c-.073.002-.144.038-.219.063-2.5 1.2-6.594 4.688-6.594 9.688v1.5c0 .3.2.5.5.5h27c.3 0 .5-.2.5-.5v-1.5c0-5-4.094-8.494-6.594-9.594-.3-.2-.712-.106-.813.094-2 2.1-4.294 3.5-6.594 3.5-2.3 0-4.594-1.4-6.594-3.5-.15-.15-.373-.255-.594-.25z"
  transform="translate(2)" />
</svg>