<svg xmlns="http://www.w3.org/2000/svg" version="1.1" width="128" height="128" data-icon="pill" viewBox="0 0 128 128">
  <path d="M96 0c-8.189 0-16.376 3.127-22.625 9.375l-26.219 26.219-5.656 5.656-32.125 32.125c-12.497 12.497-12.497 32.753 0 45.25 6.248 6.248 14.436 9.375 22.625 9.375s16.377-3.126 22.625-9.375l32.125-32.125 5.656-5.656 26.219-26.219c12.497-12.497 12.497-32.753 0-45.25-6.249-6.248-14.436-9.375-22.625-9.375zm-51.688 44.063l39.625 39.625-32.125 32.125c-5.288 5.288-12.334 8.188-19.813 8.188-7.479 0-14.524-2.9-19.813-8.188-10.917-10.917-10.917-28.708 0-39.625l32.125-32.125z"
  />
</svg>