<svg xmlns="http://www.w3.org/2000/svg" version="1.1" width="16" height="16" data-icon="pill" viewBox="0 0 16 16">
  <path d="M12 0c-1.024 0-2.031.406-2.813 1.188l-3.281 3.25-.375.406-.344.313-4 4.031c-1.562 1.562-1.562 4.094 0 5.656.781.781 1.789 1.156 2.813 1.156 1.023 0 2.032-.375 2.813-1.156l4.031-4.031.719-.719 3.281-3.25c1.562-1.562 1.562-4.094 0-5.656-.781-.781-1.82-1.188-2.844-1.188zm-6.094 5.875l4.219 4.219-4 4.031c-.567.567-1.324.875-2.125.875-.801 0-1.559-.308-2.125-.875-.567-.567-.875-1.324-.875-2.125 0-.801.308-1.559.875-2.125l4.031-4z"
  />
</svg>