<svg xmlns="http://www.w3.org/2000/svg" version="1.1" data-icon="platform-apple" width="128" height="128" data-container-transform="translate(11 ) scale(1 1 )" viewBox="0 0 128 128">
  <path d="M76.031 0c-.87.12-1.526.235-1.969.313-6.141.947-11.547 4.158-16.188 9.625-4.657 5.458-6.986 11.282-6.969 17.5 0 .716.117 1.916.313 3.563 6.661-.008 12.493-2.776 17.5-8.313 5.007-5.536 7.517-11.972 7.5-19.281-.008-.802-.069-1.93-.188-3.406zm-.406 29.375c-4.384.017-8.406.718-12.031 2.125l-2.25.875-3.063 1.281c-1.987.819-3.8 1.219-5.438 1.219-1.27 0-2.959-.454-5.031-1.375l-2.313-1-2.219-.938c-3.241-1.424-6.718-2.165-10.438-2.156-9.928.034-17.871 3.606-23.875 10.719-6.004 7.122-9.003 16.5-8.969 28.125.042 16.341 4.897 31.456 14.594 45.281 6.729 9.68 12.862 14.486 18.406 14.469 2.362-.017 4.697-.519 7-1.5l2.938-1.25 2.344-.906c3.266-1.237 6.276-1.858 9.031-1.875 2.899 0 6.267.741 10.063 2.344l1.844.75c3.863 1.543 6.913 2.313 9.156 2.313 4.741-.017 9.965-3.481 15.688-10.406 5.731-6.9 10.083-15.016 13.094-24.313-11.301-6.141-16.935-14.969-16.969-26.5-.026-9.646 4.485-17.907 13.594-24.781-6.362-8.392-14.734-12.543-25.156-12.5z"
  transform="translate(11)" />
</svg>