<svg xmlns="http://www.w3.org/2000/svg" version="1.1" data-icon="platform-android" width="128" height="128" data-container-transform="translate(9 ) scale(1 1 )" viewBox="0 0 128 128">
  <path d="M32.063 0c-.141.014-.274.084-.406.156-.537.289-.735.944-.438 1.469l5.5 10.063c-10.839 5.59-18.162 16.249-18.156 28.469l71.188-.031c.002-12.219-7.333-22.834-18.156-28.438l5.531-10.063c.294-.526.096-1.202-.438-1.5-.538-.285-1.215-.092-1.5.438l-5.563 10.188c-4.688-2.085-9.92-3.257-15.469-3.25-5.535-.005-10.77 1.146-15.438 3.219l-5.594-10.125c-.218-.402-.639-.637-1.063-.594zm5.906 21.281c1.65-.001 2.998 1.362 3 3 .001 1.644-1.348 2.968-3 2.969-1.639-.004-2.969-1.324-2.969-2.969.001-1.639 1.325-3 2.969-3zm32.406 0c1.636.005 2.97 1.363 2.969 3 .004 1.647-1.325 2.97-2.969 2.969-1.645.002-3-1.349-3-3 .005-1.635 1.352-2.963 3-2.969zm-62.469 20.125c-4.362-.002-7.905 3.547-7.906 7.906v33.063c.001 4.374 3.543 7.907 7.906 7.906 4.366 0 7.91-3.535 7.906-7.906v-33.063c-.002-4.358-3.543-7.909-7.906-7.906zm92.531 0c-4.362-.003-7.907 3.512-7.906 7.875l.031 33.094c0 4.368 3.509 7.905 7.875 7.906 4.362-.001 7.905-3.535 7.906-7.906v-33.094c-.001-4.363-3.543-7.876-7.906-7.875zm-10.938 1.469l-70.625.031v51.25c-.004 4.664 3.776 8.436 8.438 8.438h5.75v17.5c-.001 4.357 3.523 7.906 7.875 7.906 4.365 0 7.905-3.546 7.906-7.906v-17.5h10.656l.031 17.5c-.001 4.356 3.522 7.913 7.875 7.906 4.365.003 7.907-3.545 7.906-7.906v-17.5h5.75c4.65.002 8.436-3.775 8.438-8.438v-51.281z"
  transform="translate(9)" />
</svg>