<svg xmlns="http://www.w3.org/2000/svg" version="1.1" data-icon="platform-apple" width="16" height="16" data-container-transform="scale(1 1 ) translate(1 )" viewBox="0 0 16 16">
  <path d="M9.5 0c-.109.015-.195.022-.25.031-.767.119-1.42.536-2 1.219-.582.683-.877 1.41-.875 2.188 0 .09.007.232.031.438.833-.001 1.561-.339 2.188-1.031.626-.692.94-1.492.938-2.406-.001-.1-.016-.254-.031-.438zm-5.406 3.688c-1.241.004-2.218.455-2.969 1.344-.75.89-1.129 2.047-1.125 3.5.005 2.043.601 3.928 1.813 5.656.841 1.21 1.619 1.814 2.313 1.813.295-.002.587-.065.875-.188l.375-.156.281-.125c.408-.155.781-.217 1.125-.219.363 0 .776.081 1.25.281l.25.094c.483.193.845.281 1.125.281.593-.003 1.254-.415 1.969-1.281.716-.862 1.28-1.869 1.656-3.031-1.413-.767-2.121-1.871-2.125-3.313-.003-1.206.549-2.235 1.688-3.094-.795-1.049-1.853-1.567-3.156-1.563-.548.003-1.047.074-1.5.25l-.281.125-.375.156c-.248.102-.482.156-.688.156-.159 0-.366-.072-.625-.188l-.281-.125-.281-.125c-.405-.179-.848-.251-1.313-.25z"
  transform="translate(1)" />
</svg>