<svg xmlns="http://www.w3.org/2000/svg" version="1.1" data-icon="platform-linux" width="128" height="128" data-container-transform="translate(11 ) scale(1 1 )" viewBox="0 0 128 128">
  <path d="M55.531 0c-7.458-.014-14.843 2.681-17.969 9.906-2.394 5.534-2.155 11.859-1.781 17.75.51 8.042-.313 16.194-5.719 22.688-7.173 8.617-14.319 19.118-15.75 30.5-.185 1.468-.261 2.959-.188 4.438.036.727.11 1.436.219 2.156-.538.482-.989 1.029-1.438 1.594-.904 1.14-1.685 2.409-2.688 3.469-.983.98-2.377 1.401-3.656 1.844-2.156.747-4.114 1.733-5.219 3.844-1.544 3.02-.052 6.432 0 9.594.045 2.7-1.653 5.078-1.281 7.875.356 2.677 2.485 4.051 4.938 4.656 2.911.718 5.953.8 8.906 1.281 1.576.257 3.156.6 4.656 1.156.829.307 1.404.611 1.875.844 5.711 2.986 14.91 5.232 19.594-.969.231-.305.415-.63.594-.969.404-.767.816-.54 1.625-.625 1.366-.144 2.715-.431 4.063-.688 3.319-.631 6.716-1.137 10.094-.75 3.451.395 6.851 1.1 10.344.906.669 2.778 2.821 5.28 5.375 6.5 6.293 3.006 13.355-1.247 17.375-6.031.292-.377.31-.401.875-.969.888-.894 1.885-1.656 2.938-2.344 2.217-1.448 4.646-2.49 7-3.688 1.976-1.004 4.371-2.233 5.156-4.469.775-2.208-.455-4.503-1.719-6.25-1.469-2.031-2.711-3.23-3.344-5.75-.624-2.484-.928-5.306-2.969-7.094-.456-.402-.984-.738-1.531-1-.874-.42-.252-.983-.031-1.813.41-1.538.664-3.102.781-4.688.245-3.323-.168-6.663-1.031-9.875-1.555-5.791-4.492-11.131-7.938-16-2.975-4.204-6.566-7.957-9.375-12.281-2.764-4.254-3.851-8.588-3.781-13.625.045-3.241.055-6.484-.188-9.719-.379-5.041-1.327-10.352-4.25-14.594-3.33-4.831-8.858-6.806-14.563-6.813zm2.75 17.688c4.083 0 6.308 4.462 6.375 8.031 0 1.668-.297 3.223-1.063 4.719-.351.686-.583 1.514-1.375 1.188-.857-.217-1.931-.788-2.719-1.063 1.57-1.887 1.866-7.028-1.094-7.906-2.924-.867-3.808 3.732-3.469 5.688-.578-.288-1.171-.541-1.781-.75-1.103-.377-1.16-.296-1.188-1.531-.03-1.451.194-2.889.781-4.219.977-2.214 2.978-4.17 5.531-4.156zm-15.719 1.25h.031c2.399.027 3.884 2.633 4.438 4.656.263.962.352 1.972.344 2.969-.01 1.196-1.62 1.674-2.625 2.219.21-1.481-1.246-7.194-3.406-4.563-1.352 1.647-1.038 5.336.75 6.594-.393.303-.819.581-1.219.875-.718.527-1.194-.624-1.531-1.25-.813-1.51-1.169-3.23-1.156-4.938.018-2.507 1.235-6.569 4.375-6.563zm7.25 9.438c2.826-.011 4.806 1.621 7.25 2.719 2.051.922 5.078 1.253 6.469 3.219 1.936 2.736-1.697 5.567-3.875 6.531-1.197.53-2.345.909-3.469 1.625-1.354.863-2.705 1.754-4.281 2.156-3.123.795-5.468-.367-7.719-2.406-1.777-1.61-4.591-2.574-5.344-5.063-.819-2.708 2.715-3.962 4.344-5.406 2.022-1.714 3.779-3.365 6.625-3.375zm11.125 6.969c-1.192.034-3.465 1.942-4.813 2.719-1.944 1.122-4.072 2.185-6.344 2.375-2.034.171-4.081-.365-5.656-1.625-1.253-1.002-3.374-3.163-3.813-2.75-.611.576 1.485 2.115 2.406 2.844 2.021 1.601 4.475 2.636 7.094 2.438 2.687-.202 5.132-1.495 7.406-2.844 1.108-.658 2.208-1.419 3.406-1.906.651-.265 1.529-.602.75-1.125-.12-.081-.267-.13-.438-.125zm3.719 3.375c2.273 8.962 6.074 17.462 10.219 25.688 2.291 4.546 3.466 7.575 4.375 12.594 14.475 1.078 15.075 11.462 12.406 11.688.856-2.707-1.676-4.474-3.75-5.594-2.518-1.36-6.553-3.327-9.406-1.781-1.211.657-1.802 1.97-2 3.281-.218 1.182-2.747 2.111-3.625 3.313-2.255 3.084-2.505 7.359-2.75 11.031-.108 1.622-.097 3.275-.406 4.875-.302 1.563-.654 4.975-1.969 5.875-3.149 2.156-6.706 3.795-10.438 4.625-3.774.84-7.747.838-11.469-.25-1.981-.579-3.855-1.453-5.594-2.563-1.677-1.07-2.963-3.734-4.219-5.313 4.137.003 5.203-3.321 3.469-6.625-1.796-3.422-5.013-6.075-8.125-8.25-3.316-2.317-4.17-3.499-4.844-6.938-3.016-15.397 12.456-27.981 13.281-43.531 3.946 2.865 7.344 6.59 12.688 5.031 2.424-.707 4.287-2.285 6.594-3.406 2.026-1.089 4.063-1.62 5.563-3.75zm12.688 50.375c.128 2.075.856 4.346 2.5 5.719 1.816 1.517 4.22 1.122 6.219.219 1.709-.772 3.394-2.957 5.156-3 1.953-.047 3.941.421 4.938 2.25 1.073 1.97 1.103 4.306 1.906 6.375.747 1.927 2.445 3.236 3.438 5.031 2.192 3.965-2.184 5.621-5.188 7.063-1.888.906-3.746 1.879-5.438 3.125-2.09 1.541-3.546 3.692-5.563 5.313-3.142 2.526-7.922 4.378-11.719 2.125-4.297-2.55-3.838-7.325-2.719-11.531.704-2.647 1.675-5.222 2.094-7.938.365-2.366.294-4.808.594-7.188.35-2.78.997-6.206 3.781-7.563zm-58.531.156c4.948.019 7.699 6.67 9.469 10.375 2.245 4.697 6.206 8.121 8.688 12.656 1.873 3.424 1.44 7.932-2.438 9.781-4.544 2.168-9.729.12-13.906-1.875-4.385-2.094-9.162-1.647-13.75-2.813-4.774-1.212-2.781-4.969-2.125-8.438.8-4.229-2.722-9.469 2.75-11.594 1.724-.67 3.508-1.1 4.875-2.438 1.591-1.678 2.692-4.29 4.875-5.313.495-.232 1.017-.35 1.563-.344z"
  transform="translate(11)" />
</svg>