<svg xmlns="http://www.w3.org/2000/svg" version="1.1" data-icon="platform-android" width="16" height="16" data-container-transform="scale(1 1 ) translate(1 )" viewBox="0 0 16 16">
  <path d="M4.063 0c-.034-.01-.061.013-.094.031-.067.036-.1.121-.063.188l.688 1.25c-1.355.699-2.281 2.034-2.281 3.563h8.906c0-1.527-.928-2.861-2.281-3.563l.688-1.281c.037-.066.036-.118-.031-.156-.067-.036-.152-.036-.188.031l-.688 1.281c-.586-.261-1.244-.407-1.938-.406-.692-.001-1.354.147-1.938.406l-.688-1.281c-.018-.034-.06-.053-.094-.063zm.688 2.656c.206 0 .375.171.375.375 0 .206-.168.375-.375.375-.205 0-.375-.169-.375-.375 0-.205.17-.375.375-.375zm4.031 0c.204.001.375.17.375.375.001.206-.17.375-.375.375-.206 0-.344-.169-.344-.375.001-.204.138-.374.344-.375zm-7.781 2.531c-.545 0-1 .425-1 .969v4.156c0 .547.454.969 1 .969s.97-.422.969-.969v-4.156c0-.545-.424-.969-.969-.969zm11.563 0c-.545 0-1 .423-1 .969v4.156c0 .546.454.969 1 .969.545 0 .969-.453.969-1v-4.125c0-.545-.423-.969-.969-.969zm-10.219.188l.031 6.406c0 .583.448 1.03 1.031 1.031h.719v2.188c0 .545.456 1 1 1 .546 0 .969-.455.969-1v-2.188h1.344v2.188c0 .544.456 1.001 1 1 .546 0 .969-.455.969-1v-2.188h.719c.581 0 1.063-.448 1.063-1.031v-6.406h-8.844z"
  transform="translate(1)" />
</svg>