<svg xmlns="http://www.w3.org/2000/svg" version="1.1" width="128" height="128" data-icon="pointer" data-container-transform="translate(13)" viewBox="0 0 128 128">
  <path d="M39 0c-3.866 0-7 3.134-7 7v69c0 3.625-4.835 5.446-8 2.844l-10.344-8.5c-3.124-3.124-8.189-3.124-11.313 0-3.124 3.124-3.124 8.189 0 11.313l41.656 37.719c6.152 5.371 14.192 8.625 23 8.625 19.33 0 35-15.67 35-35v-25.25c0-4.569-3.104-8.556-7.531-9.688l-45.875-11.719c-1.49-.199-2.594-1.465-2.594-2.969v-36.375c0-3.866-3.134-7-7-7z"
  transform="translate(13)" />
</svg>