<svg xmlns="http://www.w3.org/2000/svg" version="1.1" width="32" height="32" data-icon="power-standby" data-container-transform="translate(3 1)" viewBox="0 0 32 32">
  <path d="M12 0v12h3v-12h-3zm-3.75 5.063c-5.095 2.156-8.41 7.317-8.25 12.844.14 4.848 2.929 9.308 7.219 11.563 4.424 2.325 9.869 1.978 13.969-.875 4.013-2.792 6.244-7.606 5.75-12.469-.495-4.872-3.68-9.156-8.188-11.063l-1.156 2.75c3.479 1.471 5.962 4.871 6.344 8.625.382 3.763-1.333 7.528-4.438 9.688-3.16 2.199-7.467 2.479-10.875.688-3.314-1.742-5.517-5.26-5.625-9-.124-4.269 2.472-8.336 6.406-10l-1.156-2.75z"
  transform="translate(3 1)" />
</svg>