<svg xmlns="http://www.w3.org/2000/svg" version="1.1" width="128" height="128" data-icon="print" data-container-transform="translate(0 15)" viewBox="0 0 128 128">
  <path d="M32 0v28h64v-28h-64zm-4 10v20h-25c-1.657 0-3 1.343-3 3v44c0 1.657 1.343 3 3 3h23v-7c0-.552.448-1 1-1s1 .448 1 1v25h72v-25c0-.552.448-1 1-1s1 .448 1 1v7h23c1.657 0 3-1.343 3-3v-44c0-1.657-1.343-3-3-3h-25v-20h-2v20h-68v-20h-2zm89 30c1.657 0 3 1.343 3 3s-1.343 3-3 3-3-1.343-3-3 1.343-3 3-3zm0 8c.552 0 1 .448 1 1s-.448 1-1 1-1-.448-1-1 .448-1 1-1zm0 4c.552 0 1 .448 1 1s-.448 1-1 1-1-.448-1-1 .448-1 1-1zm-87 8h68v36h-26v-6h-18v6h-24v-36zm2 2v32h20v-6h22v6h22v-32h-64z"
  transform="translate(0 15)" />
</svg>