<svg xmlns="http://www.w3.org/2000/svg" version="1.1" width="32" height="32" data-icon="print" data-container-transform="translate(0 2)" viewBox="0 0 32 32">
  <path d="M8 0v8h16v-8h-16zm-2 3v6h-5.5c-.276 0-.5.224-.5.5v13c0 .276.224.5.5.5h6.5v-6h18v6h6.5c.276 0 .5-.224.5-.5v-13c0-.276-.224-.5-.5-.5h-5.5v-6h-1v6h-18v-6h-1zm23.5 8c.276 0 .5.224.5.5s-.224.5-.5.5-.5-.224-.5-.5.224-.5.5-.5zm0 2c.276 0 .5.224.5.5s-.224.5-.5.5-.5-.224-.5-.5.224-.5.5-.5zm-21.5 5v9h16v-9h-16z"
  transform="translate(0 2)" />
</svg>