<svg xmlns="http://www.w3.org/2000/svg" version="1.1" width="32" height="32" data-icon="puzzle-piece" viewBox="0 0 32 32">
  <path d="M11 0c-1.657 0-3 1.343-3 3 0 .684.312 1.26.625 1.813.014.025 1.094 1.75 1.094 1.75.148.232.281.662.281.938v.5c0 1.105-.895 2-2 2h-7.5c-.275 0-.5.225-.5.5v21c0 .275.225.5.5.5h7.5c1.105 0 2-.895 2-2v-.5c0-.275-.133-.706-.281-.938 0 0-1.08-1.724-1.094-1.75-.313-.553-.625-1.128-.625-1.813 0-1.657 1.343-3 3-3s3 1.343 3 3c0 .683-.31 1.262-.625 1.813-.014.024-1.094 1.75-1.094 1.75-.148.232-.281.663-.281.938v.5c0 1.105.895 2 2 2h7.5c.275 0 .5-.225.5-.5v-7.531c0-1.105.895-2 2-2h.5c.275 0 .706.133.938.281 0 0 1.725 1.08 1.75 1.094.551.315 1.13.625 1.813.625 1.657 0 3-1.343 3-3s-1.343-3-3-3c-.684 0-1.259.312-1.813.625-.025.014-1.781 1.125-1.781 1.125-.232.148-.631.25-.906.25h-.5c-1.105 0-2-.895-2-2v-7.469c0-.275-.225-.5-.5-.5h-7.5c-1.105 0-2-.895-2-2v-.5c0-.275.133-.705.281-.938 0 0 1.081-1.725 1.094-1.75.315-.551.625-1.13.625-1.813 0-1.657-1.343-3-3-3z"
  />
</svg>