<svg xmlns="http://www.w3.org/2000/svg" version="1.1" width="128" height="128" data-icon="question-mark" data-container-transform="translate(26)" viewBox="0 0 128 128">
  <path d="M38 0c-17.5 0-28.163 7.261-33.156 15.688-4.994 8.427-4.844 17.313-4.844 20.313v2h12v-2c0-3 .15-9.114 3.156-14.188 3.006-5.073 8.344-9.813 22.844-9.813 10.979 0 17.332 2.735 20.969 6.031 3.637 3.296 5.031 7.455 5.031 11.969 0 14-6.054 18.838-14.125 26.531-8.071 7.693-17.875 18.14-17.875 37.469v10h12v-10c0-15.671 6.196-21.224 14.125-28.781 7.929-7.557 17.875-17.219 17.875-35.219 0-7.237-2.606-15.077-8.969-20.844-6.363-5.766-16.01-9.156-29.031-9.156zm-6 116v12h12v-12h-12z"
  transform="translate(26)" />
</svg>