<svg xmlns="http://www.w3.org/2000/svg" version="1.1" width="128" height="128" data-icon="rainy" data-container-transform="translate(0 7)" viewBox="0 0 128 128">
  <path d="M56 0c-18.8 0-34.415 14.604-36 33-11.578 3.042-20 13.481-20 26 0 14.552 11.575 26.471 26 27h4v-2c0-4.418 3.582-8 8-8 1.459 0 2.822.412 4 1.094v-1.094c0-4.418 3.582-8 8-8s8 3.582 8 8v1.094c1.178-.682 2.541-1.094 4-1.094s2.822.412 4 1.094v-1.094c0-4.418 3.582-8 8-8s8 3.582 8 8v.25c.64-.165 1.308-.25 2-.25 4.418 0 8 3.582 8 8v2h18c9.925 0 18-8.075 18-18s-8.075-18-18-18c-.711 0-1.311-.081-2 0-.871-8.409-7.602-15.091-16-16-.986-18.976-16.783-34-36-34zm-6.219 73.969a2 2 0 0 0-1.781 2.031v36a2 2 0 1 0 4 0v-36a2 2 0 0 0-2.031-2.031 2 2 0 0 0-.188 0zm24 0a2 2 0 0 0-1.781 2.031v36a2 2 0 1 0 4 0v-36a2 2 0 0 0-2.031-2.031 2 2 0 0 0-.188 0zm-36 8a2 2 0 0 0-1.781 2.031v22a2 2 0 1 0 4 0v-22a2 2 0 0 0-2.031-2.031 2 2 0 0 0-.188 0zm24 0a2 2 0 0 0-1.781 2.031v24a2 2 0 1 0 4 0v-24a2 2 0 0 0-2.031-2.031 2 2 0 0 0-.188 0zm22 0a2 2 0 0 0-1.781 2.031v22a2 2 0 1 0 4 0v-22a2 2 0 0 0-2.031-2.031 2 2 0 0 0-.188 0z"
  transform="translate(0 7)" />
</svg>