<svg xmlns="http://www.w3.org/2000/svg" version="1.1" width="16" height="16" data-icon="rainy" viewBox="0 0 16 16">
  <path d="M8 0c-2.454 0-4.486 1.791-4.906 4.125-1.767.415-3.094 1.984-3.094 3.875 0 2.206 1.794 4 4 4v-1.5c0-.829.671-1.5 1.5-1.5s1.5.671 1.5 1.5v-1c0-.829.671-1.5 1.5-1.5s1.5.671 1.5 1.5v1c0-.829.671-1.5 1.5-1.5s1.5.671 1.5 1.5v1.5c1.654 0 3-1.346 3-3s-1.346-3-3-3v-1c0-2.757-2.243-5-5-5zm.344 9a.5.5 0 0 0-.344.5v4a.5.5 0 1 0 1 0v-4a.5.5 0 0 0-.594-.5.5.5 0 0 0-.063 0zm-3 1a.5.5 0 0 0-.344.5v4a.5.5 0 1 0 1 0v-4a.5.5 0 0 0-.594-.5.5.5 0 0 0-.063 0zm6 0a.5.5 0 0 0-.344.5v4a.5.5 0 1 0 1 0v-4a.5.5 0 0 0-.594-.5.5.5 0 0 0-.063 0z"
  />
</svg>