<svg xmlns="http://www.w3.org/2000/svg" version="1.1" width="128" height="128" data-icon="random" data-container-transform="translate(0 15)" viewBox="0 0 128 128">
  <path d="M104.563 4.594c-.345.069-.563.389-.563.906v8.5h-13c-3.186 0-5.685 1.029-7.938 3.281l-22.906 22.906 5.625 5.688 22.938-22.938c.09-.09 2.153-.938 2.281-.938h13v8.5c0 .828.565 1.168 1.281.75l21.438-12.5c.716-.417.716-1.082 0-1.5l-21.438-12.5c-.269-.156-.512-.197-.719-.156zm-104.563 9.406v8h21c.13 0 2.19.846 2.281.938l59.781 59.781c2.252 2.252 4.752 3.281 7.938 3.281h13v8.5c0 .828.565 1.168 1.281.75l21.438-12.5c.716-.417.716-1.082 0-1.5l-21.438-12.5c-.716-.417-1.281-.078-1.281.75v8.5h-13c-.128 0-2.192-.848-2.281-.938l-59.781-59.781c-2.252-2.252-4.753-3.281-7.938-3.281h-21zm46.188 40.188l-22.906 22.875c-.092.092-2.152.938-2.281.938h-21v8h21c3.184 0 5.685-1.029 7.938-3.281l22.875-22.906-5.625-5.625z"
  transform="translate(0 15)" />
</svg>