<svg xmlns="http://www.w3.org/2000/svg" version="1.1" width="16" height="16" data-icon="random" data-container-transform="translate(0 1)" viewBox="0 0 16 16">
  <path d="M13 0v2h-2c-.658 0-1.097.191-1.563.656l-1.406 1.375 1.438 1.438 1.375-1.375c.038-.005.121-.068.156-.094h2v2l3-3-3-3zm-13 2v2h2c-.081 0 .098.087.156.094l7.281 7.25c.465.465.905.656 1.563.656h2v2l2-2 1-1-1-1-2-2v2h-2c.08 0-.071-.026-.125-.031l-.031-.031-7.281-7.281c-.466-.466-.902-.656-1.563-.656h-2zm3.531 6.531l-1.375 1.375c-.044.005-.169.069-.188.094h-1.9689999999999999v2h2c.66 0 1.098-.192 1.563-.656l.719-.688.688-.688-1.438-1.438z"
  transform="translate(0 1)" />
</svg>