<svg xmlns="http://www.w3.org/2000/svg" version="1.1" width="16" height="16" data-icon="ratio" viewBox="0 0 16 16">
  <path d="M8 0c-4.406 0-8 3.594-8 8 0 4.406 3.594 8 8 8 4.406 0 8-3.594 8-8 0-4.406-3.594-8-8-8zm-.625 2.031c.091-.009.189.005.281 0-.888.174-2.156.969-2.156 2.469 0 1.714.998 2.31 2.5 3.5 1.262 1 2.5 1.786 2.5 3.5 0 1.462-.737 2.269-1.875 2.469-.021.001-.041-.001-.063 0-.183.017-.375.031-.563.031-3.326 0-6-2.674-6-6 0-3.118 2.341-5.663 5.375-5.969zm6.625 5.969c0 .306-.019.613-.063.906.026-.298.056-.578.063-.906z"
  />
</svg>