<svg xmlns="http://www.w3.org/2000/svg" version="1.1" width="128" height="128" data-icon="reload" viewBox="0 0 128 128">
  <path d="M63.313-.031c-4.75.039-9.517.634-14.219 1.75-23.472 5.571-42.131 24.439-47.5 47.938-5.413 23.689 3.282 48.878 22.219 64.125 19.3 15.539 46.548 18.569 68.75 7.438 21.5-10.779 35.406-33.169 35.406-57.25h-8c0 20.987-12.248 40.692-31 50.094-19.324 9.689-43.307 7.041-60.125-6.5-16.506-13.289-24.19-35.466-19.469-56.125 4.677-20.466 21.133-37.089 41.563-41.938 18.316-4.347 38.015.996 51.625 13.938l-7.531 7.531c-.586.586-.404 1.205.406 1.375l25.063 5.25c.811.17 1.3-.346 1.125-1.156l-5.344-24.938c-.174-.81-.79-.992-1.375-.406l-6.688 6.688c-11.622-11.124-27.055-17.394-42.875-17.781-.678-.017-1.353-.037-2.031-.031z"
  />
</svg>