<svg xmlns="http://www.w3.org/2000/svg" version="1.1" width="32" height="32" data-icon="reload" viewBox="0 0 32 32">
  <path d="M16.594 0c-.566-.023-1.12-.006-1.688.031-1.514.099-3.043.426-4.5.969-5.481 2.041-9.463 7.012-10.25 12.813-.798 5.883 1.777 11.822 6.625 15.25 4.88 3.45 11.403 3.86 16.688 1.063 5.207-2.757 8.531-8.231 8.531-14.125h-3c0 4.76-2.729 9.271-6.938 11.5-4.26 2.255-9.628 1.907-13.563-.875-3.92-2.772-6.021-7.648-5.375-12.406.635-4.675 3.921-8.759 8.344-10.406 4.703-1.751 10.172-.578 13.719 2.969l-1.844 1.844c-.196.195-.117.399.156.438l6 .844c.273.039.477-.133.438-.406l-.875-6.031c-.039-.273-.211-.32-.406-.125l-1.344 1.344c-2.883-2.883-6.756-4.525-10.719-4.688z"
  />
</svg>