<svg xmlns="http://www.w3.org/2000/svg" version="1.1" width="16" height="16" data-icon="reload" viewBox="0 0 16 16">
  <path d="M7.969 0c-1.608.002-3.214.494-4.594 1.469-3.042 2.151-4.205 6.218-2.75 9.656 1.499 3.544 5.405 5.543 9.156 4.688 3.609-.823 6.219-4.115 6.219-7.813h-2c0 2.749-1.975 5.233-4.656 5.844-2.793.637-5.76-.862-6.875-3.5-1.081-2.556-.201-5.649 2.063-7.25 2.343-1.657 5.659-1.373 7.688.656l-2.219 2.25h6v-6l-2.344 2.344c-1.364-1.364-3.167-2.155-5-2.313-.229-.02-.458-.031-.688-.031z"
  />
</svg>