<svg xmlns="http://www.w3.org/2000/svg" version="1.1" data-icon="resize-both" width="128" height="128" data-container-transform="translate(0 ) scale(1 1 )" viewBox="0 0 128 128">
  <path d="M126.781.25c-.093.001-.181.037-.281.063l-25.094 5.375c-.8.2-1.006.806-.406 1.406l7.125 7.094-93.938 93.938-7.094-7.031c-.6-.6-1.206-.394-1.406.406l-5.375 25.094c-.2.7.387 1.294 1.188 1.094l25.094-5.375c.8-.2 1.006-.806.406-1.406l-7.125-7.094 93.938-93.938 7.094 7.125c.6.6 1.206.394 1.406-.406l5.375-25.094c.175-.7-.258-1.258-.906-1.25z"
  />
</svg>