<svg xmlns="http://www.w3.org/2000/svg" version="1.1" width="32" height="32" data-icon="scissors" data-container-transform="translate(0 4)" viewBox="0 0 32 32">
  <path d="M5 0c-2.761 0-5 2.239-5 5s2.239 5 5 5c.173 0 .332-.014.5-.031 2.423-.089 2.692-.696 5.5 1.156.499.329.818.528 1.344.875-.522.345-.849.548-1.344.875-2.825 1.866-3.019 1.244-5.5 1.156-.168-.017-.327-.031-.5-.031-2.761 0-5 2.239-5 5s2.239 5 5 5 5-2.239 5-5c0-.459-.072-.89-.188-1.313l1.188-.781s2.838-1.889 4.375-2.906c1.043-.69 1.631-1.084 2.969-1.969l7.656-5.063 6-3.969s-.953-1.233-2.844-1.156c-.859.035-1.906.349-3.156 1.156-1.325.856-6.342 4.154-10.656 7l-5.531-3.688c.116-.422.188-.853.188-1.313 0-2.761-2.239-5-5-5zm0 2c1.654 0 3 1.346 3 3s-1.346 3-3 3-3-1.346-3-3 1.346-3 3-3zm14.656 10.906c-1.347.898-1.881 1.243-2.969 1.969 3.89 2.564 8.221 5.409 9.313 6.125 4 2.625 6 .125 6 .125l-12.344-8.219zm-14.656 3.094c1.654 0 3 1.346 3 3s-1.346 3-3 3-3-1.346-3-3 1.346-3 3-3z"
  transform="translate(0 4)" />
</svg>