<svg xmlns="http://www.w3.org/2000/svg" version="1.1" width="128" height="128" data-icon="scissors" data-container-transform="translate(0 14)" viewBox="0 0 128 128">
  <path d="M20 4c-11.046 0-20 8.954-20 20s8.954 20 20 20c.345 0 .69-.014 1.031-.031 10.708-.195 11.335-3.17 22.969 4.5.21.139.423.249.625.375 1.481.976 3.235 2.137 4.781 3.156-1.32.869-2.821 1.849-4.094 2.688-.421.245-.85.508-1.313.813-12.056 7.964-12 4.5-24 4.5-11.046 0-20 8.954-20 20s8.954 20 20 20 20-8.954 20-20c0-2.434-.454-4.749-1.25-6.906l5.25-3.469s10.719-7.111 16.031-10.625c3.438-2.274 5.846-3.879 10.375-6.875h.031l57.563-38.125s-3.113-5.158-9.313-5.094c-2.426.025-5.313.844-8.688 3.094-6.059 4.039-28.841 19.069-50.125 33.094l-21.156-14.094c.818-2.183 1.281-4.531 1.281-7 0-11.046-8.954-20-20-20zm0 6c7.72 0 14 6.28 14 14s-6.28 14-14 14-14-6.28-14-14 6.28-14 14-14zm40 40c1.105 0 2 .895 2 2s-.895 2-2 2-2-.895-2-2 .895-2 2-2zm12.594 3.594c-4.374 2.918-7.167 4.777-10.313 6.875 20.535 13.534 42.25 27.885 47.719 31.531 12 8 18-1.469 18-1.469l-55.406-36.938zm-52.594 12.406c7.72 0 14 6.28 14 14s-6.28 14-14 14-14-6.28-14-14 6.28-14 14-14z"
  transform="translate(0 14)" />
</svg>