<svg xmlns="http://www.w3.org/2000/svg" version="1.1" width="16" height="16" data-icon="scissors" data-container-transform="translate(0 1)" viewBox="0 0 16 16">
  <path d="M3 0c-1.657 0-3 1.343-3 3s1.343 3 3 3c1.312 0 1.75-.687 3.094.25.42.279.654.426 1.094.719-.405.272-.799.519-1.188.781-.739.498-2 .25-3 .25-1.657 0-3 1.343-3 3s1.343 3 3 3 3-1.343 3-3c0-.252-.035-.485-.094-.719l3.094-2.094c1.545 1.027 3.452 2.292 4 2.656 1.661 1.103 3-.344 3-.344l-5.219-3.5 5.219-3.5s-1.36-1.228-3.281-.188c-.313.17-1.935 1.254-3.75 2.469l-3.063-2.063c.059-.234.094-.467.094-.719 0-1.657-1.343-3-3-3zm0 1c1.103 0 2 .897 2 2s-.897 2-2 2-2-.897-2-2 .897-2 2-2zm0 8c1.103 0 2 .897 2 2s-.897 2-2 2-2-.897-2-2 .897-2 2-2z"
  transform="translate(0 1)" />
</svg>