<svg xmlns="http://www.w3.org/2000/svg" version="1.1" width="128" height="128" data-icon="server" data-container-transform="translate(20)" viewBox="0 0 128 128">
  <path d="M1.5 0c-.828 0-1.5.672-1.5 1.5v126.5h88v-126.5c0-.828-.672-1.5-1.5-1.5h-85zm2.5 4h80v98h-80v-98zm3.5 2c-.828 0-1.5.672-1.5 1.5v27c0 .828.672 1.5 1.5 1.5h73c.828 0 1.5-.672 1.5-1.5v-27c0-.828-.672-1.5-1.5-1.5h-73zm1.5 2c.552 0 1 .448 1 1s-.448 1-1 1-1-.448-1-1 .448-1 1-1zm70 0c.552 0 1 .448 1 1s-.448 1-1 1-1-.448-1-1 .448-1 1-1zm-64 4c.552 0 1 .448 1 1v16c0 .552-.448 1-1 1s-1-.448-1-1v-16c0-.552.448-1 1-1zm6 0c.552 0 1 .448 1 1v16c0 .552-.448 1-1 1s-1-.448-1-1v-16c0-.552.448-1 1-1zm6 0c.552 0 1 .448 1 1v16c0 .552-.448 1-1 1s-1-.448-1-1v-16c0-.552.448-1 1-1zm6 0c.552 0 1 .448 1 1v16c0 .552-.448 1-1 1s-1-.448-1-1v-16c0-.552.448-1 1-1zm6 0c.552 0 1 .448 1 1v16c0 .552-.448 1-1 1s-1-.448-1-1v-16c0-.552.448-1 1-1zm6 0c.552 0 1 .448 1 1v16c0 .552-.448 1-1 1s-1-.448-1-1v-16c0-.552.448-1 1-1zm6 0c.552 0 1 .448 1 1v16c0 .552-.448 1-1 1s-1-.448-1-1v-16c0-.552.448-1 1-1zm18 2c2.757 0 5 2.243 5 5s-2.243 5-5 5-5-2.243-5-5 2.243-5 5-5zm0 2c-1.657 0-3 1.343-3 3s1.343 3 3 3 3-1.343 3-3-1.343-3-3-3zm-4 10c.552 0 1 .448 1 1s-.448 1-1 1-1-.448-1-1 .448-1 1-1zm4 0c.552 0 1 .448 1 1s-.448 1-1 1-1-.448-1-1 .448-1 1-1zm4 0c.552 0 1 .448 1 1s-.448 1-1 1-1-.448-1-1 .448-1 1-1zm-64 6c.552 0 1 .448 1 1s-.448 1-1 1-1-.448-1-1 .448-1 1-1zm70 0c.552 0 1 .448 1 1s-.448 1-1 1-1-.448-1-1 .448-1 1-1zm-71.5 6c-.828 0-1.5.672-1.5 1.5v27c0 .828.672 1.5 1.5 1.5h73c.828 0 1.5-.672 1.5-1.5v-27c0-.828-.672-1.5-1.5-1.5h-73zm1.5 2c.552 0 1 .448 1 1s-.448 1-1 1-1-.448-1-1 .448-1 1-1zm70 0c.552 0 1 .448 1 1s-.448 1-1 1-1-.448-1-1 .448-1 1-1zm-64 4c.552 0 1 .448 1 1v16c0 .552-.448 1-1 1s-1-.448-1-1v-16c0-.552.448-1 1-1zm6 0c.552 0 1 .448 1 1v16c0 .552-.448 1-1 1s-1-.448-1-1v-16c0-.552.448-1 1-1zm6 0c.552 0 1 .448 1 1v16c0 .552-.448 1-1 1s-1-.448-1-1v-16c0-.552.448-1 1-1zm6 0c.552 0 1 .448 1 1v16c0 .552-.448 1-1 1s-1-.448-1-1v-16c0-.552.448-1 1-1zm6 0c.552 0 1 .448 1 1v16c0 .552-.448 1-1 1s-1-.448-1-1v-16c0-.552.448-1 1-1zm6 0c.552 0 1 .448 1 1v16c0 .552-.448 1-1 1s-1-.448-1-1v-16c0-.552.448-1 1-1zm6 0c.552 0 1 .448 1 1v16c0 .552-.448 1-1 1s-1-.448-1-1v-16c0-.552.448-1 1-1zm18 2c2.757 0 5 2.243 5 5s-2.243 5-5 5-5-2.243-5-5 2.243-5 5-5zm0 2c-1.657 0-3 1.343-3 3s1.343 3 3 3 3-1.343 3-3-1.343-3-3-3zm-4 10c.552 0 1 .448 1 1s-.448 1-1 1-1-.448-1-1 .448-1 1-1zm4 0c.552 0 1 .448 1 1s-.448 1-1 1-1-.448-1-1 .448-1 1-1zm4 0c.552 0 1 .448 1 1s-.448 1-1 1-1-.448-1-1 .448-1 1-1zm-64 6c.552 0 1 .448 1 1s-.448 1-1 1-1-.448-1-1 .448-1 1-1zm70 0c.552 0 1 .448 1 1s-.448 1-1 1-1-.448-1-1 .448-1 1-1zm-71.5 6c-.828 0-1.5.672-1.5 1.5v27c0 .828.672 1.5 1.5 1.5h73c.828 0 1.5-.672 1.5-1.5v-27c0-.828-.672-1.5-1.5-1.5h-73zm1.5 2c.552 0 1 .448 1 1s-.448 1-1 1-1-.448-1-1 .448-1 1-1zm70 0c.552 0 1 .448 1 1s-.448 1-1 1-1-.448-1-1 .448-1 1-1zm-64 4c.552 0 1 .448 1 1v16c0 .552-.448 1-1 1s-1-.448-1-1v-16c0-.552.448-1 1-1zm6 0c.552 0 1 .448 1 1v16c0 .552-.448 1-1 1s-1-.448-1-1v-16c0-.552.448-1 1-1zm6 0c.552 0 1 .448 1 1v16c0 .552-.448 1-1 1s-1-.448-1-1v-16c0-.552.448-1 1-1zm6 0c.552 0 1 .448 1 1v16c0 .552-.448 1-1 1s-1-.448-1-1v-16c0-.552.448-1 1-1zm6 0c.552 0 1 .448 1 1v16c0 .552-.448 1-1 1s-1-.448-1-1v-16c0-.552.448-1 1-1zm6 0c.552 0 1 .448 1 1v16c0 .552-.448 1-1 1s-1-.448-1-1v-16c0-.552.448-1 1-1zm6 0c.552 0 1 .448 1 1v16c0 .552-.448 1-1 1s-1-.448-1-1v-16c0-.552.448-1 1-1zm18 2c2.757 0 5 2.243 5 5s-2.243 5-5 5-5-2.243-5-5 2.243-5 5-5zm0 2c-1.657 0-3 1.343-3 3s1.343 3 3 3 3-1.343 3-3-1.343-3-3-3zm-4 10c.552 0 1 .448 1 1s-.448 1-1 1-1-.448-1-1 .448-1 1-1zm4 0c.552 0 1 .448 1 1s-.448 1-1 1-1-.448-1-1 .448-1 1-1zm4 0c.552 0 1 .448 1 1s-.448 1-1 1-1-.448-1-1 .448-1 1-1zm-64 6c.552 0 1 .448 1 1s-.448 1-1 1-1-.448-1-1 .448-1 1-1zm70 0c.552 0 1 .448 1 1s-.448 1-1 1-1-.448-1-1 .448-1 1-1z"
  transform="translate(20)" />
</svg>