<svg xmlns="http://www.w3.org/2000/svg" version="1.1" width="16" height="16" data-icon="server" data-container-transform="translate(2)" viewBox="0 0 16 16">
  <path d="M0 0v16h12v-16h-12zm1 1h10v13h-10v-13zm1 1v3h8v-3h-8zm1.5 1h2c.276 0 .5.224.5.5s-.224.5-.5.5h-2c-.276 0-.5-.224-.5-.5s.224-.5.5-.5zm5 0c.276 0 .5.224.5.5s-.224.5-.5.5-.5-.224-.5-.5.224-.5.5-.5zm-6.5 3v3h8v-3h-8zm1.5 1h2c.276 0 .5.224.5.5s-.224.5-.5.5h-2c-.276 0-.5-.224-.5-.5s.224-.5.5-.5zm5 0c.276 0 .5.224.5.5s-.224.5-.5.5-.5-.224-.5-.5.224-.5.5-.5zm-6.5 3v3h8v-3h-8zm1.5 1h2c.276 0 .5.224.5.5s-.224.5-.5.5h-2c-.276 0-.5-.224-.5-.5s.224-.5.5-.5zm5 0c.276 0 .5.224.5.5s-.224.5-.5.5-.5-.224-.5-.5.224-.5.5-.5z"
  transform="translate(2)" />
</svg>