<svg xmlns="http://www.w3.org/2000/svg" version="1.1" width="16" height="16" data-icon="settings" viewBox="0 0 16 16">
  <path d="M1.781 0a1 1 0 0 0-.781 1v1.188c.312-.113.649-.188 1-.188.355 0 .684.074 1 .188v-1.188a1 1 0 0 0-.688-1h-.531zm6 0a1 1 0 0 0-.781 1v7.188c.316-.114.645-.188 1-.188s.684.074 1 .188v-7.188a1 1 0 0 0-.688-1h-.531zm6 0a1 1 0 0 0-.781 1v1.188c.316-.114.645-.188 1-.188.351 0 .688.074 1 .188v-1.188a1 1 0 0 0-.688-1h-.531zm-11.781 3c-1.105 0-2 .895-2 2s.895 2 2 2 2-.895 2-2-.895-2-2-2zm12 0c-1.105 0-2 .895-2 2s.895 2 2 2 2-.895 2-2-.895-2-2-2zm-13 4.813v7.188a1 1 0 0 0 .813 1h.406a1 1 0 0 0 .781-1v-7.188c-.316.114-.645.188-1 .188-.351 0-.688-.074-1-.188zm12 0v7.188a1 1 0 0 0 .813 1h.406a1 1 0 0 0 .781-1v-7.188c-.312.113-.649.188-1 .188-.355 0-.684-.074-1-.188zm-5 1.188c-1.105 0-2 .895-2 2s.895 2 2 2 2-.895 2-2-.895-2-2-2zm-1 4.813v1.188a1 1 0 0 0 .813 1h.406a1 1 0 0 0 .781-1v-1.188c-.316.114-.645.188-1 .188s-.684-.074-1-.188z"
  />
</svg>