<svg xmlns="http://www.w3.org/2000/svg" version="1.1" width="32" height="32" data-icon="settings" data-container-transform="translate(2)" viewBox="0 0 32 32">
  <path d="M3.156 0a1.5 1.5 0 0 0-1.156 1.5v3.781c.472-.173.967-.281 1.5-.281.53 0 1.028.112 1.5.281v-3.781a1.5 1.5 0 0 0-1.219-1.5h-.625zm10 0a1.5 1.5 0 0 0-1.156 1.5v17.781c.472-.169.97-.281 1.5-.281s1.028.112 1.5.281v-17.781a1.5 1.5 0 0 0-1.219-1.5h-.625zm10 0a1.5 1.5 0 0 0-1.156 1.5v3.781c.472-.169.97-.281 1.5-.281.533 0 1.028.108 1.5.281v-3.781a1.5 1.5 0 0 0-1.219-1.5h-.625zm-19.656 6c-1.93 0-3.5 1.57-3.5 3.5s1.57 3.5 3.5 3.5 3.5-1.57 3.5-3.5-1.57-3.5-3.5-3.5zm20 0c-1.93 0-3.5 1.57-3.5 3.5s1.57 3.5 3.5 3.5 3.5-1.57 3.5-3.5-1.57-3.5-3.5-3.5zm-21.5 7.719v16.781a1.5 1.5 0 0 0 1.219 1.5h.594a1.5 1.5 0 0 0 1.188-1.5v-16.781c-.472.169-.97.281-1.5.281-.533 0-1.028-.108-1.5-.281zm20 0v16.781a1.5 1.5 0 0 0 1.219 1.5h.594a1.5 1.5 0 0 0 1.188-1.5v-16.781c-.472.173-.967.281-1.5.281-.53 0-1.028-.112-1.5-.281zm-8.5 6.281c-1.93 0-3.5 1.57-3.5 3.5s1.57 3.5 3.5 3.5 3.5-1.57 3.5-3.5-1.57-3.5-3.5-3.5zm-1.5 7.719v2.781a1.5 1.5 0 0 0 1.219 1.5h.594a1.5 1.5 0 0 0 1.188-1.5v-2.781c-.472.169-.97.281-1.5.281s-1.028-.112-1.5-.281z"
  transform="translate(2)" />
</svg>