<svg xmlns="http://www.w3.org/2000/svg" version="1.1" data-icon="social-google-plus" width="128" height="128" data-container-transform="translate(0 10 ) scale(1 1 )" viewBox="0 0 128 128">
  <path d="M36.375 0c-15.015 0-29.125 11.386-29.125 24.563 0 13.466 10.224 24.313 25.5 24.313 1.063 0 2.114-.021 3.125-.094-.991 1.898-1.719 4.031-1.719 6.25 0 3.743 2.017 6.804 4.563 9.281-1.924 0-3.785.031-5.813.031-18.597 0-32.906 11.842-32.906 24.125 0 12.098 15.682 19.688 34.281 19.688 21.202 0 32.938-12.027 32.938-24.125 0-9.7-2.871-15.524-11.719-21.781-3.027-2.143-8.813-7.343-8.813-10.406 0-3.59 1.002-5.371 6.406-9.594 5.538-4.327 9.469-10.423 9.469-17.5 0-8.427-3.736-16.635-10.781-19.344h10.594l7.5-5.406h-33.5zm59.625 0v24h-24v8h24v24h8v-24h24v-8h-24v-24h-8zm-64.594 4.75c.264-.009.543-.008.813 0 8.625.26 16.824 9.357 18.313 20.688 1.488 11.333-4.312 20.289-12.938 20.031-8.63-.258-16.823-9.64-18.313-20.969-1.442-10.979 3.943-19.464 12.125-19.75zm5.063 62.719c2.999.032 5.775.522 8.313 1.344 6.978 4.853 11.994 7.595 13.406 13.125.266 1.122.406 2.26.406 3.438 0 9.774-6.303 17.438-24.375 17.438-12.855 0-22.125-8.162-22.125-17.938 0-9.58 11.52-17.544 24.375-17.406z"
  transform="translate(0 10)" />
</svg>