<svg xmlns="http://www.w3.org/2000/svg" version="1.1" data-icon="social-youtube" width="128" height="128" data-container-transform="translate(0 12 ) scale(1 1 )" viewBox="0 0 128 128">
  <path d="M47.774 43.226h-4.854v-2.81c-1.84 2.109-3.4 3.175-5.101 3.175-1.492 0-2.528-.704-3.047-1.976-.315-.773-.539-1.98-.539-3.754v-20.438h4.854v19.161c0 1.084 0 1.533 0 1.788.113.717.418.979 1.035.979.929 0 1.77-.807 2.797-2.256v-19.672h4.854v25.803z"
  transform="translate(0 12)" />
  <path d="M30.657 25.853c0-2.757-.554-4.828-1.533-6.131-1.293-1.765-3.321-2.487-5.365-2.487-2.313 0-4.074.723-5.365 2.487-.995 1.303-1.528 3.396-1.528 6.154l-.005 9.175c0 2.742.474 4.636 1.469 5.927 1.291 1.759 3.385 2.692 5.429 2.692 2.044 0 4.174-.932 5.467-2.692.979-1.291 1.431-3.186 1.431-5.927v-9.197zm-4.854 9.708c.256 2.555-.537 3.822-2.044 3.822-1.507 0-2.299-1.268-2.043-3.822v-10.219c-.256-2.555.536-3.752 2.044-3.752 1.507 0 2.302 1.197 2.046 3.752l-.003 10.219z"
  transform="translate(0 12)" />
  <path d="M11.496 29.174v14.051h-5.11v-14.051s-5.295-17.227-6.387-20.438h5.365l3.586 13.457 3.568-13.457h5.365l-6.387 20.438z" transform="translate(0 12)" />
  <path d="M99.636 24.831v10.986c0 2.555-.602 3.534-1.936 3.534-.761 0-1.639-.392-2.412-1.165l.005-15.493c.773-.763 1.646-1.165 2.407-1.165 1.334 0 1.936.75 1.936 3.305zm17.117-.234c0-2.361-.61-3.071-2.144-3.071-1.545 0-2.2.651-2.2 3.039v2.826l4.343-.005v-2.789zm11.247-.783v5.762c0 6.145-.762 12.291-.762 12.291s-.746 5.233-3.033 7.538c-2.901 3.025-6.153 3.04-7.644 3.217-10.675.768-26.705.792-26.705.792s-19.834-.18-25.937-.763c-1.698-.317-5.51-.221-8.412-3.246-2.287-2.305-3.032-7.538-3.032-7.538s-.763-6.145-.763-12.291v-5.762c0-6.146.763-12.291.763-12.291s.745-5.233 3.032-7.538c2.902-3.025 6.152-3.04 7.644-3.217 10.675-.768 26.689-.768 26.689-.768h.033s16.013 0 26.688.768c1.491.177 4.743.192 7.644 3.217 2.287 2.305 3.033 7.538 3.033 7.538s.762 6.145.762 12.291zm-59.532-9.969h5.62v-4.854l-16.095.005v4.849h5.365v29.38h5.109v-29.38zm18.394 3.832h-4.854v19.416c-1.027 1.449-1.868 2.256-2.797 2.256-.617 0-.922-.262-1.035-.979 0-.256 0-.705 0-1.788v-18.905h-4.854v20.183c0 1.773.224 2.981.539 3.754.519 1.272 1.555 1.976 3.047 1.976 1.7 0 3.26-1.065 5.101-3.175v2.81h4.854v-25.548zm17.628 7.664c0-2.418-.31-4.071-.619-5.098-.617-1.912-1.855-2.976-3.697-2.976-1.702 0-3.393 1.046-4.887 2.885l.005-11.161h-4.599v34.234h4.599l.006-2.572c1.545 1.912 3.23 2.902 4.875 2.902 1.842 0 3.188-.986 3.805-2.884.309-1.082.511-2.748.511-5.109v-10.219zm7.92 10.464v-4.588h9.206l-.001-5.223c0-2.728-.537-4.724-1.504-6.016-1.296-1.747-3.138-2.671-5.458-2.671-2.361 0-4.203.925-5.541 2.671-.983 1.291-1.556 3.401-1.556 6.129v8.942c0 2.713.63 4.612 1.613 5.889 1.337 1.744 3.179 2.615 5.598 2.615 2.417 0 4.315-.914 5.594-2.767.562-.818.926-1.746 1.082-2.771.041-.463.164-1.518.164-3.008v-.724h-4.854c0 1.856.008 2.959-.035 3.211-.264 1.236-.928 1.856-2.066 1.856-1.588 0-2.258-1.187-2.242-3.545z"
  transform="translate(0 12)" />
</svg>