<svg xmlns="http://www.w3.org/2000/svg" version="1.1" data-icon="social-github" width="16" height="16" data-container-transform="scale(1 1 ) translate(0 )" viewBox="0 0 16 16">
  <path d="M8 0c-4.417 0-8 3.581-8 8 0 3.534 2.29 6.536 5.469 7.594.4.073.563-.163.563-.375 0-.19-.027-.707-.031-1.375-2.225.483-2.688-1.063-2.688-1.063-.364-.924-.875-1.188-.875-1.188-.726-.496.031-.469.031-.469.803.057 1.219.813 1.219.813.714 1.222 1.888.861 2.344.656.073-.517.271-.864.5-1.063-1.776-.202-3.625-.871-3.625-3.938 0-.873.301-1.596.813-2.156-.082-.203-.373-1.024.063-2.125 0 0 .691-.223 2.219.813.638-.177 1.32-.247 2-.25.679.003 1.361.073 2 .25 1.527-1.035 2.188-.813 2.188-.813.436 1.101.176 1.923.094 2.125.513.559.813 1.282.813 2.156 0 3.073-1.874 3.739-3.656 3.938.287.247.563.722.563 1.469 0 1.069-.031 1.956-.031 2.219 0 .214.156.453.563.375 3.176-1.06 5.469-4.061 5.469-7.594 0-4.419-3.582-8-8-8z"
  />
</svg>