<svg xmlns="http://www.w3.org/2000/svg" version="1.1" data-icon="social-pinterest" width="32" height="32" data-container-transform="scale(1 1 ) translate(0 )" viewBox="0 0 32 32">
  <path d="M16 0c-8.836 0-16 7.164-16 16 0 6.552 3.925 12.181 9.563 14.656-.045-1.117-.006-2.471.281-3.688.308-1.299 2.063-8.719 2.063-8.719s-.5-1.021-.5-2.531c0-2.371 1.382-4.125 3.094-4.125 1.455 0 2.156 1.097 2.156 2.406 0 1.463-.926 3.629-1.406 5.656-.401 1.697.825 3.094 2.5 3.094 3.031 0 5.094-3.886 5.094-8.5 0-3.507-2.36-6.125-6.656-6.125-4.854 0-7.875 3.613-7.875 7.656 0 1.394.387 2.364 1.031 3.125.296.35.357.504.25.906-.077.294-.271 1-.344 1.281-.106.405-.415.556-.781.406-2.236-.913-3.281-3.373-3.281-6.125 0-4.545 3.835-10 11.438-10 6.109 0 10.125 4.41 10.125 9.156 0 6.277-3.481 10.969-8.625 10.969-1.727 0-3.38-.909-3.938-1.969 0 0-.928 3.664-1.125 4.375-.339 1.234-.987 2.477-1.594 3.438 1.439.425 2.955.656 4.531.656 8.836 0 16-7.163 16-16s-7.164-16-16-16z"
  />
</svg>