<svg xmlns="http://www.w3.org/2000/svg" version="1.1" data-icon="social-twitter" width="32" height="32" data-container-transform="scale(1 1 ) translate(0 3 )" viewBox="0 0 32 32">
  <path d="M22.156 0c-3.625 0-6.563 2.938-6.563 6.563 0 .515.044 1.02.156 1.5-5.456-.274-10.293-2.904-13.531-6.875-.565.97-.875 2.11-.875 3.313 0 2.277 1.144 4.292 2.906 5.469-1.076-.034-2.084-.32-2.969-.813-.001.028 0 .034 0 .063 0 3.18 2.278 5.835 5.281 6.438-.551.15-1.151.25-1.75.25-.423 0-.818-.048-1.219-.125.836 2.607 3.252 4.509 6.125 4.563-2.246 1.761-5.08 2.813-8.156 2.813-.53 0-1.048-.033-1.563-.094 2.905 1.862 6.354 2.938 10.063 2.938 12.076 0 18.688-10.014 18.688-18.688 0-.284-.018-.563-.031-.844 1.283-.926 2.401-2.09 3.281-3.406-1.178.523-2.453.904-3.781 1.063 1.356-.812 2.416-2.123 2.906-3.656-1.268.752-2.692 1.3-4.188 1.594-1.197-1.276-2.893-2.063-4.781-2.063z"
  transform="translate(0 3)" />
</svg>