<svg xmlns="http://www.w3.org/2000/svg" version="1.1" data-icon="social-pinterest" width="16" height="16" data-container-transform="scale(1 1 ) translate(0 )" viewBox="0 0 16 16">
  <path d="M8 0c-4.418 0-8 3.582-8 8 0 3.276 1.962 6.075 4.781 7.313-.022-.559.013-1.204.156-1.813.154-.649 1.031-4.375 1.031-4.375s-.281-.495-.281-1.25c0-1.185.707-2.094 1.563-2.094.728 0 1.063.565 1.063 1.219 0 .732-.447 1.831-.688 2.844-.2.849.412 1.531 1.25 1.531 1.516 0 2.531-1.944 2.531-4.25 0-1.753-1.165-3.063-3.313-3.063-2.427 0-3.938 1.792-3.938 3.813 0 .697.209 1.213.531 1.594.148.175.148.236.094.438-.038.147-.12.485-.156.625-.053.203-.222.294-.406.219-1.118-.456-1.625-1.687-1.625-3.063 0-2.273 1.918-5 5.719-5 3.054 0 5.063 2.221 5.063 4.594 0 3.138-1.741 5.469-4.313 5.469-.864 0-1.691-.47-1.969-1 0 0-.465 1.863-.563 2.219-.17.617-.51 1.238-.813 1.719.72.212 1.494.313 2.281.313 4.418 0 8-3.582 8-8s-3.582-8-8-8z"
  />
</svg>