<svg xmlns="http://www.w3.org/2000/svg" version="1.1" data-icon="social-youtube" width="32" height="32" data-container-transform="scale(1 1 ) translate(0 9 )" viewBox="0 0 32 32">
  <path d="M22.469 0s-4.018-.004-6.688.188c-.373.044-1.181.056-1.906.813-.572.577-.75 1.875-.75 1.875s-.188 1.527-.188 3.063v1.469c0 1.537.188 3.063.188 3.063s.178 1.299.75 1.875c.725.756 1.67.733 2.094.813 1.525.146 6.5.188 6.5.188s3.987.005 6.656-.188c.373-.044 1.212-.056 1.938-.813.572-.577.75-1.875.75-1.875s.188-1.527.188-3.063v-1.469c0-1.537-.188-3.063-.188-3.063s-.178-1.299-.75-1.875c-.725-.756-1.564-.768-1.938-.813-2.669-.192-6.656-.188-6.656-.188zm-22.469 2.188c.273.802 1.594 5.094 1.594 5.094v3.531h1.281v-3.531l1.594-5.094h-1.344l-.875 3.375-.906-3.375h-1.344zm14.5.063h4.031v1.219h-1.406v7.344h-1.281v-7.344h-1.344v-1.219zm8.188 0h1.125v2.781c.374-.459.794-.719 1.219-.719.46 0 .784.272.938.75.078.257.156.676.156 1.281v2.531c0 .59-.048 1.01-.125 1.281-.154.475-.509.719-.969.719-.411 0-.833-.241-1.219-.719v.656h-1.125v-8.563zm-16.75 2.063c-.578 0-1.021.184-1.344.625-.249.326-.375.842-.375 1.531v2.281c0 .685.127 1.177.375 1.5.323.44.833.656 1.344.656.511 0 1.052-.216 1.375-.656.245-.323.344-.814.344-1.5v-2.281c0-.689-.131-1.205-.375-1.531-.323-.441-.833-.625-1.344-.625zm22.719 0c.581 0 1.051.25 1.375.688.242.323.375.818.375 1.5v1.313h-2.313v1.125c-.004.589.166.906.563.906.285 0 .465-.16.531-.469.011-.063 0-.348 0-.813h1.219v.188c0 .372-.021.634-.031.75-.039.257-.14.482-.281.688-.32.464-.802.688-1.406.688-.605 0-1.072-.22-1.406-.656-.245-.319-.406-.791-.406-1.469v-2.219c0-.682.16-1.208.406-1.531.334-.437.785-.688 1.375-.688zm-20.094.031v5.125c0 .444.046.745.125.938.13.318.408.5.781.5.425 0 .79-.286 1.25-.813v.719h1.219v-6.469h-1.219v4.938c-.256.362-.456.563-.688.563-.155 0-.222-.071-.25-.25v-5.2509999999999994h-1.219zm9.781.063h1.188v5.188c.029.179.127.25.281.25.232 0 .43-.2.688-.563v-4.875h1.219v6.406h-1.219v-.719c-.46.528-.856.813-1.281.813-.373 0-.62-.182-.75-.5-.079-.194-.125-.495-.125-.938v-5.063zm6.094.969c-.191 0-.432.122-.625.313v3.844c.193.193.435.313.625.313.333 0 .469-.236.469-.875v-2.75c0-.638-.135-.844-.469-.844zm4.219 0c-.386 0-.563.184-.563.781v.688h1.094v-.688c0-.59-.148-.781-.531-.781zm-22.719.031c.377 0 .563.298.5.938v2.531c.064.639-.123.969-.5.969s-.564-.33-.5-.969v-2.531c-.064-.639.123-.938.5-.938z"
  transform="translate(0 9)" />
</svg>