<svg xmlns="http://www.w3.org/2000/svg" version="1.1" data-icon="social-vimeo" width="16" height="16" data-container-transform="scale(1 1 ) translate(0 1 )" viewBox="0 0 16 16">
  <path d="M13.656 0c-2.217-.071-3.714 1.174-4.5 3.75.406-.175.805-.25 1.188-.25.813 0 1.19.462 1.094 1.375-.048.553-.424 1.348-1.094 2.406-.671 1.058-1.165 1.594-1.5 1.594-.431 0-.829-.806-1.188-2.438-.121-.478-.345-1.721-.656-3.688-.287-1.822-1.036-2.651-2.281-2.531-.527.048-1.322.527-2.375 1.438-.766.695-1.555 1.369-2.344 2.063l.75.969c.717-.502 1.13-.75 1.25-.75.549 0 1.083.872 1.563 2.594.43 1.579.85 3.14 1.281 4.719.644 1.723 1.443 2.594 2.375 2.594 1.505 0 3.325-1.421 5.5-4.25 2.104-2.707 3.21-4.848 3.281-6.406.094-2.085-.7-3.139-2.344-3.188z"
  transform="translate(0 1)" />
</svg>