<svg xmlns="http://www.w3.org/2000/svg" version="1.1" data-icon="social-github" width="128" height="128" data-container-transform="translate(0 1 ) scale(1 1 )" viewBox="0 0 128 128">
  <path d="M64 0c-35.339 0-64 28.65-64 64 0 28.273 18.347 52.255 43.781 60.719 3.2.587 4.344-1.367 4.344-3.063 0-1.519-.032-5.565-.063-10.906-17.803 3.868-21.563-8.563-21.563-8.563-2.91-7.393-7.125-9.375-7.125-9.375-5.811-3.971.438-3.875.438-3.875 6.423.453 9.813 6.594 9.813 6.594 5.709 9.78 14.978 6.951 18.625 5.313.582-4.136 2.234-6.963 4.063-8.563-14.212-1.615-29.156-7.1-29.156-31.625 0-6.987 2.5-12.714 6.594-17.188-.658-1.619-2.856-8.126.625-16.938 0 0 5.369-1.72 17.594 6.563 5.105-1.419 10.589-2.132 16.031-2.156 5.435.025 10.919.737 16.031 2.156 12.219-8.282 17.563-6.563 17.563-6.563 3.492 8.811 1.314 15.318.656 16.938 4.102 4.474 6.563 10.2 6.563 17.188 0 24.586-14.962 30.009-29.219 31.594 2.298 1.976 4.344 5.874 4.344 11.844 0 8.556-.063 15.465-.063 17.563 0 1.711 1.158 3.688 4.406 3.063 25.409-8.48 43.719-32.453 43.719-60.719 0-35.35-28.653-64-64-64z"
  transform="translate(0 1)" />
</svg>