<svg xmlns="http://www.w3.org/2000/svg" version="1.1" data-icon="social-instagram" width="32" height="32" data-container-transform="scale(1 1 ) translate(0 )" viewBox="0 0 32 32">
  <path d="M4.094 0c-2.259 0-4.094 1.835-4.094 4.094v23.813c0 2.259 1.835 4.094 4.094 4.094h23.813c2.259 0 4.094-1.835 4.094-4.094v-23.813c0-2.259-1.835-4.094-4.094-4.094h-23.813zm19.219 3.563h3.625c.792 0 1.438.646 1.438 1.438v3.438c0 .793-.645 1.438-1.438 1.438h-3.625c-.793 0-1.438-.646-1.438-1.438v-3.438c0-.793.645-1.438 1.438-1.438zm-7.281 6.125c3.55 0 6.438 2.811 6.438 6.25s-2.887 6.219-6.438 6.219c-3.55 0-6.438-2.78-6.438-6.219 0-3.439 2.889-6.25 6.438-6.25zm-12.469 3.844h2.938c-.266.871-.406 1.796-.406 2.75 0 5.322 4.444 9.625 9.938 9.625 5.494 0 9.938-4.302 9.938-9.625 0-.954-.139-1.88-.406-2.75h2.813v13.531c0 .7-.581 1.25-1.281 1.25h-22.281c-.7 0-1.25-.55-1.25-1.25v-13.531z"
  />
</svg>