<svg xmlns="http://www.w3.org/2000/svg" version="1.1" data-icon="social-google-plus" width="32" height="32" data-container-transform="scale(1 1 ) translate(0 2 )" viewBox="0 0 32 32">
  <path d="M9.094 0c-3.754 0-7.281 2.831-7.281 6.125 0 3.366 2.556 6.094 6.375 6.094.266 0 .529-.012.781-.031-.248.475-.438 1.008-.438 1.563 0 .936.519 1.694 1.156 2.313-.481 0-.962.031-1.469.031-4.649 0-8.219 2.96-8.219 6.031 0 3.025 3.913 4.906 8.563 4.906 5.301 0 8.25-3.006 8.25-6.031 0-2.425-.724-3.872-2.938-5.438-.757-.536-2.219-1.829-2.219-2.594 0-.898.274-1.351 1.625-2.406 1.385-1.082 2.375-2.606 2.375-4.375 0-2.107-.958-4.167-2.719-4.844h2.656l1.875-1.344h-8.375zm14.906 0v6h-6v2h6v6h2v-6h6v-2h-6v-6h-2zm-16.344 1.188c.129-.013.271-.004.406 0 2.156.065 4.19 2.324 4.563 5.156.372 2.833-1.063 5.096-3.219 5.031-2.158-.064-4.221-2.417-4.594-5.25-.349-2.656.909-4.742 2.844-4.938zm1.469 15.688c.75.008 1.428.108 2.063.313 1.744 1.213 2.991 1.899 3.344 3.281.067.281.125.58.125.875 0 2.444-1.576 4.344-6.094 4.344-3.214 0-5.531-2.026-5.531-4.469 0-2.395 2.88-4.379 6.094-4.344z"
  transform="translate(0 2)" />
</svg>