<svg xmlns="http://www.w3.org/2000/svg" version="1.1" data-icon="social-facebook" width="128" height="128" data-container-transform="translate(0 2 ) scale(1 1 )" viewBox="0 0 128 128">
  <path d="M7.063 0c-3.903 0-7.063 3.159-7.063 7.063v113.875c0 3.901 3.159 7.063 7.063 7.063h61.313v-49.563h-16.688v-19.313h16.688v-14.25c0-16.533 10.095-25.531 24.844-25.531 7.064 0 13.136.515 14.906.75v17.281h-10.219c-8.021 0-9.594 3.813-9.594 9.406v12.344h19.125l-2.469 19.313h-16.656v49.563h32.625c3.901 0 7.063-3.16 7.063-7.063v-113.875c0-3.902-3.162-7.063-7.063-7.063h-113.875z"
  transform="translate(0 2)" />
</svg>