<svg xmlns="http://www.w3.org/2000/svg" version="1.1" data-icon="social-instagram" width="128" height="128" data-container-transform="translate(0 ) scale(1 1 )" viewBox="0 0 128 128">
  <path d="M16.438 0c-9.036 0-16.438 7.402-16.438 16.438v95.125c0 9.036 7.402 16.438 16.438 16.438h95.125c9.036 0 16.438-7.401 16.438-16.438v-95.125c0-9.036-7.401-16.438-16.438-16.438h-95.125zm76.813 14.219h14.469c3.169 0 5.75 2.611 5.75 5.781v13.781c0 3.17-2.581 5.75-5.75 5.75h-14.469c-3.17 0-5.781-2.58-5.781-5.75v-13.781c0-3.17 2.611-5.781 5.781-5.781zm-29.125 24.594c14.198 0 25.719 11.15 25.719 24.906 0 13.757-11.521 24.906-25.719 24.906-14.197 0-25.719-11.149-25.719-24.906 0-13.756 11.522-24.906 25.719-24.906zm-49.906 15.313h11.75c-1.066 3.481-1.625 7.184-1.625 11 0 21.291 17.808 38.531 39.781 38.531s39.781-17.24 39.781-38.531c0-3.817-.559-7.519-1.625-11h11.25v54.063c0 2.798-2.295 5.094-5.094 5.094h-89.125c-2.798 0-5.094-2.295-5.094-5.094v-54.063z"
  />
</svg>