<svg xmlns="http://www.w3.org/2000/svg" version="1.1" width="128" height="128" data-icon="tags" data-container-transform="translate(4 13)" viewBox="0 0 128 128">
  <path d="M1.5 0c-.828 0-1.5.672-1.5 1.5v33c0 .828.491 1.963 1.094 2.531l65.813 61.938c.603.568 1.57.555 2.156-.031l33.875-33.875c.586-.586.573-1.526-.031-2.094l-65.813-61.938c-.603-.568-1.766-1.031-2.594-1.031h-33zm38.5 0l68 64-30.188 30.188 5.094 4.781c.603.568 1.57.555 2.156-.031l33.875-33.875c.586-.586.573-1.526-.031-2.094l-65.813-61.938c-.603-.568-1.766-1.031-2.594-1.031h-10.5zm-18 16c3.314 0 6 2.686 6 6s-2.686 6-6 6-6-2.686-6-6 2.686-6 6-6z"
  transform="translate(4 13)" />
</svg>