<svg xmlns="http://www.w3.org/2000/svg" version="1.1" width="128" height="128" data-icon="target" viewBox="0 0 128 128">
  <path d="M64 0c-35.311 0-64 28.689-64 64s28.689 64 64 64 64-28.689 64-64-28.689-64-64-64zm0 6c32.068 0 58 25.932 58 58s-25.932 58-58 58-58-25.932-58-58 25.932-58 58-58zm0 20c-20.951 0-38 17.049-38 38s17.049 38 38 38 38-17.049 38-38-17.049-38-38-38zm0 6c17.709 0 32 14.291 32 32s-14.291 32-32 32-32-14.291-32-32 14.291-32 32-32zm0 20c-6.627 0-12 5.373-12 12s5.373 12 12 12 12-5.373 12-12-5.373-12-12-12z"
  />
</svg>