<svg xmlns="http://www.w3.org/2000/svg" version="1.1" width="16" height="16" data-icon="thermometer" data-container-transform="translate(4)" viewBox="0 0 16 16">
  <path d="M4 0c-1.651 0-3 1.349-3 3v6.438c-.597.698-1 1.573-1 2.563 0 2.203 1.797 4 4 4 2.203 0 4-1.797 4-4 0-.989-.403-1.865-1-2.563v-6.438c0-1.651-1.349-3-3-3zm0 1c1.111 0 2 .889 2 2v6.7509999999999994l.156.156c.53.542.844 1.276.844 2.094 0 1.663-1.337 3-3 3s-3-1.337-3-3c0-.818.313-1.551.844-2.094l.156-.156v-6.7509999999999994c0-1.111.889-2 2-2zm-.094.969a1 1 0 0 0-.125.031 1 1 0 0 0-.781 1v7.281c-.597.346-1 .979-1 1.719 0 1.105.895 2 2 2s2-.895 2-2c0-.74-.403-1.373-1-1.719v-7.281a1 1 0 0 0-1.094-1.031z"
  transform="translate(4)" />
</svg>