<svg xmlns="http://www.w3.org/2000/svg" version="1.1" data-icon="thumb-up" width="32" height="32" data-container-transform="scale(1 1 ) translate(0 )" viewBox="0 0 32 32">
  <path d="M17.688 0c-.4 0-.688.313-.688.813v2.781c0 3-2.912 6.319-4.813 8.219-.9.7-1.988 1.188-3.188 1.188v17s2 1 5 1h11.188c.9 0 1.725-.606 2.125-1.406 0 0 3.8-10.494 4.5-13.594.1-.4.094-.613.094-.813.1-1.2-.919-2.188-2.219-2.188h-7.188c-1.2 0-2.188-1.113-2.188-2.313 0-1.2 1.688-3.688 1.688-6.688v-1.5c0-1.4-1.1-2.5-2.5-2.5h-1.813zm-17.688 13l2 19h5v-19h-7zm5 16c.6 0 1 .4 1 1s-.4 1-1 1-1-.4-1-1 .4-1 1-1z"
  />
</svg>