<svg xmlns="http://www.w3.org/2000/svg" version="1.1" data-icon="thumb-up" width="128" height="128" data-container-transform="translate(1 ) scale(1 1 )" viewBox="0 0 128 128">
  <path d="M71 0c-1.7 0-3 1.3-3 3v11c0 12.1-11.612 27.188-19.313 34.688-3.3 3.4-7.688 5.313-12.688 5.313v68s8 4 20 4h43c3.7 0 6.912-2.3 8.313-5.5 0 0 14.994-42.1 18.094-54.5.4-1.4.594-2.5.594-3 0-5.1-4-9-9-9h-27c-5 0-9-4.5-9-9s5-15 5-31v-5c0-5-4-9-9-9h-6zm-71 52l10 76h22v-76h-32zm26 68c1.1 0 2 .9 2 2s-.9 2-2 2-2-.9-2-2 .9-2 2-2z"
  transform="translate(1)" />
</svg>