<svg xmlns="http://www.w3.org/2000/svg" version="1.1" width="128" height="128" data-icon="timer" data-container-transform="translate(6)" viewBox="0 0 128 128">
  <path d="M48 0v2h20v-2h-20zm4 4v8.313c-29.183 3.004-52 27.723-52 57.688 0 31.985 26.015 58 58 58s58-26.015 58-58c0-29.965-22.817-54.683-52-57.688v-8.313h-12zm6 16c27.662 0 50 22.338 50 50s-22.338 50-50 50-50-22.338-50-50 22.338-50 50-50zm32 20s-34.532 21.22-37.656 24.344c-3.124 3.124-3.124 8.189 0 11.313 3.124 3.124 8.188 3.124 11.313 0 3.124-3.124 26.344-35.656 26.344-35.656zm-32 26c2.209 0 4 1.791 4 4s-1.791 4-4 4-4-1.791-4-4 1.791-4 4-4z"
  transform="translate(6)" />
</svg>