<svg xmlns="http://www.w3.org/2000/svg" version="1.1" width="32" height="32" data-icon="tools" viewBox="0 0 32 32">
  <path d="M1 0l-1 1 2 3 2 1 14 14-1 1 1 1v1l9 9c.52.613 1.289 1 2.156 1 1.566 0 2.844-1.278 2.844-2.844 0-.867-.387-1.636-1-2.156l-9-9h-1l-1-1-1 1-14-14-1-2-3-2zm16 0c7 3.031 4.984 6.016 4 7l-5.344 5.344-.156.156 2 2 .156-.156 5.344-5.344c.984-.984 1.969-1.031 3 0s0 1 1 2l1 1 4-4-1-1c-1-1-1 0-2-1s0-1-1-2l-1-1c-2.625-2.625-3.717-2.959-7.969-3h-2.031zm-5.5 14.5l-11.156 11.156c-.195.195-.248.534-.125.781l2.563 5.125c.123.247.347.26.5.031l1.469-2.188c.153-.23.43-.586.625-.781l10.125-10.125-4-4z"
  />
</svg>