<svg xmlns="http://www.w3.org/2000/svg" version="1.1" width="32" height="32" data-icon="transfer" data-container-transform="translate(0 7)" viewBox="0 0 32 32">
  <path d="M26.125.219c-.072.036-.125.143-.125.281v2.5h-26v3h26v2.5c0 .276.185.354.406.188l5.188-3.875c.221-.166.221-.459 0-.625l-5.188-3.875c-.11-.083-.209-.13-.281-.094zm-20.375 9c-.048.011-.101.052-.156.094l-5.188 3.875c-.221.166-.221.459 0 .625l5.188 3.875c.221.166.406.088.406-.188v-2.5h26v-3h-26v-2.5c0-.207-.106-.313-.25-.281z"
  transform="translate(0 7)" />
</svg>