<svg xmlns="http://www.w3.org/2000/svg" version="1.1" width="128" height="128" data-icon="trash" data-container-transform="translate(10)" viewBox="0 0 128 128">
  <path d="M44 0c-2.197 0-4 1.803-4 4v4h-17.938c-.021-.001-.041 0-.063 0-1.105 0-2 .895-2 2h-16c-2.209 0-4 1.791-4 4v4h108v-4c0-2.209-1.791-4-4-4-.086 0-.166.026-.25.031v-.031h-15.75c0-1.105-.895-2-2-2h-18v-4c0-2.197-1.803-4-4-4h-20zm0 2h20c1.117 0 2 .883 2 2v4h-24v-4c0-1.117.883-2 2-2zm-36 18v105c0 1.657 1.343 3 3 3h86c1.657 0 3-1.343 3-3v-105h-12v93c0 1.105-.895 2-2 2s-2-.895-2-2v-93h-12v93c0 1.105-.895 2-2 2s-2-.895-2-2v-93h-12v93c0 1.105-.895 2-2 2s-2-.895-2-2v-93h-12v93c0 1.105-.895 2-2 2s-2-.895-2-2v-93h-12v93c0 1.105-.895 2-2 2s-2-.895-2-2v-93h-12z"
  transform="translate(10)" />
</svg>