<svg xmlns="http://www.w3.org/2000/svg" version="1.1" data-icon="vertical-align-bottom" width="32" height="32" data-container-transform="scale(1 1 ) translate(0 4 )" viewBox="0 0 32 32">
  <path d="M5.5 0c-.3 0-.5.2-.5.5v20c0 .3.2.5.5.5h5c.3 0 .5-.2.5-.5v-20c0-.3-.2-.5-.5-.5h-5zm16 4c-.3 0-.5.2-.5.5v16c0 .3.2.5.5.5h5c.3 0 .5-.2.5-.5v-16c0-.3-.2-.5-.5-.5h-5zm-8 4c-.3 0-.5.2-.5.5v12c0 .3.2.5.5.5h5c.3 0 .5-.2.5-.5v-12c0-.3-.2-.5-.5-.5h-5zm-13.5 14v1h32v-1h-32z"
  transform="translate(0 4)" />
</svg>