<svg xmlns="http://www.w3.org/2000/svg" version="1.1" data-icon="vertical-align-center" width="128" height="128" data-container-transform="translate(0 19 ) scale(1 1 )" viewBox="0 0 128 128">
  <path d="M29.5 0c-.8 0-1.5.7-1.5 1.5v38.5h20v-38.5c0-.8-.7-1.5-1.5-1.5h-17zm52 8c-.8 0-1.5.7-1.5 1.5v30.5h20v-30.5c0-.8-.7-1.5-1.5-1.5h-17zm-26 10c-.8 0-1.5.7-1.5 1.5v20.5h20v-20.5c0-.8-.7-1.5-1.5-1.5h-17zm-55.5 24v2h128v-2h-128zm28 4v38.5c0 .8.7 1.5 1.5 1.5h17c.8 0 1.5-.7 1.5-1.5v-38.5h-20zm26 0v20.5c0 .8.7 1.5 1.5 1.5h17c.8 0 1.5-.7 1.5-1.5v-20.5h-20zm26 0v30.5c0 .8.7 1.5 1.5 1.5h17c.8 0 1.5-.7 1.5-1.5v-30.5h-20z"
  transform="translate(0 19)" />
</svg>