<svg xmlns="http://www.w3.org/2000/svg" version="1.1" data-icon="vertical-align-bottom" width="128" height="128" data-container-transform="translate(0 19 ) scale(1 1 )" viewBox="0 0 128 128">
  <path d="M29.5 0c-.8 0-1.5.7-1.5 1.5v83c0 .8.7 1.5 1.5 1.5h17c.8 0 1.5-.7 1.5-1.5v-83c0-.8-.7-1.5-1.5-1.5h-17zm52 16c-.8 0-1.5.7-1.5 1.5v67c0 .8.7 1.5 1.5 1.5h17c.8 0 1.5-.7 1.5-1.5v-67c0-.8-.7-1.5-1.5-1.5h-17zm-26 20c-.8 0-1.5.7-1.5 1.5v47c0 .8.7 1.5 1.5 1.5h17c.8 0 1.5-.7 1.5-1.5v-47c0-.8-.7-1.5-1.5-1.5h-17zm-55.5 52v2h128v-2h-128z"
  transform="translate(0 19)" />
</svg>