<svg xmlns="http://www.w3.org/2000/svg" version="1.1" data-icon="volume-medium" width="128" height="128" data-container-transform="translate(12 16 ) scale(1 1 )" viewBox="0 0 128 128">
  <path d="M55 0c-.6 0-1.494.4-2.094 1l-31.813 28c-.6.5-1.794 1-2.594 1h-17c-.8 0-1.5.7-1.5 1.5v33c0 .8.7 1.5 1.5 1.5h17c.8 0 1.994.4 2.594 1l31.813 28c.6.5 1.594 1 2.094 1 .5 0 1-.7 1-1.5v-93c0-.8-.4-1.5-1-1.5zm34.938 14.063l-5.656 5.656c7.281 7.281 11.719 17.261 11.719 28.281s-4.471 21.092-11.719 28.25l5.625 5.688c8.752-8.642 14.094-20.758 14.094-33.938 0-13.18-5.344-25.219-14.063-33.938zm-17.063 16.969l-5.563 5.75c2.941 2.862 4.688 6.785 4.688 11.219 0 4.433-1.746 8.357-4.688 11.219l5.563 5.75c4.459-4.338 7.125-10.402 7.125-16.969 0-6.567-2.666-12.63-7.125-16.969z"
  transform="translate(12 16)" />
</svg>