<svg xmlns="http://www.w3.org/2000/svg" version="1.1" data-icon="volume-medium" width="32" height="32" data-container-transform="scale(1 1 ) translate(3 4 )" viewBox="0 0 32 32">
  <path d="M13.5 0c-.3 0-.706.113-.906.313l-7.188 6.375c-.2.2-.606.313-.906.313h-4c-.3 0-.5.2-.5.5v9c0 .3.2.5.5.5h4c.3 0 .706.113.906.313l7.188 6.281c.2.2.606.313.906.313.3 0 .5-.2.5-.5v-23c0-.2-.2-.406-.5-.406zm9 3.5l-1.406 1.406c1.823 1.823 2.906 4.252 2.906 7.094 0 2.842-1.083 5.271-2.906 7.094l1.406 1.406c2.177-2.177 3.5-5.142 3.5-8.5 0-3.358-1.323-6.323-3.5-8.5zm-4.281 4.281l-1.438 1.438c.743.743 1.219 1.667 1.219 2.781s-.476 2.038-1.219 2.781l1.438 1.438c1.057-1.057 1.781-2.533 1.781-4.219 0-1.686-.724-3.162-1.781-4.219z"
  transform="translate(3 4)" />
</svg>