<svg xmlns="http://www.w3.org/2000/svg" version="1.1" data-icon="volume-off" width="32" height="32" data-container-transform="scale(1 1 ) translate(2 4 )" viewBox="0 0 32 32">
  <path d="M13.5 0c-.3 0-.706.113-.906.313l-7.188 6.375c-.2.2-.606.313-.906.313h-4c-.3 0-.5.2-.5.5v9c0 .3.2.5.5.5h4c.3 0 .706.113.906.313l7.188 6.281c.2.2.606.313.906.313.3 0 .5-.2.5-.5v-23c0-.2-.2-.406-.5-.406zm5.719 6.781l-1.438 1.438 3.281 3.281-3.281 3.281 1.438 1.438 3.281-3.281 3.281 3.281 1.438-1.438-3.281-3.281 3.281-3.281-1.438-1.438-3.281 3.281-3.281-3.281z"
  transform="translate(2 4)" />
</svg>