<svg xmlns="http://www.w3.org/2000/svg" version="1.1" width="32" height="32" data-icon="wifi" data-container-transform="translate(0 5)" viewBox="0 0 32 32">
  <path d="M16 0c-6.247 0-11.918 2.43-16.031 6.406l2.063 2.188c3.563-3.444 8.504-5.594 13.969-5.594s10.406 2.15 13.969 5.594l2.063-2.188c-4.113-3.976-9.784-6.406-16.031-6.406zm0 6c-4.535 0-8.669 1.768-11.656 4.656l2.094 2.188c2.441-2.36 5.813-3.844 9.563-3.844 3.749 0 7.121 1.484 9.563 3.844l2.094-2.188c-2.987-2.888-7.122-4.656-11.656-4.656zm0 6c-2.757 0-5.259 1.134-7.063 2.938l2.125 2.125c1.273-1.273 3-2.063 4.938-2.063 1.937 0 3.665.79 4.938 2.063l2.125-2.125c-1.803-1.803-4.306-2.938-7.063-2.938zm0 6c-1.104 0-2.088.463-2.813 1.188l2.813 2.813 2.813-2.813c-.723-.724-1.709-1.188-2.813-1.188z"
  transform="translate(0 5)" />
</svg>