<svg xmlns="http://www.w3.org/2000/svg" version="1.1" width="128" height="128" data-icon="wrench" viewBox="0 0 128 128">
  <path d="M103 0c-13.48 0-24.487 10.646-25 24 0 8.836-3.584 16.835-9.375 22.625l-66 66c-3.515 3.515-3.515 9.236 0 12.75 1.757 1.757 4.072 2.625 6.375 2.625s4.617-.868 6.375-2.625l66-66c5.791-5.791 13.789-9.375 22.625-9.375 13.354-.513 24-11.52 24-25 0-1.563-.163-3.078-.438-4.563l-9.563 9.563h-20v-20l9.563-9.563c-1.484-.275-2.999-.438-4.563-.438zm-94 114c2.761 0 5 2.239 5 5s-2.239 5-5 5-5-2.239-5-5 2.239-5 5-5z"
  />
</svg>