<svg xmlns="http://www.w3.org/2000/svg" version="1.1" width="32" height="32" data-icon="wrench" viewBox="0 0 32 32">
  <path d="M24.5 0c-4.142 0-7.5 3.358-7.5 7.5 0 2.168-.892 4.079-2.313 5.5l-13.813 13.875c-1.172 1.171-1.172 3.079 0 4.25.586.586 1.358.875 2.125.875.767 0 1.54-.289 2.125-.875l13.875-13.813c1.421-1.421 3.332-2.313 5.5-2.313 4.142 0 7.5-3.358 7.5-7.5 0-.757-.105-1.497-.313-2.188l-3.688 3.688h-5v-5l3.688-3.688c-.689-.209-1.43-.312-2.188-.313zm-21.5 27.5c.828 0 1.5.672 1.5 1.5s-.672 1.5-1.5 1.5-1.5-.672-1.5-1.5.672-1.5 1.5-1.5z"
  />
</svg>