<svg xmlns="http://www.w3.org/2000/svg" version="1.1" data-icon="zoom-out" width="128" height="128" data-container-transform="translate(0 ) scale(1 1 )" viewBox="0 0 128 128">
  <path d="M46 0c-25.358 0-46 20.642-46 46s20.642 46 46 46c11.238 0 21.563-4.058 29.563-10.781l5.656 5.656-2.125 2.125c-.525.525-.581 1.293-.188 1.875.056.083.112.144.188.219l36.156 36.156c.565.316 1.258.242 1.75-.25l9.906-9.906c.6-.6.594-1.594.094-2.094l-31.313-31.313-6.688 6.719-1.406-1.406 6.719-6.688-3.219-3.219c-.075-.075-.136-.131-.219-.188-.25-.169-.531-.25-.813-.25-.375 0-.763.138-1.063.438l-2.125 2.125-5.656-5.656c6.723-8 10.781-18.324 10.781-29.563 0-25.358-20.642-46-46-46zm0 8c21.034 0 38 16.966 38 38s-16.966 38-38 38-38-16.966-38-38 16.966-38 38-38zm-14 36v4h28v-4h-28z"
  />
</svg>