<svg xmlns="http://www.w3.org/2000/svg" version="1.1" width="16" height="16" data-icon="aperture" viewBox="0 0 16 16">
  <path d="M8 0c-2.183 0-4.151.864-5.594 2.281l2.719 4.719 3.969-6.906c-.362-.05-.718-.094-1.094-.094zm2.125.313l-2.688 4.688h7.969c-.925-2.283-2.878-4.022-5.281-4.688zm-8.438 2.781c-1.06 1.357-1.688 3.051-1.688 4.906 0 .692.085 1.36.25 2h5.438l-4-6.906zm8.625 2.906l4 6.906c1.06-1.357 1.688-3.051 1.688-4.906 0-.692-.085-1.36-.25-2h-5.438zm.563 3l-3.969 6.906c.362.05.718.094 1.094.094 2.183 0 4.151-.863 5.594-2.281l-2.719-4.719zm-10.281 2c.925 2.283 2.877 4.023 5.281 4.688l2.688-4.688h-7.969z"
  />
</svg>