<svg xmlns="http://www.w3.org/2000/svg" version="1.1" width="128" height="128" data-icon="aperture" viewBox="0 0 128 128">
  <path d="M64 0c-19.725 0-37.354 8.939-49.094 22.969l22.531 39.031 35.438-61.375c-2.902-.403-5.862-.625-8.875-.625zm11 .969l-22.563 39.031h70.906c-8.17-20.176-26.329-35.218-48.344-39.031zm-61.438 23.656c-8.487 10.859-13.562 24.524-13.563 39.375 0 7.73 1.364 15.14 3.875 22h45.125l-35.438-61.375zm65.438 17.375l35.438 61.375c8.487-10.859 13.563-24.524 13.563-39.375 0-7.73-1.364-15.14-3.875-22h-45.125zm11.563 24l-35.438 61.375c2.902.403 5.862.625 8.875.625 19.725 0 37.353-8.939 49.094-22.969l-22.531-39.031zm-85.906 22c8.17 20.176 26.329 35.218 48.344 39.031l22.563-39.031h-70.906z"
  />
</svg>