<svg xmlns="http://www.w3.org/2000/svg" version="1.1" width="16" height="16" data-icon="basket" viewBox="0 0 16 16">
  <path d="M7.844 1a1 1 0 0 0-.688.5l-3 5a1 1 0 1 0 1.688 1l3-5a1 1 0 0 0-1-1.5zm1.906 2c-.007.012-.024.019-.031.031l-1.125 1.875 1.563 2.594a1 1 0 1 0 1.688-1l-2.094-3.5zm-9.75 4v2h1.25l1.75 7h10l1.75-7h1.25v-2h-3c-.001.678-.345 1.344-.969 1.719-.322.193-.681.281-1.031.281-.68 0-1.344-.344-1.719-.969l-.625-1.031h-1.313l-.625 1.031c-.375.625-1.039.969-1.719.969-.35 0-.709-.087-1.031-.281-.624-.375-.968-1.04-.969-1.719h-3zm5.5 4c.276 0 .5.224.5.5v2c0 .276-.224.5-.5.5s-.5-.224-.5-.5v-2c0-.276.224-.5.5-.5zm5 0c.276 0 .5.224.5.5v2c0 .276-.224.5-.5.5s-.5-.224-.5-.5v-2c0-.276.224-.5.5-.5z"
  />
</svg>