<svg xmlns="http://www.w3.org/2000/svg" version="1.1" width="16" height="16" data-icon="beaker" viewBox="0 0 16 16">
  <path d="M4.344 0a.502.502 0 0 0 .156 1h.5v4.344l-4.281 6.375-.063.094h.031c-.412.446-.688 1.036-.688 1.688 0 .687.267 1.329.719 1.781.452.452 1.094.719 1.781.719h11c.687 0 1.329-.267 1.781-.719.452-.452.719-1.094.719-1.781 0-.652-.276-1.242-.688-1.688h.031l-.063-.094-4.281-6.375v-4.344h.5a.5.5 0 1 0 0-1h-7a.5.5 0 0 0-.094 0 .502.502 0 0 0-.063 0zm1.656 1h4v4.656l.094.125 2.813 4.219h-2.906c0-.552-.448-1-1-1s-1 .448-1 1h-4.906l2.813-4.219.094-.125v-4.656z"
  />
</svg>