<svg xmlns="http://www.w3.org/2000/svg" version="1.1" width="128" height="128" data-icon="beaker" viewBox="0 0 128 128">
  <path d="M41.813 0a2.002 2.002 0 1 0 .188 4h2v48.063l-41.25 59.063-.031.063c-1.35 1.769-2.719 3.984-2.719 6.813 0 2.749 1.13 5.255 2.938 7.063 1.808 1.808 4.313 2.938 7.063 2.938h108c2.749 0 5.255-1.13 7.063-2.938 1.808-1.808 2.938-4.313 2.938-7.063 0-2.83-1.372-5.045-2.719-6.813l-.031-.063-41.25-59.063v-48.063h2a2 2 0 1 0 0-4h-44a2 2 0 0 0-.188 0zm6.188 4h32v8h-7a1 1 0 0 0-.094 0 1.001 1.001 0 0 0 .094 2h7v8h-7a1 1 0 0 0-.094 0 1.001 1.001 0 0 0 .094 2h7v8h-7a1 1 0 0 0-.094 0 1.001 1.001 0 0 0 .094 2h7v8h-7a1 1 0 0 0-.094 0 1.001 1.001 0 0 0 .094 2h7v8h-7a1 1 0 0 0-.094 0 1.001 1.001 0 0 0 .094 2h7.469l5.594 8h-7.063a1 1 0 0 0-.094 0 1.001 1.001 0 0 0 .094 2h8.469l5.594 8h-8.063a1 1 0 0 0-.094 0 1.001 1.001 0 0 0 .094 2h9.438l5.594 8h-26.063c.633-.838 1.031-1.869 1.031-3 0-2.761-2.239-5-5-5s-5 2.239-5 5c0 1.131.398 2.162 1.031 3h-38.063l19.656-28.156.375-.531v-49.313zm12 62c-1.105 0-2 .895-2 2s.895 2 2 2 2-.895 2-2-.895-2-2-2zm1 28c1.657 0 3 1.343 3 3s-1.343 3-3 3-3-1.343-3-3 1.343-3 3-3zm8 16c.552 0 1 .448 1 1s-.448 1-1 1-1-.448-1-1 .448-1 1-1z"
  />
</svg>