<svg xmlns="http://www.w3.org/2000/svg" version="1.1" width="128" height="128" data-icon="bell" data-container-transform="translate(8)" viewBox="0 0 128 128">
  <path d="M56 0c-3.314 0-6 2.686-6 6 0 1.689.69 3.222 1.813 4.313-13.471 2.027-23.813 13.652-23.813 27.688v4.094c0 15.595-1.172 29.718-16 39.938-7.414 5.11-12 12.171-12 19.969v2h112v-2c0-7.798-4.586-14.859-12-19.969-14.828-10.22-16-24.343-16-39.938v-4.094c0-14.036-10.342-25.66-23.813-27.688 1.123-1.09 1.813-2.624 1.813-4.313 0-3.314-2.686-6-6-6zm-14.813 106c-.751 1.854-1.188 3.877-1.188 6 0 8.836 7.163 16 16 16s16-7.163 16-16c0-2.123-.436-4.146-1.188-6h-29.625z"
  transform="translate(8)" />
</svg>