<svg xmlns="http://www.w3.org/2000/svg" version="1.1" width="128" height="128" data-icon="bitcoin-address" viewBox="0 0 128 128">
  <path d="M0 0v40h40v-40h-40zm44 0v12h4v-4h4v-4h4v-4h-12zm4 12v8h4v-4h4v-4h-8zm8 0h4v8h4v4h-4v-4h-8v4h4v4h-4v8h4v4h-4v-4h-8v4h4v4h4v4h4v-4h4v-4h4v8h4v4h4v-8h4v4h4v4h4v-4h4v-4h-8v-4h-4v-4h4v-4h-4v-8h4v-8h-8v4h-4v-4h-4v-4h4v-4h-4v-4h-4v4h-4v4zm8-8h4v-4h-4v4zm4 8v4h4v-4h-4zm12 4h4v-4h-4v4zm0-4v-8h4v-4h-12v4h4v8h4zm0 20h4v-4h-4v4zm0 4v4h4v-4h-4zm8 12v4h4v-4h-4zm4 0h4v-4h-4v4zm-20 4v8h4v-8h-4zm0 8h-4v4h4v-4zm-4 0v-8h-4v-4h-4v12h8zm-8 0h-4v12h-12v4h12v4h8v4h4v-4h4v-4h-4v-8h-4v-4h-4v-4zm12 20v8h-8v8h-4v4h4v4h-4v-4h-4v8h4v4h-4v8h4v-4h4v-4h8v-8h4v-8h-4v4h-4v-4h4v-4h4v-12h-4zm-16 40h-4v4h4v-4zm0 4v4h8v-4h-8zm8 0h4v-4h-4v4zm4-4h4v-4h-4v4zm4 0v8h4v-8h-4zm-20 4h-4v-4h4v-4h-8v12h8v-4zm4-12v-4h-4v4h4zm-4-4v-8h4v-8h-4v4h-4v4h-4v4h4v4h4zm-4 0h-4v4h4v-4zm4-16v-4h-8v4h8zm0-4h4v-4h-4v4zm4 0v4h4v-4h-4zm4 0h4v-4h-4v4zm-16-12h-8v-4h-4v4h-4v4h12v4h4v-8zm-16 0v-4h-4v4h4zm-4-4v-4h4v4h4v-8h4v4h4v-4h4v4h8v-4h-4v-12h4v-4h-8v12h-4v-4h-4v-4h4v-8h-4v4h-12v4h8v4h-8v4h-4v4h-4v4h4v4h4zm-8-8v-4h4v-4h4v-4h-8v4h-4v4h-4v-4h-8v8h4v4h4v4h4v-8h4zm-4 8v8h-8v-4h-4v8h16v-4h4v-4h-4v-4h-4zm-8 4h4v-4h-4v4zm0-4v-4h-4v4h4zm4-16h4v-4h-4v4zm0-4v-4h-4v-4h-4v8h8zm0-4h4v4h4v-8h-8v4zm16 0v-4h-4v4h4zm28 4v8h4v-8h-4zm0-24v-4h-8v4h8zm36-28v40h40v-40h-40zm-84 4h32v32h-32v-32zm88 0h32v32h-32v-32zm-80 8v16h16v-16h-16zm88 0v16h16v-16h-16zm-32 12h4v4h-4v-4zm0 8h4v8h-4v-8zm28 24v8h-16v8h8v40h-8v8h16v8h8v-8h8v8h8v-16h-24v-16h24v-8h-24v-16h24v-16h-8v8h-8v-8h-8zm24 16v16h8v-16h-8zm0 24v16h8v-16h-8zm-120-8v40h40v-40h-40zm4 4h32v32h-32v-32zm8 8v16h16v-16h-16z"
  />
</svg>