<svg xmlns="http://www.w3.org/2000/svg" version="1.1" width="16" height="16" data-icon="bitcoin" data-container-transform="translate(3)" viewBox="0 0 16 16">
  <path d="M3 0v3h-3v1c.552 0 1 .448 1 1v6c0 .552-.448 1-1 1v1h3v3h1v-3h1v3h1v-3c1.657 0 3-1.343 3-3 0-1.209-.721-2.244-1.75-2.719.461-.454.75-1.083.75-1.781 0-1.208-.861-2.204-2-2.438v-3.063h-1v3h-1v-3h-1zm0 4h1.5c.828 0 1.5.672 1.5 1.5s-.672 1.5-1.5 1.5h-1.5v-3zm0 4h2c1.105 0 2 .895 2 2s-.895 2-2 2h-2v-4z"
  transform="translate(3)" />
</svg>