<svg xmlns="http://www.w3.org/2000/svg" version="1.1" width="128" height="128" data-icon="book" data-container-transform="translate(4)" viewBox="0 0 128 128">
  <path d="M5 0v.094c-2.837.477-5 2.934-5 5.906 0 .216.009.415.031.625-.011.121-.031.251-.031.375v105.719c1.467-1.667 3.61-2.719 6-2.719h.063c-.038-.105-.063-.225-.063-.344v-109.656h-1zm3 0v109.656c0 .118-.026.238-.063.344h112.063v-107.156h-.031v-.031c-.091-1.575-1.371-2.812-2.969-2.813h-13v52l-6-6-6 6v-52h-84zm-2 112c-3.309 0-6 2.691-6 6v4c0 3.314 2.686 6 6 6h114v-4h-112c-2.209 0-4-1.791-4-4s1.791-4 4-4h112v-4h-114z"
  transform="translate(4)" />
</svg>