<svg xmlns="http://www.w3.org/2000/svg" version="1.1" width="16" height="16" data-icon="brain" viewBox="0 0 16 16">
  <path d="M6 0c-2.628 0-4.379 1.742-5.281 4.063.169.08.281.237.281.438 0 .276-.224.5-.5.5-.04 0-.088.022-.125.031-.257.949-.375 1.955-.375 2.969 0 .986.068 1.98.219 2.906.082.059.172.094.281.094.276 0 .5.224.5.5s-.224.5-.5.5c-.017 0-.045.001-.063 0 .611 2.296 1.95 4 4.563 4 1.105 0 2-.895 2-2v-6h-.5c-.276 0-.5-.224-.5-.5s.224-.5.5-.5h.5v-6c0-.552-.448-1-1-1zm3 0c-.552 0-1 .448-1 1v6h.5c.276 0 .5.224.5.5s-.224.5-.5.5h-.5v6c0 1.105.895 2 2 2 2.611 0 3.951-1.704 4.563-4-.017 0-.046 0-.063 0-.276 0-.5-.224-.5-.5s.224-.5.5-.5c.109 0 .198-.034.281-.094.152-.926.219-1.919.219-2.906 0-1.026-.143-2.042-.406-3-.035.002-.059 0-.094 0-.276 0-.5-.224-.5-.5 0-.2.111-.356.281-.438-.901-2.319-2.652-4.063-5.281-4.063zm-3.5 1c.276 0 .5.224.5.5s-.224.5-.5.5c-.827 0-1.5.673-1.5 1.5 0 .276-.224.5-.5.5s-.5-.224-.5-.5c0-1.378 1.122-2.5 2.5-2.5zm4 0c1.378 0 2.5 1.122 2.5 2.5 0 .276-.224.5-.5.5s-.5-.224-.5-.5c0-.827-.673-1.5-1.5-1.5-.276 0-.5-.224-.5-.5s.224-.5.5-.5zm-4 3c.276 0 .5.224.5.5 0 .827-.673 1.5-1.5 1.5s-1.5.673-1.5 1.5c0 .276-.224.5-.5.5s-.5-.224-.5-.5c0-1.378 1.122-2.5 2.5-2.5.276 0 .5-.224.5-.5s.224-.5.5-.5zm4 0c.276 0 .5.224.5.5s.224.5.5.5c1.378 0 2.5 1.122 2.5 2.5 0 .276-.224.5-.5.5s-.5-.224-.5-.5c0-.827-.673-1.5-1.5-1.5s-1.5-.673-1.5-1.5c0-.276.224-.5.5-.5zm-5 5c.827 0 1.5.673 1.5 1.5s-.673 1.5-1.5 1.5c-.276 0-.5-.224-.5-.5s.224-.5.5-.5.5-.224.5-.5-.224-.5-.5-.5-.5-.224-.5-.5.224-.5.5-.5zm6 0c.276 0 .5.224.5.5s-.224.5-.5.5-.5.224-.5.5.224.5.5.5.5.224.5.5-.224.5-.5.5c-.827 0-1.5-.673-1.5-1.5s.673-1.5 1.5-1.5zm-7 4c.276 0 .5.224.5.5s.224.5.5.5.5-.224.5-.5.224-.5.5-.5.5.224.5.5c0 .827-.673 1.5-1.5 1.5s-1.5-.673-1.5-1.5c0-.276.224-.5.5-.5zm6 0c.276 0 .5.224.5.5s.224.5.5.5.5-.224.5-.5.224-.5.5-.5.5.224.5.5c0 .827-.673 1.5-1.5 1.5s-1.5-.673-1.5-1.5c0-.276.224-.5.5-.5z"
  />
</svg>