<svg xmlns="http://www.w3.org/2000/svg" version="1.1" width="32" height="32" data-icon="brain" viewBox="0 0 32 32">
  <path d="M13 0c-6.229 0-10.634 4.857-12.281 10.781.227.137.497.219.781.219.276 0 .5.224.5.5s-.224.5-.5.5c-.486 0-.913.235-1.188.594-.199 1.121-.313 2.263-.313 3.406 0 1.492.09 2.997.313 4.438.275.349.71.563 1.188.563.276 0 .5.224.5.5s-.224.5-.5.5c-.3 0-.578.098-.813.25 1.278 5.449 4.446 9.75 10.313 9.75 2.209 0 4-1.791 4-4v-9.5c0-.827-.673-1.5-1.5-1.5h-3c-.276 0-.5-.224-.5-.5s.224-.5.5-.5h3c.827 0 1.5-.673 1.5-1.5v-6c0-.827-.673-1.5-1.5-1.5-.276 0-.5-.224-.5-.5s.224-.5.5-.5c.827 0 1.5-.673 1.5-1.5v-2.5c0-1.105-.895-2-2-2zm5 0c-1.105 0-2 .895-2 2v2.5c0 .827.673 1.5 1.5 1.5.276 0 .5.224.5.5s-.224.5-.5.5c-.827 0-1.5.673-1.5 1.5v6c0 .827.673 1.5 1.5 1.5h3c.276 0 .5.224.5.5s-.224.5-.5.5h-3c-.827 0-1.5.673-1.5 1.5v9.5c0 2.209 1.791 4 4 4 5.867 0 9.035-4.3 10.313-9.75-.235-.153-.512-.25-.813-.25-.276 0-.5-.224-.5-.5s.224-.5.5-.5c.477 0 .913-.215 1.188-.563.222-1.44.313-2.945.313-4.438 0-1.144-.114-2.286-.313-3.406-.274-.359-.701-.594-1.188-.594-.276 0-.5-.224-.5-.5s.224-.5.5-.5c.284 0 .555-.082.781-.219-1.647-5.924-6.052-10.781-12.281-10.781zm-5.5 2c.276 0 .5.224.5.5 0 .827-.673 1.5-1.5 1.5-1.378 0-2.5 1.122-2.5 2.5s1.122 2.5 2.5 2.5c.276 0 .5.224.5.5s-.224.5-.5.5c-1.93 0-3.5-1.57-3.5-3.5s1.57-3.5 3.5-3.5c.276 0 .5-.224.5-.5s.224-.5.5-.5zm6 0c.276 0 .5.224.5.5s.224.5.5.5c1.93 0 3.5 1.57 3.5 3.5s-1.57 3.5-3.5 3.5c-.276 0-.5-.224-.5-.5s.224-.5.5-.5c1.378 0 2.5-1.122 2.5-2.5s-1.122-2.5-2.5-2.5c-.827 0-1.5-.673-1.5-1.5 0-.276.224-.5.5-.5zm-5 9c.276 0 .5.224.5.5 0 1.378-1.122 2.5-2.5 2.5h-3c-1.378 0-2.5 1.122-2.5 2.5s1.122 2.5 2.5 2.5c.276 0 .5.224.5.5s-.224.5-.5.5c-1.93 0-3.5-1.57-3.5-3.5s1.57-3.5 3.5-3.5h3c.827 0 1.5-.673 1.5-1.5 0-.276.224-.5.5-.5zm4 0c.276 0 .5.224.5.5 0 .827.673 1.5 1.5 1.5h3c1.93 0 3.5 1.57 3.5 3.5s-1.57 3.5-3.5 3.5c-.276 0-.5-.224-.5-.5s.224-.5.5-.5c1.378 0 2.5-1.122 2.5-2.5s-1.122-2.5-2.5-2.5h-3c-1.378 0-2.5-1.122-2.5-2.5 0-.276.224-.5.5-.5zm-6 8c1.378 0 2.5 1.122 2.5 2.5s-1.122 2.5-2.5 2.5h-1.5c-.551 0-1 .449-1 1v1.5c0 .276-.224.5-.5.5s-.5-.224-.5-.5v-1.5c0-1.103.897-2 2-2h1.5c.827 0 1.5-.673 1.5-1.5s-.673-1.5-1.5-1.5c-.276 0-.5-.224-.5-.5s.224-.5.5-.5zm8 0c.276 0 .5.224.5.5s-.224.5-.5.5c-.827 0-1.5.673-1.5 1.5s.673 1.5 1.5 1.5h1.5c1.103 0 2 .897 2 2v1.5c0 .276-.224.5-.5.5s-.5-.224-.5-.5v-1.5c0-.551-.449-1-1-1h-1.5c-1.378 0-2.5-1.122-2.5-2.5s1.122-2.5 2.5-2.5zm-8 7c.827 0 1.5.673 1.5 1.5 0 .276-.224.5-.5.5s-.5-.224-.5-.5-.224-.5-.5-.5-.5.224-.5.5c0 1.378-1.122 2.5-2.5 2.5s-2.5-1.122-2.5-2.5c0-.276.224-.5.5-.5s.5.224.5.5c0 .827.673 1.5 1.5 1.5s1.5-.673 1.5-1.5.673-1.5 1.5-1.5zm8 0c.827 0 1.5.673 1.5 1.5s.673 1.5 1.5 1.5 1.5-.673 1.5-1.5c0-.276.224-.5.5-.5s.5.224.5.5c0 1.378-1.122 2.5-2.5 2.5s-2.5-1.122-2.5-2.5c0-.276-.224-.5-.5-.5s-.5.224-.5.5-.224.5-.5.5-.5-.224-.5-.5c0-.827.673-1.5 1.5-1.5z"
  />
</svg>