<svg xmlns="http://www.w3.org/2000/svg" version="1.1" width="128" height="128" data-icon="briefcase" data-container-transform="translate(0 10)" viewBox="0 0 128 128">
  <path d="M51 0c-2.738 0-5 2.262-5 5v7h-44.5c-.828 0-1.5.672-1.5 1.5v33.5c0 1.654 1.346 3 3 3h49v-1c0-1.654 1.346-3 3-3h16c1.654 0 3 1.346 3 3v1h51c1.654 0 3-1.346 3-3v-33.5c0-.828-.672-1.5-1.5-1.5h-46.5v-7c0-2.738-2.262-5-5-5h-24zm0 4h24c.576 0 1 .424 1 1v7h-26v-7c0-.576.424-1 1-1zm4 44c-.55 0-1 .45-1 1v4c0 .55.45 1 1 1h16c.55 0 1-.45 1-1v-4c0-.55-.45-1-1-1h-16zm-55 2.969v55.531c0 .828.672 1.5 1.5 1.5h125c.828 0 1.5-.672 1.5-1.5v-55.531c-.838.635-1.87 1.031-3 1.031h-51v1c0 1.654-1.346 3-3 3h-16c-1.654 0-3-1.346-3-3v-1h-49c-1.13 0-2.162-.396-3-1.031z"
  transform="translate(0 10)" />
</svg>