<?xml version="1.0" encoding="UTF-8"?>
<svg width="100px" height="26px" viewBox="0 0 100 26" version="1.1" xmlns="http://www.w3.org/2000/svg" xmlns:xlink="http://www.w3.org/1999/xlink">
    <g id="Page-1" stroke="none" stroke-width="1" fill="none" fill-rule="evenodd">
        <g id="New-Tab" transform="translate(-492.000000, -128.000000)" fill="#3A79C2" fill-rule="nonzero">
            <g id="Logo" transform="translate(451.000000, 14.000000)">
                <g id="Logo-and-Text" transform="translate(41.000000, 31.000000)">
                    <path d="M10.1694915,104.449554 C10.9581019,104.449554 11.6025163,104.348434 12.1027542,104.146191 C12.6029921,103.943948 12.9943489,103.682225 13.2768362,103.361016 C13.5593234,103.039806 13.7535305,102.676964 13.8594633,102.272478 C13.965396,101.867992 14.0183616,101.457563 14.0183616,101.041181 C14.0183616,100.565314 13.9565684,100.137041 13.8329802,99.7563487 C13.709392,99.3756558 13.4975297,99.0544511 13.197387,98.7927248 C12.8972443,98.5309985 12.5000025,98.3287584 12.0056497,98.1859986 C11.511297,98.0432388 10.8874802,97.97186 10.1341808,97.97186 L5.96751412,97.97186 L5.96751412,104.449554 L10.1694915,104.449554 Z M5.96751412,87.5147563 L5.96751412,93.9389156 L9.07485876,93.9389156 C9.73399576,93.9389156 10.3283872,93.8913297 10.8580508,93.7961565 C11.3877145,93.7009833 11.8379219,93.5344327 12.2086864,93.2964997 C12.579451,93.0585666 12.8619341,92.7314137 13.0561441,92.3150309 C13.2503541,91.8986481 13.3474576,91.3752033 13.3474576,90.7446809 C13.3474576,90.126055 13.2709518,89.6115326 13.1179379,89.2010981 C12.9649239,88.7906637 12.7295214,88.4605366 12.4117232,88.2107069 C12.093925,87.9608773 11.6907981,87.7824302 11.2023305,87.6753603 C10.7138629,87.5682905 10.1341841,87.5147563 9.46327684,87.5147563 L5.96751412,87.5147563 Z M9.46327684,83 C11.2405927,83 12.753054,83.1665506 14.0007062,83.4996568 C15.2483584,83.832763 16.2664744,84.3026737 17.0550847,84.9094029 C17.8436951,85.5161321 18.4174888,86.2537133 18.7764831,87.1221688 C19.1354773,87.9906243 19.3149718,88.9601868 19.3149718,90.0308854 C19.3149718,90.6138213 19.2325809,91.1759296 19.0677966,91.7172272 C18.9030124,92.2585248 18.6440696,92.7641249 18.2909605,93.2340426 C17.9378513,93.7039603 17.4847014,94.1352074 16.9314972,94.5277968 C16.3782929,94.9203863 15.7132807,95.2594358 14.9364407,95.5449554 C16.6313644,95.9613382 17.8848829,96.6334888 18.6970339,97.5614276 C19.5091849,98.4893663 19.9152542,99.69091 19.9152542,101.166095 C19.9152542,102.272483 19.7033919,103.301528 19.279661,104.25326 C18.8559301,105.204992 18.2350559,106.034771 17.4170198,106.742622 C16.5989837,107.450473 15.5896953,108.003658 14.3891243,108.402196 C13.1885533,108.800734 11.8173335,109 10.2754237,109 L0,109 L0,83 L9.46327684,83 Z M36.4230226,95.2237474 C37.2351736,95.2237474 37.9266685,95.1196533 38.4975282,94.9114619 C39.068388,94.7032705 39.5362505,94.4147811 39.9011299,94.0459849 C40.2660094,93.6771887 40.5308372,93.2459416 40.6956215,92.7522306 C40.8604057,92.2585196 40.9427966,91.7261525 40.9427966,91.1551132 C40.9427966,90.0130348 40.5749801,89.1207994 39.8393362,88.4783802 C39.1036922,87.8359611 37.9649324,87.5147563 36.4230226,87.5147563 L34.0218927,87.5147563 L34.0218927,95.2237474 L36.4230226,95.2237474 Z M49.0995763,109 L43.6970339,109 C42.6965581,109 41.9785803,108.619313 41.5430791,107.857927 L37.2704802,100.30954 C37.0703851,99.9883306 36.8467526,99.7533753 36.5995763,99.6046671 C36.3523999,99.455959 35.9992961,99.381606 35.5402542,99.381606 L34.0218927,99.381606 L34.0218927,109 L28.0543785,109 L28.0543785,83 L36.4230226,83 C38.2827306,83 39.8687552,83.1933177 41.1811441,83.5799588 C42.4935329,83.9666 43.5646145,84.5049153 44.3944209,85.1949211 C45.2242273,85.8849268 45.8274463,86.6998352 46.204096,87.6396706 C46.5807458,88.579506 46.7690678,89.6026026 46.7690678,90.7089911 C46.7690678,91.5536533 46.6572516,92.3507169 46.4336158,93.1002059 C46.20998,93.8496949 45.8804165,94.5426644 45.4449153,95.1791352 C45.009414,95.815606 44.4709307,96.3836651 43.8294492,96.8833219 C43.1879676,97.3829812 42.4493921,97.7934095 41.6137006,98.1146191 C42.0021206,98.3168621 42.3669945,98.5696622 42.7083333,98.8730268 C43.0496721,99.1763914 43.3556954,99.5362596 43.6264124,99.9526424 L49.0995763,109 Z M61.6878531,109 L55.6850282,109 L55.6850282,83 L61.6878531,83 L61.6878531,109 Z M100,83 L100,109 L94.7387006,109 L94.7387006,94.0459849 C94.7387006,93.700982 94.7475282,93.3262432 94.7651836,92.921757 C94.7828391,92.5172709 94.8152069,92.1068426 94.8622881,91.6904598 L88.029661,105.05628 C87.8177956,105.472663 87.53237,105.787919 87.1733757,106.002059 C86.8143814,106.216199 86.4053695,106.323267 85.9463277,106.323267 L85.1341808,106.323267 C84.6751389,106.323267 84.266127,106.216199 83.9071328,106.002059 C83.5481385,105.787919 83.2627129,105.472663 83.0508475,105.05628 L76.2182203,91.6547701 C76.2535313,92.0830495 76.2829566,92.5024001 76.3064972,92.9128346 C76.3300378,93.323269 76.3418079,93.700982 76.3418079,94.0459849 L76.3418079,109 L71.0805085,109 L71.0805085,83 L75.6355932,83 C75.8945399,83 76.1211148,83.0059482 76.3153249,83.0178449 C76.5095349,83.0297415 76.6831442,83.065431 76.8361582,83.1249142 C76.9891721,83.1843975 77.1274711,83.2765951 77.2510593,83.40151 C77.3746475,83.5264248 77.4952913,83.7018977 77.6129944,83.9279341 L84.2337571,97.1153054 C84.4691631,97.5673781 84.6957381,98.0372888 84.9134887,98.5250515 C85.1312393,99.0128142 85.3401591,99.512466 85.5402542,100.024022 C85.7403494,99.5005693 85.9492692,98.989021 86.1670198,98.4893617 C86.3847704,97.9897024 86.6172304,97.5138435 86.8644068,97.0617708 L93.4675141,83.9279341 C93.5852172,83.7018977 93.705861,83.5264248 93.8294492,83.40151 C93.9530373,83.2765951 94.0913363,83.1843975 94.2443503,83.1249142 C94.3973642,83.065431 94.5709736,83.0297415 94.7651836,83.0178449 C94.9593936,83.0059482 95.1859686,83 95.4449153,83 L100,83 Z" id="BRIM"></path>
                </g>
            </g>
        </g>
    </g>
</svg>
