<svg xmlns="http://www.w3.org/2000/svg" version="1.1" width="16" height="16" data-icon="british-pound" data-container-transform="translate(2)" viewBox="0 0 16 16">
  <path d="M5.5 0c-2.473 0-4.5 2.027-4.5 4.5 0 1.397.515 2.515.875 3.5h-1.875v1h2.156c.222 1.177.109 2.298-1.875 4.281l-.281.313v2.406h11v-2h-8.813c1.549-1.832 2.118-3.56 2-5h2.813v-1h-3c-.38-1.444-1-2.54-1-3.5 0-1.393 1.107-2.5 2.5-2.5.783 0 1.428.229 1.844.563.416.334.656.741.656 1.438h2c0-1.237-.555-2.317-1.406-3-.851-.683-1.943-1-3.094-1z"
  transform="translate(2)" />
</svg>