<svg xmlns="http://www.w3.org/2000/svg" version="1.1" data-icon="browser-type-internetexplorer" width="32" height="32" data-container-transform="scale(1 1 ) translate(0 )" viewBox="0 0 32 32">
  <path d="M26.219 0c-.952-.005-1.672.129-1.813.156-2.145.42-4.138 1.083-5.969 1.938-2.86-.161-5.729.526-8.188 2-2.316 1.388-4.245 3.436-5.469 5.844-.529 1.04-.926 2.144-1.188 3.281 3.601-4.04 6.147-5.66 7.656-6.313-2.768 2.473-5.148 5.394-7.125 8.531-.877 1.392-1.689 2.832-2.406 4.313-.236.488-.505.86-.906 2.063-4.093 14.62 8.656 8.453 10.438 7.531 2.953 1.459 6.386 1.862 9.594 1.125 2.711-.623 5.23-2.058 7.156-4.063 1.409-1.466 2.475-3.209 3.156-5.125h-7.531c-1.512 2.555-4.735 3.657-7.563 2.906-2.568-.682-4.618-2.888-4.75-5.594-.005-.094 0-.187 0-.281h20.563c.078-.606.125-1.247.125-1.875 0-2.53-.666-4.904-1.813-6.969 3.667-8.298-1.112-9.452-3.969-9.469zm1.469 1.781c.593.04 1.157.216 1.625.531 1.238.836 2.237 2.143.531 6.563-1.636-2.631-4.106-4.71-7.031-5.844.998-.482 3.097-1.37 4.875-1.25zm-9.688 6.656c2.035.076 4.027 1.072 5.219 2.781.647.927 1.023 2.025 1.063 3.156h-13c.095-2.718 2.138-4.991 4.719-5.688.664-.18 1.322-.275 2-.25zm-13.969 12.75c1.123 3.229 3.385 5.908 6.281 7.625-1.441.793-5.279 2.586-7.313.5-1.008-1.034-1.195-3.535 1.031-8.125z"
  />
</svg>