<svg xmlns="http://www.w3.org/2000/svg" version="1.1" data-icon="browser-type-firefox" width="32" height="32" data-container-transform="scale(1 1 ) translate(0 )" viewBox="0 0 32 32">
  <path d="M15.938 0c-4.413 0-8.368 1.936-11.094 5-.207-.226-.411-.486-.594-.781-.028-.025-.038.077-.063.063-.002-.002-.029.004-.031 0-.242-.436-.449-1.187-.469-1.719 0 0-.397.247-.656 1.063-.046.144-.061.233-.094.313-.004-.017.009-.26 0-.25-.05.102-.173.253-.219.438-.035.138-.103.234-.125.406-.003-.042-.022-.156-.031-.156-.092.243-.175.513-.25.813-.016.063-.016.122-.031.188-.002.011-.028.019-.031.031-.002.01.002.02 0 .031-.06.279-.092.58-.125.906-.05.46-.074.99-.031 1.594-.001.087.003.172 0 .25-.248.342-.431.667-.563.906-.517.884-1.064 2.352-1.5 4.75.042-.127.266-.768.719-1.594-.371 1.165-.625 2.955-.469 5.594.019-.177.124-.769.313-1.625.1 1.831.512 4.089 1.938 6.531 1.087 1.862 3.968 6.194 11.156 7.813-.789-.228-1.281-.688-1.281-.688s2.666.855 4.625.781c-.614-.106-.719-.406-.719-.406s6.966.411 9.375-2.875c-.823.964-2.899 1.241-3.688 1.25.15-.138.307-.265.5-.375 1.351-.773 3.703-1.055 6.219-3.531 1.577-1.553 1.735-2.74 1.906-3.844-.247 1.359-1.472 2.185-2.813 2.938.486-.644.935-1.313 1.313-2.031.445-.536.86-1.068 1.156-1.594.08-.142.16-.282.25-.469.856-1.671 1.796-4.586 1.375-7.344-.065-.46-.194-.902-.344-1.344-.015.044-.285.757-.625 1.906.183-1.714.035-3.504-.563-5.156-.263-.727-.556-1.342-.875-1.844-.415-.705-.893-1.247-1.281-1.563-.016-.016-.047-.016-.063-.031-.022-.025-.071-.069-.094-.094 0 0 .037.185.094.5-.868-1.364-2.188-2-2.188-2s.057.367.156 1.156c-.224-.178-.479-.334-.719-.5-.09-.075-.189-.146-.281-.219-.012-.008-.019-.024-.031-.031-2.525-1.976-5.71-3.156-9.156-3.156zm0 1c3.167 0 6.1 1.081 8.438 2.875.958.997 1.502 1.929 1.906 2.781-.788-.806-2.12-1.648-3.031-1.719 1.367 1.016 3.649 4.026 3.406 8.594-.35-.736-1.013-1.909-1.469-2.313.49 4.487.079 5.464-.219 6.656-.065-.548-.262-.969-.375-1.219 0 0-.058 1.408-.969 3.406-.69 1.513-1.405 1.991-1.719 1.938-.086-.006-.126-.059-.125-.063.022-.196.052-.4 0-.531 0 0-.312.111-.5.375-.076.106-.153.215-.281.313-.022.017.204-.296.188-.281-.113.092-.253.186-.375.313-.447.464-.854.989-1.063.844.195-.06.363-.319.406-.563-.176.123-.625.477-1.625.625-.409.061-2.157.376-4.469-.781.337-.038.866-.165 1.25.063-.385-.42-1.334-.321-2-.531-.581-.184-1.315-1.026-1.75-1.438 1.78.436 3.657.122 4.75-.625 1.104-.755 1.758-1.286 2.344-1.156.586.131.988-.477.531-1-.455-.523-1.561-1.22-3.063-.844-1.149.288-2.135 1.204-3.75.563-.098-.039-.21-.074-.313-.125-.103-.051.359.064.25 0-.31-.114-.891-.371-1.031-.469-.023-.017.246.048.219.031-1.532-.907-1.438-1.645-1.438-2.094 0-.359.216-.835.625-1.063.221.079.344.156.344.156s-.091-.174-.156-.25c.015-.006.046.004.063 0 .18.061.576.209.781.313.279.14.375.281.375.281s.068-.044 0-.188c-.028-.06-.13-.238-.406-.406.145.057.299.123.469.219.053-.246.166-.492.094-.938-.05-.314-.047-.386-.125-.5-.067-.098.021-.15.125-.063-.021-.067-.059-.12-.094-.188.003-.001-.002-.021 0-.031.477-.579 2.386-1.455 2.813-1.906.051-.054.089-.084.125-.125.25-.189.359-.357.469-.625.111-.272.24-.928-.125-1.063-.3-.072-.548-.103-1.031-.094-.373-.022-.863-.037-1.531-.031-.672.005-1.111-.409-1.375-.781-.053-.081-.114-.149-.156-.219-.058-.104-.095-.176-.125-.25.294-1.065.895-2 1.813-2.75.056-.047-.239.019-.188-.031.062-.058.459-.24.531-.281.094-.053-.433-.186-.875-.094-.444.092-.521.131-.75.25.093-.096.386-.235.313-.219-.482.108-1.047.408-1.531.75-.004-.043.021-.055.031-.125-.229.119-.796.519-.938.844 0-.071.009-.078 0-.156-.157.144-.302.312-.438.5-.002.003-.03-.002-.031 0-1.349-.335-2.488-.279-3.469 0 2.54-2.8 6.183-4.563 10.25-4.563z"
  />
</svg>