<svg xmlns="http://www.w3.org/2000/svg" version="1.1" data-icon="browser-type-safari" width="128" height="128" data-container-transform="translate(0 ) scale(1 1 )" viewBox="0 0 128 128">
  <path d="M64 0c-35.346 0-64 28.654-64 64 0 35.346 28.654 64 64 64 35.346 0 64-28.654 64-64 0-35.346-28.654-64-64-64zm0 4c33.084 0 60 26.916 60 60s-26.916 60-60 60-60-26.916-60-60 26.916-60 60-60zm-.719 3.469v11.563h1.438v-11.563h-1.438zm-4.125.219l-1.406.125.594 5.875 1.406-.125-.594-5.875zm9.688 0l-.594 5.875 1.406.125.594-5.875-1.406-.125zm-15.188.75l-1.375.281 2.25 11.313 1.375-.281-2.25-11.313zm20.688 0l-2.25 11.313 1.375.281 2.25-11.313-1.375-.281zm-26.063 1.281l-1.375.406 1.719 5.625 1.344-.406-1.688-5.625zm31.438 0l-1.688 5.625 1.344.406 1.719-5.625-1.375-.406zm-36.688 1.781l-1.313.563 4.406 10.656 1.313-.531-4.406-10.688zm41.938 0l-4.406 10.688 1.313.531 4.406-10.656-1.313-.563zm-47 2.313l-1.219.688 2.75 5.188 1.25-.656-2.781-5.219zm52.063 0l-2.781 5.219 1.25.656 2.75-5.188-1.219-.688zm-56.844 2.813l-1.188.781 6.438 9.594 1.156-.781-6.406-9.594zm61.625 0l-6.406 9.594 1.156.781 6.438-9.594-1.188-.781zm-66.125 3.25l-1.094.875 3.75 4.563 1.094-.906-3.75-4.531zm70.625 0l-3.75 4.531 1.094.906 3.75-4.563-1.094-.875zm-74.781 3.656l-1 1 8.188 8.188 1-1-8.188-8.188zm79.25.5l-46.688 33.25-32.875 46.688 47.375-32.906 32.188-47.031zm-83.031 3.563l-.875 1.094 4.531 3.75.906-1.094-4.563-3.75zm86.5 0l-4.563 3.75.906 1.094 4.531-3.75-.875-1.094zm-89.844 4.406l-.781 1.188 9.594 6.406.781-1.156-9.594-6.438zm93.188 0l-9.594 6.438.781 1.156 9.594-6.406-.781-1.188zm-96.094 4.75l-.688 1.219 5.219 2.781.656-1.25-5.188-2.75zm99 0l-5.188 2.75.656 1.25 5.219-2.781-.688-1.219zm-101.438 4.969l-.563 1.313 10.688 4.406.531-1.313-10.656-4.406zm103.875 0l-10.656 4.406.531 1.313 10.688-4.406-.563-1.313zm-105.813 5.188l-.406 1.375 5.625 1.688.406-1.344-5.625-1.719zm107.75 0l-5.625 1.719.406 1.344 5.625-1.688-.406-1.375zm-109.156 5.375l-.281 1.375 11.313 2.25.281-1.375-11.313-2.25zm110.563 0l-11.313 2.25.281 1.375 11.313-2.25-.281-1.375zm-111.469 5.469l-.125 1.406 5.875.594.125-1.406-5.875-.594zm112.375 0l-5.875.594.125 1.406 5.875-.594-.125-1.406zm-112.719 5.531v1.438h11.563v-1.438h-11.563zm101.5 0v1.438h11.563v-1.438h-11.563zm-95.406 4.969l-5.875.594.125 1.406 5.875-.594-.125-1.406zm100.875 0l-.125 1.406 5.875.594.125-1.406-5.875-.594zm-94.688 3.844l-11.313 2.25.281 1.375 11.313-2.25-.281-1.375zm88.5 0l-.281 1.375 11.313 2.25.281-1.375-11.313-2.25zm-92.906 5.938l-5.625 1.688.406 1.375 5.625-1.719-.406-1.344zm97.313 0l-.406 1.344 5.625 1.719.406-1.375-5.625-1.688zm-90.469 2.531l-10.688 4.406.563 1.313 10.656-4.406-.531-1.313zm83.625 0l-.531 1.313 10.656 4.406.563-1.313-10.688-4.406zm-86.781 6.688l-5.219 2.781.688 1.219 5.188-2.75-.656-1.25zm89.938 0l-.656 1.25 5.188 2.75.688-1.219-5.219-2.781zm-82.75 1.156l-9.594 6.406.781 1.188 9.594-6.438-.781-1.156zm75.563 0l-.781 1.156 9.594 6.438.781-1.188-9.594-6.406zm-5.5 6.875l-1 1 8.188 8.188 1-1-8.188-8.188zm-71.875.281l-4.531 3.75.875 1.094 4.563-3.75-.906-1.094zm79.188 0l-.906 1.094 4.563 3.75.875-1.094-4.531-3.75zm-65.156 5.438l-6.438 9.594 1.188.781 6.406-9.594-1.156-.781zm51.125 0l-1.156.781 6.406 9.594 1.188-.781-6.438-9.594zm-58.219 1.688l-3.75 4.563 1.094.875 3.75-4.531-1.094-.906zm65.313 0l-1.094.906 3.75 4.531 1.094-.875-3.75-4.563zm-50.531 2.594l-4.406 10.656 1.313.563 4.406-10.688-1.313-.531zm35.75 0l-1.313.531 4.406 10.688 1.313-.563-4.406-10.656zm-27.344 2.688l-2.25 11.313 1.375.281 2.25-11.313-1.375-.281zm18.938 0l-1.375.281 2.25 11.313 1.375-.281-2.25-11.313zm-33.969.344l-2.75 5.188 1.219.688 2.781-5.219-1.25-.656zm49 0l-1.25.656 2.781 5.219 1.219-.688-2.75-5.188zm-25.219.656v11.563h1.438v-11.563h-1.438zm-14.656 3.281l-1.719 5.625 1.375.406 1.688-5.625-1.344-.406zm30.75 0l-1.344.406 1.688 5.625 1.375-.406-1.719-5.625zm-21.031 2.063l-.594 5.875 1.406.125.594-5.875-1.406-.125zm11.313 0l-1.406.125.594 5.875 1.406-.125-.594-5.875z"
  />
</svg>