<svg xmlns="http://www.w3.org/2000/svg" version="1.1" data-icon="browser-type-internetexplorer" width="128" height="128" data-container-transform="translate(0 1 ) scale(1 1 )" viewBox="0 0 128 128">
  <path d="M104.906 0c-3.809-.022-6.749.452-7.313.563-8.582 1.679-16.52 4.394-23.844 7.813-11.441-.644-22.948 2.139-32.781 8.031-9.265 5.552-16.887 13.745-21.781 23.375-2.115 4.16-3.739 8.576-4.781 13.125 14.405-16.161 24.494-22.703 30.531-25.313-11.072 9.893-20.53 21.579-28.438 34.125-3.508 5.566-6.756 11.328-9.625 17.25-.946 1.952-2.054 3.504-3.656 8.313-16.373 58.479 34.688 33.811 41.813 30.125 11.811 5.835 25.54 7.385 38.375 4.438 10.844-2.491 20.856-8.166 28.563-16.188 5.636-5.866 9.995-12.928 12.719-20.594h-30.219c-6.049 10.219-18.85 14.754-30.156 11.75-10.272-2.729-18.505-11.644-19.031-22.469-.018-.377-.031-.748-.031-1.125h82.281c.312-2.426.469-4.896.469-7.406v-.031c0-10.118-2.631-19.615-7.219-27.875 14.666-33.191-4.448-37.841-15.875-37.906zm4.063 7.125c3.037-.063 5.943.484 8.281 2.063 4.953 3.343 8.917 8.6 2.094 26.281-6.543-10.523-16.361-18.774-28.063-23.313 3.66-1.768 11.005-4.893 17.688-5.031zm-38.969 26.688c8.836-.32 17.71 3.626 22.875 11.031 2.586 3.708 4.092 8.103 4.25 12.625h-52c.38-10.872 8.487-19.96 18.813-22.75 1.991-.538 4.023-.832 6.063-.906zm-53.844 50.875c4.493 12.917 13.443 23.755 25.031 30.625-5.763 3.172-21.049 10.316-29.188 1.969-4.034-4.137-4.746-14.232 4.156-32.594z"
  transform="translate(0 1)" />
</svg>