<svg xmlns="http://www.w3.org/2000/svg" version="1.1" data-icon="browser-type-chrome" width="32" height="32" data-container-transform="scale(1 1 ) translate(0 )" viewBox="0 0 32 32">
  <path d="M16 0c-5.091 0-9.631 2.389-12.563 6.094l4.594 8.031c.853-3.639 4.098-6.313 7.969-6.313h13.75c-2.794-4.671-7.912-7.812-13.75-7.813zm-13.938 8.125c-1.319 2.326-2.063 5.01-2.063 7.875 0 8.002 5.891 14.631 13.563 15.813l4.719-7.938c-.739.213-1.51.313-2.281.313-2.966 0-5.706-1.596-7.156-4.188l-6.781-11.875zm13.938 1.875c-3.308 0-6 2.692-6 6 0 1.025.253 2.049.75 2.938 1.063 1.897 3.081 3.063 5.25 3.063 2.019 0 3.883-1.002 5-2.688.648-.98 1-2.131 1-3.313 0-3.308-2.692-6-6-6zm5.594 0c1.657 1.538 2.594 3.692 2.594 6 0 1.605-.436 3.164-1.313 4.5l-6.875 11.5c8.837 0 16-7.163 16-16 0-2.122-.405-4.147-1.156-6h-9.25z"
  />
</svg>