<svg xmlns="http://www.w3.org/2000/svg" version="1.1" width="32" height="32" data-icon="browser-viewport" data-container-transform="translate(0 2)" viewBox="0 0 32 32">
  <path d="M.5 0c-.276 0-.5.224-.5.5v26c0 .276.224.5.5.5h31c.276 0 .5-.224.5-.5v-26c0-.276-.224-.5-.5-.5h-31zm2.5 2v1l-1-.5 1-.5zm1 0l1 .5-1 .5v-1zm2.5 0h23c.276 0 .5.224.5.5s-.224.5-.5.5h-23c-.276 0-.5-.224-.5-.5s.224-.5.5-.5zm-4.5 3h28v20h-28v-20zm1 1v4h1v-3h3v-1h-4zm22 0v1h3v3h1v-4h-4zm-22 14v4h4v-1h-3v-3h-1zm25 0v3h-3v1h4v-4h-1z"
  transform="translate(0 2)" />
</svg>