<svg xmlns="http://www.w3.org/2000/svg" version="1.1" data-icon="browser-type-safari" width="16" height="16" data-container-transform="scale(1 1 ) translate(0 )" viewBox="0 0 16 16">
  <path d="M8 0c-4.418 0-8 3.582-8 8s3.582 8 8 8 8-3.582 8-8-3.582-8-8-8zm0 .531c4.119 0 7.469 3.35 7.469 7.469s-3.35 7.469-7.469 7.469-7.469-3.35-7.469-7.469 3.35-7.469 7.469-7.469zm-.094.406v1.438h.188v-1.438h-.188zm-.688.031l.063.75.188-.031-.063-.719h-.188zm1.375 0l-.063.719.188.031.063-.75h-.188zm-1.875.094l-.188.031.281 1.406.188-.031-.281-1.406zm2.563 0l-.281 1.406.188.031.281-1.406-.188-.031zm-3.25.156l-.156.063.219.688.156-.063-.219-.688zm3.938 0l-.219.688.156.063.219-.688-.156-.063zm-4.594.219l-.156.063.563 1.344.156-.063-.563-1.344zm5.25 0l-.563 1.344.156.063.563-1.344-.156-.063zm-5.875.281l-.156.094.344.656.156-.094-.344-.656zm6.5 0l-.344.656.156.094.344-.656-.156-.094zm-7.094.344l-.156.125.813 1.188.125-.094-.781-1.219zm7.688 0l-.781 1.219.125.094.813-1.188-.156-.125zm-8.25.406l-.156.125.469.563.156-.094-.469-.594zm8.813 0l-.469.594.156.094.469-.563-.156-.125zm-9.344.469l-.125.125 1.031 1.031.125-.125-1.031-1.031zm9.906.063l-5.844 4.156-4.094 5.844 5.906-4.125 4.031-5.875zm-10.375.438l-.125.156.594.469.094-.156-.563-.469zm10.813 0l-.563.469.094.156.594-.469-.125-.156zm-11.219.563l-.125.156 1.219.781.094-.125-1.188-.813zm11.625 0l-1.188.813.094.125 1.219-.781-.125-.156zm-12 .594l-.094.156.656.344.094-.156-.656-.344zm12.375 0l-.656.344.094.156.656-.344-.094-.156zm-12.688.625l-.063.156 1.344.563.063-.156-1.344-.563zm13 0l-1.344.563.063.156 1.344-.563-.063-.156zm-13.219.656l-.063.156.688.219.063-.156-.688-.219zm13.438 0l-.688.219.063.156.688-.219-.063-.156zm-13.625.656l-.031.188 1.406.281.031-.188-1.406-.281zm13.813 0l-1.406.281.031.188 1.406-.281-.031-.188zm-13.938.688v.188l.719.063.031-.188-.75-.063zm14.063 0l-.75.063.031.188.719-.063v-.188zm-14.094.688v.188h1.438v-.188h-1.438zm12.688 0v.188h1.438v-.188h-1.438zm-11.938.625l-.719.063v.188l.75-.063-.031-.188zm12.625 0l-.031.188.75.063v-.188l-.719-.063zm-11.844.469l-1.406.281.031.188 1.406-.281-.031-.188zm11.063 0l-.031.188 1.406.281.031-.188-1.406-.281zm-11.625.75l-.688.219.063.156.688-.219-.063-.156zm12.188 0l-.063.156.688.219.063-.156-.688-.219zm-11.313.313l-1.344.563.063.156 1.344-.563-.063-.156zm10.438 0l-.063.156 1.344.563.063-.156-1.344-.563zm-10.844.844l-.656.344.094.156.656-.344-.094-.156zm11.25 0l-.094.156.656.344.094-.156-.656-.344zm-10.344.156l-1.219.781.125.156 1.188-.813-.094-.125zm9.438 0l-.094.125 1.188.813.125-.156-1.219-.781zm-.688.844l-.125.125 1.031 1.031.125-.125-1.031-1.031zm-8.969.031l-.594.469.125.156.563-.469-.094-.156zm9.875 0l-.094.156.563.469.125-.156-.594-.469zm-8.125.688l-.813 1.188.156.125.781-1.219-.125-.094zm6.375 0l-.125.094.781 1.219.156-.125-.813-1.188zm-7.281.219l-.469.563.156.125.469-.594-.156-.094zm8.188 0l-.156.094.469.594.156-.125-.469-.563zm-6.313.313l-.563 1.344.156.063.563-1.344-.156-.063zm4.438 0l-.156.063.563 1.344.156-.063-.563-1.344zm-3.406.344l-.281 1.406.188.031.281-1.406-.188-.031zm2.375 0l-.188.031.281 1.406.188-.031-.281-1.406zm-4.25.031l-.344.656.156.094.344-.656-.156-.094zm6.125 0l-.156.094.344.656.156-.094-.344-.656zm-3.156.094v1.438h.188v-1.438h-.188zm-1.813.406l-.219.688.156.063.219-.688-.156-.063zm3.813 0l-.156.063.219.688.156-.063-.219-.688zm-2.625.25l-.063.75h.188l.063-.719-.188-.031zm1.438 0l-.188.031.063.719h.188l-.063-.75z"
  />
</svg>