<svg xmlns="http://www.w3.org/2000/svg" version="1.1" data-icon="browser-type-chrome" width="128" height="128" data-container-transform="translate(0 ) scale(1 1 )" viewBox="0 0 128 128">
  <path d="M64 0c-20.362 0-38.497 9.524-50.219 24.344l18.281 32.094c3.413-14.554 16.45-25.25 31.938-25.25h54.969c-11.176-18.684-31.615-31.188-54.969-31.188zm-55.719 32.469c-5.277 9.305-8.281 20.069-8.281 31.531 0 32.009 23.5 58.527 54.188 63.25l18.938-31.75c-2.957.852-6.042 1.313-9.125 1.313-11.866 0-22.825-6.45-28.625-16.813l-27.094-47.531zm55.719 7.531c-13.234 0-24 10.766-24 24 0 4.101 1.044 8.135 3.031 11.688 4.252 7.588 12.291 12.313 20.969 12.313 8.077 0 15.566-4.038 20.031-10.781 2.591-3.921 3.969-8.496 3.969-13.219 0-13.234-10.766-24-24-24zm22.344 0c6.628 6.152 10.469 14.769 10.469 24 0 6.418-1.867 12.625-5.375 17.969l-27.438 46.031c35.346 0 64-28.654 64-64 0-8.489-1.654-16.587-4.656-24h-37z"
  />
</svg>