<svg xmlns="http://www.w3.org/2000/svg" version="1.1" width="32" height="32" data-icon="brush" viewBox="0 0 32 32">
  <path d="M30.906.375c-.338.048-.75.223-1.125.5l-16.563 12.25c-.667.491-1.505 1.478-1.875 2.219l-.313.656c1.786.329 3.36 1.293 4.469 2.75.466.613.813 1.264 1.063 1.969l.094-.063c.741-.37 1.728-1.209 2.219-1.875l12.25-16.563c.491-.667.651-1.442.375-1.719-.069-.069-.16-.11-.281-.125-.091-.011-.2-.016-.313 0zm-21.469 18.5c-1.937.12-3.583 1.537-3.938 3.5l-.031.188c-.475 3.468-2.519 6.521-5.469 8.313.993.525 2.067.879 3.188 1.031 5.136.699 9.911-2.825 10.75-7.906l.031-.281c.318-2.342-1.344-4.494-3.688-4.813-.285-.039-.567-.048-.844-.031z"
  />
</svg>