<svg xmlns="http://www.w3.org/2000/svg" version="1.1" width="128" height="128" data-icon="brush" data-container-transform="translate(0 1)" viewBox="0 0 128 128">
  <path d="M124.031 2.75c-.693.063-1.586.462-2.406 1.094l-73.25 56.313c-1.314 1.01-2.788 3.115-3.313 4.688l-4.063 12.094c5.25 1.611 9.46 5.106 12.063 9.531l10.25-5.125c1.482-.741 3.535-2.388 4.563-3.688l56.281-71.313c1.027-1.301 1.396-2.792.844-3.344-.207-.207-.553-.288-.969-.25zm-89.688 81.25c-5.494.141-10.5 3.703-12.281 9.094l-.188.656c-3.385 12.239-11.318 22.611-21.875 29.219 1.632.728 3.325 1.341 5.063 1.813 18.049 4.909 36.74-5.403 42.188-23.063l.281-1.031c1.935-7.025-2.266-14.294-9.344-16.219-1.285-.349-2.576-.501-3.844-.469z"
  transform="translate(0 1)" />
</svg>