<svg xmlns="http://www.w3.org/2000/svg" version="1.1" width="16" height="16" data-icon="brush" viewBox="0 0 16 16">
  <path d="M14.906.313c-.238.015-.494.121-.719.281l-5.375 3.813c-.449.321-1.003 1.006-1.25 1.5l-.125.188c-.062.123-.076.263-.094.406.942.457 1.699 1.215 2.156 2.156.143-.018.283-.032.406-.094l.188-.125c.494-.247 1.179-.8 1.5-1.25l3.813-5.375c.321-.449.37-1.036.094-1.313-.138-.138-.356-.202-.594-.188zm-9.563 7.688c-1.473 0-2.688 1.183-2.688 2.656-.002 1.973-1.064 3.703-2.656 4.625.783.449 1.687.719 2.656.719 2.945 0 5.344-2.399 5.344-5.344 0-1.473-1.183-2.656-2.656-2.656z"
  />
</svg>