<svg xmlns="http://www.w3.org/2000/svg" version="1.1" width="16" height="16" data-icon="bug" viewBox="0 0 16 16">
  <path d="M3.844 0a.502.502 0 0 0 .156 1c.354 0 .614.145.875.406s.485.631.656 1.031c.063.147.107.294.156.438-.702.806-.945 1.989-.375 2.844-.019.013-.044.018-.063.031l-2.469-1.656a.5.5 0 0 0-.375-.094.5.5 0 0 0-.188.906l2.281 1.531c-.224.246-.414.516-.594.813l-3.625 1.813a.5.5 0 1 0 .438.875l2.563-1.281c-.169.578-.281 1.195-.281 1.844 0 .042-.001.083 0 .125l-1.906 2.563a.513.513 0 1 0 .813.625l1.281-1.719c.404 1.634 1.422 2.929 2.719 3.531.585-.437 1.094-1.214 1.094-2.125v-6c0-.276.224-.5.5-.5s.5.224.5.5v6c0 .911.509 1.688 1.094 2.125 1.297-.603 2.315-1.897 2.719-3.531l1.281 1.719a.513.513 0 1 0 .813-.625l-1.906-2.563c.001-.042 0-.083 0-.125 0-.649-.113-1.266-.281-1.844l2.563 1.281a.5.5 0 1 0 .438-.875l-3.625-1.813c-.18-.296-.37-.566-.594-.813l2.281-1.531a.5.5 0 0 0-.375-.906.5.5 0 0 0-.188.094l-2.5 1.656c-.019-.013-.043-.018-.063-.031.684-1.011.256-2.427-.719-3.188.013-.031.018-.062.031-.094.172-.401.395-.77.656-1.031.261-.261.521-.406.875-.406a.5.5 0 1 0 0-1c-.646 0-1.198.292-1.594.688-.395.395-.672.901-.875 1.375-.166-.039-.321-.063-.5-.063-.348 0-.703.077-1 .219-.022-.054-.039-.102-.063-.156-.203-.474-.48-.98-.875-1.375s-.948-.688-1.594-.688a.5.5 0 0 0-.094 0 .502.502 0 0 0-.063 0z"
  />
</svg>