<svg xmlns="http://www.w3.org/2000/svg" version="1.1" width="32" height="32" data-icon="bullhorn" data-container-transform="translate(0 1)" viewBox="0 0 32 32">
  <path d="M29 0v22h2.5c.276 0 .5-.224.5-.5v-21c0-.276-.224-.5-.5-.5h-2.5zm-1 .125c-.019.005-.045.026-.063.031l-17.469 5.688c-.262.086-.693.156-.969.156h-7c-.276 0-.5.224-.5.5v.5h-1.5c-.276 0-.5.224-.5.5v7c0 .276.224.5.5.5h1.5v.5c0 .276.224.5.5.5h2.906l5.406 13.531c.102.255.412.469.688.469h3c.275 0 .415-.214.313-.469l-4.656-11.656c-.276-.665.308-1.718 1.375-1.375l16.438 5.344c.008.003.023-.003.031 0v-21.719z"
  transform="translate(0 1)" />
</svg>