<svg xmlns="http://www.w3.org/2000/svg" version="1.1" width="32" height="32" data-icon="calculator" data-container-transform="translate(4)" viewBox="0 0 32 32">
  <path d="M1 0c-.552 0-1 .448-1 1v30c0 .552.448 1 1 1h22c.552 0 1-.448 1-1v-30c0-.552-.448-1-1-1h-22zm2 3h18v5h-18v-5zm0 7h18v1h-18v-1zm0 3h3v1h-3v-1zm5 0h3v1h-3v-1zm5 0h3v1h-3v-1zm5 0h3v1h-3v-1zm-15 3h3v3h-3v-3zm5 0h3v3h-3v-3zm5 0h3v3h-3v-3zm5 0h3v3h-3v-3zm-15 5h3v3h-3v-3zm5 0h3v3h-3v-3zm5 0h3v3h-3v-3zm5 0h3v8h-3v-8zm-15 5h3v3h-3v-3zm5 0h3v3h-3v-3zm5 0h3v3h-3v-3z"
  transform="translate(4)" />
</svg>