<svg xmlns="http://www.w3.org/2000/svg" version="1.1" width="16" height="16" data-icon="camera-rangefinder" data-container-transform="translate(0 3)" viewBox="0 0 16 16">
  <path d="M1 0v1h-1v9h16v-10h-10v1h-3v-1h-2zm9.125 1h.75c.069 0 .125.056.125.125v.75c0 .069-.056.125-.125.125h-.75c-.069 0-.125-.056-.125-.125v-.75c0-.069.056-.125.125-.125zm2 0h1.75c.069 0 .125.056.125.125v.75c0 .069-.056.125-.125.125h-1.75c-.069 0-.125-.056-.125-.125v-.75c0-.069.056-.125.125-.125zm-3.125 2c1.657 0 3 1.343 3 3s-1.343 3-3 3c-1.317 0-2.41-.85-2.813-2.031-.058.011-.127.031-.188.031h-1c-.552 0-1-.448-1-1s.448-1 1-1h1c.061 0 .13.02.188.031.403-1.181 1.495-2.031 2.813-2.031zm0 1c-1.105 0-2 .895-2 2s.895 2 2 2 2-.895 2-2-.895-2-2-2z"
  transform="translate(0 3)" />
</svg>