<svg xmlns="http://www.w3.org/2000/svg" version="1.1" width="32" height="32" data-icon="camera-slr" data-container-transform="translate(0 1)" viewBox="0 0 32 32">
  <path d="M15.5 0c-.276 0-.628.176-.781.406l-3.438 5.188c-.153.23-.505.406-.781.406h-4.5c-3.314 0-6 2.686-6 6v17.5c0 .276.224.5.5.5h31c.276 0 .5-.224.5-.5v-23c0-.276-.224-.5-.5-.5h-4c-.276 0-.628-.176-.781-.406l-3.438-5.188c-.153-.23-.505-.406-.781-.406h-7zm-10.5 10c.552 0 1 .448 1 1s-.448 1-1 1-1-.448-1-1 .448-1 1-1zm14 0c4.077 0 7.448 3.053 7.938 7 .023-.002.038 0 .063 0 .552 0 1 .448 1 1s-.448 1-1 1c-.024 0-.04.002-.063 0-.489 3.947-3.86 7-7.938 7-4.411 0-8-3.589-8-8s3.589-8 8-8zm0 2c-3.314 0-6 2.686-6 6s2.686 6 6 6 6-2.686 6-6-2.686-6-6-6zm0 1c.276 0 .5.224.5.5s-.224.5-.5.5c-2.206 0-4 1.794-4 4 0 .276-.224.5-.5.5s-.5-.224-.5-.5c0-2.757 2.243-5 5-5z"
  transform="translate(0 1)" />
</svg>