<svg xmlns="http://www.w3.org/2000/svg" version="1.1" width="128" height="128" data-icon="chat" data-container-transform="translate(0 19)" viewBox="0 0 128 128">
  <path d="M1.5 0c-.828 0-1.5.672-1.5 1.5v69c0 .828.43 1.004.969.375l10.063-11.75c.539-.629 1.641-1.125 2.469-1.125h32.5v-42h34v-14.5c0-.828-.672-1.5-1.5-1.5h-77zm48 18c-.828 0-1.5.672-1.5 1.5v55c0 .828.672 1.5 1.5 1.5h65c.828 0 1.93.496 2.469 1.125l10.063 11.75c.539.629.969.453.969-.375v-69c0-.828-.672-1.5-1.5-1.5h-77z"
  transform="translate(0 19)" />
</svg>