<svg xmlns="http://www.w3.org/2000/svg" version="1.1" width="128" height="128" data-icon="clipboard" data-container-transform="translate(20 1)" viewBox="0 0 128 128">
  <path d="M44 0c-6.617 0-12 5.383-12 12v4h-8c-6.627 0-12 5.373-12 12v2h64v-2c0-6.627-5.373-12-12-12h-8v-4c0-6.617-5.383-12-12-12zm0 4c2.209 0 4 1.791 4 4s-1.791 4-4 4-4-1.791-4-4 1.791-4 4-4zm-42.5 16c-.828 0-1.5.672-1.5 1.5v102c0 .828.672 1.5 1.5 1.5h85c.828 0 1.5-.672 1.5-1.5v-102c0-.828-.672-1.5-1.5-1.5h-11.031c1.588 2.27 2.531 5.026 2.531 8v4h-68v-4c0-2.974.944-5.73 2.531-8h-11.031z"
  transform="translate(20 1)" />
</svg>