<svg xmlns="http://www.w3.org/2000/svg" version="1.1" width="32" height="32" data-icon="clipboard" data-container-transform="translate(4)" viewBox="0 0 32 32">
  <path d="M12 0c-1.654 0-3 1.346-3 3v2h-2c-1.657 0-3 1.343-3 3v1h16v-1c0-1.657-1.343-3-3-3h-2v-2c0-1.654-1.346-3-3-3zm0 2c.552 0 1 .448 1 1s-.448 1-1 1-1-.448-1-1 .448-1 1-1zm-11.5 4c-.276 0-.5.224-.5.5v25c0 .276.224.5.5.5h23c.276 0 .5-.224.5-.5v-25c0-.276-.224-.5-.5-.5h-3.063c.345.591.563 1.268.563 2v2h-18v-2c0-.732.219-1.409.563-2h-3.063z"
  transform="translate(4)" />
</svg>