<svg width="22px" height="22px" viewBox="0 0 22 22" version="1.1" xmlns="http://www.w3.org/2000/svg" xmlns:xlink="http://www.w3.org/1999/xlink">
    <g  stroke="none" stroke-width="1" fill-rule="evenodd">
        <path d="M10.9946834,22 C4.97631706,22 0,17.0236829 0,11.0053166 C0,4.97631706 4.96568391,0 10.9840503,0 C17.0130498,0 22,4.97631706 22,11.0053166 C22,17.0236829 17.0236829,22 10.9946834,22 Z M5.63557274,12.3344611 L10.9840503,12.3344611 C11.4731754,12.3344611 11.8453359,11.9623006 11.8453359,11.4838086 L11.8453359,4.5297245 C11.8453359,4.05123248 11.4731754,3.67907202 10.9840503,3.67907202 C10.5161914,3.67907202 10.1440309,4.05123248 10.1440309,4.5297245 L10.1440309,10.6331561 L5.63557274,10.6331561 C5.15708072,10.6331561 4.78492025,11.0053166 4.78492025,11.4838086 C4.78492025,11.9623006 5.15708072,12.3344611 5.63557274,12.3344611 Z"></path>
    </g>
</svg>
