<svg xmlns="http://www.w3.org/2000/svg" version="1.1" width="128" height="128" data-icon="clock" viewBox="0 0 128 128">
  <path d="M64 0c-35.299 0-64 28.701-64 64s28.701 64 64 64 64-28.701 64-64-28.701-64-64-64zm0 8c30.975 0 56 25.025 56 56s-25.025 56-56 56-56-25.025-56-56 25.025-56 56-56zm0 4c-1.105 0-2 .895-2 2s.895 2 2 2 2-.895 2-2-.895-2-2-2zm-25 6.688c-1.105 0-2 .895-2 2s.895 2 2 2 2-.895 2-2-.895-2-2-2zm50 0c-1.105 0-2 .895-2 2s.895 2 2 2 2-.895 2-2-.895-2-2-2zm-27 5.313v40.688l-27.719 29.625a1 1 0 1 0 1.438 1.375l27.5-29.406.813.469 23 13 1.719.969 1.969-3.469-1.75-1-22.969-12.969v-39.281h-4zm-41.313 13c-1.105 0-2 .895-2 2s.895 2 2 2 2-.895 2-2-.895-2-2-2zm86.625 0c-1.105 0-2 .895-2 2s.895 2 2 2 2-.895 2-2-.895-2-2-2zm-93.313 25c-1.105 0-2 .895-2 2s.895 2 2 2 2-.895 2-2-.895-2-2-2zm100 0c-1.105 0-2 .895-2 2s.895 2 2 2 2-.895 2-2-.895-2-2-2zm-93.313 25c-1.105 0-2 .895-2 2s.895 2 2 2 2-.895 2-2-.895-2-2-2zm86.625 0c-1.105 0-2 .895-2 2s.895 2 2 2 2-.895 2-2-.895-2-2-2zm-68.313 18.313c-1.105 0-2 .895-2 2s.895 2 2 2 2-.895 2-2-.895-2-2-2zm50 0c-1.105 0-2 .895-2 2s.895 2 2 2 2-.895 2-2-.895-2-2-2zm-25 6.688c-1.105 0-2 .895-2 2s.895 2 2 2 2-.895 2-2-.895-2-2-2z"
  />
</svg>