<svg xmlns="http://www.w3.org/2000/svg" version="1.1" data-icon="cloud-transfer-download" width="128" height="128" data-container-transform="translate(0 ) scale(1 1 )" viewBox="0 0 128 128">
  <path d="M56 0c-18.8 0-34.306 14.506-35.906 32.906-11.5 3-20.094 13.594-20.094 26.094 0 14.6 11.6 26.4 26 27h24v-7.094c-2.4-2.2-4-5.406-4-8.906 0-6.6 5.4-12 12-12s12 5.4 12 12c0 3.5-1.6 6.706-4 8.906v7.094h44c9.9 0 18-8.1 18-18s-8.1-18-18-18l-2.094.094c-.9-8.4-7.6-15.1-16-16-.9-19-16.706-34.094-35.906-34.094zm2 62c-4.418 0-8 3.582-8 8 0 2.957 1.614 5.522 4 6.906v26.5h-8.313c-.9 0-1.181.581-.781 1.281l12.406 22c.4.7 1.1.7 1.5 0l12.375-22c.4-.7.013-1.281-.688-1.281h-8.5v-26.5c2.386-1.385 4-3.949 4-6.906 0-4.418-3.582-8-8-8z"
  />
</svg>