<svg xmlns="http://www.w3.org/2000/svg" version="1.1" data-icon="cloud-transfer-upload" width="128" height="128" data-container-transform="translate(0 ) scale(1 1 )" viewBox="0 0 128 128">
  <path d="M56 0c-18.8 0-34.306 14.506-35.906 32.906-11.5 3-20.094 13.594-20.094 26.094 0 14.6 11.6 26.4 26 27h16.688l15.313-26 15.313 26h36.688c9.9 0 18-8.1 18-18s-8.1-18-18-18l-2.094.094c-.9-8.4-7.6-15.1-16-16-.9-19-16.706-34.094-35.906-34.094zm2 68l-14 24h10v21.094c-2.386 1.385-4 3.949-4 6.906 0 4.418 3.582 8 8 8s8-3.582 8-8c0-2.957-1.614-5.522-4-6.906v-21.094h10l-14-24z"
  />
</svg>