<svg xmlns="http://www.w3.org/2000/svg" version="1.1" width="128" height="128" data-icon="cloudy" data-container-transform="translate(0 7)" viewBox="0 0 128 128">
  <path d="M42 0c-1.45 0-2.869.075-4.281.219-19.745 2.064-35.436 17.755-37.5 37.5-.004.042.004.083 0 .125-.066.665-.122 1.326-.156 2-.003.052.003.104 0 .156-.031.665-.063 1.328-.063 2 0 .021 0 .042 0 .063 0 .032 0 .062 0 .094.002.672.029 1.336.063 2 .073 1.432.194 2.86.406 4.25.212 1.39.498 2.752.844 4.094.173.671.358 1.342.563 2 1.053 3.384 2.549 6.574 4.375 9.531 2.901-2.614 6.297-4.69 10.094-6.063 3.005-19.247 19.92-33.969 39.656-33.969 10.569 0 20.199 4.087 27.375 10.781-3.048-17.602-17.036-31.47-34.719-34.281-.083-.013-.167-.019-.25-.031-.154-.023-.315-.041-.469-.063-.546-.075-1.104-.134-1.656-.188-.083-.008-.166-.023-.25-.031-1.28-.122-2.564-.183-3.875-.188-.052 0-.104 0-.156 0zm14 28c-18.8 0-34.415 14.604-36 33-11.578 3.042-20 13.481-20 26 0 14.552 11.575 26.471 26 27h84c9.925 0 18-8.075 18-18s-8.075-18-18-18c-.711 0-1.311-.081-2 0-.871-8.409-7.602-15.091-16-16-.986-18.976-16.783-34-36-34z"
  transform="translate(0 7)" />
</svg>