<svg xmlns="http://www.w3.org/2000/svg" version="1.1" width="32" height="32" data-icon="cog" viewBox="0 0 32 32">
  <path d="M14 0l-1.313 3.969c-1.01.278-1.984.679-2.875 1.188l-3.719-1.875-2.813 2.813 1.844 3.75c-.507.891-.879 1.834-1.156 2.844l-3.969 1.344v3.969l3.969 1.313c.278 1.01.679 1.984 1.188 2.875l-1.875 3.719 2.813 2.813 3.75-1.844c.891.507 1.834.879 2.844 1.156l1.344 3.969h3.969l1.313-3.969c1.01-.278 1.984-.68 2.875-1.188l3.75 1.875 2.781-2.813-1.844-3.75c.507-.891.879-1.834 1.156-2.844l3.969-1.344v-3.969l-3.969-1.313c-.278-1.01-.68-1.984-1.188-2.875l1.875-3.75-2.813-2.781-3.75 1.844c-.891-.507-1.834-.879-2.844-1.156l-1.344-3.969h-3.969zm2 9c3.866 0 7 3.134 7 7s-3.134 7-7 7-7-3.134-7-7 3.134-7 7-7z"
  />
</svg>