<svg xmlns="http://www.w3.org/2000/svg" version="1.1" width="32" height="32" data-icon="cogs" viewBox="0 0 32 32">
  <path d="M7.719 0l-2.5 1.063.188 2.844c-.569.442-1.068.943-1.5 1.5l-2.875-.188-1.031 2.531 2.156 1.875c-.088.699-.09 1.41 0 2.125l-2.156 1.906 1.063 2.5 2.844-.188c.442.569.943 1.068 1.5 1.5l-.188 2.875 2.531 1.031 1.875-2.156c.7.088 1.41.09 2.125 0l1.906 2.156 2.5-1.063-.188-2.844c.569-.442 1.068-.943 1.5-1.5l2.875.188 1.031-2.531-2.156-1.875c.088-.7.09-1.41 0-2.125l2.156-1.906-1.063-2.5-2.844.188c-.442-.569-.943-1.068-1.5-1.5l.188-2.875-2.531-1.031-1.875 2.156c-.7-.088-1.41-.09-2.125 0l-1.906-2.156zm3 5.875c1.875.014 3.643 1.128 4.406 2.969 1.017 2.455-.138 5.264-2.594 6.281-2.456 1.017-5.264-.139-6.281-2.594-1.017-2.456.138-5.264 2.594-6.281.614-.254 1.25-.38 1.875-.375zm12.281 10.125l-.656 1.969c-.505.139-.992.34-1.438.594l-1.875-.906-1.406 1.406.938 1.844c-.254.446-.456.931-.594 1.438l-1.969.656v2l1.969.656c.139.505.34.992.594 1.438l-.906 1.875 1.406 1.406 1.844-.938c.446.254.931.456 1.438.594l.688 1.969h1.969l.656-1.969c.505-.139.992-.34 1.438-.594l1.875.906 1.406-1.406-.938-1.844c.254-.446.456-.931.594-1.438l1.969-.688v-1.969l-1.969-.656c-.139-.505-.34-.992-.594-1.438l.906-1.875-1.406-1.406-1.844.938c-.446-.254-.931-.456-1.438-.594l-.688-1.969h-1.969zm1 4.5c1.933 0 3.5 1.567 3.5 3.5s-1.567 3.5-3.5 3.5-3.5-1.567-3.5-3.5 1.567-3.5 3.5-3.5z"
  />
</svg>