<svg xmlns="http://www.w3.org/2000/svg" version="1.1" width="16" height="16" data-icon="connections" viewBox="0 0 16 16">
  <path d="M14.5 0c-.828 0-1.5.672-1.5 1.5 0 .233.061.46.156.656l-3.406 3.406c-.493-.354-1.097-.563-1.75-.563-1.203 0-2.209.727-2.688 1.75l-3.375-.969c-.106-.439-.466-.781-.938-.781-.552 0-1 .448-1 1s.448 1 1 1c.276 0 .538-.1.719-.281l3.313.938c-.014.116-.031.224-.031.344 0 1.657 1.343 3 3 3 .741 0 1.414-.274 1.938-.719l2.25 1.906c-.112.249-.188.521-.188.813 0 1.105.895 2 2 2s2-.895 2-2-.895-2-2-2c-.455 0-.883.15-1.219.406l-2.219-1.875c.269-.45.438-.969.438-1.531 0-.653-.208-1.257-.563-1.75l3.406-3.406c.197.095.423.156.656.156.828 0 1.5-.672 1.5-1.5s-.672-1.5-1.5-1.5z"
  />
</svg>