<svg xmlns="http://www.w3.org/2000/svg" version="1.1" width="32" height="32" data-icon="connections" data-container-transform="translate(0 1)" viewBox="0 0 32 32">
  <path d="M29.5 0c-1.381 0-2.5 1.119-2.5 2.5 0 .518.168 1.007.438 1.406l-8.281 8.25c-.864-.713-1.948-1.156-3.156-1.156-2.116 0-3.895 1.331-4.625 3.188l-7.375-2.125c.001-.021 0-.041 0-.063 0-1.105-.895-2-2-2s-2 .895-2 2 .895 2 2 2c.74 0 1.373-.403 1.719-1l7.375 2.094c-.055.297-.094.593-.094.906 0 2.761 2.239 5 5 5 1.365 0 2.598-.551 3.5-1.438l5.125 4.281c-.394.62-.625 1.367-.625 2.156 0 2.209 1.791 4 4 4s4-1.791 4-4-1.791-4-4-4c-1.064 0-2.033.417-2.75 1.094l-5.125-4.281c.554-.805.875-1.761.875-2.813 0-1.208-.443-2.292-1.156-3.156l8.281-8.281c.395.261.867.438 1.375.438 1.381 0 2.5-1.119 2.5-2.5s-1.119-2.5-2.5-2.5z"
  transform="translate(0 1)" />
</svg>