<svg xmlns="http://www.w3.org/2000/svg" version="1.1" width="128" height="128" data-icon="connections" data-container-transform="translate(0 4)" viewBox="0 0 128 128">
  <path d="M118 0c-5.523 0-10 4.477-10 10s4.477 10 10 10 10-4.477 10-10-4.477-10-10-10zm-9.75 16.938l-30.156 30.156c1.024.854 1.958 1.788 2.813 2.813l30.156-30.156c-1.096-.78-2.032-1.716-2.813-2.813zm-100.25 23.063c-4.418 0-8 3.582-8 8s3.582 8 8 8 8-3.582 8-8-3.582-8-8-8zm56 4c-11.046 0-20 8.954-20 20s8.954 20 20 20 20-8.954 20-20-8.954-20-20-20zm-46.031 4.75c-.103 1.398-.504 2.695-1.125 3.875l25.531 7.313c.251-1.34.642-2.632 1.125-3.875l-25.531-7.313zm64.125 27.75c-.755 1.088-1.598 2.129-2.531 3.063l17.438 14.531c.741-1.12 1.597-2.136 2.563-3.063l-17.469-14.531zm29.906 11.5c-8.837 0-16 7.163-16 16s7.163 16 16 16 16-7.163 16-16-7.163-16-16-16z"
  transform="translate(0 4)" />
</svg>