<svg xmlns="http://www.w3.org/2000/svg" version="1.1" width="16" height="16" data-icon="copyleft" viewBox="0 0 16 16">
  <path d="M8 0c-4.406 0-8 3.594-8 8 0 4.406 3.594 8 8 8 4.406 0 8-3.594 8-8 0-4.406-3.594-8-8-8zm0 2c3.326 0 6 2.674 6 6s-2.674 6-6 6-6-2.674-6-6 2.674-6 6-6zm0 2c-1.099 0-2.09.465-2.813 1.188l1.406 1.406c.363-.363.849-.594 1.406-.594.557 0 1.043.23 1.406.594.363.363.594.849.594 1.406 0 .557-.23 1.043-.594 1.406-.363.363-.849.594-1.406.594-.557 0-1.043-.23-1.406-.594l-1.406 1.406c.723.723 1.714 1.188 2.813 1.188 1.099 0 2.09-.465 2.813-1.188.723-.723 1.188-1.714 1.188-2.813 0-1.099-.465-2.09-1.188-2.813-.723-.723-1.714-1.188-2.813-1.188z"
  />
</svg>