<svg xmlns="http://www.w3.org/2000/svg" version="1.1" width="32" height="32" data-icon="copyright" viewBox="0 0 32 32">
  <path d="M16 0c-8.819 0-16 7.181-16 16 0 8.819 7.181 16 16 16 8.819 0 16-7.181 16-16 0-8.819-7.181-16-16-16zm0 3c7.197 0 13 5.803 13 13s-5.803 13-13 13-13-5.803-13-13 5.803-13 13-13zm0 4c-2.477 0-4.748.998-6.375 2.625-1.627 1.627-2.625 3.898-2.625 6.375 0 2.436.982 4.661 2.563 6.281l.063.094c1.627 1.627 3.898 2.625 6.375 2.625s4.748-.998 6.375-2.625l-2.125-2.125c-1.087 1.087-2.585 1.75-4.25 1.75s-3.163-.663-4.25-1.75c-1.087-1.087-1.75-2.585-1.75-4.25s.663-3.163 1.75-4.25c1.087-1.087 2.585-1.75 4.25-1.75s3.163.663 4.25 1.75l2.125-2.125c-1.627-1.627-3.898-2.625-6.375-2.625z"
  />
</svg>