<svg xmlns="http://www.w3.org/2000/svg" version="1.1" width="128" height="128" data-icon="cpu" viewBox="0 0 128 128">
  <path d="M18 0v14h2v-14h-2zm6 0v14h2v-14h-2zm6 0v14h2v-14h-2zm6 0v14h2v-14h-2zm6 0v14h2v-14h-2zm6 0v14h2v-14h-2zm6 0v14h2v-14h-2zm6 0v14h2v-14h-2zm6 0v14h2v-14h-2zm6 0v14h2v-14h-2zm6 0v14h2v-14h-2zm6 0v14h2v-14h-2zm6 0v14h2v-14h-2zm6 0v14h2v-14h-2zm6 0v14h2v-14h-2zm6 0v14h2v-14h-2zm-90 16c-1.1 0-2 .9-2 2v92c0 1.1.9 2 2 2h92c1.1 0 2-.9 2-2v-92c0-1.1-.9-2-2-2h-92zm-18 2v2h14v-2h-14zm114 0v2h14v-2h-14zm-114 6v2h14v-2h-14zm114 0v2h14v-2h-14zm-85 4h70c.55 0 1 .45 1 1v22c0 .55.415 1.191.906 1.438l2.188 1.125c.492.246.906.888.906 1.438v18.125c0 .55-.415 1.192-.906 1.438l-2.188 1.125c-.492.246-.906.888-.906 1.438v21.875c0 .55-.45 1-1 1h-70c-.55 0-1-.45-1-1v-22c0-.55-.415-1.192-.906-1.438l-2.188-1.125c-.492-.246-.906-.888-.906-1.438v-18c0-.55.415-1.191.906-1.438l2.188-1.125c.492-.246.906-.888.906-1.438v-22c0-.55.45-1 1-1zm-29 2v2h14v-2h-14zm31 0c-.55 0-1 .45-1 1v66c0 .55.45 1 1 1h66c.55 0 1-.45 1-1v-66c0-.55-.45-1-1-1h-66zm83 0v2h14v-2h-14zm-114 6v2h14v-2h-14zm114 0v2h14v-2h-14zm-114 6v2h14v-2h-14zm114 0v2h14v-2h-14zm-114 6v2h14v-2h-14zm114 0v2h14v-2h-14zm-114 6v2h14v-2h-14zm114 0v2h14v-2h-14zm-114 6v2h14v-2h-14zm114 0v2h14v-2h-14zm-114 6v2h14v-2h-14zm114 0v2h14v-2h-14zm-114 6v2h14v-2h-14zm114 0v2h14v-2h-14zm-114 6v2h14v-2h-14zm114 0v2h14v-2h-14zm-114 6v2h14v-2h-14zm114 0v2h14v-2h-14zm-114 6v2h14v-2h-14zm114 0v2h14v-2h-14zm-114 6v2h14v-2h-14zm114 0v2h14v-2h-14zm-114 6v2h14v-2h-14zm114 0v2h14v-2h-14zm-114 6v2h14v-2h-14zm114 0v2h14v-2h-14zm-96 6v14h2v-14h-2zm6 0v14h2v-14h-2zm6 0v14h2v-14h-2zm6 0v14h2v-14h-2zm6 0v14h2v-14h-2zm6 0v14h2v-14h-2zm6 0v14h2v-14h-2zm6 0v14h2v-14h-2zm6 0v14h2v-14h-2zm6 0v14h2v-14h-2zm6 0v14h2v-14h-2zm6 0v14h2v-14h-2zm6 0v14h2v-14h-2zm6 0v14h2v-14h-2zm6 0v14h2v-14h-2zm6 0v14h2v-14h-2z"
  />
</svg>