<svg xmlns="http://www.w3.org/2000/svg" version="1.1" width="32" height="32" data-icon="credit-card" data-container-transform="translate(0 6)" viewBox="0 0 32 32">
  <path d="M1 0c-.552 0-1 .448-1 1v18c0 .552.448 1 1 1h30c.552 0 1-.448 1-1v-18c0-.552-.448-1-1-1h-30zm0 3h30v3h-30v-3zm2.25 6h19.5c.137 0 .25.113.25.25v1.5c0 .138-.113.25-.25.25h-19.5c-.138 0-.25-.113-.25-.25v-1.5c0-.137.112-.25.25-.25zm21 0h3.5c.137 0 .25.113.25.25v1.5c0 .138-.113.25-.25.25h-3.5c-.137 0-.25-.113-.25-.25v-1.5c0-.137.113-.25.25-.25zm-21 5h4.5c.138 0 .25.113.25.25v2.5c0 .137-.112.25-.25.25h-4.5c-.138 0-.25-.113-.25-.25v-2.5c0-.137.112-.25.25-.25z"
  transform="translate(0 6)" />
</svg>