<svg xmlns="http://www.w3.org/2000/svg" version="1.1" width="32" height="32" data-icon="database" data-container-transform="translate(7)" viewBox="0 0 32 32">
  <path d="M9 0c-4.971 0-9 4.029-9 9 0 4.962 4.038 9 9 9s9-4.038 9-9c0-4.971-4.029-9-9-9zm-9 13.344v2.656c0 4.962 4.038 9 9 9s9-4.038 9-9v-2.656c-1.618 3.349-5.039 5.656-9 5.656-3.961 0-7.382-2.307-9-5.656zm0 7v2.656c0 4.971 4.029 9 9 9s9-4.029 9-9v-2.656c-1.618 3.349-5.039 5.656-9 5.656-3.962 0-7.382-2.307-9-5.656z"
  transform="translate(7)" />
</svg>