<svg xmlns="http://www.w3.org/2000/svg" version="1.1" width="128" height="128" data-icon="delete" data-container-transform="translate(0 28)" viewBox="0 0 128 128">
  <path d="M25.5 0c-.828 0-1.884.561-2.344 1.25l-22.313 33.5c-.46.689-.46 1.811 0 2.5l22.313 33.5c.46.689 1.516 1.25 2.344 1.25h101c.828 0 1.5-.672 1.5-1.5v-69c0-.828-.672-1.5-1.5-1.5h-101zm33.5 15.344l15 15 15-15 5.656 5.656-15 15 15 15-5.656 5.656-15-15-15 15-5.656-5.656 15-15-15-15 5.656-5.656z"
  transform="translate(0 28)" />
</svg>