<svg xmlns="http://www.w3.org/2000/svg" version="1.1" width="128" height="128" data-icon="dial" data-container-transform="translate(0 13)" viewBox="0 0 128 128">
  <path d="M63.781-.031a2 2 0 0 0-1.781 2.031v4a2 2 0 1 0 4 0v-4a2 2 0 0 0-2.031-2.031 2 2 0 0 0-.188 0zm-23.719 4.719a2 2 0 0 0-1.625 2.813l1.531 3.688a2 2 0 1 0 3.688-1.531l-1.531-3.688a2 2 0 0 0-1.875-1.281 2 2 0 0 0-.188 0zm47.438 0a2 2 0 0 0-1.625 1.281l-1.531 3.688a2 2 0 1 0 3.688 1.531l1.531-3.688a2 2 0 0 0-1.875-2.813 2 2 0 0 0-.188 0zm-67.563 13.438a2 2 0 0 0-1.188 3.438l2.813 2.844a2.011 2.011 0 0 0 2.844-2.844l-2.844-2.813a2 2 0 0 0-1.438-.625 2 2 0 0 0-.188 0zm87.875 0a2 2 0 0 0-1.375.625l-2.844 2.813a2.011 2.011 0 0 0 2.844 2.844l2.813-2.844a2 2 0 0 0-1.438-3.438zm-45.813 7.938c-20.063 1.034-36 17.617-36 37.938 0 20.987 17.013 38 38 38s38-17.013 38-38c0-20.32-15.937-36.904-36-37.938v33.938c0 1.105-.895 2-2 2s-2-.895-2-2v-33.938zm-55.469 12.188a2 2 0 0 0-.563 3.875l3.688 1.531a2 2 0 1 0 1.531-3.688l-3.688-1.531a2 2 0 0 0-.781-.188 2 2 0 0 0-.188 0zm114.688 0a2 2 0 0 0-.688.188l-3.719 1.531a2 2 0 1 0 1.531 3.688l3.688-1.531a2 2 0 0 0-.813-3.875zm-119.406 23.75a2.002 2.002 0 1 0 .188 4h4a2 2 0 1 0 0-4h-4a2 2 0 0 0-.188 0zm120 0a2.002 2.002 0 1 0 .188 4h4a2 2 0 1 0 0-4h-4a2 2 0 0 0-.188 0z"
  transform="translate(0 13)" />
</svg>