<svg xmlns="http://www.w3.org/2000/svg" version="1.1" width="128" height="128" data-icon="dollar" data-container-transform="translate(23)" viewBox="0 0 128 128">
  <path d="M38 0v8.063c-15.033.675-24.367 6.4-29.094 13.313-5.035 7.364-4.906 15.292-4.906 17.625 0 10.638 5.905 18.542 13.313 22.844 6.324 3.672 13.567 5.523 20.688 7.156v38.938c-9.794-.434-16.047-3.003-19.875-6.406-4.206-3.739-6.125-8.781-6.125-15.531h-12c0 9.25 3.082 18.208 10.125 24.469 6.512 5.788 15.863 9.014 27.875 9.469v8.063h8v-8.125c14.543-.759 23.813-4.876 29.313-10.969 6.107-6.766 6.688-14.961 6.688-19.906 0-10.638-5.905-18.542-13.313-22.844-6.917-4.017-14.937-5.871-22.688-7.625v-38.344c7.591.612 12.271 2.642 15.063 5.219 3.361 3.102 4.938 7.594 4.938 14.594h12c0-9-2.422-17.508-8.813-23.406-5.499-5.076-13.252-7.782-23.188-8.438v-8.156h-8zm0 20.094v36.563c-5.798-1.45-11.021-3.058-14.688-5.188-4.968-2.885-7.313-5.601-7.313-12.469 0-2.336.098-6.906 2.813-10.875 2.513-3.675 7.241-7.483 19.188-8.031zm8 50.781c6.58 1.578 12.61 3.288 16.688 5.656 4.968 2.885 7.313 5.601 7.313 12.469 0 4.055-.45 8.36-3.594 11.844-2.782 3.082-8.398 6.328-20.406 7.031v-37z"
  transform="translate(23)" />
</svg>