<svg xmlns="http://www.w3.org/2000/svg" version="1.1" width="32" height="32" data-icon="dollar" data-container-transform="translate(6)" viewBox="0 0 32 32">
  <path d="M9 0v2.531c-3.584.217-5.89 1.596-7 3.375-1.211 1.941-1 4.118-1 4.344 0 2.634 1.53 4.715 3.344 5.781 1.479.87 3.091 1.293 4.656 1.656v7.781c-1.795-.135-2.992-.636-3.719-1.25-.854-.723-1.281-1.659-1.281-3.219h-4c0 2.44.881 4.754 2.688 6.281 1.6 1.353 3.763 2.046 6.313 2.188v2.531h2v-2.531c3.593-.206 5.992-1.51 7.344-3.156 1.474-1.796 1.656-3.699 1.656-4.563 0-2.634-1.53-4.715-3.344-5.781-1.795-1.055-3.797-1.48-5.656-1.906v-7.531c1.697.124 2.563.573 3.063 1.094.589.614.938 1.649.938 3.375h4c0-2.274-.491-4.489-2.063-6.125-1.392-1.449-3.416-2.192-5.938-2.344v-2.531h-2zm-.125 6.531c.038-.003.086.002.125 0v7.031c-1.076-.294-2.02-.595-2.656-.969-.999-.587-1.344-.951-1.344-2.344 0-.848-.039-1.555.375-2.219.362-.581 1.092-1.325 3.5-1.5zm2.125 11.656c1.496.366 2.829.732 3.656 1.219.999.587 1.344.951 1.344 2.344 0 .279-.068 1.238-.719 2.031-.581.707-1.683 1.52-4.281 1.688v-7.281z"
  transform="translate(6)" />
</svg>