<svg xmlns="http://www.w3.org/2000/svg" version="1.1" width="16" height="16" data-icon="dollar" data-container-transform="translate(3)" viewBox="0 0 16 16">
  <path d="M4 0v2.031c-1.652.1-2.748.667-3.344 1.438-.655.848-.656 1.798-.656 2.031 0 1.208.769 2.187 1.625 2.656.767.42 1.583.585 2.375.75v3.063c-.795-.06-1.28-.246-1.531-.469-.301-.268-.469-.667-.469-1.5h-2c0 1.167.333 2.268 1.156 3 .721.641 1.688.907 2.844.969v2.031h1v-2.031c1.65-.095 2.746-.637 3.344-1.406.658-.846.656-1.814.656-2.063 0-1.208-.769-2.187-1.625-2.656-.767-.42-1.583-.585-2.375-.75v-3.063c.795.06 1.28.246 1.531.469.301.268.469.667.469 1.5h2c0-1.167-.333-2.268-1.156-3-.721-.641-1.688-.907-2.844-.969v-2.031h-1zm0 4.031v2.813c-.583-.146-1.113-.291-1.438-.469-.456-.25-.563-.333-.563-.875 0-.234-.001-.528.219-.813.192-.248.651-.573 1.781-.656zm1 5.125c.583.146 1.113.291 1.438.469.456.25.563.333.563.875 0 .248-.001.533-.219.813-.189.244-.649.572-1.781.656v-2.813z"
  transform="translate(3)" />
</svg>