<svg xmlns="http://www.w3.org/2000/svg" version="1.1" data-icon="double-quote-serif-right" width="128" height="128" data-container-transform="translate(0 8 ) scale(1 1 )" viewBox="0 0 128 128">
  <path d="M1.5 0c-.8 0-1.5.7-1.5 1.5v53c0 .8.7 1.5 1.5 1.5h38.5c0 22.173-17.827 40-40 40v16c30.827 0 56-25.173 56-56v-54.5c0-.8-.7-1.5-1.5-1.5h-53zm72 0c-.8 0-1.5.7-1.5 1.5v53c0 .8.7 1.5 1.5 1.5h38.5c0 22.173-17.827 40-40 40v16c30.827 0 56-25.173 56-56v-54.5c0-.8-.7-1.5-1.5-1.5h-53z"
  transform="translate(0 8)" />
</svg>