<svg xmlns="http://www.w3.org/2000/svg" version="1.1" data-icon="double-quote-sans-left" width="128" height="128" data-container-transform="translate(10 24 ) scale(1 1 )" viewBox="0 0 128 128">
  <path d="M43.5.719c-.176-.004-.369.094-.594.281l-41.813 38c-.6.5-1.094 1.7-1.094 2.5v37c0 .8.7 1.5 1.5 1.5h41c.8 0 1.5-.7 1.5-1.5v-77c0-.5-.207-.774-.5-.781zm64 0c-.176-.004-.369.094-.594.281l-41.813 38c-.6.6-1.094 1.7-1.094 2.5v37c0 .8.7 1.5 1.5 1.5h41c.8 0 1.5-.7 1.5-1.5v-77c0-.5-.207-.774-.5-.781z"
  transform="translate(10 24)" />
</svg>