<svg xmlns="http://www.w3.org/2000/svg" version="1.1" data-icon="double-quote-sans-left" width="32" height="32" data-container-transform="scale(1 1 ) translate(1 5 )" viewBox="0 0 32 32">
  <path d="M10.75.25c-.047.009-.106.037-.156.063l-10.188 9.375c-.2.1-.406.512-.406.813v9c0 .3.2.5.5.5h10c.3 0 .5-.2.5-.5v-19c0-.225-.109-.278-.25-.25zm19 0c-.047.009-.106.037-.156.063l-10.188 9.375c-.2.2-.406.613-.406.813v9c0 .3.2.5.5.5h10c.3 0 .5-.2.5-.5v-19c0-.225-.109-.278-.25-.25z"
  transform="translate(1 6)" />
</svg>