<svg xmlns="http://www.w3.org/2000/svg" version="1.1" width="128" height="128" data-icon="easel" data-container-transform="translate(2)" viewBox="0 0 128 128">
  <path d="M59.5 0c-.828 0-1.755.637-2.063 1.406l-1.844 4.594h-6.094c-.828 0-1.5.672-1.5 1.5v6.5h28v-6.5c0-.828-.672-1.5-1.5-1.5h-6.094l-1.844-4.594c-.308-.769-1.234-1.406-2.063-1.406h-5zm-54 8c-.828 0-1.5.672-1.5 1.5v63c0 .828.672 1.5 1.5 1.5h113c.828 0 1.5-.672 1.5-1.5v-63c0-.828-.672-1.5-1.5-1.5h-40.5v8h-32v-8h-40.5zm-5.5 68v4h29.25l-17.25 48h8l17.063-48h20.938v48h8v-48h20.938l17.063 48h8l-17.25-48h29.25v-4h-124z"
  transform="translate(2)" />
</svg>