<svg xmlns="http://www.w3.org/2000/svg" version="1.1" data-icon="envelope-closed" width="128" height="128" data-container-transform="translate(0 22 ) scale(1 1 )" viewBox="0 0 128 128">
  <path d="M1.5-.094c-.8.1-1.5.794-1.5 1.594v9c0 .8.613 1.787 1.313 2.188l61.281 30.719c.8.3 2.019.306 2.719-.094l61.281-30.719c.7-.4 1.313-1.287 1.313-2.188v-9c0-.8-.7-1.5-1.5-1.5h-124.906zm-.688 20.625c-.464-.019-.812.369-.813.969v61c0 .8.7 1.5 1.5 1.5h125c.8 0 1.5-.7 1.5-1.5v-61c0-.8-.612-1.212-1.313-.813l-61.375 30.625c-.7.4-1.925.4-2.625 0l-61.375-30.625c-.175-.1-.345-.15-.5-.156z"
  transform="translate(0 22)" />
</svg>