<svg xmlns="http://www.w3.org/2000/svg" version="1.1" width="128" height="128" data-icon="euro" data-container-transform="translate(4)" viewBox="0 0 128 128">
  <path d="M82 0c-32.562 0-59.512 24.489-63.469 56h-16.531l-2 8h18c0 2.713.202 5.375.531 8h-16.531l-2 8h20.031c7.127 27.565 32.216 48 61.969 48 11.652 0 22.577-3.156 32-8.625v-14.344c-8.815 6.876-19.915 10.969-32 10.969-23.206 0-42.778-15.073-49.5-36h62.813l2.688-8h-67.406c-.4-2.606-.594-5.28-.594-8h70.656l2.688-8h-72.75c3.829-24.972 25.337-44 51.406-44 12.419 0 23.676 3.701 32.531 10.375l3.875-11.563c-10.385-6.933-22.961-10.813-36.406-10.813z"
  transform="translate(4)" />
</svg>