<svg width="22px" height="22px" viewBox="0 0 22 22" version="1.1" xmlns="http://www.w3.org/2000/svg" xmlns:xlink="http://www.w3.org/1999/xlink">
    <g stroke="none" stroke-width="1" fill-rule="evenodd">
        <path d="M3.87265918,22 C1.33012306,22 0,20.6816479 0,18.1626538 L0,3.83734617 C0,1.30658106 1.33012306,0 3.87265918,0 L18.1273408,0 C20.6816479,0 22,1.31835206 22,3.83734617 L22,18.1626538 C22,20.6816479 20.6816479,22 18.1273408,22 L3.87265918,22 Z M4.02568218,19.6575709 L17.9743178,19.6575709 C19.0454789,19.6575709 19.6575709,19.0925629 19.6575709,17.9507758 L19.6575709,4.04922418 C19.6575709,2.90743713 19.0454789,2.34242911 17.9743178,2.34242911 L4.02568218,2.34242911 C2.94275013,2.34242911 2.34242911,2.90743713 2.34242911,4.04922418 L2.34242911,17.9507758 C2.34242911,19.0925629 2.94275013,19.6575709 4.02568218,19.6575709 Z M14.6195827,13.9957196 C14.0428036,13.9957196 13.6661316,13.5955056 13.6661316,12.9598716 L13.6661316,11.1118245 L13.8309256,9.45211343 L12.2889246,11.1353665 L8.23970037,15.1845907 C8.02782236,15.3964687 7.76886035,15.5024077 7.46281434,15.5024077 C6.87426431,15.5024077 6.45050829,15.1021937 6.45050829,14.4901017 C6.45050829,14.2193686 6.5799893,13.9486356 6.78009631,13.7602996 L10.8410915,9.69930444 L12.5478866,8.13376137 L10.9705725,8.32209738 L9.00481541,8.32209738 C8.38095238,8.32209738 7.96896736,7.94542536 7.96896736,7.36864633 C7.96896736,6.79186731 8.36918138,6.42696629 8.99304441,6.42696629 L14.3959337,6.42696629 C15.1257357,6.42696629 15.5612627,6.78009631 15.5612627,7.56875334 L15.5612627,12.9481006 C15.5612627,13.5719636 15.1963617,13.9957196 14.6195827,13.9957196 Z"></path>
    </g>
</svg>
