<svg xmlns="http://www.w3.org/2000/svg" version="1.1" data-icon="eye-closed" width="32" height="32" data-container-transform="scale(1 1 ) translate(0 2 )" viewBox="0 0 32 32">
  <path d="M27 .875l-1.063 1.063-22 22-1.063 1.063 2.125 2.125 1.063-1.063 22-22 1.063-1.063-2.125-2.125zm-10.875 3.125c-10.125 0-16.125 10-16.125 10s1.842 3.07 5.219 5.813l4.031-4c-.154-.577-.25-1.187-.25-1.813 0-3.866 3.134-7 7-7 .625 0 1.235.096 1.813.25l2.594-2.594c-1.331-.402-2.758-.656-4.281-.656zm10.656 4.156l-4.031 4.031c.154.577.25 1.188.25 1.813 0 3.866-3.134 7-7 7-.626 0-1.236-.096-1.813-.25l-2.563 2.563c1.391.424 2.894.688 4.5.688 9.875 0 15.875-10 15.875-10s-1.87-3.097-5.219-5.844z"
  transform="translate(0 2)" />
</svg>