<svg xmlns="http://www.w3.org/2000/svg" version="1.1" width="128" height="128" data-icon="eyedropper" viewBox="0 0 128 128">
  <path d="M117.313 0c-2.732 0-5.447 1.04-7.531 3.125l-19.344 19.313-8.438-8.438-4 4 6.656 6.656-83 83c-1.127 1.127-1.656 2.376-1.656 3.969v12.875c0 1.91 1.59 3.505 3.5 3.5l12.906-.031c1.594-.002 2.845-.532 3.969-1.656l82.938-83 6.688 6.688 3.969-4-8.438-8.438 19.344-19.344c4.169-4.169 4.169-10.925 0-15.094-2.085-2.085-4.831-3.125-7.563-3.125zm-29.844 27.469l13.031 13.031-69 69-13.031-13.031 69-69z"
  />
</svg>