<svg xmlns="http://www.w3.org/2000/svg" version="1.1" data-icon="file-js" width="32" height="32" data-container-transform="scale(1 1 ) translate(3 0 )" viewBox="0 0 32 32">
  <path d="M.25 0c-.138 0-.25.113-.25.25v15.75h26v-8h-7.75c-.138 0-.25-.113-.25-.25v-7.75h-17.75zm18.75 0v7h7l-7-7zm-9.5 19.063c-.763 0-1.388.188-1.875.531-.484.341-.719.771-.719 1.313 0 .404.099.758.313 1.031.216.271.573.466 1.063.625.214.07.445.141.688.188.245.044.469.104.688.156.208.049.362.125.469.219.109.091.156.185.156.313 0 .138-.018.242-.094.313-.073.07-.167.141-.281.188-.094.036-.227.047-.375.063s-.253.031-.344.031c-.354 0-.74-.055-1.125-.188-.383-.133-.721-.346-1.031-.594h-.156v1.406c.312.13.643.227 1 .313.359.083.768.125 1.25.125.833 0 1.484-.174 1.969-.531.487-.359.75-.802.75-1.375 0-.401-.13-.75-.344-1-.211-.253-.523-.448-.969-.594-.227-.073-.427-.115-.625-.156-.195-.042-.411-.081-.625-.125-.326-.068-.539-.169-.656-.25-.117-.083-.188-.19-.188-.344 0-.102.052-.203.125-.281.073-.081.148-.117.25-.156.115-.047.221-.078.344-.094.125-.018.25-.031.375-.031.354 0 .724.06 1.063.188.341.125.609.281.844.469h.156v-1.344c-.273-.112-.594-.208-.969-.281-.372-.076-.742-.125-1.125-.125zm-6.563.125v1.063h1.344v2.313c0 .237-.023.44-.031.594-.008.151-.034.279-.094.406-.063.13-.164.24-.313.313-.146.073-.352.125-.625.125-.211 0-.396-.023-.531-.063-.135-.042-.25-.078-.375-.125h-.156v1.156c.18.036.388.076.625.094.237.021.513.031.781.031.396 0 .701-.036.969-.125.268-.091.497-.242.688-.406.18-.154.315-.341.406-.563.091-.224.156-.464.156-.719v-4.094h-2.844zm-2.938 8.813v3.7510000000000003c0 .138.112.25.25.25h25.5c.138 0 .25-.112.25-.25v-3.7510000000000003h-26z"
  transform="translate(3)" />
</svg>