<svg xmlns="http://www.w3.org/2000/svg" version="1.1" data-icon="file-xls" width="32" height="32" data-container-transform="scale(1 1 ) translate(3 0 )" viewBox="0 0 32 32">
  <path d="M.25 0c-.138 0-.25.113-.25.25v15.75h26v-8h-7.75c-.138 0-.25-.113-.25-.25v-7.75h-17.75zm18.75 0v7h7l-7-7zm-2.75 19.063c-.763 0-1.388.188-1.875.531-.484.341-.719.771-.719 1.313 0 .404.13.758.344 1.031.216.271.542.466 1.031.625.214.07.445.141.688.188.245.044.5.104.719.156.208.049.362.125.469.219.109.091.156.185.156.313 0 .138-.049.242-.125.313-.073.07-.167.141-.281.188-.094.036-.195.047-.344.063-.148.016-.284.031-.375.031-.354 0-.708-.055-1.094-.188-.383-.133-.753-.346-1.063-.594h-.156v1.406c.312.13.643.227 1 .313.359.083.799.125 1.281.125.833 0 1.484-.174 1.969-.531.487-.359.719-.802.719-1.375 0-.401-.099-.75-.313-1-.211-.253-.523-.448-.969-.594-.227-.073-.458-.115-.656-.156-.195-.042-.38-.081-.594-.125-.326-.068-.57-.169-.688-.25-.117-.083-.156-.19-.156-.344 0-.102.021-.203.094-.281.073-.081.148-.117.25-.156.115-.047.253-.078.375-.094.125-.018.25-.031.375-.031.354 0 .693.06 1.031.188.341.125.641.281.875.469h.156v-1.344c-.273-.112-.594-.208-.969-.281-.372-.076-.773-.125-1.156-.125zm-14.125.125l2.031 2.875-2.063 2.938h1.656l1.281-1.906 1.25 1.906h1.719l-2.063-3 2.063-2.813h-1.688l-1.25 1.813-1.188-1.813h-1.75zm6.719 0v5.813h4.219v-1.125h-2.719v-4.688h-1.5zm-8.844 8.813v3.7510000000000003c0 .138.112.25.25.25h25.5c.138 0 .25-.112.25-.25v-3.7510000000000003h-26z"
  transform="translate(3)" />
</svg>