<svg xmlns="http://www.w3.org/2000/svg" version="1.1" data-icon="file-xml" width="128" height="128" data-container-transform="translate(15 0 ) scale(1 1 )" viewBox="0 0 128 128">
  <path d="M1 0c-.55 0-1 .45-1 1v126c0 .55.45 1 1 1h96c.275 0 .537-.1.719-.281.181-.181.281-.444.281-.719v-29h-61c-.55 0-1-.45-1-1v-28c0-.55.45-1 1-1h61v-42h-25c-.55 0-1-.45-1-1v-25h-71zm73 0v23c0 .55.45 1 1 1h23l-24-24zm-27.75 79.094l3.781 5.406-3.844 5.5h3.094l2.406-3.594 2.344 3.594h3.25l-3.875-5.594 3.813-5.313h-3.125l-2.313 3.406-2.281-3.406h-3.25zm12.594 0v10.906h2.656v-7.313l2.031 4.75h1.938l2-4.75v7.313h2.813v-10.906h-3.281l-2.438 5.469-2.438-5.469h-3.281zm14.219 0v10.906h7.844v-2.125h-5.031v-8.781h-2.813z"
  transform="translate(15)" />
</svg>