<svg xmlns="http://www.w3.org/2000/svg" version="1.1" data-icon="file-mov" width="32" height="32" data-container-transform="scale(1 1 ) translate(3 0 )" viewBox="0 0 32 32">
  <path d="M.25 0c-.138 0-.25.113-.25.25v15.75h26v-8h-7.75c-.138 0-.25-.113-.25-.25v-7.75h-17.75zm18.75 0v7h7l-7-7zm-6.031 19.063c-.935 0-1.656.268-2.188.813-.531.542-.813 1.284-.813 2.219 0 .927.281 1.672.813 2.219.531.544 1.253.813 2.188.813.937 0 1.687-.268 2.219-.813.531-.547.781-1.292.781-2.219 0-.935-.247-1.677-.781-2.219-.534-.544-1.286-.812-2.219-.813zm-10.219.125v5.813h1.406v-3.906l1.094 2.531h1.031l1.063-2.531v3.906h1.5v-5.813h-1.75l-1.313 2.906-1.281-2.906h-1.75zm13.719 0l2.125 5.813h1.688l2.094-5.813h-1.531l-1.406 4.094-1.406-4.094h-1.563zm-3.5.969c.187 0 .391.023.563.094.174.07.305.188.438.344.13.151.263.349.344.594.081.245.094.557.094.906 0 .326-.023.602-.094.844-.07.24-.167.448-.313.625-.13.156-.294.268-.469.344-.174.073-.37.125-.563.125-.193 0-.357-.052-.531-.125-.174-.073-.339-.19-.469-.344-.13-.154-.232-.352-.313-.594-.078-.245-.125-.529-.125-.875 0-.339.044-.651.125-.906.083-.258.182-.448.313-.594.141-.156.302-.276.469-.344.169-.068.341-.094.531-.094zm-12.969 7.844v3.7510000000000003c0 .138.112.25.25.25h25.5c.138 0 .25-.112.25-.25v-3.7510000000000003h-26z"
  transform="translate(3)" />
</svg>