<svg xmlns="http://www.w3.org/2000/svg" version="1.1" data-icon="file-ai" width="32" height="32" data-container-transform="scale(1 1 ) translate(3 0 )" viewBox="0 0 32 32">
  <path d="M.25 0c-.138 0-.25.113-.25.25v15.75h26v-8h-7.75c-.138 0-.25-.113-.25-.25v-7.75h-17.75zm18.75 0v7h7l-7-7zm-14.75 19.188l-2.156 5.813h1.5l.406-1.188h2.156l.406 1.188h1.563l-2.156-5.813h-1.719zm4.438 0v1.031h.969v3.75h-.969v1.031h3.406v-1.031h-.938v-3.75h.938v-1.031h-3.406zm-3.594 1.5l.719 2.063h-1.438l.719-2.063zm-5.094 7.313v3.7510000000000003c0 .138.112.25.25.25h25.5c.138 0 .25-.112.25-.25v-3.7510000000000003h-26z"
  transform="translate(3)" />
</svg>