<svg xmlns="http://www.w3.org/2000/svg" version="1.1" data-icon="file-png" width="32" height="32" data-container-transform="scale(1 1 ) translate(3 0 )" viewBox="0 0 32 32">
  <path d="M.25 0c-.138 0-.25.113-.25.25v15.75h26v-8h-7.75c-.138 0-.25-.113-.25-.25v-7.75h-17.75zm18.75 0v7h7l-7-7zm-.75 19.063c-1.01 0-1.81.289-2.375.844-.565.552-.844 1.284-.844 2.188 0 .948.284 1.68.844 2.219.56.536 1.354.813 2.344.813.427 0 .852-.057 1.281-.156.43-.102.771-.211 1.031-.313v-2.844h-2.688v1.094h1.156v1.125c-.057.005-.117.029-.188.031-.068.003-.13 0-.188 0-.667 0-1.159-.19-1.5-.531-.341-.341-.531-.826-.531-1.469 0-.315.062-.604.156-.844.096-.242.211-.437.375-.594.172-.161.378-.266.594-.344.216-.078.453-.125.719-.125.227 0 .424.034.625.094.203.06.411.135.563.219.13.07.234.148.375.25.141.099.271.164.344.219h.156v-1.344c-.424-.206-.81-.339-1.156-.406-.346-.07-.711-.125-1.094-.125zm-15.5.125v5.813h1.5v-1.906h.938c.424 0 .779-.039 1.063-.156.286-.117.518-.302.75-.531.169-.169.315-.378.406-.625.091-.25.125-.49.125-.75 0-.336-.063-.635-.188-.875-.122-.24-.297-.44-.531-.594-.195-.128-.401-.219-.656-.281-.253-.065-.568-.094-.938-.094h-2.469zm5.844 0v5.813h1.375v-4l2.469 4h1.438v-5.813h-1.375v3.313l-2.094-3.313h-1.813zm-4.344 1.094h.25c.247 0 .445-.008.594 0 .148.005.312.031.469.094.117.047.224.13.313.25.089.117.125.273.125.438 0 .167-.018.289-.063.406-.042.115-.122.229-.219.313-.112.094-.24.156-.406.188-.164.031-.37.031-.625.031h-.438v-1.719zm-4.25 7.719v3.7510000000000003c0 .138.112.25.25.25h25.5c.138 0 .25-.112.25-.25v-3.7510000000000003h-26z"
  transform="translate(3)" />
</svg>