<svg xmlns="http://www.w3.org/2000/svg" version="1.1" data-icon="file-xml" width="32" height="32" data-container-transform="scale(1 1 ) translate(3 0 )" viewBox="0 0 32 32">
  <path d="M.25 0c-.138 0-.25.113-.25.25v15.75h26v-8h-7.75c-.138 0-.25-.113-.25-.25v-7.75h-17.75zm18.75 0v7h7l-7-7zm-16.875 19.188l2.031 2.875-2.063 2.938h1.656l1.281-1.906 1.25 1.906h1.719l-2.063-3 2.063-2.813h-1.688l-1.25 1.813-1.188-1.813h-1.75zm6.719 0v5.813h1.406v-3.906l1.094 2.531h1.031l1.094-2.531v3.906h1.469v-5.813h-1.719l-1.313 2.906-1.313-2.906h-1.75zm7.594 0v5.813h4.188v-1.125h-2.688v-4.688h-1.5zm-16.438 8.813v3.7510000000000003c0 .138.112.25.25.25h25.5c.138 0 .25-.112.25-.25v-3.7510000000000003h-26z"
  transform="translate(3)" />
</svg>