<svg xmlns="http://www.w3.org/2000/svg" version="1.1" data-icon="file-svg" width="128" height="128" data-container-transform="translate(15 0 ) scale(1 1 )" viewBox="0 0 128 128">
  <path d="M1 0c-.55 0-1 .45-1 1v126c0 .55.45 1 1 1h96c.275 0 .537-.1.719-.281.181-.181.281-.444.281-.719v-29h-61c-.55 0-1-.45-1-1v-28c0-.55.45-1 1-1h61v-42h-25c-.55 0-1-.45-1-1v-25h-71zm73 0v23c0 .55.45 1 1 1h23l-24-24zm.906 78.875c-1.895 0-3.378.522-4.438 1.563-1.06 1.035-1.594 2.399-1.594 4.094 0 1.777.513 3.177 1.563 4.188 1.05 1.006 2.52 1.5 4.375 1.5.801 0 1.601-.096 2.406-.281.806-.19 1.449-.372 1.938-.563v-5.375h-5.031v2.063h2.188v2.125c-.107.01-.243.026-.375.031-.127.005-.236 0-.344 0-1.25 0-2.204-.329-2.844-.969-.64-.64-.969-1.544-.969-2.75 0-.591.105-1.113.281-1.563.181-.454.411-.832.719-1.125.322-.303.688-.541 1.094-.688.405-.146.877-.219 1.375-.219.425 0 .812.075 1.188.188.381.112.717.25 1 .406.244.132.486.278.75.469.264.186.488.335.625.438h.313v-2.563c-.796-.386-1.538-.623-2.188-.75-.649-.132-1.313-.219-2.031-.219zm-23.156.031c-1.431 0-2.618.324-3.531.969-.908.64-1.344 1.453-1.344 2.469 0 .757.193 1.394.594 1.906.405.508 1.051.921 1.969 1.219.4.132.827.225 1.281.313.459.083.902.184 1.313.281.391.093.675.23.875.406.205.171.312.354.313.594 0 .259-.046.462-.188.594-.137.132-.316.256-.531.344-.176.068-.409.096-.688.125-.278.029-.517.063-.688.063-.664 0-1.34-.126-2.063-.375-.718-.249-1.388-.599-1.969-1.063h-.281v2.594c.586.244 1.206.464 1.875.625.674.156 1.44.219 2.344.219 1.562 0 2.811-.331 3.719-1 .913-.674 1.375-1.551 1.375-2.625 0-.752-.193-1.344-.594-1.813-.396-.474-1.009-.852-1.844-1.125-.425-.137-.848-.234-1.219-.313-.366-.078-.725-.167-1.125-.25-.61-.127-1.03-.286-1.25-.438-.22-.156-.344-.368-.344-.656 0-.19.082-.354.219-.5.137-.151.278-.27.469-.344.215-.088.458-.127.688-.156.234-.034.453-.062.688-.063.664 0 1.334.105 1.969.344.64.234 1.154.555 1.594.906h.313v-2.531c-.513-.21-1.109-.395-1.813-.531-.698-.142-1.407-.187-2.125-.188zm5.094.188l3.969 10.906h3.156l3.969-10.906h-2.875l-2.625 7.656-2.656-7.656h-2.938z"
  transform="translate(15)" />
</svg>