<svg xmlns="http://www.w3.org/2000/svg" version="1.1" data-icon="file-html" width="32" height="32" data-container-transform="scale(1 1 ) translate(3 0 )" viewBox="0 0 32 32">
  <path d="M.25 0c-.138 0-.25.113-.25.25v15.75h26v-8h-7.75c-.138 0-.25-.113-.25-.25v-7.75h-17.75zm18.75 0v7h7l-7-7zm-16.25 19.188v5.813h1.5v-2.563h2.219v2.563h1.5v-5.813h-1.5v2.125h-2.219v-2.125h-1.5zm6.125 0v1.125h1.813v4.688h1.5v-4.688h1.813v-1.125h-5.125zm6.031 0v5.813h1.406v-3.906l1.063 2.531h1.063l1.063-2.531v3.906h1.5v-5.813h-1.75l-1.313 2.906-1.313-2.906h-1.719zm7.563 0v5.813h4.219v-1.125h-2.719v-4.688h-1.5zm-22.469 8.813v3.7510000000000003c0 .138.112.25.25.25h25.5c.138 0 .25-.112.25-.25v-3.7510000000000003h-26z"
  transform="translate(3)" />
</svg>