<svg xmlns="http://www.w3.org/2000/svg" version="1.1" data-icon="file-mp3" width="32" height="32" data-container-transform="scale(1 1 ) translate(3 0 )" viewBox="0 0 32 32">
  <path d="M.25 0c-.138 0-.25.113-.25.25v15.75h26v-8h-7.75c-.138 0-.25-.113-.25-.25v-7.75h-17.75zm18.75 0v7h7l-7-7zm-.875 19.063c-.378 0-.727.044-1.094.125-.367.078-.661.164-.875.25v1.25h.156c.268-.159.526-.292.813-.375.286-.086.568-.125.813-.125.099 0 .206.016.344.031.138.016.242.047.344.094.091.042.19.115.25.188.06.07.094.164.094.281 0 .159-.036.26-.094.344-.057.081-.135.138-.25.188-.109.047-.25.081-.406.094-.156.013-.328.031-.531.031h-.344v1.031h.313c.154 0 .32.026.5.031.18.003.341.021.469.063.128.039.234.094.313.188.078.091.125.206.125.375 0 .174-.036.313-.094.406-.057.091-.122.185-.219.25-.122.083-.292.13-.469.156-.177.023-.349.031-.5.031-.258 0-.531-.057-.844-.156-.31-.099-.589-.208-.813-.344h-.125v1.281c.216.094.469.174.813.25.346.076.768.125 1.25.125.422 0 .768-.039 1.063-.125.297-.089.562-.211.781-.375.224-.169.393-.388.5-.625.109-.237.156-.477.156-.75 0-.242-.018-.448-.094-.594-.076-.146-.185-.266-.313-.375-.122-.104-.258-.195-.406-.25-.148-.055-.305-.076-.438-.094v-.063c.328-.07.612-.247.813-.5.201-.255.312-.521.313-.844 0-.245-.083-.474-.188-.656-.104-.182-.255-.341-.469-.469-.18-.107-.411-.187-.688-.25-.276-.065-.602-.094-.969-.094zm-15.375.125v5.813h1.406v-3.906l1.094 2.531h1.031l1.063-2.531v3.906h1.5v-5.813h-1.75l-1.313 2.906-1.281-2.906h-1.75zm7.563 0v5.813h1.5v-1.906h.938c.424 0 .779-.039 1.063-.156.286-.117.549-.302.781-.531.169-.169.315-.378.406-.625.091-.25.125-.49.125-.75 0-.336-.063-.635-.188-.875-.122-.24-.297-.44-.531-.594-.195-.128-.432-.219-.688-.281-.253-.065-.568-.094-.938-.094h-2.469zm1.5 1.094h.25c.247 0 .477-.008.625 0 .148.005.281.031.438.094.117.047.224.13.313.25.089.117.125.273.125.438 0 .167-.018.289-.063.406-.042.115-.091.229-.188.313-.112.094-.271.156-.438.188-.164.031-.37.031-.625.031h-.438v-1.719zm-11.813 7.719v3.7510000000000003c0 .138.112.25.25.25h25.5c.138 0 .25-.112.25-.25v-3.7510000000000003h-26z"
  transform="translate(3)" />
</svg>