<svg xmlns="http://www.w3.org/2000/svg" version="1.1" data-icon="file-dmg" width="32" height="32" data-container-transform="scale(1 1 ) translate(3 0 )" viewBox="0 0 32 32">
  <path d="M.25 0c-.138 0-.25.113-.25.25v15.75h26v-8h-7.75c-.138 0-.25-.113-.25-.25v-7.75h-17.75zm18.75 0v7h7l-7-7zm.844 19.063c-1.01 0-1.81.289-2.375.844-.565.552-.844 1.284-.844 2.188 0 .948.284 1.68.844 2.219.56.536 1.323.813 2.313.813.427 0 .852-.057 1.281-.156.43-.102.771-.211 1.031-.313v-2.844h-2.656v1.094h1.156v1.125c-.057.005-.148.029-.219.031-.068.003-.13 0-.188 0-.667 0-1.159-.19-1.5-.531-.341-.341-.5-.826-.5-1.469 0-.315.031-.604.125-.844.096-.242.242-.437.406-.594.172-.161.346-.266.563-.344.216-.078.453-.125.719-.125.227 0 .456.034.656.094.203.06.38.135.531.219.13.07.266.148.406.25.141.099.24.164.313.219h.188v-1.344c-.424-.206-.81-.339-1.156-.406-.346-.07-.711-.125-1.094-.125zm-17.094.125v5.813h2.031c.464 0 .88-.026 1.219-.094.339-.068.654-.203.938-.375.378-.229.69-.542.938-.969.247-.43.375-.927.375-1.469 0-.562-.143-1.055-.375-1.469-.229-.417-.536-.755-.938-1-.234-.146-.531-.234-.875-.313-.344-.081-.745-.125-1.219-.125h-2.094zm6.625 0v5.813h1.438v-3.906l1.063 2.531h1.031l1.094-2.531v3.906h1.469v-5.813h-1.719l-1.313 2.906-1.313-2.906h-1.75zm-5.125 1.094h.375c.323 0 .56.003.719.031.161.026.315.081.469.156.302.154.518.352.656.625.141.271.219.617.219 1 0 .385-.06.706-.188.969-.128.26-.32.469-.594.625-.159.086-.333.154-.5.188-.167.031-.424.031-.781.031h-.375v-3.625zm-4.25 7.719v3.7510000000000003c0 .138.112.25.25.25h25.5c.138 0 .25-.112.25-.25v-3.7510000000000003h-26z"
  transform="translate(3)" />
</svg>