<svg xmlns="http://www.w3.org/2000/svg" version="1.1" data-icon="file-gif" width="32" height="32" data-container-transform="scale(1 1 ) translate(3 0 )" viewBox="0 0 32 32">
  <path d="M.25 0c-.138 0-.25.113-.25.25v15.75h26v-8h-7.75c-.138 0-.25-.113-.25-.25v-7.75h-17.75zm18.75 0v7h7l-7-7zm-13.375 19.063c-1.01 0-1.81.289-2.375.844-.565.552-.844 1.284-.844 2.188 0 .948.284 1.68.844 2.219.56.536 1.323.813 2.313.813.427 0 .852-.057 1.281-.156.43-.102.771-.211 1.031-.313v-2.844h-2.688v1.094h1.188v1.125c-.057.005-.117.029-.188.031-.068.003-.13 0-.188 0-.667 0-1.19-.19-1.531-.531-.341-.341-.5-.826-.5-1.469 0-.315.031-.604.125-.844.096-.242.242-.437.406-.594.172-.161.346-.266.563-.344.216-.078.484-.125.75-.125.227 0 .424.034.625.094.203.06.38.135.531.219.13.07.266.148.406.25.141.099.24.164.313.219h.188v-1.344c-.424-.206-.81-.339-1.156-.406-.346-.07-.711-.125-1.094-.125zm3.344.125v1.031h.938v3.75h-.938v1.031h3.406v-1.031h-.969v-3.75h.969v-1.031h-3.406zm4.625 0v5.813h1.5v-2.5h2.469v-1.125h-2.469v-1.063h2.688v-1.125h-4.188zm-13.594 8.813v3.7510000000000003c0 .138.112.25.25.25h25.5c.138 0 .25-.112.25-.25v-3.7510000000000003h-26z"
  transform="translate(3)" />
</svg>