<svg width="22px" height="22px" viewBox="0 0 22 22" version="1.1" xmlns="http://www.w3.org/2000/svg" xmlns:xlink="http://www.w3.org/1999/xlink">
    <g id="File" stroke="none" stroke-width="1" fill="none" fill-rule="evenodd">
        <path d="M11,22 C4.96842105,22 0,17.0234338 0,10.9947394 C0,4.97656624 4.96842105,0 11,0 C17.0210526,0 22,4.97656624 22,10.9947394 C22,17.0234338 17.0315789,22 11,22 Z M8.13684211,16.6551889 L13.8526316,16.6551889 C15.0315789,16.6551889 15.6421053,16.0133907 15.6421053,14.8455285 L15.6421053,10.1635581 L11.4947368,10.1635581 C10.8315789,10.1635581 10.5052632,9.84791966 10.5052632,9.18507891 L10.5052632,4.98708752 L8.13684211,4.98708752 C6.96842105,4.98708752 6.34736842,5.6288857 6.34736842,6.79674797 L6.34736842,14.8455285 C6.34736842,16.023912 6.96842105,16.6551889 8.13684211,16.6551889 Z M11.7052632,9.29029173 L15.6,9.29029173 C15.5684211,9.03778097 15.3684211,8.78527021 15.0736842,8.49067432 L12.1789474,5.55523673 C11.8947368,5.27116212 11.6421053,5.07125777 11.3894737,5.03969393 L11.3894737,8.97465328 C11.3894737,9.18507891 11.4947368,9.29029173 11.7052632,9.29029173 Z" id="file-fill" fill="#252525" fill-rule="nonzero"></path>
    </g>
</svg>
