<svg xmlns="http://www.w3.org/2000/svg" version="1.1" data-icon="file-jpg" width="128" height="128" data-container-transform="translate(15 0 ) scale(1 1 )" viewBox="0 0 128 128">
  <path d="M1 0c-.55 0-1 .45-1 1v126c0 .55.45 1 1 1h96c.275 0 .537-.1.719-.281.181-.181.281-.444.281-.719v-29h-61c-.55 0-1-.45-1-1v-28c0-.55.45-1 1-1h61v-42h-25c-.55 0-1-.45-1-1v-25h-71zm73 0v23c0 .55.45 1 1 1h23l-24-24zm-1.906 78.875c-1.895 0-3.378.522-4.438 1.563-1.06 1.035-1.594 2.399-1.594 4.094 0 1.777.513 3.177 1.563 4.188 1.05 1.006 2.52 1.5 4.375 1.5.801 0 1.601-.096 2.406-.281.806-.19 1.449-.372 1.938-.563v-5.375h-5.031v2.063h2.188v2.125c-.107.01-.243.026-.375.031-.127.005-.236 0-.344 0-1.25 0-2.204-.329-2.844-.969-.64-.64-.969-1.544-.969-2.75 0-.591.105-1.113.281-1.563.181-.454.411-.832.719-1.125.322-.303.688-.541 1.094-.688.405-.146.877-.219 1.375-.219.425 0 .812.075 1.188.188.381.112.717.25 1 .406.244.132.486.278.75.469.264.186.488.335.625.438h.313v-2.563c-.796-.386-1.538-.623-2.188-.75-.649-.132-1.313-.219-2.031-.219zm-24.344.219v2h2.5v4.344c0 .444.015.806 0 1.094-.015.283-.075.542-.188.781-.117.244-.315.457-.594.594-.273.137-.675.188-1.188.188-.396 0-.715-.021-.969-.094-.254-.078-.516-.162-.75-.25h-.25v2.219c.337.068.712.122 1.156.156.444.039.935.031 1.438.031.742 0 1.372-.084 1.875-.25.503-.171.925-.411 1.281-.719.337-.288.579-.616.75-1.031.171-.42.25-.865.25-1.344v-7.719h-5.313zm7.969 0v10.906h2.813v-3.563h1.75c.796 0 1.468-.093 2-.313.537-.22 1.003-.539 1.438-.969.317-.317.579-.724.75-1.188.171-.469.25-.949.25-1.438 0-.63-.109-1.176-.344-1.625-.23-.449-.592-.806-1.031-1.094-.366-.239-.771-.414-1.25-.531-.474-.122-1.057-.187-1.75-.188h-4.625zm2.813 2.031h.469c.464 0 .847.017 1.125.031.278.01.551.07.844.188.22.088.428.244.594.469.166.22.25.474.25.781 0 .313-.042.593-.125.813-.078.215-.226.406-.406.563-.21.176-.469.285-.781.344-.308.059-.678.094-1.156.094h-.813v-3.281z"
  transform="translate(15)" />
</svg>