<svg xmlns="http://www.w3.org/2000/svg" version="1.1" data-icon="file-ai" width="128" height="128" data-container-transform="translate(15 0 ) scale(1 1 )" viewBox="0 0 128 128">
  <path d="M1 0c-.55 0-1 .45-1 1v126c0 .55.45 1 1 1h96c.275 0 .537-.1.719-.281.181-.181.281-.444.281-.719v-29h-61c-.55 0-1-.45-1-1v-28c0-.55.45-1 1-1h61v-42h-25c-.55 0-1-.45-1-1v-25h-71zm73 0v23c0 .55.45 1 1 1h23l-24-24zm-23.781 79.094l-4.031 10.906h2.813l.75-2.219h4.063l.75 2.219h2.906l-4.031-10.906h-3.219zm8.344 0v1.938h1.781v7.031h-1.781v1.938h6.375v-1.938h-1.781v-7.031h1.781v-1.938h-6.375zm-6.781 2.781l1.344 3.906h-2.688l1.344-3.906z"
  transform="translate(15)" />
</svg>