<svg xmlns="http://www.w3.org/2000/svg" version="1.1" data-icon="file-zip" width="32" height="32" data-container-transform="scale(1 1 ) translate(3 0 )" viewBox="0 0 32 32">
  <path d="M.25 0c-.138 0-.25.113-.25.25v15.75h26v-8h-7.75c-.138 0-.25-.113-.25-.25v-7.75h-17.75zm18.75 0v7h7l-7-7zm-16.5 19.188v1.125h2.75l-2.906 3.594v1.094h4.906v-1.125h-3.063l2.906-3.594v-1.094h-4.594zm5.5 0v1.031h.969v3.75h-.969v1.031h3.406v-1.031h-.938v-3.75h.938v-1.031h-3.406zm4.656 0v5.813h1.5v-1.906h.938c.424 0 .779-.039 1.063-.156.286-.117.549-.302.781-.531.169-.169.284-.378.375-.625.091-.25.125-.49.125-.75 0-.336-.063-.635-.188-.875-.122-.24-.297-.44-.531-.594-.195-.128-.401-.219-.656-.281-.253-.065-.568-.094-.938-.094h-2.469zm1.5 1.094h.25c.247 0 .445-.008.594 0 .148.005.312.031.469.094.117.047.193.13.281.25.089.117.156.273.156.438 0 .167-.018.289-.063.406-.042.115-.122.229-.219.313-.112.094-.24.156-.406.188-.164.031-.401.031-.656.031h-.406v-1.719zm-14.156 7.719v3.7510000000000003c0 .138.112.25.25.25h25.5c.138 0 .25-.112.25-.25v-3.7510000000000003h-26z"
  transform="translate(3)" />
</svg>