<svg xmlns="http://www.w3.org/2000/svg" version="1.1" data-icon="file-svg" width="32" height="32" data-container-transform="scale(1 1 ) translate(3 0 )" viewBox="0 0 32 32">
  <path d="M.25 0c-.138 0-.25.113-.25.25v15.75h26v-8h-7.75c-.138 0-.25-.113-.25-.25v-7.75h-17.75zm18.75 0v7h7l-7-7zm-13.938 19.063c-.763 0-1.388.188-1.875.531-.484.341-.719.771-.719 1.313 0 .404.099.758.313 1.031.216.271.573.466 1.063.625.214.07.445.141.688.188.245.044.469.104.688.156.208.049.362.125.469.219.109.091.156.185.156.313 0 .138-.018.242-.094.313-.073.07-.167.141-.281.188-.094.036-.227.047-.375.063s-.253.031-.344.031c-.354 0-.74-.055-1.125-.188-.383-.133-.721-.346-1.031-.594h-.156v1.406c.312.13.643.227 1 .313.359.083.768.125 1.25.125.833 0 1.484-.174 1.969-.531.487-.359.75-.802.75-1.375 0-.401-.13-.75-.344-1-.211-.253-.523-.448-.969-.594-.227-.073-.427-.115-.625-.156-.195-.042-.411-.081-.625-.125-.326-.068-.539-.169-.656-.25-.117-.083-.188-.19-.188-.344 0-.102.052-.203.125-.281.073-.081.148-.117.25-.156.115-.047.221-.078.344-.094.125-.018.25-.031.375-.031.354 0 .724.06 1.063.188.341.125.609.281.844.469h.156v-1.344c-.273-.112-.594-.208-.969-.281-.372-.076-.742-.125-1.125-.125zm12.344 0c-1.01 0-1.779.289-2.344.844-.565.552-.875 1.284-.875 2.188 0 .948.284 1.68.844 2.219.56.536 1.354.813 2.344.813.427 0 .852-.057 1.281-.156.43-.102.771-.211 1.031-.313v-2.844h-2.688v1.094h1.156v1.125c-.057.005-.117.029-.188.031-.068.003-.13 0-.188 0-.667 0-1.159-.19-1.5-.531-.341-.341-.531-.826-.531-1.469 0-.315.062-.604.156-.844.096-.242.211-.437.375-.594.172-.161.378-.266.594-.344.216-.078.453-.125.719-.125.227 0 .456.034.656.094.203.06.349.135.5.219.13.07.297.148.438.25.141.099.24.164.313.219h.156v-1.344c-.424-.206-.81-.339-1.156-.406-.346-.07-.711-.125-1.094-.125zm-9.625.125l2.125 5.813h1.688l2.094-5.813h-1.531l-1.406 4.094-1.406-4.094h-1.563zm-7.781 8.813v3.7510000000000003c0 .138.112.25.25.25h25.5c.138 0 .25-.112.25-.25v-3.7510000000000003h-26z"
  transform="translate(3)" />
</svg>