<svg xmlns="http://www.w3.org/2000/svg" version="1.1" data-icon="file-dmg" width="128" height="128" data-container-transform="translate(15 0 ) scale(1 1 )" viewBox="0 0 128 128">
  <path d="M1 0c-.55 0-1 .45-1 1v126c0 .55.45 1 1 1h96c.275 0 .537-.1.719-.281.181-.181.281-.444.281-.719v-29h-61c-.55 0-1-.45-1-1v-28c0-.55.45-1 1-1h61v-42h-25c-.55 0-1-.45-1-1v-25h-71zm73 0v23c0 .55.45 1 1 1h23l-24-24zm5.438 78.875c-1.895 0-3.378.522-4.438 1.563-1.06 1.035-1.594 2.399-1.594 4.094 0 1.777.544 3.177 1.594 4.188 1.05 1.006 2.488 1.5 4.344 1.5.801 0 1.601-.096 2.406-.281.806-.19 1.449-.372 1.938-.563v-5.375h-5.031v2.063h2.188v2.125c-.107.01-.243.026-.375.031-.127.005-.236 0-.344 0-1.25 0-2.204-.329-2.844-.969-.64-.64-.938-1.544-.938-2.75 0-.591.074-1.113.25-1.563.181-.454.442-.832.75-1.125.322-.303.688-.541 1.094-.688.405-.146.846-.219 1.344-.219.425 0 .812.075 1.188.188.381.112.717.25 1 .406.244.132.518.278.781.469.264.186.457.335.594.438h.313v-2.563c-.796-.386-1.507-.623-2.156-.75-.649-.132-1.345-.219-2.063-.219zm-32.031.219v10.906h3.844c.869 0 1.615-.061 2.25-.188s1.218-.365 1.75-.688c.708-.43 1.286-1.043 1.75-1.844.464-.806.687-1.703.688-2.719 0-1.055-.222-1.974-.656-2.75-.43-.781-.998-1.416-1.75-1.875-.439-.273-.98-.479-1.625-.625-.645-.151-1.424-.219-2.313-.219h-3.938zm12.438 0v10.906h2.656v-7.313l2 4.75h1.969l2-4.75v7.313h2.813v-10.906h-3.281l-2.438 5.469-2.469-5.469h-3.25zm-9.625 2.031h.688c.605 0 1.077.04 1.375.094.303.049.587.14.875.281.566.288.991.675 1.25 1.188.264.508.375 1.126.375 1.844 0 .723-.105 1.351-.344 1.844-.239.488-.612.863-1.125 1.156-.298.161-.625.28-.938.344-.313.059-.8.094-1.469.094h-.688v-6.844z"
  transform="translate(15)" />
</svg>