<svg xmlns="http://www.w3.org/2000/svg" version="1.1" data-icon="flow-three-up" width="128" height="128" data-container-transform="translate(0 ) scale(1 1 )" viewBox="0 0 128 128">
  <path d="M1.5 0c-.828 0-1.5.672-1.5 1.5v75c0 .828.672 1.5 1.5 1.5h33c.828 0 1.5-.672 1.5-1.5v-75c0-.828-.672-1.5-1.5-1.5h-33zm46 0c-.828 0-1.5.672-1.5 1.5v19c0 .828.672 1.5 1.5 1.5h33c.828 0 1.5-.672 1.5-1.5v-19c0-.828-.672-1.5-1.5-1.5h-33zm46 0c-.828 0-1.5.672-1.5 1.5v33c0 .828.672 1.5 1.5 1.5h33c.828 0 1.5-.672 1.5-1.5v-33c0-.828-.672-1.5-1.5-1.5h-33zm-46 32c-.828 0-1.5.672-1.5 1.5v61c0 .828.672 1.5 1.5 1.5h33c.828 0 1.5-.672 1.5-1.5v-61c0-.828-.672-1.5-1.5-1.5h-33zm46 14c-.828 0-1.5.672-1.5 1.5v79c0 .828.672 1.5 1.5 1.5h33c.828 0 1.5-.672 1.5-1.5v-79c0-.828-.672-1.5-1.5-1.5h-33zm-92 42c-.828 0-1.5.672-1.5 1.5v37c0 .828.672 1.5 1.5 1.5h33c.828 0 1.5-.672 1.5-1.5v-37c0-.828-.672-1.5-1.5-1.5h-33zm46 18c-.828 0-1.5.672-1.5 1.5v19c0 .828.672 1.5 1.5 1.5h33c.828 0 1.5-.672 1.5-1.5v-19c0-.828-.672-1.5-1.5-1.5h-33z"
  />
</svg>