<svg xmlns="http://www.w3.org/2000/svg" version="1.1" data-icon="flow-two-up" width="128" height="128" data-container-transform="translate(0 ) scale(1 1 )" viewBox="0 0 128 128">
  <path d="M1.5 0c-.828 0-1.5.672-1.5 1.5v25c0 .828.672 1.5 1.5 1.5h55c.828 0 1.5-.672 1.5-1.5v-25c0-.828-.672-1.5-1.5-1.5h-55zm70 0c-.828 0-1.5.672-1.5 1.5v73c0 .828.672 1.5 1.5 1.5h55c.828 0 1.5-.672 1.5-1.5v-73c0-.828-.672-1.5-1.5-1.5h-55zm-70 40c-.828 0-1.5.672-1.5 1.5v85c0 .828.672 1.5 1.5 1.5h55c.828 0 1.5-.672 1.5-1.5v-85c0-.828-.672-1.5-1.5-1.5h-55zm70 48c-.828 0-1.5.672-1.5 1.5v37c0 .828.672 1.5 1.5 1.5h55c.828 0 1.5-.672 1.5-1.5v-37c0-.828-.672-1.5-1.5-1.5h-55z"
  />
</svg>