<svg xmlns="http://www.w3.org/2000/svg" version="1.1" data-icon="flow-four-up" width="128" height="128" data-container-transform="translate(0 ) scale(1 1 )" viewBox="0 0 128 128">
  <path d="M1.5 0c-.828 0-1.5.672-1.5 1.5v47c0 .828.672 1.5 1.5 1.5h17c.828 0 1.5-.672 1.5-1.5v-47c0-.828-.672-1.5-1.5-1.5h-17zm36 0c-.828 0-1.5.672-1.5 1.5v17c0 .828.672 1.5 1.5 1.5h17c.828 0 1.5-.672 1.5-1.5v-17c0-.828-.672-1.5-1.5-1.5h-17zm36 0c-.828 0-1.5.672-1.5 1.5v61c0 .828.672 1.5 1.5 1.5h17c.828 0 1.5-.672 1.5-1.5v-61c0-.828-.672-1.5-1.5-1.5h-17zm36 0c-.828 0-1.5.672-1.5 1.5v23c0 .828.672 1.5 1.5 1.5h17c.828 0 1.5-.672 1.5-1.5v-23c0-.828-.672-1.5-1.5-1.5h-17zm-72 36c-.828 0-1.5.672-1.5 1.5v17c0 .828.672 1.5 1.5 1.5h17c.828 0 1.5-.672 1.5-1.5v-17c0-.828-.672-1.5-1.5-1.5h-17zm72 6c-.828 0-1.5.672-1.5 1.5v47c0 .828.672 1.5 1.5 1.5h17c.828 0 1.5-.672 1.5-1.5v-47c0-.828-.672-1.5-1.5-1.5h-17zm-108 24c-.828 0-1.5.672-1.5 1.5v17c0 .828.672 1.5 1.5 1.5h17c.828 0 1.5-.672 1.5-1.5v-17c0-.828-.672-1.5-1.5-1.5h-17zm36 6c-.828 0-1.5.672-1.5 1.5v53c0 .828.672 1.5 1.5 1.5h17c.828 0 1.5-.672 1.5-1.5v-53c0-.828-.672-1.5-1.5-1.5h-17zm36 8c-.828 0-1.5.672-1.5 1.5v45c0 .828.672 1.5 1.5 1.5h17c.828 0 1.5-.672 1.5-1.5v-45c0-.828-.672-1.5-1.5-1.5h-17zm-72 22c-.828 0-1.5.672-1.5 1.5v23c0 .828.672 1.5 1.5 1.5h17c.828 0 1.5-.672 1.5-1.5v-23c0-.828-.672-1.5-1.5-1.5h-17zm108 6c-.828 0-1.5.672-1.5 1.5v17c0 .828.672 1.5 1.5 1.5h17c.828 0 1.5-.672 1.5-1.5v-17c0-.828-.672-1.5-1.5-1.5h-17z"
  />
</svg>