<svg xmlns="http://www.w3.org/2000/svg" version="1.1" width="32" height="32" data-icon="fork" data-container-transform="translate(7)" viewBox="0 0 32 32">
  <path d="M3.5 0c-1.933 0-3.5 1.567-3.5 3.5s1.567 3.5 3.5 3.5 3.5-1.567 3.5-3.5-1.567-3.5-3.5-3.5zm11 5c-1.933 0-3.5 1.567-3.5 3.5s1.567 3.5 3.5 3.5 3.5-1.567 3.5-3.5-1.567-3.5-3.5-3.5zm-12.5 2.719v16.562c.472-.173.967-.281 1.5-.281.53 0 1.028.112 1.5.281v-.781c0-.343.59-1.246.906-1.375l7.313-2.969c1.72-.703 2.781-2.299 2.781-4.156v-2.281c-.472.173-.967.281-1.5.281-.53 0-1.028-.112-1.5-.281v2.281c0 .343-.59 1.246-.906 1.375l-7.094 2.875v-11.531c-.472.169-.97.281-1.5.281-.533 0-1.028-.108-1.5-.281zm1.5 17.281c-1.933 0-3.5 1.567-3.5 3.5s1.567 3.5 3.5 3.5 3.5-1.567 3.5-3.5-1.567-3.5-3.5-3.5z"
  transform="translate(7)" />
</svg>