<svg xmlns="http://www.w3.org/2000/svg" version="1.1" data-icon="fullscreen-enter" width="128" height="128" data-container-transform="translate(0 ) scale(1 1 )" viewBox="0 0 128 128">
  <path d="M1.219.25c-.648-.008-1.081.55-.906 1.25l5.375 25.094c.2.8.806 1.006 1.406.406l7.094-7.125 36.969 36.969 5.688-5.688-36.969-36.969 7.031-7.094c.6-.6.394-1.206-.406-1.406l-25-5.375c-.1-.025-.189-.061-.281-.063zm75.625 70.906l-5.688 5.688 37 37-7.063 7.063c-.6.6-.394 1.181.406 1.281l25 4.5c.8.2 1.388-.388 1.188-1.188l-5.281-24.094c-.2-.8-.806-1.006-1.406-.406l-7.156 7.156-37-37z"
  />
</svg>