<svg xmlns="http://www.w3.org/2000/svg" version="1.1" width="128" height="128" data-icon="full-page" viewBox="0 0 128 128">
  <path d="M1.5 0c-.828 0-1.5.672-1.5 1.5v86.5h4v-74h120v74h4v-86.5c0-.828-.672-1.5-1.5-1.5h-125zm6.5 6v4l-4.125-2 4.125-2zm4 0l4 2-4 2v-4zm10 0h100.094c1.105 0 2 .895 2 2s-.895 2-2 2h-100.094c-1.105 0-2-.895-2-2s.895-2 2-2zm-16 10v10h2v-8h8v-2h-10zm106 0v2h8v8h2v-10h-10zm-52 23v42h-8.5c-.828 0-1.168.565-.75 1.281l12.5 21.438c.417.716 1.082.716 1.5 0l12.5-21.438c.417-.716.078-1.281-.75-1.281h-8.5v-42h-8zm-54 79v10h10v-2h-8v-8h-2zm114 0v8h-8v2h10v-10h-2z"
  />
</svg>