<svg xmlns="http://www.w3.org/2000/svg" version="1.1" width="32" height="32" data-icon="full-page" viewBox="0 0 32 32">
  <path d="M.5 0c-.276 0-.5.224-.5.5v22.5h2v-18h28v18h2v-22.5c0-.276-.224-.5-.5-.5h-31zm2.5 2v1l-1-.5 1-.5zm1 0l1 .5-1 .5v-1zm2.5 0h23c.276 0 .5.224.5.5s-.224.5-.5.5h-23c-.276 0-.5-.224-.5-.5s.224-.5.5-.5zm-3.5 4v4h1v-3h3v-1h-4zm22 0v1h3v3h1v-4h-4zm-11 4v12h-2.5c-.276 0-.364.163-.188.375l4.375 5.25c.177.212.448.212.625 0l4.375-5.25c.177-.212.088-.375-.188-.375h-2.5v-12h-4zm-11 18v4h4v-1h-3v-3h-1zm25 0v3h-3v1h4v-4h-1z"
  />
</svg>