<svg xmlns="http://www.w3.org/2000/svg" version="1.1" data-icon="fullscreen-exit" width="32" height="32" data-container-transform="scale(1 1 ) translate(0 )" viewBox="0 0 32 32">
  <path d="M2.063-.063l-2.125 2.125 9 9-1.531 1.531c-.2.2-.206.406.094.406l6 .906c.3.1.5-.1.5-.5l-.906-6c0-.2-.206-.294-.406-.094l-1.625 1.625-9-9zm16.219 18.156c-.183.033-.281.2-.281.5l.906 6c0 .2.206.294.406.094l1.625-1.625 9 9 2.125-2.125-9-9 1.531-1.531c.2-.2.206-.406-.094-.406l-6-.906c-.075-.025-.158-.011-.219 0z"
  />
</svg>