<svg xmlns="http://www.w3.org/2000/svg" version="1.1" data-icon="fullscreen-exit" width="128" height="128" data-container-transform="translate(0 ) scale(1 1 )" viewBox="0 0 128 128">
  <path d="M6 .344l-5.656 5.656 2.813 2.844 30.969 30.969-7.031 7.094c-.6.6-.394 1.206.406 1.406l25.094 5.375c.7.2 1.294-.388 1.094-1.188l-5.375-25.094c-.2-.8-.806-1.006-1.406-.406l-7.094 7.125-30.969-30.969-2.844-2.813zm69.219 73.906c-.648-.008-1.081.55-.906 1.25l5.375 25.094c.2.8.806 1.006 1.406.406l7.094-7.125 30.969 30.969 2.844 2.813 5.656-5.656-2.813-2.844-30.969-30.969 7.125-7.094c.6-.6.394-1.206-.406-1.406l-25.094-5.375c-.1-.025-.189-.061-.281-.063z"
  />
</svg>