<svg xmlns="http://www.w3.org/2000/svg" version="1.1" width="128" height="128" data-icon="funnel" data-container-transform="translate(4 -1)" viewBox="0 0 128 128">
  <path d="M0 2v.5c0 .829.286 2.103.656 2.844l.688 1.313c.142.284.382.533.656.75v9.094c0 .828.477 1.977 1.063 2.563l47.875 47.875c.586.586 1.063 1.734 1.063 2.563v59c0 .828.603 1.215 1.344.844l13.313-6.656c.741-.37 1.344-1.359 1.344-2.188v-51c0-.828.477-1.977 1.063-2.563l47.875-47.875c.586-.586 1.063-1.733 1.063-2.563v-9.094c.274-.217.514-.466.656-.75l.688-1.313c.371-.741.656-2.016.656-2.844v-.5h-120z"
  transform="translate(4 -1)" />
</svg>