<svg xmlns="http://www.w3.org/2000/svg" version="1.1" width="32" height="32" data-icon="funnel" data-container-transform="translate(1)" viewBox="0 0 32 32">
  <path d="M.344 0a.502.502 0 0 0 .156 1h.5v3.5c0 .276.148.648.344.844l10.313 10.313c.195.195.344.567.344.844v15c0 .276.176.372.406.219l5.188-3.438c.23-.153.406-.505.406-.781v-11c0-.276.148-.648.344-.844l10.313-10.313c.195-.195.344-.568.344-.844v-3.5h.5a.5.5 0 1 0 0-1h-29a.5.5 0 0 0-.094 0 .502.502 0 0 0-.063 0z"
  transform="translate(1)" />
</svg>