<svg xmlns="http://www.w3.org/2000/svg" version="1.1" width="16" height="16" data-icon="game-controller" data-container-transform="translate(0 2)" viewBox="0 0 16 16">
  <path d="M2.5 0c-.275 0-.629.177-.781.406 0 0-1.719 2.594-1.719 5.594 0 1.094-.001 5 1.938 5 1.268 0 1.751-1.325 1.938-2.344-.531-.36-.875-.966-.875-1.656 0-1.105.895-2 2-2s2 .895 2 2h2c0-1.105.895-2 2-2s2 .895 2 2c0 .69-.343 1.296-.875 1.656.188 1.019.668 2.344 1.938 2.344 1.938 0 1.938-3.906 1.938-5 0-3-1.719-5.594-1.719-5.594-.152-.229-.506-.406-.781-.406h-11zm1.5 1h1v1h1v1h-1v1h-1v-1h-1v-1h1v-1zm7.5 0c.276 0 .5.224.5.5s-.224.5-.5.5-.5-.224-.5-.5.224-.5.5-.5zm-1 1c.276 0 .5.224.5.5s-.224.5-.5.5-.5-.224-.5-.5.224-.5.5-.5zm2 0c.276 0 .5.224.5.5s-.224.5-.5.5-.5-.224-.5-.5.224-.5.5-.5zm-1 1c.276 0 .5.224.5.5s-.224.5-.5.5-.5-.224-.5-.5.224-.5.5-.5zm-6.5 3c-.552 0-1 .448-1 1s.448 1 1 1 1-.448 1-1-.448-1-1-1zm6 0c-.552 0-1 .448-1 1s.448 1 1 1 1-.448 1-1-.448-1-1-1z"
  transform="translate(0 2)" />
</svg>