<svg xmlns="http://www.w3.org/2000/svg" version="1.1" width="16" height="16" data-icon="globe" viewBox="0 0 16 16">
  <path d="M8 0c-4.412 0-8 3.588-8 8s3.588 8 8 8 8-3.588 8-8-3.588-8-8-8zm.813 1.063c.626.072 1.217.243 1.781.469-.048.189-.202.344-.406.344-.241 0-.438.196-.438.438 0 .241-.176.59-.375.781l-.188.188c-.198.19-.152.344.094.344s.661-.027.906-.063c.246-.034.291.089.094.281l-.188.156c-.197.192-.324.572-.281.844l.031.219c.043.272.309.389.563.281l1.5-.625c.253-.108.621-.364.813-.563l.188-.188c.192-.197.348-.154.344.094-.004.248.149.617.344.813l.156.156c.195.195.171.342-.063.344-.233.002-.458.196-.469.438-.011.242-.204.441-.438.438-.233-.004-.406-.197-.406-.438s-.224-.343-.469-.219l-.156.094c-.245.125-.623.288-.813.375-.19.087-.495.334-.688.531l-.156.188c-.192.197-.531.518-.719.719l-.125.125c-.188.201-.363.601-.375.875l-.031.75c-.011.275.191.597.438.719l.875.438c.246.122.655.214.906.219.251.005.639.031.875.031s.583.154.781.344l.188.156c.199.19.196.495 0 .688l-.188.188c-.196.193-.347.6-.344.875v.563c-1.197.957-2.72 1.531-4.375 1.531-1.236 0-2.4-.315-3.406-.875h.281c.275 0 .652-.147.844-.344l.156-.188c.192-.197.371-.569.375-.844v-.75c.004-.275-.225-.498-.5-.5h-.75c-.275-.002-.595-.223-.719-.469l-.438-.844c-.124-.245-.444-.44-.719-.438h-.75c-.275.002-.498-.225-.5-.5v-.75c-.002-.275.196-.5.438-.5.241 0 .593.175.781.375l.156.188c.188.2.341.154.344-.094.004-.248-.149-.617-.344-.813l-.156-.156c-.195-.195-.351-.569-.344-.813.007-.244 0-.63 0-.875s.143-.441.313-.438c.169.004.365-.2.438-.438.071-.237.35-.409.625-.406h.531c.275.003.659-.172.844-.375l.156-.188c.185-.203.148-.493-.094-.625l-.656-.344c-.241-.132-.449-.446-.438-.688.011-.241.184-.292.375-.094l.156.156c.191.198.523.224.719.031l.188-.219c.196-.193.348-.548.344-.781-.001-.075.028-.126.063-.188.204-.05.414-.093.625-.125.106.079.189.203.188.344-.004.237-.154.582-.344.781l-.188.188c-.19.199-.142.344.094.344s.589-.147.781-.344l.156-.188c.192-.197.522-.528.719-.719l.469-.438z"
  />
</svg>