<svg xmlns="http://www.w3.org/2000/svg" version="1.1" width="128" height="128" data-icon="globe" viewBox="0 0 128 128">
  <path d="M64 0c-35.323 0-64 28.677-64 64s28.677 64 64 64 64-28.677 64-64-28.677-64-64-64zm8.563 4.625c4.909.7 9.613 2.001 14.063 3.813-.07.079-.125.164-.125.25 0 .516.421 1.359.938 1.875.516.516.094.516-.938 0s-2.719-.938-3.75-.938c-1.031 0-1.875.844-1.875 1.875 0 1.031.421 2.296.938 2.813.516.516.516 1.359 0 1.875s-.094 1.78.938 2.813c1.032 1.032 2.296 1.453 2.813.938.516-.515.938-.095.938.938 0 1.032.421 2.297.938 2.813.516.516.516.938 0 .938s-1.678 1.127-2.594 2.5l-.438.625c-.915 1.373-2.078 2.5-2.594 2.5s-.516.422 0 .938 1.359 1.017 1.875 1.125c.516.107 1.359.951 1.875 1.875s-.412 1.688-2.063 1.688h-1.5c-1.65 0-2.578 1.266-2.063 2.813.515 1.547.516 2.813 0 2.813s-.516.844 0 1.875c.516 1.031 1.781 1.875 2.813 1.875 1.032 0 1.875.072 1.875.156s1.093-.638 2.438-1.594l.813-.563c1.345-.956 2.418-2.584 2.375-3.594-.043-1.01-.063-2.285-.063-2.844 0-.559.451-.98 1.031-.938.58.043 1.485-.329 2-.844.515-.515 1.762-.516 2.75 0s2.641 1.363 3.688 1.906c1.047.542 1.891 1.799 1.875 2.781-.016.982.4 1.791.938 1.813.537.021.959-.782.938-1.813-.021-1.031-.514-2.287-1.094-2.781-.58-.494-1.805-1.338-2.75-1.875-.945-.537-2.192-1.39-2.75-1.906-.558-.516-.619-.998-.125-1.063.494-.065 1.998.671 3.344 1.625l.75.5c1.346.954 2.869 2.172 3.406 2.688.537.516 1 1.319 1 1.813s.451.916 1.031.938c.58.021 1.052-.771 1.031-1.781-.021-1.01.771-1.01 1.781 0 1.01 1.01 2.316 1.422 2.875.906.559-.516 1.402-.094 1.875.938.473 1.032.835 2.658.813 3.625-.022.967-1.287 1.389-2.813.938-1.526-.451-3.213-.381-3.75.156-.537.537-.537 1.39 0 1.906s.125.938-.906.938c-1.031 0-2.287-.432-2.781-.969-.494-.537-1.338-.537-1.875 0-.537.537-1.39.537-1.906 0s-.938-1.812-.938-2.844c0-1.032-.432-1.875-.969-1.875-.537 0-1.371.372-1.844.844-.473.472-1.729.894-2.781.938-1.052.044-2.328.474-2.844.969-.516.494-1.359 1.328-1.875 1.844s-1.781 1.128-2.813 1.344c-1.032.216-1.875.638-1.875.938 0 .3-.844.954-1.875 1.469-1.031.515-1.875 1.781-1.875 2.813 0 1.032-.844 2.719-1.875 3.75-1.031 1.031-2.481 3.087-3.219 4.563l-1.063 2.125c-.738 1.476-1.344 3.109-1.344 3.625s.421 1.781.938 2.813c.516 1.032.516 2.719 0 3.75-.516 1.031-.938 2.296-.938 2.813 0 .516.421 1.359.938 1.875.516.516.938 1.359.938 1.875s.421 1.359.938 1.875c.516.516 1.781 1.359 2.813 1.875 1.032.516 1.875 1.359 1.875 1.875s1.127 1.678 2.5 2.594l.625.438c1.373.915 3.344.812 4.375-.219 1.031-1.031 2.719-1.875 3.75-1.875 1.031 0 3.002-.741 4.375-1.656l.625-.438c1.373-.915 2.921-1.234 3.438-.719.516.515 1.781.938 2.813.938 1.032 0 1.875.844 1.875 1.875 0 1.031-.421 2.296-.938 2.813-.516.516-.094 1.781.938 2.813 1.032 1.032 1.875 2.296 1.875 2.813 0 .516-.421 1.359-.938 1.875-.516.516-.938 1.359-.938 1.875s-.741 2.064-1.656 3.438l-.438.625c-.915 1.373-.672 3.344.531 4.375h-.313c-.313 0-2.188 3.063-2.188 3.063-.263.43-.381.833-.375 1.188-10.162 7.906-22.927 12.625-36.813 12.625-9.45 0-18.395-2.178-26.344-6.063.458-.148.842-.311 1.031-.5.516-.516.938-1.359.938-1.875s1.266-.938 2.813-.938c1.547 0 3.234-.844 3.75-1.875.516-1.031.938-2.7.938-3.688s.844-2.254 1.875-2.813c1.031-.559 1.875-1.843 1.875-2.875s-.844-2.296-1.875-2.813c-1.031-.516-2.297-1.359-2.813-1.875s-2.203-1.329-3.75-1.813c-1.547-.483-4.002-1.494-5.469-2.25l-2.188-1.125c-1.466-.756-2.656-1.797-2.656-2.313 0-.515-.422-1.359-.938-1.875s-1.359-1.781-1.875-2.813c-.516-1.032-2.064-2.616-3.438-3.531l-.625-.438c-1.373-.915-3.106-2.869-3.844-4.344l-1.063-2.125c-.738-1.476-2.187-2.688-3.219-2.688s-2.64-1.132-3.563-2.5l-.438-.625c-.922-1.369-2.089-2.078-2.594-1.563-.505.515-1.329.516-1.844 0-.515-.516-.938-2.287-.938-3.938v-1.5c0-1.65-.421-3.422-.938-3.938-.516-.516-.516-1.781 0-2.813.516-1.032.938-2.738.938-3.781 0-1.043-.421-1.443-.938-.906-.516.537-.707-.372-.438-2l.875-5.313v-.031c.318-.924.67-1.847 1.031-2.75.137-.15.277-.219.406-.219.516 0 .938.422.938.938s.421.938.938.938c.516 0 .619 1.306.219 2.906l-.438 1.688c-.4 1.601-.025 2.906.813 2.906h.344c.352 0 1.281-4.563 1.281-4.563.328-1.617 1.757-3.656 3.156-4.531l.531-.344c1.399-.874 2.531-2.045 2.531-2.625 0-.58.422-1.032.938-1 .516.032.938-.389.938-.938 0-.548.422-1.422.938-1.938s1.359-.516 1.875 0 .938.516.938 0 .422-1.359.938-1.875 1.359-.938 1.875-.938.938.422.938.938.422.938.938.938 1.78-.422 2.813-.938c1.032-.516 1.875-1.359 1.875-1.875s-.422-.938-.938-.938-.938-.422-.938-.938v-1.875c0-.516.422-.516.938 0s1.781.516 2.813 0c1.032-.516 1.453-.516.938 0-.515.516-.938 1.359-.938 1.875s.422 1.359.938 1.875 1.359.938 1.875.938.938-.844.938-1.875c0-1.031-.422-1.875-.938-1.875s-.516-.422 0-.938 1.359-1.78 1.875-2.813c.516-1.032.516-1.875 0-1.875s-.938-.422-.938-.938.422-1.359.938-1.875.928-1.359.906-1.875c-.022-.516-.865-.516-1.875 0s-1.422.095-.906-.938c.516-1.032.516-1.885 0-1.906-.516-.021-1.791.419-2.844 1s-1.916 1.424-1.938 1.875c-.021.451-1.148 1.585-2.5 2.531l-.563.406c-1.352.946-2.047.876-1.531-.156.516-1.032.938-2.297.938-2.813s1.127-1.678 2.5-2.594l.625-.438c1.373-.915 3.766-1.656 5.313-1.656 1.547 0 2.813.421 2.813.938 0 .516.422.938.938.938s2.065-.741 3.438-1.656l.625-.438c1.373-.915 2.922-2.078 3.438-2.594s.516-.938 0-.938-.938-.421-.938-.938c0-.516.844-1.359 1.875-1.875 1.031-.516 2.297-.516 2.813 0s.516 1.359 0 1.875-1.678 2.065-2.594 3.438l-.406.625c-.915 1.373-1.688 2.921-1.688 3.438 0 .516.422 1.359.938 1.875s1.359.938 1.875.938 1.359-.422 1.875-.938 2.065-1.678 3.438-2.594l.656-.438c1.373-.915 3.313-1.656 4.344-1.656 1.031 0 1.875-.421 1.875-.938 0-.516.421-1.359.938-1.875.516-.516.938-1.78.938-2.813 0-1.032 1.266-1.875 2.813-1.875 1.547 0 3.234-.421 3.75-.938.108-.107.136-.216.125-.313zm-3.688 8.75c-1.65 0-3.421.472-3.938 1.031-.516.559-.094 1.402.938 1.875 1.032.473 2.296.422 2.813-.094.516-.516.938-1.661.938-2.563v-.25h-.75zm8.25 6.188c-.34 0-.68.117-.938.375-.515.515.167 1.697 1.531 2.625l.688.469c1.364.928 2.046 2.913 1.531 4.438-.515 1.525.189 2.04 1.563 1.125l.625-.438c1.373-.916 2.079-2.078 1.563-2.594l-1.875-1.875-1.875-1.875-1.875-1.875c-.258-.258-.598-.375-.938-.375zm0 3.75c-.34 0-.68.117-.938.375-.516.516-.938 1.78-.938 2.813 0 1.031.844 1.031 1.875 0 1.031-1.031 1.453-2.297.938-2.813-.257-.258-.598-.375-.938-.375zm-67.219 30.563c-.177.04-.281.285-.281.688 0 1.074.421 2.359.938 2.875.516.516 1.359.938 1.875.938s.21-1.147-.688-2.531l-.5-.719c-.561-.865-1.049-1.316-1.344-1.25zm-5.719 5.469c.171 1.097.438 2.158.75 2.781.516 1.031.938 3.141.938 4.688 0 1.547.421 3.234.938 3.75.516.516 1.359 1.781 1.875 2.813.516 1.032.516 2.327 0 2.875s-.938 1.392-.938 1.875v2.75c0 .777-.105 2.17-.219 3.531-2.302-6.372-3.531-13.236-3.531-20.406 0-1.57.069-3.116.188-4.656zm10.031.906c-.559 0-1.402.422-1.875.938-.473.516-.001 1.359 1.031 1.875 1.032.516 1.875.094 1.875-.938s-.472-1.875-1.031-1.875zm5.188 5.063c-.25.008-.406.533-.406 1.5 0 1.547.422 2.813.938 2.813s.938-.421.938-.938c0-.516-.422-1.781-.938-2.813-.194-.387-.381-.567-.531-.563z"
  />
</svg>