<svg xmlns="http://www.w3.org/2000/svg" version="1.1" width="128" height="128" data-icon="graph" data-container-transform="translate(0 25)" viewBox="0 0 128 128">
  <path d="M120 .344l-2.844 2.813-25.469 25.469-17.188-13.75-2.781-2.25-2.563 2.531-19.5 19.5-15.188-11.813-2.813-2.156-2.5 2.469-24 24-2.813 2.844 5.656 5.656 2.844-2.813 21.5-21.5 15.188 11.813 2.813 2.156 2.5-2.469 19.469-19.469 17.188 13.75 2.781 2.25 2.563-2.531 28-28 2.813-2.844-5.656-5.656zm-120 75.656v2h128v-2h-128z"
  transform="translate(0 25)" />
</svg>