<svg xmlns="http://www.w3.org/2000/svg" version="1.1" data-icon="grid-three-up" width="128" height="128" data-container-transform="translate(0 ) scale(1 1 )" viewBox="0 0 128 128">
  <path d="M1.5 0c-.8 0-1.5.7-1.5 1.5v33c0 .8.7 1.5 1.5 1.5h33c.8 0 1.5-.7 1.5-1.5v-33c0-.8-.7-1.5-1.5-1.5h-33zm46 0c-.8 0-1.5.7-1.5 1.5v33c0 .8.7 1.5 1.5 1.5h33c.8 0 1.5-.7 1.5-1.5v-33c0-.8-.7-1.5-1.5-1.5h-33zm46 0c-.8 0-1.5.7-1.5 1.5v33c0 .8.7 1.5 1.5 1.5h33c.8 0 1.5-.7 1.5-1.5v-33c0-.8-.7-1.5-1.5-1.5h-33zm-92 46c-.8 0-1.5.7-1.5 1.5v33c0 .8.7 1.5 1.5 1.5h33c.8 0 1.5-.7 1.5-1.5v-33c0-.8-.7-1.5-1.5-1.5h-33zm46 0c-.8 0-1.5.7-1.5 1.5v33c0 .8.7 1.5 1.5 1.5h33c.8 0 1.5-.7 1.5-1.5v-33c0-.8-.7-1.5-1.5-1.5h-33zm46 0c-.8 0-1.5.7-1.5 1.5v33c0 .8.7 1.5 1.5 1.5h33c.8 0 1.5-.7 1.5-1.5v-33c0-.8-.7-1.5-1.5-1.5h-33zm-92 46c-.8 0-1.5.7-1.5 1.5v33c0 .8.7 1.5 1.5 1.5h33c.8 0 1.5-.7 1.5-1.5v-33c0-.8-.7-1.5-1.5-1.5h-33zm46 0c-.8 0-1.5.7-1.5 1.5v33c0 .8.7 1.5 1.5 1.5h33c.8 0 1.5-.7 1.5-1.5v-33c0-.8-.7-1.5-1.5-1.5h-33zm46 0c-.8 0-1.5.7-1.5 1.5v33c0 .8.7 1.5 1.5 1.5h33c.8 0 1.5-.7 1.5-1.5v-33c0-.8-.7-1.5-1.5-1.5h-33z"
  />
</svg>