<svg xmlns="http://www.w3.org/2000/svg" version="1.1" data-icon="grid-two-up" width="128" height="128" data-container-transform="translate(0 ) scale(1 1 )" viewBox="0 0 128 128">
  <path d="M1.5 0c-.8 0-1.5.7-1.5 1.5v55c0 .8.7 1.5 1.5 1.5h55c.8 0 1.5-.7 1.5-1.5v-55c0-.8-.7-1.5-1.5-1.5h-55zm70 0c-.8 0-1.5.7-1.5 1.5v55c0 .8.7 1.5 1.5 1.5h55c.8 0 1.5-.7 1.5-1.5v-55c0-.8-.7-1.5-1.5-1.5h-55zm-70 70c-.8 0-1.5.7-1.5 1.5v55c0 .8.7 1.5 1.5 1.5h55c.8 0 1.5-.7 1.5-1.5v-55c0-.8-.7-1.5-1.5-1.5h-55zm70 0c-.8 0-1.5.7-1.5 1.5v55c0 .8.7 1.5 1.5 1.5h55c.8 0 1.5-.7 1.5-1.5v-55c0-.8-.7-1.5-1.5-1.5h-55z"
  />
</svg>