<svg xmlns="http://www.w3.org/2000/svg" version="1.1" data-icon="grid-four-up" width="128" height="128" data-container-transform="translate(0 ) scale(1 1 )" viewBox="0 0 128 128">
  <path d="M1.5 0c-.8 0-1.5.7-1.5 1.5v17c0 .8.7 1.5 1.5 1.5h17c.8 0 1.5-.7 1.5-1.5v-17c0-.8-.7-1.5-1.5-1.5h-17zm36 0c-.8 0-1.5.7-1.5 1.5v17c0 .8.7 1.5 1.5 1.5h17c.8 0 1.5-.7 1.5-1.5v-17c0-.8-.7-1.5-1.5-1.5h-17zm36 0c-.8 0-1.5.7-1.5 1.5v17c0 .8.7 1.5 1.5 1.5h17c.8 0 1.5-.7 1.5-1.5v-17c0-.8-.7-1.5-1.5-1.5h-17zm36 0c-.8 0-1.5.7-1.5 1.5v17c0 .8.7 1.5 1.5 1.5h17c.8 0 1.5-.7 1.5-1.5v-17c0-.8-.7-1.5-1.5-1.5h-17zm-108 36c-.8 0-1.5.7-1.5 1.5v17c0 .8.7 1.5 1.5 1.5h17c.8 0 1.5-.7 1.5-1.5v-17c0-.8-.7-1.5-1.5-1.5h-17zm36 0c-.8 0-1.5.7-1.5 1.5v17c0 .8.7 1.5 1.5 1.5h17c.8 0 1.5-.7 1.5-1.5v-17c0-.8-.7-1.5-1.5-1.5h-17zm36 0c-.8 0-1.5.7-1.5 1.5v17c0 .8.7 1.5 1.5 1.5h17c.8 0 1.5-.7 1.5-1.5v-17c0-.8-.7-1.5-1.5-1.5h-17zm36 0c-.8 0-1.5.7-1.5 1.5v17c0 .8.7 1.5 1.5 1.5h17c.8 0 1.5-.7 1.5-1.5v-17c0-.8-.7-1.5-1.5-1.5h-17zm-108 36c-.8 0-1.5.7-1.5 1.5v17c0 .8.7 1.5 1.5 1.5h17c.8 0 1.5-.7 1.5-1.5v-17c0-.8-.7-1.5-1.5-1.5h-17zm36 0c-.8 0-1.5.7-1.5 1.5v17c0 .8.7 1.5 1.5 1.5h17c.8 0 1.5-.7 1.5-1.5v-17c0-.8-.7-1.5-1.5-1.5h-17zm36 0c-.8 0-1.5.7-1.5 1.5v17c0 .8.7 1.5 1.5 1.5h17c.8 0 1.5-.7 1.5-1.5v-17c0-.8-.7-1.5-1.5-1.5h-17zm36 0c-.8 0-1.5.7-1.5 1.5v17c0 .8.7 1.5 1.5 1.5h17c.8 0 1.5-.7 1.5-1.5v-17c0-.8-.7-1.5-1.5-1.5h-17zm-108 36c-.8 0-1.5.7-1.5 1.5v17c0 .8.7 1.5 1.5 1.5h17c.8 0 1.5-.7 1.5-1.5v-17c0-.8-.7-1.5-1.5-1.5h-17zm36 0c-.8 0-1.5.7-1.5 1.5v17c0 .8.7 1.5 1.5 1.5h17c.8 0 1.5-.7 1.5-1.5v-17c0-.8-.7-1.5-1.5-1.5h-17zm36 0c-.8 0-1.5.7-1.5 1.5v17c0 .8.7 1.5 1.5 1.5h17c.8 0 1.5-.7 1.5-1.5v-17c0-.8-.7-1.5-1.5-1.5h-17zm36 0c-.8 0-1.5.7-1.5 1.5v17c0 .8.7 1.5 1.5 1.5h17c.8 0 1.5-.7 1.5-1.5v-17c0-.8-.7-1.5-1.5-1.5h-17z"
  />
</svg>