<svg xmlns="http://www.w3.org/2000/svg" version="1.1" width="32" height="32" data-icon="hammer" viewBox="0 0 32 32">
  <path d="M17 0c7 3.031 4.984 6.016 4 7l-5 5-.656.656c-.195.195-.55.412-.813.5l-2.063.688c-.262.087-.617.304-.813.5l-11.313 11.313c-.195.195-.248.534-.125.781l2.563 5.125c.123.247.347.26.5.031l1.469-2.188c.153-.23.43-.586.625-.781l10.281-10.281c.195-.195.414-.549.5-.813l.656-2.031c.086-.263.304-.617.5-.813l.688-.688 5-5c.984-.984 1.969-1.031 3 0s0 1 1 2l1 1 4-4-1-1c-1-1-1 0-2-1s0-1-1-2l-1-1c-3-3-4-3-10-3z"
  />
</svg>