<svg xmlns="http://www.w3.org/2000/svg" version="1.1" width="32" height="32" data-icon="hand" data-container-transform="translate(3)" viewBox="0 0 32 32">
  <path d="M11.5 0c-.828 0-1.5.672-1.5 1.5v12.5c0 .552-.448 1-1 1s-1-.448-1-1v-10.5c0-.828-.672-1.5-1.5-1.5s-1.5.672-1.5 1.5v11.5c0 .552-.448 1-1 1s-1-.448-1-1v-9.5c0-.828-.672-1.5-1.5-1.5s-1.5.672-1.5 1.5v17.5c0 4.971 4.029 9 9 9 2.309 0 4.441-.846 6-2.313 2.665-2.506 7.951-7.84 10.406-10.281.783-.779.781-2.032 0-2.813-.781-.781-1.994-.742-2.813 0-.62.562-2.455 2.01-2.594 2.125-.791.65-2 .188-2-.719v-14.5c0-.828-.672-1.5-1.5-1.5s-1.5.672-1.5 1.5v9.5c0 .552-.448 1-1 1s-1-.448-1-1v-11.5c0-.828-.672-1.5-1.5-1.5z"
  transform="translate(3)" />
</svg>