<svg xmlns="http://www.w3.org/2000/svg" version="1.1" width="128" height="128" data-icon="hand" data-container-transform="translate(12)" viewBox="0 0 128 128">
  <path d="M46 0c-3.314 0-6 2.686-6 6v50c0 2.209-1.791 4-4 4s-4-1.791-4-4v-42c0-3.314-2.686-6-6-6s-6 2.686-6 6v46c0 2.209-1.791 4-4 4s-4-1.791-4-4v-38c0-3.314-2.686-6-6-6s-6 2.686-6 6v70c0 19.882 16.118 36 36 36 9.223 0 17.63-3.484 24-9.188v.031s41.447-36.978 41.656-37.188c3.124-3.124 3.124-8.189 0-11.313-3.124-3.124-8.189-3.124-11.313 0l-10.344 8.5c-3.165 2.602-8 .78-8-2.844v-62c0-3.314-2.686-6-6-6s-6 2.686-6 6v38c0 2.209-1.791 4-4 4s-4-1.791-4-4v-46c0-3.314-2.686-6-6-6z"
  transform="translate(12)" />
</svg>