<svg xmlns="http://www.w3.org/2000/svg" version="1.1" width="128" height="128" data-icon="hard-drive" data-container-transform="translate(15)" viewBox="0 0 128 128">
  <path d="M8 0c-4.418 0-8 3.582-8 8v88c0 2.206 1.794 4 4 4h90c2.206 0 4-1.794 4-4v-88c0-4.418-3.582-8-8-8h-82zm42 14c19.882 0 36 16.118 36 36s-16.118 36-36 36c-6.362 0-12.344-1.666-17.531-4.563-1.53 2.52-2.834 4.492-3.688 5.344-2.077 2.078-4.843 3.219-7.781 3.219-2.938 0-5.704-1.141-7.781-3.219-4.289-4.289-4.289-11.273 0-15.563.853-.853 2.824-2.157 5.344-3.688-2.896-5.187-4.563-11.168-4.563-17.531 0-19.882 16.118-36 36-36zm0 4c-8.83 0-16.835 3.585-22.625 9.375a1 1 0 1 0 1.406 1.406c5.43-5.43 12.929-8.781 21.219-8.781a1 1 0 1 0 0-2zm0 18c-7.72 0-14 6.28-14 14 0 2.533.7 4.92 1.875 6.969l1.719-1c-1.011-1.762-1.594-3.796-1.594-5.969 0-6.64 5.36-12 12-12s12 5.36 12 12-5.36 12-12 12c-2.174 0-4.209-.582-5.969-1.594l-1 1.719c2.048 1.177 4.435 1.875 6.969 1.875 7.72 0 14-6.28 14-14s-6.28-14-14-14zm0 10c-2.209 0-4 1.791-4 4s1.791 4 4 4 4-1.791 4-4-1.791-4-4-4zm-6 10s-25.86 13.11-29.375 16.625c-3.515 3.515-3.515 9.235 0 12.75 3.515 3.515 9.235 3.515 12.75 0 3.515-3.515 16.625-29.375 16.625-29.375zm-23 21c1.105 0 2 .895 2 2s-.895 2-2 2-2-.895-2-2 .895-2 2-2zm-21 25.906v17.094c0 4.418 3.582 8 8 8h82c4.418 0 8-3.582 8-8v-17.094c-1.178.684-2.542 1.094-4 1.094h-90c-1.458 0-2.822-.409-4-1.094zm12 7.094h2v12h-2v-12zm4 0h2v12h-2v-12zm4 0h2v12h-2v-12zm4 0h2v12h-2v-12zm4 0h2v12h-2v-12zm4 0h2v12h-2v-12zm4 0h2v12h-2v-12zm52 4c1.105 0 2 .895 2 2s-.895 2-2 2-2-.895-2-2 .895-2 2-2z"
  transform="translate(15)" />
</svg>