<svg xmlns="http://www.w3.org/2000/svg" version="1.1" width="128" height="128" data-icon="headphones" data-container-transform="translate(6 2)" viewBox="0 0 128 128">
  <path d="M58 0c-24.582 0-45.485 15.928-53 38h-1l-2.031-9.219a1 1 0 0 0-1.219-.781 1 1 0 0 0-.719 1.219l1.969 8.875v17.906c0 1.479.806 2.745 2 3.438v.563c0 2.364.537 5.87 1.25 8.125l3.594 11.375c.613 1.942 1.156 5.464 1.156 7.5v5.688c-4.654 1.651-8 6.093-8 11.313 0 5.94 4.332 10.854 10 11.813v6.688c0 .828.672 1.5 1.5 1.5h9c.828 0 1.5-.672 1.5-1.5v-37c0-.828-.672-1.5-1.5-1.5h-9c-.828 0-1.5.672-1.5 1.5v1.5c0-2.364-.539-5.871-1.25-8.125l-3.594-11.375c-.613-1.941-1.156-5.464-1.156-7.5 2.209 0 4-1.791 4-4 0-26.467 21.533-48 48-48s48 21.533 48 48c0 2.209 1.791 4 4 4 0 2.036-.543 5.559-1.156 7.5l-3.594 11.375c-.711 2.254-1.25 5.761-1.25 8.125v-1.5c0-.828-.672-1.5-1.5-1.5h-9c-.828 0-1.5.672-1.5 1.5v37c0 .828.672 1.5 1.5 1.5h9c.828 0 1.5-.672 1.5-1.5v-6.688c5.668-.959 10-5.872 10-11.813 0-5.22-3.346-9.661-8-11.313v-5.688c0-2.036.544-5.558 1.156-7.5l3.594-11.375c.713-2.255 1.25-5.761 1.25-8.125v-.563c1.194-.692 2-1.958 2-3.438v-17.906l1.969-8.875a1 1 0 0 0-1.156-1.219 1 1 0 0 0-.781.781l-2.031 9.219h-1c-7.515-22.072-28.418-38-53-38z"
  transform="translate(6 2)" />
</svg>