<svg xmlns="http://www.w3.org/2000/svg" version="1.1" width="128" height="128" data-icon="heart" data-container-transform="translate(0 8)" viewBox="0 0 128 128">
  <path d="M34 0c-9.389 0-17.879 3.815-24.031 9.969-6.154 6.152-9.969 14.642-9.969 24.031s3.815 17.879 9.969 24.031l54.031 53.969 54.031-53.969c6.154-6.152 9.969-14.642 9.969-24.031s-3.815-17.879-9.969-24.031c-6.152-6.153-14.642-9.969-24.031-9.969s-17.879 3.815-24.031 9.969c-2.361 2.36-4.382 5.062-5.969 8.031-1.587-2.969-3.607-5.671-5.969-8.031-6.152-6.153-14.642-9.969-24.031-9.969z"
  transform="translate(0 8)" />
</svg>