<svg xmlns="http://www.w3.org/2000/svg" version="1.1" width="128" height="128" data-icon="history" data-container-transform="translate(1 6)" viewBox="0 0 128 128">
  <path d="M68 0c-15.834 0-30.221 6.379-40.688 16.688l-.313.313c-10.491 10.491-17 25.007-17 41h-8.5c-.828 0-1.168.565-.75 1.281l12.5 21.438c.417.716 1.082.716 1.5 0l12.5-21.438c.417-.716.078-1.281-.75-1.281h-8.5c0-13.831 5.604-26.291 14.656-35.344 9.053-9.053 21.513-14.656 35.344-14.656s26.291 5.604 35.344 14.656c9.053 9.053 14.656 21.513 14.656 35.344s-5.604 26.291-14.656 35.344c-9.053 9.053-21.513 14.656-35.344 14.656s-26.291-5.604-35.344-14.656l-5.656 5.656c10.491 10.491 25.007 17 41 17 15.993 0 30.509-6.509 41-17s17-25.007 17-41c0-15.993-6.509-30.509-17-41s-25.007-17-41-17zm-2 20v38.969l.781.625 18 14 1.563 1.219 2.469-3.156-1.594-1.25-17.219-13.406v-37h-4z"
  transform="translate(1 6)" />
</svg>