<svg xmlns="http://www.w3.org/2000/svg" version="1.1" width="128" height="128" data-icon="home" data-container-transform="translate(0 3)" viewBox="0 0 128 128">
  <path d="M63.688.594c-.302.051-.578.202-.813.406l-61.75 54c-.624.546-.453 1 .375 1h9c.828 0 2.024-.434 2.656-.969l49.688-42.063c.632-.535 1.68-.535 2.313 0l49.688 42.063c.632.535 1.828.969 2.656.969h9c.828 0 .999-.455.375-1l-61.75-54c-.39-.341-.934-.491-1.438-.406zm.313 15.969c-.313 0-.635.07-.906.219-.09.05-.17.121-.25.188l-22.844 19.031-22.844 19.031c-.011.009-.021.022-.031.031-.621.54-1.125 1.623-1.125 2.438v60.5h38v-24h20v24h38v-60.5c0-.814-.504-1.898-1.125-2.438l-22.875-19.063-22.844-19.031c-.079-.066-.16-.138-.25-.188-.271-.149-.593-.219-.906-.219z"
  transform="translate(0 3)" />
</svg>