<svg xmlns="http://www.w3.org/2000/svg" version="1.1" width="128" height="128" data-icon="infinity" data-container-transform="translate(0 35)" viewBox="0 0 128 128">
  <path d="M25 0c-7.882 0-14.416 4.016-18.625 9.594-4.209 5.578-6.374 12.669-6.375 19.719-.001 7.051 2.169 14.045 6.406 19.469 4.237 5.424 10.777 9.219 18.594 9.219 14.767 0 27.075-11.743 39.063-23.406 12.056 11.677 24.711 23.406 39.938 23.406 7.892 0 14.297-3.869 18.25-9.344 3.953-5.475 5.75-12.42 5.75-19.344 0-6.923-1.795-13.968-5.719-19.594-3.924-5.626-10.325-9.719-18.281-9.719-15.219 0-27.85 11.812-39.938 23.531-12.018-11.702-24.309-23.531-39.063-23.531zm0 8c10.021 0 21.39 9.747 33.219 21.063-11.78 11.256-23.143 20.938-33.219 20.938-5.33 0-9.305-2.347-12.281-6.156-2.976-3.81-4.719-9.167-4.719-14.531 0-5.363 1.746-10.925 4.75-14.906s6.988-6.406 12.25-6.406zm79 0c5.373 0 8.975 2.347 11.719 6.281 2.744 3.934 4.281 9.541 4.281 15.031 0 5.491-1.536 10.897-4.25 14.656-2.714 3.759-6.311 6.031-11.75 6.031-10.727 0-22.297-9.696-34.094-20.938 11.839-11.297 23.42-21.063 34.094-21.063z"
  transform="translate(0 35)" />
</svg>