<svg xmlns="http://www.w3.org/2000/svg" version="1.1" width="32" height="32" data-icon="infinity" data-container-transform="translate(0 8)" viewBox="0 0 32 32">
  <path d="M6.5 0c-2.06 0-3.79 1.037-4.875 2.469-1.085 1.431-1.625 3.227-1.625 5.031 0 1.804.54 3.6 1.625 5.031 1.085 1.432 2.814 2.469 4.875 2.469 3.735 0 6.685-2.777 9.531-5.5 2.868 2.724 5.894 5.5 9.719 5.5 2.077 0 3.8-1.08 4.813-2.531 1.012-1.451 1.438-3.214 1.438-4.969 0-1.755-.425-3.518-1.438-4.969-1.012-1.451-2.736-2.531-4.813-2.531-3.826 0-6.845 2.798-9.719 5.531-2.851-2.731-5.798-5.531-9.531-5.531zm0 3c1.983 0 4.539 2.045 7.219 4.5-2.673 2.446-5.217 4.5-7.219 4.5-1.116 0-1.879-.463-2.5-1.281-.621-.818-1-2.023-1-3.219 0-1.196.379-2.4 1-3.219s1.384-1.281 2.5-1.281zm19.25 0c1.145 0 1.786.419 2.344 1.219.558.799.906 2.036.906 3.281s-.349 2.482-.906 3.281c-.557.799-1.198 1.219-2.344 1.219-2.163 0-4.756-2.055-7.438-4.5 2.687-2.454 5.293-4.5 7.438-4.5z"
  transform="translate(0 8)" />
</svg>