<svg xmlns="http://www.w3.org/2000/svg" version="1.1" width="16" height="16" data-icon="inkwell" viewBox="0 0 16 16">
  <path d="M14 0s-4.956 2.247-8 4.313l-1 1.688v-1c-.444.351-.761.69-1 1v2.938c2.673-3.01 7.293-6.975 10-8.875v-.063zm2 0c-2.181 1.02-9.976 7.695-12.375 11h-1.625v.719c0 .155-.091.371-.219.5l-1.531 1.563c-.128.128-.25.382-.25.563v1.656h9v-1.656c0-.181-.091-.434-.219-.563l-1.563-1.563c-.128-.128-.219-.345-.219-.5v-.719h-1.656c.193-.298.386-.61.688-1l3.969-1c.563-.311 1.221-1.063 1.906-2h-1.906l2.625-1c.425-.645.828-1.33 1.219-2l-.844.031 1.406-1.031c.926-1.657 1.594-3 1.594-3z"
  />
</svg>