<svg xmlns="http://www.w3.org/2000/svg" version="1.1" width="128" height="128" data-icon="key" data-container-transform="translate(0 1)" viewBox="0 0 128 128">
  <path d="M92 0c-19.882 0-36 16.118-36 36 0 4.193.713 8.226 2.031 11.969l-58.031 58.031v20h20l8-8v-8h8v-6h6v-8h8l10-10v-6h6l5.938-5.938 4 4 7.156-7.156c2.844.723 5.837 1.094 8.906 1.094 19.882 0 36-16.118 36-36s-16.118-36-36-36zm15 14c3.866 0 7 3.134 7 7s-3.134 7-7 7-7-3.134-7-7 3.134-7 7-7zm-49 40l2 2.156-55.906 56v-4.125l53.906-54.031z"
  transform="translate(0 1)" />
</svg>