<svg xmlns="http://www.w3.org/2000/svg" version="1.1" width="32" height="32" data-icon="keyboard" data-container-transform="translate(0 8)" viewBox="0 0 32 32">
  <path d="M.5 0c-.276 0-.5.224-.5.5v14c0 .276.224.5.5.5h30c.276 0 .5-.224.5-.5v-14c0-.276-.224-.5-.5-.5h-30zm1.75 2h1.5c.138 0 .25.112.25.25v1.5c0 .138-.112.25-.25.25h-1.5c-.138 0-.25-.112-.25-.25v-1.5c0-.138.112-.25.25-.25zm3 0h1.5c.138 0 .25.112.25.25v1.5c0 .138-.112.25-.25.25h-1.5c-.138 0-.25-.112-.25-.25v-1.5c0-.138.112-.25.25-.25zm3 0h1.5c.137 0 .25.112.25.25v1.5c0 .138-.113.25-.25.25h-1.5c-.137 0-.25-.112-.25-.25v-1.5c0-.138.113-.25.25-.25zm3 0h1.5c.137 0 .25.112.25.25v1.5c0 .138-.113.25-.25.25h-1.5c-.137 0-.25-.112-.25-.25v-1.5c0-.138.113-.25.25-.25zm3 0h1.5c.137 0 .25.112.25.25v1.5c0 .138-.113.25-.25.25h-1.5c-.137 0-.25-.112-.25-.25v-1.5c0-.138.113-.25.25-.25zm3 0h1.5c.137 0 .25.112.25.25v1.5c0 .138-.113.25-.25.25h-1.5c-.137 0-.25-.112-.25-.25v-1.5c0-.138.113-.25.25-.25zm3 0h1.5c.137 0 .25.112.25.25v1.5c0 .138-.113.25-.25.25h-1.5c-.137 0-.25-.112-.25-.25v-1.5c0-.138.113-.25.25-.25zm3 0h1.5c.137 0 .25.112.25.25v1.5c0 .138-.113.25-.25.25h-1.5c-.137 0-.25-.112-.25-.25v-1.5c0-.138.113-.25.25-.25zm3 0h2.5c.137 0 .25.112.25.25v1.5c0 .138-.113.25-.25.25h-2.5c-.137 0-.25-.112-.25-.25v-1.5c0-.138.113-.25.25-.25zm-24 3h2.5c.138 0 .25.112.25.25v1.5c0 .138-.112.25-.25.25h-2.5c-.138 0-.25-.112-.25-.25v-1.5c0-.138.112-.25.25-.25zm4 0h1.5c.138 0 .25.112.25.25v1.5c0 .138-.112.25-.25.25h-1.5c-.138 0-.25-.112-.25-.25v-1.5c0-.138.112-.25.25-.25zm3 0h1.5c.137 0 .25.112.25.25v1.5c0 .138-.113.25-.25.25h-1.5c-.137 0-.25-.112-.25-.25v-1.5c0-.138.113-.25.25-.25zm3 0h1.5c.137 0 .25.112.25.25v1.5c0 .138-.113.25-.25.25h-1.5c-.137 0-.25-.112-.25-.25v-1.5c0-.138.113-.25.25-.25zm3 0h1.5c.137 0 .25.112.25.25v1.5c0 .138-.113.25-.25.25h-1.5c-.137 0-.25-.112-.25-.25v-1.5c0-.138.113-.25.25-.25zm3 0h1.5c.137 0 .25.112.25.25v1.5c0 .138-.113.25-.25.25h-1.5c-.137 0-.25-.112-.25-.25v-1.5c0-.138.113-.25.25-.25zm3 0h1.5c.137 0 .25.112.25.25v1.5c0 .138-.113.25-.25.25h-1.5c-.137 0-.25-.112-.25-.25v-1.5c0-.138.113-.25.25-.25zm3 0h1.5c.137 0 .25.112.25.25v1.5c0 .138-.113.25-.25.25h-1.5c-.137 0-.25-.112-.25-.25v-1.5c0-.138.113-.25.25-.25zm3 0h1.5c.137 0 .25.112.25.25v1.5c0 .138-.113.25-.25.25h-1.5c-.137 0-.25-.112-.25-.25v-1.5c0-.138.113-.25.25-.25zm-25 3h3.5c.138 0 .25.113.25.25v1.5c0 .137-.112.25-.25.25h-3.5c-.138 0-.25-.113-.25-.25v-1.5c0-.137.112-.25.25-.25zm5 0h1.5c.137 0 .25.113.25.25v1.5c0 .137-.113.25-.25.25h-1.5c-.138 0-.25-.113-.25-.25v-1.5c0-.137.112-.25.25-.25zm3 0h1.5c.137 0 .25.113.25.25v1.5c0 .137-.113.25-.25.25h-1.5c-.137 0-.25-.113-.25-.25v-1.5c0-.137.113-.25.25-.25zm3 0h1.5c.137 0 .25.113.25.25v1.5c0 .137-.113.25-.25.25h-1.5c-.137 0-.25-.113-.25-.25v-1.5c0-.137.113-.25.25-.25zm3 0h1.5c.137 0 .25.113.25.25v1.5c0 .137-.113.25-.25.25h-1.5c-.137 0-.25-.113-.25-.25v-1.5c0-.137.113-.25.25-.25zm3 0h1.5c.137 0 .25.113.25.25v1.5c0 .137-.113.25-.25.25h-1.5c-.137 0-.25-.113-.25-.25v-1.5c0-.137.113-.25.25-.25zm3 0h1.5c.137 0 .25.113.25.25v1.5c0 .137-.113.25-.25.25h-1.5c-.137 0-.25-.113-.25-.25v-1.5c0-.137.113-.25.25-.25zm3 0h3.5c.137 0 .25.113.25.25v1.5c0 .137-.113.25-.25.25h-3.5c-.137 0-.25-.113-.25-.25v-1.5c0-.137.113-.25.25-.25zm-23 3h1.5c.138 0 .25.113.25.25v1.5c0 .137-.112.25-.25.25h-1.5c-.138 0-.25-.113-.25-.25v-1.5c0-.137.112-.25.25-.25zm3 0h1.5c.138 0 .25.113.25.25v1.5c0 .137-.112.25-.25.25h-1.5c-.138 0-.25-.113-.25-.25v-1.5c0-.137.112-.25.25-.25zm3 0h14.5c.138 0 .25.113.25.25v1.5c0 .138-.113.25-.25.25h-14.5c-.137 0-.25-.113-.25-.25v-1.5c0-.137.113-.25.25-.25zm16 0h1.5c.138 0 .25.113.25.25v1.5c0 .138-.113.25-.25.25h-1.5c-.137 0-.25-.113-.25-.25v-1.5c0-.138.113-.25.25-.25zm3 0h1.5c.138 0 .25.113.25.25v1.5c0 .138-.113.25-.25.25h-1.5c-.137 0-.25-.113-.25-.25v-1.5c0-.138.113-.25.25-.25z"
  transform="translate(0 8)" />
</svg>