<svg xmlns="http://www.w3.org/2000/svg" version="1.1" width="128" height="128" data-icon="keypad-mobile" data-container-transform="translate(17)" viewBox="0 0 128 128">
  <path d="M1.5 0c-.828 0-1.5.672-1.5 1.5v23c0 .828.672 1.5 1.5 1.5h23c.828 0 1.5-.672 1.5-1.5v-23c0-.828-.672-1.5-1.5-1.5h-23zm34 0c-.828 0-1.5.672-1.5 1.5v23c0 .828.672 1.5 1.5 1.5h23c.828 0 1.5-.672 1.5-1.5v-23c0-.828-.672-1.5-1.5-1.5h-23zm34 0c-.828 0-1.5.672-1.5 1.5v23c0 .828.672 1.5 1.5 1.5h23c.828 0 1.5-.672 1.5-1.5v-23c0-.828-.672-1.5-1.5-1.5h-23zm-68 34c-.828 0-1.5.672-1.5 1.5v23c0 .828.672 1.5 1.5 1.5h23c.828 0 1.5-.672 1.5-1.5v-23c0-.828-.672-1.5-1.5-1.5h-23zm34 0c-.828 0-1.5.672-1.5 1.5v23c0 .828.672 1.5 1.5 1.5h23c.828 0 1.5-.672 1.5-1.5v-23c0-.828-.672-1.5-1.5-1.5h-23zm34 0c-.828 0-1.5.672-1.5 1.5v23c0 .828.672 1.5 1.5 1.5h23c.828 0 1.5-.672 1.5-1.5v-23c0-.828-.672-1.5-1.5-1.5h-23zm-68 34c-.828 0-1.5.672-1.5 1.5v23c0 .828.672 1.5 1.5 1.5h23c.828 0 1.5-.672 1.5-1.5v-23c0-.828-.672-1.5-1.5-1.5h-23zm34 0c-.828 0-1.5.672-1.5 1.5v23c0 .828.672 1.5 1.5 1.5h23c.828 0 1.5-.672 1.5-1.5v-23c0-.828-.672-1.5-1.5-1.5h-23zm34 0c-.828 0-1.5.672-1.5 1.5v23c0 .828.672 1.5 1.5 1.5h23c.828 0 1.5-.672 1.5-1.5v-23c0-.828-.672-1.5-1.5-1.5h-23zm-34 34c-.828 0-1.5.672-1.5 1.5v23c0 .828.672 1.5 1.5 1.5h23c.828 0 1.5-.672 1.5-1.5v-23c0-.828-.672-1.5-1.5-1.5h-23z"
  transform="translate(17)" />
</svg>