<svg xmlns="http://www.w3.org/2000/svg" version="1.1" width="128" height="128" data-icon="laptop" data-container-transform="translate(0 26)" viewBox="0 0 128 128">
  <path d="M11.5 0c-1.91 0-3.5 1.59-3.5 3.5v65c0 .542.148 1.038.375 1.5h-8.375v4.5c0 .828.672 1.5 1.5 1.5h125c.828 0 1.5-.672 1.5-1.5v-4.5h-8.375c.227-.462.375-.958.375-1.5v-65c0-1.91-1.59-3.5-3.5-3.5h-105zm.5 4h104v64h-104v-64zm46 66h12c0 1.105-.895 2-2 2h-8c-.138 0-.276-.005-.406-.031-.391-.08-.729-.291-1-.563-.09-.09-.178-.175-.25-.281-.216-.319-.344-.711-.344-1.125zm61 2c.552 0 1 .448 1 1s-.448 1-1 1-1-.448-1-1 .448-1 1-1z"
  transform="translate(0 26)" />
</svg>