<svg xmlns="http://www.w3.org/2000/svg" version="1.1" width="128" height="128" data-icon="lightning" data-container-transform="translate(0 1)" viewBox="0 0 128 128">
  <path d="M56 0c-18.8 0-34.415 14.604-36 33-11.578 3.042-20 13.481-20 26 0 13.924 10.605 25.412 24.156 26.844l13.75-19.844h35.75l-16 16h17.406l-4.813 4h39.75c9.925 0 18-8.075 18-18s-8.075-18-18-18c-.711 0-1.311-.081-2 0-.871-8.409-7.602-15.091-16-16-.986-18.976-16.783-34-36-34zm-16 70l-18 26h15l-21 30 48-40h-16l16-16h-24z"
  transform="translate(0 1)" />
</svg>