<svg xmlns="http://www.w3.org/2000/svg" version="1.1" width="16" height="16" data-icon="lightbulb-alt-off" data-container-transform="translate(1)" viewBox="0 0 16 16">
  <path d="M6.844 0c-4 0-6 3.5-6 5.5 0 2.212 1.1 3.369 1.969 4.406l8.219-8.219c-.99-.962-2.387-1.688-4.188-1.688zm7.156.156l-14 14 .719.688 14-14-.719-.688zm-1.375 4.188l-7.656 7.656h4.656c.129 0 .235-.091.25-.219.216-1.849 2.969-2.781 2.969-6.281 0-.346-.099-.746-.219-1.156zm-8.438 8.656a.502.502 0 0 0 .156 1h5a.5.5 0 1 0 0-1h-5a.5.5 0 0 0-.094 0 .502.502 0 0 0-.063 0zm1 2a.502.502 0 0 0 .156 1h3a.5.5 0 1 0 0-1h-3a.5.5 0 0 0-.094 0 .502.502 0 0 0-.063 0z"
  transform="translate(1)" />
</svg>