<svg xmlns="http://www.w3.org/2000/svg" version="1.1" width="16" height="16" data-icon="lightbulb-alt-on" data-container-transform="translate(2)" viewBox="0 0 16 16">
  <path d="M6 0c-4 0-6 3.5-6 5.5 0 3.5 2.784 4.433 3 6.281.015.129.09.219.219.219h5.563c.129 0 .204-.091.219-.219.216-1.849 3-2.781 3-6.281 0-2-2-5.5-6-5.5zm-2.656 13a.502.502 0 0 0 .156 1h5a.5.5 0 1 0 0-1h-5a.5.5 0 0 0-.094 0 .502.502 0 0 0-.063 0zm1 2a.502.502 0 0 0 .156 1h3a.5.5 0 1 0 0-1h-3a.5.5 0 0 0-.094 0 .502.502 0 0 0-.063 0z"
  transform="translate(2)" />
</svg>