<svg xmlns="http://www.w3.org/2000/svg" version="1.1" width="128" height="128" data-icon="lightbulb-alt-off" data-container-transform="translate(19)" viewBox="0 0 128 128">
  <path d="M41.906 0c-26.667 0-40 22-40 38 0 16.513 6.65 24.483 12.938 31.406l56.75-56.75c-6.665-7.322-16.56-12.656-29.688-12.656zm45.094.094l-87 87 2.844 2.813 87-87-2.844-2.813zm-45.094 5.906c1.105 0 2 .895 2 2s-.895 2-2 2c-4.04 0-7.822.65-11.281 1.938-.23.085-.487.125-.719.125-.812 0-1.576-.508-1.875-1.313-.385-1.036.152-2.178 1.188-2.563 3.907-1.453 8.169-2.188 12.688-2.188zm-20.125 6.531c.64-.043 1.294.205 1.719.75.678.872.528 2.133-.344 2.813-7.756 6.034-11.25 15.352-11.25 21.906 0 1.105-.895 2-2 2s-2-.895-2-2c0-6.977 3.355-17.73 12.781-25.063.327-.255.71-.381 1.094-.406zm54.625 6.625l-56.281 56.313c3.33 4.216 5.758 8.845 5.75 15.563-.001.541.459.969 1 .969h30.063c.541 0 1.001-.428 1-.969-.024-21.026 23.969-21.616 23.969-53.031 0-5.93-1.837-12.691-5.5-18.844zm-51.5 74.844c-.552 0-1 .448-1 1v5.906c0 1.657 1.343 3 3 3h30c1.657 0 3-1.343 3-3v-5.906c0-.552-.448-1-1-1h-34zm4.813 14a2.002 2.002 0 1 0 .188 4h24a2 2 0 1 0 0-4h-24a2 2 0 0 0-.188 0zm0 8a2.002 2.002 0 1 0 .188 4h24a2 2 0 1 0 0-4h-24a2 2 0 0 0-.188 0zm4 8a2.002 2.002 0 1 0 .188 4h16a2 2 0 1 0 0-4h-16a2 2 0 0 0-.188 0z"
  transform="translate(19)" />
</svg>