<svg xmlns="http://www.w3.org/2000/svg" version="1.1" width="32" height="32" data-icon="lightbulb-alt-off" data-container-transform="translate(3)" viewBox="0 0 32 32">
  <path d="M11.344 0c-6.667 0-10.5 6-10.5 10 0 5.348 2.695 7.16 4.469 9.406l14.719-14.719c-1.75-2.564-4.719-4.688-8.688-4.688zm13.656 1.156l-25 25 .719.688 25-25-.719-.688zm-13.656 1.844c.552 0 1 .448 1 1s-.448 1-1 1c-3.629 0-5.5 3.505-5.5 5 0 .552-.448 1-1 1s-1-.448-1-1c0-2.443 2.576-7 7.5-7zm10.094 4.531l-14.469 14.469h9.063c.983-4.074 5.813-4.825 5.813-12 0-.769-.13-1.608-.406-2.469zm-14.625 15.469c.013.179.031.339.031.531-.001.179 0 1.304 0 1.969 0 .276.224.5.5.5h8c.276 0 .5-.224.5-.5 0-.665.001-1.79 0-1.969-.001-.192.018-.352.031-.531h-9.063zm1.375 4a.502.502 0 0 0 .156 1h6a.5.5 0 1 0 0-1h-6a.5.5 0 0 0-.094 0 .502.502 0 0 0-.063 0zm0 2a.502.502 0 0 0 .156 1h6a.5.5 0 1 0 0-1h-6a.5.5 0 0 0-.094 0 .502.502 0 0 0-.063 0zm1 2a.502.502 0 0 0 .156 1h4a.5.5 0 1 0 0-1h-4a.5.5 0 0 0-.094 0 .502.502 0 0 0-.063 0z"
  transform="translate(3)" />
</svg>