<svg xmlns="http://www.w3.org/2000/svg" version="1.1" width="32" height="32" data-icon="lightbulb" data-container-transform="translate(8)" viewBox="0 0 32 32">
  <path d="M10.531-.031a1.5 1.5 0 0 0-.25.031 1.5 1.5 0 0 0-.375.125l-9 4a1.5 1.5 0 1 0 1.188 2.75l9-4a1.5 1.5 0 0 0-.563-2.906zm3.938 3.969a1.503 1.503 0 0 0-.219.063 1.5 1.5 0 0 0-.375.125l-13 6a1.51 1.51 0 1 0 1.25 2.75l13-6a1.503 1.503 0 0 0-.656-2.938zm0 6a1.503 1.503 0 0 0-.219.063 1.5 1.5 0 0 0-.375.125l-13 6a1.51 1.51 0 1 0 1.25 2.75l13-6a1.503 1.503 0 0 0-.656-2.938zm-2.125 7.063a1.5 1.5 0 0 0-.5.156l-2 1a1.5 1.5 0 0 0-.844 1.344v2.5h-2v-.5a1.5 1.5 0 0 0-1.531-1.531 1.5 1.5 0 0 0-1.469 1.531v.5c-.553 0-.862.413-.688.938l.375 1.125c.137.413.537.744.969.875l-.281.094a.5.5 0 1 0 .25.938l3.406-.969h2.969c.552 0 1.137-.413 1.313-.938l.375-1.125c.174-.524-.136-.938-.688-.938v-1.563l1.156-.594a1.5 1.5 0 0 0-.813-2.844zm-.938 8a.5.5 0 0 0-.031.031l-7 2a.5.5 0 1 0 .25.938l7-2a.5.5 0 0 0-.219-.969zm0 2a.5.5 0 0 0-.031.031l-7 2a.5.5 0 1 0 .25.938l7-2a.5.5 0 0 0-.219-.969zm-.969 2.563a.5.5 0 0 0-.063.031l-5 1.438a.5.5 0 1 0 .25.938l5-1.406a.509.509 0 0 0-.188-1z"
  transform="translate(8)" />
</svg>