<svg xmlns="http://www.w3.org/2000/svg" version="1.1" data-icon="link-intact" width="16" height="16" data-container-transform="scale(1 1 ) translate(0 )" viewBox="0 0 16 16">
  <path d="M11.813.031c-.364.024-.719.103-1.063.219-.01.003-.021-.003-.031 0-.02.007-.043-.007-.063 0v.031c-.636.191-1.113.551-1.469.906l-.906.906 1.438 1.406.875-.906c.221-.221.561-.414.656-.438a1 1 0 0 0 .094-.031c.78-.284 1.416-.174 1.844.438a1 1 0 0 0 .125.188c.777.712.796 1.923-.031 2.75l-3.281 3.281c-.379.379-.891.571-1.406.594-.565-.087-.989-.208-1.375-.594l-1.438 1.438c.796.796 1.77 1.043 2.563 1.156a1 1 0 0 0 .156.031c1.05 0 2.11-.391 2.906-1.188l3.313-3.313c1.518-1.518 1.548-3.962.094-5.469-.053-.055-.068-.135-.125-.188l-.063.063c-.472-.579-1.05-1.023-1.719-1.188-.355-.087-.729-.118-1.094-.094zm-4.625 4.625c-.352.028-.689.096-1.031.219v-.031c-.033.008-.033.023-.063.031-.02.008-.042-.008-.063 0v.031c-.266.091-.442.189-.625.313-.22.149-.463.317-.688.5-.404.331-.714.651-1 1l-.031-.031-.094.125-2.406 2.375c-1.545 1.545-1.567 4.064-.031 5.563.028.027.033.067.063.094l.031-.031c1.06 1.116 2.634 1.398 4 .938.004-.007.023.002.031 0 .02-.007.043.007.063 0v-.031c.636-.191 1.113-.551 1.469-.906l.906-.906-1.438-1.406-.875.906c-.221.221-.561.414-.656.438a1 1 0 0 0-.094.031c-.78.284-1.481.146-2-.438a1 1 0 0 0-.094-.063c-.777-.712-.796-1.954.031-2.781l2.5-2.5a1 1 0 0 0 .094-.094c-.002.003.436-.442.813-.75.188-.154.386-.277.531-.375.073-.049.15-.076.188-.094a1 1 0 0 0 .063-.063c.562-.225 1.495-.005 2 .5l1.438-1.438c-.547-.547-1.241-.897-1.969-1.063-.344-.078-.71-.09-1.063-.063z"
  />
</svg>