<svg xmlns="http://www.w3.org/2000/svg" version="1.1" data-icon="link-broken" width="16" height="16" data-container-transform="scale(1 1 ) translate(0 )" viewBox="0 0 16 16">
  <path d="M11.813.031c-.358.029-.72.103-1.063.219-.01.003-.021-.003-.031 0-.02.007-.043-.007-.063 0v.031c-.636.191-1.113.551-1.469.906l-1.906 1.906-.688.719 1.406 1.406.719-.719 1.875-1.906c.221-.221.561-.414.656-.438a1 1 0 0 0 .094-.031c.78-.284 1.481-.146 2 .438a1 1 0 0 0 .094.063c.777.712.796 1.954-.031 2.781l-1.906 1.875-.719.719 1.406 1.406.719-.688 1.906-1.906c1.545-1.545 1.567-4.064.031-5.563-.028-.027-.033-.067-.063-.094l-.031.031c-.528-.556-1.177-.945-1.875-1.094-.352-.075-.705-.091-1.063-.063zm-10.469.969a.5.5 0 0 0-.188.844l2 2a.5.5 0 1 0 .688-.688l-2-2a.5.5 0 0 0-.438-.156.5.5 0 0 0-.063 0zm4 0a.5.5 0 0 0-.344.5v2a.5.5 0 1 0 1 0v-2a.5.5 0 0 0-.594-.5.5.5 0 0 0-.063 0zm-4 4a.502.502 0 0 0 .156 1h2a.5.5 0 1 0 0-1h-2a.5.5 0 0 0-.094 0 .502.502 0 0 0-.063 0zm2.563 1.5l-.719.688-2 2c-1.545 1.545-1.567 4.064-.031 5.563.028.027.033.067.063.094l.031-.031c1.06 1.116 2.634 1.398 4 .938.004-.007.023.002.031 0 .02-.007.043.007.063 0v-.031c.636-.191 1.113-.551 1.469-.906l2-2 .688-.719-1.406-1.406-.688.719-2 2c-.221.221-.561.414-.656.438a1 1 0 0 0-.094.031c-.78.284-1.481.146-2-.438a1 1 0 0 0-.094-.063c-.777-.712-.796-1.954.031-2.781l2-2 .719-.688-1.406-1.406zm8.438 3.5a.502.502 0 0 0 .156 1h2a.5.5 0 1 0 0-1h-2a.5.5 0 0 0-.094 0 .502.502 0 0 0-.063 0zm-2 2a.5.5 0 0 0-.344.5v2a.5.5 0 1 0 1 0v-2a.5.5 0 0 0-.594-.5.5.5 0 0 0-.063 0zm2 0a.5.5 0 0 0-.188.844l2 2a.5.5 0 1 0 .688-.688l-2-2a.5.5 0 0 0-.438-.156.5.5 0 0 0-.063 0z"
  />
</svg>