<svg xmlns="http://www.w3.org/2000/svg" version="1.1" width="32" height="32" data-icon="list" data-container-transform="translate(0 4)" viewBox="0 0 32 32">
  <path d="M.5 0c-.276 0-.5.224-.5.5v2c0 .276.224.5.5.5h2c.276 0 .5-.224.5-.5v-2c0-.276-.224-.5-.5-.5h-2zm5.5 0v3h26v-3h-26zm-5.5 7c-.276 0-.5.224-.5.5v2c0 .276.224.5.5.5h2c.276 0 .5-.224.5-.5v-2c0-.276-.224-.5-.5-.5h-2zm5.5 0v3h20v-3h-20zm-5.5 7c-.276 0-.5.224-.5.5v2c0 .276.224.5.5.5h2c.276 0 .5-.224.5-.5v-2c0-.276-.224-.5-.5-.5h-2zm5.5 0v3h26v-3h-26zm-5.5 7c-.276 0-.5.224-.5.5v2c0 .276.224.5.5.5h2c.276 0 .5-.224.5-.5v-2c0-.276-.224-.5-.5-.5h-2zm5.5 0v3h24v-3h-24z"
  transform="translate(0 4)" />
</svg>