<svg xmlns="http://www.w3.org/2000/svg" version="1.1" width="128" height="128" data-icon="list-nested" data-container-transform="translate(2 20)" viewBox="0 0 128 128">
  <path d="M1.5 0c-.828 0-1.5.672-1.5 1.5v5c0 .828.672 1.5 1.5 1.5h5c.828 0 1.5-.672 1.5-1.5v-5c0-.828-.672-1.5-1.5-1.5h-5zm14.5 0v8h108v-8h-108zm1.5 26c-.828 0-1.5.672-1.5 1.5v5c0 .828.672 1.5 1.5 1.5h5c.828 0 1.5-.672 1.5-1.5v-5c0-.828-.672-1.5-1.5-1.5h-5zm14.5 0v8h68v-8h-68zm1.5 28c-.828 0-1.5.672-1.5 1.5v5c0 .828.672 1.5 1.5 1.5h5c.828 0 1.5-.672 1.5-1.5v-5c0-.828-.672-1.5-1.5-1.5h-5zm14.5 0v8h72v-8h-72zm-30.5 26c-.828 0-1.5.672-1.5 1.5v5c0 .828.672 1.5 1.5 1.5h5c.828 0 1.5-.672 1.5-1.5v-5c0-.828-.672-1.5-1.5-1.5h-5zm14.5 0v8h80v-8h-80z"
  transform="translate(2 20)" />
</svg>