<svg xmlns="http://www.w3.org/2000/svg" version="1.1" width="128" height="128" data-icon="list-rich" data-container-transform="translate(4)" viewBox="0 0 128 128">
  <path d="M1.5 0c-.828 0-1.5.672-1.5 1.5v29c0 .828.672 1.5 1.5 1.5h41c.828 0 1.5-.672 1.5-1.5v-29c0-.828-.672-1.5-1.5-1.5h-41zm52.5 4v4h66v-4h-66zm0 10v4h50v-4h-50zm0 10v4h60v-4h-60zm-52.5 24c-.828 0-1.5.672-1.5 1.5v29c0 .828.672 1.5 1.5 1.5h41c.828 0 1.5-.672 1.5-1.5v-29c0-.828-.672-1.5-1.5-1.5h-41zm52.5 4v4h66v-4h-66zm0 10v4h50v-4h-50zm0 10v4h60v-4h-60zm-52.5 24c-.828 0-1.5.672-1.5 1.5v29c0 .828.672 1.5 1.5 1.5h41c.828 0 1.5-.672 1.5-1.5v-29c0-.828-.672-1.5-1.5-1.5h-41zm52.5 4v4h66v-4h-66zm0 10v4h50v-4h-50zm0 10v4h60v-4h-60z"
  transform="translate(4)" />
</svg>