<svg width="199px" height="36px" viewBox="0 0 199 36" version="1.1" xmlns="http://www.w3.org/2000/svg" xmlns:xlink="http://www.w3.org/1999/xlink">
    <defs>
        <linearGradient x1="50%" y1="0%" x2="50%" y2="100%" id="type-logo-gradient">
            <stop stop-color="#F49165" offset="0%"></stop>
            <stop stop-color="#E65835" offset="100%"></stop>
        </linearGradient>
    </defs>
    <g stroke="none" stroke-width="1" fill="none" fill-rule="evenodd">
        <g transform="translate(-311.000000, -146.000000)">
            <g transform="translate(311.000000, 146.000000)">
                <g stroke-width="1" transform="translate(63.000000, 0.000000)" fill="#3A79C2">
                    <g id="Type" fill-rule="nonzero">
                        <path d="M13.824,29.88 C14.8960054,29.88 15.7719966,29.7440014 16.452,29.472 C17.1320034,29.1999986 17.6639981,28.8480022 18.048,28.416 C18.4320019,27.9839978 18.6959993,27.4960027 18.84,26.952 C18.9840007,26.4079973 19.056,25.8560028 19.056,25.296 C19.056,24.6559968 18.9720008,24.0800026 18.804,23.568 C18.6359992,23.0559974 18.348002,22.6240018 17.94,22.272 C17.531998,21.9199982 16.9920034,21.648001 16.32,21.456 C15.6479966,21.263999 14.8000051,21.168 13.776,21.168 L8.112,21.168 L8.112,29.88 L13.824,29.88 Z M8.112,7.104 L8.112,15.744 L12.336,15.744 C13.2320045,15.744 14.0399964,15.6800006 14.76,15.552 C15.4800036,15.4239994 16.0919975,15.2000016 16.596,14.88 C17.1000025,14.5599984 17.4839987,14.1200028 17.748,13.56 C18.0120013,12.9999972 18.144,12.2960042 18.144,11.448 C18.144,10.6159958 18.040001,9.92400276 17.832,9.372 C17.623999,8.81999724 17.3040022,8.37600168 16.872,8.04 C16.4399978,7.70399832 15.8920033,7.46400072 15.228,7.32 C14.5639967,7.17599928 13.7760046,7.104 12.864,7.104 L8.112,7.104 Z M12.864,1.032 C15.2800121,1.032 17.3359915,1.25599776 19.032,1.704 C20.7280085,2.15200224 22.1119946,2.78399592 23.184,3.6 C24.2560054,4.41600408 25.0359976,5.40799416 25.524,6.576 C26.0120024,7.74400584 26.256,9.0479928 26.256,10.488 C26.256,11.2720039 26.1440011,12.0279964 25.92,12.756 C25.6959989,13.4840036 25.3440024,14.1639968 24.864,14.796 C24.3839976,15.4280032 23.7680038,16.0079974 23.016,16.536 C22.2639962,17.0640026 21.3600053,17.5199981 20.304,17.904 C22.6080115,18.4640028 24.3119945,19.3679938 25.416,20.616 C26.5200055,21.8640062 27.072,23.4799901 27.072,25.464 C27.072,26.9520074 26.7840029,28.3359936 26.208,29.616 C25.6319971,30.8960064 24.7880056,32.0119952 23.676,32.964 C22.5639944,33.9160048 21.1920082,34.6599973 19.56,35.196 C17.9279918,35.7320027 16.0640105,36 13.968,36 L-8.52651283e-14,36 L-8.52651283e-14,1.032 L12.864,1.032 Z M49.512,17.472 C50.6160055,17.472 51.5559961,17.3320014 52.332,17.052 C53.1080039,16.7719986 53.7439975,16.3840025 54.24,15.888 C54.7360025,15.3919975 55.0959989,14.8120033 55.32,14.148 C55.5440011,13.4839967 55.656,12.7680038 55.656,12 C55.656,10.4639923 55.156005,9.26400432 54.156,8.4 C53.155995,7.53599568 51.6080105,7.104 49.512,7.104 L46.248,7.104 L46.248,17.472 L49.512,17.472 Z M66.744,36 L59.4,36 C58.0399932,36 57.064003,35.4880051 56.472,34.464 L50.664,24.312 C50.3919986,23.8799978 50.0880017,23.564001 49.752,23.364 C49.4159983,23.163999 48.9360031,23.064 48.312,23.064 L46.248,23.064 L46.248,36 L38.136,36 L38.136,1.032 L49.512,1.032 C52.0400126,1.032 54.1959911,1.2919974 55.98,1.812 C57.7640089,2.3320026 59.2199944,3.05599536 60.348,3.984 C61.4760056,4.91200464 62.2959974,6.00799368 62.808,7.272 C63.3200026,8.53600632 63.576,9.91199256 63.576,11.4 C63.576,12.5360057 63.4240015,13.607995 63.12,14.616 C62.8159985,15.624005 62.368003,16.5559957 61.776,17.412 C61.183997,18.2680043 60.4520044,19.032 59.58,19.704 C58.7079956,20.3760034 57.7040057,20.9279978 56.568,21.36 C57.0960026,21.6320014 57.5919977,21.971998 58.056,22.38 C58.5200023,22.788002 58.9359982,23.2719972 59.304,23.832 L66.744,36 Z M83.856,36 L75.696,36 L75.696,1.032 L83.856,1.032 L83.856,36 Z M135.936,1.032 L135.936,36 L128.784,36 L128.784,15.888 C128.784,15.4239977 128.796,14.9200027 128.82,14.376 C128.844,13.8319973 128.888,13.2800028 128.952,12.72 L119.664,30.696 C119.375999,31.2560028 118.988002,31.6799986 118.5,31.968 C118.011998,32.2560014 117.456003,32.4 116.832,32.4 L115.728,32.4 C115.103997,32.4 114.548002,32.2560014 114.06,31.968 C113.571998,31.6799986 113.184001,31.2560028 112.896,30.696 L103.608,12.672 C103.656,13.2480029 103.696,13.8119972 103.728,14.364 C103.76,14.9160028 103.776,15.4239977 103.776,15.888 L103.776,36 L96.624,36 L96.624,1.032 L102.816,1.032 C103.168002,1.032 103.475999,1.03999992 103.74,1.056 C104.004001,1.07200008 104.239999,1.1199996 104.448,1.2 C104.656001,1.2800004 104.843999,1.40399916 105.012,1.572 C105.180001,1.74000084 105.343999,1.97599848 105.504,2.28 L114.504,20.016 C114.824002,20.624003 115.131999,21.2559967 115.428,21.912 C115.724001,22.5680033 116.007999,23.2399966 116.28,23.928 C116.552001,23.2239965 116.835999,22.5360034 117.132,21.864 C117.428001,21.1919966 117.743998,20.552003 118.08,19.944 L127.056,2.28 C127.216001,1.97599848 127.379999,1.74000084 127.548,1.572 C127.716001,1.40399916 127.903999,1.2800004 128.112,1.2 C128.320001,1.1199996 128.555999,1.07200008 128.82,1.056 C129.084001,1.03999992 129.391998,1.032 129.744,1.032 L135.936,1.032 Z" id="BRIM"></path>
                    </g>
                </g>
                <g id="Logo-/-Small-/-Color">
                    <path d="M0,36 C3.82868501,30.3975225 7.08964792,24.8975225 9.78288873,19.5 C12.4761295,14.1024775 14.7151666,8.60247746 16.5,3 C18.7233385,3.93 21.2233385,4.43 24,4.5 C16.2511772,15.8859649 35.8169547,24.0350877 24,36 L0,36 Z" id="left-side" fill="#2F619C"></path>
                    <path d="M25.5,4.5 C28.28,4.43 30.7813866,3.93 33.0041599,3 C35.0300992,8.39752254 37.389312,13.8975225 40.0817982,19.5 C42.7742845,25.1024775 45.9150717,30.6024775 49.5041599,36 L25.5,36 C36.8814665,24.0350877 18.0367433,15.8859649 25.5,4.5 Z" id="right-side" fill="#3A79C2"></path>
                    <path d="M17.25,1.2 C19.2681818,0.4 21.7681818,-1.44328993e-15 24.75,-1.44328993e-15 C27.7318182,-1.44328993e-15 30.2318182,0.4 32.25,1.2 L32.25,2.25 C30.2318182,3.05 27.7318182,3.45 24.75,3.45 C21.7681818,3.45 19.2681818,3.05 17.25,2.25 L17.25,1.2 Z" id="lava" fill="url(#type-logo-gradient)"></path>
                </g>
            </g>
        </g>
    </g>
</svg>
