<?xml version="1.0" encoding="utf-8"?>
<!-- Generator: Adobe Illustrator 16.0.0, SVG Export Plug-In . SVG Version: 6.00 Build 0)  -->
<!DOCTYPE svg PUBLIC "-//W3C//DTD SVG 1.1//EN" "http://www.w3.org/Graphics/SVG/1.1/DTD/svg11.dtd">
<svg version="1.1" id="Layer_1" xmlns="http://www.w3.org/2000/svg" xmlns:xlink="http://www.w3.org/1999/xlink" x="0px" y="0px"
	 width="101px" height="101px" viewBox="0 0 101 101" enable-background="new 0 0 101 101" xml:space="preserve">
<title>looky</title>
<desc>Created with Sketch.</desc>
<g id="Welcome">
	<g id="Desktop" transform="translate(-319.000000, -67.000000)">
		<g id="Looky-Header">
			<g id="Looky-and-logo" transform="translate(320.000000, 60.000000)">
				<g id="looky" transform="translate(0.000000, 8.000000)">
					<circle id="Oval" fill="#FFDD67" stroke="#FFDD67" stroke-width="1" cx="49.5" cy="49.5" r="49.5"/>
					<circle id="Oval_1_" fill="#494949" cx="25" cy="46" r="21"/>
					<circle id="Oval_2_" fill="#FFFFFF" cx="23.5" cy="47.5" r="16.5"/>
					<circle id="Oval_3_" fill="#494949" cx="73" cy="46" r="21"/>
					<circle id="Oval_4_" fill="#FFFFFF" cx="74.5" cy="47.5" r="16.5"/>
					<path id="Shape" fill="#917524" d="M13.062,20.99c0.872,0.202,4.39-2.583,10.172-3.693c3.034-0.583,7.097-0.518,9.382-0.412
						c1.318,0.062,1.798-2.224,0.986-2.521c-0.304-0.111-6.938-0.98-12.555,0.443c-7.238,1.834-9.81,3.73-10.016,4.05
						C10.831,19.166,11.636,20.757,13.062,20.99z"/>
					<path id="Shape_1_" fill="#917524" d="M84.938,22.99c-0.871,0.202-4.389-2.583-10.172-3.693
						c-3.033-0.583-7.096-0.518-9.381-0.412c-1.318,0.062-1.799-2.224-0.986-2.521c0.305-0.111,6.938-0.98,12.555,0.443
						c7.238,1.834,9.811,3.73,10.017,4.05C87.17,21.166,86.363,22.757,84.938,22.99z"/>
					<ellipse id="Oval_5_" fill="#664E27" cx="29.5" cy="48" rx="7" ry="8.5"/>
					<ellipse id="Oval_6_" fill="#664E27" cx="70.5" cy="48" rx="7" ry="8.5"/>
					<path id="Shape_2_" fill="#917524" d="M43.241,75.814c1.172,0.307,7.812,1.441,11.832,0.855
						c4.015-0.627,10.554-4.193,12.15-4.642c1.115-0.321,3.902,2.174,3.773,4.58c-0.492,1.522-9.156,5.312-14.262,6.047
						c-6.864,0.922-14.54-0.198-15.412-1.1C40.407,80.609,41.566,75.793,43.241,75.814z"/>
					<path id="Shape_3_" fill="#494949" d="M42,34.573c2.661-1.135,5.267-1.562,8.332-1.573c2.711-0.009,4.803,0.317,7.104,1.258
						c2.068,0.846-2.18,5.567-2.596,5.535c-0.152-0.012-2.165-0.534-4.849-0.503c-2.746,0.031-4.707,0.38-5.259,0.692
						C44.479,40.125,42.685,39.497,42,34.573z"/>
				</g>
			</g>
		</g>
	</g>
</g>
</svg>
