<svg xmlns="http://www.w3.org/2000/svg" version="1.1" width="128" height="128" data-icon="loop" data-container-transform="translate(8 28)" viewBox="0 0 128 128">
  <path d="M64.563.594c-.345.069-.563.389-.563.906v8.5h-57c-3.818 0-7 3.182-7 7v38c0 3.818 3.182 7 7 7h9v-8h-8v-36h56v8.5c0 .828.565 1.168 1.281.75l21.438-12.5c.716-.417.716-1.082 0-1.5l-21.438-12.5c-.269-.156-.512-.197-.719-.156zm31.438 9.406v8h8v36h-56v-8.5c0-.828-.565-1.168-1.281-.75l-21.438 12.5c-.716.417-.716 1.082 0 1.5l21.438 12.5c.715.417 1.281.078 1.281-.75v-8.5h57c3.818 0 7-3.182 7-7v-38c0-3.818-3.182-7-7-7h-9z"
  transform="translate(8 28)" />
</svg>