<svg xmlns="http://www.w3.org/2000/svg" version="1.1" width="128" height="128" data-icon="loop-circular" data-container-transform="translate(0 10)" viewBox="0 0 128 128">
  <path d="M64.5 0c-.928-.012-1.852-.005-2.781.031-4.956.191-9.907 1.062-14.719 2.656-12.288 4.071-22.822 12.578-29.438 23.688-4.979 8.362-7.554 17.947-7.563 27.594h-10l14 24 14-24h-9.969c.018-8.217 2.192-16.422 6.406-23.5 5.618-9.435 14.676-16.736 25.094-20.188 16.316-5.405 34.853-.99 47 11.156l5.656-5.656c-10.074-10.073-23.766-15.602-37.688-15.781zm49.5 29.969l-14 24h9.969c-.018 8.217-2.192 16.422-6.406 23.5-5.618 9.435-14.676 16.705-25.094 20.156-16.316 5.405-34.853 1.021-47-11.125l-5.656 5.656c14.327 14.326 35.941 19.438 55.188 13.063 12.288-4.071 22.822-12.547 29.438-23.656 4.979-8.362 7.554-17.947 7.563-27.594h10l-14-24z"
  transform="translate(0 10)" />
</svg>