<svg xmlns="http://www.w3.org/2000/svg" version="1.1" width="32" height="32" data-icon="loop" data-container-transform="translate(1 4)" viewBox="0 0 32 32">
  <path d="M17.125.219c-.072.036-.125.143-.125.281v2.5h-14.5c-1.364 0-2.5 1.136-2.5 2.5v12c0 1.364 1.136 2.5 2.5 2.5h2.5v-3h-2v-11h14v2.5c0 .276.185.354.406.188l5.188-3.875c.221-.166.221-.459 0-.625l-5.188-3.875c-.11-.083-.209-.13-.281-.094zm7.875 2.781v3h2v11h-14v-2.5c0-.276-.185-.354-.406-.188l-5.188 3.875c-.221.166-.221.459 0 .625l5.188 3.875c.221.166.406.088.406-.188v-2.5h14.5c1.364 0 2.5-1.136 2.5-2.5v-12c0-1.364-1.136-2.5-2.5-2.5h-2.5z"
  transform="translate(1 4)" />
</svg>