<svg xmlns="http://www.w3.org/2000/svg" version="1.1" width="32" height="32" data-icon="loop-square" data-container-transform="translate(0 4)" viewBox="0 0 32 32">
  <path d="M6 0c-1.64 0-3 1.36-3 3v5h3v-5h20v5h-2.5c-.276 0-.354.185-.188.406l3.875 5.188c.166.221.459.221.625 0l3.875-5.188c.166-.221.088-.406-.188-.406h-2.5v-5c0-1.64-1.36-3-3-3h-20zm-1.5 10.219c-.109 0-.229.077-.313.188l-3.875 5.188c-.166.221-.088.406.188.406h2.5v5c0 1.64 1.36 3 3 3h20c1.64 0 3-1.36 3-3v-5h-3v5h-20v-5h2.5c.276 0 .354-.185.188-.406l-3.875-5.188c-.083-.111-.204-.188-.313-.188z"
  transform="translate(0 4)" />
</svg>