<svg xmlns="http://www.w3.org/2000/svg" version="1.1" width="128" height="128" data-icon="loop-square" data-container-transform="translate(0 16)" viewBox="0 0 128 128">
  <path d="M18.5 0c-4.647 0-8.5 3.853-8.5 8.5v27.5h8v-27.5c0-.323.177-.5.5-.5h91c.323 0 .5.177.5.5v21.5h-8.5c-.828 0-1.168.565-.75 1.281l12.5 21.438c.417.715 1.082.715 1.5 0l12.5-21.438c.417-.716.078-1.281-.75-1.281h-8.5v-21.5c0-4.647-3.853-8.5-8.5-8.5h-91zm-4.5 42.75c-.274 0-.541.173-.75.531l-12.5 21.438c-.417.716-.078 1.281.75 1.281h8.5v21.5c0 4.647 3.853 8.5 8.5 8.5h91c4.647 0 8.5-3.853 8.5-8.5v-27.5h-8v27.5c0 .323-.177.5-.5.5h-91c-.323 0-.5-.177-.5-.5v-21.5h8.5c.828 0 1.168-.565.75-1.281l-12.5-21.438c-.209-.358-.476-.531-.75-.531z"
  transform="translate(0 16)" />
</svg>