<svg xmlns="http://www.w3.org/2000/svg" version="1.1" width="128" height="128" data-icon="magnifying-glass" viewBox="0 0 128 128">
  <path d="M46 0c-25.358 0-46 20.642-46 46s20.642 46 46 46c11.238 0 21.563-4.058 29.563-10.781l5.594 5.625-2.094 2.094c-.586.585-.586 1.539 0 2.125l35.875 35.875c.585.586 1.539.586 2.125 0l9.875-9.875c.586-.586.586-1.539 0-2.125l-31.219-31.219-6.719 6.688-1.406-1.406 6.688-6.719-3.219-3.219c-.293-.293-.679-.438-1.063-.438-.384 0-.769.144-1.063.438l-2.094 2.094-5.625-5.594c6.723-8 10.781-18.324 10.781-29.563 0-25.358-20.642-46-46-46zm0 8c21.034 0 38 16.966 38 38s-16.966 38-38 38-38-16.966-38-38 16.966-38 38-38zm0 4c-18.765 0-34 15.235-34 34a1 1 0 1 0 2 0c0-17.685 14.315-32 32-32a1 1 0 1 0 0-2z"
  />
</svg>