<svg xmlns="http://www.w3.org/2000/svg" version="1.1" width="128" height="128" data-icon="map" viewBox="0 0 128 128">
  <path d="M5.5 0c-2.992 0-5.5 2.508-5.5 5.5v117c0 2.992 2.508 5.5 5.5 5.5h117c2.992 0 5.5-2.508 5.5-5.5v-117c0-2.992-2.508-5.5-5.5-5.5h-117zm2.5 8h112v112h-112v-112zm35.188 2l15 15-9.594 9.594a2 2 0 1 0 2.813 2.813l9.594-9.594 40.188 40.188-50.031 50h5.688l47.156-47.188 14 14v-5.625l-11.188-11.188 11.188-11.188v-5.625l-14 14-40.188-40.188 15-15h-5.625l-12.188 12.188-12.188-12.188h-5.625zm4.813 42c-8.836 0-16 7.163-16 16 0 12 16 32 16 32s16-20 16-32c0-8.837-7.163-16-16-16zm0 8c4.418 0 8 3.582 8 8s-3.582 8-8 8-8-3.582-8-8 3.582-8 8-8z"
  />
</svg>