<svg xmlns="http://www.w3.org/2000/svg" version="1.1" width="16" height="16" data-icon="map" viewBox="0 0 16 16">
  <path d="M1.25 0c-.679 0-1.25.571-1.25 1.25v13.5c0 .679.571 1.25 1.25 1.25h13.5c.679 0 1.25-.571 1.25-1.25v-13.5c0-.679-.571-1.25-1.25-1.25h-13.5zm.75 2h3.313l6.5 6.5-5.5 5.5h-4.313v-12zm4.688 0h7.313v4.313l-1.5 1.5-5.813-5.813zm-.688 4c-1.105 0-2 .895-2 2 0 1.5 2 4 2 4s2-2.5 2-4c0-1.105-.895-2-2-2zm0 1c.552 0 1 .448 1 1s-.448 1-1 1-1-.448-1-1 .448-1 1-1zm8 .688v1.625l-.813-.813.813-.813zm-1.5 1.5l1.5 1.5v3.313h-6.313l4.813-4.813z"
  />
</svg>