<svg xmlns="http://www.w3.org/2000/svg" version="1.1" width="32" height="32" data-icon="medal" viewBox="0 0 32 32">
  <path d="M5 0l3 5h16l3-5h-22zm-.969.094c-.163.054-.327.136-.438.219l-3.188 2.375c-.221.166-.298.513-.156.75l9.781 16.281c1.107-1.251 2.592-2.164 4.281-2.531l-4.313-7.188-2.75-4.563c-.011-.018.008-.045 0-.063l-3.188-5.281h-.031zm23.906 0l-3.188 5.281c-.008.017.011.045 0 .063l-2.75 4.563-4.313 7.188c1.689.367 3.174 1.28 4.281 2.531l9.781-16.281c.142-.237.065-.584-.156-.75l-3.188-2.375c-.11-.083-.275-.165-.438-.219-.01-.003-.021.003-.031 0zm-11.938 18.906c-3.314 0-6 2.686-6 6s2.686 6 6 6 6-2.686 6-6-2.686-6-6-6z"
  />
</svg>