<svg xmlns="http://www.w3.org/2000/svg" version="1.1" data-icon="media-skip-backward" width="128" height="128" data-container-transform="translate(0 32 ) scale(1 1 )" viewBox="0 0 128 128">
  <path d="M127.094.438c-.155.006-.325.056-.5.156l-61.281 30.719c-.7.4-.7.975 0 1.375l61.281 30.5c.7.4 1.313.019 1.313-.781v-61c0-.6-.348-.988-.813-.969zm-63.906.094c-.155.006-.325.056-.5.156l-61.375 30.625c-.7.4-.7.975 0 1.375l61.375 30.625c.7.4 1.313-.013 1.313-.813v-61c0-.6-.348-.988-.813-.969z"
  transform="translate(0 32)" />
</svg>