<svg xmlns="http://www.w3.org/2000/svg" version="1.1" width="32" height="32" data-icon="microphone" data-container-transform="translate(8)" viewBox="0 0 32 32">
  <path d="M8 0c-2.75 0-5 2.25-5 5v10h10v-10c0-2.75-2.25-5-5-5zm0 2c.552 0 1 .448 1 1s-.448 1-1 1-1-.448-1-1 .448-1 1-1zm-2 4c.552 0 1 .448 1 1s-.448 1-1 1-1-.448-1-1 .448-1 1-1zm4 0c.552 0 1 .448 1 1s-.448 1-1 1-1-.448-1-1 .448-1 1-1zm-4 4c.552 0 1 .448 1 1s-.448 1-1 1-1-.448-1-1 .448-1 1-1zm4 0c.552 0 1 .448 1 1s-.448 1-1 1-1-.448-1-1 .448-1 1-1zm5.344 4a.5.5 0 0 0-.344.5v2.5c0 3.872-3.128 7-7 7s-7-3.128-7-7v-1.625a.5.5 0 1 0-1 0v1.625c0 4.073 3.06 7.443 7 7.938v5.063h-4c-1.105 0-2 .895-2 2h14c0-1.105-.895-2-2-2h-4v-5.063c3.94-.495 7-3.865 7-7.938v-2.5a.5.5 0 0 0-.594-.5.5.5 0 0 0-.063 0zm-12.344 2v1c0 2.75 2.25 5 5 5s5-2.25 5-5v-1h-10z"
  transform="translate(8)" />
</svg>