<svg xmlns="http://www.w3.org/2000/svg" version="1.1" width="128" height="128" data-icon="move" viewBox="0 0 128 128">
  <path d="M64 .75c-.274 0-.541.173-.75.531l-12.5 21.438c-.417.716-.078 1.281.75 1.281h8.5v36h-36v-8.5c0-.828-.565-1.168-1.281-.75l-21.438 12.5c-.716.417-.716 1.082 0 1.5l21.438 12.5c.715.417 1.281.078 1.281-.75v-8.5h36v36h-8.5c-.828 0-1.168.565-.75 1.281l12.5 21.438c.417.716 1.082.716 1.5 0l12.5-21.438c.417-.716.078-1.281-.75-1.281h-8.5v-36h36v8.5c0 .828.565 1.168 1.281.75l21.438-12.5c.716-.417.716-1.082 0-1.5l-21.438-12.5c-.716-.417-1.281-.078-1.281.75v8.5h-36v-36h8.5c.828 0 1.168-.565.75-1.281l-12.5-21.438c-.209-.358-.476-.531-.75-.531z"
  />
</svg>