<svg xmlns="http://www.w3.org/2000/svg" version="1.1" width="32" height="32" data-icon="move" viewBox="0 0 32 32">
  <path d="M15.5.219c-.108 0-.229.077-.313.188l-3.875 5.188c-.166.221-.088.406.188.406h2.5v8h-8v-2.5c0-.276-.185-.354-.406-.188l-5.188 3.875c-.221.166-.221.459 0 .625l5.188 3.875c.221.166.406.088.406-.188v-2.5h8v8h-2.5c-.276 0-.354.185-.188.406l3.875 5.188c.166.221.459.221.625 0l3.875-5.188c.166-.221.088-.406-.188-.406h-2.5v-8h8v2.5c0 .276.185.354.406.188l5.188-3.875c.221-.166.221-.459 0-.625l-5.188-3.875c-.221-.166-.406-.088-.406.188v2.5h-8v-8h2.5c.276 0 .354-.185.188-.406l-3.875-5.188c-.083-.11-.204-.188-.313-.188z"
  />
</svg>