<svg xmlns="http://www.w3.org/2000/svg" version="1.1" width="128" height="128" data-icon="network" viewBox="0 0 128 128">
  <path d="M64 0c-11.462 0-22.194 3.035-31.5 8.313 13.699 6.516 28.654 16.084 42.625 27.563.917-1.134 2.304-1.875 3.875-1.875 1.592 0 2.99.746 3.906 1.906 10.81-5.708 21.392-10.067 30.5-12.563-11.738-14.248-29.504-23.344-49.406-23.344zm-33.688 9.594c-15.315 9.499-26.304 25.254-29.406 43.719 24.332-13.339 48.051-18.214 73.188-15.125.028-.172.05-.334.094-.5-14.235-11.718-29.815-21.553-43.875-28.094zm84.469 15.469c-9.124 2.432-19.947 6.886-30.969 12.688.103.4.188.817.188 1.25 0 1.296-.504 2.456-1.313 3.344 9.398 8.429 17.566 17.203 24.375 26.063.6-.255 1.245-.406 1.938-.406.959 0 1.833.282 2.594.75 7.724-8.111 11.885-15.651 14.031-22-2.223-7.959-5.945-15.305-10.844-21.688zm-54.688 14.25c-20.157-.067-39.634 5.336-59.563 16.5-.343 2.682-.531 5.413-.531 8.188 0 14.083 4.573 27.087 12.281 37.656 6.339-13.754 18.864-30.524 43-48.375 6.127-4.532 12.549-8.752 19.031-12.563-.057-.156-.084-.337-.125-.5-4.739-.594-9.442-.891-14.094-.906zm15.281 3.125c-6.478 3.789-12.869 7.972-18.906 12.438-24.428 18.068-36.789 34.95-42.844 48.594 1.65 2.102 3.418 4.09 5.313 5.969.954.055 1.944.094 2.969.094 11.816 0 27.08-3.73 42.156-9.938-.024-.2-.063-.388-.063-.594 0-2.761 2.239-5 5-5 1.506 0 2.834.666 3.75 1.719 5.443-2.608 10.781-5.502 15.813-8.656 6.294-3.946 11.596-7.852 16.063-11.688-.384-.708-.625-1.514-.625-2.375 0-1.349.538-2.57 1.406-3.469-6.797-8.83-14.959-17.557-24.375-25.969-.623.278-1.305.438-2.031.438-1.425 0-2.714-.605-3.625-1.563zm51.125 7.781c-2.883 7.005-7.546 13.686-13.438 19.875.588.82.938 1.82.938 2.906 0 1.266-.474 2.4-1.25 3.281 3.463 5.146 6.427 10.302 8.938 15.438 4.04-8.39 6.313-17.783 6.313-27.719 0-4.729-.527-9.345-1.5-13.781zm-20.594 26.688c-9.321 8.039-20.554 15.03-32.156 20.594.151.477.25.973.25 1.5 0 1.065-.339 2.033-.906 2.844 5.232 5.321 11.029 12.73 16.031 21.031 13.49-5.768 24.603-16.055 31.438-28.938-2.58-5.463-5.718-10.95-9.406-16.438-.653.313-1.383.5-2.156.5-1.179 0-2.239-.411-3.094-1.094zm-41.188 24.625c-15.52 6.366-31.013 10-42.813 10-.27 0-.515-.027-.781-.031 11.347 10.244 26.385 16.5 42.875 16.5 8.255 0 16.13-1.591 23.375-4.438-4.138-7.067-9.335-14.091-15.688-20.344-.775.494-1.701.781-2.688.781-1.839 0-3.413-.99-4.281-2.469z"
  />
</svg>