<svg xmlns="http://www.w3.org/2000/svg" version="1.1" width="16" height="16" data-icon="open-hardware" data-container-transform="translate(0 1)" viewBox="0 0 16 16">
  <path d="M7 0c-.049 0-.116.046-.125.094l-.375 2.031c-.009.048-.048.079-.094.094l-1.375.563c-.044.022-.085.028-.125 0l-1.719-1.156c-.04-.028-.09-.035-.125 0l-1.438 1.438c-.034.035-.027.085 0 .125l1.125 1.688c.028.04.054.081.031.125l-.625 1.406c-.016.046-.046.116-.094.125l-1.969.344c-.048.009-.094.076-.094.125v2c0 .049.046.116.094.125l1.906.344c.048.009.11.047.125.094l.594 1.5c.021.044.027.116 0 .156l-1.094 1.594c-.028.04-.035.09 0 .125l1.438 1.438c.034.034.085.027.125 0l1.563-1.063c.04-.028.114-.025.156 0l.688.375c.043.022.075-.017.094-.063l1.438-3.406c.019-.045-.021-.099-.063-.125l-.156-.125c-.032-.019-.091-.033-.125-.063-.62-.397-1.031-1.115-1.031-1.906 0-1.235 1.015-2.219 2.25-2.219s2.25.984 2.25 2.219c0 .791-.41 1.509-1.031 1.906-.034.03-.093.043-.125.063l-.156.125c-.041.025-.081.08-.063.125l1.438 3.406c.019.045.05.085.094.063l.688-.375c.042-.025.116-.027.156 0l1.563 1.063c.04.027.09.035.125 0l1.438-1.438c.035-.035.027-.085 0-.125l-1.094-1.594c-.028-.04-.022-.112 0-.156l.594-1.5c.015-.046.077-.085.125-.094l1.906-.344c.048-.009.094-.076.094-.125v-2c0-.049-.046-.116-.094-.125l-1.969-.344c-.048-.009-.078-.079-.094-.125l-.625-1.406c-.022-.043.003-.085.031-.125l1.125-1.688c.027-.04.035-.09 0-.125l-1.438-1.438c-.035-.035-.085-.027-.125 0l-1.719 1.156c-.04.028-.081.022-.125 0l-1.375-.563c-.046-.015-.085-.046-.094-.094l-.375-2.031c-.009-.048-.076-.094-.125-.094h-2z"
  transform="translate(0 1)" />
</svg>