<svg xmlns="http://www.w3.org/2000/svg" version="1.1" width="16" height="16" data-icon="palette" viewBox="0 0 16 16">
  <path d="M8 0c-4.426 0-8 3.582-8 8s3.575 8 8 8c2.003 0 4.232-.319 4.906-1.719.366-.761-.154-1.976-1.281-2.531-1.596-.785-1.628-2.694.375-3.438 3.52-1.306 3.404-4.346 2.406-5.656-1.373-1.803-3.401-2.656-6.406-2.656zm0 1c.552 0 1 .448 1 1s-.448 1-1 1-1-.448-1-1 .448-1 1-1zm-3 1c.552 0 1 .448 1 1s-.448 1-1 1-1-.448-1-1 .448-1 1-1zm6 0c.552 0 1 .448 1 1s-.448 1-1 1-1-.448-1-1 .448-1 1-1zm-8 3c.552 0 1 .448 1 1s-.448 1-1 1-1-.448-1-1 .448-1 1-1zm6 2c.552 0 1 .448 1 1s-.448 1-1 1-1-.448-1-1 .448-1 1-1zm-6 2c.552 0 1 .448 1 1s-.448 1-1 1-1-.448-1-1 .448-1 1-1zm3 3c.552 0 1 .448 1 1s-.448 1-1 1-1-.448-1-1 .448-1 1-1z"
  />
</svg>