<svg xmlns="http://www.w3.org/2000/svg" version="1.1" width="128" height="128" data-icon="palette" data-container-transform="translate(4)" viewBox="0 0 128 128">
  <path d="M64.094 0c-35.405 0-64.094 28.654-64.094 64 0 35.346 28.689 64 64.094 64 16.026 0 34.668-2.214 39.063-13.844 2.33-6.167.844-14.03-11.156-20.844-12.372-7.026-12.152-20.931 3.875-26.875 28.158-10.445 27.265-34.706 19.281-45.188-10.986-14.422-27.023-21.25-51.063-21.25zm-3.094 8c2.761 0 5 2.239 5 5s-2.239 5-5 5-5-2.239-5-5 2.239-5 5-5zm26 6c2.761 0 5 2.239 5 5s-2.239 5-5 5-5-2.239-5-5 2.239-5 5-5zm-50 2c2.761 0 5 2.239 5 5s-2.239 5-5 5-5-2.239-5-5 2.239-5 5-5zm-16 22c2.761 0 5 2.239 5 5s-2.239 5-5 5-5-2.239-5-5 2.239-5 5-5zm56 8c5.523 0 10 4.477 10 10s-4.477 10-10 10-10-4.477-10-10 4.477-10 10-10zm-62 16c2.761 0 5 2.239 5 5s-2.239 5-5 5-5-2.239-5-5 2.239-5 5-5zm10 24c2.761 0 5 2.239 5 5s-2.239 5-5 5-5-2.239-5-5 2.239-5 5-5zm20 18c2.761 0 5 2.239 5 5s-2.239 5-5 5-5-2.239-5-5 2.239-5 5-5zm26 4c2.761 0 5 2.239 5 5s-2.239 5-5 5-5-2.239-5-5 2.239-5 5-5z"
  transform="translate(4)" />
</svg>