<svg xmlns="http://www.w3.org/2000/svg" version="1.1" width="16" height="16" data-icon="paperclip" data-container-transform="translate(1)" viewBox="0 0 16 16">
  <path d="M10.938 0c-.769 0-1.541.291-2.125.875l-7.5 7.438c-1.753 1.753-1.753 4.622 0 6.375 1.753 1.753 4.622 1.753 6.375 0l4.531-4.531.344-.375-.688-.688-.375.344-4.531 4.531c-1.371 1.371-3.567 1.371-4.938 0-1.371-1.371-1.371-3.567 0-4.938l7.5-7.438c.785-.785 2.059-.785 2.844 0 .785.785.785 2.028 0 2.813l-7.531 7.438c-.199.199-.487.2-.688 0-.199-.199-.2-.487 0-.688l.063-.063 4.469-4.469.344-.375-.719-.688-.344.344-4.531 4.531c-.582.582-.583 1.544 0 2.125.582.582 1.544.583 2.125 0l7.5-7.438c1.167-1.167 1.167-3.083 0-4.25-.584-.584-1.356-.875-2.125-.875z"
  transform="translate(1)" />
</svg>