<svg width="34px" height="44px" viewBox="0 0 34 44" version="1.1" xmlns="http://www.w3.org/2000/svg" xmlns:xlink="http://www.w3.org/1999/xlink">
    <defs>
        <polygon id="path-1" points="0 0 0 42 31.7377049 42 31.7377049 10.7989978 21.1803279 0"></polygon>
    </defs>
    <g id="Icons-/-PCAP" stroke="none" stroke-width="1" fill="white" fill-rule="evenodd">
        <g id="Pcap-Icon" transform="translate(1.000000, 1.000000)">
            <mask id="mask-2" fill="white">
                <use xlink:href="#path-1"></use>
            </mask>
            <path stroke="#DBDBDB" stroke-width="1.04918033" d="M-0.524590164,-0.524590164 L21.401105,-0.524590164 L32.2622951,10.5851739 L32.2622951,42.5245902 L-0.524590164,42.5245902 L-0.524590164,-0.524590164 Z"></path>
            <path class="shark-fin" d="M4.72226653,36.600062 C7.45451916,23.0809456 14.0837786,16.2171094 24.5575835,16.175414 L25.4316713,16.1719343 L25.0235795,16.9449173 C21.6728918,23.2915893 21.6254772,29.8256905 24.8873086,36.6000674 L36.147541,36.6000674 L36.147541,54.4995902 L-4.7704918,54.4995902 L-4.7704918,36.6000674 L4.72226545,36.6000674 Z" id="Sharkfin" stroke="#DBDBDB" stroke-width="1.04918033" fill="#F6F6F6" stroke-linejoin="round" mask="url(#mask-2)"></path>
            <polyline id="Path-3" stroke="#DBDBDB" stroke-width="1.04918033" fill="#FFFFFF" mask="url(#mask-2)" points="21.770492 -1.3125 21.770492 10.2375 33.3114756 10.2375"></polyline>
        </g>
    </g>
</svg>
