<svg xmlns="http://www.w3.org/2000/svg" version="1.1" width="32" height="32" data-icon="people" data-container-transform="translate(0 8)" viewBox="0 0 32 32">
  <path d="M16 0c-2.209 0-4 1.739-4 4.5s1.791 5.5 4 5.5 4-2.739 4-5.5-1.791-4.5-4-4.5zm-9 1c-1.933 0-3.5 1.765-3.5 4.25 0 2.485 1.567 4.75 3.5 4.75s3.5-2.265 3.5-4.75-1.567-4.25-3.5-4.25zm18 0c-1.933 0-3.5 1.765-3.5 4.25 0 2.485 1.567 4.75 3.5 4.75s3.5-2.265 3.5-4.75-1.567-4.25-3.5-4.25zm-21.5 8c-1.933 0-3.5 1.567-3.5 3.5v1c0 .276.224.5.5.5h6c.276 0 .5-.224.5-.5v-.5c0-.549.084-1.069.25-1.563.088-.262.091-.447-.031-.438-.074.006-.144 0-.219 0-1.177 0-2.252-.609-3.063-1.594-.176-.213-.34-.406-.375-.406h-.063zm8.5 0c-2.209 0-4 1.791-4 4v1.5c0 .276.224.5.5.5h15c.276 0 .5-.224.5-.5v-1.5c0-2.209-1.791-4-4-4h-.25c-.13 0-.349.166-.531.375-.845.971-1.949 1.625-3.219 1.625-1.27 0-2.374-.654-3.219-1.625-.181-.208-.401-.375-.531-.375h-.25zm16.438 0c-.035 0-.199.193-.375.406-.811.985-1.887 1.594-3.063 1.594-.074 0-.145.006-.219 0-.122-.009-.12.175-.031.438.166.493.25 1.014.25 1.563v.5c0 .276.224.5.5.5h6c.276 0 .5-.224.5-.5v-1c0-1.933-1.567-3.5-3.5-3.5h-.063z"
  transform="translate(0 8)" />
</svg>