<svg xmlns="http://www.w3.org/2000/svg" version="1.1" data-icon="person-male" width="128" height="128" data-container-transform="translate(0 ) scale(1 1 )" viewBox="0 0 128 128">
  <path d="M64 0c-31.8 0-36.3 26-30 40 0 22.1 10 44 30 44 19.8 0 30-21.9 30-44 7.7-23.7-6.2-32-14-32-.5-7.5-9.4-8-16-8zm-32 80c-17.7 0-32 14.3-32 32v14.5c0 .8.7 1.5 1.5 1.5h125c.8 0 1.5-.7 1.5-1.5v-14.5c0-17.7-14.3-32-32-32h-5.188c-.8 0-1.9.494-2.5 1.094-6.6 7.1-14.912 10.906-24.313 10.906-9.4 0-17.813-3.806-24.313-10.906-.6-.6-1.7-1.094-2.5-1.094h-5.188z"
  />
</svg>