<svg xmlns="http://www.w3.org/2000/svg" version="1.1" data-icon="person-female" width="16" height="16" data-container-transform="scale(1 1 ) translate(0 )" viewBox="0 0 16 16">
  <path d="M8 0c-2.2 0-4 2.2-4 5 0 2.3-1 3-2 3 0 0 1.513.813 3.313.313.8 1 1.888 1.688 2.688 1.688.8 0 1.912-.688 2.813-1.688 1.7.5 3.188-.313 3.188-.313-1 0-2-.7-2-3 0-2.8-1.8-5-4-5zm-3.813 10.188c-1.5.5-4.187 2.313-4.188 4.813v1h16v-1c0-2.5-2.688-4.313-4.188-4.813-1.2 1.1-2.512 1.813-3.813 1.813-1.3 0-2.612-.713-3.813-1.813z"
  />
</svg>