<svg xmlns="http://www.w3.org/2000/svg" version="1.1" width="128" height="128" data-icon="pie-chart" viewBox="0 0 128 128">
  <path d="M56 0c-15.464 0-29.46 6.272-39.594 16.406l49.594 49.594v-65.094c-3.247-.586-6.584-.906-10-.906zm18.031 8.313l.125 65.688-42.156 42.031c10.026 7.527 22.498 11.969 36 11.969 33.137 0 60-26.863 60-60 0-31.098-23.669-56.658-53.969-59.688zm-53.438 24.281c-12.446 8.673-20.594 23.087-20.594 39.406 0 17.148 9.006 32.198 22.531 40.688l39.313-38.844-41.25-41.25z"
  />
</svg>