<svg xmlns="http://www.w3.org/2000/svg" version="1.1" width="32" height="32" data-icon="pill" viewBox="0 0 32 32">
  <path d="M24 0c-2.047 0-4.094.782-5.656 2.344l-6.563 6.563-1.406 1.406-8.031 8.031c-3.124 3.124-3.124 8.189 0 11.313 1.562 1.562 3.608 2.344 5.656 2.344 2.047 0 4.094-.782 5.656-2.344l8.031-8.031 1.406-1.406 6.563-6.563c3.124-3.124 3.124-8.189 0-11.313-1.562-1.562-3.609-2.344-5.656-2.344zm-12.219 11.719l8.5 8.5-8.031 8.031c-1.133 1.133-2.647 1.75-4.25 1.75-1.603 0-3.116-.617-4.25-1.75-2.339-2.339-2.339-6.161 0-8.5l8.031-8.031z"
  />
</svg>