<svg xmlns="http://www.w3.org/2000/svg" version="1.1" data-icon="platform-android" width="32" height="32" data-container-transform="scale(1 1 ) translate(2 )" viewBox="0 0 32 32">
  <path d="M8.125 0c-.067-.02-.153-.005-.219.031-.134.072-.168.244-.094.375l1.375 2.531c-2.71 1.398-4.533 4.039-4.531 7.094h17.781c.001-3.055-1.825-5.693-4.531-7.094l1.375-2.531c.073-.132.039-.301-.094-.375-.135-.071-.303-.008-.375.125l-1.406 2.531c-1.172-.521-2.488-.815-3.875-.813-1.384-.001-2.677.295-3.844.813l-1.406-2.531c-.036-.067-.089-.137-.156-.156zm1.375 5.313c.412 0 .749.34.75.75 0 .411-.337.75-.75.75-.41-.001-.75-.339-.75-.75 0-.41.339-.75.75-.75zm8.094 0c.409.001.751.34.75.75.001.412-.338.75-.75.75-.411.001-.75-.337-.75-.75.001-.409.338-.749.75-.75zm-15.625 5.031c-1.091-.001-1.969.879-1.969 1.969v8.281c0 1.093.879 1.969 1.969 1.969 1.091 0 1.971-.876 1.969-1.969v-8.281c0-1.089-.879-1.97-1.969-1.969zm23.156 0c-1.091-.001-2.001.878-2 1.969v8.281c0 1.092.909 1.968 2 1.969 1.091 0 1.969-.876 1.969-1.969v-8.281c0-1.091-.878-1.969-1.969-1.969zm-20.406.375v12.813c-.001 1.166.929 2.125 2.094 2.125h1.438v4.375c0 1.089.912 1.969 2 1.969 1.091 0 1.969-.878 1.969-1.969v-4.375h2.656v4.375c0 1.089.881 1.971 1.969 1.969 1.091.001 1.969-.879 1.969-1.969v-4.375h1.469c1.163 0 2.094-.959 2.094-2.125v-12.813h-17.656z"
  transform="translate(2)" />
</svg>