<svg xmlns="http://www.w3.org/2000/svg" version="1.1" data-icon="platform-apple" width="32" height="32" data-container-transform="scale(1 1 ) translate(2 )" viewBox="0 0 32 32">
  <path d="M19 0c-.217.03-.389.075-.5.094-1.535.237-2.871 1.008-4.031 2.375-1.164 1.365-1.754 2.852-1.75 4.406 0 .179.045.464.094.875 1.665-.002 3.124-.678 4.375-2.063 1.251-1.384 1.879-3.017 1.875-4.844-.002-.2-.032-.475-.063-.844zm-10.781 7.344c-2.481.008-4.468.909-5.969 2.688-1.501 1.781-2.259 4.125-2.25 7.031.01 4.086 1.232 7.857 3.656 11.313 1.682 2.42 3.208 3.629 4.594 3.625.59-.004 1.174-.13 1.75-.375l.75-.313.563-.219c.817-.309 1.561-.465 2.25-.469.725 0 1.582.193 2.531.594l.469.156c.966.386 1.72.594 2.281.594 1.185-.004 2.506-.863 3.938-2.594 1.433-1.725 2.497-3.77 3.25-6.094-2.826-1.535-4.241-3.742-4.25-6.625-.007-2.411 1.129-4.47 3.406-6.188-1.591-2.098-3.675-3.136-6.281-3.125-1.096.004-2.094.179-3 .531l-.563.219-.781.313c-.496.205-.935.313-1.344.313-.318 0-.732-.114-1.25-.344l-.594-.25-.563-.25c-.811-.356-1.664-.533-2.594-.531z"
  transform="translate(2)" />
</svg>