<svg xmlns="http://www.w3.org/2000/svg" version="1.1" data-icon="platform-linux" width="32" height="32" data-container-transform="scale(1 1 ) translate(2 )" viewBox="0 0 32 32">
  <path d="M13.875 0c-1.864-.003-3.688.663-4.469 2.469-.599 1.383-.562 2.965-.469 4.438.128 2.011-.054 4.065-1.406 5.688-1.793 2.154-3.58 4.78-3.938 7.625-.046.367-.08.724-.063 1.094.009.182.035.383.063.563-.135.12-.263.234-.375.375-.226.285-.406.61-.656.875-.246.245-.587.358-.906.469-.539.187-1.035.441-1.313.969-.386.755-.013 1.585 0 2.375.011.675-.437 1.27-.344 1.969.089.669.637 1.037 1.25 1.188.728.179 1.481.192 2.219.313.394.064.813.142 1.188.281.207.077.351.161.469.219 1.428.746 3.704 1.3 4.875-.25.058-.076.112-.165.156-.25.101-.192.204-.135.406-.156.342-.036.693-.092 1.031-.156.83-.158 1.656-.285 2.5-.188.863.099 1.721.268 2.594.219.167.695.706 1.32 1.344 1.625 1.573.751 3.339-.304 4.344-1.5.073-.094.078-.108.219-.25.222-.223.455-.422.719-.594.554-.362 1.161-.607 1.75-.906.494-.251 1.116-.566 1.313-1.125.194-.552-.122-1.127-.438-1.563-.367-.508-.685-.808-.844-1.438-.156-.621-.24-1.334-.75-1.781-.114-.1-.238-.184-.375-.25-.218-.105-.056-.23 0-.438.102-.385.159-.791.188-1.188.061-.831-.035-1.666-.25-2.469-.389-1.448-1.138-2.783-2-4-.744-1.051-1.642-1.982-2.344-3.063-.691-1.063-.956-2.147-.938-3.406.011-.81.03-1.63-.031-2.438-.095-1.26-.331-2.596-1.063-3.656-.833-1.208-2.23-1.685-3.656-1.688zm.688 4.438c1.021 0 1.577 1.108 1.594 2 0 .417-.058.814-.25 1.188-.088.172-.146.362-.344.281-.214-.054-.491-.182-.688-.25.393-.472.46-1.78-.281-2-.731-.217-.928.949-.844 1.438-.144-.072-.316-.136-.469-.188-.276-.094-.274-.097-.281-.406-.008-.363.04-.698.188-1.031.244-.554.736-1.034 1.375-1.031zm-3.906.313c.604.001.956.648 1.094 1.156.066.241.096.469.094.719-.002.299-.404.426-.656.563.052-.37-.304-1.783-.844-1.125-.338.412-.259 1.311.188 1.625-.098.076-.213.176-.313.25-.179.132-.29-.188-.375-.344-.203-.378-.284-.793-.281-1.219.005-.629.303-1.633 1.094-1.625zm1.781 2.344c.706-.003 1.201.412 1.813.688.513.23 1.277.29 1.625.781.484.684-.424 1.415-.969 1.656-.299.132-.563.227-.844.406-.339.216-.7.431-1.094.531-.781.199-1.343-.084-1.906-.594-.444-.402-1.156-.658-1.344-1.281-.205-.677.655-.983 1.063-1.344.505-.428.944-.842 1.656-.844zm2.781 1.75c-.298.008-.851.492-1.188.688-.486.281-1.026.547-1.594.594-.508.043-1.012-.123-1.406-.438-.313-.251-.828-.791-.938-.688-.153.144.364.536.594.719.505.4 1.095.675 1.75.625.672-.051 1.307-.381 1.875-.719.277-.165.544-.347.844-.469.163-.066.382-.151.188-.281-.03-.02-.082-.032-.125-.031zm.938.844c.568 2.24 1.526 4.35 2.563 6.406.573 1.137.867 1.901 1.094 3.156 3.619.269 3.761 2.881 3.094 2.938.214-.677-.419-1.126-.938-1.406-.63-.34-1.631-.823-2.344-.438-.303.164-.45.485-.5.813-.054.296-.686.512-.906.813-.564.771-.627 1.863-.688 2.781-.027.405-.016.788-.094 1.188-.076.391-.171 1.275-.5 1.5-.787.539-1.661.918-2.594 1.125-.943.21-1.945.209-2.875-.063-.495-.145-.971-.348-1.406-.625-.419-.267-.748-.919-1.063-1.313 1.034.001 1.308-.861.875-1.688-.449-.855-1.252-1.518-2.031-2.063-.829-.579-1.051-.86-1.219-1.719-.754-3.849 3.138-6.988 3.344-10.875.987.716 1.821 1.639 3.156 1.25.606-.177 1.079-.563 1.656-.844.506-.272 1-.405 1.375-.938zm3.188 12.594c.032.519.213 1.095.625 1.438.454.379 1.063.257 1.563.031.427-.193.84-.74 1.281-.75.488-.012.97.105 1.219.563.268.492.269 1.077.469 1.594.187.482.627.832.875 1.281.548.991-.531 1.39-1.281 1.75-.472.227-.953.469-1.375.781-.522.385-.902.939-1.406 1.344-.785.631-1.957 1.094-2.906.531-1.074-.637-.968-1.855-.688-2.906.176-.662.426-1.29.531-1.969.091-.592.05-1.218.125-1.813.087-.695.273-1.536.969-1.875zm-14.625.031c1.237.005 1.902 1.668 2.344 2.594.561 1.174 1.566 2.023 2.188 3.156.468.856.344 2.006-.625 2.469-1.136.542-2.424.03-3.469-.469-1.096-.523-2.291-.428-3.438-.719-1.194-.303-.695-1.227-.531-2.094.2-1.057-.68-2.375.688-2.906.431-.167.877-.291 1.219-.625.398-.42.674-1.058 1.219-1.313.124-.058.269-.095.406-.094z"
  transform="translate(2)" />
</svg>