<svg xmlns="http://www.w3.org/2000/svg" version="1.1" data-icon="platform-linux" width="16" height="16" data-container-transform="scale(1 1 ) translate(1 )" viewBox="0 0 16 16">
  <path d="M6.938 0c-.932-.002-1.859.347-2.25 1.25-.299.692-.266 1.451-.219 2.188.064 1.005-.043 2.032-.719 2.844-.897 1.077-1.79 2.39-1.969 3.813-.023.183-.009.377 0 .563.004.091-.014.191 0 .281-.067.06-.1.117-.156.188-.113.142-.218.306-.344.438-.123.123-.309.164-.469.219-.27.093-.518.236-.656.5-.193.378-.006.791 0 1.188.006.338-.202.62-.156.969.044.335.319.518.625.594.364.09.756.096 1.125.156.197.032.374.087.563.156.104.038.191.065.25.094.714.373 1.853.65 2.438-.125.029-.038.04-.052.063-.094.051-.096.118-.083.219-.094.171-.018.331-.062.5-.094.415-.079.858-.142 1.281-.094.431.049.844.149 1.281.125.084.347.367.661.688.813.787.376 1.654-.152 2.156-.75.036-.047.023-.054.094-.125.111-.112.243-.195.375-.281.277-.181.581-.319.875-.469.247-.126.558-.284.656-.563.097-.276-.061-.563-.219-.781-.184-.254-.327-.404-.406-.719-.078-.31-.12-.652-.375-.875-.057-.05-.118-.092-.188-.125-.109-.052-.059-.146-.031-.25.051-.192.11-.364.125-.563.031-.415-.017-.848-.125-1.25-.194-.724-.57-1.391-1-2-.372-.525-.836-.99-1.188-1.531-.345-.532-.478-1.089-.469-1.719.006-.405-.001-.784-.031-1.188-.047-.63-.166-1.313-.531-1.844-.416-.604-1.099-.843-1.813-.844zm.344 2.219c.51 0 .805.554.813 1 0 .208-.06.407-.156.594-.044.086-.057.165-.156.125-.107-.027-.245-.091-.344-.125.196-.236.245-.86-.125-.969-.365-.108-.479.443-.438.688-.072-.036-.143-.068-.219-.094-.138-.047-.153-.034-.156-.188-.004-.181.021-.365.094-.531.122-.277.369-.502.688-.5zm-1.969.156c.302.001.492.308.563.563.033.12.064.251.063.375-.001.15-.219.213-.344.281.026-.185-.168-.89-.438-.563-.169.206-.13.655.094.813-.049.038-.075.089-.125.125-.09.066-.177-.078-.219-.156-.102-.189-.126-.412-.125-.625.002-.314.136-.817.531-.813zm.906 1.188c.353-.001.6.175.906.313.256.115.638.16.813.406.242.342-.197.691-.469.813-.15.066-.298.13-.438.219-.169.108-.334.2-.531.25-.39.099-.687-.026-.969-.281-.222-.201-.593-.314-.688-.625-.102-.338.359-.506.563-.688.253-.214.457-.405.813-.406zm1.313.875c-.156.055-.355.229-.5.313-.243.14-.529.288-.813.313-.254.021-.49-.061-.688-.219-.157-.125-.446-.395-.5-.344-.076.072.197.284.313.375.253.2.548.306.875.281.336-.025.654-.176.938-.344.139-.082.256-.189.406-.25.081-.033.222-.06.125-.125-.03-.02-.104-.018-.156 0zm.563.406c.284 1.12.763 2.19 1.281 3.219.286.568.418.935.531 1.563 1.809.135 1.896 1.441 1.563 1.469.107-.338-.21-.579-.469-.719-.315-.17-.832-.412-1.188-.219-.151.082-.225.242-.25.406-.027.148-.328.287-.438.438-.282.386-.314.916-.344 1.375-.013.203-.024.394-.063.594-.038.195-.086.637-.25.75-.394.27-.846.459-1.313.563-.472.105-.973.105-1.438-.031-.248-.072-.471-.174-.688-.313-.21-.134-.374-.459-.531-.656.517 0 .654-.431.438-.844-.225-.428-.611-.759-1-1.031-.414-.29-.541-.445-.625-.875-.377-1.925 1.553-3.494 1.656-5.438.493.358.926.851 1.594.656.303-.088.524-.298.813-.438.253-.136.532-.203.719-.469zm1.563 6.281c.016.259.107.547.313.719.227.19.532.144.781.031.214-.097.436-.369.656-.375.244-.006.5.052.625.281.134.246.119.553.219.813.093.241.313.401.438.625.274.496-.281.695-.656.875-.236.113-.476.25-.688.406-.261.193-.435.454-.688.656-.393.316-.994.531-1.469.25-.537-.319-.484-.912-.344-1.438.088-.331.229-.661.281-1 .046-.296.024-.578.063-.875.044-.347.121-.799.469-.969zm-7.313.031c.619.002.966.818 1.188 1.281.281.587.784 1.027 1.094 1.594.234.428.173.988-.313 1.219-.568.271-1.197.03-1.719-.219-.548-.262-1.146-.199-1.719-.344-.597-.152-.363-.629-.281-1.063.1-.529-.34-1.203.344-1.469.215-.084.454-.114.625-.281.199-.21.321-.559.594-.688.062-.029.119-.032.188-.031z"
  transform="translate(1)" />
</svg>