<svg xmlns="http://www.w3.org/2000/svg" version="1.1" width="16" height="16" data-icon="pointer" data-container-transform="translate(1)" viewBox="0 0 16 16">
  <path d="M5 0c-.552 0-1 .448-1 1v8c0 .453-.604.669-1 .344-.388-.319-1.281-1.063-1.281-1.063-.39-.391-1.046-.391-1.438 0-.391.39-.391 1.046 0 1.438l5.375 4.969c.886.8 2.056 1.313 3.344 1.313 2.761 0 5-2.239 5-5v-2.25c0-1.007-.751-1.842-1.75-1.969l-5.375-.688c-.507-.056-.875-.49-.875-1v-4.094c0-.552-.448-1-1-1z"
  transform="translate(1)" />
</svg>