<svg xmlns="http://www.w3.org/2000/svg" version="1.1" width="32" height="32" data-icon="pointer" data-container-transform="translate(3)" viewBox="0 0 32 32">
  <path d="M9.5 0c-.828 0-1.5.672-1.5 1.5v15.5c0 .906-1.209 1.369-2 .719l-2.594-2.125c-.781-.781-2.032-.781-2.813 0-.781.781-.781 2.032 0 2.813l10.25 10.156c1.609 1.506 3.778 2.438 6.156 2.438 4.971 0 9-4.029 9-9v-5.531c0-1.43-1.003-2.656-2.406-2.938l-11.781-2.375c-.467-.093-.813-.493-.813-.969v-8.688c0-.828-.672-1.5-1.5-1.5z"
  transform="translate(3)" />
</svg>