<svg xmlns="http://www.w3.org/2000/svg" version="1.1" width="128" height="128" data-icon="power-standby" data-container-transform="translate(8 1)" viewBox="0 0 128 128">
  <path d="M52 0v40h8v-40h-8zm-12.656 16.531c-2.426.755-4.792 1.67-7.094 2.75-18.981 8.903-31.619 28.091-32.219 49.063-.601 20.978 10.834 40.884 29.281 50.906 18.785 10.204 42.276 8.635 59.563-3.938 17.087-12.425 25.836-33.781 22.344-54.625-3.459-20.64-18.586-37.943-38.563-44.156l-2.375 7.625c17.028 5.296 30.115 20.258 33.063 37.844 2.983 17.806-4.559 36.229-19.156 46.844-14.731 10.714-35.053 12.071-51.063 3.375-15.753-8.558-25.607-25.709-25.094-43.625.512-17.883 11.428-34.465 27.625-42.063 1.97-.924 3.985-1.728 6.063-2.375l-2.375-7.625z"
  transform="translate(8 1)" />
</svg>