<svg xmlns="http://www.w3.org/2000/svg" version="1.1" width="128" height="128" data-icon="puzzle-piece" viewBox="0 0 128 128">
  <path d="M46 0c-6.627 0-12 5.373-12 12 0 2.733 1.205 5.05 2.469 7.25.055.095 4.469 7.063 4.469 7.063.592.927 1.063 2.587 1.063 3.688 0 3.314-2.686 6-6 6h-35c-.55 0-1 .45-1 1v90c0 .55.45 1 1 1h35c3.314 0 6-2.686 6-6 0-1.1-.471-2.76-1.063-3.688 0 0-4.415-6.966-4.469-7.063-1.264-2.2-2.469-4.517-2.469-7.25 0-6.627 5.373-12 12-12s12 5.373 12 12c0 2.73-1.193 5.06-2.469 7.25-.052.09-4.469 7.063-4.469 7.063-.591.928-1.063 2.588-1.063 3.688 0 3.314 2.686 6 6 6h35c.55 0 1-.45 1-1v-35c0-3.314 2.686-6 6-6 1.1 0 2.76.472 3.688 1.063 0 0 6.974 4.417 7.063 4.469 2.19 1.276 4.52 2.469 7.25 2.469 6.627 0 12-5.373 12-12s-5.373-12-12-12c-2.733 0-5.05 1.205-7.25 2.469-.095.055-7.063 4.469-7.063 4.469-.927.592-2.588 1.063-3.688 1.063-3.314 0-6-2.686-6-6v-35c0-.55-.45-1-1-1h-35c-3.314 0-6-2.686-6-6 0-1.1.471-2.761 1.063-3.688 0 0 4.417-6.973 4.469-7.063 1.276-2.19 2.469-4.52 2.469-7.25 0-6.627-5.373-12-12-12z"
  />
</svg>