<svg xmlns="http://www.w3.org/2000/svg" version="1.1" width="16" height="16" data-icon="puzzle-piece" viewBox="0 0 16 16">
  <path d="M5 0c-1.105 0-2 .895-2 2 0 .529.235.984.531 1.375.01.013.188.219.188.219.163.222.281.631.281.906v.5c0 .552-.448 1-1 1h-3v10h3c.552 0 1-.448 1-1v-.5c0-.275-.119-.685-.281-.906 0 0-.178-.206-.188-.219-.296-.391-.531-.846-.531-1.375 0-1.105.895-2 2-2s2 .895 2 2c0 .529-.235.984-.531 1.375-.009.013-.188.219-.188.219-.162.222-.281.631-.281.906v.5c0 .552.448 1 1 1h3v-3c0-.552.448-1 1-1h.5c.275 0 .685.119.906.281 0 0 .207.146.219.156.39.297.845.563 1.375.563 1.105 0 2-.895 2-2s-.895-2-2-2c-.529 0-.984.235-1.375.531-.013.01-.219.156-.219.156-.222.162-.631.313-.906.313h-.5c-.552 0-1-.448-1-1v-3h-3c-.552 0-1-.448-1-1v-.5c0-.275.119-.685.281-.906 0 0 .178-.206.188-.219.296-.391.531-.846.531-1.375 0-1.105-.895-2-2-2z"
  />
</svg>