<svg xmlns="http://www.w3.org/2000/svg" version="1.1" width="32" height="32" data-icon="question-mark" data-container-transform="translate(6)" viewBox="0 0 32 32">
  <path d="M10 0c-4.5 0-7.424 1.93-8.75 4.25-1.326 2.32-1.25 4.75-1.25 5.75h4c0-1 .076-2.57.75-3.75.674-1.18 1.75-2.25 5.25-2.25 2.66 0 4.111.654 4.906 1.375.796.721 1.094 1.61 1.094 2.625 0 3.333-1.351 4.352-3.375 6.281-2.024 1.929-4.625 4.734-4.625 9.719v1h4v-1c0-3.765 1.399-4.96 3.375-6.844 1.976-1.884 4.625-4.49 4.625-9.156 0-1.922-.702-4.049-2.406-5.594-1.704-1.545-4.253-2.406-7.594-2.406zm-2 28v4h4v-4h-4z"
  transform="translate(6)" />
</svg>