<svg xmlns="http://www.w3.org/2000/svg" version="1.1" width="16" height="16" data-icon="question-mark" data-container-transform="translate(3)" viewBox="0 0 16 16">
  <path d="M5 0c-2.25 0-3.712.965-4.375 2.125-.663 1.16-.625 2.375-.625 2.875h2c0-.5.038-1.285.375-1.875.337-.59.875-1.125 2.625-1.125 1.33 0 2.071.327 2.469.688.398.361.531.805.531 1.313 0 1.667-.656 2.125-1.656 3-1 .875-2.344 2.167-2.344 4.5v.5h2v-.5c0-1.667.656-2.125 1.656-3 1-.875 2.344-2.167 2.344-4.5 0-.961-.367-2.009-1.219-2.781-.852-.772-2.111-1.219-3.781-1.219zm-1 14v2h2v-2h-2z"
  transform="translate(3)" />
</svg>