<svg xmlns="http://www.w3.org/2000/svg" version="1.1" width="32" height="32" data-icon="radiation" data-container-transform="translate(0 1)" viewBox="0 0 32 32">
  <path d="M8 .156c-4.782 2.767-8 7.922-8 13.844h9.5c0-2.405 1.307-4.501 3.25-5.625l-4.75-8.219zm16 0l-4.75 8.219c1.941 1.124 3.25 3.22 3.25 5.625h9.5c0-5.92-3.221-11.077-8-13.844zm-8 10.844c-1.657 0-3 1.343-3 3s1.343 3 3 3 3-1.343 3-3-1.343-3-3-3zm-3.25 8.625l-4.75 8.219c2.355 1.364 5.083 2.156 8 2.156 2.915 0 5.647-.794 8-2.156l-4.75-8.219c-.956.553-2.066.875-3.25.875-1.185 0-2.293-.321-3.25-.875z"
  transform="translate(0 1)" />
</svg>