<svg xmlns="http://www.w3.org/2000/svg" version="1.1" width="32" height="32" data-icon="random" data-container-transform="translate(0 3)" viewBox="0 0 32 32">
  <path d="M26.125.219c-.072.036-.125.143-.125.281v2.5h-2.5c-1.126 0-1.985.36-2.781 1.156l-.063.063-4.719 4.719 2.125 2.125 4.781-4.781c-.016.016.679-.281.656-.281h2.5v2.5c0 .276.185.354.406.188l5.188-3.875c.221-.166.221-.459 0-.625l-5.188-3.875c-.11-.083-.209-.13-.281-.094zm-26.125 2.781v3h5.5c-.02 0 .67.295.656.281l14.563 14.563c.796.796 1.655 1.156 2.781 1.156h2.5v2.5c0 .276.185.354.406.188l5.188-3.875c.221-.166.221-.459 0-.625l-5.188-3.875c-.221-.166-.406-.088-.406.188v2.5h-2.5c.022 0-.672-.297-.656-.281l-14.563-14.563c-.796-.796-1.657-1.156-2.781-1.156h-5.5zm10.938 10.938l-4.781 4.781c.013-.013-.679.281-.656.281h-5.5v3h5.5c1.126 0 1.986-.363 2.781-1.156l4.781-4.781-2.125-2.125z"
  transform="translate(0 3)" />
</svg>