<svg xmlns="http://www.w3.org/2000/svg" version="1.1" data-icon="resize-width" width="128" height="128" data-container-transform="translate(0 50 ) scale(1 1 )" viewBox="0 0 128 128">
  <path d="M104.594.625c-.347.061-.594.375-.594.875v8.5h-80v-8.406c0-.8-.613-1.188-1.313-.688l-21.375 12.281c-.7.5-.7 1.125 0 1.625l21.375 12.5c.7.4 1.313.081 1.313-.719v-8.594h80v8.5c0 .8.612 1.188 1.313.688l21.375-12.5c.7-.4.7-1 0-1.5l-21.375-12.375c-.263-.15-.511-.224-.719-.188z"
  transform="translate(0 50)" />
</svg>