<svg xmlns="http://www.w3.org/2000/svg" version="1.1" width="128" height="128" data-icon="rocket" data-container-transform="translate(26)" viewBox="0 0 128 128">
  <path d="M38 0s-22 20-22 60c0 29.238 8.556 46.709 13.156 54h17.688c4.6-7.291 13.156-24.762 13.156-54 0-40-22-60-22-60zm0 38c3.314 0 6 2.686 6 6s-2.686 6-6 6-6-2.686-6-6 2.686-6 6-6zm0 18c1.105 0 2 .895 2 2s-.895 2-2 2-2-.895-2-2 .895-2 2-2zm-21.438 30.563l-16.563 41.438h8l17.031-17.031c-2.858-5.381-6.212-13.454-8.469-24.406zm42.875 0c-2.257 10.951-5.611 19.025-8.469 24.406l17.031 17.031h8l-16.563-41.438zm-29.438 29.438l-2 4v2h20v-2l-2-4h-16z"
  transform="translate(26)" />
</svg>