<svg xmlns="http://www.w3.org/2000/svg" version="1.1" width="128" height="128" data-icon="route" data-container-transform="translate(14)" viewBox="0 0 128 128">
  <path d="M70 0c-13.208 0-24 10.792-24 24v80c0 8.884-7.116 16-16 16s-16-7.116-16-16v-38.594c-1.27.38-2.608.594-4 .594-1.39 0-2.732-.214-4-.594v38.594c0 13.208 10.792 24 24 24s24-10.792 24-24v-80c0-8.884 7.116-16 16-16s16 7.116 16 16v38.594c1.27-.38 2.608-.594 4-.594 1.39 0 2.732.214 4 .594v-38.594c0-13.208-10.792-24-24-24zm-60 42c-5.523 0-10 4.477-10 10s4.477 10 10 10 10-4.477 10-10-4.477-10-10-10zm80 24c-5.523 0-10 4.477-10 10s4.477 10 10 10 10-4.477 10-10-4.477-10-10-10z"
  transform="translate(14)" />
</svg>