<svg xmlns="http://www.w3.org/2000/svg" version="1.1" width="128" height="128" data-icon="screenshot" viewBox="0 0 128 128">
  <path d="M62 0v18.063c-23.777 1.019-42.919 20.16-43.938 43.938h-18.063v4h18.063c1.019 23.777 20.16 42.919 43.938 43.938v18.063h4v-18.063c23.777-1.019 42.919-20.16 43.938-43.938h18.063v-4h-18.063c-1.019-23.777-20.16-42.919-43.938-43.938v-18.063h-4zm0 26.063v7.938h4v-7.938c19.444.997 34.941 16.493 35.938 35.938h-7.938v4h7.938c-.997 19.444-16.493 34.941-35.938 35.938v-7.938h-4v7.938c-19.444-.997-34.941-16.493-35.938-35.938h7.938v-4h-7.938c.997-19.444 16.493-34.941 35.938-35.938zm2 31.938c-3.314 0-6 2.686-6 6s2.686 6 6 6 6-2.686 6-6-2.686-6-6-6z"
  />
</svg>