<svg xmlns="http://www.w3.org/2000/svg" version="1.1" width="32" height="32" data-icon="screenshot" viewBox="0 0 32 32">
  <path d="M15 0v4.063c-5.809.487-10.451 5.128-10.938 10.938h-4.063v2h4.063c.487 5.809 5.128 10.451 10.938 10.938v4.063h2v-4.063c5.809-.487 10.451-5.128 10.938-10.938h4.063v-2h-4.063c-.487-5.809-5.128-10.451-10.938-10.938v-4.063h-2zm0 7.031v1.969h2v-1.969c4.197.453 7.516 3.772 7.969 7.969h-1.969v2h1.969c-.453 4.197-3.772 7.516-7.969 7.969v-1.969h-2v1.969c-4.197-.453-7.516-3.772-7.969-7.969h1.969v-2h-1.969c.453-4.197 3.772-7.516 7.969-7.969zm1 6.969c-1.105 0-2 .895-2 2s.895 2 2 2 2-.895 2-2-.895-2-2-2z"
  />
</svg>