<svg xmlns="http://www.w3.org/2000/svg" version="1.1" width="16" height="16" data-icon="screenshot" viewBox="0 0 16 16">
  <path d="M7 0v2.094c-2.513.421-4.485 2.394-4.906 4.906h-2.094v2h2.094c.421 2.513 2.394 4.485 4.906 4.906v2.094h2v-2.094c2.513-.421 4.485-2.394 4.906-4.906h2.094v-2h-2.094c-.421-2.513-2.394-4.485-4.906-4.906v-2.094h-2zm0 4.156v.844h2v-.844c1.408.36 2.484 1.436 2.844 2.844h-.844v2h.844c-.36 1.408-1.436 2.484-2.844 2.844v-.844h-2v.844c-1.408-.36-2.484-1.436-2.844-2.844h.844v-2h-.844c.36-1.408 1.436-2.484 2.844-2.844zm1 2.844c-.552 0-1 .448-1 1s.448 1 1 1 1-.448 1-1-.448-1-1-1z"
  />
</svg>