<svg xmlns="http://www.w3.org/2000/svg" version="1.1" width="128" height="128" data-icon="screwdriver" viewBox="0 0 128 128">
  <path d="M123.969 0l-14.094 8.063-2.031 8.063-54.844 54.875-5-5-2 2v2l-2 2h-4l-35.969 36.031c-2.455 2.079-4.031 5.157-4.031 8.625 0 6.26 5.084 11.344 11.344 11.344 3.469 0 6.546-1.576 8.625-4.031l36.031-35.969v-4l2-2h2l2-2-5-5 54.875-54.844 8.063-2.031 8.063-14.094-4.031-4.031zm-82.969 76c.256 0 .523.086.719.281.391.391.391 1.046 0 1.438l-34 34c-.391.391-1.046.391-1.438 0-.195-.195-.281-.463-.281-.719 0-.256.086-.524.281-.719l34-34c.196-.195.463-.281.719-.281zm4 6c.256 0 .523.086.719.281.391.391.391 1.046 0 1.438l-34 34c-.391.391-1.046.391-1.438 0-.195-.195-.281-.463-.281-.719 0-.256.086-.524.281-.719l34-34c.196-.195.463-.281.719-.281zm6 4c.256 0 .523.086.719.281.391.391.391 1.046 0 1.438l-34 34c-.391.391-1.047.391-1.438 0-.195-.195-.281-.463-.281-.719 0-.256.086-.524.281-.719l34-34c.196-.195.463-.281.719-.281z"
  />
</svg>