<svg xmlns="http://www.w3.org/2000/svg" version="1.1" width="32" height="32" data-icon="server" data-container-transform="translate(4)" viewBox="0 0 32 32">
  <path d="M.5 0c-.276 0-.5.224-.5.5v31.5h23v-31.5c0-.276-.224-.5-.5-.5h-22zm.5 1h21v25h-21v-25zm1.5 1c-.276 0-.5.224-.5.5v6c0 .276.224.5.5.5h18c.276 0 .5-.224.5-.5v-6c0-.276-.224-.5-.5-.5h-18zm2 1c.276 0 .5.224.5.5v3.969c0 .276-.224.5-.5.5s-.5-.224-.5-.5v-3.969c0-.276.224-.5.5-.5zm2 0c.276 0 .5.224.5.5v3.969c0 .276-.224.5-.5.5s-.5-.224-.5-.5v-3.969c0-.276.224-.5.5-.5zm2 0c.276 0 .5.224.5.5v3.969c0 .276-.224.5-.5.5s-.5-.224-.5-.5v-3.969c0-.276.224-.5.5-.5zm2 0c.276 0 .5.224.5.5v3.969c0 .276-.224.5-.5.5s-.5-.224-.5-.5v-3.969c0-.276.224-.5.5-.5zm2 0c.276 0 .5.224.5.5v3.969c0 .276-.224.5-.5.5s-.5-.224-.5-.5v-3.969c0-.276.224-.5.5-.5zm5.5 1c.552 0 1 .448 1 1s-.448 1-1 1-1-.448-1-1 .448-1 1-1zm-15.5 6c-.276 0-.5.224-.5.5v6c0 .276.224.5.5.5h18c.276 0 .5-.224.5-.5v-6c0-.276-.224-.5-.5-.5h-18zm2 1c.276 0 .5.224.5.5v3.969c0 .276-.224.5-.5.5s-.5-.224-.5-.5v-3.969c0-.276.224-.5.5-.5zm2 0c.276 0 .5.224.5.5v3.969c0 .276-.224.5-.5.5s-.5-.224-.5-.5v-3.969c0-.276.224-.5.5-.5zm2 0c.276 0 .5.224.5.5v3.969c0 .276-.224.5-.5.5s-.5-.224-.5-.5v-3.969c0-.276.224-.5.5-.5zm2 0c.276 0 .5.224.5.5v3.969c0 .276-.224.5-.5.5s-.5-.224-.5-.5v-3.969c0-.276.224-.5.5-.5zm2 0c.276 0 .5.224.5.5v3.969c0 .276-.224.5-.5.5s-.5-.224-.5-.5v-3.969c0-.276.224-.5.5-.5zm5.5 1c.552 0 1 .448 1 1s-.448 1-1 1-1-.448-1-1 .448-1 1-1zm-15.5 6c-.276 0-.5.224-.5.5v6c0 .276.224.5.5.5h18c.276 0 .5-.224.5-.5v-6c0-.276-.224-.5-.5-.5h-18zm2 1c.276 0 .5.224.5.5v3.969c0 .276-.224.5-.5.5s-.5-.224-.5-.5v-3.969c0-.276.224-.5.5-.5zm2 0c.276 0 .5.224.5.5v3.969c0 .276-.224.5-.5.5s-.5-.224-.5-.5v-3.969c0-.276.224-.5.5-.5zm2 0c.276 0 .5.224.5.5v3.969c0 .276-.224.5-.5.5s-.5-.224-.5-.5v-3.969c0-.276.224-.5.5-.5zm2 0c.276 0 .5.224.5.5v3.969c0 .276-.224.5-.5.5s-.5-.224-.5-.5v-3.969c0-.276.224-.5.5-.5zm2 0c.276 0 .5.224.5.5v3.969c0 .276-.224.5-.5.5s-.5-.224-.5-.5v-3.969c0-.276.224-.5.5-.5zm5.5 1c.552 0 1 .448 1 1s-.448 1-1 1-1-.448-1-1 .448-1 1-1z"
  transform="translate(4)" />
</svg>