<svg xmlns="http://www.w3.org/2000/svg" version="1.1" width="128" height="128" data-icon="settings" data-container-transform="translate(9)" viewBox="0 0 128 128">
  <path d="M13.344 0a4 4 0 0 0-3.344 4v18.5c1.28-.331 2.618-.5 4-.5 1.385 0 2.717.199 4 .531v-18.531a4 4 0 0 0-3.25-4h-1.406zm40 0a4 4 0 0 0-3.344 4v74.531c1.283-.332 2.615-.531 4-.531 1.385 0 2.717.199 4 .531v-74.531a4 4 0 0 0-3.25-4h-1.406zm40 0a4 4 0 0 0-3.344 4v22.281c1.283-.327 2.616-.531 4-.531 1.383 0 2.718.204 4 .531v-22.281a4 4 0 0 0-3.25-4h-1.406zm-79.344 24c-7.72 0-14 6.28-14 14s6.28 14 14 14 14-6.28 14-14-6.28-14-14-14zm80 4c-7.72 0-14 6.28-14 14s6.28 14 14 14 14-6.28 14-14-6.28-14-14-14zm-76 25.469c-1.283.332-2.615.531-4 .531-1.382 0-2.72-.169-4-.5v70.5a4 4 0 0 0 3.25 4h1.406a4 4 0 0 0 3.344-4v-70.531zm72 4.25v66.281a4 4 0 0 0 3.25 4h1.406a4 4 0 0 0 3.344-4v-66.281c-1.282.327-2.617.531-4 .531-1.384 0-2.717-.204-4-.531zm-36 22.281c-7.72 0-14 6.28-14 14s6.28 14 14 14 14-6.28 14-14-6.28-14-14-14zm-4 29.469v14.531a4 4 0 0 0 3.25 4h1.406a4 4 0 0 0 3.344-4v-14.531c-1.283.332-2.615.531-4 .531-1.385 0-2.717-.199-4-.531z"
  transform="translate(9)" />
</svg>