<svg xmlns="http://www.w3.org/2000/svg" version="1.1" width="128" height="128" data-icon="shield" viewBox="0 0 128 128">
  <path d="M64 0l-1.094.313-60 17.125-2.906.813v3.031c0 39.328 10.957 66.021 24.438 82.875 13.48 16.854 28.991 24 39.563 24 10.571 0 26.082-7.15 39.563-24 13.48-16.85 24.438-43.532 24.438-82.844v-3.031l-2.906-.813-60-17.156-1.094-.313zm0 8.313l55.906 15.969c-.55 36.101-10.694 60.001-22.594 74.875-12.234 15.293-26.741 21-33.313 21-6.572 0-21.078-5.704-33.313-21-11.896-14.874-22.038-38.776-22.594-74.875l55.906-15.969zm0 4.156v103.688c5.044 0 17.849-4.078 30.188-19.5 9.327-11.66 20.588-33.108 21.719-69.344l-51.906-14.844z"
  />
</svg>