<svg xmlns="http://www.w3.org/2000/svg" version="1.1" data-icon="social-dribbble" width="32" height="32" data-container-transform="scale(1 1 ) translate(0 )" viewBox="0 0 32 32">
  <path d="M16 0c-8.822 0-16 7.158-16 15.969s7.178 16 16 16 16-7.189 16-16-7.178-15.969-16-15.969zm0 2.344c3.472 0 6.649 1.3 9.063 3.438-.246.35-2.296 3.118-7.156 4.938-2.239-4.109-4.716-7.495-5.094-8 1.028-.247 2.085-.375 3.188-.375zm-5.813 1.313c.36.493 2.799 3.855 5.063 7.875-6.392 1.696-12.014 1.695-12.625 1.688.887-4.235 3.739-7.761 7.563-9.563zm16.375 3.719c1.903 2.323 3.064 5.279 3.094 8.5-.45-.095-4.953-1.008-9.5-.438-.095-.233-.212-.483-.313-.719-.284-.666-.588-1.319-.906-1.969 5.053-2.06 7.337-4.986 7.625-5.375zm-10.188 6.281c.391.764.782 1.537 1.125 2.313-.18.05-.353.098-.531.156-7.049 2.275-10.815 8.471-11.125 9-2.182-2.42-3.5-5.62-3.5-9.125 0-.14-.004-.267 0-.406.598.013 7.206.102 14.031-1.938zm7.688 3.719c2.887.033 5.087.671 5.438.781-.609 3.798-2.809 7.086-5.875 9.156-.14-.83-.868-4.814-2.656-9.719 1.071-.171 2.131-.23 3.094-.219zm-5.625.844c1.919 4.979 2.703 9.147 2.906 10.344-1.64.698-3.451 1.094-5.344 1.094-3.16 0-6.058-1.071-8.375-2.875.245-.502 3.011-5.848 10.719-8.531l.094-.031z"
  />
</svg>