<svg xmlns="http://www.w3.org/2000/svg" version="1.1" data-icon="social-twitter" width="128" height="128" data-container-transform="translate(0 12 ) scale(1 1 )" viewBox="0 0 128 128">
  <path d="M88.625 0c-14.504 0-26.281 11.751-26.281 26.25 0 2.058.239 4.079.688 6-21.826-1.095-41.173-11.553-54.125-27.438-2.26 3.877-3.563 8.377-3.563 13.188 0 9.109 4.642 17.136 11.688 21.844-4.305-.137-8.334-1.315-11.875-3.281-.002.109 0 .233 0 .344 0 12.721 9.049 23.338 21.063 25.75-2.204.6-4.543.906-6.938.906-1.692 0-3.335-.162-4.938-.469 3.341 10.431 13.04 18.038 24.531 18.25-8.987 7.042-20.322 11.219-32.625 11.219-2.119 0-4.196-.102-6.25-.344 11.621 7.45 25.42 11.781 40.25 11.781 48.303 0 74.719-39.993 74.719-74.688 0-1.139-.011-2.28-.063-3.406 5.131-3.702 9.573-8.329 13.094-13.594-4.71 2.088-9.782 3.49-15.094 4.125 5.422-3.249 9.602-8.4 11.563-14.531-5.074 3.008-10.706 5.197-16.688 6.375-4.79-5.102-11.603-8.281-19.156-8.281z"
  transform="translate(0 12)" />
</svg>