<svg xmlns="http://www.w3.org/2000/svg" version="1.1" data-icon="social-facebook" width="32" height="32" data-container-transform="scale(1 1 ) translate(0 )" viewBox="0 0 32 32">
  <path d="M1.781 0c-.976 0-1.781.806-1.781 1.781v28.438c0 .975.805 1.781 1.781 1.781h15.313v-12.406h-4.156v-4.813h4.156v-3.563c0-4.133 2.531-6.375 6.219-6.375 1.766 0 3.276.13 3.719.188v4.313h-2.563c-2.005 0-2.375.946-2.375 2.344v3.094h4.781l-.625 4.813h-4.156v12.406h8.156c.975 0 1.75-.806 1.75-1.781v-28.469c0-.976-.775-1.75-1.75-1.75h-28.468999999999998z"
  />
</svg>