<svg xmlns="http://www.w3.org/2000/svg" version="1.1" data-icon="social-linkedin" width="128" height="128" data-container-transform="translate(0 ) scale(1 1 )" viewBox="0 0 128 128">
  <path d="M9.438 0c-5.215 0-9.438 4.131-9.438 9.219v109.531c0 5.097 4.223 9.25 9.438 9.25h109.094c5.22 0 9.469-4.153 9.469-9.25v-109.531c0-5.088-4.249-9.219-9.469-9.219h-109.094zm19.031 17.625c6.069 0 11 4.928 11 11 0 6.079-4.931 11-11 11-6.086 0-11-4.921-11-11 0-6.072 4.914-11 11-11zm57.844 28.844c19.211 0 22.75 12.64 22.75 29.094v33.5h-18.969v-29.688c0-7.088-.115-16.219-9.844-16.219-9.88 0-11.406 7.721-11.406 15.688v30.219h-18.969v-61.063h18.219v8.344h.25c2.535-4.801 8.733-9.875 17.969-9.875zm-67.344 1.531h19v61.063h-19v-61.063z"
  />
</svg>