<svg xmlns="http://www.w3.org/2000/svg" version="1.1" data-icon="social-reddit" width="128" height="128" data-container-transform="translate(17 ) scale(1 1 )" viewBox="0 0 128 128">
  <path d="M77.281 0c-3.556 0-6.591 2.142-7.969 5.188l-16.031-3.781c-.979-.235-1.975.319-2.281 1.281l-6.188 19.563c-10.581.191-20.157 3.026-27.313 7.594-1.851-1.614-4.261-2.594-6.906-2.594-5.85 0-10.594 4.741-10.594 10.594 0 3.758 1.98 7.025 4.938 8.906-.164.997-.25 2.005-.25 3.031 0 10.158 8.246 19.054 20.5 23.844-5.814 2.872-9.906 9.627-9.906 17.531 0 9.01 5.317 16.537 12.438 18.5.523 1.623 1.122 3.159 1.75 4.625-.193-.01-.398-.031-.594-.031-6.449 0-11.688 4.413-11.688 9.844 0 .816.14 1.645.438 2.563.259.793 1.009 1.344 1.844 1.344h53.063c.841 0 1.589-.574 1.844-1.375.288-.904.438-1.726.438-2.531 0-5.431-5.269-9.844-11.719-9.844-.235 0-.456.017-.688.031.625-1.46 1.197-2.979 1.719-4.594 7.192-1.903 12.594-9.464 12.594-18.531 0-7.928-4.125-14.706-9.969-17.563 12.21-4.798 20.438-13.676 20.438-23.813 0-.962-.074-1.906-.219-2.844 3.141-1.837 5.281-5.199 5.281-9.094 0-5.853-4.741-10.594-10.594-10.594-2.717 0-5.192 1.056-7.063 2.75-6.777-4.388-15.77-7.251-25.75-7.719l5.281-16.719 14.406 3.406c.101 4.751 3.973 8.594 8.75 8.594 4.836 0 8.781-3.943 8.781-8.781 0-4.838-3.944-8.781-8.781-8.781zm0 3.844c2.709 0 4.938 2.226 4.938 4.938 0 2.712-2.228 4.906-4.938 4.906-2.714 0-4.906-2.194-4.906-4.906 0-2.712 2.192-4.938 4.906-4.938zm-31.344 22.219c20.628 0 37.406 10.628 37.406 23.719 0 13.089-16.778 23.75-37.406 23.75-20.624 0-37.406-10.661-37.406-23.75 0-13.092 16.782-23.719 37.406-23.719zm-35.344 5.031c1.331 0 2.553.421 3.594 1.094-3.793 3.054-6.577 6.674-8.125 10.625-1.354-1.23-2.219-2.999-2.219-4.969 0-3.726 3.026-6.75 6.75-6.75zm71.063 0c3.726 0 6.75 3.024 6.75 6.75 0 2.106-.984 3.979-2.5 5.219-1.502-3.996-4.27-7.657-8.063-10.75 1.081-.758 2.392-1.219 3.813-1.219zm-49.375 7.688c-3.316 0-6 2.685-6 6 0 3.314 2.685 6 6 6 3.314 0 6-2.685 6-6 0-3.316-2.685-6-6-6zm27.719 0c-3.314 0-6 2.685-6 6 0 3.314 2.686 6 6 6s6-2.685 6-6c0-3.316-2.686-6-6-6zm-27.469 20.906c-.493 0-.967.186-1.344.563-.753.753-.753 1.966 0 2.719 3.128 3.13 8.009 4.656 14.906 4.656.018 0 .014 0 .031 0 .018.001.045 0 .063 0 6.894 0 11.772-1.527 14.906-4.656.753-.753.753-1.965 0-2.719-.753-.753-1.994-.752-2.75 0-2.37 2.37-6.335 3.531-12.156 3.531-.018 0-.045 0-.063 0-.018-.001-.014 0-.031 0-5.821 0-9.819-1.162-12.188-3.531-.377-.377-.882-.563-1.375-.563zm-3.438 15.281c5.148 1.547 10.845 2.406 16.844 2.406 6.002 0 11.695-.859 16.844-2.406.566 3.718.906 7.647.906 11.719 0 17.38-5.633 32.989-13.438 37.469h-8.625c-7.804-4.479-13.438-20.088-13.438-37.469 0-4.072.34-8.001.906-11.719zm38.031 3.375c3.449 2.686 5.75 7.403 5.75 12.813 0 6.26-3.093 11.62-7.469 13.938 1.354-5.616 2.125-11.86 2.125-18.406 0-2.872-.137-5.651-.406-8.344zm-42.375.094c-.262 2.658-.406 5.417-.406 8.25 0 6.511.754 12.719 2.094 18.313-4.292-2.36-7.313-7.657-7.313-13.844 0-5.336 2.257-10.012 5.625-12.719zm4.156 39.656c.943 0 1.822.169 2.656.406 1.229 2.17 2.561 4.088 4.031 5.656h-14.531v-.063c0-3.304 3.522-6 7.844-6zm34.188 0c4.324 0 7.844 2.696 7.844 6v.063h-14.656c1.461-1.558 2.809-3.441 4.031-5.594.873-.26 1.788-.469 2.781-.469z"
  transform="translate(17)" />
</svg>