<svg xmlns="http://www.w3.org/2000/svg" version="1.1" data-icon="social-youtube" width="16" height="16" data-container-transform="scale(1 1 ) translate(0 4 )" viewBox="0 0 16 16">
  <path d="M10.063 0c-.667.012-1.489.046-2.156.094-.186.022-.606.028-.969.406-.286.288-.375.938-.375.938s-.094.763-.094 1.531v.719c0 .768.094 1.531.094 1.531s.089.681.375.969c.362.378.851.366 1.063.406.763.072 3.219.094 3.219.094s2.01-.029 3.344-.125c.187-.022.606.003.969-.375.286-.288.375-.969.375-.969s.094-.763.094-1.531v-.719c0-.768-.094-1.531-.094-1.531s-.089-.649-.375-.938c-.363-.378-.783-.384-.969-.406-1.334-.096-3.344-.094-3.344-.094s-.489-.012-1.156 0zm-10.063 1.094c.136.402.813 2.563.813 2.563v1.75h.625v-1.75l.813-2.563h-.688l-.438 1.688-.469-1.688h-.656zm7.25.031h2v.594h-.688v3.688h-.656v-3.688h-.656v-.594zm4.094 0h.563v1.406c.187-.23.412-.375.625-.375.23 0 .392.136.469.375.038.128.063.323.063.625v1.281c0 .295-.024.521-.063.656-.078.237-.239.344-.469.344-.205 0-.432-.105-.625-.344v.313h-.563v-4.281zm-8.375 1.031c-.289 0-.494.091-.656.313-.124.163-.219.437-.219.781v1.125c0 .343.063.589.188.75.161.22.432.344.688.344.256 0 .526-.125.688-.344.122-.161.188-.407.188-.75v-1.156c0-.345-.096-.588-.219-.75-.162-.221-.4-.313-.656-.313zm11.375 0c.29 0 .494.126.656.344.121.161.188.409.188.75v.656h-1.125v.563c-.002.295.083.438.281.438.142 0 .217-.064.25-.219.005-.031 0-.174 0-.406h.594v.094c0 .186.005.317 0 .375-.019.128-.086.242-.156.344-.16.232-.386.344-.688.344-.303 0-.521-.095-.688-.313-.123-.159-.219-.411-.219-.75v-1.125c0-.341.065-.589.188-.75.168-.218.424-.344.719-.344zm-10.063.031v2.531c0 .221.022.372.063.469.065.159.189.25.375.25.213 0 .426-.111.656-.375v.344h.594v-3.219h-.594v2.438c-.129.181-.259.281-.375.281-.077 0-.111-.004-.125-.094v-2.625h-.594zm4.875.031h.625v2.594c.014.089.048.094.125.094.116 0 .216-.1.344-.281v-2.406h.594v3.188h-.594v-.344c-.231.264-.412.375-.625.375-.187 0-.341-.091-.406-.25-.039-.096-.063-.247-.063-.469v-2.5zm-6.188.469c.188 0 .282.15.25.469v1.281c.032.319-.061.5-.25.5-.188 0-.282-.181-.25-.5v-1.281c-.032-.319.061-.469.25-.469zm9.25 0c-.095 0-.216.061-.313.156v1.938c.096.097.217.125.313.125.167 0 .25-.119.25-.438v-1.375c0-.319-.083-.406-.25-.406zm2.094 0c-.193 0-.25.076-.25.375v.375h.531v-.375c0-.295-.089-.375-.281-.375z"
  transform="translate(0 4)" />
</svg>