<svg xmlns="http://www.w3.org/2000/svg" version="1.1" data-icon="social-reddit" width="16" height="16" data-container-transform="scale(1 1 ) translate(2 )" viewBox="0 0 16 16">
  <path d="M9.656 0c-.445 0-.828.276-1 .656l-2-.469c-.122-.029-.243.036-.281.156l-.781 2.438c-1.323.024-2.511.366-3.406.938-.231-.202-.544-.313-.875-.313-.731 0-1.313.58-1.313 1.313 0 .47.255.89.625 1.125-.021.125-.031.247-.031.375 0 1.27 1.03 2.37 2.563 2.969-.727.359-1.25 1.231-1.25 2.219 0 1.126.672 2.068 1.563 2.313.065.203.141.38.219.563-.024-.001-.038 0-.063 0-.806 0-1.469.54-1.469 1.219 0 .102.026.229.063.344.032.099.115.156.219.156h6.625c.105 0 .218-.086.25-.188.036-.113.031-.213.031-.313 0-.679-.663-1.219-1.469-1.219-.029 0-.035-.002-.063 0 .078-.182.154-.361.219-.563.899-.238 1.563-1.18 1.563-2.313 0-.991-.52-1.862-1.25-2.219 1.526-.6 2.563-1.702 2.563-2.969 0-.12-.013-.227-.031-.344.393-.23.656-.669.656-1.156 0-.732-.581-1.313-1.313-1.313-.34 0-.672.132-.906.344-.847-.549-1.972-.91-3.219-.969l.688-2.094 1.781.438c.013.594.497 1.063 1.094 1.063.605 0 1.094-.489 1.094-1.094 0-.605-.49-1.094-1.094-1.094zm0 .469c.339 0 .625.286.625.625s-.287.625-.625.625c-.339 0-.594-.286-.594-.625s.255-.625.594-.625zm-3.906 2.781c2.579 0 4.656 1.332 4.656 2.969 0 1.636-2.078 2.969-4.656 2.969s-4.688-1.333-4.688-2.969c0-1.637 2.11-2.969 4.688-2.969zm-4.438.625c.166 0 .339.072.469.156-.474.382-.837.819-1.031 1.313-.169-.154-.281-.379-.281-.625 0-.466.379-.844.844-.844zm8.906 0c.466 0 .844.378.844.844 0 .263-.123.501-.313.656-.188-.499-.557-.957-1.031-1.344.135-.095.322-.156.5-.156zm-6.188.969c-.415 0-.75.335-.75.75s.335.75.75.75.75-.335.75-.75-.335-.75-.75-.75zm3.469 0c-.415 0-.75.335-.75.75s.335.75.75.75.75-.335.75-.75-.335-.75-.75-.75zm-3.438 2.625c-.062 0-.109.016-.156.063-.094.094-.094.25 0 .344.391.391.982.563 1.844.563.002 0 .029 0 .031 0 .862 0 1.452-.171 1.844-.563.094-.094.094-.25 0-.344-.094-.094-.249-.094-.344 0-.296.296-.772.438-1.5.438-.002 0-.029 0-.031 0-.728 0-1.204-.141-1.5-.438-.047-.047-.126-.063-.188-.063zm-.438 1.906c.643.193 1.376.313 2.125.313.75 0 1.45-.118 2.094-.313.071.465.125.96.125 1.469 0 2.172-.713 4.127-1.688 4.688h-1.063c-.976-.56-1.688-2.514-1.688-4.688 0-.509.023-1.004.094-1.469zm4.75.406c.431.336.75.949.75 1.625 0 .782-.39 1.429-.938 1.719.169-.702.25-1.462.25-2.281 0-.359-.028-.726-.063-1.063zm-5.281.031c-.033.332-.063.676-.063 1.031 0 .814.114 1.582.281 2.281-.536-.295-.906-.946-.906-1.719 0-.667.265-1.255.688-1.594zm.531 4.938c.118 0 .208.034.313.063.154.271.316.523.5.719h-1.813v-.031c0-.413.46-.75 1-.75zm4.25 0c.54 0 1 .337 1 .75v.031h-1.844c.183-.195.347-.449.5-.719.109-.033.22-.063.344-.063z"
  transform="translate(2)" />
</svg>