<svg xmlns="http://www.w3.org/2000/svg" version="1.1" data-icon="social-reddit" width="32" height="32" data-container-transform="scale(1 1 ) translate(4 )" viewBox="0 0 32 32">
  <path d="M19.313 0c-.889 0-1.655.519-2 1.281l-4-.938c-.245-.059-.486.104-.563.344l-1.531 4.875c-2.645.048-5.055.764-6.844 1.906-.463-.404-1.058-.656-1.719-.656-1.463 0-2.656 1.193-2.656 2.656 0 .94.511 1.749 1.25 2.219-.041.249-.094.494-.094.75 0 2.539 2.093 4.771 5.156 5.969-1.454.718-2.5 2.399-2.5 4.375 0 2.252 1.344 4.135 3.125 4.625.131.406.28.789.438 1.156-.048-.003-.107 0-.156 0-1.612 0-2.906 1.111-2.906 2.469 0 .204.019.396.094.625.065.198.261.344.469.344h13.25c.21 0 .405-.144.469-.344.072-.226.094-.423.094-.625 0-1.358-1.293-2.469-2.906-2.469-.059 0-.13-.004-.188 0 .156-.365.307-.722.438-1.125 1.798-.476 3.156-2.389 3.156-4.656 0-1.982-1.039-3.661-2.5-4.375 3.053-1.199 5.125-3.436 5.125-5.969 0-.241-.026-.453-.063-.688.785-.459 1.313-1.308 1.313-2.281 0-1.463-1.193-2.656-2.656-2.656-.679 0-1.283.263-1.75.688-1.694-1.097-3.943-1.821-6.438-1.938l1.313-4.156 3.594.844c.025 1.188.992 2.125 2.188 2.125 1.209 0 2.219-.978 2.219-2.188 0-1.21-1.01-2.188-2.219-2.188zm0 .969c.677 0 1.25.541 1.25 1.219s-.573 1.25-1.25 1.25c-.679 0-1.219-.572-1.219-1.25s.541-1.219 1.219-1.219zm-7.813 5.531c5.157 0 9.344 2.665 9.344 5.938 0 3.272-4.187 5.938-9.344 5.938-5.156 0-9.375-2.665-9.375-5.938 0-3.273 4.219-5.938 9.375-5.938zm-8.844 1.281c.333 0 .645.113.906.281-.948.764-1.644 1.637-2.031 2.625-.338-.307-.563-.727-.563-1.219 0-.931.756-1.688 1.688-1.688zm17.75 0c.931 0 1.688.755 1.688 1.688 0 .526-.246 1.002-.625 1.313-.376-.999-1.052-1.914-2-2.688.27-.189.582-.313.938-.313zm-12.344 1.906c-.83 0-1.5.67-1.5 1.5s.67 1.5 1.5 1.5 1.5-.67 1.5-1.5-.67-1.5-1.5-1.5zm6.938 0c-.83 0-1.5.67-1.5 1.5s.67 1.5 1.5 1.5 1.5-.67 1.5-1.5-.67-1.5-1.5-1.5zm-6.875 5.219c-.123 0-.249.062-.344.156-.188.188-.188.498 0 .688.782.782 2.026 1.156 3.75 1.156 1.723 0 2.967-.374 3.75-1.156.188-.188.188-.498 0-.688-.188-.188-.498-.188-.688 0-.593.593-1.607.875-3.063.875-1.455 0-2.47-.283-3.063-.875-.094-.094-.22-.156-.344-.156zm-.844 3.844c1.287.387 2.719.594 4.219.594 1.5 0 2.9-.207 4.188-.594.142.929.219 1.888.219 2.906 0 4.345-1.393 8.255-3.344 9.375h-2.156c-1.951-1.12-3.344-5.03-3.344-9.375 0-1.018.078-1.977.219-2.906zm9.5.844c.862.672 1.438 1.835 1.438 3.188 0 1.565-.781 2.921-1.875 3.5.339-1.404.531-2.989.531-4.625 0-.718-.027-1.39-.094-2.063zm-10.594.031c-.065.665-.094 1.323-.094 2.031 0 1.628.196 3.195.531 4.594-1.073-.59-1.844-1.922-1.844-3.469 0-1.334.564-2.48 1.406-3.156zm1.031 9.906c.236 0 .448.035.656.094.307.542.664 1.014 1.031 1.406h-3.656c0-.826.888-1.5 1.969-1.5zm8.563 0c1.081 0 1.969.674 1.969 1.5h-3.688c.365-.39.725-.868 1.031-1.406.218-.065.438-.094.688-.094z"
  transform="translate(4)" />
</svg>