<svg xmlns="http://www.w3.org/2000/svg" version="1.1" data-icon="social-dribbble" width="16" height="16" data-container-transform="scale(1 1 ) translate(0 )" viewBox="0 0 16 16">
  <path d="M8 0c-4.411 0-8 3.595-8 8 0 4.405 3.589 7.969 8 7.969s8-3.564 8-7.969-3.589-8-8-8zm0 1.188c1.736 0 3.324.65 4.531 1.719-.123.175-1.164 1.56-3.594 2.469-1.12-2.055-2.342-3.747-2.531-4 .514-.124 1.043-.188 1.594-.188zm-2.906.625c.18.247 1.399 1.959 2.531 3.969-3.196.847-6.006.816-6.313.813.443-2.118 1.869-3.88 3.781-4.781zm8.188 1.875c.952 1.161 1.547 2.639 1.563 4.25-.225-.048-2.507-.504-4.781-.219-.048-.117-.075-.226-.125-.344-.142-.332-.31-.675-.469-1 2.527-1.03 3.668-2.493 3.813-2.688zm-5.094 3.125c.196.382.392.768.563 1.156-.09.025-.192.065-.281.094-3.524 1.137-5.376 4.235-5.531 4.5-1.092-1.21-1.781-2.809-1.781-4.563 0-.069-.002-.15 0-.219.299.006 3.619.051 7.031-.969zm3.094 1.875c1.798-.121 3.264.341 3.469.406-.305 1.899-1.405 3.527-2.938 4.563-.069-.415-.418-2.422-1.313-4.875.268-.043.524-.076.781-.094zm-2.063.406c.96 2.49 1.335 4.588 1.438 5.188-.82.349-1.709.531-2.656.531-1.579 0-3.029-.536-4.188-1.438.123-.25 1.49-2.909 5.344-4.25l.063-.031z"
  />
</svg>