<svg xmlns="http://www.w3.org/2000/svg" version="1.1" data-icon="social-vimeo" width="32" height="32" data-container-transform="scale(1 1 ) translate(0 2 )" viewBox="0 0 32 32">
  <path d="M26.531 0c-3.989.176-6.744 2.7-8.219 7.531.813-.349 1.609-.531 2.375-.531 1.627 0 2.347.923 2.156 2.75-.096 1.107-.816 2.695-2.156 4.813-1.342 2.117-2.33 3.188-3 3.188-.863 0-1.657-1.643-2.375-4.906-.242-.958-.691-3.38-1.313-7.313-.576-3.645-2.104-5.364-4.594-5.125-1.054.097-2.644 1.054-4.75 2.875-1.533 1.39-3.077 2.768-4.656 4.156l1.5 1.938c1.434-1.004 2.292-1.5 2.531-1.5 1.099 0 2.104 1.743 3.063 5.188l2.594 9.469c1.289 3.446 2.854 5.156 4.719 5.156 3.011 0 6.712-2.812 11.063-8.469 4.208-5.416 6.388-9.697 6.531-12.813.189-4.17-1.368-6.309-4.656-6.406-.277-.009-.547-.012-.813 0z"
  transform="translate(0 2)" />
</svg>