<svg xmlns="http://www.w3.org/2000/svg" version="1.1" data-icon="social-dropbox" width="32" height="32" data-container-transform="scale(1 1 ) translate(0 1 )" viewBox="0 0 32 32">
  <path d="M9.406 0l-9.406 6.156 6.5 5.188 9.5-5.844-6.594-5.5zm6.594 5.5l9.5 5.844 6.5-5.188-9.406-6.156-6.594 5.5zm9.5 5.844l-9.5 5.875 6.594 5.5 9.406-6.156-6.5-5.219zm-9.5 5.875l-9.5-5.875-6.5 5.219 9.406 6.156 6.594-5.5zm.031 1.188l-6.625 5.469-2.813-1.844v2.063l9.438 5.656 9.406-5.656v-2.063l-2.813 1.844-6.594-5.469z"
  transform="translate(0 1)" />
</svg>