<svg xmlns="http://www.w3.org/2000/svg" version="1.1" data-icon="social-google-plus" width="16" height="16" data-container-transform="scale(1 1 ) translate(0 1 )" viewBox="0 0 16 16">
  <path d="M4.563 0c-1.877 0-3.656 1.415-3.656 3.063 0 1.683 1.277 3.063 3.188 3.063.133 0 .249-.022.375-.031-.124.237-.188.503-.188.781 0 .468.245.846.563 1.156-.24 0-.465 0-.719 0-2.325 0-4.125 1.496-4.125 3.031 0 1.512 1.956 2.469 4.281 2.469 2.65 0 4.125-1.519 4.125-3.031 0-1.212-.363-1.937-1.469-2.719-.378-.268-1.094-.929-1.094-1.313 0-.449.106-.66.781-1.188.692-.541 1.188-1.304 1.188-2.188 0-1.053-.463-2.068-1.344-2.406h1.344l.906-.688h-4.156zm7.438 0v3h-3v1h3v3h1v-3h3v-1h-3v-3h-1zm-7.969.594c1.078.032 2.095 1.178 2.281 2.594.186 1.417-.547 2.532-1.625 2.5-1.079-.032-2.095-1.209-2.281-2.625-.186-1.417.547-2.502 1.625-2.469zm.531 7.844c.375.004.714.053 1.031.156.872.607 1.511.964 1.688 1.656.033.14.031.29.031.438 0 1.222-.772 2.156-3.031 2.156-1.607 0-2.781-.997-2.781-2.219 0-1.198 1.457-2.204 3.063-2.188z"
  transform="translate(0 1)" />
</svg>