<svg xmlns="http://www.w3.org/2000/svg" version="1.1" data-icon="social-dropbox" width="128" height="128" data-container-transform="translate(0 4 ) scale(1 1 )" viewBox="0 0 128 128">
  <path d="M37.656 0l-37.656 24.594 26.031 20.844 37.969-23.438-26.344-22zm26.344 22l37.969 23.438 26.031-20.844-37.656-24.594-26.344 22zm37.969 23.438l-37.969 23.438 26.344 22 37.656-24.594-26.031-20.844zm-37.969 23.438l-37.969-23.438-26.031 20.844 37.656 24.594 26.344-22zm.063 4.719l-26.406 21.938-11.313-7.375v8.281l37.719 22.625 37.75-22.625v-8.281l-11.313 7.375-26.438-21.938z"
  transform="translate(0 4)" />
</svg>