<svg xmlns="http://www.w3.org/2000/svg" version="1.1" data-icon="social-linkedin" width="32" height="32" data-container-transform="scale(1 1 ) translate(0 )" viewBox="0 0 32 32">
  <path d="M2.375 0c-1.304 0-2.375 1.04-2.375 2.313v27.375c0 1.274 1.071 2.313 2.375 2.313h27.25c1.305 0 2.375-1.038 2.375-2.313v-27.375c0-1.272-1.07-2.313-2.375-2.313h-27.25zm4.75 4.406c1.517 0 2.75 1.232 2.75 2.75 0 1.52-1.232 2.75-2.75 2.75-1.521 0-2.75-1.23-2.75-2.75 0-1.518 1.229-2.75 2.75-2.75zm14.438 7.219c4.803 0 5.719 3.167 5.719 7.281v8.375h-4.75v-7.438c0-1.772-.037-4.063-2.469-4.063-2.47 0-2.844 1.945-2.844 3.938v7.563h-4.75v-15.281h4.563v2.094h.063c.634-1.2 2.16-2.469 4.469-2.469zm-16.813.375h4.75v15.281h-4.75v-15.281z"
  />
</svg>