<svg xmlns="http://www.w3.org/2000/svg" version="1.1" data-icon="social-dribbble" width="128" height="128" data-container-transform="translate(0 ) scale(1 1 )" viewBox="0 0 128 128">
  <path d="M64 0c-35.29 0-64 28.663-64 63.906 0 35.242 28.71 63.938 64 63.938s64-28.695 64-63.938-28.71-63.906-64-63.906zm0 9.406c13.89 0 26.596 5.197 36.25 13.75-.983 1.398-9.217 12.443-28.656 19.719-8.957-16.436-18.895-29.916-20.406-31.938 4.111-.99 8.401-1.531 12.813-1.531zm-23.25 5.188c1.441 1.974 11.223 15.483 20.281 31.563-25.571 6.782-48.086 6.688-50.531 6.656 3.544-16.94 14.956-31.015 30.25-38.219zm65.563 14.875c7.613 9.289 12.224 21.114 12.344 34-1.802-.38-19.873-4.034-38.063-1.75-.383-.934-.785-1.868-1.188-2.813-1.136-2.662-2.353-5.306-3.625-7.906 20.212-8.241 29.379-19.974 30.531-21.531zm-40.781 25.094c1.565 3.059 3.064 6.148 4.438 9.25-.723.203-1.444.426-2.156.656-28.194 9.101-43.2 33.914-44.438 36.031-8.73-9.678-14.031-22.478-14.031-36.5 0-.558.014-1.102.031-1.656 2.392.049 28.856.378 56.156-7.781zm27.75 14.906c12.968-.342 23.168 2.708 24.688 3.188-2.437 15.19-11.174 28.313-23.438 36.594-.56-3.321-3.444-19.284-10.594-38.906 3.212-.513 6.351-.796 9.344-.875zm-19.594 3.375c7.675 19.917 10.843 36.616 11.656 41.406-6.563 2.792-13.771 4.344-21.344 4.344-12.638 0-24.294-4.313-33.563-11.531.984-2.008 12.072-23.364 42.906-34.094.12-.042.224-.084.344-.125z"
  />
</svg>