<svg xmlns="http://www.w3.org/2000/svg" version="1.1" data-icon="social-instagram" width="16" height="16" data-container-transform="scale(1 1 ) translate(0 )" viewBox="0 0 16 16">
  <path d="M2.063 0c-1.13 0-2.063.933-2.063 2.063v11.875c0 1.13.933 2.063 2.063 2.063h11.875c1.13 0 2.063-.932 2.063-2.063v-11.875c0-1.13-.932-2.063-2.063-2.063h-11.875zm9.594 1.781h1.813c.396 0 .719.323.719.719v1.719c0 .396-.323.719-.719.719h-1.813c-.396 0-.719-.323-.719-.719v-1.719c0-.396.323-.719.719-.719zm-3.625 3.063c1.774 0 3.188 1.405 3.188 3.125s-1.412 3.125-3.188 3.125c-1.774 0-3.219-1.405-3.219-3.125s1.444-3.125 3.219-3.125zm-6.25 1.938h1.469c-.133.435-.219.867-.219 1.344 0 2.662 2.253 4.844 5 4.844 2.746 0 4.969-2.183 4.969-4.844 0-.477-.086-.909-.219-1.344h1.406v6.75c0 .35-.275.625-.625.625h-11.156c-.35 0-.625-.275-.625-.625v-6.75z"
  />
</svg>