<svg xmlns="http://www.w3.org/2000/svg" version="1.1" data-icon="social-pinterest" width="128" height="128" data-container-transform="translate(0 ) scale(1 1 )" viewBox="0 0 128 128">
  <path d="M64 0c-35.345 0-64 28.653-64 64 0 26.207 15.762 48.727 38.313 58.625-.18-4.469-.021-9.826 1.125-14.688 1.23-5.196 8.219-34.875 8.219-34.875s-2.031-4.085-2.031-10.125c0-9.484 5.498-16.594 12.344-16.594 5.821 0 8.625 4.39 8.625 9.625 0 5.852-3.736 14.612-5.656 22.719-1.603 6.789 3.396 12.313 10.094 12.313 12.126 0 20.313-15.578 20.313-34.031 0-14.027-9.473-24.531-26.656-24.531-19.414 0-31.5 14.484-31.5 30.656 0 5.576 1.644 9.517 4.219 12.563 1.184 1.399 1.367 1.957.938 3.563-.307 1.178-1.02 4.002-1.313 5.125-.426 1.621-1.754 2.223-3.219 1.625-8.942-3.651-13.094-13.461-13.094-24.469 0-18.18 15.342-39.969 45.75-39.969 24.435 0 40.5 17.675 40.5 36.656 0 25.107-13.956 43.875-34.531 43.875-6.91 0-13.398-3.757-15.625-8 0 0-3.713 14.747-4.5 17.594-1.357 4.935-4.01 9.875-6.438 13.719 5.756 1.699 11.823 2.625 18.125 2.625 35.342 0 64-28.652 64-64 0-35.347-28.658-64-64-64z"
  />
</svg>