<svg xmlns="http://www.w3.org/2000/svg" version="1.1" width="32" height="32" data-icon="spreadsheet" data-container-transform="translate(0 1)" viewBox="0 0 32 32">
  <path d="M1 0c-.552 0-1 .448-1 1v28c0 .552.448 1 1 1h30c.552 0 1-.448 1-1v-28c0-.552-.448-1-1-1h-30zm2 3h4v4h-4v-4zm5 0h10v4h-10v-4zm11 0h10v4h-10v-4zm-16 5h4v4h-4v-4zm5 0h10v4h-10v-4zm11 0h10v4h-10v-4zm-16 5h4v4h-4v-4zm5 0h10v4h-10v-4zm11 0h10v4h-10v-4zm-16 5h4v4h-4v-4zm5 0h10v4h-10v-4zm11 0h10v4h-10v-4zm-16 5h4v4h-4v-4zm5 0h10v4h-10v-4zm11 0h10v4h-10v-4z"
  transform="translate(0 1)" />
</svg>