<svg xmlns="http://www.w3.org/2000/svg" version="1.1" width="128" height="128" data-icon="sun" viewBox="0 0 128 128">
  <path d="M63.781-.031a2 2 0 0 0-1.781 2.031v20a2 2 0 1 0 4 0v-20a2 2 0 0 0-2.031-2.031 2 2 0 0 0-.188 0zm21.625 10.25a2 2 0 0 0-.219.031 2 2 0 0 0-1.594 1.25l-3.844 9.25a2 2 0 1 0 3.688 1.531l3.844-9.25a2 2 0 0 0-1.875-2.813zm-43.063.031a2 2 0 0 0-1.625 2.781l3.844 9.25a2 2 0 1 0 3.688-1.531l-3.844-9.25a2 2 0 0 0-2.063-1.25zm-22.406 7.875a2 2 0 0 0-1.188 3.438l14.125 14.156a2.011 2.011 0 0 0 2.844-2.844l-14.156-14.125a2 2 0 0 0-1.438-.625 2 2 0 0 0-.188 0zm87.875 0a2 2 0 0 0-1.375.625l-14.156 14.125a2.011 2.011 0 0 0 2.844 2.844l14.125-14.156a2 2 0 0 0-1.438-3.438zm-43.813 11.875c-18.748 0-34 15.252-34 34 0 18.748 15.252 34 34 34 18.748 0 34-15.252 34-34 0-18.748-15.252-34-34-34zm51.688 10.531a2 2 0 0 0-.188.031 2 2 0 0 0-.531.156l-9.25 3.844a2 2 0 1 0 1.531 3.688l9.25-3.844a2 2 0 0 0-.813-3.875zm-103.625.031a2 2 0 0 0-.563 3.844l9.25 3.844a2 2 0 1 0 1.531-3.688l-9.25-3.844a2 2 0 0 0-.969-.156zm-10.25 21.438a2.002 2.002 0 1 0 .188 4h20a2 2 0 1 0 0-4h-20a2 2 0 0 0-.188 0zm104 0a2.002 2.002 0 1 0 .188 4h20a2 2 0 1 0 0-4h-20a2 2 0 0 0-.188 0zm-84.344 17.594a2 2 0 0 0-.719.156l-9.25 3.844a2 2 0 1 0 1.531 3.688l9.25-3.844a2 2 0 0 0-.813-3.844zm84.813 0a2 2 0 0 0-.563 3.844l9.25 3.844a2 2 0 1 0 1.531-3.688l-9.25-3.844a2 2 0 0 0-.969-.156zm-71.969 12.063a2 2 0 0 0-.25.031 2 2 0 0 0-1.188.594l-14.125 14.156a2 2 0 1 0 2.813 2.813l14.156-14.125a2 2 0 0 0-1.406-3.469zm59.156.031a2 2 0 0 0-1.188 3.438l14.156 14.125a2 2 0 1 0 2.813-2.813l-14.125-14.156a2 2 0 0 0-1.656-.594zm-29.688 12.281a2 2 0 0 0-1.781 2.031v20a2 2 0 1 0 4 0v-20a2 2 0 0 0-2.031-2.031 2 2 0 0 0-.188 0zm-17.594.5a2 2 0 0 0-1.625 1.25l-3.844 9.25a2 2 0 1 0 3.688 1.531l3.844-9.25a2 2 0 0 0-1.875-2.781 2 2 0 0 0-.188 0zm35.188 0a2 2 0 0 0-1.625 2.781l3.844 9.25a2 2 0 1 0 3.688-1.531l-3.844-9.25a2 2 0 0 0-2.063-1.25z"
  />
</svg>