<svg xmlns="http://www.w3.org/2000/svg" version="1.1" width="32" height="32" data-icon="syringe" viewBox="0 0 32 32">
  <path d="M26.344 0a.5.5 0 0 0-.188.844l1 1-3.313 3.313-4-4a.5.5 0 0 0-.438-.156.5.5 0 0 0-.25.844l2.5 2.5-2.313 2.313 1.5 1.5c.195.195.195.492 0 .688-.098.098-.216.156-.344.156-.128 0-.247-.059-.344-.156l-1.5-1.5-1.313 1.313.5.5c.195.195.195.492 0 .688-.098.098-.216.156-.344.156-.128 0-.247-.059-.344-.156l-.5-.5-1.313 1.313 1.5 1.5c.195.195.195.492 0 .688-.098.098-.216.156-.344.156-.128 0-.247-.059-.344-.156l-1.5-1.5-1.313 1.313.5.5c.195.195.195.492 0 .688-.098.098-.216.156-.344.156-.128 0-.247-.059-.344-.156l-.5-.5-1.313 1.313 1.5 1.5c.195.195.195.492 0 .688-.098.098-.216.156-.344.156-.128 0-.247-.059-.344-.156l-1.5-1.5-2.656 2.656 1 1-1 1 1 1-9 9v2l10-10 1 1 1-1 1 1 13.656-13.656 2.5 2.5a.5.5 0 1 0 .688-.688l-4.031-4.031 3.313-3.313 1.031 1.031a.5.5 0 1 0 .688-.688l-4-4a.5.5 0 0 0-.438-.156.5.5 0 0 0-.063 0z"
  />
</svg>