<svg xmlns="http://www.w3.org/2000/svg" version="1.1" width="128" height="128" data-icon="syringe" data-container-transform="translate(1)" viewBox="0 0 128 128">
  <path d="M107.781-.031a2 2 0 0 0-1.188 3.438l2 2-13.875 13.875 12 12 13.875-13.875 2 2a2 2 0 1 0 2.813-2.813l-16-16a2 2 0 0 0-1.438-.625 2 2 0 0 0-.188 0zm-28 8a2 2 0 0 0-1.188 3.438l9 9-10.875 10.875 5 5c.391.391.391 1.047 0 1.438-.195.195-.463.281-.719.281-.256 0-.524-.086-.719-.281l-5-5-4.563 4.563 3 3c.391.391.391 1.047 0 1.438-.195.195-.463.281-.719.281-.256 0-.524-.086-.719-.281l-3-3-4.563 4.563 3 3c.391.391.391 1.047 0 1.438-.195.195-.463.281-.719.281-.256 0-.524-.086-.719-.281l-3-3-4.563 4.563 5 5c.391.391.391 1.047 0 1.438-.195.195-.463.281-.719.281-.256 0-.524-.086-.719-.281l-5-5-4.563 4.563 3 3c.391.391.391 1.047 0 1.438-.195.195-.463.281-.719.281-.256 0-.524-.086-.719-.281l-3-3-4.563 4.563 3 3c.391.391.391 1.046 0 1.438-.195.195-.463.281-.719.281-.256 0-.524-.086-.719-.281l-3-3-4.563 4.563 5 5c.391.391.391 1.046 0 1.438-.195.195-.463.281-.719.281-.256 0-.524-.086-.719-.281l-5-5-5.281 5.281 4 4-4 4 4.031 4.031-38.031 38.344v3.625l40-40 4 4 4-4 4 4 53.594-53.594 7 7a2 2 0 1 0 2.813-2.813l-34-34a2 2 0 0 0-1.438-.625 2 2 0 0 0-.188 0z"
  transform="translate(1)" />
</svg>