<svg xmlns="http://www.w3.org/2000/svg" version="1.1" width="16" height="16" data-icon="syringe" viewBox="0 0 16 16">
  <path d="M8.344 0a.5.5 0 0 0-.188.844l1.5 1.5-.813.813 1 1c.195.195.195.492 0 .688-.098.098-.216.156-.344.156-.128 0-.246-.059-.344-.156l-1-1-1.313 1.313 1 1c.195.195.195.492 0 .688-.098.098-.217.156-.344.156-.127 0-.246-.059-.344-.156l-1-1-1.313 1.313 1 1c.195.195.195.492 0 .688-.098.098-.217.156-.344.156-.127 0-.246-.059-.344-.156l-1-1-1.156 1.156 1 1-4 4v2l5-5 1 1 6.656-6.656 1.5 1.5a.5.5 0 1 0 .688-.688l-2.531-2.531 1.313-1.313.531.531a.5.5 0 1 0 .688-.688l-2-2a.5.5 0 0 0-.438-.156.5.5 0 0 0-.25.844l.5.5-1.313 1.313-2.5-2.5a.5.5 0 0 0-.438-.156.5.5 0 0 0-.063 0z"
  />
</svg>