<svg xmlns="http://www.w3.org/2000/svg" version="1.1" width="32" height="32" data-icon="tags" data-container-transform="translate(0 3)" viewBox="0 0 32 32">
  <path d="M.5 0c-.276 0-.5.224-.5.5v9c0 .276.174.654.375.844l8.125 7.656 8.125 7.656h.031c.202.17.498.189.688 0l9.313-9.313c.195-.195.171-.498-.031-.688l-8.125-7.656-8.125-7.656c-.009-.009-.021-.023-.031-.031-.207-.177-.58-.312-.844-.313h-9zm11.5 0l17 16-8.5 8.5 1.125 1.156c.017.016.044.018.063.031.201.144.477.148.656-.031l9.313-9.313c.195-.195.171-.498-.031-.688l-8.125-7.656-8.125-7.656c-.009-.009-.021-.023-.031-.031-.207-.177-.58-.312-.844-.313h-2.5zm-6 4c1.105 0 2 .895 2 2s-.895 2-2 2-2-.895-2-2 .895-2 2-2z"
  transform="translate(0 3)" />
</svg>