<svg xmlns="http://www.w3.org/2000/svg" version="1.1" width="128" height="128" data-icon="task" data-container-transform="translate(0 34)" viewBox="0 0 128 128">
  <path d="M58.719 1.25l-30.969 30.969-13.031-13.156-5.688 5.625 15.875 16.031 2.813 2.844 2.844-2.844 33.813-33.813-5.656-5.656zm-55.219 2.75c-1.91 0-3.5 1.59-3.5 3.5v49c0 1.91 1.59 3.5 3.5 3.5h49c1.91 0 3.5-1.59 3.5-3.5v-36.375l-4 4v31.875h-48v-48h43.156l4-4h-47.656zm64.5 12v4h60v-4h-60zm0 12v4h50v-4h-50zm0 12v4h54v-4h-54z"
  transform="translate(0 34)" />
</svg>