<svg xmlns="http://www.w3.org/2000/svg" version="1.1" width="32" height="32" data-icon="thermometer" data-container-transform="translate(9)" viewBox="0 0 32 32">
  <path d="M7 0c-2.203 0-4 1.797-4 4v15.344c-1.783 1.268-3 3.301-3 5.656 0 3.86 3.14 7 7 7s7-3.14 7-7c0-2.358-1.209-4.389-3-5.656v-15.344c0-2.203-1.797-4-4-4zm0 1c1.663 0 3 1.337 3 3v15.812000000000001l.219.125c1.661 1.068 2.781 2.941 2.781 5.063 0 3.32-2.68 6-6 6s-6-2.68-6-6c0-2.116 1.125-3.961 2.781-5.031l.219-.156v-15.812000000000001c0-1.663 1.337-3 3-3zm-.094 1.969a1 1 0 0 0-.125.031 1 1 0 0 0-.781 1v17.156c-1.724.445-3 1.981-3 3.844 0 2.209 1.791 4 4 4s4-1.791 4-4c0-1.863-1.276-3.399-3-3.844v-17.156a1 1 0 0 0-1.094-1.031z"
  transform="translate(9)" />
</svg>