<svg xmlns="http://www.w3.org/2000/svg" version="1.1" width="128" height="128" data-icon="thermometer" data-container-transform="translate(42)" viewBox="0 0 128 128">
  <path d="M22 0c-4.959 0-9 4.041-9 9v77.031c-7.634 3.454-13 11.056-13 19.969 0 12.138 9.862 22 22 22s22-9.862 22-22c0-8.914-5.364-16.515-13-19.969v-10.844a1 1 0 0 0 0-.406v-11.594a1 1 0 0 0 0-.406v-11.594a1 1 0 0 0 0-.406v-11.594a1 1 0 0 0 0-.406v-11.594a1 1 0 0 0 0-.406v-11.594a1 1 0 0 0 0-.406v-5.781c0-4.959-4.041-9-9-9zm0 2c3.877 0 7 3.123 7 7v5h-1a1 1 0 0 0-.094 0 1.001 1.001 0 0 0 .094 2h1v10h-1a1 1 0 0 0-.094 0 1.001 1.001 0 0 0 .094 2h1v10h-1a1 1 0 0 0-.094 0 1.001 1.001 0 0 0 .094 2h1v10h-1a1 1 0 0 0-.094 0 1.001 1.001 0 0 0 .094 2h1v10h-1a1 1 0 0 0-.094 0 1.001 1.001 0 0 0 .094 2h1v10h-1a1 1 0 0 0-.094 0 1.001 1.001 0 0 0 .094 2h1v11.251000000000001l.625.25c7.265 2.995 12.375 10.143 12.375 18.5 0 11.058-8.942 20-20 20s-20-8.942-20-20c0-8.357 5.112-15.505 12.375-18.5l.625-.25v-78.251c0-3.877 3.123-7 7-7zm-.031 3.938a3 3 0 0 0-.313.031 3 3 0 0 0-2.656 3.031v81.281c-7.398 1.408-13 7.911-13 15.719 0 8.837 7.163 16 16 16s16-7.163 16-16c0-7.808-5.602-14.311-13-15.719v-81.281a3 3 0 0 0-3.031-3.063z"
  transform="translate(42)" />
</svg>