<svg xmlns="http://www.w3.org/2000/svg" version="1.1" data-icon="thumb-down" width="128" height="128" data-container-transform="translate(1 ) scale(1 1 )" viewBox="0 0 128 128">
  <path d="M10 0l-10 76h32v-76h-22zm46 2l-20 4v68c5 0 9.388 1.912 12.688 5.313 7.7 7.5 19.313 22.588 19.313 34.688v11c0 1.7 1.3 3 3 3h6c5 0 9-4 9-9v-5c0-16-5-26.5-5-31s4-9 9-9h27c5 0 9-3.9 9-9 0-.5-.194-1.6-.594-3-3.1-12.4-18.094-54.5-18.094-54.5-1.4-3.2-4.612-5.5-8.313-5.5h-43zm-30 2c1.1 0 2 .9 2 2s-.9 2-2 2-2-.9-2-2 .9-2 2-2z"
  transform="translate(1)" />
</svg>