<svg xmlns="http://www.w3.org/2000/svg" version="1.1" data-icon="thumb-down" width="32" height="32" data-container-transform="scale(1 1 ) translate(0 )" viewBox="0 0 32 32">
  <path d="M2 0l-2 19h7v-19h-5zm3 1c.6 0 1 .4 1 1s-.4 1-1 1-1-.4-1-1 .4-1 1-1zm9 0l-5 1v17c1.2 0 2.287.512 3.188 1.313 1.9 1.9 4.813 5.087 4.813 8.188v2.813c0 .4.313.781.813.781h1.781c1.4 0 2.5-1.1 2.5-2.5v-1.5c0-3-1.688-5.587-1.688-6.688 0-1.1 1.394-2.406 2.594-2.406h6.813c1.2 0 2.188-.988 2.188-2.188 0-.2.006-.413-.094-.813-.8-3.1-4.5-13.594-4.5-13.594-.4-.8-1.194-1.406-2.094-1.406h-11.313z"
  />
</svg>