<svg xmlns="http://www.w3.org/2000/svg" version="1.1" width="32" height="32" data-icon="timer" data-container-transform="translate(1)" viewBox="0 0 32 32">
  <path d="M12 0v1h1v2.063c-7.284.759-13 6.957-13 14.438 0 7.99 6.51 14.5 14.5 14.5s14.5-6.51 14.5-14.5c0-7.48-5.716-13.679-13-14.438v-2.063h1v-1h-5zm2.5 6c6.369 0 11.5 5.131 11.5 11.5s-5.131 11.5-11.5 11.5-11.5-5.131-11.5-11.5 5.131-11.5 11.5-11.5zm7.5 4s-7.976 5.851-8.563 6.438c-.586.585-.586 1.539 0 2.125.585.586 1.539.586 2.125 0 .585-.586 6.438-8.563 6.438-8.563z"
  transform="translate(1)" />
</svg>