<svg xmlns="http://www.w3.org/2000/svg" version="1.1" width="16" height="16" data-icon="timer" data-container-transform="translate(1)" viewBox="0 0 16 16">
  <path d="M5 0v1h1v1.094c-3.383.489-6 3.392-6 6.906 0 3.854 3.146 7 7 7s7-3.146 7-7c0-1.502-.47-2.889-1.281-4.031l-1.344 1.688c.375.703.625 1.487.625 2.344 0 2.773-2.227 5-5 5s-5-2.227-5-5 2.227-5 5-5c.852 0 1.644.222 2.344.594l1.688-1.313c-.881-.625-1.919-1.027-3.031-1.188v-1.094h1v-1h-4zm8 3l-6.75 5.281c-.391.391-.391 1.047 0 1.438.391.39 1.048.391 1.438 0l5.313-6.719z"
  transform="translate(1)" />
</svg>