<svg xmlns="http://www.w3.org/2000/svg" version="1.1" width="128" height="128" data-icon="tint" data-container-transform="translate(16)" viewBox="0 0 128 128">
  <path d="M48 0s-48 43.429-48 80c0 32 22.753 48 48 48s48-16 48-48c0-36.571-48-80-48-80zm-35.125 85c1.86.028 3.484 1.351 3.844 3.25 1.8 9.495 6.84 16.306 14.969 20.25 2.467 1.197 5.186 2.1 8.094 2.688 2.166.438 3.563 2.554 3.125 4.719-.384 1.898-2.042 3.219-3.906 3.219-.263 0-.514-.039-.781-.094-3.568-.722-6.959-1.823-10.031-3.313-10.381-5.037-17.047-14.023-19.313-25.969-.411-2.17 1.018-4.276 3.188-4.688.271-.051.547-.066.813-.063z"
  transform="translate(16)" />
</svg>