<svg xmlns="http://www.w3.org/2000/svg" version="1.1" width="16" height="16" data-icon="tools" viewBox="0 0 16 16">
  <path d="M1 0l-1 1 2 4h2l5 5-.5.5s5.064 5.063 5.094 5.094c.553.553 1.447.553 2 0 .553-.553.553-1.448 0-2l-5.094-5.094-.5.5-5-5v-2l-4-2zm7 0c2.96 1.002 2.991 2.957 2.031 3.969l-1.531 1.531 1 1 1.5-1.5c1-1 .999-1.001 2 0l.5.5.5.5 2-2-2-2c-2-2-3-2-6-2zm-3 8l-4.813 4.813c-.097.097-.139.291-.063.406l1.75 2.563c.076.114.188.122.25 0l.781-1.563c.062-.123.184-.309.281-.406l3.813-3.813-2-2z"
  />
</svg>