<svg xmlns="http://www.w3.org/2000/svg" version="1.1" width="128" height="128" data-icon="tools" viewBox="0 0 128 128">
  <path d="M4.031 0l-4.031 4.031 8.063 14.094 8.063 2.031 54.875 54.844-5 5 2 2h2l2 2v4l36.031 35.969c2.079 2.454 5.156 4.031 8.625 4.031 6.26 0 11.344-5.084 11.344-11.344 0-3.469-1.576-6.546-4.031-8.625l-35.969-36.031h-4l-2-2v-2l-2-2-5 5-54.844-54.875-2.031-8.063-14.094-8.063zm63.969 0c28 12.125 19.938 24.063 16 28l-22 22c-.552.553-1.374 1.157-2.25 1.688l8.531 8.531c.523-.836 1.116-1.615 1.656-2.156l22.063-22.063c5.875-5.875 7.875-6.125 12-2 4.083 4.083 0 6 4 10l3 3 .656.656c.195.195.493.195.688 0l15.313-15.313c.195-.194.195-.494 0-.688l-1.313-1.313-2.344-2.344c-4-4-6 0-10-4s-2-8-6-12c-12-12-16-12-40-12zm-19.75 56.313c-.913.559-1.781 1.218-2.375 1.813l-43.75 43.75c-1.172 1.172-1.522 3.331-.781 4.813l9.313 18.625c.741 1.482 2.079 1.566 3 .188l4.75-7.063c.921-1.377 2.61-3.454 3.781-4.625l39.688-39.688c.594-.594 1.252-1.462 1.813-2.375l-15.438-15.438zm38.75 19.688c.256 0 .523.086.719.281l34 34c.391.391.391 1.047 0 1.438-.195.195-.463.281-.719.281-.256 0-.524-.086-.719-.281l-34-34c-.391-.391-.391-1.046 0-1.438.195-.195.463-.281.719-.281zm-4 6c.256 0 .523.086.719.281l34 34c.391.391.391 1.047 0 1.438-.195.195-.463.281-.719.281-.256 0-.524-.086-.719-.281l-34-34c-.391-.391-.391-1.046 0-1.438.195-.195.463-.281.719-.281zm-6 4c.256 0 .523.086.719.281l34 34c.391.391.391 1.047 0 1.438-.195.195-.463.281-.719.281-.256 0-.524-.086-.719-.281l-34-34c-.391-.391-.391-1.046 0-1.438.195-.195.463-.281.719-.281z"
  />
</svg>