<svg xmlns="http://www.w3.org/2000/svg" version="1.1" width="32" height="32" data-icon="trash" data-container-transform="translate(1)" viewBox="0 0 32 32">
  <path d="M12 0c-.547 0-1 .453-1 1v1h-4c-.552 0-1 .448-1 1h-3c-1.657 0-3 1.343-3 3h29c0-1.657-1.343-3-3-3h-3c0-.552-.448-1-1-1h-4v-1c0-.547-.453-1-1-1h-5zm0 1h5v1h-5v-1zm-9 6v24c0 .552.448 1 1 1h21c.552 0 1-.448 1-1v-24h-3v21.5c0 .276-.224.5-.5.5s-.5-.224-.5-.5v-21.5h-3v21.5c0 .276-.224.5-.5.5s-.5-.224-.5-.5v-21.5h-3v21.5c0 .276-.224.5-.5.5s-.5-.224-.5-.5v-21.5h-3v21.5c0 .276-.224.5-.5.5s-.5-.224-.5-.5v-21.5h-3v21.5c0 .276-.224.5-.5.5s-.5-.224-.5-.5v-21.5h-3z"
  transform="translate(1)" />
</svg>