<svg width="22px" height="22px" viewBox="0 0 22 22" version="1.1" xmlns="http://www.w3.org/2000/svg" xmlns:xlink="http://www.w3.org/1999/xlink">
    <g id="trash-bin" stroke="none" stroke-width="1" fill-rule="evenodd">
        <path d="M17.5754557,19.5360026 C17.5102865,20.8673177 16.6165365,21.733138 15.2852214,21.733138 L6.74804687,21.733138 C5.39811198,21.733138 4.52298177,20.8766276 4.4578125,19.5453125 L3.81542969,5.99941406 L2.68893229,5.99941406 C2.31653646,5.99941406 2,5.67356771 2,5.29186198 C2,4.91946615 2.31653646,4.59361979 2.68893229,4.59361979 L6.93424479,4.59361979 L6.93424479,3.19713542 C6.93424479,1.85651042 7.82799479,1 9.26171875,1 L12.7436198,1 C14.1773437,1 15.0804036,1.85651042 15.0804036,3.19713542 L15.0804036,4.59361979 L19.335026,4.59361979 C19.7167318,4.59361979 20.0239583,4.91015625 20.0239583,5.29186198 C20.0239583,5.67356771 19.7167318,5.99941406 19.335026,5.99941406 L18.2178385,5.99941406 L17.5754557,19.5360026 Z M8.42382812,3.29023437 L8.42382812,4.59361979 L13.6001302,4.59361979 L13.6001302,3.29023437 C13.6001302,2.75957031 13.2091146,2.38717448 12.6412109,2.38717448 L9.3734375,2.38717448 C8.80553385,2.38717448 8.42382812,2.75957031 8.42382812,3.29023437 Z M6.87838542,20.3273437 L15.136263,20.3273437 C15.6948568,20.3273437 16.0858724,19.9363281 16.1138021,19.3777344 L16.7282552,5.99941406 L5.26777344,5.99941406 L5.91946615,19.3777344 C5.94739583,19.9270182 6.34772135,20.3273437 6.87838542,20.3273437 Z M13.7770182,18.698112 C13.4604818,18.698112 13.2277344,18.428125 13.2370443,18.0836589 L13.5163411,8.32688802 C13.525651,7.99173177 13.7677083,7.72174479 14.0563151,7.72174479 C14.3728516,7.72174479 14.605599,7.98242187 14.5962891,8.32688802 L14.3169922,18.0929687 C14.3076823,18.4467448 14.0842448,18.698112 13.7770182,18.698112 Z M8.25625,18.698112 C7.93971354,18.698112 7.71627604,18.4467448 7.70696615,18.0929687 L7.42766927,8.32688802 C7.41835937,7.98242187 7.65110677,7.72174479 7.96764323,7.72174479 C8.25625,7.72174479 8.49830729,7.99173177 8.50761719,8.32688802 L8.79622396,18.0836589 C8.80553385,18.428125 8.57278646,18.698112 8.25625,18.698112 Z M11.0119792,18.698112 C10.7140625,18.698112 10.4533854,18.428125 10.4533854,18.0929687 L10.4533854,8.32688802 C10.4533854,7.99173177 10.7140625,7.72174479 11.0119792,7.72174479 C11.3192057,7.72174479 11.5798828,7.99173177 11.5798828,8.32688802 L11.5798828,18.0929687 C11.5798828,18.428125 11.3192057,18.698112 11.0119792,18.698112 Z" id="trash-bin-shape" fill-rule="nonzero"></path>
    </g>
</svg>
