<svg xmlns="http://www.w3.org/2000/svg" version="1.1" data-icon="vertical-align-center" width="32" height="32" data-container-transform="scale(1 1 ) translate(0 4 )" viewBox="0 0 32 32">
  <path d="M5.5 0c-.3 0-.5.2-.5.5v8.5h6v-8.5c0-.3-.2-.5-.5-.5h-5zm16 2c-.3 0-.5.2-.5.5v6.5h6v-6.5c0-.3-.2-.5-.5-.5h-5zm-8 2c-.3 0-.5.2-.5.5v4.5h6v-4.5c0-.3-.2-.5-.5-.5h-5zm-13.5 6v1h32v-1h-32zm5 2v8.5c0 .3.2.5.5.5h5c.3 0 .5-.2.5-.5v-8.5h-6zm8 0v4.5c0 .3.2.5.5.5h5c.3 0 .5-.2.5-.5v-4.5h-6zm8 0v6.5c0 .3.2.5.5.5h5c.3 0 .5-.2.5-.5v-6.5h-6z"
  transform="translate(0 4)" />
</svg>