<svg xmlns="http://www.w3.org/2000/svg" version="1.1" width="16" height="16" data-icon="viewport" data-container-transform="translate(0 1)" viewBox="0 0 16 16">
  <path d="M0 0v14h16v-14h-16zm1.5 1c.276 0 .5.224.5.5s-.224.5-.5.5-.5-.224-.5-.5.224-.5.5-.5zm2 0c.276 0 .5.224.5.5s-.224.5-.5.5-.5-.224-.5-.5.224-.5.5-.5zm2 0h8c.276 0 .5.224.5.5s-.224.5-.5.5h-8c-.276 0-.5-.224-.5-.5s.224-.5.5-.5zm-4.5 2h14v10h-14v-10zm1 1v3h1v-2h2v-1h-3zm9 0v1h2v2h1v-3h-3zm-9 5v3h3v-1h-2v-2h-1zm11 0v2h-2v1h3v-3h-1z"
  transform="translate(0 1)" />
</svg>