<svg xmlns="http://www.w3.org/2000/svg" version="1.1" width="128" height="128" data-icon="viewport" data-container-transform="translate(0 10)" viewBox="0 0 128 128">
  <path d="M1.5 0c-.828 0-1.5.672-1.5 1.5v105c0 .828.672 1.5 1.5 1.5h125c.828 0 1.5-.672 1.5-1.5v-105c0-.828-.672-1.5-1.5-1.5h-125zm6.5 6v4l-4.125-2 4.125-2zm4 0l4 2-4 2v-4zm10 0h100.094c1.105 0 2 .895 2 2s-.895 2-2 2h-100.094c-1.105 0-2-.895-2-2s.895-2 2-2zm-18 8h120v90h-120v-90zm2 2v10h2v-8h8v-2h-10zm106 0v2h8v8h2v-10h-10zm-106 76v10h10v-2h-8v-8h-2zm114 0v8h-8v2h10v-10h-2z"
  transform="translate(0 10)" />
</svg>