<svg xmlns="http://www.w3.org/2000/svg" version="1.1" data-icon="volume-high" width="32" height="32" data-container-transform="scale(1 1 ) translate(0 3 )" viewBox="0 0 32 32">
  <path d="M26.719.281l-1.438 1.438c2.925 2.925 4.719 6.851 4.719 11.281 0 4.43-1.794 8.356-4.719 11.281l1.438 1.438c3.275-3.275 5.281-7.749 5.281-12.719s-2.006-9.444-5.281-12.719zm-13.219.719c-.3 0-.706.113-.906.313l-7.188 6.375c-.2.2-.606.313-.906.313h-4c-.3 0-.5.2-.5.5v9c0 .3.2.5.5.5h4c.3 0 .706.113.906.313l7.188 6.281c.2.2.606.313.906.313.3 0 .5-.2.5-.5v-23c0-.2-.2-.406-.5-.406zm9 3.5l-1.406 1.406c1.823 1.823 2.906 4.252 2.906 7.094 0 2.842-1.083 5.271-2.906 7.094l1.406 1.406c2.177-2.177 3.5-5.142 3.5-8.5 0-3.358-1.323-6.323-3.5-8.5zm-4.281 4.281l-1.438 1.438c.717.717 1.219 1.789 1.219 2.781 0 .992-.502 2.065-1.219 2.781l1.438 1.438c1.083-1.083 1.781-2.611 1.781-4.219s-.698-3.135-1.781-4.219z"
  transform="translate(0 3)" />
</svg>