<svg xmlns="http://www.w3.org/2000/svg" version="1.1" data-icon="volume-high" width="16" height="16" data-container-transform="scale(1 1 ) translate(0 1 )" viewBox="0 0 16 16">
  <path d="M13.344.656l-.688.688c1.406 1.406 2.344 3.501 2.344 5.656s-.938 4.251-2.344 5.656l.688.688c1.594-1.594 2.656-3.899 2.656-6.344 0-2.445-1.062-4.749-2.656-6.344zm-7.344.344l-3 3h-3v6h3l3 3h1v-12h-1zm5.25 1.75l-.719.719c.906.906 1.469 2.165 1.469 3.531 0 1.367-.563 2.626-1.469 3.531l.719.719c1.094-1.094 1.75-2.617 1.75-4.25s-.656-3.156-1.75-4.25zm-2.063 2.125l-.781.625c.354.443.594.943.594 1.5s-.239 1.057-.594 1.5l.781.625c.446-.557.813-1.282.813-2.125s-.367-1.568-.813-2.125z"
  transform="translate(0 1)" />
</svg>