<svg xmlns="http://www.w3.org/2000/svg" version="1.1" data-icon="volume-low" width="128" height="128" data-container-transform="translate(24 16 ) scale(1 1 )" viewBox="0 0 128 128">
  <path d="M55 0c-.6 0-1.494.4-2.094 1l-31.813 28c-.6.5-1.794 1-2.594 1h-17c-.8 0-1.5.7-1.5 1.5v33c0 .8.7 1.5 1.5 1.5h17c.8 0 1.994.4 2.594 1l31.813 28c.6.5 1.594 1 2.094 1 .5 0 1-.7 1-1.5v-93c0-.8-.4-1.5-1-1.5zm17.875 31.031l-5.563 5.75c2.941 2.862 4.688 6.785 4.688 11.219 0 4.433-1.746 8.357-4.688 11.219l5.563 5.75c4.459-4.338 7.125-10.402 7.125-16.969 0-6.567-2.666-12.63-7.125-16.969z"
  transform="translate(24 16)" />
</svg>