<svg xmlns="http://www.w3.org/2000/svg" version="1.1" data-icon="volume-off" width="128" height="128" data-container-transform="translate(12 16 ) scale(1 1 )" viewBox="0 0 128 128">
  <path d="M55 0c-.6 0-1.494.4-2.094 1l-31.813 28c-.6.5-1.794 1-2.594 1h-17c-.8 0-1.5.7-1.5 1.5v33c0 .8.7 1.5 1.5 1.5h17c.8 0 1.994.4 2.594 1l31.813 28c.6.5 1.594 1 2.094 1 .5 0 1-.7 1-1.5v-93c0-.8-.4-1.5-1-1.5zm15.844 29.156l-5.688 5.688 13.156 13.156-13.156 13.156 5.688 5.688 13.156-13.156 13.156 13.156 5.688-5.688-13.156-13.156 13.156-13.156-5.688-5.688-13.156 13.156-13.156-13.156z"
  transform="translate(12 16)" />
</svg>