<svg xmlns="http://www.w3.org/2000/svg" version="1.1" width="32" height="32" data-icon="weight" viewBox="0 0 32 32">
  <path d="M15.5 0c-2.479 0-4.5 2.021-4.5 4.5 0 1.95 1.26 3.596 3 4.219v.281h-5.5c-.276 0-.566.208-.656.469l-7.688 22.063c-.091.261.068.469.344.469h30c.276 0 .434-.208.344-.469l-7.688-22.063c-.091-.261-.38-.469-.656-.469h-5.5v-.281c1.74-.622 3-2.269 3-4.219 0-2.479-2.021-4.5-4.5-4.5zm0 1c1.939 0 3.5 1.561 3.5 3.5s-1.561 3.5-3.5 3.5-3.5-1.561-3.5-3.5 1.561-3.5 3.5-3.5z"
  />
</svg>