<svg xmlns="http://www.w3.org/2000/svg" version="1.1" width="128" height="128" data-icon="wifi" data-container-transform="translate(0 20)" viewBox="0 0 128 128">
  <path d="M64 0c-24.277 0-46.298 9.861-62.219 25.781l5.656 5.656c14.482-14.482 34.447-23.438 56.563-23.438 22.115 0 42.081 8.956 56.563 23.438l5.656-5.656c-15.92-15.92-37.942-25.781-62.219-25.781zm0 24c-17.649 0-33.673 7.173-45.25 18.75l5.656 5.656c10.139-10.139 24.107-16.406 39.594-16.406 15.487 0 29.456 6.268 39.594 16.406l5.656-5.656c-11.576-11.578-27.601-18.75-45.25-18.75zm0 24c-11.022 0-21.047 4.484-28.281 11.719l5.656 5.656c5.796-5.796 13.765-9.375 22.625-9.375s16.829 3.579 22.625 9.375l5.656-5.656c-7.234-7.234-17.259-11.719-28.281-11.719zm0 24c-4.419 0-8.417 1.793-11.313 4.688l11.313 11.313 11.313-11.313c-2.896-2.895-6.894-4.688-11.313-4.688z"
  transform="translate(0 20)" />
</svg>