<svg xmlns="http://www.w3.org/2000/svg" version="1.1" width="16" height="16" data-icon="wifi" data-container-transform="translate(0 3)" viewBox="0 0 16 16">
  <path d="M8 0c-2.755 0-5.254 1.129-7.063 2.938l1.406 1.406c1.449-1.449 3.441-2.344 5.656-2.344s4.207.895 5.656 2.344l1.406-1.406c-1.809-1.809-4.307-2.938-7.063-2.938zm0 4c-1.651 0-3.165.665-4.25 1.75l1.438 1.438c.725-.725 1.703-1.188 2.813-1.188 1.109 0 2.089.432 2.813 1.156l1.438-1.406c-1.084-1.084-2.599-1.75-4.25-1.75zm0 4c-.552 0-1.044.232-1.406.594l1.406 1.406 1.406-1.406c-.362-.362-.854-.594-1.406-.594z"
  transform="translate(0 3)" />
</svg>