<svg xmlns="http://www.w3.org/2000/svg" version="1.1" width="16" height="16" data-icon="wrench" viewBox="0 0 16 16">
  <path d="M12 0c-2.209 0-4 1.791-4 4 0 .764-.292 1.457-.781 1.969l-6.625 6.625c-.781.781-.781 2.031 0 2.813.39.391.894.594 1.406.594.512 0 1.016-.203 1.406-.594l6.625-6.625c.512-.489 1.205-.781 1.969-.781 2.209 0 4-1.791 4-4 0-.308-.028-.618-.094-.906l-1.906 1.906h-3v-3l1.906-1.906c-.288-.066-.598-.094-.906-.094zm-10 13c.552 0 1 .448 1 1s-.448 1-1 1-1-.448-1-1 .448-1 1-1z"
  />
</svg>