<svg xmlns="http://www.w3.org/2000/svg" version="1.1" data-icon="zoom-out" width="32" height="32" data-container-transform="scale(1 1 ) translate(0 )" viewBox="0 0 32 32">
  <path d="M12 0c-6.61 0-12 5.39-12 12s5.39 12 12 12c2.741 0 5.257-.944 7.281-2.5l1.594 1.625-.563.563c-.2.2-.2.519 0 .719l7.281 7.281c.2.2.519.2.719 0l3.281-3.281c.2-.2.2-.519 0-.719l-7.281-7.281c-.1-.2-.519-.2-.719 0l-.563.563-1.594-1.594c1.597-2.039 2.563-4.594 2.563-7.375 0-6.61-5.39-12-12-12zm0 3c4.988 0 9 4.012 9 9s-4.012 9-9 9-9-4.012-9-9 4.012-9 9-9zm-5 8v2h10v-2h-10z"
  />
</svg>