<svg xmlns="http://www.w3.org/2000/svg" width="22" height="22" viewBox="0 0 22 22">
  <path fill-rule="evenodd" d="M0,11.0062284 C0,10.6823529 0.136877828,10.383391 0.385746606,10.1467128 L8.16289593,2.37370242 C8.43665158,2.11211073 8.71040724,2 9.00904977,2 C9.64366516,2 10.1165158,2.46089965 10.1165158,3.09619377 C10.1165158,3.40761246 10.0045249,3.69411765 9.80542986,3.89342561 L7.16742081,6.58408304 L3.38461538,10.0346021 L6.19683258,9.86020761 L20.8676471,9.86020761 C21.5395928,9.86020761 22,10.333564 22,11.0062284 C22,11.666436 21.5395928,12.1397924 20.8676471,12.1397924 L6.19683258,12.1397924 L3.37217195,11.9653979 L7.16742081,15.415917 L9.80542986,18.1065744 C10.0045249,18.3058824 10.1165158,18.5923875 10.1165158,18.9038062 C10.1165158,19.5391003 9.64366516,20 9.00904977,20 C8.71040724,20 8.43665158,19.8878893 8.18778281,19.6512111 L0.385746606,11.8532872 C0.136877828,11.616609 0,11.3176471 0,11.0062284 Z"/>
</svg>
