<svg xmlns="http://www.w3.org/2000/svg" width="22" height="22" viewBox="0 0 22 22">
  <path fill-rule="evenodd" d="M22,11.0062284 C22,11.3176471 21.8755656,11.616609 21.6266968,11.8532872 L13.8246606,19.6512111 C13.5633484,19.8878893 13.3020362,20 13.0033937,20 C12.3687783,20 11.8834842,19.5391003 11.8834842,18.9038062 C11.8834842,18.5923875 12.0079186,18.3058824 12.2070136,18.1065744 L14.8450226,15.415917 L18.6278281,11.9653979 L15.8156109,12.1397924 L1.13235294,12.1397924 C0.472850679,12.1397924 0,11.666436 0,11.0062284 C0,10.333564 0.472850679,9.86020761 1.13235294,9.86020761 L15.8156109,9.86020761 L18.6153846,10.0346021 L14.8450226,6.58408304 L12.2070136,3.89342561 C11.9954751,3.69411765 11.8834842,3.40761246 11.8834842,3.09619377 C11.8834842,2.46089965 12.3687783,2 13.0033937,2 C13.3020362,2 13.5757919,2.11211073 13.8495475,2.37370242 L21.6266968,10.1467128 C21.8755656,10.383391 22,10.6823529 22,11.0062284 Z"/>
</svg>
