<?xml version="1.0" encoding="UTF-8"?>
<svg width="11px" height="12px" viewBox="0 0 11 12" version="1.1" xmlns="http://www.w3.org/2000/svg" xmlns:xlink="http://www.w3.org/1999/xlink">
    <g id="icon-asc" stroke="none" stroke-width="1" fill="none" fill-rule="evenodd">
        <polygon id="arrow" fill="#27282F" points="2 7 2 0 3 0 3 7 5 7 2.5 12 0 7"></polygon>
        <path d="M10.5,7.25122121 C10.5,7.32798364 10.4754453,7.40241881 10.4263352,7.47452896 L7.43922652,11.448709 L10.4558011,11.448709 L10.4558011,12 L6.5,12 L6.5,11.7348221 C6.5,11.6976039 6.50675254,11.6627124 6.52025783,11.6301465 C6.53376311,11.5975807 6.55033753,11.5661783 6.56998158,11.5359386 L9.56445672,7.551291 L6.63996317,7.551291 L6.63996317,7 L10.5,7 L10.5,7.25122121 Z" id="char-z" fill="#27282F" fill-rule="nonzero"></path>
        <path d="M9.4947839,3.14375436 L8.65648286,1.10956036 C8.63164419,1.04908088 8.60556397,0.978716382 8.57824143,0.898464759 C8.55091889,0.818213137 8.52483867,0.732728995 8.5,0.64200977 C8.44783879,0.830426622 8.39443644,0.987438311 8.33979136,1.11304955 L7.50149031,3.14375436 L9.4947839,3.14375436 Z M11,5 L10.4411326,5 C10.3765521,5 10.3243917,4.98488036 10.2846498,4.95464061 C10.2449079,4.92440087 10.2151019,4.88602024 10.195231,4.83949756 L9.69597615,3.63224006 L7.30029806,3.63224006 L6.80104322,4.83949756 C6.78614001,4.88136797 6.75757597,4.91858555 6.71535022,4.95115143 C6.67312448,4.98371731 6.62096374,5 6.55886736,5 L6,5 L8.13487332,0 L8.86512668,0 L11,5 Z" id="char-a" fill="#858A9B" fill-rule="nonzero"></path>
    </g>
</svg>
