<?xml version="1.0" encoding="UTF-8"?>
<svg width="11px" height="12px" viewBox="0 0 11 12" version="1.1" xmlns="http://www.w3.org/2000/svg" xmlns:xlink="http://www.w3.org/1999/xlink">
    <!-- Generator: Sketch 55.2 (78181) - https://sketchapp.com -->
    <title>icon-desc</title>
    <desc>Created with Sketch.</desc>
    <g id="icon-desc" stroke="none" stroke-width="1" fill="none" fill-rule="evenodd">
        <polygon id="arrow" fill="#27282F" points="2 7 2 0 3 0 3 7 5 7 2.5 12 0 7"></polygon>
        <path d="M9.4947839,10.1437544 L8.65648286,8.10956036 C8.63164419,8.04908088 8.60556397,7.97871638 8.57824143,7.89846476 C8.55091889,7.81821314 8.52483867,7.732729 8.5,7.64200977 C8.44783879,7.83042662 8.39443644,7.98743831 8.33979136,8.11304955 L7.50149031,10.1437544 L9.4947839,10.1437544 Z M11,12 L10.4411326,12 C10.3765521,12 10.3243917,11.9848804 10.2846498,11.9546406 C10.2449079,11.9244009 10.2151019,11.8860202 10.195231,11.8394976 L9.69597615,10.6322401 L7.30029806,10.6322401 L6.80104322,11.8394976 C6.78614001,11.881368 6.75757597,11.9185856 6.71535022,11.9511514 C6.67312448,11.9837173 6.62096374,12 6.55886736,12 L6,12 L8.13487332,7 L8.86512668,7 L11,12 Z" id="char-a" fill="#858A9B" fill-rule="nonzero"></path>
        <path d="M10.5,0.251221214 C10.5,0.327983636 10.4754453,0.402418807 10.4263352,0.47452896 L7.43922652,4.448709 L10.4558011,4.448709 L10.4558011,5 L6.5,5 L6.5,4.73482205 C6.5,4.69760391 6.50675254,4.66271242 6.52025783,4.63014655 C6.53376311,4.59758067 6.55033753,4.56617833 6.56998158,4.53593859 L9.56445672,0.551290998 L6.63996317,0.551290998 L6.63996317,0 L10.5,0 L10.5,0.251221214 Z" id="char-z" fill="#27282F" fill-rule="nonzero"></path>
    </g>
</svg>