<svg xmlns="http://www.w3.org/2000/svg" version="1.1" width="32" height="32" data-icon="magnifying-glass" viewBox="0 0 32 32">
  <path d="M12 0c-6.61 0-12 5.39-12 12s5.39 12 12 12c2.741 0 5.257-.944 7.281-2.5l1.594 1.625-.531.531c-.195.195-.195.492 0 .688l7.313 7.313c.195.195.492.195.688 0l3.313-3.313c.195-.195.195-.492 0-.688l-7.313-7.313c-.195-.195-.492-.195-.688 0l-.625.625-1.594-1.594c1.597-2.039 2.563-4.594 2.563-7.375 0-6.61-5.39-12-12-12zm0 3c4.988 0 9 4.012 9 9s-4.012 9-9 9-9-4.012-9-9 4.012-9 9-9z"
  />
</svg>