<svg xmlns="http://www.w3.org/2000/svg" width="22" height="22" viewBox="0 0 22 22">
  <path fill-opacity=".35" fill-rule="evenodd" d="M19.9441147,7.15596576 L19.9441147,16.6185126 C19.9441147,17.553464 19.7059482,18.2851393 19.2044531,18.7737267 C18.6963185,19.2687827 17.9368867,19.5 16.9732938,19.5 L16.9732938,19.5 L5.02670623,19.5 C4.06311332,19.5 3.30368153,19.2687827 2.79554687,18.7737267 C2.29405178,18.2851393 2.05588526,17.553464 2.05588526,16.6185126 L2.05588526,16.6185126 L2.05588526,7.15596576 L19.9441147,7.15596576 Z M14.5143422,11.1249331 L7.49653808,11.1249331 C7.05711258,11.1249331 6.68925663,11.2950411 6.43421221,11.6511705 C6.24670029,11.9130014 6.11523244,12.300418 6.11523244,12.8555377 C6.11523244,13.2631421 6.26642732,13.6037786 6.50717292,13.8464009 C6.75126212,14.0923928 7.0936797,14.2437132 7.49653808,14.2437132 L14.5143422,14.2437132 C14.9507318,14.2437132 15.3224509,14.0720058 15.5808225,13.7156303 C15.7723195,13.4514958 15.9065282,13.0629661 15.9065282,12.5131086 C15.9065282,12.0975073 15.7541455,11.7580162 15.5124221,11.5173794 C15.2681288,11.2741842 14.9242655,11.1249331 14.5143422,11.1249331 Z M1.99109792,0.5 C1.52050204,0.5 1.13766161,0.621250748 0.880413249,0.883935158 C0.619294081,1.15057217 0.5,1.54697523 0.5,2.03317282 L0.5,3.04975923 C0.5,3.54118255 0.608725111,3.94252782 0.870598134,4.20993461 C1.12318827,4.46786236 1.50550911,4.58293205 1.99109792,4.58293205 L20.0197824,4.58293205 C20.5033613,4.58293205 20.8826446,4.46897141 21.1326067,4.21232486 C21.3933605,3.94459796 21.5,3.54228885 21.5,3.04975923 L21.5,2.03317282 C21.5,1.5406432 21.3933605,1.13833409 21.1326067,0.870607187 C20.8826446,0.613960641 20.5033613,0.5 20.0197824,0.5 L1.99109792,0.5 Z" transform="translate(0 1)"/>
</svg>
