<svg xmlns="http://www.w3.org/2000/svg" width="22" height="22" viewBox="0 0 22 22">
  <path d="M6.21140473,19.5136761 C4.58970793,19.5136761 3.21279555,20.1061269 2.6416319,20.5634573 C2.27445526,20.8233042 1.94807603,21 1.42790913,21 C0.652758461,21 0.010199351,20.511488 0,19.3369803 L0,4.88949672 C0.703755216,3.53829322 2.80482151,2 5.57904497,2 C7.4863236,2 9.40380158,2.93544858 10.199351,4.15153173 L10.199351,20.8233042 C10.0769587,20.750547 9.6893834,20.5010941 9.50579509,20.3867615 C8.98562819,20.0437637 7.79230413,19.5136761 6.21140473,19.5136761 Z M15.7885953,19.5136761 C14.2076959,19.5136761 13.0143718,20.0437637 12.5044043,20.3867615 C12.3106166,20.5010941 11.9230413,20.7609409 11.800649,20.833698 L11.800649,4.15153173 C12.5961984,2.93544858 14.5136764,2 16.420955,2 C19.1951785,2 21.2962448,3.53829322 22,4.88949672 L22,19.3473742 C22,20.5218818 21.3472415,21 20.5720909,21 C20.051924,21 19.7153454,20.8233042 19.3583681,20.5634573 C18.7872045,20.1061269 17.4102921,19.5136761 15.7885953,19.5136761 Z"/>
</svg>
