<svg xmlns="http://www.w3.org/2000/svg" width="48" height="60" viewBox="0 0 48 60">
  <g fill="none" fill-rule="evenodd">
    <g transform="translate(3)">
      <path fill="#FFF" d="M0,2.11764706 C0,0.948102883 0.948102883,0 2.11764706,0 L30.0309917,0 L45,15.4271397 L45,57.8823529 C45,59.0518971 44.0518971,60 42.8823529,60 L2.11764706,60 C0.948102883,60 0,59.0518971 0,57.8823529 L0,2.11764706 Z"/>
      <g fill="#F2F1F0" transform="translate(6 30)">
        <rect width="33" height="3"/>
        <rect width="33" height="3" y="6"/>
        <rect width="33" height="3" y="12"/>
        <rect width="33" height="3" y="18"/>
      </g>
      <path fill="#F2F1F0" d="M31.01,1 L43.61,13.99 L34.01,13.99 C32.3531458,13.99 31.01,12.6468542 31.01,10.99 L31.01,1 Z"/>
    </g>
  </g>
</svg>
