<svg xmlns="http://www.w3.org/2000/svg" width="17" height="22" viewBox="0 0 17 22">
  <path fill-rule="evenodd" d="M6.225844,22 C4.10826542,22 3,20.8527919 3,18.6497462 L3,3.34010152 C3,1.14720812 4.10826542,0 6.225844,0 L10.7479627,0 L10.7479627,7.69543147 C10.7479627,8.96446701 11.3416764,9.57360406 12.5785797,9.57360406 L20,9.57360406 L20,18.6497462 C20,20.8426396 18.9016298,22 16.774156,22 L6.225844,22 Z M12.7665891,8.09137056 C12.3905704,8.09137056 12.2025611,7.89847716 12.1926659,7.50253807 L12.1926659,0.101522843 C12.6478463,0.162436548 13.0931315,0.507614213 13.5878929,1.01522843 L19.0005821,6.64974619 C19.5151339,7.18781726 19.8416764,7.62436548 19.9010477,8.09137056 L12.7665891,8.09137056 Z M11.5,19.3401015 C11.9650757,19.3401015 12.3608847,18.9746193 12.3608847,18.5076142 L12.3608847,15.2893401 L12.2817229,13.8274112 L12.9941793,14.5786802 L13.7759022,15.4010152 C13.9243306,15.5634518 14.1420256,15.6751269 14.3498254,15.6751269 C14.7951106,15.6751269 15.1315483,15.3502538 15.1315483,14.9035533 C15.1315483,14.6497462 15.032596,14.4670051 14.854482,14.3045685 L12.153085,11.7461929 C11.93539,11.5431472 11.7374854,11.4517766 11.5,11.4517766 C11.2625146,11.4517766 11.06461,11.5431472 10.846915,11.7461929 L8.14551804,14.3045685 C7.95750873,14.4670051 7.86845169,14.6497462 7.86845169,14.9035533 C7.86845169,15.3502538 8.20488941,15.6751269 8.65017462,15.6751269 C8.85797439,15.6751269 9.07566938,15.5634518 9.22409779,15.4010152 L10.0157159,14.5786802 L10.7182771,13.8274112 L10.6391153,15.2893401 L10.6391153,18.5076142 C10.6391153,18.9746193 11.0349243,19.3401015 11.5,19.3401015 Z" transform="translate(-3)"/>
</svg>
