<svg xmlns="http://www.w3.org/2000/svg" width="22" height="22" viewBox="0 0 22 22" stroke="black">
    <path fill-opacity=".35" d="M9.74796275,0.5 L6.225844,0.5 C5.33389257,0.5 4.63924037,0.717985332 4.17842364,1.19512392 C3.71219677,1.67786428 3.5,2.40495983 3.5,3.34010152 L3.5,18.6497462 C3.5,19.5895912 3.7120786,20.319276 4.17830648,20.8034847 C4.63903049,21.2819772 5.33377585,21.5 6.225844,21.5 L16.774156,21.5 C17.6683054,21.5 18.3619873,21.2809725 18.8216375,20.8035951 C19.2889475,20.3182626 19.5,19.5874397 19.5,18.6497462 L19,10.0736041 L12.5785797,10.0736041 C11.7890417,10.0736041 11.2230927,9.85103122 10.8413751,9.45939739 C10.4635913,9.0717995 10.2479627,8.49664663 10.2479627,7.69543147 L9.74796275,0.5 Z"/>
    <path fill="none" d="M10.3237084,0.5 L6.225844,0.5 C5.33389257,0.5 4.63924037,0.717985332 4.17842364,1.19512392 C3.71219677,1.67786428 3.5,2.40495983 3.5,3.34010152 L3.5,18.6497462 C3.5,19.5895912 3.7120786,20.319276 4.17830648,20.8034847 C4.63903049,21.2819772 5.33377585,21.5 6.225844,21.5 L16.774156,21.5 C17.6683054,21.5 18.3619873,21.2809725 18.8216375,20.8035951 C19.2889475,20.3182626 19.5,19.5874397 19.5,18.6497462 L19.3595401,9.63038407 L10.3237084,0.5 Z"/>
</svg>