<svg xmlns="http://www.w3.org/2000/svg" width="22" height="22" viewBox="0 0 22 22">
  <path fill-rule="evenodd" d="M9.01901566,17.868144 C4.04809843,17.868144 0,13.8459834 0,8.93407202 C0,4.02216066 4.04809843,0 9.01901566,0 C13.9776286,0 18.0380313,4.02216066 18.0380313,8.93407202 C18.0380313,10.9207756 17.3736018,12.7612188 16.253915,14.2481994 L21.5939597,19.5501385 C21.8769575,19.8304709 22,20.1961219 22,20.5739612 C22,21.3783934 21.409396,22 20.5850112,22 C20.1912752,22 19.8221477,21.865928 19.5391499,21.5977839 L14.1621924,16.2592798 C12.6979866,17.2709141 10.9261745,17.868144 9.01901566,17.868144 Z M9.01901566,15.7839335 C12.8087248,15.7839335 15.9340045,12.6880886 15.9340045,8.93407202 C15.9340045,5.1800554 12.8087248,2.08421053 9.01901566,2.08421053 C5.21700224,2.08421053 2.0917226,5.1800554 2.0917226,8.93407202 C2.0917226,12.6880886 5.21700224,15.7839335 9.01901566,15.7839335 Z"/>
</svg>
