<svg xmlns="http://www.w3.org/2000/svg" width="48" height="60" viewBox="0 0 48 60">
  <g fill="none" fill-rule="evenodd">
    <polygon fill="#2F619C" points=".282 20.859 3.529 20.859 3.529 24.388"/>
    <g transform="translate(3)">
      <path fill="#FFF" d="M0,2.11764706 L0,57.8823529 C1.43227853e-16,59.0518971 0.948102883,60 2.11764706,60 L42.8823529,60 C44.0518971,60 45,59.0518971 45,57.8823529 L45,15.4271397 L30.0309917,0 L2.11764706,0 C0.948102883,2.1484178e-16 -1.43227853e-16,0.948102883 0,2.11764706 Z"/>
      <path fill="#F2F1F0" d="M31.01 1L43.61 13.99 34.01 13.99C32.3531458 13.99 31.01 12.6468542 31.01 10.99L31.01 1zM5.47058824 59.7058824C9.55430556 37.7722196 19.554304 26.7722197 35.4705882 26.7058824 30.1019172 37.3525017 30.0906857 48.3525017 35.4368937 59.7058824L5.47058824 59.7058824 5.47058824 59.7058824z"/>
    </g>
    <g transform="translate(0 10.412)">
      <rect width="32.099" height="11.294" fill="#3A79C2" rx="1.783"/>
      <path fill="#FFF" fill-rule="nonzero" d="M3.94242049,2.29876161 L6.5662595,2.29876161 C7.87585703,2.29876161 8.77678582,3.1996904 8.77678582,4.51857585 C8.77678582,5.80959752 7.84799325,6.71052632 6.53375176,6.71052632 L4.98266817,6.71052632 L4.98266817,9 L3.94242049,9 L3.94242049,2.29876161 Z M4.98266817,3.17647059 L4.98266817,5.8374613 L6.29226569,5.8374613 C7.18855052,5.8374613 7.71331833,5.35913313 7.71331833,4.51857585 C7.71331833,3.6501548 7.20712638,3.17647059 6.29226569,3.17647059 L4.98266817,3.17647059 Z M12.9239966,9.1625387 C11.0617675,9.1625387 9.90077681,7.81578947 9.90077681,5.65170279 C9.90077681,3.48297214 11.0571236,2.13622291 12.9193527,2.13622291 C14.3961328,2.13622291 15.5385477,3.07894737 15.7057304,4.42105263 L14.6701267,4.42105263 C14.4750802,3.58978328 13.8017056,3.06037152 12.9193527,3.06037152 C11.7165663,3.06037152 10.9642443,4.05882353 10.9642443,5.65170279 C10.9642443,7.24458204 11.7165663,8.23839009 12.9239966,8.23839009 C13.8109935,8.23839009 14.4843681,7.76006192 14.6701267,6.99845201 L15.7057304,6.99845201 C15.5199719,8.30340557 14.4193527,9.1625387 12.9239966,9.1625387 Z M21.2739938,9 L20.6609907,7.18885449 L18.1068111,7.18885449 L17.4891641,9 L16.4210526,9 L18.8405573,2.29876161 L19.9597523,2.29876161 L22.379257,9 L21.2739938,9 Z M19.3467492,3.48297214 L18.371517,6.35294118 L20.3962848,6.35294118 L19.4256966,3.48297214 L19.3467492,3.48297214 Z M23.6054151,2.29876161 L26.2292541,2.29876161 C27.5388517,2.29876161 28.4397805,3.1996904 28.4397805,4.51857585 C28.4397805,5.80959752 27.5109879,6.71052632 26.1967464,6.71052632 L24.6456628,6.71052632 L24.6456628,9 L23.6054151,9 L23.6054151,2.29876161 Z M24.6456628,3.17647059 L24.6456628,5.8374613 L25.9552603,5.8374613 C26.8515452,5.8374613 27.376313,5.35913313 27.376313,4.51857585 C27.376313,3.6501548 26.870121,3.17647059 25.9552603,3.17647059 L24.6456628,3.17647059 Z"/>
    </g>
  </g>
</svg>
