<svg xmlns="http://www.w3.org/2000/svg" width="22" height="22" viewBox="0 0 22 22">
  <path fill="#757371" fill-rule="evenodd" d="M11,22 C11.2537212,22 11.8829499,20.7612613 11.8829499,19.363964 L11.8829499,14.963964 L17.0588633,14.963964 C17.9418133,14.963964 18.5,14.4288288 18.5,13.6162162 C18.5,11.6243243 16.876184,9.63243243 14.3592693,8.66126126 L14.0548038,4.25135135 C15.2726658,3.46846847 16.4194858,2.58648649 16.9167794,1.95225225 C17.1705007,1.63513514 17.282138,1.30810811 17.282138,1.02072072 C17.282138,0.436036036 16.8254398,0 16.135318,0 L5.87483085,0 C5.17456022,0 4.71786198,0.436036036 4.71786198,1.02072072 C4.71786198,1.30810811 4.83964817,1.63513514 5.09336942,1.95225225 C5.58051421,2.58648649 6.73748309,3.46846847 7.95534506,4.25135135 L7.64073072,8.66126126 C5.13396482,9.63243243 3.5,11.6243243 3.5,13.6162162 C3.5,14.4288288 4.06833559,14.963964 4.94113667,14.963964 L10.1170501,14.963964 L10.1170501,19.363964 C10.1170501,20.7612613 10.7564276,22 11,22 Z M12.7456022,8.20540541 C12.1874154,8.10630631 11.608931,8.04684685 11,8.04684685 C10.4012179,8.04684685 9.81258457,8.10630631 9.26454668,8.20540541 L9.54871448,3.53783784 C9.55886333,3.3990991 9.53856563,3.33963964 9.43707713,3.29009009 C8.04668471,2.5963964 6.97090663,1.77387387 6.86941813,1.57567568 C6.78822733,1.46666667 6.86941813,1.38738739 6.97090663,1.38738739 L15.0392422,1.38738739 C15.1407307,1.38738739 15.2117727,1.46666667 15.1407307,1.57567568 C15.0392422,1.77387387 13.9634641,2.5963964 12.5629229,3.29009009 C12.4715832,3.33963964 12.4411367,3.3990991 12.4512855,3.53783784 L12.7456022,8.20540541 Z M16.6529093,13.4873874 L5.34709066,13.4873874 C5.14411367,13.4873874 5.04262517,13.3783784 5.08322057,13.1306306 C5.29634641,11.4558559 7.52909337,9.47387387 11,9.47387387 C14.4709066,9.47387387 16.7036536,11.4558559 16.9269283,13.1306306 C16.9573748,13.3783784 16.8660352,13.4873874 16.6529093,13.4873874 Z"/>
</svg>
