<svg xmlns="http://www.w3.org/2000/svg" width="22" height="22" viewBox="0 0 22 22">
  <path fill-rule="evenodd" d="M11,22 C11.2537212,22 11.8829499,20.7612613 11.8829499,19.363964 L11.8829499,14.963964 L17.0588633,14.963964 C17.9418133,14.963964 18.5,14.4288288 18.5,13.6162162 C18.5,11.6243243 16.876184,9.54324324 14.1664411,8.57207207 L13.8518268,4.25135135 C15.2726658,3.46846847 16.4093369,2.5963964 16.9066306,1.96216216 C17.1705007,1.63513514 17.282138,1.31801802 17.282138,1.02072072 C17.282138,0.436036036 16.8254398,0 16.135318,0 L5.87483085,0 C5.17456022,0 4.71786198,0.436036036 4.71786198,1.02072072 C4.71786198,1.31801802 4.83964817,1.63513514 5.09336942,1.96216216 C5.59066306,2.5963964 6.73748309,3.46846847 8.14817321,4.25135135 L7.83355886,8.57207207 C5.13396482,9.54324324 3.5,11.6243243 3.5,13.6162162 C3.5,14.4288288 4.06833559,14.963964 4.94113667,14.963964 L10.1170501,14.963964 L10.1170501,19.363964 C10.1170501,20.7612613 10.7564276,22 11,22 Z"/>
</svg>
