<svg xmlns="http://www.w3.org/2000/svg" width="22" height="22" viewBox="0 0 22 22">
  <path fill="#757371" fill-rule="evenodd" d="M17.7817634,21.3083395 C18.2090812,20.9960583 18.3028827,20.4651802 18.042323,19.7261146 L15.9995353,13.6366305 L21.2315733,9.88925575 C21.8569165,9.44165264 22.1174761,8.96282142 21.9507179,8.45276207 C21.7839597,7.94270273 21.2941076,7.70328711 20.522851,7.71369649 L14.102661,7.75533399 L12.1536747,1.63462181 C11.9035374,0.885146854 11.5387539,0.5 11.0072122,0.5 C10.4652481,0.5 10.1004646,0.885146854 9.85032732,1.63462181 L7.90134106,7.75533399 L1.48115103,7.71369649 C0.70989444,7.70328711 0.220042279,7.94270273 0.053284097,8.45276207 C-0.123896472,8.96282142 0.147085575,9.44165264 0.772428759,9.88925575 L6.00446673,13.6366305 L3.961679,19.7261146 C3.70111934,20.4651802 3.79492082,20.9960583 4.22223866,21.3083395 C4.6495565,21.6414395 5.18109821,21.5269364 5.81686378,21.0689239 L11.0072122,17.2695022 L16.1871382,21.0689239 C16.8229038,21.5269364 17.3544455,21.6414395 17.7817634,21.3083395 Z"/>
</svg>
