<svg xmlns="http://www.w3.org/2000/svg" width="22" height="22" viewBox="0 0 22 22">
  <path fill="#757371" fill-rule="evenodd" d="M17.7817634,21.3083395 C18.2090812,20.9960583 18.3028827,20.4651802 18.042323,19.7261146 L15.9995353,13.6366305 L21.2315733,9.88925575 C21.8569165,9.44165264 22.1174761,8.96282142 21.9507179,8.45276207 C21.7839597,7.94270273 21.2941076,7.70328711 20.522851,7.71369649 L14.102661,7.75533399 L12.1536747,1.63462181 C11.9035374,0.885146854 11.5387539,0.5 11.0072122,0.5 C10.4652481,0.5 10.1004646,0.885146854 9.85032732,1.63462181 L7.90134106,7.75533399 L1.48115103,7.71369649 C0.70989444,7.70328711 0.220042279,7.94270273 0.053284097,8.45276207 C-0.123896472,8.96282142 0.147085575,9.44165264 0.772428759,9.88925575 L6.00446673,13.6366305 L3.961679,19.7261146 C3.70111934,20.4651802 3.79492082,20.9960583 4.22223866,21.3083395 C4.6495565,21.6414395 5.18109821,21.5269364 5.81686378,21.0689239 L11.0072122,17.2695022 L16.1871382,21.0689239 C16.8229038,21.5269364 17.3544455,21.6414395 17.7817634,21.3083395 Z M16.1558711,19.1952365 L11.5283315,15.6456398 C11.1843928,15.3749961 10.8196093,15.3749961 10.4756705,15.6456398 L5.84813094,19.1952365 C5.79601901,19.2264646 5.77517423,19.236874 5.75432946,19.2160552 C5.73348469,19.1848271 5.74390707,19.1848271 5.75432946,19.1223709 L7.68247094,13.6158118 C7.82838435,13.1994368 7.76585004,12.897565 7.38022174,12.6373306 L2.57550161,9.32714953 C2.52338967,9.2959214 2.51296729,9.27510265 2.52338967,9.2542839 C2.53381206,9.22305578 2.55465683,9.22305578 2.61719115,9.22305578 L8.44330515,9.3375589 C8.89146777,9.34796827 9.15202743,9.19182766 9.27709606,8.74422456 L10.9446779,3.16479986 C10.9551003,3.11275298 10.975945,3.09193424 11.0072122,3.09193424 C11.028057,3.09193424 11.0489018,3.11275298 11.0593241,3.16479986 L12.726906,8.74422456 C12.8519746,9.19182766 13.1125343,9.34796827 13.5606969,9.3375589 L19.3972333,9.22305578 C19.4493452,9.22305578 19.47019,9.22305578 19.4806124,9.2542839 C19.4910347,9.27510265 19.4806124,9.2959214 19.4285004,9.32714953 L14.6237803,12.6373306 C14.238152,12.897565 14.1756177,13.1994368 14.3215311,13.6158118 L16.2496726,19.1223709 C16.260095,19.1848271 16.2705173,19.1848271 16.2496726,19.2160552 C16.2288278,19.236874 16.207983,19.2264646 16.1558711,19.1952365 Z"/>
</svg>
