<svg xmlns="http://www.w3.org/2000/svg" width="22" height="22" viewBox="0 0 22 22">
  <g stroke="transparent" fill-rule="evenodd" transform="translate(3)">
    <path d="M7.32370839,0 C7.59484843,0 7.85436604,0.110101477 8.04278859,0.305072909 L16.7190802,9.28292052 C16.8992769,9.46938018 17,9.71854462 17,9.97784762 L17,18.6497462 C17,20.7670226 15.9760734,21.9189507 13.9905657,21.9958765 L13.774156,22 L9,22 L9,21 L13.774156,21 C15.271499,21 15.9452813,20.360075 15.9967881,18.8438548 L16,18.6497462 L16,10.5736041 L9.57857974,10.5736041 C7.84767794,10.5736041 6.82290335,9.5856318 6.75191295,7.88707063 L6.74796275,7.69543147 L6.74796275,1 L3.225844,1 C1.73065974,1 1.05489143,1.63773366 1.00322226,3.1469001 L1,3.34010152 L1,13 L0,13 L0,3.34010152 C0,1.14720812 1.10826542,0 3.225844,0 L7.32370839,0 Z M7.747,1.439 L7.74796275,7.69543147 C7.74796275,8.96446701 8.34167637,9.57360406 9.57857974,9.57360406 L15.61,9.573 L7.747,1.439 Z"/>
    <path fill-opacity=".35" d="M6.74796275,0 C7.3002475,0 7.74796275,0.44771525 7.74796275,1 L7.74796275,7.69543147 C7.74796275,8.96446701 8.34167637,9.57360406 9.57857974,9.57360406 L16,9.57360406 C16.5522847,9.57360406 17,10.0213193 17,10.5736041 L17,18.6497462 C17,20.8426396 15.9016298,22 13.774156,22 L9,22 L9,14 C9,13.4871642 8.61395981,13.0644928 8.11662113,13.0067277 L8,13 L0,13 L0,3.34010152 C0,1.14720812 1.10826542,0 3.225844,0 L6.74796275,0 Z"/>
    <g class="chunk" transform="translate(0 15)">
      <path fill-opacity=".35" d="M0,0 L7,0 L7,7 L3.225844,7 C1.10826542,7 0,5.85279188 0,3.64974619 L0,0 Z"/>
      <path fill-rule="nonzero" d="M1,0 L1,3.64974619 C1,5.24090359 1.61529245,5.94303269 3.04311942,5.99665717 L3.225844,6 L7,6 L7,7 L3.225844,7 C1.10826542,7 0,5.85279188 0,3.64974619 L0,0 L1,0 Z"/>
    </g>
  </g>
</svg>
