<svg xmlns="http://www.w3.org/2000/svg" width="48" height="60" viewBox="0 0 48 60">
  <g fill="none" fill-rule="evenodd">
    <polygon fill="#1E919E" points=".282 20.859 3.529 20.859 3.529 24.388"/>
    <g transform="translate(3)">
      <path fill="#FFF" d="M0,2.11764706 C0,0.948102883 0.948102883,0 2.11764706,0 L30.0309917,0 L45,15.4271397 L45,57.8823529 C45,59.0518971 44.0518971,60 42.8823529,60 L2.11764706,60 C0.948102883,60 0,59.0518971 0,57.8823529 L0,2.11764706 Z"/>
      <g fill="#F2F1F0" transform="translate(6 30)">
        <rect width="33" height="3"/>
        <rect width="33" height="3" y="6"/>
        <rect width="33" height="3" y="12"/>
        <rect width="33" height="3" y="18"/>
      </g>
      <path fill="#F2F1F0" d="M31.01,1 L43.61,13.99 L34.01,13.99 C32.3531458,13.99 31.01,12.6468542 31.01,10.99 L31.01,1 Z"/>
    </g>
    <g transform="translate(0 10.412)">
      <rect width="32.099" height="11.294" fill="#27C0D1" rx="1.783"/>
      <path fill="#FFF" fill-rule="nonzero" d="M4.4416465,9 L4.4416465,8.28947368 L8.08251337,3.27399381 L8.08251337,3.19504644 L4.55310161,3.19504644 L4.55310161,2.29876161 L9.38746693,2.29876161 L9.38746693,3.00928793 L5.76517591,8.0247678 L5.76517591,8.10371517 L9.47570223,8.10371517 L9.47570223,9 L4.4416465,9 Z M15.2808078,8.10371517 L15.2808078,9 L11.0269378,9 L11.0269378,2.29876161 L15.2808078,2.29876161 L15.2808078,3.19504644 L12.0671855,3.19504644 L12.0671855,5.15479876 L15.1089811,5.15479876 L15.1089811,6.01857585 L12.0671855,6.01857585 L12.0671855,8.10371517 L15.2808078,8.10371517 Z M21.0952012,8.10371517 L21.0952012,9 L16.8413313,9 L16.8413313,2.29876161 L21.0952012,2.29876161 L21.0952012,3.19504644 L17.8815789,3.19504644 L17.8815789,5.15479876 L20.9233746,5.15479876 L20.9233746,6.01857585 L17.8815789,6.01857585 L17.8815789,8.10371517 L21.0952012,8.10371517 Z M23.6959724,9 L22.6557247,9 L22.6557247,2.29876161 L23.6959724,2.29876161 L23.6959724,5.46594427 L23.7702758,5.46594427 L26.5427216,2.29876161 L27.7733718,2.29876161 L25.1820405,5.20588235 L27.996282,9 L26.6959724,9 L24.4482944,5.91176471 L23.6959724,6.76625387 L23.6959724,9 Z"/>
    </g>
  </g>
</svg>
