<svg xmlns="http://www.w3.org/2000/svg" width="1157" height="1196" viewBox="0 0 1157 1196">
  <defs>
    <clipPath id="welcome-page-background-a">
      <path d="M698.710937,0 L698.710937,454.895833 C548.81517,460.143293 471.180621,460.143293 465.807292,454.895833 C457.747297,447.024643 484.517985,249.904279 465.807292,227.447917 C453.333496,212.477009 298.064399,212.477009 0,227.447917 L0,0 L698.710937,0 Z"/>
    </clipPath>
    <clipPath id="welcome-page-background-b">
      <path d="M232.903646,4.06683931 C241.232425,12.2005179 209.613281,220.14236 232.903646,231.514756 C248.430556,239.096353 403.699653,239.096353 698.710937,231.514756 L698.710937,458.962673 L0,458.962673 L0,4.06683931 C149.716578,-1.3556131 227.351127,-1.3556131 232.903646,4.06683931 Z"/>
    </clipPath>
    <clipPath id="welcome-page-background-c">
      <path d="M696.712846,0 L696.712846,454.893893 C547.245733,460.141331 469.833194,460.141331 464.475231,454.893893 C456.438286,447.022737 483.132418,249.903213 464.475231,227.446947 C452.037106,212.476102 297.212029,212.476102 0,227.446947 L0,0 L696.712846,0 Z"/>
    </clipPath>
    <clipPath id="welcome-page-background-d">
      <path d="M232.237615,4.06682196 C240.542577,12.2004659 209.013854,220.141421 232.237615,231.513769 C247.720123,239.095333 402.5452,239.095333 696.712846,231.513769 L696.712846,458.960715 L0,458.960715 L0,4.06682196 C149.288436,-1.35560732 226.700975,-1.35560732 232.237615,4.06682196 Z"/>
    </clipPath>
  </defs>
  <g opacity="50.307%">
    <g opacity="30%" transform="rotate(45 241.487 687.651)">
      <g clip-path="url(#welcome-page-background-a)">
        <polygon fill="#FFBC7A" points="0 0 698.711 0 698.711 458.831 0 458.831 0 0"/>
      </g>
      <g clip-path="url(#welcome-page-background-b)" transform="translate(139.742 314.36)">
        <polygon fill="#FFBC7A" points="0 0 698.711 0 698.711 458.963 0 458.963 0 0"/>
      </g>
    </g>
    <g transform="rotate(45 273.41 660.07)">
      <g clip-path="url(#welcome-page-background-c)">
        <path fill="none" stroke="#FF7E00" stroke-miterlimit="5" d="M0,227.446947 L0,0 L696.712846,0 L696.712846,454.893893 C547.245733,460.141331 469.833194,460.141331 464.475231,454.893893 C456.438286,447.022737 483.132418,249.903213 464.475231,227.446947 C452.037106,212.476102 297.212029,212.476102 0,227.446947 Z"/>
      </g>
      <g clip-path="url(#welcome-page-background-d)" transform="translate(139.343 314.359)">
        <path fill="none" stroke="#FF7E00" stroke-miterlimit="5" d="M696.712846,231.513769 L696.712846,458.960715 L0,458.960715 L0,4.06682196 C149.288436,-1.35560732 226.700975,-1.35560732 232.237615,4.06682196 C240.542577,12.2004659 209.013854,220.141421 232.237615,231.513769 C247.720123,239.095333 402.5452,239.095333 696.712846,231.513769 Z"/>
      </g>
    </g>
  </g>
</svg>
