<?xml version="1.0" encoding="UTF-8"?>
<svg width="68.375px" height="68.375px" viewBox="0 0 68.375 68.375" version="1.1" xmlns="http://www.w3.org/2000/svg" xmlns:xlink="http://www.w3.org/1999/xlink">
    <title>icon</title>
    <defs>
        <path d="M64.375,20.0489895 C64.375,19.2847735 64.375,18.5204794 64.3706173,17.7561854 C64.3667892,17.1123596 64.3593674,16.46869 64.3418675,15.8251768 C64.3040553,14.4226037 64.2213215,13.0079995 63.9718702,11.6210514 C63.7189034,10.2141034 63.3057814,8.90465508 62.6547706,7.62630036 C62.0147753,6.36982056 61.1787659,5.22005912 60.1812733,4.22326587 C59.184015,3.22647263 58.0339454,2.39100692 56.7770016,1.75139987 C55.4973236,1.10023037 54.1864739,0.687263123 52.7779687,0.434373419 C51.3908696,0.185311825 49.9758801,0.102734001 48.5733123,0.0648435139 C47.9293327,0.0474217023 47.2853531,0.0400779791 46.6412173,0.0360936186 C45.8765354,0.0314061357 45.1118536,0.0317967592 44.3471717,0.0317967592 L35.4684875,0 L28.8279116,0 L20.1063355,0.0317967592 C19.3401693,0.0317967592 18.5740031,0.0314061357 17.8078369,0.0360936186 C17.162373,0.0400779791 16.5172215,0.0474217023 15.8719919,0.0648435139 C14.4661429,0.102734001 13.0479503,0.18538995 11.65757,0.434764042 C10.2471898,0.687575622 8.93438699,1.10038662 7.65299023,1.75108737 C6.39339018,2.39077255 5.24082058,3.22631638 4.24145298,4.22326587 C3.24224163,5.219981 2.4046697,6.36950806 1.76350257,7.62575349 C1.1106949,8.9047332 0.696791717,10.2149628 0.443199844,11.6226921 C0.193514193,13.0090933 0.11078043,14.4232287 0.0727338366,15.8251768 C0.055390215,16.4687682 0.0478902705,17.1124377 0.0439840494,17.7561854 C0.0392965841,18.5205576 0,19.4700072 0,20.2343013 L0,28.8350513 L0,35.5467456 L0.0396872062,44.3302292 C0.0396872062,45.0955389 0.0393747086,45.8608487 0.0439840494,46.6261584 C0.0478902705,47.2708435 0.055390215,47.9153724 0.0728119611,48.5598232 C0.11078043,49.9641931 0.193670441,51.3808286 0.443590467,52.7696516 C0.697104215,54.1784746 1.11092928,55.489798 1.76319007,56.7697933 C2.40443533,58.02807 3.2421635,59.1793158 4.24145298,60.1775153 C5.24074246,61.1757148 6.39299955,62.0122742 7.65236523,62.6528188 C8.93454324,63.3048476 10.247971,63.7183618 11.6592106,63.971564 C13.0489659,64.2210162 14.4666898,64.3037503 15.8719919,64.3416407 C16.5172215,64.3590626 17.1624511,64.3664844 17.8079151,64.3703906 C18.5740813,64.375 19.3401693,64.375 20.1063355,64.375 L28.9067392,64.375 L35.5637993,64.375 L44.3471717,64.375 C45.1118536,64.375 45.8765354,64.375 46.6412173,64.3703906 C47.2853531,64.3664844 47.9293327,64.3590626 48.5733123,64.3416407 C49.976427,64.3036721 51.3918852,64.2208599 52.7796093,63.9712515 C54.1872552,63.7180493 55.4974798,63.3046914 56.7764547,62.6530531 C58.0336329,62.0125867 59.1839369,61.175871 60.1812733,60.1775153 C61.1786097,59.179472 62.014541,58.0283825 62.6545362,56.7703402 C63.3059377,55.4897198 63.7190596,54.1777715 63.9721827,52.768011 C64.2213996,51.3797348 64.3040553,49.9636462 64.3419456,48.5598232 C64.3593674,47.9152943 64.3667892,47.2707654 64.3706173,46.6261584 C64.375,45.8608487 64.375,45.0955389 64.375,44.3302292 C64.375,44.3302292 64.375,35.7018231 64.375,35.5467456 L64.375,28.82802 C64.375,28.7134892 64.375,20.0489895 64.375,20.0489895" id="path-1"></path>
        <filter x="-5.4%" y="-3.9%" width="110.9%" height="110.9%" filterUnits="objectBoundingBox" id="filter-3">
            <feOffset dx="0" dy="1" in="SourceAlpha" result="shadowOffsetOuter1"></feOffset>
            <feGaussianBlur stdDeviation="1" in="shadowOffsetOuter1" result="shadowBlurOuter1"></feGaussianBlur>
            <feColorMatrix values="0 0 0 0 0   0 0 0 0 0   0 0 0 0 0  0 0 0 0.3 0" type="matrix" in="shadowBlurOuter1"></feColorMatrix>
        </filter>
        <filter x="-4.9%" y="-2.3%" width="109.7%" height="109.2%" filterUnits="objectBoundingBox" id="filter-4">
            <feOffset dx="0" dy="1" in="SourceAlpha" result="shadowOffsetOuter1"></feOffset>
            <feGaussianBlur stdDeviation="0.5" in="shadowOffsetOuter1" result="shadowBlurOuter1"></feGaussianBlur>
            <feColorMatrix values="0 0 0 0 0   0 0 0 0 0   0 0 0 0 0  0 0 0 0.0982742843 0" type="matrix" in="shadowBlurOuter1" result="shadowMatrixOuter1"></feColorMatrix>
            <feMerge>
                <feMergeNode in="shadowMatrixOuter1"></feMergeNode>
                <feMergeNode in="SourceGraphic"></feMergeNode>
            </feMerge>
        </filter>
    </defs>
    <g id="Update-Page" stroke="none" stroke-width="1" fill="none" fill-rule="evenodd">
        <g id="Artboard" transform="translate(-63.8125, -36.8125)">
            <g id="Artwork" transform="translate(65.8125, 37.8125)">
                <mask id="mask-2" fill="white">
                    <use xlink:href="#path-1"></use>
                </mask>
                <g id="Mask">
                    <use fill="black" fill-opacity="1" filter="url(#filter-3)" xlink:href="#path-1"></use>
                    <use fill="#FFFFFF" fill-rule="evenodd" xlink:href="#path-1"></use>
                </g>
                <g id="icon" mask="url(#mask-2)">
                    <g transform="translate(-0, -0)">
                        <polygon id="Rectangle" fill="#F3F5F6" points="15.2780495 36.1526837 33.2807971 54.2137504 23.2588166 64.375 5.46116085e-14 64.375 0 7.35479386e-15"></polygon>
                        <polygon id="Rectangle-Copy" fill="#F3F5F6" points="31.0351714 10.7281278 42.2263357 9.81159598e-15 64.375 2.66453526e-15 64.375 64.375 49.0978859 30.4347699"></polygon>
                        <polygon id="Rectangle-Copy-3" fill="#F3F5F6" points="15.2780495 36.1526837 33.2807971 54.2137504 23.2588166 64.375 5.46116085e-14 64.375 0 7.35479386e-15"></polygon>
                        <polygon id="Rectangle-Copy-2" fill="#F3F5F6" points="31.0351714 10.7281278 42.2263357 9.81159598e-15 64.375 2.66453526e-15 64.375 64.375 49.0978859 30.4347699"></polygon>
                        <g id="Group" filter="url(#filter-4)" stroke-width="1" fill="none" transform="translate(11.6668, 10.5705)">
                            <path d="M10.7470849,16.7953691 L9.01794697,15.0662311 L9.01841112,7.01005461 L34.5601524,7.00858303 L36.2892904,8.73772101 L36.2883621,24.850074 C30.8088337,25.036254 27.9708625,25.0364175 27.7744483,24.8505645 C27.7019355,24.7819506 27.1255562,24.2055713 26.0453104,23.1214265 C27.4860028,19.2378859 28.0625368,17.1288731 27.7749125,16.794388 C27.318957,16.2641466 21.6430144,16.2644736 10.7470849,16.7953691 Z" id="Path-Copy-2" fill="#D5630B" transform="translate(22.6536, 15.9992) rotate(-315) translate(-22.6536, -15.9992)"></path>
                            <path d="M31.9741954,28.4003651 L31.9737313,36.4565415 L6.43198995,36.4580131 L4.70285197,34.7288751 L4.70378028,18.6165222 L13.2176941,18.6160317 C14.3074393,19.7091651 14.8838187,20.2855445 14.946832,20.3451696 C15.2512783,20.633246 14.0949997,27.9985863 14.9463679,28.4013461 C15.2922293,28.564964 20.3917925,27.9882577 30.2450574,26.6712271 L31.9741954,28.4003651 Z" id="Path-Copy" fill="#D5630B" transform="translate(18.3385, 27.537) rotate(-315) translate(-18.3385, -27.537)"></path>
                            <g id="Official-Zed-Logo-Copy" transform="translate(0, 0.0001)" fill="#FF7F00">
                                <g id="Logo-1-Copy-14" transform="translate(20.5207, 20.5207) rotate(-315) translate(-20.5207, -20.5207)translate(5.1948, 6.826)">
                                    <g id="Group" transform="translate(-0, 0)">
                                        <path d="M-5.22682627e-15,8.05571232 L-5.22682627e-15,1.59833779e-15 L25.5432129,1.59833779e-15 L25.5432129,16.1114246 C20.0633795,16.2972783 17.2252448,16.2972783 17.0288086,16.1114246 C16.7341543,15.8326441 17.7128271,8.851068 17.0288086,8.05571232 C16.5727962,7.52547519 10.8965267,7.52547519 -5.22682627e-15,8.05571232 Z" id="Path"></path>
                                        <path d="M30.6518555,19.3337096 L30.6518555,27.3894219 L5.10864258,27.3894219 L5.10864258,11.2779972 C10.5819252,11.0859457 13.42006,11.0859457 13.6230469,11.2779972 C13.9275273,11.5660745 12.7716064,18.9309239 13.6230469,19.3337096 C14.1906738,19.6022333 19.8669434,19.6022333 30.6518555,19.3337096 Z" id="Path"></path>
                                    </g>
                                </g>
                            </g>
                        </g>
                    </g>
                </g>
            </g>
        </g>
    </g>
</svg>
