<svg xmlns="http://www.w3.org/2000/svg" width="22" height="22" viewBox="0 0 22 22">
  <g fill-rule="evenodd" transform="translate(2.5)">
    <path fill="#4B91E2" d="M-2.5313085e-14,15.7777778 L5.72222222,15.7777778 C5.96768211,15.7777778 6.17183059,15.9546529 6.21416655,16.1879021 L6.22222222,16.2777778 L6.22222222,22 L3.225844,22 C1.10826542,22 -2.5313085e-14,20.8527919 -2.5313085e-14,18.6497462 L-2.5313085e-14,15.7777778 Z"/>
    <path d="M7.74796275,0 L7.74796275,7.69543147 C7.74796275,8.96446701 8.34167637,9.57360406 9.57857974,9.57360406 L17,9.57360406 L17,18.6497462 C17,20.8426396 15.9016298,22 13.774156,22 L8,22 L8,15 C8,14.4871642 7.61395981,14.0644928 7.11662113,14.0067277 L7,14 L0,14 L0,3.34010152 C0,1.14720812 1.10826542,0 3.225844,0 L7.74796275,0 Z M9.19266589,0.101522843 C9.64784633,0.162436548 10.0931315,0.507614213 10.5878929,1.01522843 L16.0005821,6.64974619 C16.5151339,7.18781726 16.8416764,7.62436548 16.9010477,8.09137056 L9.76658906,8.09137056 C9.39057043,8.09137056 9.20256112,7.89847716 9.19266589,7.50253807 L9.19266589,0.101522843 Z"/>
  </g>
</svg>
