<svg xmlns="http://www.w3.org/2000/svg" viewBox="0 0 22 22">
  <path fill-rule="evenodd" d="M9.43001842,16.4337017 C10.0377532,16.4337017 10.412523,16.0690608 10.412523,15.4815838 L10.412523,2.96224678 C10.412523,2.3747698 10.0377532,2 9.43001842,2 L7.28268877,2 C6.67495396,2 6.29005525,2.3747698 6.29005525,2.96224678 L6.29005525,15.4815838 C6.29005525,16.0690608 6.67495396,16.4337017 7.28268877,16.4337017 L9.43001842,16.4337017 Z M14.7071823,16.4337017 C15.3149171,16.4337017 15.6998158,16.0690608 15.6998158,15.4815838 L15.6998158,5.2412523 C15.6998158,4.64364641 15.3149171,4.27900552 14.7071823,4.27900552 L12.5598527,4.27900552 C11.9521179,4.27900552 11.5773481,4.64364641 11.5773481,5.2412523 L11.5773481,15.4815838 C11.5773481,16.0690608 11.9521179,16.4337017 12.5598527,16.4337017 L14.7071823,16.4337017 Z M4.15285451,16.4337017 C4.75046041,16.4337017 5.13535912,16.0690608 5.13535912,15.4815838 L5.13535912,7.33793738 C5.13535912,6.75046041 4.75046041,6.37569061 4.15285451,6.37569061 L2.00552486,6.37569061 C1.39779006,6.37569061 1.01289134,6.75046041 1.01289134,7.33793738 L1.01289134,15.4815838 C1.01289134,16.0690608 1.39779006,16.4337017 2.00552486,16.4337017 L4.15285451,16.4337017 Z M19.9944751,16.4337017 C20.592081,16.4337017 20.9769797,16.0690608 20.9769797,15.4815838 L20.9769797,9.3839779 C20.9769797,8.79650092 20.592081,8.42173112 19.9944751,8.42173112 L17.8471455,8.42173112 C17.2394107,8.42173112 16.854512,8.79650092 16.854512,9.3839779 L16.854512,15.4815838 C16.854512,16.0690608 17.2394107,16.4337017 17.8471455,16.4337017 L19.9944751,16.4337017 Z M20.9871087,19.9585635 C21.5441989,19.9585635 22,19.5230203 22,18.9558011 C22,18.378453 21.5441989,17.9429098 20.9871087,17.9429098 L1.02302026,17.9429098 C0.455801105,17.9429098 0,18.378453 0,18.9558011 C0,19.5230203 0.455801105,19.9585635 1.02302026,19.9585635 L20.9871087,19.9585635 Z"/>
</svg>
