<svg xmlns="http://www.w3.org/2000/svg" viewBox="0 0 22 22">
  <path fill-rule="evenodd" d="M7,10.9996893 C7,11.0937329 7.01915921,11.1811825 7.05747763,11.2620379 C7.09579605,11.3428934 7.15690101,11.4184666 7.2407925,11.4887577 L12.7482263,16.3119127 C12.8883799,16.4373042 13.0597516,16.5 13.2623414,16.5 C13.4021091,16.5 13.5272904,16.4717593 13.6378851,16.4152779 C13.7484799,16.3587964 13.8364811,16.2802714 13.9018886,16.1797027 C13.9672962,16.0791339 14,15.9683634 14,15.8473909 C14,15.6692466 13.9270291,15.5131286 13.7810872,15.379037 L8.77005639,10.9990678 L13.7810872,6.61972017 C13.9270291,6.48645714 14,6.33075344 14,6.15260908 C14,6.02763183 13.9672962,5.91587732 13.9018886,5.81734554 C13.8364811,5.71881375 13.7484799,5.64128988 13.6378851,5.58477393 C13.5272904,5.52825798 13.4021091,5.5 13.2623414,5.5 C13.0597516,5.5 12.8883799,5.56269577 12.7482263,5.6880873 L7.2407925,10.5106209 C7.15736407,10.5809119 7.09637488,10.6563816 7.05782493,10.7370299 C7.01927498,10.8176782 7,10.9052313 7,10.9996893 Z"/>
</svg>
