<svg xmlns="http://www.w3.org/2000/svg" width="22" height="22" viewBox="0 0 22 22">
  <path fill="#717375" fill-rule="evenodd" d="M11.0003107,15 C10.9062671,15 10.8188175,14.9808408 10.7379621,14.9425224 C10.6571066,14.9042039 10.5815334,14.843099 10.5112423,14.7592075 L5.6880873,9.25177369 C5.56269577,9.11162011 5.5,8.9402484 5.5,8.73765856 C5.5,8.59789086 5.52824071,8.47270963 5.58472214,8.36211487 C5.64120357,8.25152011 5.71972864,8.16351894 5.82029735,8.09811137 C5.92086605,8.03270379 6.03163663,8 6.15260908,8 C6.33075344,8 6.48687143,8.07297093 6.62096303,8.2189128 L11.0009322,13.2299436 L15.3802798,8.2189128 C15.5135429,8.07297093 15.6692466,8 15.8473909,8 C15.9723682,8 16.0841227,8.03270379 16.1826545,8.09811137 C16.2811862,8.16351894 16.3587101,8.25152011 16.4152261,8.36211487 C16.471742,8.47270963 16.5,8.59789086 16.5,8.73765856 C16.5,8.9402484 16.4373042,9.11162011 16.3119127,9.25177369 L11.4893791,14.7592075 C11.4190881,14.8426359 11.3436184,14.9036251 11.2629701,14.9421751 C11.1823218,14.980725 11.0947687,15 11.0003107,15 Z"/>
</svg>
