<svg xmlns="http://www.w3.org/2000/svg" viewBox="0 0 22 22">
  <path fill-rule="evenodd" d="M15,10.9996893 C15,11.0937329 14.9808408,11.1811825 14.9425224,11.2620379 C14.9042039,11.3428934 14.843099,11.4184666 14.7592075,11.4887577 L9.25177369,16.3119127 C9.11162011,16.4373042 8.9402484,16.5 8.73765856,16.5 C8.59789086,16.5 8.47270963,16.4717593 8.36211487,16.4152779 C8.25152011,16.3587964 8.16351894,16.2802714 8.09811137,16.1797027 C8.03270379,16.0791339 8,15.9683634 8,15.8473909 C8,15.6692466 8.07297093,15.5131286 8.2189128,15.379037 L13.2299436,10.9990678 L8.2189128,6.61972017 C8.07297093,6.48645714 8,6.33075344 8,6.15260908 C8,6.02763183 8.03270379,5.91587732 8.09811137,5.81734554 C8.16351894,5.71881375 8.25152011,5.64128988 8.36211487,5.58477393 C8.47270963,5.52825798 8.59789086,5.5 8.73765856,5.5 C8.9402484,5.5 9.11162011,5.56269577 9.25177369,5.6880873 L14.7592075,10.5106209 C14.8426359,10.5809119 14.9036251,10.6563816 14.9421751,10.7370299 C14.980725,10.8176782 15,10.9052313 15,10.9996893 Z"/>
</svg>
