<svg xmlns="http://www.w3.org/2000/svg" viewBox="0 0 22 22">
  <path fill-rule="evenodd" d="M7.5,10.4996893 C7.5,10.5937329 7.51915921,10.6811825 7.55747763,10.7620379 C7.59579605,10.8428934 7.65690101,10.9184666 7.7407925,10.9887577 L13.2482263,15.8119127 C13.3883799,15.9373042 13.5597516,16 13.7623414,16 C13.9021091,16 14.0272904,15.9717593 14.1378851,15.9152779 C14.2484799,15.8587964 14.3364811,15.7802714 14.4018886,15.6797027 C14.4672962,15.5791339 14.5,15.4683634 14.5,15.3473909 C14.5,15.1692466 14.4270291,15.0131286 14.2810872,14.879037 L9.27005639,10.4990678 L14.2810872,6.11972017 C14.4270291,5.98645714 14.5,5.83075344 14.5,5.65260908 C14.5,5.52763183 14.4672962,5.41587732 14.4018886,5.31734554 C14.3364811,5.21881375 14.2484799,5.14128988 14.1378851,5.08477393 C14.0272904,5.02825798 13.9021091,5 13.7623414,5 C13.5597516,5 13.3883799,5.06269577 13.2482263,5.1880873 L7.7407925,10.0106209 C7.65736407,10.0809119 7.59637488,10.1563816 7.55782493,10.2370299 C7.51927498,10.3176782 7.5,10.4052313 7.5,10.4996893 Z" transform="rotate(90 11 10.5)"/>
</svg>
