<svg xmlns="http://www.w3.org/2000/svg" viewBox="0 0 22 22">
  <path fill-rule="evenodd" d="M4.02236652,13.8736217 L17.9684945,13.8736217 C18.4680936,13.8736217 18.9067661,13.7694374 19.2845118,13.5610687 C19.6622575,13.3527 19.9592753,13.0650269 20.1755652,12.6980492 C20.3918551,12.3310715 20.5,11.9112242 20.5,11.4385072 L20.5,10.5614928 C20.5,10.1012157 20.3918551,9.68758835 20.1755652,9.32061069 C19.9592753,8.95363302 19.6622575,8.66440486 19.2845118,8.45292621 C18.9067661,8.24144755 18.4680936,8.13570823 17.9684945,8.13570823 L4.02236652,8.13570823 C3.52886003,8.13570823 3.09171076,8.24144755 2.71091871,8.45292621 C2.33012666,8.66440486 2.03310887,8.95363302 1.81986532,9.32061069 C1.60662177,9.68758835 1.5,10.1012157 1.5,10.5614928 L1.5,11.4385072 C1.5,11.9112242 1.60662177,12.3310715 1.81986532,12.6980492 C2.03310887,13.0650269 2.33012666,13.3527 2.71091871,13.5610687 C3.09171076,13.7694374 3.52886003,13.8736217 4.02236652,13.8736217 Z M4.24170274,12.4461408 C3.86395703,12.4461408 3.56541607,12.3295165 3.34607985,12.096268 C3.12674363,11.8630195 3.01707552,11.5691264 3.01707552,11.2145886 L3.01707552,10.7854114 C3.01707552,10.4370936 3.12674363,10.1478654 3.34607985,9.91772689 C3.56541607,9.68758835 3.86395703,9.57251908 4.24170274,9.57251908 L17.7491582,9.57251908 C18.1329966,9.57251908 18.4345839,9.68758835 18.6539202,9.91772689 C18.8732564,10.1478654 18.9829245,10.4370936 18.9829245,10.7854114 L18.9829245,11.2145886 C18.9829245,11.5691264 18.8732564,11.8630195 18.6539202,12.096268 C18.4345839,12.3295165 18.1329966,12.4461408 17.7491582,12.4461408 L4.24170274,12.4461408 Z M10.9954305,22 C11.1964887,22 11.3701299,21.9284705 11.516354,21.7854114 C11.6625782,21.6423523 11.7356902,21.4713034 11.7356902,21.2722646 L11.7356902,18.4546226 L11.6625782,16.9898219 L12.3754209,17.764207 L13.453824,18.8837998 C13.5878628,19.0268589 13.7523649,19.0983885 13.9473304,19.0983885 C14.1362033,19.0983885 14.296136,19.0361889 14.4271284,18.9117897 C14.5581209,18.7873904 14.6236171,18.6287815 14.6236171,18.4359627 C14.6236171,18.3302234 14.6038159,18.2369239 14.5642136,18.1560645 C14.5246112,18.075205 14.4652076,17.9974555 14.3860029,17.9228159 L11.534632,15.2078032 C11.3518519,15.0336443 11.172118,14.9465649 10.9954305,14.9465649 C10.818743,14.9465649 10.6420555,15.0336443 10.465368,15.2078032 L7.61399711,17.9228159 C7.53479237,17.9974555 7.47538881,18.075205 7.43578644,18.1560645 C7.39618406,18.2369239 7.37638288,18.3302234 7.37638288,18.4359627 C7.37638288,18.6287815 7.43883277,18.7873904 7.56373256,18.9117897 C7.68863236,19.0361889 7.84856502,19.0983885 8.04353054,19.0983885 C8.23849607,19.0983885 8.40604457,19.0268589 8.54617605,18.8837998 L9.62457912,17.764207 L10.3282828,16.9898219 L10.2643098,18.4546226 L10.2643098,21.2722646 C10.2643098,21.4713034 10.3374218,21.6423523 10.483646,21.7854114 C10.6298701,21.9284705 10.800465,22 10.9954305,22 Z M10.9954305,7.05343511 C11.172118,7.05343511 11.3518519,6.97257563 11.534632,6.81085666 L14.3860029,4.07718405 C14.4652076,4.01498445 14.5246112,3.94034493 14.5642136,3.85326548 C14.6038159,3.76618603 14.6236171,3.67288663 14.6236171,3.57336726 C14.6236171,3.37432853 14.5581209,3.21260956 14.4271284,3.08821035 C14.296136,2.96381114 14.1362033,2.90161154 13.9473304,2.90161154 C13.7523649,2.90161154 13.5878628,2.97625106 13.453824,3.12553011 L12.3754209,4.25445293 L11.6625782,5.01017812 L11.7356902,3.54537744 L11.7356902,0.73706531 C11.7356902,0.538026576 11.6625782,0.365422675 11.516354,0.219253605 C11.3701299,0.0730845349 11.1964887,0 10.9954305,0 C10.800465,0 10.6298701,0.0730845349 10.483646,0.219253605 C10.3374218,0.365422675 10.2643098,0.538026576 10.2643098,0.73706531 L10.2643098,3.54537744 L10.3282828,5.01017812 L9.62457912,4.25445293 L8.54617605,3.12553011 C8.40604457,2.97625106 8.23849607,2.90161154 8.04353054,2.90161154 C7.84856502,2.90161154 7.68863236,2.96381114 7.56373256,3.08821035 C7.43883277,3.21260956 7.37638288,3.37432853 7.37638288,3.57336726 C7.37638288,3.67288663 7.39618406,3.76618603 7.43578644,3.85326548 C7.47538881,3.94034493 7.53479237,4.01498445 7.61399711,4.07718405 L10.465368,6.81085666 C10.6420555,6.97257563 10.818743,7.05343511 10.9954305,7.05343511 Z"/>
</svg>
