<svg xmlns="http://www.w3.org/2000/svg" width="22" height="22" viewBox="0 0 22 22">
  <path fill="#0F1E2E" d="M10,7.04666933 C10.2154399,7.04666933 10.3770197,6.96769047 10.5834829,6.78340646 L13.5278276,4.08934982 C13.6894075,3.94894296 13.7791741,3.77343438 13.7791741,3.56282409 C13.7791741,3.15915437 13.464991,2.86956522 13.043088,2.86956522 C12.8366248,2.86956522 12.6481149,2.94854408 12.513465,3.09772637 L11.427289,4.18587954 L10.7360862,4.93179099 L10.7989228,3.48384523 L10.7989228,0.772237734 C10.7989228,0.359792581 10.4398564,0 10,0 C9.56014363,0 9.2010772,0.359792581 9.2010772,0.772237734 L9.2010772,3.48384523 L9.26391382,4.93179099 L8.57271095,4.18587954 L7.48653501,3.09772637 C7.3518851,2.94854408 7.15439856,2.86956522 6.95691203,2.86956522 C6.53500898,2.86956522 6.22082585,3.15915437 6.22082585,3.56282409 C6.22082585,3.77343438 6.31059246,3.94894296 6.47217235,4.08934982 L9.41651706,6.78340646 C9.62298025,6.96769047 9.78456014,7.04666933 10,7.04666933 Z M2.6929982,13.9090546 L17.3070018,13.9090546 C18.8958707,13.9090546 20,12.8560032 20,11.4256083 L20,10.5743917 C20,9.14399681 18.8868941,8.09094535 17.3070018,8.09094535 L2.6929982,8.09094535 C1.11310592,8.09094535 0,9.14399681 0,10.5743917 L0,11.4256083 C0,12.8560032 1.10412926,13.9090546 2.6929982,13.9090546 Z M2.95332136,12.3996809 C2.17235189,12.3996809 1.68761221,11.890706 1.68761221,11.1974471 L1.68761221,10.8025529 C1.68761221,10.109294 2.17235189,9.60031911 2.95332136,9.60031911 L17.0466786,9.60031911 C17.8276481,9.60031911 18.3123878,10.109294 18.3123878,10.8025529 L18.3123878,11.1974471 C18.3123878,11.890706 17.8276481,12.3996809 17.0466786,12.3996809 L2.95332136,12.3996809 Z M10,22 C10.4398564,22 10.7989228,21.6402074 10.7989228,21.2277623 L10.7989228,18.5161548 L10.7360862,17.068209 L11.427289,17.8141205 L12.513465,18.9110491 C12.6481149,19.0514559 12.8366248,19.1304348 13.043088,19.1304348 C13.464991,19.1304348 13.7791741,18.8408456 13.7791741,18.4371759 C13.7791741,18.2265656 13.6894075,18.051057 13.5278276,17.9106502 L10.5834829,15.2165935 C10.3770197,15.0323095 10.2154399,14.9533307 10,14.9533307 C9.78456014,14.9533307 9.62298025,15.0323095 9.41651706,15.2165935 L6.47217235,17.9106502 C6.31059246,18.051057 6.22082585,18.2265656 6.22082585,18.4371759 C6.22082585,18.8408456 6.53500898,19.1304348 6.95691203,19.1304348 C7.15439856,19.1304348 7.3518851,19.0514559 7.48653501,18.9110491 L8.57271095,17.8141205 L9.26391382,17.068209 L9.2010772,18.5161548 L9.2010772,21.2277623 C9.2010772,21.6402074 9.56014363,22 10,22 Z" transform="translate(1)"/>
</svg>
