<svg width="22px" height="22px" viewBox="0 0 22 22" version="1.1" xmlns="http://www.w3.org/2000/svg" xmlns:xlink="http://www.w3.org/1999/xlink">
    <g stroke="none" stroke-width="1" fill-rule="evenodd">
        <path d="M3.05400844,19.5 C1.04894515,19.5 0,18.4812734 0,16.534778 L0,5.46522204 C0,3.50963082 1.04894515,2.5 3.05400844,2.5 L18.9367089,2.5 C20.9510549,2.5 22,3.51872659 22,5.46522204 L22,16.534778 C22,18.4812734 20.9510549,19.5 18.9367089,19.5 L3.05400844,19.5 Z M1.84725738,5.62894596 L1.84725738,7.78464419 L10.2481013,7.78464419 L10.2481013,4.31005886 L3.17468354,4.31005886 C2.32067511,4.31005886 1.84725738,4.74665597 1.84725738,5.62894596 Z M11.7518987,7.78464419 L20.1434599,7.78464419 L20.1434599,5.62894596 C20.1434599,4.74665597 19.6700422,4.31005886 18.8160338,4.31005886 L11.7518987,4.31005886 L11.7518987,7.78464419 Z M11.7518987,12.7418406 L20.1434599,12.7418406 L20.1434599,9.25815944 L11.7518987,9.25815944 L11.7518987,12.7418406 Z M10.2481013,9.25815944 L1.84725738,9.25815944 L1.84725738,12.7418406 L10.2481013,12.7418406 L10.2481013,9.25815944 Z M18.8160338,17.6899411 C19.6700422,17.6899411 20.1434599,17.253344 20.1434599,16.371054 L20.1434599,14.20626 L11.7518987,14.20626 L11.7518987,17.6899411 L18.8160338,17.6899411 Z M3.17468354,17.6899411 L10.2481013,17.6899411 L10.2481013,14.20626 L1.84725738,14.20626 L1.84725738,16.371054 C1.84725738,17.253344 2.32067511,17.6899411 3.17468354,17.6899411 Z"></path>
    </g>
</svg>
