<svg xmlns="http://www.w3.org/2000/svg" viewBox="0 0 22 22">
  <path fill-rule="evenodd" d="M11.5758547,21 C11.8814103,21 12.1399573,20.884859 12.3397436,20.6891192 L21.6474359,11.7772021 C21.8707265,11.5584341 22,11.2936097 22,11.0057571 C22,10.7063903 21.8707265,10.4185377 21.6474359,10.234312 L12.3397436,1.31088083 C12.1282051,1.11514105 11.8814103,1 11.5758547,1 C10.9647436,1 10.4946581,1.46056419 10.4946581,2.05929764 C10.4946581,2.33563615 10.6239316,2.61197467 10.8119658,2.80771445 L19.3675214,11.0057571 L10.8119658,19.2037997 C10.6239316,19.3995394 10.4946581,19.6643638 10.4946581,19.9522165 C10.4946581,20.5509499 10.9647436,21 11.5758547,21 Z M1.06944444,21 C1.375,21 1.63354701,20.884859 1.84508547,20.6891192 L11.1527778,11.7772021 C11.3760684,11.5584341 11.4935897,11.2936097 11.4935897,11.0057571 C11.4935897,10.7063903 11.3760684,10.4185377 11.1527778,10.234312 L1.83333333,1.31088083 C1.63354701,1.11514105 1.375,1 1.06944444,1 C0.458333333,1 0,1.46056419 0,2.05929764 C0,2.33563615 0.117521368,2.61197467 0.305555556,2.80771445 L8.86111111,11.0057571 L0.305555556,19.2037997 C0.117521368,19.3995394 0,19.6643638 0,19.9522165 C0,20.5509499 0.458333333,21 1.06944444,21 Z"/>
</svg>
