<svg xmlns="http://www.w3.org/2000/svg" width="22" height="22" viewBox="0 0 22 22">
  <g fill="#0F1E2E" fill-rule="evenodd">
    <path fill-rule="nonzero" d="M3.26465028,17.1379475 L5.04253308,17.1379475 L5.04253308,18.7446301 C5.04253308,20.9078759 6.12381853,22 8.30718336,22 L18.7457467,22 C20.9083176,22 22,20.9078759 22,18.7446301 L22,8.11742243 C22,5.95417661 20.9083176,4.86205251 18.7457467,4.86205251 L16.9574669,4.86205251 L16.9574669,3.25536993 C16.9574669,1.09212411 15.8657845,0 13.7032136,0 L3.26465028,0 C1.08128544,0 0,1.09212411 0,3.25536993 L0,13.8825776 C0,16.0458234 1.08128544,17.1379475 3.26465028,17.1379475 Z M3.28544423,15.4472554 C2.24574669,15.4472554 1.67391304,14.8801909 1.67391304,13.7880668 L1.67391304,3.34988067 C1.67391304,2.25775656 2.24574669,1.69069212 3.28544423,1.69069212 L13.6720227,1.69069212 C14.7013233,1.69069212 15.2835539,2.25775656 15.2835539,3.34988067 L15.2835539,4.86205251 L8.30718336,4.86205251 C6.12381853,4.86205251 5.04253308,5.94367542 5.04253308,8.11742243 L5.04253308,15.4472554 L3.28544423,15.4472554 Z M8.32797732,20.3093079 C7.29867675,20.3093079 6.71644612,19.7422434 6.71644612,18.6501193 L6.71644612,8.21193317 C6.71644612,7.11980907 7.29867675,6.55274463 8.32797732,6.55274463 L18.7145558,6.55274463 C19.7438563,6.55274463 20.326087,7.11980907 20.326087,8.21193317 L20.326087,18.6501193 C20.326087,19.7422434 19.7438563,20.3093079 18.7145558,20.3093079 L8.32797732,20.3093079 Z"/>
    <path d="M3.28544423,15.4472554 C2.24574669,15.4472554 1.67391304,14.8801909 1.67391304,13.7880668 L1.67391304,3.34988067 C1.67391304,2.25775656 2.24574669,1.69069212 3.28544423,1.69069212 L13.6720227,1.69069212 C14.7013233,1.69069212 15.2835539,2.25775656 15.2835539,3.34988067 L15.2835539,4.86205251 L8.30718336,4.86205251 C6.12381853,4.86205251 5.04253308,5.94367542 5.04253308,8.11742243 L5.04253308,15.4472554 L3.28544423,15.4472554 Z" opacity="0"/>
    <path d="M8.32797732,20.3093079 C7.29867675,20.3093079 6.71644612,19.7422434 6.71644612,18.6501193 L6.71644612,8.21193317 C6.71644612,7.11980907 7.29867675,6.55274463 8.32797732,6.55274463 L18.7145558,6.55274463 C19.7438563,6.55274463 20.326087,7.11980907 20.326087,8.21193317 L20.326087,18.6501193 C20.326087,19.7422434 19.7438563,20.3093079 18.7145558,20.3093079 L8.32797732,20.3093079 Z" opacity=".1"/>
  </g>
</svg>
