<svg xmlns="http://www.w3.org/2000/svg" viewBox="0 0 22 22">
  <path fill-rule="evenodd" d="M3.18230376,17.1745055 L6.2254993,17.1745055 L6.2254993,15.6852747 L3.42614956,15.6852747 C3.02299118,15.6852747 2.704366,15.5643956 2.47027404,15.3226374 C2.23618207,15.0808791 2.11913609,14.7762637 2.11913609,14.4087912 L2.11913609,7.58153846 C2.11913609,7.21406593 2.23618207,6.91106227 2.47027404,6.67252747 C2.704366,6.43399267 3.02299118,6.31472527 3.42614956,6.31472527 L6.2254993,6.31472527 L6.2254993,4.82549451 L3.18230376,4.82549451 C2.3889921,4.82549451 1.74361356,5.06080586 1.24616814,5.53142857 C0.748722712,6.00205128 0.5,6.60161172 0.5,7.33010989 L0.5,14.6602198 C0.5,15.3887179 0.748722712,15.9898901 1.24616814,16.4637363 C1.74361356,16.9375824 2.3889921,17.1745055 3.18230376,17.1745055 Z M18.8274501,17.1745055 C19.6207617,17.1745055 20.2645146,16.9375824 20.7587088,16.4637363 C21.2529029,15.9898901 21.5,15.3887179 21.5,14.6602198 L21.5,7.33010989 C21.5,6.60161172 21.2529029,6.00205128 20.7587088,5.53142857 C20.2645146,5.06080586 19.6207617,4.82549451 18.8274501,4.82549451 L15.7842545,4.82549451 L15.7842545,6.31472527 L18.5836043,6.31472527 C18.9867627,6.31472527 19.3053878,6.43399267 19.5394798,6.67252747 C19.7735718,6.91106227 19.8906177,7.21406593 19.8906177,7.58153846 L19.8906177,14.4087912 C19.8906177,14.7762637 19.7735718,15.0808791 19.5394798,15.3226374 C19.3053878,15.5643956 18.9867627,15.6852747 18.5836043,15.6852747 L15.7842545,15.6852747 L15.7842545,17.1745055 L18.8274501,17.1745055 Z M11.0048769,22 C11.193451,22 11.3820251,21.912967 11.5705992,21.7389011 L14.6235485,18.9151648 C14.7015792,18.8378022 14.7617278,18.7572161 14.8039944,18.6734066 C14.846261,18.5895971 14.8673943,18.4928938 14.8673943,18.3832967 C14.8673943,18.1834432 14.8007431,18.0190476 14.6674408,17.8901099 C14.5341384,17.7611722 14.3634464,17.6967033 14.1553646,17.6967033 C13.9472829,17.6967033 13.7717139,17.7708425 13.6286577,17.9191209 L12.4679517,19.0892308 L11.7169066,19.8821978 L11.7851835,18.363956 L11.7851835,15.4145055 C11.7851835,15.2082051 11.7087784,15.0309158 11.5559684,14.8826374 C11.4031584,14.734359 11.2194612,14.6602198 11.0048769,14.6602198 C10.7902926,14.6602198 10.6065954,14.734359 10.4537854,14.8826374 C10.3009754,15.0309158 10.2245704,15.2082051 10.2245704,15.4145055 L10.2245704,18.363956 L10.2830934,19.8821978 L9.54180214,19.0892308 L8.38109614,17.9191209 C8.23153739,17.7708425 8.05921969,17.6967033 7.86414306,17.6967033 C7.64955876,17.6967033 7.47561542,17.7611722 7.34231305,17.8901099 C7.20901068,18.0190476 7.1423595,18.1834432 7.1423595,18.3832967 C7.1423595,18.4928938 7.1634928,18.5895971 7.20575941,18.6734066 C7.24802601,18.7572161 7.30817464,18.8378022 7.38620529,18.9151648 L10.4294008,21.7389011 C10.6244775,21.912967 10.8163028,22 11.0048769,22 Z M11.0048769,7.33978022 C11.2194612,7.33978022 11.4031584,7.26564103 11.5559684,7.11736264 C11.7087784,6.96908425 11.7851835,6.78857143 11.7851835,6.57582418 L11.7851835,3.63604396 L11.7169066,2.10813187 L12.4679517,2.91076923 L13.6286577,4.07120879 C13.7717139,4.22593407 13.9440316,4.3032967 14.1456108,4.3032967 C14.3536925,4.3032967 14.5260102,4.23721612 14.6625639,4.10505495 C14.7991175,3.97289377 14.8673943,3.81010989 14.8673943,3.6167033 C14.8673943,3.50710623 14.846261,3.40879121 14.8039944,3.32175824 C14.7617278,3.23472527 14.7015792,3.15252747 14.6235485,3.07516484 L11.5705992,0.261098901 C11.3820251,0.087032967 11.193451,0 11.0048769,0 C10.8163028,0 10.6244775,0.087032967 10.4294008,0.261098901 L7.38620529,3.07516484 C7.30817464,3.15252747 7.24802601,3.23472527 7.20575941,3.32175824 C7.1634928,3.40879121 7.1423595,3.50710623 7.1423595,3.6167033 C7.1423595,3.81010989 7.20738504,3.97289377 7.33743614,4.10505495 C7.46748723,4.23721612 7.63980492,4.3032967 7.85438922,4.3032967 C8.05596842,4.3032967 8.23153739,4.22593407 8.38109614,4.07120879 L9.54180214,2.91076923 L10.2830934,2.10813187 L10.2245704,3.63604396 L10.2245704,6.57582418 C10.2245704,6.78857143 10.3009754,6.96908425 10.4537854,7.11736264 C10.6065954,7.26564103 10.7902926,7.33978022 11.0048769,7.33978022 Z"/>
</svg>
