<svg xmlns="http://www.w3.org/2000/svg" width="22" height="22" viewBox="0 0 22 22">
  <path d="M10.7479627,0 L10.7479627,7.69543147 C10.7479627,8.96446701 11.3416764,9.57360406 12.5785797,9.57360406 L20,9.57360406 L20,18.6497462 C20,20.8426396 18.9016298,22 16.774156,22 L6.225844,22 C4.10826542,22 3,20.8527919 3,18.6497462 L3,3.34010152 C3,1.14720812 4.10826542,0 6.225844,0 L10.7479627,0 Z M12.1926659,0.101522843 C12.6478463,0.162436548 13.0931315,0.507614213 13.5878929,1.01522843 L19.0005821,6.64974619 C19.5151339,7.18781726 19.8416764,7.62436548 19.9010477,8.09137056 L12.7665891,8.09137056 C12.3905704,8.09137056 12.2025611,7.89847716 12.1926659,7.50253807 L12.1926659,0.101522843 Z"/>
</svg>