<svg xmlns="http://www.w3.org/2000/svg" width="22" height="22" viewBox="0 0 22 22">
  <g fill="none" fill-rule="evenodd">
    <path fill="#0F1E2E" fill-rule="nonzero" d="M3.04183179,20 L19.2487891,20 C20.9828269,20 22,18.9770492 22,16.9508197 L22,6.84918033 C22,4.82295082 20.9731396,3.8 18.9581682,3.8 L9.65830031,3.8 C8.99955967,3.8 8.60237781,3.64262295 8.11800969,3.21967213 L7.52708058,2.72786885 C6.88771466,2.17704918 6.39365918,2 5.4346103,2 L2.67371202,2 C0.978423602,2 0,2.98360656 0,4.96065574 L0,16.9508197 C0,18.9868852 1.01717305,20 3.04183179,20 Z M1.55966535,5.04918033 C1.55966535,4.07540984 2.06340819,3.57377049 2.99339498,3.57377049 L5.03742845,3.57377049 C5.67679436,3.57377049 6.06428886,3.74098361 6.55834434,4.16393443 L7.14927345,4.66557377 C7.778952,5.19672131 8.29238221,5.38360656 9.25143109,5.38360656 L18.9291061,5.38360656 C19.888155,5.38360656 20.4403347,5.9147541 20.4403347,6.93770492 L20.4403347,7.49836066 L1.55966535,7.49836066 L1.55966535,5.04918033 Z M3.06120652,18.4163934 C2.09247028,18.4163934 1.55966535,17.895082 1.55966535,16.8721311 L1.55966535,8.98360656 L20.4403347,8.98360656 L20.4403347,16.8819672 C20.4403347,17.895082 19.888155,18.4163934 18.9291061,18.4163934 L3.06120652,18.4163934 Z"/>
    <path fill="#0F1E2E" d="M20.4403347,8.98360656 L20.4403347,16.8819672 C20.4403347,17.895082 19.888155,18.4163934 18.9291061,18.4163934 L3.06120652,18.4163934 C2.09247028,18.4163934 1.55966535,17.895082 1.55966535,16.8721311 L1.55966535,8.98360656 L20.4403347,8.98360656 Z" opacity=".1"/>
  </g>
</svg>
