<svg xmlns="http://www.w3.org/2000/svg" width="22" height="22" viewBox="0 0 22 22">
  <path fill="#0F1E2E" d="M17.1959335,22 C17.9500924,22 18.5563771,21.8947368 19,21.7744361 L19,18.9022556 C18.7190388,18.962406 18.3937153,19.0075188 18.0536044,19.0075188 C17.1515712,19.0075188 16.6487985,18.6466165 16.219963,17.3834586 L11.8133087,4.67669173 C10.4676525,0.827067669 9.43253235,0 6.7116451,0 C6.14972274,0 5.43992606,0.0902255639 4.92236599,0.22556391 L4.92236599,3.12781955 C5.23290203,3.05263158 5.67652495,2.9924812 5.987061,2.9924812 C7.49537893,2.9924812 7.92421442,3.45864662 8.56007394,5.18796992 L9.19593346,6.91729323 L3,21.8496241 L6.65249538,21.8496241 L10.5711645,11.3533835 L10.6598891,11.3533835 L13.1441774,18.7518797 C13.987061,21.2781955 15.051756,22 17.1959335,22 Z"/>
</svg>
