<svg xmlns="http://www.w3.org/2000/svg" width="22" height="22" viewBox="0 0 22 22">
  <path fill="#0F1E2E" d="M15.6118348,1 C17.8650179,1 19,2.74895892 19,5.69124289 C19,6.25781008 18.5480201,6.71710354 17.9904746,6.71710354 C17.4329291,6.71710354 16.9809491,6.25781008 16.9809491,5.69124289 C16.9809491,3.74635054 16.5301714,3.05172129 15.6118348,3.05172129 C14.545692,3.05172129 14.0405225,3.70998977 14.0080292,5.50181823 L14.0063503,5.69124289 L14.0063503,19.9741394 C14.0063503,20.5407065 13.5543704,21 12.9968249,21 C12.4720761,21 12.0408388,20.5931518 11.9919207,20.0729366 L11.9872994,19.9741394 L11.9872994,17.3013792 L4.01886124,17.3013792 L4.01905088,19.9741394 C4.01905088,20.5407065 3.56707094,21 3.00952544,21 C2.48477673,21 2.05353939,20.5931518 2.00462132,20.0729366 L2,19.9741394 L2,5.69124289 C2,2.73913914 3.24076177,1 5.6245354,1 C7.8777185,1 9.01270059,2.74895892 9.01270059,5.69124289 C9.01270059,6.25781008 8.56072065,6.71710354 8.00317515,6.71710354 C7.44562964,6.71710354 6.99364971,6.25781008 6.99364971,5.69124289 C6.99364971,3.74635054 6.54287196,3.05172129 5.6245354,3.05172129 C4.55839262,3.05172129 4.05322312,3.70998977 4.02072976,5.50181823 L4.01905088,5.69124289 L4.01886124,9.41385597 L11.9872994,9.41385597 L11.9872994,5.69124289 C11.9872994,2.73913914 13.2280612,1 15.6118348,1 Z M11.9872994,11.1731353 L4.01886124,11.1731353 L4.01886124,15.7126646 L11.9872994,15.7126646 L11.9872994,11.1731353 Z"/>
</svg>
