<svg xmlns="http://www.w3.org/2000/svg" width="22" height="22" viewBox="0 0 22 22">
  <g fill="none" fill-rule="evenodd">
    <path fill="#0F1E2E" fill-rule="nonzero" d="M0,8.89812468 C0,13.8043588 4.03070624,17.7962494 8.98464688,17.7962494 C10.9437052,17.7962494 12.7338792,17.1718196 14.2088025,16.1236695 L19.7482088,21.6208819 C20.0071648,21.8773441 20.3449335,22 20.7052201,22 C21.4708291,22 22,21.4313229 22,20.6842372 C22,20.3274202 21.8648925,20.0040547 21.6284545,19.7698936 L16.122825,14.2838317 C17.2824974,12.7896604 17.9692938,10.9275215 17.9692938,8.89812468 C17.9692938,3.99189052 13.9385875,0 8.98464688,0 C4.03070624,0 0,3.99189052 0,8.89812468 Z M1.92528147,8.89812468 C1.92528147,5.04004055 5.08904811,1.906741 8.98464688,1.906741 C12.8802456,1.906741 16.0440123,5.04004055 16.0440123,8.89812468 C16.0440123,12.7562088 12.8802456,15.8895084 8.98464688,15.8895084 C5.08904811,15.8895084 1.92528147,12.7562088 1.92528147,8.89812468 Z"/>
    <circle cx="9" cy="9" r="7.1" fill="#0F1E2E" opacity=".1"/>
  </g>
</svg>
