<svg xmlns="http://www.w3.org/2000/svg" width="22" height="22" viewBox="0 0 22 22">
  <path fill="#0F1E2E" d="M14.2641509,22 L20.1567489,22 C20.7053701,22 21,21.7310766 21,21.2759756 C21,20.8001881 20.7053701,20.5519511 20.1567489,20.5519511 L18.0333817,20.5519511 L18.0333817,1.43770569 L20.1567489,1.43770569 C20.7053701,1.43770569 21,1.17912553 21,0.713681241 C21,0.248236953 20.7053701,0 20.1567489,0 L14.2641509,0 C13.7053701,0 13.4107402,0.248236953 13.4107402,0.713681241 C13.4107402,1.17912553 13.7053701,1.43770569 14.2641509,1.43770569 L16.4078374,1.43770569 L16.4078374,20.5519511 L14.2641509,20.5519511 C13.7053701,20.5519511 13.4107402,20.8001881 13.4107402,21.2759756 C13.4107402,21.7310766 13.7053701,22 14.2641509,22 Z M1.11756168,18.74189 C1.78809869,18.74189 2.1436865,18.4626234 2.36719884,17.738599 L3.49492017,14.5218618 L9.27576197,14.5218618 L10.413643,17.738599 C10.6269956,18.4626234 10.9825835,18.74189 11.6531205,18.74189 C12.3541364,18.74189 12.8113208,18.3074753 12.8113208,17.6351669 C12.8113208,17.3972732 12.7706821,17.1800658 12.6792453,16.9007992 L8.18867925,4.57169723 C7.87373004,3.70286789 7.30478955,3.28913963 6.40058055,3.28913963 C5.51669086,3.28913963 4.94775036,3.70286789 4.64296081,4.56135402 L0.132075472,16.9525153 C0.030478955,17.2214386 0,17.438646 0,17.6558533 C0,18.3281617 0.42670537,18.74189 1.11756168,18.74189 Z M4.07402032,12.5980254 L6.3701016,5.89562764 L6.43105951,5.89562764 L8.71698113,12.5980254 L4.07402032,12.5980254 Z" transform="translate(1)"/>
</svg>
