<svg xmlns="http://www.w3.org/2000/svg" width="22" height="22" viewBox="0 0 22 22">
  <g fill="none" fill-rule="evenodd">
    <path fill="#0F1E2E" fill-rule="nonzero" d="M10.4964844,19.5967006 C9.81081349,20.2825175 9.12138339,20.2790798 8.42819412,19.5863876 L2.42180689,13.5714709 C2.07703814,13.2266288 1.90513708,12.8782416 1.90609967,12.5263093 C1.90707036,12.1743769 2.07585669,11.8331874 2.41246269,11.5027405 L11.8739484,2.04858776 C11.9701829,1.9516882 12.073345,1.87501186 12.1834347,1.81855873 C12.2935244,1.76210561 12.429069,1.73387905 12.5900685,1.73387905 L16.6051745,1.73387905 C16.8699269,1.73387905 17.1024041,1.83711683 17.3026063,2.04359239 L19.9568424,4.69017505 C20.1633814,4.89665061 20.2666509,5.13229272 20.2666509,5.39710139 L20.2666509,9.41209491 C20.2666509,9.57710348 20.2390748,9.71466433 20.1839225,9.82477746 C20.1287703,9.9348906 20.0533991,10.0377524 19.957809,10.1333628 L10.4964844,19.5967006 Z" opacity=".1"/>
    <path fill="#0F1E2E" fill-rule="nonzero" d="M16.5811696,0 C16.9321678,0 17.2199047,0.0317716684 17.4443804,0.0953150052 C17.668856,0.158858342 17.8780264,0.264996663 18.0718917,0.413729968 C18.265757,0.562463273 18.4907696,0.76176805 18.7469296,1.0116443 L18.7469296,1.0116443 L20.9803545,3.25392375 C21.236407,3.5100308 21.4387841,3.73366789 21.5874858,3.92483504 C21.7361875,4.11600219 21.8421152,4.32540514 21.9052691,4.55304391 C21.968423,4.78068268 22,5.06971623 22,5.42014457 L22,5.42014457 L22,9.12880873 C22,9.47966678 21.9849365,9.77630083 21.9548095,10.0187109 C21.9246825,10.2611209 21.8522918,10.485322 21.7376374,10.6913141 C21.622983,10.8973063 21.4392943,11.1233068 21.1865713,11.3693156 L21.1865713,11.3693156 L11.6561319,20.9214422 C10.9403876,21.6373388 10.215326,21.9968447 9.48094712,21.9999802 C8.7465682,22.0030755 8.01533085,21.6435695 7.2872351,20.9214422 L7.2872351,20.9214422 L1.08816402,14.7303983 C0.35931643,14.0020402 -0.0033888915,13.2690627 2.38588272e-05,12.5314658 C0.00348500266,11.7938689 0.363075591,11.0671222 1.07881982,10.3512257 L1.07881982,10.3512257 L10.6279477,0.809412124 C10.8806707,0.562758698 11.109523,0.381770301 11.3145047,0.266446933 C11.5194864,0.151123566 11.741438,0.0778849014 11.9803595,0.0467309409 C12.219281,0.0155769803 12.5168723,0 12.8731333,0 L12.8731333,0 Z M16.6051745,1.73387905 L12.5900685,1.73387905 C12.429069,1.73387905 12.2935244,1.76210561 12.1834347,1.81855873 C12.073345,1.87501186 11.9701829,1.9516882 11.8739484,2.04858776 L11.8739484,2.04858776 L2.41246269,11.5027405 C2.07585669,11.8331874 1.90707036,12.1743769 1.90609967,12.5263093 C1.90513708,12.8782416 2.07703814,13.2266288 2.42180689,13.5714709 L2.42180689,13.5714709 L8.42819412,19.5863876 C9.12138339,20.2790798 9.81081349,20.2825175 10.4964844,19.5967006 L10.4964844,19.5967006 L19.957809,10.1333628 C20.0533991,10.0377524 20.1287703,9.9348906 20.1839225,9.82477746 C20.2390748,9.71466433 20.2666509,9.57710348 20.2666509,9.41209491 L20.2666509,9.41209491 L20.2666509,5.39710139 C20.2666509,5.13229272 20.1633814,4.89665061 19.9568424,4.69017505 L19.9568424,4.69017505 L17.3026063,2.04359239 C17.1024041,1.83711683 16.8699269,1.73387905 16.6051745,1.73387905 L16.6051745,1.73387905 Z M15.401706,5.2261306 C15.7953439,5.2261306 16.1226325,5.35837379 16.383572,5.62286017 C16.6445115,5.88734656 16.7749812,6.21021976 16.7749812,6.59147978 C16.7749812,6.9782186 16.6445115,7.3038312 16.383572,7.56831758 C16.1226325,7.83280397 15.7953439,7.96504716 15.401706,7.96504716 C15.0144051,7.96504716 14.6900969,7.83280397 14.4287815,7.56831758 C14.1674661,7.3038312 14.0368084,6.9782186 14.0368084,6.59147978 C14.0368084,6.21021976 14.1674661,5.88734656 14.4287815,5.62286017 C14.6900969,5.35837379 15.0144051,5.2261306 15.401706,5.2261306 Z"/>
  </g>
</svg>
