<svg xmlns="http://www.w3.org/2000/svg" width="22" height="22" viewBox="0 0 22 22">
  <path fill="#757371" fill-rule="evenodd" d="M10.8384615,16.9230769 C12.2404151,16.9230769 13.3769231,18.0595849 13.3769231,19.4615385 C13.3769231,20.8634921 12.2404151,22 10.8384615,22 C9.43650794,22 8.3,20.8634921 8.3,19.4615385 C8.3,18.0595849 9.43650794,16.9230769 10.8384615,16.9230769 Z M10.8384615,8.46153846 C12.2404151,8.46153846 13.3769231,9.5980464 13.3769231,11 C13.3769231,12.4019536 12.2404151,13.5384615 10.8384615,13.5384615 C9.43650794,13.5384615 8.3,12.4019536 8.3,11 C8.3,9.5980464 9.43650794,8.46153846 10.8384615,8.46153846 Z M10.8384615,1.77635684e-15 C12.2404151,1.77635684e-15 13.3769231,1.13650794 13.3769231,2.53846154 C13.3769231,3.94041513 12.2404151,5.07692308 10.8384615,5.07692308 C9.43650794,5.07692308 8.3,3.94041513 8.3,2.53846154 C8.3,1.13650794 9.43650794,1.77635684e-15 10.8384615,1.77635684e-15 Z"/>
</svg>
