<svg xmlns="http://www.w3.org/2000/svg" width="22" height="22" viewBox="0 0 22 22">
    <path d="M16.8109705,9.99491707 C16.8109705,8.51230605 15.9848101,7.70278224 14.4438819,7.70278224 L0,7.70278224 L0,5.46522204 C0,3.50963082 1.04894515,2.5 3.05400844,2.5 L18.9367089,2.5 C20.9510549,2.5 22,3.51872659 22,5.46522204 L22,16.534778 C22,18.4812734 20.9510549,19.5 18.9367089,19.5 L16.8109705,19.5 L16.8109705,9.99491707 Z M15.2700422,10.1950241 L15.2700422,19.5 L11.3156118,19.5 L11.3156118,9.21268058 L14.2860759,9.21268058 C14.9172996,9.21268058 15.2700422,9.56741573 15.2700422,10.1950241 Z M3.05400844,19.5 C1.04894515,19.5 0,18.4812734 0,16.534778 L0,9.21268058 L9.77468354,9.21268058 L9.77468354,19.5 L3.05400844,19.5 Z"/>
</svg>
