<svg xmlns="http://www.w3.org/2000/svg" viewBox="0 0 22 22">
  <path d="M19.3483146,21 C19.8876404,21 20.3558052,20.881613 20.752809,20.6448391 C21.1498127,20.4080651 21.4569288,20.0899001 21.6741573,19.6903441 C21.8913858,19.290788 22,18.8505364 22,18.3695893 C22,18.1550129 21.9719101,17.9385868 21.9157303,17.7203108 C21.8595506,17.5020348 21.7715356,17.2893082 21.6516854,17.082131 L13.2921348,2.34295228 C13.0449438,1.89900111 12.7153558,1.56418794 12.3033708,1.33851276 C11.8913858,1.11283759 11.4569288,1 11,1 C10.5580524,1 10.1273408,1.11283759 9.70786517,1.33851276 C9.28838951,1.56418794 8.95505618,1.89900111 8.70786517,2.34295228 L0.359550562,17.082131 C0.119850187,17.5112838 0,17.9404366 0,18.3695893 C0,18.8505364 0.108614232,19.290788 0.325842697,19.6903441 C0.543071161,20.0899001 0.850187266,20.4080651 1.24719101,20.6448391 C1.64419476,20.881613 2.11610487,21 2.66292135,21 L19.3483146,21 Z M11.011236,13.8745838 C10.3970037,13.8745838 10.082397,13.5675176 10.0674157,12.9533851 L9.92134831,7.49278579 C9.90636704,7.19681835 10,6.95079541 10.2022472,6.75471698 C10.4044944,6.55863855 10.670412,6.46059933 11,6.46059933 C11.3220974,6.46059933 11.5842697,6.55863855 11.7865169,6.75471698 C11.988764,6.95079541 12.0898876,7.20051794 12.0898876,7.50388457 L11.9325843,12.9533851 C11.917603,13.5675176 11.6104869,13.8745838 11.011236,13.8745838 Z M11.011236,17.4594895 C10.6666667,17.4594895 10.3707865,17.3466519 10.1235955,17.1209767 C9.87640449,16.8953015 9.75280899,16.6196818 9.75280899,16.2941176 C9.75280899,15.9611543 9.87640449,15.681835 10.1235955,15.4561598 C10.3707865,15.2304846 10.6666667,15.1176471 11.011236,15.1176471 C11.3558052,15.1176471 11.6516854,15.2304846 11.8988764,15.4561598 C12.1460674,15.681835 12.2696629,15.9611543 12.2696629,16.2941176 C12.2696629,16.627081 12.1441948,16.9045505 11.8932584,17.1265261 C11.6423221,17.3485017 11.3483146,17.4594895 11.011236,17.4594895 Z"/>
</svg>
