<?xml version="1.0" standalone="no"?>
<!DOCTYPE svg PUBLIC "-//W3C//DTD SVG 20010904//EN"
 "http://www.w3.org/TR/2001/REC-SVG-20010904/DTD/svg10.dtd">
<svg version="1.0" xmlns="http://www.w3.org/2000/svg"
 width="500.000000pt" height="500.000000pt" viewBox="0 0 500.000000 500.000000"
 preserveAspectRatio="xMidYMid meet">
<metadata>
Created by potrace 1.11, written by Peter Selinger 2001-2013
</metadata>
<g transform="translate(0.000000,500.000000) scale(0.100000,-0.100000)"
fill="#000000" stroke="none">
<path d="M1250 4255 c-123 -14 -251 -45 -395 -95 -99 -34 -249 -106 -266 -127
-16 -19 19 -74 62 -97 l35 -19 124 57 c258 120 367 145 662 153 186 5 219 8
233 22 18 21 28 72 17 89 -10 14 -170 32 -282 31 -41 -1 -127 -7 -190 -14z"/>
<path d="M3326 4159 c-86 -9 -99 -18 -91 -63 11 -62 16 -63 248 -69 299 -7
406 -32 669 -154 l118 -55 37 19 c21 10 46 33 57 52 l19 33 -24 19 c-107 81
-459 196 -671 219 -134 14 -191 13 -182 -2 6 -10 4 -10 -7 0 -14 13 -54 14
-173 1z m325 -116 c13 -16 12 -17 -3 -4 -17 13 -22 21 -14 21 2 0 10 -8 17
-17z"/>
<path d="M1150 3714 c-76 -10 -209 -48 -290 -83 -300 -130 -515 -386 -601
-718 -33 -127 -33 -359 0 -486 103 -396 382 -676 776 -778 76 -20 115 -23 245
-23 130 0 169 3 245 23 394 102 674 383 776 778 31 118 33 348 5 467 -21 91
-21 91 61 101 60 7 302 10 309 3 2 -3 -6 -40 -17 -84 -33 -118 -33 -364 0
-487 103 -396 382 -676 776 -778 130 -34 360 -34 490 0 394 102 673 382 776
778 33 127 33 359 0 486 -103 395 -382 676 -776 778 -129 34 -360 34 -488 0
-228 -59 -418 -176 -557 -342 l-54 -66 -51 14 c-27 7 -108 16 -180 19 -141 7
-277 -10 -383 -45 l-56 -19 -15 21 c-141 201 -363 352 -613 417 -82 21 -295
34 -378 24z m218 -310 c383 -79 662 -420 662 -809 0 -453 -372 -825 -825 -825
-453 0 -825 372 -825 825 0 517 483 913 988 809z m2550 0 c383 -79 662 -420
662 -809 0 -453 -372 -825 -825 -825 -453 0 -825 372 -825 825 0 517 483 913
988 809z"/>
<path d="M1372 2959 c-97 -48 -174 -151 -201 -270 -13 -57 -13 -181 0 -238 27
-119 104 -222 201 -270 51 -26 73 -31 133 -31 60 0 82 5 133 31 97 48 174 151
201 270 13 57 13 181 0 238 -27 119 -104 222 -201 270 -51 26 -73 31 -133 31
-60 0 -82 -5 -133 -31z"/>
<path d="M3422 2959 c-97 -48 -174 -151 -201 -270 -13 -57 -13 -181 0 -238 27
-119 104 -222 201 -270 51 -26 73 -31 133 -31 60 0 82 5 133 31 97 48 174 151
201 270 13 57 13 181 0 238 -27 119 -104 222 -201 270 -51 26 -73 31 -133 31
-60 0 -82 -5 -133 -31z"/>
<path d="M3315 1336 c-44 -18 -114 -49 -155 -68 -102 -48 -256 -105 -332 -123
-90 -21 -287 -19 -468 5 -84 12 -157 23 -162 26 -5 3 -20 -2 -34 -11 -57 -37
-104 -208 -71 -258 27 -42 182 -70 442 -82 296 -14 541 40 840 185 77 37 155
81 173 98 28 26 31 34 26 63 -15 77 -77 159 -141 185 -18 8 -34 14 -35 14 -2
0 -39 -15 -83 -34z"/>
</g>
</svg>
