<?xml version="1.0" encoding="UTF-8"?>
<svg xmlns="http://www.w3.org/2000/svg" xmlns:xlink="http://www.w3.org/1999/xlink">
	<symbol viewBox="0 0 24 24" id="wireshark" xmlns="http://www.w3.org/2000/svg">
		<g fill-rule="evenodd">
			<path d="M15.3773234,6.68118738 C18.3380798,9.65618678 20.8347046,14.4198211 22,21.9880449 L4.00377344,21.9880449 C6.28750105,16.0454881 5.61957657,9.40474153 2,2.06580509 L2.42571976,2.03623531 C5.77503442,1.83764517 11.0484281,2.33146771 15.3773234,6.68118738 Z M5.078,4.05 L5.09124485,4.08125387 C7.32855487,9.66501735 7.89718876,14.9235986 6.75882563,19.8150276 L6.716,19.988 L19.607,19.988 L19.5209518,19.5763111 C18.4245756,14.5581855 16.6098137,10.8802836 14.2100529,8.34970286 L13.9597205,8.09200347 C11.4512566,5.57147248 8.46670141,4.34531235 5.22952149,4.062044 L5.078,4.05 Z">
			</path>
		</g>
	</symbol>
	<symbol viewBox="0 0 22 22" id="zui" xmlns="http://www.w3.org/2000/svg">
		<g transform="rotate(45 4.84 12.702)">
			<path d="M0,4.20138889 L0,0 L13.3203125,0 L13.3203125,8.40277778 C10.4626809,8.49970819 8.98264616,8.49970819 8.88020833,8.40277778 C8.7265516,8.25738216 9.23691133,4.61619994 8.88020833,4.20138889 C8.64240634,3.92484819 5.68233689,3.92484819 0,4.20138889 Z" />
			<path d="M15.984375,10.0833333 L15.984375,14.2847222 L2.6640625,14.2847222 L2.6640625,5.88194444 C5.51827802,5.7817816 6.99831275,5.7817816 7.10416667,5.88194444 C7.26294755,6.03218872 6.66015625,9.87326389 7.10416667,10.0833333 C7.40017361,10.2233796 10.3602431,10.2233796 15.984375,10.0833333 Z" />
		</g>
	</symbol>
</svg>
