<?xml version="1.0" encoding="UTF-8"?>
<svg xmlns="http://www.w3.org/2000/svg" xmlns:xlink="http://www.w3.org/1999/xlink">
	<symbol viewBox="0 0 22 22" id="wireshark" xmlns="http://www.w3.org/2000/svg">
		<g fill-rule="evenodd">
			<path fill="#0F1E2E" fillOpacity=".103" fillRule="evenodd" stroke="#0F1E2E" strokeWidth="1.524" d="M1.85010352,3.00958965 C4.89563776,2.7816157 9.99085414,3.07573571 14.1411653,6.99798671 C16.8615032,9.56884175 19.1553978,13.6853513 20.2260692,20.2254556 C20.1487757,20.2451641 20.0489188,20.2380952 19.9466072,20.2380952 L19.9466072,20.2380952 L3.91744034,20.2380952 C3.88600815,20.2380952 3.84587264,20.227126 3.80796568,20.206464 C6.9553932,12.5035454 5.24285269,8.54497829 2.88820094,4.67427875 L2.88820094,4.67427875 L2.6327776,4.25859857 C2.50391617,4.05069715 2.37354276,3.84266291 2.24225569,3.63373216 L2.24225569,3.63373216 L1.98103096,3.21824091 Z" />
		</g>
	</symbol>
	<symbol viewBox="0 0 22 22" id="zui" xmlns="http://www.w3.org/2000/svg">
		<g transform="rotate(45 4.84 12.702)">
			<path d="M0,4.20138889 L0,0 L13.3203125,0 L13.3203125,8.40277778 C10.4626809,8.49970819 8.98264616,8.49970819 8.88020833,8.40277778 C8.7265516,8.25738216 9.23691133,4.61619994 8.88020833,4.20138889 C8.64240634,3.92484819 5.68233689,3.92484819 0,4.20138889 Z" />
			<path d="M15.984375,10.0833333 L15.984375,14.2847222 L2.6640625,14.2847222 L2.6640625,5.88194444 C5.51827802,5.7817816 6.99831275,5.7817816 7.10416667,5.88194444 C7.26294755,6.03218872 6.66015625,9.87326389 7.10416667,10.0833333 C7.40017361,10.2233796 10.3602431,10.2233796 15.984375,10.0833333 Z" />
		</g>
	</symbol>
</svg>
